<?xml version="1.0" standalone="no"?><!DOCTYPE svg PUBLIC "-//W3C//DTD SVG 1.1//EN" "http://www.w3.org/Graphics/SVG/1.1/DTD/svg11.dtd" ><svg xmlns="http://www.w3.org/2000/svg"><metadata></metadata><defs><font id="FontForge 2.0 : Geo : 27-11-2010" horiz-adv-x="1024"><font-face font-family="Geo" font-weight="500" font-stretch="normal" units-per-em="1024" panose-1="2 0 6 3 0 0 0 0 0 0" ascent="821" descent="-225" x-height="0" bbox="-20 -225 1024 821" underline-thickness="20" underline-position="-146" unicode-range="U+0020-fb02" /><missing-glyph horiz-adv-x="512" d="M51 0 l0 546 l410 0 l0 -546 l-410 0 ZM102 51 l308 0 l0 444 l-308 0 l0 -444 Z" /><glyph glyph-name=".null" unicode="" d="" /><glyph glyph-name="nonmarkingreturn" unicode="" d="" /><glyph glyph-name="space" unicode=" " d="" /><glyph glyph-name="exclam" unicode="!" d="M158 226 l0 450 l-76 0 l0 -451 l76 1 ZM158 0 l0 133 l-76 0 l0 -133 l76 0 Z" /><glyph glyph-name="quotedbl" unicode="&quot;" d="M20 676 l0 -195 l76 0 l0 195 l-76 0 ZM123 676 l0 -195 l76 0 l0 195 l-76 0 Z" /><glyph glyph-name="numbersign" unicode="#" d="M247 410 l0 83 l-64 0 l0 -83 l64 0 ZM247 287 l0 52 l-63 0 l0 -52 l-81 0 l0 52 l-62 0 l0 71 l62 0 l0 83 l-62 0 l0 70 l61 0 l0 73 l81 0 l0 -73 l63 0 l0 73 l81 0 l0 -73 l52 0 l0 -70 l-52 0 l0 -83 l52 0 l0 -71 l-51 0 l0 -52 l-81 0 Z" /><glyph glyph-name="dollar" unicode="$" d="M275 75 l44 0 l0 95 l-44 6 l0 -101 ZM204 376 l-42 0 l0 -100 l42 -6 l0 106 ZM275 563 l0 -112 l124 0 l0 -123 l-75 0 l0 48 l-49 0 l0 -116 l122 -17 l0 -242 l-122 0 l0 -83 l-71 0 l0 82 l-122 0 l0 113 l76 0 l0 -38 l46 0 l0 112 l-122 18 l0 246 l122 0 l0 112 l71 0 Z" /><glyph glyph-name="percent" unicode="%" d="M397 589 l-338 -585 l66 -38 l338 585 l-66 38 ZM20 358 l0 209 l191 0 l0 -209 l-191 0 ZM156 523 l-77 -1 l0 -121 l77 0 l0 122 ZM328 0 l0 209 l190 0 l0 -209 l-190 0 ZM463 164 l-77 0 l0 -121 l77 0 l0 121 Z" /><glyph glyph-name="ampersand" unicode="&amp;" d="M379 410 l0 -82 l51 0 l0 -71 l-51 0 l0 -257 l-297 0 l0 328 l72 0 l0 245 l170 0 l0 -71 l-91 0 l0 -174 l70 0 l0 82 l76 0 ZM303 77 l0 179 l-141 0 l0 -179 l141 0 Z" /><glyph glyph-name="quotesingle" unicode="&#39;" d="M20 676 l0 -195 l76 0 l0 195 l-76 0 Z" /><glyph glyph-name="parenleft" unicode="(" d="M228 -113 l-146 0 l0 789 l146 0 l0 -82 l-70 0 l0 -625 l70 0 l0 -82 Z" /><glyph glyph-name="parenright" unicode=")" d="M82 -113 l146 0 l0 789 l-146 0 l0 -82 l71 0 l0 -625 l-71 0 l0 -82 Z" /><glyph glyph-name="asterisk" unicode="*" d="M118 256 l0 113 l-72 -52 l-41 72 l82 38 l-82 54 l41 62 l72 -41 l0 112 l71 0 l0 -112 l72 41 l51 -65 l-82 -51 l82 -38 l-51 -72 l-72 52 l0 -113 l-71 0 Z" /><glyph glyph-name="plus" unicode="+" d="M200 0 l0 205 l-174 0 l0 71 l174 0 l0 175 l82 0 l0 -175 l184 0 l0 -71 l-184 0 l0 -205 l-82 0 Z" /><glyph glyph-name="comma" unicode="," d="M51 -82 l51 205 l76 0 l-51 -205 l-76 0 Z" /><glyph glyph-name="hyphen" unicode="-" d="M302 205 l0 71 l-276 0 l0 -71 l276 0 Z" /><glyph glyph-name="period" unicode="." d="M82 123 l0 -123 l76 0 l0 123 l-76 0 Z" /><glyph glyph-name="slash" unicode="/" d="M169 675 l-172 -811 l74 -17 l172 811 l-74 17 Z" /><glyph glyph-name="zero" unicode="0" d="M97 0 l0 451 l318 0 l0 -451 l-318 0 ZM339 377 l-162 -1 l0 -304 l162 0 l0 305 Z" /><glyph glyph-name="one" unicode="1" d="M356 0 l-75 0 l0 379 l-173 0 l0 71 l248 1 l0 -451 Z" /><glyph glyph-name="two" unicode="2" d="M415 75 l0 -75 l-316 1 l0 78 l236 197 l0 100 l-162 0 l0 -89 l-76 0 l0 164 l318 0 l0 -226 l-197 -150 l197 0 Z" /><glyph glyph-name="three" unicode="3" d="M334 196 l0 -121 l-161 0 l0 58 l-76 0 l0 -133 l318 0 l0 256 l-116 0 l114 116 l0 78 l-316 1 l0 -75 l197 0 l-115 -120 l0 -60 l155 0 Z" /><glyph glyph-name="four" unicode="4" d="M302 75 l0 219 l-127 -219 l127 0 ZM382 -102 l-80 0 l0 102 l-225 1 l0 78 l225 372 l80 0 l0 -376 l61 0 l0 -75 l-61 0 l0 -102 Z" /><glyph glyph-name="five" unicode="5" d="M334 196 l0 -121 l-161 0 l0 58 l-76 0 l0 -133 l318 0 l0 276 l-230 0 l0 96 l230 1 l0 77 l-318 0 l0 -254 l237 0 Z" /><glyph glyph-name="six" unicode="6" d="M97 450 l318 0 l0 -77 l-242 -1 l0 -96 l242 0 l0 -276 l-318 0 l0 450 ZM334 196 l-161 0 l0 -121 l161 0 l0 121 Z" /><glyph glyph-name="seven" unicode="7" d="M414 372 l0 78 l-316 0 l0 -78 l228 0 l-176 -371 l110 -1 l154 372 Z" /><glyph glyph-name="eight" unicode="8" d="M178 255 l161 0 l0 121 l-161 0 l0 -121 ZM178 174 l0 -96 l161 1 l0 95 l-161 0 ZM97 451 l318 0 l0 -451 l-318 1 l0 450 Z" /><glyph glyph-name="nine" unicode="9" d="M415 0 l-318 1 l0 77 l242 1 l0 95 l-242 0 l0 277 l318 0 l0 -451 ZM178 255 l161 0 l0 121 l-161 0 l0 -121 Z" /><glyph glyph-name="colon" unicode=":" d="M82 123 l0 -123 l76 0 l0 123 l-76 0 ZM82 451 l0 -123 l76 0 l0 123 l-76 0 Z" /><glyph glyph-name="semicolon" unicode=";" d="M82 451 l0 -123 l76 0 l0 123 l-76 0 ZM51 -82 l51 205 l76 0 l-51 -205 l-76 0 Z" /><glyph glyph-name="less" unicode="&lt;" d="M10 236 l428 231 l64 -68 l-325 -163 l325 -164 l-64 -68 l-428 232 Z" /><glyph glyph-name="equal" unicode="=" d="M466 246 l0 71 l-440 0 l0 -71 l440 0 ZM466 123 l0 72 l-440 0 l0 -72 l440 0 Z" /><glyph glyph-name="greater" unicode="&gt;" d="M502 236 l-428 231 l-64 -68 l325 -163 l-325 -164 l64 -68 l428 232 Z" /><glyph glyph-name="question" unicode="?" d="M82 635 l315 0 l0 -348 l-135 0 l0 -92 l-78 0 l0 162 l140 0 l0 204 l-243 0 l1 74 ZM184 123 l0 -123 l76 0 l0 123 l-76 0 Z" /><glyph glyph-name="at" unicode="@" d="M502 -154 l-420 0 l0 605 l420 0 l0 -451 l-254 0 l0 266 l174 0 l0 113 l-259 0 l0 -453 l339 0 l0 -80 ZM422 74 l0 119 l-100 0 l0 -119 l100 0 Z" /><glyph glyph-name="A" unicode="a" d="M158 502 l0 -174 l161 0 l0 174 l-161 0 ZM399 0 l-80 0 l0 256 l-161 0 l0 -256 l-76 0 l0 573 l317 0 l0 -573 Z" /><glyph glyph-name="B" unicode="b" d="M158 502 l0 -164 l121 0 l0 164 l-121 0 ZM82 0 l0 573 l276 0 l0 -235 l41 0 l0 -338 l-317 0 ZM158 77 l161 0 l0 189 l-161 0 l0 -189 Z" /><glyph glyph-name="C" unicode="c" d="M324 499 l-162 0 l0 -427 l229 0 l0 -72 l-309 0 l0 573 l317 0 l0 -163 l-75 0 l0 89 Z" /><glyph glyph-name="D" unicode="d" d="M158 78 l131 0 l20 24 l0 369 l-20 30 l-131 0 l0 -423 ZM82 0 l0 573 l225 0 l92 -133 l0 -317 l-102 -123 l-215 0 Z" /><glyph glyph-name="E" unicode="e" d="M399 78 l0 -78 l-317 0 l0 573 l317 1 l0 -72 l-241 0 l0 -124 l241 0 l0 -72 l-241 0 l0 -228 l241 0 Z" /><glyph glyph-name="F" unicode="f" d="M158 0 l-76 0 l0 573 l317 1 l0 -72 l-241 0 l0 -124 l241 0 l0 -72 l-241 0 l0 -306 Z" /><glyph glyph-name="G" unicode="g" d="M225 379 l174 0 l0 -379 l-317 0 l0 573 l317 0 l0 -75 l-237 0 l0 -426 l161 0 l0 236 l-98 0 l0 71 Z" /><glyph glyph-name="H" unicode="h" d="M319 379 l-161 0 l0 194 l-76 0 l0 -573 l76 0 l0 307 l161 0 l0 -307 l80 0 l0 573 l-80 0 l0 -194 Z" /><glyph glyph-name="I" unicode="i" d="M124 500 l-73 0 l0 73 l217 0 l0 -73 l-68 0 l0 -426 l73 0 l0 -74 l-216 0 l0 74 l67 0 l0 426 Z" /><glyph glyph-name="J" unicode="j" d="M102 573 l77 0 l0 -727 l-179 0 l0 74 l102 0 l0 653 Z" /><glyph glyph-name="K" unicode="k" d="M430 0 l-200 302 l190 271 l-109 0 l-153 -245 l0 245 l-76 0 l0 -573 l76 0 l0 256 l15 0 l139 -256 l118 0 Z" /><glyph glyph-name="L" unicode="l" d="M158 78 l241 0 l0 -78 l-317 0 l0 573 l76 1 l0 -496 Z" /><glyph glyph-name="M" unicode="m" d="M399 0 l-82 0 l0 502 l-159 0 l0 -502 l-76 0 l0 573 l553 0 l0 -573 l-80 0 l0 502 l-156 0 l0 -502 Z" /><glyph glyph-name="N" unicode="n" d="M155 574 l-73 -1 l0 -573 l76 0 l0 358 l181 -358 l60 0 l0 573 l-80 0 l0 -317 l-164 318 Z" /><glyph glyph-name="O" unicode="o" d="M158 78 l161 0 l0 423 l-161 0 l0 -423 ZM82 0 l0 573 l317 0 l0 -573 l-317 0 Z" /><glyph glyph-name="P" unicode="p" d="M379 256 l-221 0 l1 -256 l-77 0 l0 573 l297 0 l0 -317 ZM299 328 l0 174 l-141 0 l0 -174 l141 0 Z" /><glyph glyph-name="Q" unicode="q" d="M322 -154 l-76 0 l0 154 l-164 0 l0 573 l317 0 l0 -573 l-77 0 l0 -154 ZM319 78 l0 424 l-161 -1 l0 -423 l161 0 Z" /><glyph glyph-name="R" unicode="r" d="M430 0 l-100 0 l-140 256 l-32 0 l1 -256 l-77 0 l0 573 l297 0 l0 -317 l-88 0 l139 -256 ZM299 328 l0 174 l-141 0 l0 -174 l141 0 Z" /><glyph glyph-name="S" unicode="s" d="M158 75 l0 89 l-76 0 l0 -164 l315 1 l0 242 l-235 136 l0 120 l162 0 l0 -89 l75 0 l0 163 l-317 0 l0 -266 l237 -137 l0 -95 l-161 0 Z" /><glyph glyph-name="T" unicode="t" d="M281 0 l-76 0 l0 500 l-124 0 l0 73 l318 0 l0 -73 l-118 0 l0 -500 Z" /><glyph glyph-name="U" unicode="u" d="M399 573 l0 -573 l-317 0 l0 573 l76 0 l0 -501 l161 0 l0 501 l80 0 Z" /><glyph glyph-name="V" unicode="v" d="M410 573 l-103 -573 l-164 0 l-102 573 l96 0 l72 -491 l29 0 l71 491 l101 0 Z" /><glyph glyph-name="W" unicode="w" d="M317 573 l82 0 l0 -501 l160 0 l0 501 l76 0 l0 -573 l-553 0 l0 573 l80 0 l0 -501 l155 0 l0 501 Z" /><glyph glyph-name="X" unicode="x" d="M451 0 l-111 0 l-92 256 l-19 0 l-92 -256 l-106 0 l119 307 l-109 266 l106 0 l82 -245 l19 0 l82 245 l110 0 l-108 -266 l119 -307 Z" /><glyph glyph-name="Y" unicode="y" d="M399 573 l0 -573 l-317 0 l0 72 l237 0 l0 112 l-235 0 l0 389 l74 0 l0 -315 l161 0 l0 315 l80 0 Z" /><glyph glyph-name="Z" unicode="z" d="M182 72 l209 0 l0 -72 l-309 0 l0 72 l237 427 l-237 0 l0 74 l317 0 l0 -77 l-217 -424 Z" /><glyph glyph-name="bracketleft" unicode="[" d="M249 -195 l-249 0 l0 871 l249 0 l0 -82 l-173 0 l0 -707 l173 0 l0 -82 Z" /><glyph glyph-name="backslash" unicode="\" d="M71 675 l172 -811 l-74 -17 l-172 811 l74 17 Z" /><glyph glyph-name="bracketright" unicode="]" d="M-20 -195 l248 0 l0 871 l-248 0 l0 -82 l173 0 l0 -707 l-173 0 l0 -82 Z" /><glyph glyph-name="asciicircum" unicode="^" d="M225 680 l140 -139 l-56 -54 l-84 93 l-84 -93 l-55 54 l139 139 Z" /><glyph glyph-name="underscore" unicode="_" d="M466 -113 l0 72 l-440 0 l0 -72 l440 0 Z" /><glyph glyph-name="grave" unicode="`" d="M137 676 l205 -133 l-55 -62 l-205 133 l55 62 Z" /><glyph glyph-name="a" unicode="a" d="M319 266 l0 113 l-237 0 l0 72 l317 0 l0 -451 l-315 0 l0 266 l235 0 ZM319 193 l-161 0 l0 -119 l161 0 l0 119 Z" /><glyph glyph-name="b" unicode="b" d="M158 451 l241 0 l0 -451 l-317 0 l0 676 l76 0 l0 -225 ZM158 74 l161 1 l0 304 l-161 0 l0 -305 Z" /><glyph glyph-name="c" unicode="c" d="M324 376 l-162 0 l0 -304 l229 0 l0 -72 l-309 0 l0 451 l317 0 l0 -164 l-75 0 l0 89 Z" /><glyph glyph-name="d" unicode="d" d="M324 451 l0 225 l75 0 l0 -676 l-317 0 l0 451 l242 0 ZM324 74 l0 305 l-162 0 l0 -304 l162 -1 Z" /><glyph glyph-name="e" unicode="e" d="M162 184 l0 -112 l237 0 l0 -72 l-317 0 l0 451 l315 0 l0 -267 l-235 0 ZM162 258 l162 0 l0 119 l-162 0 l0 -119 Z" /><glyph glyph-name="f" unicode="f" d="M82 450 l98 0 l0 195 l219 0 l0 -71 l-143 0 l0 -124 l143 0 l0 -71 l-143 0 l0 -379 l-76 0 l0 379 l-98 0 l0 71 Z" /><glyph glyph-name="g" unicode="g" d="M319 0 l0 -113 l-237 0 l0 -71 l317 0 l0 635 l-315 0 l0 -451 l235 0 ZM319 74 l-161 0 l0 303 l161 0 l0 -303 Z" /><glyph glyph-name="h" unicode="h" d="M399 0 l0 451 l-241 0 l0 225 l-76 0 l0 -676 l76 0 l0 379 l161 0 l0 -379 l80 0 Z" /><glyph glyph-name="i" unicode="i" d="M82 450 l0 -450 l76 0 l0 451 l-76 -1 ZM82 676 l0 -133 l76 0 l0 133 l-76 0 Z" /><glyph glyph-name="j" unicode="j" d="M81 676 l76 0 l0 -133 l-76 0 l0 133 ZM0 -154 l0 76 l81 0 l0 528 l76 0 l0 -604 l-157 0 Z" /><glyph glyph-name="k" unicode="k" d="M430 0 l-200 233 l190 217 l-109 0 l-153 -191 l0 417 l-76 0 l0 -676 l76 0 l0 198 l15 0 l139 -198 l118 0 Z" /><glyph glyph-name="l" unicode="l" d="M82 676 l0 -676 l76 0 l0 676 l-76 0 Z" /><glyph glyph-name="m" unicode="m" d="M399 0 l-82 0 l0 379 l-159 0 l0 -379 l-76 0 l0 451 l553 0 l0 -451 l-80 0 l0 379 l-156 0 l0 -379 Z" /><glyph glyph-name="n" unicode="n" d="M399 0 l0 451 l-317 0 l0 -451 l76 0 l0 379 l161 0 l0 -379 l80 0 Z" /><glyph glyph-name="o" unicode="o" d="M82 0 l0 451 l317 0 l0 -451 l-317 0 ZM324 377 l-162 -1 l0 -304 l162 0 l0 305 Z" /><glyph glyph-name="p" unicode="p" d="M158 0 l241 0 l0 451 l-317 0 l0 -676 l76 0 l0 225 ZM158 377 l161 -1 l0 -304 l-161 0 l0 305 Z" /><glyph glyph-name="q" unicode="q" d="M324 0 l-242 0 l0 451 l317 0 l0 -676 l-75 0 l0 225 ZM324 377 l-162 -1 l0 -304 l162 0 l0 305 Z" /><glyph glyph-name="r" unicode="r" d="M272 377 l-110 -1 l0 -376 l-80 0 l0 451 l266 0 l0 -164 l-76 0 l0 90 Z" /><glyph glyph-name="s" unicode="s" d="M158 75 l0 38 l-76 0 l0 -113 l315 1 l0 231 l-235 55 l0 89 l162 0 l0 -89 l75 0 l0 164 l-317 0 l0 -236 l237 -55 l0 -85 l-161 0 Z" /><glyph glyph-name="t" unicode="t" d="M358 0 l-184 0 l0 379 l-92 0 l0 72 l92 0 l0 133 l76 0 l0 -133 l108 0 l0 -72 l-108 0 l0 -307 l108 0 l0 -72 Z" /><glyph glyph-name="u" unicode="u" d="M399 451 l0 -451 l-317 0 l0 451 l76 0 l0 -379 l161 0 l0 379 l80 0 Z" /><glyph glyph-name="v" unicode="v" d="M420 451 l-123 -451 l-143 0 l-123 451 l102 0 l82 -379 l29 0 l82 379 l94 0 Z" /><glyph glyph-name="w" unicode="w" d="M317 451 l82 0 l0 -379 l160 0 l0 379 l76 0 l0 -451 l-553 0 l0 451 l80 0 l0 -379 l155 0 l0 379 Z" /><glyph glyph-name="x" unicode="x" d="M451 0 l-101 0 l-102 184 l-19 0 l-102 -184 l-96 0 l129 236 l-119 215 l96 0 l92 -185 l19 0 l92 185 l100 0 l-118 -215 l129 -236 Z" /><glyph glyph-name="y" unicode="y" d="M399 451 l0 -635 l-317 0 l0 71 l237 0 l0 113 l-235 0 l0 451 l74 0 l0 -377 l161 0 l0 377 l80 0 Z" /><glyph glyph-name="z" unicode="z" d="M182 72 l209 0 l0 -72 l-309 0 l0 72 l237 304 l-237 0 l0 75 l317 0 l0 -78 l-217 -301 Z" /><glyph glyph-name="braceleft" unicode="{" d="M0 296 l111 0 l0 380 l248 0 l0 -82 l-173 0 l0 -696 l173 0 l0 -82 l-248 0 l0 399 l-111 0 l0 81 Z" /><glyph glyph-name="bar" unicode="|" d="M82 676 l0 -830 l76 0 l0 830 l-76 0 Z" /><glyph glyph-name="braceright" unicode="}" d="M339 296 l-111 0 l0 380 l-248 0 l0 -82 l173 0 l0 -696 l-173 0 l0 -82 l248 0 l0 399 l111 0 l0 81 Z" /><glyph glyph-name="asciitilde" unicode="~" d="M116 318 l100 0 l0 -108 l254 0 l0 184 l-78 0 l0 -103 l-95 0 l0 103 l-256 0 l0 -184 l75 0 l0 108 Z" /><glyph glyph-name="nbspace" unicode=" " d="" /><glyph glyph-name="exclamdown" unicode="¡" d="M82 450 l0 -450 l76 0 l0 451 l-76 -1 ZM82 676 l0 -133 l76 0 l0 133 l-76 0 Z" /><glyph glyph-name="cent" unicode="¢" d="M210 376 l-48 0 l0 -304 l48 0 l0 304 ZM399 287 l-75 0 l0 89 l-42 0 l0 -304 l109 0 l0 -72 l-109 0 l0 -82 l-72 0 l0 82 l-128 0 l0 451 l128 0 l0 112 l72 0 l0 -112 l117 0 l0 -164 Z" /><glyph glyph-name="sterling" unicode="£" d="M82 71 l98 0 l0 134 l-98 0 l0 70 l98 0 l0 176 l219 0 l0 -71 l-143 0 l0 -105 l143 0 l0 -70 l-143 0 l0 -134 l148 0 l0 -71 l-322 0 l0 71 Z" /><glyph glyph-name="yen" unicode="¥" d="M476 123 l-66 0 l0 -123 l-318 0 l0 72 l238 0 l0 51 l-294 0 l0 72 l294 0 l0 51 l-294 0 l0 71 l294 0 l0 72 l-236 0 l0 184 l74 0 l0 -110 l162 0 l0 110 l80 0 l0 -256 l66 0 l0 -71 l-66 0 l0 -51 l66 0 l0 -72 Z" /><glyph glyph-name="brokenbar" unicode="¦" d="M82 205 l0 -348 l76 0 l0 348 l-76 0 ZM82 676 l0 -348 l76 0 l0 348 l-76 0 Z" /><glyph glyph-name="section" unicode="¤§" d="M239 258 l-53 13 l-52 -24 l0 -65 l45 -11 l60 23 l0 64 ZM290 179 l-69 -22 l69 -17 l0 -152 l-208 -1 l0 74 l50 0 l0 -25 l107 0 l0 56 l-157 37 l0 133 l58 23 l-58 13 l0 156 l210 0 l0 -109 l-50 0 l0 59 l-108 0 l0 -59 l156 -36 l0 -130 Z" /><glyph glyph-name="dieresis" unicode="¨¬" d="M82 676 l0 -133 l76 0 l0 133 l-76 0 ZM266 676 l0 -133 l76 0 l0 133 l-76 0 Z" /><glyph glyph-name="copyright" unicode="©" d="M365 355 l-60 0 l0 -181 l117 0 l0 -72 l-186 0 l0 328 l194 0 l0 -143 l-65 0 l0 68 ZM158 2 l346 0 l0 519 l-346 0 l0 -519 ZM82 -76 l0 670 l502 0 l0 -670 l-502 0 Z" /><glyph glyph-name="guillemotleft" unicode="«" d="M51 236 l232 231 l55 -57 l-171 -174 l171 -175 l-55 -57 l-232 232 ZM256 236 l231 231 l56 -57 l-171 -174 l171 -175 l-56 -57 l-231 232 Z" /><glyph glyph-name="registered" unicode="®" d="M158 2 l346 0 l0 519 l-346 0 l0 -519 ZM82 -76 l0 670 l502 0 l0 -670 l-502 0 ZM471 102 l-80 0 l-67 134 l-23 0 l0 -134 l-65 0 l0 328 l184 0 l0 -194 l-37 0 l88 -134 ZM360 287 l0 82 l-59 0 l0 -82 l59 0 Z" /><glyph glyph-name="plusminus" unicode="±" d="M466 -123 l0 72 l-440 0 l0 -72 l440 0 ZM200 0 l0 205 l-174 0 l0 71 l174 0 l0 175 l82 0 l0 -175 l184 0 l0 -71 l-184 0 l0 -205 l-82 0 Z" /><glyph glyph-name="acute" unicode="´" d="M287 676 l-205 -133 l55 -62 l205 133 l-55 62 Z" /><glyph glyph-name="paragraph" unicode="¶" d="M82 256 l169 0 l0 -256 l77 0 l0 573 l-246 0 l0 -317 ZM162 328 l0 174 l89 0 l0 -174 l-89 0 Z" /><glyph glyph-name="cedilla" unicode="¸" d="M195 -174 l61 205 l76 0 l-51 -205 l-86 0 Z" /><glyph glyph-name="guillemotright" unicode="»" d="M543 236 l-232 231 l-55 -57 l171 -174 l-171 -175 l55 -57 l232 232 ZM338 236 l-232 231 l-55 -57 l171 -174 l-171 -175 l55 -57 l232 232 Z" /><glyph glyph-name="questiondown" unicode="¿" d="M396 0 l-315 0 l0 348 l135 0 l0 92 l78 0 l0 -162 l-139 0 l0 -204 l242 0 l-1 -74 ZM294 512 l0 123 l-76 0 l0 -123 l76 0 Z" /><glyph glyph-name="Agrave" unicode="à" d="M158 502 l0 -174 l161 0 l0 174 l-161 0 ZM399 0 l-80 0 l0 256 l-161 0 l0 -256 l-76 0 l0 573 l317 0 l0 -573 ZM137 799 l205 -133 l-55 -62 l-205 133 l55 62 Z" /><glyph glyph-name="Aacute" unicode="á" d="M158 502 l0 -174 l161 0 l0 174 l-161 0 ZM399 0 l-80 0 l0 256 l-161 0 l0 -256 l-76 0 l0 573 l317 0 l0 -573 ZM287 809 l-205 -133 l55 -62 l205 134 l-55 61 Z" /><glyph glyph-name="Acircumflex" unicode="â" d="M158 502 l0 -174 l161 0 l0 174 l-161 0 ZM399 0 l-80 0 l0 256 l-161 0 l0 -256 l-76 0 l0 573 l317 0 l0 -573 ZM225 803 l140 -139 l-56 -54 l-84 92 l-84 -92 l-55 54 l139 139 Z" /><glyph glyph-name="Atilde" unicode="ã" d="M133 725 l81 0 l0 -87 l203 0 l0 147 l-63 0 l0 -83 l-75 0 l0 83 l-205 0 l0 -147 l59 0 l0 87 ZM158 502 l0 -174 l161 0 l0 174 l-161 0 ZM399 0 l-80 0 l0 256 l-161 0 l0 -256 l-76 0 l0 573 l317 0 l0 -573 Z" /><glyph glyph-name="Adieresis" unicode="ä" d="M158 502 l0 -174 l161 0 l0 174 l-161 0 ZM399 0 l-80 0 l0 256 l-161 0 l0 -256 l-76 0 l0 573 l317 0 l0 -573 ZM82 758 l0 -133 l76 0 l0 133 l-76 0 ZM266 758 l0 -133 l76 0 l0 133 l-76 0 Z" /><glyph glyph-name="Aring" unicode="å" d="M158 502 l0 -174 l161 0 l0 174 l-161 0 ZM399 0 l-80 0 l0 256 l-161 0 l0 -256 l-76 0 l0 573 l317 0 l0 -573 ZM84 612 l0 209 l190 0 l0 -209 l-190 0 ZM219 777 l-77 -1 l0 -121 l77 0 l0 122 Z" /><glyph glyph-name="AE" unicode="æ" d="M319 0 l0 255 l-161 0 l0 -255 l-76 0 l0 573 q186 0 563 1 l0 -72 l-242 0 l0 -175 l242 0 l0 -72 l-242 0 l0 -177 l242 0 l0 -78 l-326 0 ZM319 327 l0 175 l-161 0 l0 -175 l161 0 Z" /><glyph glyph-name="Ccedilla" unicode="ç" d="M325 0 l-44 -174 l-86 0 l52 174 l-165 0 l0 573 l317 0 l0 -163 l-75 0 l0 89 l-162 0 l0 -427 l229 0 l0 -72 l-66 0 Z" /><glyph glyph-name="Egrave" unicode="è" d="M399 78 l0 -78 l-317 0 l0 573 l317 1 l0 -72 l-241 0 l0 -124 l241 0 l0 -72 l-241 0 l0 -228 l241 0 ZM137 788 l205 -133 l-55 -61 l-205 133 l55 61 Z" /><glyph glyph-name="Eacute" unicode="é" d="M399 78 l0 -78 l-317 0 l0 573 l317 1 l0 -72 l-241 0 l0 -124 l241 0 l0 -72 l-241 0 l0 -228 l241 0 ZM287 799 l-205 -133 l55 -62 l205 133 l-55 62 Z" /><glyph glyph-name="Ecircumflex" unicode="ê" d="M399 78 l0 -78 l-317 0 l0 573 l317 1 l0 -72 l-241 0 l0 -124 l241 0 l0 -72 l-241 0 l0 -228 l241 0 ZM225 803 l140 -139 l-56 -54 l-84 92 l-84 -92 l-55 54 l139 139 Z" /><glyph glyph-name="Edieresis" unicode="ë" d="M399 78 l0 -78 l-317 0 l0 573 l317 1 l0 -72 l-241 0 l0 -124 l241 0 l0 -72 l-241 0 l0 -228 l241 0 ZM82 748 l0 -134 l76 0 l0 134 l-76 0 ZM266 748 l0 -134 l76 0 l0 134 l-76 0 Z" /><glyph glyph-name="Igrave" unicode="ì" d="M124 500 l-73 0 l0 73 l217 0 l0 -73 l-68 0 l0 -426 l73 0 l0 -74 l-216 0 l0 74 l67 0 l0 426 ZM76 799 l205 -133 l-56 -62 l-205 133 l56 62 Z" /><glyph glyph-name="Iacute" unicode="í" d="M124 500 l-73 0 l0 73 l217 0 l0 -73 l-68 0 l0 -426 l73 0 l0 -74 l-216 0 l0 74 l67 0 l0 426 ZM225 799 l-205 -133 l56 -62 l205 133 l-56 62 Z" /><glyph glyph-name="Icircumflex" unicode="î" d="M124 500 l-73 0 l0 73 l217 0 l0 -73 l-68 0 l0 -426 l73 0 l0 -74 l-216 0 l0 74 l67 0 l0 426 ZM154 803 l139 -139 l-55 -54 l-84 92 l-84 -92 l-56 54 l140 139 Z" /><glyph glyph-name="Idieresis" unicode="ï" d="M124 500 l-73 0 l0 73 l217 0 l0 -73 l-68 0 l0 -426 l73 0 l0 -74 l-216 0 l0 74 l67 0 l0 426 ZM41 758 l0 -133 l76 0 l0 133 l-76 0 ZM225 758 l0 -133 l76 0 l0 133 l-76 0 Z" /><glyph glyph-name="Ntilde" unicode="ñ" d="M133 725 l81 0 l0 -87 l203 0 l0 147 l-63 0 l0 -83 l-75 0 l0 83 l-205 0 l0 -147 l59 0 l0 87 ZM155 574 l-73 -1 l0 -573 l76 0 l0 358 l181 -358 l60 0 l0 573 l-80 0 l0 -317 l-164 318 Z" /><glyph glyph-name="Ograve" unicode="ò" d="M158 78 l161 0 l0 423 l-161 0 l0 -423 ZM82 0 l0 573 l317 0 l0 -573 l-317 0 ZM137 788 l205 -133 l-55 -61 l-205 133 l55 61 Z" /><glyph glyph-name="Oacute" unicode="ó" d="M158 78 l161 0 l0 423 l-161 0 l0 -423 ZM82 0 l0 573 l317 0 l0 -573 l-317 0 ZM287 799 l-205 -133 l55 -62 l205 133 l-55 62 Z" /><glyph glyph-name="Ocircumflex" unicode="ô" d="M158 78 l161 0 l0 423 l-161 0 l0 -423 ZM82 0 l0 573 l317 0 l0 -573 l-317 0 ZM225 803 l140 -139 l-56 -54 l-84 92 l-84 -92 l-55 54 l139 139 Z" /><glyph glyph-name="Otilde" unicode="õ" d="M133 725 l81 0 l0 -87 l203 0 l0 147 l-63 0 l0 -83 l-75 0 l0 83 l-205 0 l0 -147 l59 0 l0 87 ZM158 78 l161 0 l0 423 l-161 0 l0 -423 ZM82 0 l0 573 l317 0 l0 -573 l-317 0 Z" /><glyph glyph-name="Odieresis" unicode="ö" d="M158 78 l161 0 l0 423 l-161 0 l0 -423 ZM82 0 l0 573 l317 0 l0 -573 l-317 0 Z" /><glyph glyph-name="multiply" unicode="×" d="M383 44 l-127 127 l-126 -127 l-58 58 l127 126 l-127 127 l58 59 l126 -127 l127 127 l58 -59 l-127 -127 l127 -126 l-58 -58 Z" /><glyph glyph-name="Oslash" unicode="¯ø" d="M259 501 l-101 0 l0 -382 l101 382 ZM222 78 l97 0 l0 366 l-97 -366 ZM82 0 l0 573 l196 0 l19 72 l76 0 l-20 -72 l46 0 l0 -573 l-197 0 l-14 -51 l-75 0 l13 51 l-44 0 Z" /><glyph glyph-name="Ugrave" unicode="ù" d="M399 573 l0 -573 l-317 0 l0 573 l76 0 l0 -501 l161 0 l0 501 l80 0 ZM137 799 l205 -133 l-55 -62 l-205 133 l55 62 Z" /><glyph glyph-name="Uacute" unicode="ú" d="M399 573 l0 -573 l-317 0 l0 573 l76 0 l0 -501 l161 0 l0 501 l80 0 ZM287 799 l-205 -133 l55 -62 l205 133 l-55 62 Z" /><glyph glyph-name="Ucircumflex" unicode="û" d="M399 573 l0 -573 l-317 0 l0 573 l76 0 l0 -501 l161 0 l0 501 l80 0 ZM225 803 l140 -139 l-56 -54 l-84 92 l-84 -92 l-55 54 l139 139 Z" /><glyph glyph-name="Udieresis" unicode="ü" d="M399 573 l0 -573 l-317 0 l0 573 l76 0 l0 -501 l161 0 l0 501 l80 0 Z" /><glyph glyph-name="Yacute" unicode="ý" d="M399 573 l0 -573 l-317 0 l0 72 l237 0 l0 112 l-235 0 l0 389 l74 0 l0 -315 l161 0 l0 315 l80 0 ZM287 799 l-205 -133 l55 -62 l205 133 l-55 62 Z" /><glyph glyph-name="germandbls" unicode="ß" d="M82 645 l219 0 l0 -71 l-143 0 l0 -574 l-76 0 l0 645 ZM346 75 l0 38 l-76 0 l0 -113 l316 1 l0 231 l-236 55 l0 89 l162 0 l0 -89 l76 0 l0 164 l-318 0 l0 -236 l238 -55 l0 -85 l-162 0 Z" /><glyph glyph-name="agrave" unicode="à" d="M319 266 l0 113 l-237 0 l0 72 l317 0 l0 -451 l-315 0 l0 266 l235 0 ZM319 193 l-161 0 l0 -119 l161 0 l0 119 ZM137 676 l205 -133 l-55 -62 l-205 133 l55 62 Z" /><glyph glyph-name="aacute" unicode="á" d="M319 266 l0 113 l-237 0 l0 72 l317 0 l0 -451 l-315 0 l0 266 l235 0 ZM319 193 l-161 0 l0 -119 l161 0 l0 119 ZM287 676 l-205 -133 l55 -62 l205 133 l-55 62 Z" /><glyph glyph-name="acircumflex" unicode="â" d="M319 266 l0 113 l-237 0 l0 72 l317 0 l0 -451 l-315 0 l0 266 l235 0 ZM319 193 l-161 0 l0 -119 l161 0 l0 119 ZM225 680 l140 -139 l-56 -54 l-84 93 l-84 -93 l-55 54 l139 139 Z" /><glyph glyph-name="atilde" unicode="ã" d="M133 633 l81 0 l0 -87 l203 0 l0 147 l-63 0 l0 -83 l-75 0 l0 83 l-205 0 l0 -147 l59 0 l0 87 ZM319 266 l0 113 l-237 0 l0 72 l317 0 l0 -451 l-315 0 l0 266 l235 0 ZM319 193 l-161 0 l0 -119 l161 0 l0 119 Z" /><glyph glyph-name="adieresis" unicode="ä" d="M319 266 l0 113 l-237 0 l0 72 l317 0 l0 -451 l-315 0 l0 266 l235 0 ZM319 193 l-161 0 l0 -119 l161 0 l0 119 ZM82 676 l0 -133 l76 0 l0 133 l-76 0 ZM266 676 l0 -133 l76 0 l0 133 l-76 0 Z" /><glyph glyph-name="aring" unicode="å" d="M319 266 l0 113 l-237 0 l0 72 l317 0 l0 -451 l-315 0 l0 266 l235 0 ZM319 193 l-161 0 l0 -119 l161 0 l0 119 ZM84 520 l0 209 l190 0 l0 -209 l-190 0 ZM219 685 l-77 -1 l0 -121 l77 0 l0 122 Z" /><glyph glyph-name="ae" unicode="¾æ" d="M84 287 l235 0 l0 92 l-237 0 l0 72 l561 0 l0 -287 l-235 0 l0 -92 l237 0 l0 -72 l-561 0 l0 287 ZM569 238 l0 139 l-161 0 l0 -139 l161 0 ZM319 74 l0 139 l-161 0 l0 -139 l161 0 Z" /><glyph glyph-name="ccedilla" unicode="ç" d="M195 -174 l52 174 l-165 0 l0 451 l317 0 l0 -164 l-75 0 l0 89 l-162 0 l0 -304 l229 0 l0 -72 l-66 0 l-44 -174 l-86 0 Z" /><glyph glyph-name="egrave" unicode="è" d="M162 184 l0 -112 l237 0 l0 -72 l-317 0 l0 451 l315 0 l0 -267 l-235 0 ZM162 258 l162 0 l0 119 l-162 0 l0 -119 ZM137 676 l205 -133 l-55 -62 l-205 133 l55 62 Z" /><glyph glyph-name="eacute" unicode="é" d="M162 184 l0 -112 l237 0 l0 -72 l-317 0 l0 451 l315 0 l0 -267 l-235 0 ZM162 258 l162 0 l0 119 l-162 0 l0 -119 ZM287 676 l-205 -133 l55 -62 l205 133 l-55 62 Z" /><glyph glyph-name="ecircumflex" unicode="ê" d="M162 184 l0 -112 l237 0 l0 -72 l-317 0 l0 451 l315 0 l0 -267 l-235 0 ZM162 258 l162 0 l0 119 l-162 0 l0 -119 ZM225 680 l140 -139 l-56 -54 l-84 93 l-84 -93 l-55 54 l139 139 Z" /><glyph glyph-name="edieresis" unicode="ë" d="M162 184 l0 -112 l237 0 l0 -72 l-317 0 l0 451 l315 0 l0 -267 l-235 0 ZM162 258 l162 0 l0 119 l-162 0 l0 -119 ZM82 676 l0 -133 l76 0 l0 133 l-76 0 ZM266 676 l0 -133 l76 0 l0 133 l-76 0 Z" /><glyph glyph-name="igrave" unicode="ì" d="M82 450 l0 -450 l76 0 l0 451 l-76 -1 ZM45 676 l205 -133 l-55 -62 l-205 133 l55 62 Z" /><glyph glyph-name="iacute" unicode="í" d="M82 450 l0 -450 l76 0 l0 451 l-76 -1 ZM195 676 l-205 -133 l55 -62 l205 133 l-55 62 Z" /><glyph glyph-name="icircumflex" unicode="î" d="M82 450 l0 -450 l76 0 l0 451 l-76 -1 ZM123 680 l139 -139 l-55 -54 l-84 93 l-84 -93 l-55 54 l139 139 Z" /><glyph glyph-name="idieresis" unicode="ï" d="M82 450 l0 -450 l76 0 l0 451 l-76 -1 ZM-10 676 l0 -133 l76 0 l0 133 l-76 0 ZM174 676 l0 -133 l76 0 l0 133 l-76 0 Z" /><glyph glyph-name="ntilde" unicode="ñ" d="M133 623 l81 0 l0 -87 l203 0 l0 147 l-63 0 l0 -83 l-75 0 l0 83 l-205 0 l0 -147 l59 0 l0 87 ZM399 0 l0 451 l-317 0 l0 -451 l76 0 l0 379 l161 0 l0 -379 l80 0 Z" /><glyph glyph-name="ograve" unicode="ò" d="M82 0 l0 451 l317 0 l0 -451 l-317 0 ZM324 377 l-162 -1 l0 -304 l162 0 l0 305 ZM137 676 l205 -133 l-55 -62 l-205 133 l55 62 Z" /><glyph glyph-name="oacute" unicode="ó" d="M82 0 l0 451 l317 0 l0 -451 l-317 0 ZM324 377 l-162 -1 l0 -304 l162 0 l0 305 ZM287 676 l-205 -133 l55 -62 l205 133 l-55 62 Z" /><glyph glyph-name="ocircumflex" unicode="ô" d="M82 0 l0 451 l317 0 l0 -451 l-317 0 ZM324 377 l-162 -1 l0 -304 l162 0 l0 305 ZM225 680 l140 -139 l-56 -54 l-84 93 l-84 -93 l-55 54 l139 139 Z" /><glyph glyph-name="otilde" unicode="õ" d="M133 623 l81 0 l0 -87 l203 0 l0 147 l-63 0 l0 -83 l-75 0 l0 83 l-205 0 l0 -147 l59 0 l0 87 ZM82 0 l0 451 l317 0 l0 -451 l-317 0 ZM324 377 l-162 -1 l0 -304 l162 0 l0 305 Z" /><glyph glyph-name="odieresis" unicode="ö" d="M82 0 l0 451 l317 0 l0 -451 l-317 0 ZM324 377 l-162 -1 l0 -304 l162 0 l0 305 ZM82 676 l0 -133 l76 0 l0 133 l-76 0 ZM266 676 l0 -133 l76 0 l0 133 l-76 0 Z" /><glyph glyph-name="divide" unicode="÷" d="M220 102 l0 -102 l76 0 l0 102 l-76 0 ZM220 451 l0 -103 l76 0 l0 103 l-76 0 ZM471 195 l0 71 l-430 0 l0 -71 l430 0 Z" /><glyph glyph-name="oslash" unicode="ø" d="M82 0 l0 451 l181 0 l34 122 l76 0 l-34 -122 l60 0 l0 -451 l-183 0 l-28 -102 l-75 0 l27 102 l-58 0 ZM243 376 l-81 0 l0 -298 l81 298 ZM324 376 l-6 0 l-82 -304 l88 0 l0 304 Z" /><glyph glyph-name="ugrave" unicode="ù" d="M399 451 l0 -451 l-317 0 l0 451 l76 0 l0 -379 l161 0 l0 379 l80 0 ZM137 676 l205 -133 l-55 -62 l-205 133 l55 62 Z" /><glyph glyph-name="uacute" unicode="ú" d="M399 451 l0 -451 l-317 0 l0 451 l76 0 l0 -379 l161 0 l0 379 l80 0 ZM287 676 l-205 -133 l55 -62 l205 133 l-55 62 Z" /><glyph glyph-name="ucircumflex" unicode="û" d="M399 451 l0 -451 l-317 0 l0 451 l76 0 l0 -379 l161 0 l0 379 l80 0 ZM225 680 l140 -139 l-56 -54 l-84 93 l-84 -93 l-55 54 l139 139 Z" /><glyph glyph-name="udieresis" unicode="ü" d="M399 451 l0 -451 l-317 0 l0 451 l76 0 l0 -379 l161 0 l0 379 l80 0 ZM82 676 l0 -133 l76 0 l0 133 l-76 0 ZM266 676 l0 -133 l76 0 l0 133 l-76 0 Z" /><glyph glyph-name="yacute" unicode="ý" d="M399 451 l0 -635 l-317 0 l0 71 l237 0 l0 113 l-235 0 l0 451 l74 0 l0 -377 l161 0 l0 377 l80 0 ZM287 696 l-205 -133 l55 -61 l205 133 l-55 61 Z" /><glyph glyph-name="ydieresis" unicode="ÿ" d="M399 451 l0 -635 l-317 0 l0 71 l237 0 l0 113 l-235 0 l0 451 l74 0 l0 -377 l161 0 l0 377 l80 0 ZM82 676 l0 -133 l76 0 l0 133 l-76 0 ZM266 676 l0 -133 l76 0 l0 133 l-76 0 Z" /><glyph glyph-name="dotlessi" unicode="&#x131;" d="M82 450 l0 -450 l76 0 l0 451 l-76 -1 Z" /><glyph glyph-name="OE" unicode="&#x152;" d="M158 78 l161 0 l0 423 l-161 0 l0 -423 ZM640 78 l0 -78 l-558 0 l0 573 q181 0 558 1 l0 -72 l-241 0 l0 -124 l241 0 l0 -72 l-241 0 l0 -228 l241 0 Z" /><glyph glyph-name="oe" unicode="&#x153;" d="M82 0 l0 451 l541 0 l0 -267 l-236 0 l0 -112 l238 0 l0 -72 l-543 0 ZM549 258 l0 119 l-162 0 l0 -119 l162 0 ZM324 72 l0 305 l-162 -1 l0 -304 l162 0 Z" /><glyph glyph-name="Scaron" unicode="&#x160;" d="M158 75 l0 89 l-76 0 l0 -164 l315 1 l0 242 l-235 136 l0 120 l162 0 l0 -89 l75 0 l0 163 l-317 0 l0 -266 l237 -137 l0 -95 l-161 0 ZM225 610 l-139 140 l55 53 l84 -92 l84 92 l56 -53 l-140 -140 Z" /><glyph glyph-name="scaron" unicode="&#x161;" d="M158 75 l0 38 l-76 0 l0 -113 l315 1 l0 231 l-235 55 l0 89 l162 0 l0 -89 l75 0 l0 164 l-317 0 l0 -236 l237 -55 l0 -85 l-161 0 ZM225 487 l-139 140 l55 53 l84 -92 l84 92 l56 -53 l-140 -140 Z" /><glyph glyph-name="Ydieresis" unicode="&#x178;" d="M399 573 l0 -573 l-317 0 l0 72 l237 0 l0 112 l-235 0 l0 389 l74 0 l0 -315 l161 0 l0 315 l80 0 ZM82 748 l0 -134 l76 0 l0 134 l-76 0 ZM266 748 l0 -134 l76 0 l0 134 l-76 0 Z" /><glyph glyph-name="Zcaron" unicode="&#x17d;" d="M182 72 l209 0 l0 -72 l-309 0 l0 72 l237 427 l-237 0 l0 74 l317 0 l0 -77 l-217 -424 ZM225 600 l-139 139 l55 54 l84 -93 l84 93 l56 -54 l-140 -139 Z" /><glyph glyph-name="zcaron" unicode="&#x17e;" d="M182 72 l209 0 l0 -72 l-309 0 l0 72 l237 304 l-237 0 l0 75 l317 0 l0 -78 l-217 -301 ZM225 487 l-139 140 l55 53 l84 -92 l84 92 l56 -53 l-140 -140 Z" /><glyph glyph-name="florin" unicode="&#x192;" d="M82 255 l98 0 l0 196 l219 0 l0 -71 l-143 0 l0 -125 l143 0 l0 -71 l-143 0 l0 -379 l-76 0 l0 379 l-98 0 l0 71 Z" /><glyph glyph-name="circumflex" unicode="&#x2c6;" d="M225 680 l140 -139 l-56 -54 l-84 93 l-84 -93 l-55 54 l139 139 Z" /><glyph glyph-name="breve" unicode="&#x2d8;" d="M225 487 l-139 140 l55 53 l84 -92 l84 92 l56 -53 l-140 -140 Z" /><glyph glyph-name="ring" unicode="&#x2da;" d="M84 520 l0 209 l190 0 l0 -209 l-190 0 ZM219 685 l-77 -1 l0 -121 l77 0 l0 122 Z" /><glyph glyph-name="endash" unicode="ð&#x2013;" d="M512 205 l0 71 l-512 0 l0 -71 l512 0 Z" /><glyph glyph-name="emdash" unicode="&#x2014;" d="M1024 205 l0 71 l-1024 0 l0 -71 l1024 0 Z" /><glyph glyph-name="quoteleft" unicode="&#x2018;" d="M20 430 l62 205 l76 0 l-52 -205 l-86 0 Z" /><glyph glyph-name="quoteright" unicode="&#x2019;" d="M-20 430 l40 205 l86 0 l-51 -205 l-75 0 Z" /><glyph glyph-name="quotesinglbase" unicode="&#x201a;" d="M-20 -82 l40 205 l86 0 l-51 -205 l-75 0 Z" /><glyph glyph-name="quotedblleft" unicode="&#x201c;" d="M143 430 l62 205 l76 0 l-52 -205 l-86 0 ZM20 430 l62 205 l76 0 l-52 -205 l-86 0 Z" /><glyph glyph-name="quotedblright" unicode="&#x201d;" d="M102 430 l41 205 l86 0 l-51 -205 l-76 0 ZM-20 430 l40 205 l86 0 l-51 -205 l-75 0 Z" /><glyph glyph-name="quotedblbase" unicode="&#x201e;" d="M102 -82 l41 205 l86 0 l-51 -205 l-76 0 ZM-20 -82 l40 205 l86 0 l-51 -205 l-75 0 Z" /><glyph glyph-name="bullet" unicode="&#x2022;" d="M102 451 l205 0 l0 -246 l-205 0 l0 246 Z" /><glyph glyph-name="guilsinglleft" unicode="&#x2039;" d="M51 236 l232 231 l55 -57 l-171 -174 l171 -175 l-55 -57 l-232 232 Z" /><glyph glyph-name="guilsinglright" unicode="&#x203a;" d="M338 236 l-232 231 l-55 -57 l171 -174 l-171 -175 l55 -57 l232 232 Z" /><glyph glyph-name="fraction" unicode="&#x2044;" d="M399 444 l-62 36 l-255 -443 l62 -36 l255 443 Z" /><glyph glyph-name="trademark" unicode="ª&#x2122;" d="M516 313 l-80 0 l0 197 l-65 0 l0 -197 l-76 0 l0 271 l362 0 l0 -271 l-78 0 l0 197 l-63 0 l0 -197 ZM219 313 l-135 0 l0 197 l-55 0 l0 74 l55 0 l0 80 l76 0 l0 -80 l59 0 l0 -74 l-59 0 l0 -123 l59 0 l0 -74 Z" /><glyph glyph-name="minus" unicode="&#x2212;" d="M394 205 l0 71 l-379 0 l0 -71 l379 0 Z" /><glyph glyph-name="infinity" unicode="°&#x221e;" d="M216 158 l0 160 l-111 0 l0 -160 l111 0 ZM297 158 l105 0 l0 160 l-105 0 l0 -160 ZM31 77 l0 317 l450 0 l-1 -317 l-449 0 Z" /><glyph glyph-name="notequal" unicode="­&#x2260;" d="M466 82 l-235 0 l-64 -112 l-63 36 l44 76 l-122 0 l0 72 l163 0 l30 51 l-193 0 l0 71 l234 0 l65 112 l62 -36 l-44 -76 l123 0 l0 -71 l-164 0 l-30 -51 l194 0 l0 -72 Z" /><glyph glyph-name="lessequal" unicode="²&#x2264;" d="M51 307 l232 191 l55 -58 l-171 -133 l171 -133 l-55 -57 l-232 190 ZM364 0 l0 72 l-338 0 l0 -72 l338 0 Z" /><glyph glyph-name="greaterequal" unicode="³&#x2265;" d="M338 307 l-232 191 l-55 -58 l171 -133 l-171 -133 l55 -57 l232 190 ZM26 0 l0 72 l338 0 l0 -72 l-338 0 Z" /><glyph glyph-name="fi" unicode="þ&#xfb01;" d="M82 450 l98 0 l0 195 l219 0 l0 -71 l-143 0 l0 -124 l143 0 l0 -71 l-143 0 l0 -379 l-76 0 l0 379 l-98 0 l0 71 ZM492 450 l0 -450 l75 0 l0 451 l-75 -1 ZM492 676 l0 -133 l75 0 l0 133 l-75 0 Z" /><glyph glyph-name="fl" unicode="&#xfb02;" d="M82 450 l98 0 l0 195 l219 0 l0 -71 l-143 0 l0 -124 l143 0 l0 -71 l-143 0 l0 -379 l-76 0 l0 379 l-98 0 l0 71 ZM492 676 l0 -676 l75 0 l0 676 l-75 0 Z" /></font>
</defs>
</svg>
