<?xml version="1.0" standalone="no"?><!DOCTYPE svg PUBLIC "-//W3C//DTD SVG 1.1//EN" "http://www.w3.org/Graphics/SVG/1.1/DTD/svg11.dtd" ><svg xmlns="http://www.w3.org/2000/svg"><metadata></metadata><defs><font id="1.005;OMNI;Bahiana-Regular" horiz-adv-x="833"><font-face font-family="Bahiana" font-weight="400" font-stretch="normal" units-per-em="1000" panose-1="0 0 5 0 0 0 0 0 0 0" ascent="900" descent="-250" x-height="0" bbox="-298 -250 609 900" underline-thickness="50" underline-position="-75" unicode-range="U+0000-fb02" /><missing-glyph horiz-adv-x="339" d="M267 710 l23 -699 l-51 -11 l-189 0 l0 701 l217 9 ZM101 676 l63 -265 l69 261 l-8 4 l-124 0 ZM88 657 l0 -533 l64 244 l-64 289 ZM237 106 l0 512 l-63 -251 l63 -261 ZM163 321 l-70 -280 q4 -2 8 -2 l125 0 l-63 282 Z" /><glyph glyph-name="NULL" unicode="" d="" /><glyph glyph-name="nonmarkingreturn" unicode="" d="" /><glyph glyph-name="space" unicode=" " d="" /><glyph glyph-name="A" unicode="a" d="M254 0 l-58 0 l-26 278 l-51 0 l-46 -278 l-47 0 l45 710 l183 0 l0 -710 ZM191 672 q0 6 -6 6 l-43 0 q-6 0 -6 -6 l0 -342 q0 -5 6 -5 l43 0 q6 0 6 6 l0 341 Z" /><glyph glyph-name="Aacute" unicode="á" d="M202 900 l46 -48 l-96 -84 l-34 24 l84 108 ZM254 0 l-58 0 l-26 278 l-51 0 l-46 -278 l-47 0 l45 710 l183 0 l0 -710 ZM191 672 q0 6 -6 6 l-43 0 q-6 0 -6 -6 l0 -342 q0 -5 6 -5 l43 0 q6 0 6 6 l0 341 Z" /><glyph glyph-name="Abreve" unicode="&#x102;" d="M113 894 l-5 -48 l12 -11 l110 -5 l-3 66 l46 4 l0 -76 l-39 -39 l-125 0 l-45 28 l-4 81 l53 0 ZM254 0 l-58 0 l-26 278 l-51 0 l-46 -278 l-47 0 l45 710 l183 0 l0 -710 ZM191 672 q0 6 -6 6 l-43 0 q-6 0 -6 -6 l0 -342 q0 -5 6 -5 l43 0 q6 0 6 6 l0 341 Z" /><glyph glyph-name="Acircumflex" unicode="â" d="M142 899 l40 -3 l74 -110 l-29 -19 l-65 62 l-65 -62 l-29 19 l74 113 ZM254 0 l-58 0 l-26 278 l-51 0 l-46 -278 l-47 0 l45 710 l183 0 l0 -710 ZM191 672 q0 6 -6 6 l-43 0 q-6 0 -6 -6 l0 -342 q0 -5 6 -5 l43 0 q6 0 6 6 l0 341 Z" /><glyph glyph-name="Adieresis" unicode="ä" d="M37 897 l83 3 l-4 -83 l-79 0 l0 80 ZM187 900 l79 0 l0 -80 l-76 -3 l-3 83 ZM254 0 l-58 0 l-26 278 l-51 0 l-46 -278 l-47 0 l45 710 l183 0 l0 -710 ZM191 672 q0 6 -6 6 l-43 0 q-6 0 -6 -6 l0 -342 q0 -5 6 -5 l43 0 q6 0 6 6 l0 341 Z" /><glyph glyph-name="Agrave" unicode="à" d="M217 792 l-34 -24 l-96 84 l46 48 l84 -108 ZM254 0 l-58 0 l-26 278 l-51 0 l-46 -278 l-47 0 l45 710 l183 0 l0 -710 ZM191 672 q0 6 -6 6 l-43 0 q-6 0 -6 -6 l0 -342 q0 -5 6 -5 l43 0 q6 0 6 6 l0 341 Z" /><glyph glyph-name="Amacron" unicode="&#x100;" d="M298 891 l0 -55 l-265 -9 l-3 64 l268 0 ZM254 0 l-58 0 l-26 278 l-51 0 l-46 -278 l-47 0 l45 710 l183 0 l0 -710 ZM191 672 q0 6 -6 6 l-43 0 q-6 0 -6 -6 l0 -342 q0 -5 6 -5 l43 0 q6 0 6 6 l0 341 Z" /><glyph glyph-name="Aogonek" unicode="&#x104;" d="M254 0 l-19 0 l-26 -83 l34 -62 l89 45 l16 -46 l-113 -63 l-88 114 l49 97 l-26 276 l-51 0 l-46 -278 l-47 0 l45 710 l183 0 l0 -710 ZM191 672 q0 6 -6 6 l-43 0 q-6 0 -6 -6 l0 -342 q0 -5 6 -5 l43 0 q6 0 6 6 l0 341 Z" /><glyph glyph-name="Aring" unicode="å" d="M238 899 l0 -109 l-25 -26 l-114 0 l0 135 l139 0 ZM189 799 q7 0 7 6 l0 56 q0 3 -6 6 l-40 5 q-8 0 -8 -3 l0 -66 q0 -4 6 -4 l41 0 ZM254 0 l-58 0 l-26 278 l-51 0 l-46 -278 l-47 0 l45 710 l183 0 l0 -710 ZM191 672 q0 6 -6 6 l-43 0 q-6 0 -6 -6 l0 -342 q0 -5 6 -5 l43 0 q6 0 6 6 l0 341 Z" /><glyph glyph-name="Aringacute" unicode="&#x1fa;" d="M241 900 l9 -55 l-126 -22 l-16 38 l133 39 ZM234 810 l0 -100 l20 0 l0 -710 l-58 0 l-26 278 l-51 0 l-46 -278 l-47 0 l45 710 l24 0 l0 100 l139 0 ZM185 710 q7 0 7 6 l0 56 q0 3 -6 6 l-40 5 q-8 0 -8 -3 l0 -66 q0 -4 3 -4 l44 0 ZM191 672 q0 2 -1 3 l-54 0 l0 -345 q0 -5 6 -5 l43 0 q6 0 6 6 l0 341 Z" /><glyph glyph-name="Atilde" unicode="ã" d="M122 897 q25 0 54 -20 l38 -25 l72 48 l0 -60 l-24 -23 q-10 -9 -22.5 -16 q-12.5 -7 -21.5 -7 q-18 0 -45 19 l-44 31 l-68 -53 l-3 69 l26 23 q17 14 38 14 ZM254 0 l-58 0 l-26 278 l-51 0 l-46 -278 l-47 0 l45 710 l183 0 l0 -710 ZM191 672 q0 6 -6 6 l-43 0 q-6 0 -6 -6 l0 -342 q0 -5 6 -5 l43 0 q6 0 6 6 l0 341 Z" /><glyph glyph-name="AE" unicode="æ" d="M423 632 l-143 0 l0 -171 l109 0 l0 -50 l-104 -18 l0 -310 l135 18 l12 -101 l-216 0 l-26 278 l-71 0 l-46 -278 l-47 0 l45 710 l352 0 l0 -78 ZM191 672 q0 6 -6 6 l-43 0 q-6 0 -6 -6 l0 -342 q0 -5 6 -5 l43 0 q6 0 6 6 l0 341 Z" /><glyph glyph-name="AEacute" unicode="&#x1fc;" d="M272 900 l46 -48 l-96 -84 l-34 24 l84 108 ZM423 632 l-143 0 l0 -171 l109 0 l0 -50 l-104 -18 l0 -310 l135 18 l12 -101 l-216 0 l-26 278 l-71 0 l-46 -278 l-47 0 l45 710 l352 0 l0 -78 ZM191 672 q0 6 -6 6 l-43 0 q-6 0 -6 -6 l0 -342 q0 -5 6 -5 l43 0 q6 0 6 6 l0 341 Z" /><glyph glyph-name="B" unicode="b" d="M210 374 q24 -4 37.5 -8.5 q13.5 -4.5 13.5 -13.5 l0 -302 q0 -18 -25.5 -24 q-25.5 -6 -49.5 -6 l-136 0 l0 690 l113 0 q31 0 59.5 -10 q28.5 -10 28.5 -38 l-1 -10 l-29 -255 q0 -11 -2 -15 q-2 -4 -9 -8 ZM107 415 q0 -8 12 -8 l38 15 q9 2 9 9 l10 216 q0 4 -14 4 l-43 0 q-12 0 -12 -4 l0 -232 ZM155 76 q18 0 25.5 8 q7.5 8 7.5 16 q0 6 -2 6 l0 225 q3 2 3 3 q0 3 -7 3 l-42 0 q-3 0 -6.5 -2 q-3.5 -2 -4.5 -4 l0 -252 q1 -1 4 -2 q3 -1 7 -1 l15 0 Z" /><glyph glyph-name="C" unicode="c" d="M294 0 l-143 0 q-51 0 -76 17.5 q-25 17.5 -25 44.5 l0 592 q0 24 21 40 q21 16 59 16 l164 0 l0 -56 l-16 -125 l-66 0 l-10 113 q0 9 -12 9 l-42 0 q-19 0 -27.5 -15.5 q-8.5 -15.5 -8.5 -34.5 q0 -11 3 -13 l20 -499 q-3 -1 -3 -3 q0 -3 9 -3 l59 0 q12 0 12 6 l20 78 l62 0 l0 -167 Z" /><glyph glyph-name="Cacute" unicode="&#x106;" d="M220 900 l46 -48 l-96 -84 l-34 24 l84 108 ZM294 0 l-143 0 q-51 0 -76 17.5 q-25 17.5 -25 44.5 l0 592 q0 24 21 40 q21 16 59 16 l164 0 l0 -56 l-16 -125 l-66 0 l-10 113 q0 9 -12 9 l-42 0 q-19 0 -27.5 -15.5 q-8.5 -15.5 -8.5 -34.5 q0 -11 3 -13 l20 -499 q-3 -1 -3 -3 q0 -3 9 -3 l59 0 q12 0 12 6 l20 78 l62 0 l0 -167 Z" /><glyph glyph-name="Ccaron" unicode="&#x10c;" d="M209 768 l-40 3 l-74 110 l29 19 l65 -62 l65 62 l29 -19 l-74 -113 ZM294 0 l-143 0 q-51 0 -76 17.5 q-25 17.5 -25 44.5 l0 592 q0 24 21 40 q21 16 59 16 l164 0 l0 -56 l-16 -125 l-66 0 l-10 113 q0 9 -12 9 l-42 0 q-19 0 -27.5 -15.5 q-8.5 -15.5 -8.5 -34.5 q0 -11 3 -13 l20 -499 q-3 -1 -3 -3 q0 -3 9 -3 l59 0 q12 0 12 6 l20 78 l62 0 l0 -167 Z" /><glyph glyph-name="Ccedilla" unicode="ç" d="M294 0 l-102 0 l-23 -45 l112 0 l-24 -103 q0 -21 -21 -40.5 q-21 -19.5 -43 -19.5 l-123 0 l0 58 l129 0 l10 53 l-105 8 l25 90 q-40 4 -59.5 20.5 q-19.5 16.5 -19.5 40.5 l0 592 q0 24 21 40 q21 16 59 16 l164 0 l0 -56 l-16 -125 l-66 0 l-10 113 q0 9 -12 9 l-42 0 q-19 0 -27.5 -15.5 q-8.5 -15.5 -8.5 -34.5 q0 -11 3 -13 l20 -499 q-3 -1 -3 -3 q0 -3 9 -3 l59 0 q12 0 12 6 l20 78 l62 0 l0 -167 Z" /><glyph glyph-name="Ccircumflex" unicode="&#x108;" d="M166 900 l40 -3 l74 -110 l-29 -19 l-65 62 l-65 -62 l-29 19 l74 113 ZM294 0 l-143 0 q-51 0 -76 17.5 q-25 17.5 -25 44.5 l0 592 q0 24 21 40 q21 16 59 16 l164 0 l0 -56 l-16 -125 l-66 0 l-10 113 q0 9 -12 9 l-42 0 q-19 0 -27.5 -15.5 q-8.5 -15.5 -8.5 -34.5 q0 -11 3 -13 l20 -499 q-3 -1 -3 -3 q0 -3 9 -3 l59 0 q12 0 12 6 l20 78 l62 0 l0 -167 Z" /><glyph glyph-name="Cdotaccent" unicode="&#x10a;" d="M140 900 l93 0 l0 -95 l-89 -3 l-4 98 ZM294 0 l-143 0 q-51 0 -76 17.5 q-25 17.5 -25 44.5 l0 592 q0 24 21 40 q21 16 59 16 l164 0 l0 -56 l-16 -125 l-66 0 l-10 113 q0 9 -12 9 l-42 0 q-19 0 -27.5 -15.5 q-8.5 -15.5 -8.5 -34.5 q0 -11 3 -13 l20 -499 q-3 -1 -3 -3 q0 -3 9 -3 l59 0 q12 0 12 6 l20 78 l62 0 l0 -167 Z" /><glyph glyph-name="D" unicode="d" d="M165 710 q48 0 78.5 -31 q30.5 -31 30.5 -79 l-30 -543 l-61 -57 l-133 0 l0 710 l115 0 ZM188 638 q0 6 -12 6 l-45 0 q-3 0 -6 -2 q-3 -2 -3 -4 l0 -566 l9 -6 l37 5 q9 6 9 13 l11 554 Z" /><glyph glyph-name="uni01F1" unicode="&#x1f1;" d="M165 710 q48 0 78.5 -31 q30.5 -31 30.5 -79 l-30 -543 l-61 -57 l-133 0 l0 710 l115 0 ZM584 0 l-8 65 l-134 19 l142 595 l-31 31 l-195 0 l0 -40 l136 -32 l-118 -550 l-34 -66 l18 -22 l224 0 ZM188 638 q0 6 -12 6 l-45 0 q-3 0 -6 -2 q-3 -2 -3 -4 l0 -566 l9 -6 l37 5 q9 6 9 13 l11 554 Z" /><glyph glyph-name="uni01C4" unicode="&#x1c4;" d="M489 768 l-40 3 l-74 110 l29 19 l65 -62 l65 62 l29 -19 l-74 -113 ZM165 710 q48 0 78.5 -31 q30.5 -31 30.5 -79 l-30 -543 l-61 -57 l-133 0 l0 710 l115 0 ZM360 0 l-18 22 l34 66 l118 550 l-136 32 l0 40 l195 0 l31 -31 l-142 -595 l134 -19 l8 -65 l-224 0 ZM188 638 q0 6 -12 6 l-45 0 q-3 0 -6 -2 q-3 -2 -3 -4 l0 -566 l9 -6 l37 5 q9 6 9 13 l11 554 Z" /><glyph glyph-name="Eth" unicode="ð" d="M50 710 l115 0 q25 0 50.5 -12.5 q25.5 -12.5 42.5 -34 q17 -21.5 17 -47.5 l-1 -16 l-30 -543 q-2 -34 -23 -45.5 q-21 -11.5 -38 -11.5 l-133 0 l0 338 l-50 0 l-3 58 l53 -3 l0 317 ZM188 638 q0 6 -12 6 l-45 0 q-3 0 -6 -2 q-3 -2 -3 -4 l0 -249 l35 -2 l0 -49 l-35 0 l0 -266 l9 -6 l37 5 q9 6 9 13 l11 554 Z" /><glyph glyph-name="Dcaron" unicode="&#x10e;" d="M178 768 l-40 3 l-74 110 l29 19 l65 -62 l65 62 l29 -19 l-74 -113 ZM165 710 q48 0 78.5 -31 q30.5 -31 30.5 -79 l-30 -543 l-61 -57 l-133 0 l0 710 l115 0 ZM188 638 q0 6 -12 6 l-45 0 q-3 0 -6 -2 q-3 -2 -3 -4 l0 -566 l9 -6 l37 5 q9 6 9 13 l11 554 Z" /><glyph glyph-name="Dcroat" unicode="&#x110;" d="M50 710 l115 0 q25 0 50.5 -12.5 q25.5 -12.5 42.5 -34 q17 -21.5 17 -47.5 l-1 -16 l-30 -543 q-2 -34 -23 -45.5 q-21 -11.5 -38 -11.5 l-133 0 l0 338 l-50 0 l-3 58 l53 -3 l0 317 ZM188 638 q0 6 -12 6 l-45 0 q-3 0 -6 -2 q-3 -2 -3 -4 l0 -249 l35 -2 l0 -49 l-35 0 l0 -266 l9 -6 l37 5 q9 6 9 13 l11 554 Z" /><glyph glyph-name="uni1E0C" unicode="&#x1e0c;" d="M165 710 q48 0 78.5 -31 q30.5 -31 30.5 -79 l-30 -543 l-61 -57 l-133 0 l0 710 l115 0 ZM188 638 q0 6 -12 6 l-45 0 q-3 0 -6 -2 q-3 -2 -3 -4 l0 -566 l9 -6 l37 5 q9 6 9 13 l11 554 ZM96 -56 l93 0 l0 -95 l-89 -3 l-4 98 Z" /><glyph glyph-name="E" unicode="e" d="M281 20 l-235 0 l23 690 l203 0 l0 -78 l-143 0 l0 -206 l109 0 l0 -50 l-104 -18 l0 -255 l135 18 l12 -101 Z" /><glyph glyph-name="Eacute" unicode="é" d="M197 900 l46 -48 l-96 -84 l-34 24 l84 108 ZM281 20 l-235 0 l23 690 l203 0 l0 -78 l-143 0 l0 -206 l109 0 l0 -50 l-104 -18 l0 -255 l135 18 l12 -101 Z" /><glyph glyph-name="Ebreve" unicode="&#x114;" d="M125 894 l-5 -48 l12 -11 l110 -5 l-3 66 l46 4 l0 -76 l-39 -39 l-125 0 l-45 28 l-4 81 l53 0 ZM281 20 l-235 0 l23 690 l203 0 l0 -78 l-143 0 l0 -206 l109 0 l0 -50 l-104 -18 l0 -255 l135 18 l12 -101 Z" /><glyph glyph-name="Ecaron" unicode="&#x11a;" d="M196 768 l-40 3 l-74 110 l29 19 l65 -62 l65 62 l29 -19 l-74 -113 ZM281 20 l-235 0 l23 690 l203 0 l0 -78 l-143 0 l0 -206 l109 0 l0 -50 l-104 -18 l0 -255 l135 18 l12 -101 Z" /><glyph glyph-name="Ecircumflex" unicode="ê" d="M158 899 l40 -3 l74 -110 l-29 -19 l-65 62 l-65 -62 l-29 19 l74 113 ZM281 20 l-235 0 l23 690 l203 0 l0 -78 l-143 0 l0 -206 l109 0 l0 -50 l-104 -18 l0 -255 l135 18 l12 -101 Z" /><glyph glyph-name="Edieresis" unicode="ë" d="M43 897 l83 3 l-4 -83 l-79 0 l0 80 ZM193 900 l79 0 l0 -80 l-76 -3 l-3 83 ZM281 20 l-235 0 l23 690 l203 0 l0 -78 l-143 0 l0 -206 l109 0 l0 -50 l-104 -18 l0 -255 l135 18 l12 -101 Z" /><glyph glyph-name="Edotaccent" unicode="&#x116;" d="M127 900 l93 0 l0 -95 l-89 -3 l-4 98 ZM281 20 l-235 0 l23 690 l203 0 l0 -78 l-143 0 l0 -206 l109 0 l0 -50 l-104 -18 l0 -255 l135 18 l12 -101 Z" /><glyph glyph-name="uni1EB8" unicode="&#x1eb8;" d="M281 20 l-235 0 l23 690 l203 0 l0 -78 l-143 0 l0 -206 l109 0 l0 -50 l-104 -18 l0 -255 l135 18 l12 -101 ZM113 -56 l93 0 l0 -95 l-89 -3 l-4 98 Z" /><glyph glyph-name="Egrave" unicode="è" d="M233 791 l-34 -24 l-96 84 l46 48 l84 -108 ZM281 20 l-235 0 l23 690 l203 0 l0 -78 l-143 0 l0 -206 l109 0 l0 -50 l-104 -18 l0 -255 l135 18 l12 -101 Z" /><glyph glyph-name="Emacron" unicode="&#x112;" d="M306 891 l0 -55 l-265 -9 l-3 64 l268 0 ZM281 20 l-235 0 l23 690 l203 0 l0 -78 l-143 0 l0 -206 l109 0 l0 -50 l-104 -18 l0 -255 l135 18 l12 -101 Z" /><glyph glyph-name="Eogonek" unicode="&#x118;" d="M281 20 l-128 0 l0 -20 l-26 -83 l34 -62 l89 45 l16 -46 l-113 -63 l-88 114 l58 115 l-77 0 l23 690 l203 0 l0 -78 l-143 0 l0 -206 l109 0 l0 -50 l-104 -18 l0 -255 l135 18 l12 -101 Z" /><glyph glyph-name="uni1EBC" unicode="&#x1ebc;" d="M127 897 q25 0 54 -20 l38 -25 l72 48 l0 -60 l-24 -23 q-10 -9 -22.5 -16 q-12.5 -7 -21.5 -7 q-18 0 -45 19 l-44 31 l-68 -53 l-3 69 l26 23 q17 14 38 14 ZM281 20 l-235 0 l23 690 l203 0 l0 -78 l-143 0 l0 -206 l109 0 l0 -50 l-104 -18 l0 -255 l135 18 l12 -101 Z" /><glyph glyph-name="F" unicode="f" d="M45 0 l23 710 l183 0 l0 -88 l-123 0 l0 -199 l109 0 l0 -50 l-104 -18 l0 -355 l-88 0 Z" /><glyph glyph-name="G" unicode="g" d="M102 20 q-22 0 -37 20 q-15 20 -15 57 l0 559 l36 54 l213 0 l0 -149 l-43 0 l-30 90 l-67 0 q-40 0 -42 -45 l18 -496 q0 -7 7 -12.5 q7 -5.5 14 -5.5 l73 0 q7 0 13.5 3.5 q6.5 3.5 6.5 8.5 l10 194 l-60 2 l0 56 l113 13 l0 -349 l-210 0 Z" /><glyph glyph-name="Gbreve" unicode="&#x11e;" d="M138 894 l-5 -48 l12 -11 l110 -5 l-3 66 l46 4 l0 -76 l-39 -39 l-125 0 l-45 28 l-4 81 l53 0 ZM102 20 q-22 0 -37 20 q-15 20 -15 57 l0 559 l36 54 l213 0 l0 -149 l-43 0 l-30 90 l-67 0 q-40 0 -42 -45 l18 -496 q0 -7 7 -12.5 q7 -5.5 14 -5.5 l73 0 q7 0 13.5 3.5 q6.5 3.5 6.5 8.5 l10 194 l-60 2 l0 56 l113 13 l0 -349 l-210 0 Z" /><glyph glyph-name="Gcircumflex" unicode="&#x11c;" d="M169 900 l40 -3 l74 -110 l-29 -19 l-65 62 l-65 -62 l-29 19 l74 113 ZM102 20 q-22 0 -37 20 q-15 20 -15 57 l0 559 l36 54 l213 0 l0 -149 l-43 0 l-30 90 l-67 0 q-40 0 -42 -45 l18 -496 q0 -7 7 -12.5 q7 -5.5 14 -5.5 l73 0 q7 0 13.5 3.5 q6.5 3.5 6.5 8.5 l10 194 l-60 2 l0 56 l113 13 l0 -349 l-210 0 Z" /><glyph glyph-name="Gcommaaccent" unicode="&#x122;" d="M102 20 q-22 0 -37 20 q-15 20 -15 57 l0 559 l36 54 l213 0 l0 -149 l-43 0 l-30 90 l-67 0 q-40 0 -42 -45 l18 -496 q0 -7 7 -12.5 q7 -5.5 14 -5.5 l73 0 q7 0 13.5 3.5 q6.5 3.5 6.5 8.5 l10 194 l-60 2 l0 56 l113 13 l0 -349 l-210 0 ZM148 -78 l81 0 l3 -82 l-33 -90 l-55 16 l46 74 l-42 0 l0 82 Z" /><glyph glyph-name="Gdotaccent" unicode="&#x120;" d="M143 900 l93 0 l0 -95 l-89 -3 l-4 98 ZM102 20 q-22 0 -37 20 q-15 20 -15 57 l0 559 l36 54 l213 0 l0 -149 l-43 0 l-30 90 l-67 0 q-40 0 -42 -45 l18 -496 q0 -7 7 -12.5 q7 -5.5 14 -5.5 l73 0 q7 0 13.5 3.5 q6.5 3.5 6.5 8.5 l10 194 l-60 2 l0 56 l113 13 l0 -349 l-210 0 Z" /><glyph glyph-name="H" unicode="h" d="M199 326 l-80 -9 l11 -317 l-70 0 l-23 710 l81 0 l0 -325 l74 15 l0 290 l87 0 l0 -42 l-15 -24 l21 -644 l-65 0 l-21 346 Z" /><glyph glyph-name="Hbar" unicode="&#x126;" d="M204 326 l-80 -9 l11 -317 l-70 0 l-17 514 l-45 -1 l-3 57 l46 0 l-4 140 l81 0 l0 -140 l74 0 l0 120 l87 0 l0 -42 l-15 -24 l2 -54 l54 0 l0 -46 l-53 -2 l18 -542 l-65 0 l-21 346 ZM197 400 l0 119 l-74 -2 l0 -132 l74 15 Z" /><glyph glyph-name="Hcircumflex" unicode="&#x124;" d="M137 900 l40 -3 l74 -110 l-29 -19 l-65 62 l-65 -62 l-29 19 l74 113 ZM199 326 l-80 -9 l11 -317 l-70 0 l-23 710 l81 0 l0 -325 l74 15 l0 290 l87 0 l0 -42 l-15 -24 l21 -644 l-65 0 l-21 346 Z" /><glyph glyph-name="uni1E24" unicode="&#x1e24;" d="M199 326 l-80 -9 l11 -317 l-70 0 l-23 710 l81 0 l0 -325 l74 15 l0 290 l87 0 l0 -42 l-15 -24 l21 -644 l-65 0 l-21 346 ZM118 -56 l93 0 l0 -95 l-89 -3 l-4 98 Z" /><glyph glyph-name="I" unicode="i" d="M124 0 l-74 0 l0 616 l-18 48 l0 46 l101 0 l-9 -710 Z" /><glyph glyph-name="IJ" unicode="&#x132;" d="M124 0 l-74 0 l0 616 l-18 48 l0 46 l101 0 l-9 -710 ZM409 710 l-96 0 l0 -46 l18 -48 l0 -567 l-64 5 l-5 138 l-79 -20 l36 -172 l181 0 l9 710 Z" /><glyph glyph-name="Iacute" unicode="í" d="M108 900 l46 -48 l-96 -84 l-34 24 l84 108 ZM124 0 l-74 0 l0 616 l-18 48 l0 46 l101 0 l-9 -710 Z" /><glyph glyph-name="Ibreve" unicode="&#x12c;" d="M35 894 l-5 -48 l12 -11 l110 -5 l-3 66 l46 4 l0 -76 l-39 -39 l-125 0 l-45 28 l-4 81 l53 0 ZM124 0 l-74 0 l0 616 l-18 48 l0 46 l101 0 l-9 -710 Z" /><glyph glyph-name="Icircumflex" unicode="î" d="M69 899 l40 -3 l74 -110 l-29 -19 l-65 62 l-65 -62 l-29 19 l74 113 ZM124 0 l-74 0 l0 616 l-18 48 l0 46 l101 0 l-9 -710 Z" /><glyph glyph-name="Idieresis" unicode="ï" d="M-25 897 l83 3 l-4 -83 l-79 0 l0 80 ZM125 900 l79 0 l0 -80 l-76 -3 l-3 83 ZM124 0 l-74 0 l0 616 l-18 48 l0 46 l101 0 l-9 -710 Z" /><glyph glyph-name="Idotaccent" unicode="&#x130;" d="M45 900 l93 0 l0 -95 l-89 -3 l-4 98 ZM124 0 l-74 0 l0 616 l-18 48 l0 46 l101 0 l-9 -710 Z" /><glyph glyph-name="uni1ECA" unicode="&#x1eca;" d="M124 0 l-74 0 l0 616 l-18 48 l0 46 l101 0 l-9 -710 ZM40 -56 l93 0 l0 -95 l-89 -3 l-4 98 Z" /><glyph glyph-name="Igrave" unicode="ì" d="M144 792 l-34 -24 l-96 84 l46 48 l84 -108 ZM124 0 l-74 0 l0 616 l-18 48 l0 46 l101 0 l-9 -710 Z" /><glyph glyph-name="Imacron" unicode="&#x12a;" d="M219 891 l0 -55 l-265 -9 l-3 64 l268 0 ZM124 0 l-74 0 l0 616 l-18 48 l0 46 l101 0 l-9 -710 Z" /><glyph glyph-name="Iogonek" unicode="&#x12e;" d="M124 0 l-1 0 l-26 -83 l34 -62 l89 45 l16 -46 l-113 -63 l-88 114 l48 95 l-33 0 l0 616 l-18 48 l0 46 l101 0 l-9 -710 Z" /><glyph glyph-name="Itilde" unicode="&#x128;" d="M39 897 q25 0 54 -20 l38 -25 l72 48 l0 -60 l-24 -23 q-10 -9 -22.5 -16 q-12.5 -7 -21.5 -7 q-18 0 -45 19 l-44 31 l-68 -53 l-3 69 l26 23 q17 14 38 14 ZM124 0 l-74 0 l0 616 l-18 48 l0 46 l101 0 l-9 -710 Z" /><glyph glyph-name="J" unicode="j" d="M242 0 l-181 0 l-36 172 l79 20 l5 -138 l64 -5 l0 567 l-18 48 l0 46 l96 0 l-9 -710 Z" /><glyph glyph-name="Jcircumflex" unicode="&#x134;" d="M184 900 l40 -3 l74 -110 l-29 -19 l-65 62 l-65 -62 l-29 19 l74 113 ZM242 0 l-181 0 l-36 172 l79 20 l5 -138 l64 -5 l0 567 l-18 48 l0 46 l96 0 l-9 -710 Z" /><glyph glyph-name="K" unicode="k" d="M277 -20 l-80 0 l0 284 l-54 50 l-11 -8 l0 -326 l-67 0 l-23 710 l78 0 l0 -300 l26 -15 l45 36 l10 299 l86 0 l-42 -324 l-48 -32 l69 -40 l11 -334 Z" /><glyph glyph-name="Kcommaaccent" unicode="&#x136;" d="M277 -20 l-80 0 l0 284 l-54 50 l-11 -8 l0 -326 l-67 0 l-23 710 l78 0 l0 -300 l26 -15 l45 36 l10 299 l86 0 l-42 -324 l-48 -32 l69 -40 l11 -334 ZM126 -78 l81 0 l3 -82 l-33 -90 l-55 16 l46 74 l-42 0 l0 82 Z" /><glyph glyph-name="L" unicode="l" d="M239 0 l-189 0 l0 710 l97 0 l-21 -628 l113 -18 l0 -64 Z" /><glyph glyph-name="uni01C7" unicode="&#x1c7;" d="M239 0 l-189 0 l0 710 l97 0 l-21 -628 l113 -18 l0 -64 ZM506 0 l-181 0 l-36 172 l79 20 l5 -138 l64 -5 l0 567 l-18 48 l0 46 l96 0 l-9 -710 Z" /><glyph glyph-name="Lacute" unicode="&#x139;" d="M149 900 l46 -48 l-96 -84 l-34 24 l84 108 ZM239 64 l-113 18 l21 628 l-97 0 l0 -710 l189 0 l0 64 Z" /><glyph glyph-name="Lcaron" unicode="&#x13d;" d="M187 755 l86 4 l6 -96 l-68 -90 l-43 15 l51 75 l-32 92 ZM239 64 l-113 18 l21 628 l-97 0 l0 -710 l189 0 l0 64 Z" /><glyph glyph-name="Lcommaaccent" unicode="&#x13b;" d="M239 0 l-189 0 l0 710 l97 0 l-21 -628 l113 -18 l0 -64 ZM92 -78 l81 0 l3 -82 l-33 -90 l-55 16 l46 74 l-42 0 l0 82 Z" /><glyph glyph-name="Ldot" unicode="&#x13f;" d="M239 0 l-189 0 l0 710 l97 0 l-21 -628 l113 -18 l0 -64 ZM168 416 l96 4 l-4 -96 l-92 0 l0 92 Z" /><glyph glyph-name="Lslash" unicode="&#x141;" d="M239 0 l-189 0 l0 302 l-47 -28 l-26 54 l73 41 l0 341 l97 0 l-10 -292 l81 46 l25 -46 l-108 -65 l-9 -271 l113 -18 l0 -64 Z" /><glyph glyph-name="M" unicode="m" d="M30 -20 l0 730 l90 0 l52 -378 l6 0 l47 398 l97 0 l0 -730 l-66 0 l22 661 l-4 0 l-87 -480 l-30 0 l-71 429 l-4 0 l0 -630 l-52 0 Z" /><glyph glyph-name="N" unicode="n" d="M310 0 l-115 0 l-102 651 l-4 0 l0 -651 l-59 0 l0 710 l116 0 l90 -652 l4 0 l22 652 l58 0 l-10 -710 Z" /><glyph glyph-name="uni01CA" unicode="&#x1ca;" d="M310 0 l-115 0 l-102 651 l-4 0 l0 -651 l-59 0 l0 710 l116 0 l90 -652 l4 0 l22 652 l58 0 l-10 -710 ZM586 0 l-181 0 l-36 172 l79 20 l5 -138 l64 -5 l0 567 l-18 48 l0 46 l96 0 l-9 -710 Z" /><glyph glyph-name="Nacute" unicode="&#x143;" d="M212 900 l46 -48 l-96 -84 l-34 24 l84 108 ZM320 710 l-58 0 l-22 -652 l-4 0 l-90 652 l-116 0 l0 -710 l59 0 l0 651 l4 0 l102 -651 l115 0 l10 710 Z" /><glyph glyph-name="Ncaron" unicode="&#x147;" d="M204 768 l-40 3 l-74 110 l29 19 l65 -62 l65 62 l29 -19 l-74 -113 ZM310 0 l-115 0 l-102 651 l-4 0 l0 -651 l-59 0 l0 710 l116 0 l90 -652 l4 0 l22 652 l58 0 l-10 -710 Z" /><glyph glyph-name="Ncommaaccent" unicode="&#x145;" d="M310 0 l-115 0 l-102 651 l-4 0 l0 -651 l-59 0 l0 710 l116 0 l90 -652 l4 0 l22 652 l58 0 l-10 -710 ZM132 -78 l81 0 l3 -82 l-33 -90 l-55 16 l46 74 l-42 0 l0 82 Z" /><glyph glyph-name="uni1E44" unicode="&#x1e44;" d="M140 900 l93 0 l0 -95 l-89 -3 l-4 98 ZM320 710 l-58 0 l-22 -652 l-4 0 l-90 652 l-116 0 l0 -710 l59 0 l0 651 l4 0 l102 -651 l115 0 l10 710 Z" /><glyph glyph-name="Eng" unicode="&#x14a;" d="M321 -30 l-151 0 l-26 122 l69 20 l5 -88 l44 -5 l0 139 l-169 493 l-4 0 l0 -651 l-59 0 l0 710 l116 0 l112 -397 l4 0 l0 303 l-18 48 l0 46 l86 0 l-9 -740 Z" /><glyph glyph-name="Ntilde" unicode="ñ" d="M140 897 q25 0 54 -20 l38 -25 l72 48 l0 -60 l-24 -23 q-10 -9 -22.5 -16 q-12.5 -7 -21.5 -7 q-18 0 -45 19 l-44 31 l-68 -53 l-3 69 l26 23 q17 14 38 14 ZM320 710 l-58 0 l-22 -652 l-4 0 l-90 652 l-116 0 l0 -710 l59 0 l0 651 l4 0 l102 -651 l115 0 l10 710 Z" /><glyph glyph-name="O" unicode="o" d="M93 710 l135 0 l40 -28 l0 -646 l-63 -36 l-96 0 l-59 42 l0 636 l43 32 ZM201 649 q0 9 -9 9 l-52 0 q-9 0 -9 -9 l0 -573 q0 -6 9 -6 l42 0 q9 0 9 6 l10 573 Z" /><glyph glyph-name="Oacute" unicode="ó" d="M198 900 l46 -48 l-96 -84 l-34 24 l84 108 ZM93 710 l135 0 l40 -28 l0 -646 l-63 -36 l-96 0 l-59 42 l0 636 l43 32 ZM201 649 q0 9 -9 9 l-52 0 q-9 0 -9 -9 l0 -573 q0 -6 9 -6 l42 0 q9 0 9 6 l10 573 Z" /><glyph glyph-name="Obreve" unicode="&#x14e;" d="M112 894 l-5 -48 l12 -11 l110 -5 l-3 66 l46 4 l0 -76 l-39 -39 l-125 0 l-45 28 l-4 81 l53 0 ZM93 710 l135 0 l40 -28 l0 -646 l-63 -36 l-96 0 l-59 42 l0 636 l43 32 ZM201 649 q0 9 -9 9 l-52 0 q-9 0 -9 -9 l0 -573 q0 -6 9 -6 l42 0 q9 0 9 6 l10 573 Z" /><glyph glyph-name="Ocircumflex" unicode="ô" d="M149 899 l40 -3 l74 -110 l-29 -19 l-65 62 l-65 -62 l-29 19 l74 113 ZM93 710 l135 0 l40 -28 l0 -646 l-63 -36 l-96 0 l-59 42 l0 636 l43 32 ZM201 649 q0 9 -9 9 l-52 0 q-9 0 -9 -9 l0 -573 q0 -6 9 -6 l42 0 q9 0 9 6 l10 573 Z" /><glyph glyph-name="Odieresis" unicode="ö" d="M44 897 l83 3 l-4 -83 l-79 0 l0 80 ZM194 900 l79 0 l0 -80 l-76 -3 l-3 83 ZM93 710 l135 0 l40 -28 l0 -646 l-63 -36 l-96 0 l-59 42 l0 636 l43 32 ZM201 649 q0 9 -9 9 l-52 0 q-9 0 -9 -9 l0 -573 q0 -6 9 -6 l42 0 q9 0 9 6 l10 573 Z" /><glyph glyph-name="uni1ECC" unicode="&#x1ecc;" d="M93 710 l135 0 l40 -28 l0 -646 l-63 -36 l-96 0 l-59 42 l0 636 l43 32 ZM201 649 q0 9 -9 9 l-52 0 q-9 0 -9 -9 l0 -573 q0 -6 9 -6 l42 0 q9 0 9 6 l10 573 ZM108 -56 l93 0 l0 -95 l-89 -3 l-4 98 Z" /><glyph glyph-name="Ograve" unicode="ò" d="M224 792 l-34 -24 l-96 84 l46 48 l84 -108 ZM93 710 l135 0 l40 -28 l0 -646 l-63 -36 l-96 0 l-59 42 l0 636 l43 32 ZM201 649 q0 9 -9 9 l-52 0 q-9 0 -9 -9 l0 -573 q0 -6 9 -6 l42 0 q9 0 9 6 l10 573 Z" /><glyph glyph-name="Ohungarumlaut" unicode="&#x150;" d="M144 900 l46 -48 l-96 -84 l-34 24 l84 108 ZM274 900 l46 -48 l-96 -84 l-34 24 l84 108 ZM93 710 l135 0 l40 -28 l0 -646 l-63 -36 l-96 0 l-59 42 l0 636 l43 32 ZM201 649 q0 9 -9 9 l-52 0 q-9 0 -9 -9 l0 -573 q0 -6 9 -6 l42 0 q9 0 9 6 l10 573 Z" /><glyph glyph-name="Omacron" unicode="&#x14c;" d="M298 891 l0 -55 l-265 -9 l-3 64 l268 0 ZM93 710 l135 0 l40 -28 l0 -646 l-63 -36 l-96 0 l-59 42 l0 636 l43 32 ZM201 649 q0 9 -9 9 l-52 0 q-9 0 -9 -9 l0 -573 q0 -6 9 -6 l42 0 q9 0 9 6 l10 573 Z" /><glyph glyph-name="uni01EA" unicode="&#x1ea;" d="M93 710 l135 0 l40 -28 l0 -646 l-63 -36 l-47 0 l-26 -83 l34 -62 l89 45 l16 -46 l-113 -63 l-88 114 l48 95 l-9 0 l-59 42 l0 636 l43 32 ZM201 649 q0 9 -9 9 l-52 0 q-9 0 -9 -9 l0 -573 q0 -6 9 -6 l42 0 q9 0 9 6 l10 573 Z" /><glyph glyph-name="Oslash" unicode="ø" d="M184 710 q38 0 51 -4 l23 82 l37 -13 l-27 -102 l0 -673 l-179 0 l-23 -88 l-44 17 l28 102 l0 679 l134 0 ZM199 575 l2 74 q0 9 -9 9 l-72 0 q-9 0 -9 -9 l0 -396 l88 322 ZM111 81 l0 -4 q0 -6 9 -6 l62 0 q9 0 9 6 l5 327 l-85 -323 Z" /><glyph glyph-name="Oslashacute" unicode="&#x1fe;" d="M184 900 l46 -48 l-96 -84 l-34 24 l84 108 ZM184 710 q38 0 51 -4 l23 82 l37 -13 l-27 -102 l0 -673 l-179 0 l-23 -88 l-44 17 l28 102 l0 679 l134 0 ZM199 575 l2 74 q0 9 -9 9 l-72 0 q-9 0 -9 -9 l0 -396 l88 322 ZM111 81 l0 -4 q0 -6 9 -6 l62 0 q9 0 9 6 l5 327 l-85 -323 Z" /><glyph glyph-name="Otilde" unicode="õ" d="M119 896 q25 0 54 -20 l38 -25 l72 48 l0 -60 l-24 -23 q-10 -9 -22.5 -16 q-12.5 -7 -21.5 -7 q-18 0 -45 19 l-44 31 l-68 -53 l-3 69 l26 23 q17 14 38 14 ZM93 710 l135 0 l40 -28 l0 -646 l-63 -36 l-96 0 l-59 42 l0 636 l43 32 ZM201 649 q0 9 -9 9 l-52 0 q-9 0 -9 -9 l0 -573 q0 -6 9 -6 l42 0 q9 0 9 6 l10 573 Z" /><glyph glyph-name="OE" unicode="&#x152;" d="M93 710 l324 0 l0 -78 l-143 0 l0 -201 l109 0 l0 -50 l-104 -18 l0 -290 l135 18 l12 -81 l-158 -10 l-3 34 l-60 -34 l-96 0 l-59 42 l0 636 l43 32 ZM201 649 q0 9 -9 9 l-52 0 q-9 0 -9 -9 l0 -573 q0 -6 9 -6 l42 0 q9 0 9 6 l10 573 Z" /><glyph glyph-name="P" unicode="p" d="M174 710 q38 0 64 -14.5 q26 -14.5 26 -34.5 l0 -282 q0 -11 -7.5 -27.5 q-7.5 -16.5 -30.5 -31 q-23 -14.5 -65 -14.5 l-53 0 l0 -306 l-58 0 l0 669 l-22 12 l0 29 l146 0 ZM122 373 q0 -3 3.5 -5.5 q3.5 -2.5 8.5 -2.5 l43 10 q6 0 6 6 l10 252 q-1 13 -11 22.5 q-10 9.5 -31 9.5 l-17 0 q-12 0 -12 -7 l0 -285 Z" /><glyph glyph-name="Thorn" unicode="þ" d="M174 530 q38 0 64 -14.5 q26 -14.5 26 -34.5 l0 -222 q0 -11 -7.5 -27.5 q-7.5 -16.5 -30.5 -31 q-23 -14.5 -65 -14.5 l-53 0 l0 -186 l-58 0 l0 710 l51 0 l10 -180 l63 0 ZM122 245 q0 -3 3.5 -5.5 q3.5 -2.5 8.5 -2.5 l43 10 q6 0 6 6 l10 192 q-1 13 -11 22.5 q-10 9.5 -31 9.5 l-17 0 q-12 0 -12 -7 l0 -225 Z" /><glyph glyph-name="Q" unicode="q" d="M88 710 l140 0 l40 -37 l0 -643 l-55 0 l64 -154 l-50 -7 l-20 17 l-44 144 l-113 0 l0 634 l38 46 ZM201 639 q0 9 -9 9 l-62 0 q-9 0 -9 -9 l-10 -533 q0 -6 9 -6 l22 0 l-10 32 l36 9 l17 -41 q5 0 10.5 2 q5.5 2 5.5 4 l0 533 Z" /><glyph glyph-name="R" unicode="r" d="M108 0 l-58 0 l0 669 l-22 12 l0 29 l156 0 q38 0 63.5 -14.5 q25.5 -14.5 26.5 -34.5 l-10 -277 q0 -15 -13.5 -36.5 q-13.5 -21.5 -49.5 -31.5 l59 -110 l21 -206 l-73 -3 l-16 196 l-55 118 l-29 0 l0 -311 ZM122 383 q0 -3 3.5 -5.5 q3.5 -2.5 8.5 -2.5 l53 0 q6 0 6 6 l6 253 q0 14 -12.5 23.5 q-12.5 9.5 -52.5 9.5 q-12 -4 -12 -12 l0 -272 Z" /><glyph glyph-name="Racute" unicode="&#x154;" d="M188 899 l46 -48 l-96 -84 l-34 24 l84 108 ZM108 0 l-58 0 l0 669 l-22 12 l0 29 l156 0 q38 0 63.5 -14.5 q25.5 -14.5 26.5 -34.5 l-10 -277 q0 -15 -13.5 -36.5 q-13.5 -21.5 -49.5 -31.5 l59 -110 l21 -206 l-73 -3 l-16 196 l-55 118 l-29 0 l0 -311 ZM122 383 q0 -3 3.5 -5.5 q3.5 -2.5 8.5 -2.5 l53 0 q6 0 6 6 l6 253 q0 14 -12.5 23.5 q-12.5 9.5 -52.5 9.5 q-12 -4 -12 -12 l0 -272 Z" /><glyph glyph-name="Rcaron" unicode="&#x158;" d="M184 767 l-40 3 l-74 110 l29 19 l65 -62 l65 62 l29 -19 l-74 -113 ZM108 0 l-58 0 l0 669 l-22 12 l0 29 l156 0 q38 0 63.5 -14.5 q25.5 -14.5 26.5 -34.5 l-10 -277 q0 -15 -13.5 -36.5 q-13.5 -21.5 -49.5 -31.5 l59 -110 l21 -206 l-73 -3 l-16 196 l-55 118 l-29 0 l0 -311 ZM122 383 q0 -3 3.5 -5.5 q3.5 -2.5 8.5 -2.5 l53 0 q6 0 6 6 l6 253 q0 14 -12.5 23.5 q-12.5 9.5 -52.5 9.5 q-12 -4 -12 -12 l0 -272 Z" /><glyph glyph-name="Rcommaaccent" unicode="&#x156;" d="M108 0 l-58 0 l0 669 l-22 12 l0 29 l156 0 q38 0 63.5 -14.5 q25.5 -14.5 26.5 -34.5 l-10 -277 q0 -15 -13.5 -36.5 q-13.5 -21.5 -49.5 -31.5 l59 -110 l21 -206 l-73 -3 l-16 196 l-55 118 l-29 0 l0 -311 ZM122 383 q0 -3 3.5 -5.5 q3.5 -2.5 8.5 -2.5 l53 0 q6 0 6 6 l6 253 q0 14 -12.5 23.5 q-12.5 9.5 -52.5 9.5 q-12 -4 -12 -12 l0 -272 ZM109 -78 l81 0 l3 -82 l-33 -90 l-55 16 l46 74 l-42 0 l0 82 Z" /><glyph glyph-name="uni1E5A" unicode="&#x1e5a;" d="M108 0 l-58 0 l0 669 l-22 12 l0 29 l156 0 q38 0 63.5 -14.5 q25.5 -14.5 26.5 -34.5 l-10 -277 q0 -15 -13.5 -36.5 q-13.5 -21.5 -49.5 -31.5 l59 -110 l21 -206 l-73 -3 l-16 196 l-55 118 l-29 0 l0 -311 ZM122 383 q0 -3 3.5 -5.5 q3.5 -2.5 8.5 -2.5 l53 0 q6 0 6 6 l6 253 q0 14 -12.5 23.5 q-12.5 9.5 -52.5 9.5 q-12 -4 -12 -12 l0 -272 ZM110 -56 l93 0 l0 -95 l-89 -3 l-4 98 Z" /><glyph glyph-name="S" unicode="s" d="M120 421 l127 -33 l0 -328 q0 -21 -21 -40.5 q-21 -19.5 -43 -19.5 l-143 0 l0 68 l139 0 l-24 268 l-115 30 l0 297 q0 16 12.5 31.5 q12.5 15.5 27.5 15.5 l167 0 l0 -49 l-142 -19 l15 -221 Z" /><glyph glyph-name="Sacute" unicode="&#x15a;" d="M184 900 l46 -48 l-96 -84 l-34 24 l84 108 ZM120 421 l127 -33 l0 -328 q0 -21 -21 -40.5 q-21 -19.5 -43 -19.5 l-143 0 l0 68 l139 0 l-24 268 l-115 30 l0 297 q0 16 12.5 31.5 q12.5 15.5 27.5 15.5 l167 0 l0 -49 l-142 -19 l15 -221 Z" /><glyph glyph-name="Scaron" unicode="&#x160;" d="M174 768 l-40 3 l-74 110 l29 19 l65 -62 l65 62 l29 -19 l-74 -113 ZM120 421 l127 -33 l0 -328 q0 -21 -21 -40.5 q-21 -19.5 -43 -19.5 l-143 0 l0 68 l139 0 l-24 268 l-115 30 l0 297 q0 16 12.5 31.5 q12.5 15.5 27.5 15.5 l167 0 l0 -49 l-142 -19 l15 -221 Z" /><glyph glyph-name="Scedilla" unicode="&#x15e;" d="M120 421 l127 -33 l0 -328 q0 -21 -21 -40.5 q-21 -19.5 -43 -19.5 l-21 0 l-23 -45 l112 0 l-24 -103 q0 -21 -21 -40.5 q-21 -19.5 -43 -19.5 l-123 0 l0 58 l129 0 l10 53 l-105 8 l25 89 l-59 0 l0 68 l139 0 l-24 268 l-115 30 l0 297 q0 16 12.5 31.5 q12.5 15.5 27.5 15.5 l167 0 l0 -49 l-142 -19 l15 -221 Z" /><glyph glyph-name="Scircumflex" unicode="&#x15c;" d="M134 900 l40 -3 l74 -110 l-29 -19 l-65 62 l-65 -62 l-29 19 l74 113 ZM120 421 l127 -33 l0 -328 q0 -21 -21 -40.5 q-21 -19.5 -43 -19.5 l-143 0 l0 68 l139 0 l-24 268 l-115 30 l0 297 q0 16 12.5 31.5 q12.5 15.5 27.5 15.5 l167 0 l0 -49 l-142 -19 l15 -221 Z" /><glyph glyph-name="Scommaaccent" unicode="&#x218;" d="M120 421 l127 -33 l0 -328 q0 -21 -21 -40.5 q-21 -19.5 -43 -19.5 l-143 0 l0 68 l139 0 l-24 268 l-115 30 l0 297 q0 16 12.5 31.5 q12.5 15.5 27.5 15.5 l167 0 l0 -49 l-142 -19 l15 -221 ZM94 -78 l81 0 l3 -82 l-33 -90 l-55 16 l46 74 l-42 0 l0 82 Z" /><glyph glyph-name="uni1E62" unicode="&#x1e62;" d="M120 421 l127 -33 l0 -328 q0 -21 -21 -40.5 q-21 -19.5 -43 -19.5 l-143 0 l0 68 l139 0 l-24 268 l-115 30 l0 297 q0 16 12.5 31.5 q12.5 15.5 27.5 15.5 l167 0 l0 -49 l-142 -19 l15 -221 ZM90 -56 l93 0 l0 -95 l-89 -3 l-4 98 Z" /><glyph glyph-name="uni1E9E" unicode="&#x1e9e;" d="M364 345 l0 -265 l-74 -80 l-103 0 l-4 64 l103 14 l10 198 l-109 120 l-26 63 l73 169 l-32 22 l-86 -34 l21 -617 l-82 0 l0 641 l91 70 l185 0 l-103 -256 l1 -5 l135 -104 Z" /><glyph glyph-name="uni018F" unicode="&#x18f;" d="M236 362 l9 244 q-2 45 -42 45 l-134 0 l-6 59 l213 0 l36 -54 l0 -559 q0 -37 -15 -57 q-15 -20 -37 -20 l-210 0 l0 354 l186 -12 ZM206 92 q7 0 14 5.5 q7 5.5 7 12.5 l7 190 l-131 0 l10 -196 q0 -5 6.5 -8.5 q6.5 -3.5 13.5 -3.5 l73 0 Z" /><glyph glyph-name="T" unicode="t" d="M250 653 l-72 0 l0 -633 l-84 0 l0 640 l-69 12 l10 38 l215 0 l0 -57 Z" /><glyph glyph-name="Tbar" unicode="&#x166;" d="M94 492 l0 158 l-89 12 l10 48 l255 0 l0 -67 l-92 0 l0 -151 l94 0 l0 -55 l-94 -3 l0 -414 l-84 0 l0 411 l-87 -3 l-3 64 l90 0 Z" /><glyph glyph-name="Tcaron" unicode="&#x164;" d="M159 768 l-40 3 l-74 110 l29 19 l65 -62 l65 62 l29 -19 l-74 -113 ZM250 653 l-72 0 l0 -633 l-84 0 l0 640 l-69 12 l10 38 l215 0 l0 -57 Z" /><glyph glyph-name="uni0162" unicode="&#x162;" d="M178 653 l0 -633 l-16 0 l-34 -65 l112 0 l-24 -103 q0 -21 -21 -40.5 q-21 -19.5 -43 -19.5 l-123 0 l0 58 l129 0 l10 53 l-105 8 l31 110 l0 639 l-69 12 l10 38 l215 0 l0 -57 l-72 0 Z" /><glyph glyph-name="uni021A" unicode="&#x21a;" d="M250 653 l-72 0 l0 -633 l-84 0 l0 640 l-69 12 l10 38 l215 0 l0 -57 ZM95 -78 l81 0 l3 -82 l-33 -90 l-55 16 l46 74 l-42 0 l0 82 Z" /><glyph glyph-name="uni1E6C" unicode="&#x1e6c;" d="M250 653 l-72 0 l0 -633 l-84 0 l0 640 l-69 12 l10 38 l215 0 l0 -57 ZM86 -56 l93 0 l0 -95 l-89 -3 l-4 98 Z" /><glyph glyph-name="U" unicode="u" d="M260 40 q0 -14 -14.5 -27 q-14.5 -13 -28.5 -13 l-167 0 l0 687 l60 0 l0 -618 l87 -6 l-21 647 l85 0 l-1 -670 Z" /><glyph glyph-name="Uacute" unicode="ú" d="M194 900 l46 -48 l-96 -84 l-34 24 l84 108 ZM260 40 q0 -14 -14.5 -27 q-14.5 -13 -28.5 -13 l-167 0 l0 687 l60 0 l0 -618 l87 -6 l-21 647 l85 0 l-1 -670 Z" /><glyph glyph-name="Ubreve" unicode="&#x16c;" d="M98 894 l-5 -48 l12 -11 l110 -5 l-3 66 l46 4 l0 -76 l-39 -39 l-125 0 l-45 28 l-4 81 l53 0 ZM260 40 q0 -14 -14.5 -27 q-14.5 -13 -28.5 -13 l-167 0 l0 687 l60 0 l0 -618 l87 -6 l-21 647 l85 0 l-1 -670 Z" /><glyph glyph-name="Ucircumflex" unicode="û" d="M138 900 l40 -3 l74 -110 l-29 -19 l-65 62 l-65 -62 l-29 19 l74 113 ZM260 40 q0 -14 -14.5 -27 q-14.5 -13 -28.5 -13 l-167 0 l0 687 l60 0 l0 -618 l87 -6 l-21 647 l85 0 l-1 -670 Z" /><glyph glyph-name="Udieresis" unicode="ü" d="M40 897 l83 3 l-4 -83 l-79 0 l0 80 ZM190 900 l79 0 l0 -80 l-76 -3 l-3 83 ZM260 40 q0 -14 -14.5 -27 q-14.5 -13 -28.5 -13 l-167 0 l0 687 l60 0 l0 -618 l87 -6 l-21 647 l85 0 l-1 -670 Z" /><glyph glyph-name="uni1EE4" unicode="&#x1ee4;" d="M260 40 q0 -14 -14.5 -27 q-14.5 -13 -28.5 -13 l-167 0 l0 687 l60 0 l0 -618 l87 -6 l-21 647 l85 0 l-1 -670 ZM102 -56 l93 0 l0 -95 l-89 -3 l-4 98 Z" /><glyph glyph-name="Ugrave" unicode="ù" d="M210 792 l-34 -24 l-96 84 l46 48 l84 -108 ZM260 40 q0 -14 -14.5 -27 q-14.5 -13 -28.5 -13 l-167 0 l0 687 l60 0 l0 -618 l87 -6 l-21 647 l85 0 l-1 -670 Z" /><glyph glyph-name="Uhungarumlaut" unicode="&#x170;" d="M124 900 l46 -48 l-96 -84 l-34 24 l84 108 ZM254 900 l46 -48 l-96 -84 l-34 24 l84 108 ZM260 40 q0 -14 -14.5 -27 q-14.5 -13 -28.5 -13 l-167 0 l0 687 l60 0 l0 -618 l87 -6 l-21 647 l85 0 l-1 -670 Z" /><glyph glyph-name="Umacron" unicode="&#x16a;" d="M293 891 l0 -55 l-265 -9 l-3 64 l268 0 ZM260 40 q0 -14 -14.5 -27 q-14.5 -13 -28.5 -13 l-167 0 l0 687 l60 0 l0 -618 l87 -6 l-21 647 l85 0 l-1 -670 Z" /><glyph glyph-name="Uogonek" unicode="&#x172;" d="M260 40 q0 -14 -14.5 -27 q-14.5 -13 -28.5 -13 l-35 0 l-26 -83 l34 -62 l89 45 l16 -46 l-113 -63 l-88 114 l48 95 l-92 0 l0 687 l60 0 l0 -618 l87 -6 l-21 647 l85 0 l-1 -670 Z" /><glyph glyph-name="Uring" unicode="&#x16e;" d="M227 900 l0 -109 l-25 -26 l-114 0 l0 135 l139 0 ZM178 800 q7 0 7 6 l0 56 q0 3 -6 6 l-40 5 q-8 0 -8 -3 l0 -66 q0 -4 6 -4 l41 0 ZM260 40 q0 -14 -14.5 -27 q-14.5 -13 -28.5 -13 l-167 0 l0 687 l60 0 l0 -618 l87 -6 l-21 647 l85 0 l-1 -670 Z" /><glyph glyph-name="Utilde" unicode="&#x168;" d="M104 897 q25 0 54 -20 l38 -25 l72 48 l0 -60 l-24 -23 q-10 -9 -22.5 -16 q-12.5 -7 -21.5 -7 q-18 0 -45 19 l-44 31 l-68 -53 l-3 69 l26 23 q17 14 38 14 ZM260 40 q0 -14 -14.5 -27 q-14.5 -13 -28.5 -13 l-167 0 l0 687 l60 0 l0 -618 l87 -6 l-21 647 l85 0 l-1 -670 Z" /><glyph glyph-name="V" unicode="v" d="M123 -10 l-116 720 l79 0 l71 -632 l4 0 l48 632 l65 0 l-85 -710 l-66 -10 Z" /><glyph glyph-name="W" unicode="w" d="M327 710 l-36 -710 l-63 0 l-61 417 l-4 0 l-61 -417 l-55 0 l-39 710 l73 0 l0 -624 l4 0 l57 512 l43 0 l67 -512 l5 0 l0 624 l70 0 Z" /><glyph glyph-name="Wacute" unicode="&#x1e82;" d="M191 900 l46 -48 l-96 -84 l-34 24 l84 108 ZM327 710 l-36 -710 l-63 0 l-61 417 l-4 0 l-61 -417 l-55 0 l-39 710 l73 0 l0 -624 l4 0 l57 512 l43 0 l67 -512 l5 0 l0 624 l70 0 Z" /><glyph glyph-name="Wcircumflex" unicode="&#x174;" d="M154 900 l40 -3 l74 -110 l-29 -19 l-65 62 l-65 -62 l-29 19 l74 113 ZM327 710 l-36 -710 l-63 0 l-61 417 l-4 0 l-61 -417 l-55 0 l-39 710 l73 0 l0 -624 l4 0 l57 512 l43 0 l67 -512 l5 0 l0 624 l70 0 Z" /><glyph glyph-name="Wdieresis" unicode="&#x1e84;" d="M50 895 l83 3 l-4 -83 l-79 0 l0 80 ZM200 898 l79 0 l0 -80 l-76 -3 l-3 83 ZM327 710 l-36 -710 l-63 0 l-61 417 l-4 0 l-61 -417 l-55 0 l-39 710 l73 0 l0 -624 l4 0 l57 512 l43 0 l67 -512 l5 0 l0 624 l70 0 Z" /><glyph glyph-name="Wgrave" unicode="&#x1e80;" d="M220 792 l-34 -24 l-96 84 l46 48 l84 -108 ZM327 710 l-36 -710 l-63 0 l-61 417 l-4 0 l-61 -417 l-55 0 l-39 710 l73 0 l0 -624 l4 0 l57 512 l43 0 l67 -512 l5 0 l0 624 l70 0 Z" /><glyph glyph-name="X" unicode="x" d="M51 293 l71 71 l-105 346 l82 0 l72 -324 l20 32 l30 292 l74 0 l-30 -308 l-68 -68 l85 -289 l13 -15 l0 -30 l-73 0 l0 55 l-75 245 l-28 -37 l-9 -263 l-87 0 l28 293 Z" /><glyph glyph-name="Y" unicode="y" d="M164 -20 l-67 0 l0 373 l-67 119 l0 238 l64 0 l13 -279 l36 -3 l18 282 l56 0 l0 -259 l-53 -62 l0 -409 Z" /><glyph glyph-name="Yacute" unicode="ý" d="M162 900 l46 -48 l-96 -84 l-34 24 l84 108 ZM164 389 l53 62 l0 259 l-56 0 l-18 -282 l-36 3 l-13 279 l-64 0 l0 -238 l67 -119 l0 -373 l67 0 l0 409 Z" /><glyph glyph-name="Ycircumflex" unicode="&#x176;" d="M109 900 l40 -3 l74 -110 l-29 -19 l-65 62 l-65 -62 l-29 19 l74 113 ZM164 -20 l-67 0 l0 373 l-67 119 l0 238 l64 0 l13 -279 l36 -3 l18 282 l56 0 l0 -259 l-53 -62 l0 -409 Z" /><glyph glyph-name="Ydieresis" unicode="&#x178;" d="M10 895 l83 3 l-4 -83 l-79 0 l0 80 ZM160 898 l79 0 l0 -80 l-76 -3 l-3 83 ZM164 389 l53 62 l0 259 l-56 0 l-18 -282 l-36 3 l-13 279 l-64 0 l0 -238 l67 -119 l0 -373 l67 0 l0 409 Z" /><glyph glyph-name="Ygrave" unicode="&#x1ef2;" d="M190 792 l-34 -24 l-96 84 l46 48 l84 -108 ZM164 -20 l-67 0 l0 373 l-67 119 l0 238 l64 0 l13 -279 l36 -3 l18 282 l56 0 l0 -259 l-53 -62 l0 -409 Z" /><glyph glyph-name="uni1EF8" unicode="&#x1ef8;" d="M74 897 q25 0 54 -20 l38 -25 l72 48 l0 -60 l-24 -23 q-10 -9 -22.5 -16 q-12.5 -7 -21.5 -7 q-18 0 -45 19 l-44 31 l-68 -53 l-3 69 l26 23 q17 14 38 14 ZM164 389 l53 62 l0 259 l-56 0 l-18 -282 l-36 3 l-13 279 l-64 0 l0 -238 l67 -119 l0 -373 l67 0 l0 409 Z" /><glyph glyph-name="Z" unicode="z" d="M48 0 l-18 22 l34 66 l118 550 l-136 32 l0 40 l195 0 l31 -31 l-142 -595 l134 -19 l8 -65 l-224 0 Z" /><glyph glyph-name="Zacute" unicode="&#x179;" d="M189 900 l46 -48 l-96 -84 l-34 24 l84 108 ZM272 0 l-8 65 l-134 19 l142 595 l-31 31 l-195 0 l0 -40 l136 -32 l-118 -550 l-34 -66 l18 -22 l224 0 Z" /><glyph glyph-name="Zcaron" unicode="&#x17d;" d="M179 768 l-40 3 l-74 110 l29 19 l65 -62 l65 62 l29 -19 l-74 -113 ZM48 0 l-18 22 l34 66 l118 550 l-136 32 l0 40 l195 0 l31 -31 l-142 -595 l134 -19 l8 -65 l-224 0 Z" /><glyph glyph-name="Zdotaccent" unicode="&#x17b;" d="M108 900 l93 0 l0 -95 l-89 -3 l-4 98 ZM272 0 l-8 65 l-134 19 l142 595 l-31 31 l-195 0 l0 -40 l136 -32 l-118 -550 l-34 -66 l18 -22 l224 0 Z" /><glyph glyph-name="uni1E92" unicode="&#x1e92;" d="M48 0 l-18 22 l34 66 l118 550 l-136 32 l0 40 l195 0 l31 -31 l-142 -595 l134 -19 l8 -65 l-224 0 ZM110 -56 l93 0 l0 -95 l-89 -3 l-4 98 Z" /><glyph glyph-name="a" unicode="a" d="M275 0 l-44 0 l-36 266 l-80 -38 l-22 -228 l-62 0 l45 710 l158 0 l41 -710 ZM182 662 q0 6 -6 6 l-43 -10 q-6 -3 -6 -10 l0 -352 q0 -5 6 -5 l37 6 q6 0 6 6 l6 359 Z" /><glyph glyph-name="aacute" unicode="á" d="M183 900 l46 -48 l-96 -84 l-34 24 l84 108 ZM275 0 l-44 0 l-36 266 l-80 -38 l-22 -228 l-62 0 l45 710 l158 0 l41 -710 ZM182 662 q0 6 -6 6 l-43 -10 q-6 -3 -6 -10 l0 -352 q0 -5 6 -5 l37 6 q6 0 6 6 l6 359 Z" /><glyph glyph-name="abreve" unicode="&#x103;" d="M103 894 l-5 -48 l12 -11 l110 -5 l-3 66 l46 4 l0 -76 l-39 -39 l-125 0 l-45 28 l-4 81 l53 0 ZM275 0 l-44 0 l-36 266 l-80 -38 l-22 -228 l-62 0 l45 710 l158 0 l41 -710 ZM182 662 q0 6 -6 6 l-43 -10 q-6 -3 -6 -10 l0 -352 q0 -5 6 -5 l37 6 q6 0 6 6 l6 359 Z" /><glyph glyph-name="acircumflex" unicode="â" d="M139 900 l40 -3 l74 -110 l-29 -19 l-65 62 l-65 -62 l-29 19 l74 113 ZM275 0 l-44 0 l-36 266 l-80 -38 l-22 -228 l-62 0 l45 710 l158 0 l41 -710 ZM182 662 q0 6 -6 6 l-43 -10 q-6 -3 -6 -10 l0 -352 q0 -5 6 -5 l37 6 q6 0 6 6 l6 359 Z" /><glyph glyph-name="adieresis" unicode="ä" d="M39 895 l83 3 l-4 -83 l-79 0 l0 80 ZM189 898 l79 0 l0 -80 l-76 -3 l-3 83 ZM275 0 l-44 0 l-36 266 l-80 -38 l-22 -228 l-62 0 l45 710 l158 0 l41 -710 ZM182 662 q0 6 -6 6 l-43 -10 q-6 -3 -6 -10 l0 -352 q0 -5 6 -5 l37 6 q6 0 6 6 l6 359 Z" /><glyph glyph-name="agrave" unicode="à" d="M219 792 l-34 -24 l-96 84 l46 48 l84 -108 ZM275 0 l-44 0 l-36 266 l-80 -38 l-22 -228 l-62 0 l45 710 l158 0 l41 -710 ZM182 662 q0 6 -6 6 l-43 -10 q-6 -3 -6 -10 l0 -352 q0 -5 6 -5 l37 6 q6 0 6 6 l6 359 Z" /><glyph glyph-name="amacron" unicode="&#x101;" d="M288 891 l0 -55 l-265 -9 l-3 64 l268 0 ZM275 0 l-44 0 l-36 266 l-80 -38 l-22 -228 l-62 0 l45 710 l158 0 l41 -710 ZM182 662 q0 6 -6 6 l-43 -10 q-6 -3 -6 -10 l0 -352 q0 -5 6 -5 l37 6 q6 0 6 6 l6 359 Z" /><glyph glyph-name="aogonek" unicode="&#x105;" d="M275 0 l-4 0 l-26 -83 l34 -62 l89 45 l16 -46 l-113 -63 l-88 114 l48 95 l-36 266 l-80 -38 l-22 -228 l-62 0 l45 710 l158 0 l41 -710 ZM182 662 q0 6 -6 6 l-43 -10 q-6 -3 -6 -10 l0 -352 q0 -5 6 -5 l37 6 q6 0 6 6 l6 359 Z" /><glyph glyph-name="aring" unicode="å" d="M232 900 l0 -109 l-25 -26 l-114 0 l0 135 l139 0 ZM183 800 q7 0 7 6 l0 56 q0 3 -6 6 l-40 5 q-8 0 -8 -3 l0 -66 q0 -4 6 -4 l41 0 ZM275 0 l-44 0 l-36 266 l-80 -38 l-22 -228 l-62 0 l45 710 l158 0 l41 -710 ZM182 662 q0 6 -6 6 l-43 -10 q-6 -3 -6 -10 l0 -352 q0 -5 6 -5 l37 6 q6 0 6 6 l6 359 Z" /><glyph glyph-name="aringacute" unicode="&#x1fb;" d="M221 900 l9 -55 l-126 -22 l-16 38 l133 39 ZM223 810 l0 -100 l11 0 l41 -710 l-44 0 l-36 266 l-80 -38 l-22 -228 l-62 0 l45 710 l8 0 l0 100 l139 0 ZM174 710 q7 0 7 6 l0 56 q0 3 -6 6 l-40 5 q-8 0 -8 -3 l0 -66 q0 -4 3 -4 l44 0 ZM182 662 q0 6 -6 6 l-43 -10 q-6 -3 -6 -10 l0 -352 q0 -5 6 -5 l37 6 q6 0 6 6 l6 359 Z" /><glyph glyph-name="atilde" unicode="ã" d="M104 897 q25 0 54 -20 l38 -25 l72 48 l0 -60 l-24 -23 q-10 -9 -22.5 -16 q-12.5 -7 -21.5 -7 q-18 0 -45 19 l-44 31 l-68 -53 l-3 69 l26 23 q17 14 38 14 ZM275 0 l-44 0 l-36 266 l-80 -38 l-22 -228 l-62 0 l45 710 l158 0 l41 -710 ZM182 662 q0 6 -6 6 l-43 -10 q-6 -3 -6 -10 l0 -352 q0 -5 6 -5 l37 6 q6 0 6 6 l6 359 Z" /><glyph glyph-name="ae" unicode="æ" d="M445 0 l-214 0 l0 268 l-86 -40 l-52 -228 l-62 0 l85 710 l329 0 l0 -62 l-159 6 l0 -227 l159 -23 l0 -48 l-142 6 l0 -287 l142 8 l0 -83 ZM212 662 q0 6 -6 6 l-43 -10 q-6 -3 -6 -10 l0 -338 q0 -5 6 -5 l33 0 q6 0 6 6 l10 351 Z" /><glyph glyph-name="aeacute" unicode="&#x1fd;" d="M297 900 l46 -48 l-96 -84 l-34 24 l84 108 ZM445 0 l-214 0 l0 268 l-86 -40 l-52 -228 l-62 0 l85 710 l329 0 l0 -62 l-159 6 l0 -227 l159 -23 l0 -48 l-142 6 l0 -287 l142 8 l0 -83 ZM212 662 q0 6 -6 6 l-43 -10 q-6 -3 -6 -10 l0 -338 q0 -5 6 -5 l33 0 q6 0 6 6 l10 351 Z" /><glyph glyph-name="b" unicode="b" d="M240 364 q20 -5 40.5 -27 q20.5 -22 20.5 -55 l-20 -252 q0 -18 -33.5 -24 q-33.5 -6 -61.5 -6 l-136 0 l0 710 l133 0 q35 0 66.5 -17 q31.5 -17 31.5 -45 l0 -201 l-41 -83 ZM113 405 q0 -8 12 -8 l72 0 q3 0 7 4 q1 1 2 5 l9 239 q0 4 -14 4 l-88 -4 l0 -240 ZM136 56 q82 30 82 54 q0 6 -2 6 l0 205 q3 2 3 3 q0 3 -7 3 l-76 10 q-3 0 -6.5 -2 q-3.5 -2 -4.5 -4 l0 -272 l11 -3 Z" /><glyph glyph-name="c" unicode="c" d="M296 20 l-213 0 l-41 42 l20 591 q1 22 18.5 39.5 q17.5 17.5 48.5 17.5 l13 -1 l154 -20 l-16 -161 l-46 0 l0 93 q0 9 -12 9 l-62 0 q-19 0 -27.5 -15.5 q-8.5 -15.5 -8.5 -34.5 q0 -11 3 -13 l0 -468 q-3 -1 -3 -3 q0 -3 9 -3 l99 0 q12 0 12 6 l0 75 l19 12 l33 1 l0 -167 Z" /><glyph glyph-name="cacute" unicode="&#x107;" d="M241 900 l46 -48 l-96 -84 l-34 24 l84 108 ZM296 20 l-213 0 l-41 42 l20 591 q1 22 18.5 39.5 q17.5 17.5 48.5 17.5 l13 -1 l154 -20 l-16 -161 l-46 0 l0 93 q0 9 -12 9 l-62 0 q-19 0 -27.5 -15.5 q-8.5 -15.5 -8.5 -34.5 q0 -11 3 -13 l0 -468 q-3 -1 -3 -3 q0 -3 9 -3 l99 0 q12 0 12 6 l0 75 l19 12 l33 1 l0 -167 Z" /><glyph glyph-name="ccaron" unicode="&#x10d;" d="M225 768 l-40 3 l-74 110 l29 19 l65 -62 l65 62 l29 -19 l-74 -113 ZM296 20 l-213 0 l-41 42 l20 591 q1 22 18.5 39.5 q17.5 17.5 48.5 17.5 l13 -1 l154 -20 l-16 -161 l-46 0 l0 93 q0 9 -12 9 l-62 0 q-19 0 -27.5 -15.5 q-8.5 -15.5 -8.5 -34.5 q0 -11 3 -13 l0 -468 q-3 -1 -3 -3 q0 -3 9 -3 l99 0 q12 0 12 6 l0 75 l19 12 l33 1 l0 -167 Z" /><glyph glyph-name="ccedilla" unicode="ç" d="M296 20 l-101 0 l-34 -65 l112 0 l-24 -103 q0 -21 -21 -40.5 q-21 -19.5 -43 -19.5 l-123 0 l0 58 l129 0 l10 53 l-105 8 l30 109 l-43 0 l-41 42 l20 591 q1 22 18.5 39.5 q17.5 17.5 48.5 17.5 l13 -1 l154 -20 l-16 -161 l-46 0 l0 93 q0 9 -12 9 l-62 0 q-19 0 -27.5 -15.5 q-8.5 -15.5 -8.5 -34.5 q0 -11 3 -13 l0 -468 q-3 -1 -3 -3 q0 -3 9 -3 l99 0 q12 0 12 6 l0 75 l19 12 l33 1 l0 -167 Z" /><glyph glyph-name="ccircumflex" unicode="&#x109;" d="M185 900 l40 -3 l74 -110 l-29 -19 l-65 62 l-65 -62 l-29 19 l74 113 ZM296 20 l-213 0 l-41 42 l20 591 q1 22 18.5 39.5 q17.5 17.5 48.5 17.5 l13 -1 l154 -20 l-16 -161 l-46 0 l0 93 q0 9 -12 9 l-62 0 q-19 0 -27.5 -15.5 q-8.5 -15.5 -8.5 -34.5 q0 -11 3 -13 l0 -468 q-3 -1 -3 -3 q0 -3 9 -3 l99 0 q12 0 12 6 l0 75 l19 12 l33 1 l0 -167 Z" /><glyph glyph-name="cdotaccent" unicode="&#x10b;" d="M162 900 l93 0 l0 -95 l-89 -3 l-4 98 ZM296 20 l-213 0 l-41 42 l20 591 q1 22 18.5 39.5 q17.5 17.5 48.5 17.5 l13 -1 l154 -20 l-16 -161 l-46 0 l0 93 q0 9 -12 9 l-62 0 q-19 0 -27.5 -15.5 q-8.5 -15.5 -8.5 -34.5 q0 -11 3 -13 l0 -468 q-3 -1 -3 -3 q0 -3 9 -3 l99 0 q12 0 12 6 l0 75 l19 12 l33 1 l0 -167 Z" /><glyph glyph-name="d" unicode="d" d="M283 678 l0 -622 q0 -33 -21 -44.5 q-21 -11.5 -38 -11.5 l-168 0 l0 56 l6 28 l-21 626 l165 0 l77 -32 ZM168 69 q15 0 23 12 q8 12 10 50 l20 507 q0 6 -2 7.5 q-2 1.5 -7 1.5 l-76 0 q-9 0 -9 -9 l0 -560 q0 -9 9 -9 l32 0 Z" /><glyph glyph-name="dcaron" unicode="&#x10f;" d="M225 768 l-40 3 l-74 110 l29 19 l65 -62 l65 62 l29 -19 l-74 -113 ZM283 678 l0 -622 q0 -33 -21 -44.5 q-21 -11.5 -38 -11.5 l-168 0 l0 56 l6 28 l-21 626 l165 0 l77 -32 ZM168 69 q15 0 23 12 q8 12 10 50 l20 507 q0 6 -2 7.5 q-2 1.5 -7 1.5 l-76 0 q-9 0 -9 -9 l0 -560 q0 -9 9 -9 l32 0 Z" /><glyph glyph-name="dcroat" unicode="&#x111;" d="M283 678 l0 -622 q0 -33 -21 -44.5 q-21 -11.5 -38 -11.5 l-168 0 l0 56 l6 28 l-9 254 l-42 0 l-3 58 l43 -3 l-10 317 l165 0 l77 -32 ZM168 69 q15 0 23 12 q8 12 10 50 l20 507 q0 6 -2 7.5 q-2 1.5 -7 1.5 l-76 0 q-9 0 -9 -9 l0 -249 l49 -2 l0 -49 l-49 0 l0 -260 q0 -9 9 -9 l32 0 Z" /><glyph glyph-name="uni1E0D" unicode="&#x1e0d;" d="M283 678 l0 -622 q0 -33 -21 -44.5 q-21 -11.5 -38 -11.5 l-168 0 l0 56 l6 28 l-21 626 l165 0 l77 -32 ZM168 69 q15 0 23 12 q8 12 10 50 l20 507 q0 6 -2 7.5 q-2 1.5 -7 1.5 l-76 0 q-9 0 -9 -9 l0 -560 q0 -9 9 -9 l32 0 ZM113 -56 l93 0 l0 -95 l-89 -3 l-4 98 Z" /><glyph glyph-name="uni01F3" unicode="&#x1f3;" d="M283 678 l0 -622 q0 -33 -21 -44.5 q-21 -11.5 -38 -11.5 l-168 0 l0 56 l6 28 l-21 626 l165 0 l77 -32 ZM600 0 l0 47 l-134 9 l114 654 l-206 0 l0 -64 l128 16 l-144 -629 l18 -33 l224 0 ZM168 69 q15 0 23 12 q8 12 10 50 l20 507 q0 6 -2 7.5 q-2 1.5 -7 1.5 l-76 0 q-9 0 -9 -9 l0 -560 q0 -9 9 -9 l32 0 Z" /><glyph glyph-name="uni01C6" unicode="&#x1c6;" d="M483 768 l-40 3 l-74 110 l29 19 l65 -62 l65 62 l29 -19 l-74 -113 ZM165 710 q48 0 78.5 -31 q30.5 -31 30.5 -79 l-30 -543 l-61 -57 l-133 0 l0 710 l115 0 ZM355 0 l-18 33 l144 629 l-128 -16 l0 64 l206 0 l-114 -654 l134 -9 l0 -47 l-224 0 ZM188 638 q0 6 -12 6 l-45 0 q-3 0 -6 -2 q-3 -2 -3 -4 l0 -566 l9 -6 l37 5 q9 6 9 13 l11 554 Z" /><glyph glyph-name="e" unicode="e" d="M269 0 l-214 0 l0 710 l214 0 l0 -62 l-125 6 l0 -227 l125 -23 l0 -48 l-142 6 l0 -287 l142 8 l0 -83 Z" /><glyph glyph-name="eacute" unicode="é" d="M206 900 l46 -48 l-96 -84 l-34 24 l84 108 ZM269 0 l-214 0 l0 710 l214 0 l0 -62 l-125 6 l0 -227 l125 -23 l0 -48 l-142 6 l0 -287 l142 8 l0 -83 Z" /><glyph glyph-name="ebreve" unicode="&#x115;" d="M115 894 l-5 -48 l12 -11 l110 -5 l-3 66 l46 4 l0 -76 l-39 -39 l-125 0 l-45 28 l-4 81 l53 0 ZM269 0 l-214 0 l0 710 l214 0 l0 -62 l-125 6 l0 -227 l125 -23 l0 -48 l-142 6 l0 -287 l142 8 l0 -83 Z" /><glyph glyph-name="ecaron" unicode="&#x11b;" d="M193 768 l-40 3 l-74 110 l29 19 l65 -62 l65 62 l29 -19 l-74 -113 ZM269 0 l-214 0 l0 710 l214 0 l0 -62 l-125 6 l0 -227 l125 -23 l0 -48 l-142 6 l0 -287 l142 8 l0 -83 Z" /><glyph glyph-name="ecircumflex" unicode="ê" d="M145 900 l40 -3 l74 -110 l-29 -19 l-65 62 l-65 -62 l-29 19 l74 113 ZM269 0 l-214 0 l0 710 l214 0 l0 -62 l-125 6 l0 -227 l125 -23 l0 -48 l-142 6 l0 -287 l142 8 l0 -83 Z" /><glyph glyph-name="edieresis" unicode="ë" d="M50 895 l83 3 l-4 -83 l-79 0 l0 80 ZM200 898 l79 0 l0 -80 l-76 -3 l-3 83 ZM269 0 l-214 0 l0 710 l214 0 l0 -62 l-125 6 l0 -227 l125 -23 l0 -48 l-142 6 l0 -287 l142 8 l0 -83 Z" /><glyph glyph-name="edotaccent" unicode="&#x117;" d="M126 900 l93 0 l0 -95 l-89 -3 l-4 98 ZM269 0 l-214 0 l0 710 l214 0 l0 -62 l-125 6 l0 -227 l125 -23 l0 -48 l-142 6 l0 -287 l142 8 l0 -83 Z" /><glyph glyph-name="uni1EB9" unicode="&#x1eb9;" d="M269 0 l-214 0 l0 710 l214 0 l0 -62 l-125 6 l0 -227 l125 -23 l0 -48 l-142 6 l0 -287 l142 8 l0 -83 ZM111 -56 l93 0 l0 -95 l-89 -3 l-4 98 Z" /><glyph glyph-name="egrave" unicode="è" d="M207 792 l-34 -24 l-96 84 l46 48 l84 -108 ZM269 0 l-214 0 l0 710 l214 0 l0 -62 l-125 6 l0 -227 l125 -23 l0 -48 l-142 6 l0 -287 l142 8 l0 -83 Z" /><glyph glyph-name="emacron" unicode="&#x113;" d="M299 891 l0 -55 l-265 -9 l-3 64 l268 0 ZM269 0 l-214 0 l0 710 l214 0 l0 -62 l-125 6 l0 -227 l125 -23 l0 -48 l-142 6 l0 -287 l142 8 l0 -83 Z" /><glyph glyph-name="eogonek" unicode="&#x119;" d="M269 0 l-103 0 l-26 -83 l34 -62 l89 45 l16 -46 l-113 -63 l-88 114 l48 95 l-71 0 l0 710 l214 0 l0 -62 l-125 6 l0 -227 l125 -23 l0 -48 l-142 6 l0 -287 l142 8 l0 -83 Z" /><glyph glyph-name="uni1EBD" unicode="&#x1ebd;" d="M122 897 q25 0 54 -20 l38 -25 l72 48 l0 -60 l-24 -23 q-10 -9 -22.5 -16 q-12.5 -7 -21.5 -7 q-18 0 -45 19 l-44 31 l-68 -53 l-3 69 l26 23 q17 14 38 14 ZM269 0 l-214 0 l0 710 l214 0 l0 -62 l-125 6 l0 -227 l125 -23 l0 -48 l-142 6 l0 -287 l142 8 l0 -83 Z" /><glyph glyph-name="uni0259" unicode="&#x259;" d="M219 630 l-174 38 l0 42 l200 0 q21 0 34.5 -15 q13.5 -15 14.5 -39 l-22 -656 l-150 0 q-28 0 -49 16 q-21 16 -21 42 l0 329 l159 0 l8 243 ZM181 94 q7 0 14 5.5 q7 5.5 7 12.5 l7 217 l-94 -12 l0 -211 q0 -5 6.5 -8.5 q6.5 -3.5 13.5 -3.5 l46 0 Z" /><glyph glyph-name="f" unicode="f" d="M55 -20 l0 730 l214 -20 l0 -62 l-135 -12 l0 -169 l135 0 l0 -58 l-152 -17 l20 -392 l-82 0 Z" /><glyph glyph-name="g" unicode="g" d="M282 277 l0 -219 q0 -26 -21 -42 q-21 -16 -49 -16 l-150 0 l-22 656 q1 24 14.5 39 q13.5 15 34.5 15 l200 0 l0 -42 l-18 -109 l-44 0 l0 96 l-112 -25 l17 -518 q0 -7 7 -12.5 q7 -5.5 14 -5.5 l46 0 q7 0 13.5 3.5 q6.5 3.5 6.5 8.5 l0 237 l102 -10 l0 -39 l-39 -17 Z" /><glyph glyph-name="gbreve" unicode="&#x11f;" d="M129 894 l-5 -48 l12 -11 l110 -5 l-3 66 l46 4 l0 -76 l-39 -39 l-125 0 l-45 28 l-4 81 l53 0 ZM282 277 l0 -219 q0 -26 -21 -42 q-21 -16 -49 -16 l-150 0 l-22 656 q1 24 14.5 39 q13.5 15 34.5 15 l200 0 l0 -42 l-18 -109 l-44 0 l0 96 l-112 -25 l17 -518 q0 -7 7 -12.5 q7 -5.5 14 -5.5 l46 0 q7 0 13.5 3.5 q6.5 3.5 6.5 8.5 l0 237 l102 -10 l0 -39 l-39 -17 Z" /><glyph glyph-name="gcircumflex" unicode="&#x11d;" d="M158 900 l40 -3 l74 -110 l-29 -19 l-65 62 l-65 -62 l-29 19 l74 113 ZM282 277 l0 -219 q0 -26 -21 -42 q-21 -16 -49 -16 l-150 0 l-22 656 q1 24 14.5 39 q13.5 15 34.5 15 l200 0 l0 -42 l-18 -109 l-44 0 l0 96 l-112 -25 l17 -518 q0 -7 7 -12.5 q7 -5.5 14 -5.5 l46 0 q7 0 13.5 3.5 q6.5 3.5 6.5 8.5 l0 237 l102 -10 l0 -39 l-39 -17 Z" /><glyph glyph-name="gcommaaccent" unicode="&#x123;" d="M282 277 l0 -219 q0 -26 -21 -42 q-21 -16 -49 -16 l-150 0 l-22 636 q1 24 14.5 39 q13.5 15 34.5 15 l200 0 l0 -42 l-18 -109 l-44 0 l0 96 l-112 -25 l17 -498 q0 -7 7 -12.5 q7 -5.5 14 -5.5 l46 0 q7 0 13.5 3.5 q6.5 3.5 6.5 8.5 l0 237 l102 -10 l0 -39 l-39 -17 ZM148 -78 l81 0 l3 -82 l-33 -90 l-55 16 l46 74 l-42 0 l0 82 Z" /><glyph glyph-name="gdotaccent" unicode="&#x121;" d="M138 900 l93 0 l0 -95 l-89 -3 l-4 98 ZM282 277 l0 -219 q0 -26 -21 -42 q-21 -16 -49 -16 l-150 0 l-22 656 q1 24 14.5 39 q13.5 15 34.5 15 l200 0 l0 -42 l-18 -109 l-44 0 l0 96 l-112 -25 l17 -518 q0 -7 7 -12.5 q7 -5.5 14 -5.5 l46 0 q7 0 13.5 3.5 q6.5 3.5 6.5 8.5 l0 237 l102 -10 l0 -39 l-39 -17 Z" /><glyph glyph-name="h" unicode="h" d="M210 310 l-86 17 l0 -327 l-74 0 l0 710 l72 0 l-11 -315 l99 5 l0 310 l73 0 l0 -710 l-44 0 l-29 310 Z" /><glyph glyph-name="hbar" unicode="&#x127;" d="M319 592 l0 -49 l-36 -1 l0 -542 l-44 0 l-29 310 l-86 17 l0 -327 l-74 0 l0 536 l-45 -2 l-3 58 l48 0 l0 118 l72 0 l-4 -118 l92 0 l0 118 l73 0 l0 -118 l36 0 ZM210 400 l0 141 l-94 -1 l-5 -145 l99 5 Z" /><glyph glyph-name="hcircumflex" unicode="&#x125;" d="M149 900 l40 -3 l74 -110 l-29 -19 l-65 62 l-65 -62 l-29 19 l74 113 ZM210 310 l-86 17 l0 -327 l-74 0 l0 710 l72 0 l-11 -315 l99 5 l0 310 l73 0 l0 -710 l-44 0 l-29 310 Z" /><glyph glyph-name="uni1E25" unicode="&#x1e25;" d="M210 310 l-86 17 l0 -327 l-74 0 l0 710 l72 0 l-11 -315 l99 5 l0 310 l73 0 l0 -710 l-44 0 l-29 310 ZM128 -56 l93 0 l0 -95 l-89 -3 l-4 98 Z" /><glyph glyph-name="i" unicode="i" d="M134 20 l-84 0 l0 690 l63 0 l21 -690 Z" /><glyph glyph-name="dotlessi" unicode="&#x131;" d="M134 0 l-84 0 l0 710 l63 0 l21 -710 Z" /><glyph glyph-name="iacute" unicode="í" d="M106 900 l46 -48 l-96 -84 l-34 24 l84 108 ZM113 710 l-63 0 l0 -710 l84 0 l-21 710 Z" /><glyph glyph-name="ibreve" unicode="&#x12d;" d="M34 894 l-5 -48 l12 -11 l110 -5 l-3 66 l46 4 l0 -76 l-39 -39 l-125 0 l-45 28 l-4 81 l53 0 ZM113 710 l-63 0 l0 -710 l84 0 l-21 710 Z" /><glyph glyph-name="icircumflex" unicode="î" d="M68 900 l40 -3 l74 -110 l-29 -19 l-65 62 l-65 -62 l-29 19 l74 113 ZM134 0 l-84 0 l0 710 l63 0 l21 -710 Z" /><glyph glyph-name="idieresis" unicode="ï" d="M-27 895 l83 3 l-4 -83 l-79 0 l0 80 ZM123 898 l79 0 l0 -80 l-76 -3 l-3 83 ZM113 710 l-63 0 l0 -710 l84 0 l-21 710 Z" /><glyph glyph-name="uni1ECB" unicode="&#x1ecb;" d="M134 20 l-84 0 l0 690 l63 0 l21 -690 ZM44 -56 l93 0 l0 -95 l-89 -3 l-4 98 Z" /><glyph glyph-name="igrave" unicode="ì" d="M152 792 l-34 -24 l-96 84 l46 48 l84 -108 ZM134 0 l-84 0 l0 710 l63 0 l21 -710 Z" /><glyph glyph-name="ij" unicode="&#x133;" d="M134 20 l-84 0 l0 690 l63 0 l21 -690 ZM379 710 l-40 -14 l0 -607 l-75 5 l-5 78 l-49 0 l8 -134 q1 -14 14.5 -26 q13.5 -12 28.5 -12 l136 0 l19 710 l-37 0 Z" /><glyph glyph-name="imacron" unicode="&#x12b;" d="M222 891 l0 -55 l-265 -9 l-3 64 l268 0 ZM113 710 l-63 0 l0 -710 l84 0 l-21 710 Z" /><glyph glyph-name="iogonek" unicode="&#x12f;" d="M134 20 l-1 0 l0 -20 l-26 -83 l34 -62 l89 45 l16 -46 l-113 -63 l-88 114 l58 115 l-53 0 l0 690 l63 0 l21 -690 Z" /><glyph glyph-name="itilde" unicode="&#x129;" d="M38 897 q25 0 54 -20 l38 -25 l72 48 l0 -60 l-24 -23 q-10 -9 -22.5 -16 q-12.5 -7 -21.5 -7 q-18 0 -45 19 l-44 31 l-68 -53 l-3 69 l26 23 q17 14 38 14 ZM113 710 l-63 0 l0 -710 l84 0 l-21 710 Z" /><glyph glyph-name="j" unicode="j" d="M86 0 q-14 0 -28 12 q-14 12 -15 26 l-8 134 l49 0 l5 -78 l75 -5 l0 607 l40 14 l37 0 l-19 -710 l-136 0 Z" /><glyph glyph-name="uni0237" unicode="&#x237;" d="M86 0 q-14 0 -28 12 q-14 12 -15 26 l-8 134 l49 0 l5 -78 l75 -5 l0 607 l40 14 l37 0 l-19 -710 l-136 0 Z" /><glyph glyph-name="jcircumflex" unicode="&#x135;" d="M180 900 l40 -3 l74 -110 l-29 -19 l-65 62 l-65 -62 l-29 19 l74 113 ZM86 0 q-14 0 -28 12 q-14 12 -15 26 l-8 134 l49 0 l5 -78 l75 -5 l0 607 l40 14 l37 0 l-19 -710 l-136 0 Z" /><glyph glyph-name="k" unicode="k" d="M261 0 l-59 0 l-53 338 l-22 -17 l0 -321 l-67 0 l-13 700 l26 10 l42 0 l0 -338 l71 60 l-11 255 l86 23 l-21 -309 l-41 -32 l80 -348 l-18 -21 Z" /><glyph glyph-name="kcommaaccent" unicode="&#x137;" d="M261 0 l-59 0 l-53 338 l-22 -17 l0 -321 l-67 0 l-13 700 l26 10 l42 0 l0 -338 l71 60 l-11 255 l86 23 l-21 -309 l-41 -32 l80 -348 l-18 -21 ZM120 -78 l81 0 l3 -82 l-33 -90 l-55 16 l46 74 l-42 0 l0 82 Z" /><glyph glyph-name="kgreenlandic" unicode="&#x138;" d="M261 0 l-59 0 l-53 243 l-22 -17 l0 -226 l-67 0 l-23 538 l36 22 l42 0 l0 -283 l71 60 l-11 200 l86 23 l-21 -254 l-38 -25 l77 -232 l-18 -49 Z" /><glyph glyph-name="l" unicode="l" d="M252 0 l-202 0 l0 710 l74 0 l0 -605 l15 -23 l113 -13 l0 -69 Z" /><glyph glyph-name="lacute" unicode="&#x13a;" d="M162 900 l46 -48 l-96 -84 l-34 24 l84 108 ZM252 69 l-113 13 l-15 23 l0 605 l-74 0 l0 -710 l202 0 l0 69 Z" /><glyph glyph-name="lcaron" unicode="&#x13e;" d="M173 749 l86 4 l6 -96 l-68 -90 l-43 15 l51 75 l-32 92 ZM252 69 l-113 13 l-15 23 l0 605 l-74 0 l0 -710 l202 0 l0 69 Z" /><glyph glyph-name="lcommaaccent" unicode="&#x13c;" d="M252 0 l-202 0 l0 710 l74 0 l0 -605 l15 -23 l113 -13 l0 -69 ZM103 -78 l81 0 l3 -82 l-33 -90 l-55 16 l46 74 l-42 0 l0 82 Z" /><glyph glyph-name="ldot" unicode="&#x140;" d="M252 0 l-202 0 l0 710 l74 0 l0 -605 l15 -23 l113 -13 l0 -69 ZM204 413 l96 4 l-4 -96 l-92 0 l0 92 Z" /><glyph glyph-name="uni01C9" unicode="&#x1c9;" d="M252 0 l-202 0 l0 710 l74 0 l0 -605 l15 -23 l113 -13 l0 -69 ZM373 0 q-14 0 -28 12 q-14 12 -15 26 l-8 134 l49 0 l5 -78 l75 -5 l0 607 l40 14 l37 0 l-19 -710 l-136 0 Z" /><glyph glyph-name="lslash" unicode="&#x142;" d="M252 0 l-202 0 l0 324 l-57 -34 l-26 54 l83 46 l0 320 l74 0 l0 -278 l69 39 l25 -46 l-94 -57 l0 -263 l15 -23 l113 -13 l0 -69 Z" /><glyph glyph-name="m" unicode="m" d="M50 0 l0 710 l72 0 l73 -434 l8 0 l68 434 l58 0 l23 -710 l-66 0 l0 535 l-7 0 l-69 -378 l-33 -7 l-71 439 l-4 0 l0 -589 l-52 0 Z" /><glyph glyph-name="n" unicode="n" d="M275 -20 l-68 0 l-98 574 l-4 0 l-19 -574 l-51 0 l32 730 l61 0 l101 -579 l7 0 l0 579 l59 0 l-20 -730 Z" /><glyph glyph-name="nacute" unicode="&#x144;" d="M215 900 l46 -48 l-96 -84 l-34 24 l84 108 ZM295 710 l-59 0 l0 -579 l-7 0 l-101 579 l-61 0 l-32 -730 l51 0 l19 574 l4 0 l98 -574 l68 0 l20 730 Z" /><glyph glyph-name="napostrophe" unicode="&#x149;" d="M39 710 l81 0 l3 -82 l-33 -90 l-55 16 l46 74 l-42 0 l0 82 ZM385 -20 l-68 0 l-98 574 l-4 0 l-19 -574 l-51 0 l32 730 l61 0 l101 -579 l7 0 l0 579 l59 0 l-20 -730 Z" /><glyph glyph-name="ncaron" unicode="&#x148;" d="M187 768 l-40 3 l-74 110 l29 19 l65 -62 l65 62 l29 -19 l-74 -113 ZM275 -20 l-68 0 l-98 574 l-4 0 l-19 -574 l-51 0 l32 730 l61 0 l101 -579 l7 0 l0 579 l59 0 l-20 -730 Z" /><glyph glyph-name="ncommaaccent" unicode="&#x146;" d="M275 -20 l-68 0 l-98 574 l-4 0 l-19 -574 l-51 0 l32 730 l61 0 l101 -579 l7 0 l0 579 l59 0 l-20 -730 ZM127 -78 l81 0 l3 -82 l-33 -90 l-55 16 l46 74 l-42 0 l0 82 Z" /><glyph glyph-name="uni1E45" unicode="&#x1e45;" d="M136 900 l93 0 l0 -95 l-89 -3 l-4 98 ZM295 710 l-59 0 l0 -579 l-7 0 l-101 579 l-61 0 l-32 -730 l51 0 l19 574 l4 0 l98 -574 l68 0 l20 730 Z" /><glyph glyph-name="eng" unicode="&#x14b;" d="M188 -30 q-14 0 -28 12 q-14 12 -15 26 l-8 94 l49 0 l5 -58 l45 -5 l-3 97 l-124 418 l-4 0 l-19 -534 l-51 0 l32 690 l61 0 l92 -372 l6 0 l-12 368 l43 14 l37 0 l0 -750 l-106 0 Z" /><glyph glyph-name="uni01CC" unicode="&#x1cc;" d="M275 -20 l-68 0 l-98 574 l-4 0 l-19 -574 l-51 0 l32 730 l61 0 l101 -579 l7 0 l0 579 l59 0 l-20 -730 ZM421 0 q-14 0 -28 12 q-14 12 -15 26 l-8 134 l49 0 l5 -78 l75 -5 l0 607 l40 14 l37 0 l-19 -710 l-136 0 Z" /><glyph glyph-name="ntilde" unicode="ñ" d="M140 897 q25 0 54 -20 l38 -25 l72 48 l0 -60 l-24 -23 q-10 -9 -22.5 -16 q-12.5 -7 -21.5 -7 q-18 0 -45 19 l-44 31 l-68 -53 l-3 69 l26 23 q17 14 38 14 ZM295 710 l-59 0 l0 -579 l-7 0 l-101 579 l-61 0 l-32 -730 l51 0 l19 574 l4 0 l98 -574 l68 0 l20 730 Z" /><glyph glyph-name="o" unicode="o" d="M122 0 q-41 0 -57 13 q-16 13 -16 43 l0 630 q22 12 57.5 18 q35.5 6 94.5 6 q27 0 44 -13.5 q17 -13.5 17 -34.5 l-7 -662 l-133 0 ZM184 57 l9 9 l6 571 q0 5 -9 6 l-62 3 l-9 -6 l-6 -577 l71 -6 Z" /><glyph glyph-name="oacute" unicode="ó" d="M198 900 l46 -48 l-96 -84 l-34 24 l84 108 ZM122 0 q-41 0 -57 13 q-16 13 -16 43 l0 630 q22 12 57.5 18 q35.5 6 94.5 6 q27 0 44 -13.5 q17 -13.5 17 -34.5 l-7 -662 l-133 0 ZM184 57 l9 9 l6 571 q0 5 -9 6 l-62 3 l-9 -6 l-6 -577 l71 -6 Z" /><glyph glyph-name="obreve" unicode="&#x14f;" d="M109 894 l-5 -48 l12 -11 l110 -5 l-3 66 l46 4 l0 -76 l-39 -39 l-125 0 l-45 28 l-4 81 l53 0 ZM122 0 q-41 0 -57 13 q-16 13 -16 43 l0 630 q22 12 57.5 18 q35.5 6 94.5 6 q27 0 44 -13.5 q17 -13.5 17 -34.5 l-7 -662 l-133 0 ZM184 57 l9 9 l6 571 q0 5 -9 6 l-62 3 l-9 -6 l-6 -577 l71 -6 Z" /><glyph glyph-name="ocircumflex" unicode="ô" d="M136 900 l40 -3 l74 -110 l-29 -19 l-65 62 l-65 -62 l-29 19 l74 113 ZM122 0 q-41 0 -57 13 q-16 13 -16 43 l0 630 q22 12 57.5 18 q35.5 6 94.5 6 q27 0 44 -13.5 q17 -13.5 17 -34.5 l-7 -662 l-133 0 ZM184 57 l9 9 l6 571 q0 5 -9 6 l-62 3 l-9 -6 l-6 -577 l71 -6 Z" /><glyph glyph-name="odieresis" unicode="ö" d="M41 895 l83 3 l-4 -83 l-79 0 l0 80 ZM191 898 l79 0 l0 -80 l-76 -3 l-3 83 ZM122 0 q-41 0 -57 13 q-16 13 -16 43 l0 630 q22 12 57.5 18 q35.5 6 94.5 6 q27 0 44 -13.5 q17 -13.5 17 -34.5 l-7 -662 l-133 0 ZM184 57 l9 9 l6 571 q0 5 -9 6 l-62 3 l-9 -6 l-6 -577 l71 -6 Z" /><glyph glyph-name="uni1ECD" unicode="&#x1ecd;" d="M122 0 q-41 0 -57 13 q-16 13 -16 43 l0 630 q22 12 57.5 18 q35.5 6 94.5 6 q27 0 44 -13.5 q17 -13.5 17 -34.5 l-7 -662 l-133 0 ZM184 57 l9 9 l6 571 q0 5 -9 6 l-62 3 l-9 -6 l-6 -577 l71 -6 ZM109 -56 l93 0 l0 -95 l-89 -3 l-4 98 Z" /><glyph glyph-name="ograve" unicode="ò" d="M224 792 l-34 -24 l-96 84 l46 48 l84 -108 ZM122 0 q-41 0 -57 13 q-16 13 -16 43 l0 630 q22 12 57.5 18 q35.5 6 94.5 6 q27 0 44 -13.5 q17 -13.5 17 -34.5 l-7 -662 l-133 0 ZM184 57 l9 9 l6 571 q0 5 -9 6 l-62 3 l-9 -6 l-6 -577 l71 -6 Z" /><glyph glyph-name="ohungarumlaut" unicode="&#x151;" d="M121 900 l46 -48 l-96 -84 l-34 24 l84 108 ZM251 900 l46 -48 l-96 -84 l-34 24 l84 108 ZM122 0 q-41 0 -57 13 q-16 13 -16 43 l0 630 q22 12 57.5 18 q35.5 6 94.5 6 q27 0 44 -13.5 q17 -13.5 17 -34.5 l-7 -662 l-133 0 ZM184 57 l9 9 l6 571 q0 5 -9 6 l-62 3 l-9 -6 l-6 -577 l71 -6 Z" /><glyph glyph-name="omacron" unicode="&#x14d;" d="M290 891 l0 -55 l-265 -9 l-3 64 l268 0 ZM122 0 q-41 0 -57 13 q-16 13 -16 43 l0 630 q22 12 57.5 18 q35.5 6 94.5 6 q27 0 44 -13.5 q17 -13.5 17 -34.5 l-7 -662 l-133 0 ZM184 57 l9 9 l6 571 q0 5 -9 6 l-62 3 l-9 -6 l-6 -577 l71 -6 Z" /><glyph glyph-name="uni01EB" unicode="&#x1eb;" d="M159 0 l-26 -83 l34 -62 l89 45 l16 -46 l-113 -63 l-88 114 l48 95 q-39 0 -54.5 13 q-15.5 13 -15.5 43 l0 630 q22 12 57.5 18 q35.5 6 94.5 6 q27 0 44 -13.5 q17 -13.5 17 -34.5 l-7 -662 l-96 0 ZM184 57 l9 9 l6 571 q0 5 -9 6 l-62 3 l-9 -6 l-6 -577 l71 -6 Z" /><glyph glyph-name="oslash" unicode="ø" d="M262 37 q0 -37 -54 -37 l-119 0 l-23 -88 l-43 16 l35 130 l-9 627 q0 9 17.5 17 q17.5 8 43.5 8 q83 0 121 -11 l25 90 l36 -13 l-30 -115 l0 -624 ZM113 649 q-9 -1 -9 -6 l12 -371 l80 296 l-1 65 l-9 6 l-73 10 ZM198 419 l-77 -297 l2 -61 l9 -9 l73 25 l-7 342 Z" /><glyph glyph-name="oslashacute" unicode="&#x1ff;" d="M184 900 l46 -48 l-96 -84 l-34 24 l84 108 ZM262 37 q0 -37 -54 -37 l-119 0 l-23 -88 l-43 16 l35 130 l-9 627 q0 9 17.5 17 q17.5 8 43.5 8 q83 0 121 -11 l25 90 l36 -13 l-30 -115 l0 -624 ZM113 649 q-9 -1 -9 -6 l12 -371 l80 296 l-1 65 l-9 6 l-73 10 ZM198 419 l-77 -297 l2 -61 l9 -9 l73 25 l-7 342 Z" /><glyph glyph-name="otilde" unicode="õ" d="M114 897 q25 0 54 -20 l38 -25 l72 48 l0 -60 l-24 -23 q-10 -9 -22.5 -16 q-12.5 -7 -21.5 -7 q-18 0 -45 19 l-44 31 l-68 -53 l-3 69 l26 23 q17 14 38 14 ZM122 0 q-41 0 -57 13 q-16 13 -16 43 l0 630 q22 12 57.5 18 q35.5 6 94.5 6 q27 0 44 -13.5 q17 -13.5 17 -34.5 l-7 -662 l-133 0 ZM184 57 l9 9 l6 571 q0 5 -9 6 l-62 3 l-9 -6 l-6 -577 l71 -6 Z" /><glyph glyph-name="oe" unicode="&#x153;" d="M122 0 q-41 0 -57 13 q-16 13 -16 43 l0 630 q22 12 57.5 18 q35.5 6 94.5 6 q17 0 34 -7 l184 7 l0 -62 l-125 6 l0 -227 l125 -23 l0 -48 l-142 6 l0 -287 l142 8 l0 -83 l-297 0 ZM184 57 l9 9 l6 571 q0 5 -9 6 l-62 3 l-9 -6 l-6 -577 l71 -6 Z" /><glyph glyph-name="p" unicode="p" d="M58 687 q0 10 37 16.5 q37 6.5 72 6.5 l43 0 q13 0 24.5 -5.5 q11.5 -5.5 11.5 -15.5 l11 -310 l-35 -62 l-110 -11 l-8 -306 l-69 0 l23 687 ZM183 385 q6 0 6 6 l0 259 l-15 15 l-56 -7 l0 -276 l65 3 Z" /><glyph glyph-name="thorn" unicode="þ" d="M115 710 l0 -156 q30 6 52 6 l43 0 q13 0 24.5 -5.5 q11.5 -5.5 11.5 -15.5 l11 -310 l-35 -62 l-120 -11 l-21 -156 l-46 0 l30 710 l50 0 ZM183 225 q6 0 6 6 l0 269 l-15 15 l-56 -7 l0 -286 l65 3 Z" /><glyph glyph-name="q" unicode="q" d="M50 685 q0 9 17.5 17 q17.5 8 43.5 8 q51 0 84 -4.5 q33 -4.5 47.5 -10.5 q14.5 -6 14.5 -10 l0 -648 q0 -37 -54 -37 l-37 0 l110 -114 l-59 -20 l-25 13 l-79 121 l-63 0 l0 685 ZM191 639 l-52 0 q-9 -1 -9 -6 l-20 -572 l12 -9 l78 13 l0 568 l-9 6 Z" /><glyph glyph-name="r" unicode="r" d="M50 699 q0 5 41 8 q41 3 81 3 l43 0 q16 0 26 -12 q10 -12 11 -31 l10 -288 l-45 -59 l80 -298 l-19 -22 l-59 0 l-51 311 l-51 -5 l-21 -306 l-46 0 l0 699 ZM188 385 q6 0 6 6 l0 249 l-15 15 l-69 -7 l3 -267 l75 4 Z" /><glyph glyph-name="racute" unicode="&#x155;" d="M188 900 l46 -48 l-96 -84 l-34 24 l84 108 ZM50 699 q0 5 41 8 q41 3 81 3 l43 0 q16 0 26 -12 q10 -12 11 -31 l10 -288 l-45 -59 l80 -298 l-19 -22 l-59 0 l-51 311 l-51 -5 l-21 -306 l-46 0 l0 699 ZM188 385 q6 0 6 6 l0 249 l-15 15 l-69 -7 l3 -267 l75 4 Z" /><glyph glyph-name="rcaron" unicode="&#x159;" d="M172 768 l-40 3 l-74 110 l29 19 l65 -62 l65 62 l29 -19 l-74 -113 ZM50 699 q0 5 41 8 q41 3 81 3 l43 0 q16 0 26 -12 q10 -12 11 -31 l10 -288 l-45 -59 l80 -298 l-19 -22 l-59 0 l-51 311 l-51 -5 l-21 -306 l-46 0 l0 699 ZM188 385 q6 0 6 6 l0 249 l-15 15 l-69 -7 l3 -267 l75 4 Z" /><glyph glyph-name="rcommaaccent" unicode="&#x157;" d="M50 699 q0 5 41 8 q41 3 81 3 l43 0 q16 0 26 -12 q10 -12 11 -31 l10 -288 l-45 -59 l80 -298 l-19 -22 l-59 0 l-51 311 l-51 -5 l-21 -306 l-46 0 l0 699 ZM188 385 q6 0 6 6 l0 249 l-15 15 l-69 -7 l3 -267 l75 4 ZM119 -78 l81 0 l3 -82 l-33 -90 l-55 16 l46 74 l-42 0 l0 82 Z" /><glyph glyph-name="uni1E5B" unicode="&#x1e5b;" d="M50 699 q0 5 41 8 q41 3 81 3 l43 0 q16 0 26 -12 q10 -12 11 -31 l10 -288 l-45 -59 l80 -298 l-19 -22 l-59 0 l-51 311 l-51 -5 l-21 -306 l-46 0 l0 699 ZM188 385 q6 0 6 6 l0 249 l-15 15 l-69 -7 l3 -267 l75 4 ZM110 -56 l93 0 l0 -95 l-89 -3 l-4 98 Z" /><glyph glyph-name="s" unicode="s" d="M202 569 l-20 78 l-60 -7 l-15 -222 l145 -26 l-14 -332 q0 -20 -26 -40 q-26 -20 -48 -20 l-117 0 l-9 171 l59 0 l-1 -87 l70 -16 l16 266 l-135 30 l0 322 l40 24 l157 0 l-5 -141 l-37 0 Z" /><glyph glyph-name="sacute" unicode="&#x15b;" d="M189 900 l46 -48 l-96 -84 l-34 24 l84 108 ZM202 569 l-20 78 l-60 -7 l-15 -222 l145 -26 l-14 -332 q0 -20 -26 -40 q-26 -20 -48 -20 l-117 0 l-9 171 l59 0 l-1 -87 l70 -16 l16 266 l-135 30 l0 322 l40 24 l157 0 l-5 -141 l-37 0 Z" /><glyph glyph-name="scaron" unicode="&#x161;" d="M181 768 l-40 3 l-74 110 l29 19 l65 -62 l65 62 l29 -19 l-74 -113 ZM202 569 l-20 78 l-60 -7 l-15 -222 l145 -26 l-14 -332 q0 -20 -26 -40 q-26 -20 -48 -20 l-117 0 l-9 171 l59 0 l-1 -87 l70 -16 l16 266 l-135 30 l0 322 l40 24 l157 0 l-5 -141 l-37 0 Z" /><glyph glyph-name="scedilla" unicode="&#x15f;" d="M202 569 l-20 78 l-60 -7 l-15 -222 l145 -26 l-14 -332 q0 -20 -26 -40 q-26 -20 -48 -20 l-6 0 l-23 -45 l112 0 l-24 -103 q0 -21 -21 -40.5 q-21 -19.5 -43 -19.5 l-123 0 l0 58 l129 0 l10 53 l-105 8 l25 89 l-48 0 l-9 171 l59 0 l-1 -87 l70 -16 l16 266 l-135 30 l0 322 l40 24 l157 0 l-5 -141 l-37 0 Z" /><glyph glyph-name="scircumflex" unicode="&#x15d;" d="M138 900 l40 -3 l74 -110 l-29 -19 l-65 62 l-65 -62 l-29 19 l74 113 ZM202 569 l-20 78 l-60 -7 l-15 -222 l145 -26 l-14 -332 q0 -20 -26 -40 q-26 -20 -48 -20 l-117 0 l-9 171 l59 0 l-1 -87 l70 -16 l16 266 l-135 30 l0 322 l40 24 l157 0 l-5 -141 l-37 0 Z" /><glyph glyph-name="scommaaccent" unicode="&#x219;" d="M202 569 l-20 78 l-60 -7 l-15 -222 l145 -26 l-14 -332 q0 -20 -26 -40 q-26 -20 -48 -20 l-117 0 l-9 171 l59 0 l-1 -87 l70 -16 l16 266 l-135 30 l0 322 l40 24 l157 0 l-5 -141 l-37 0 ZM96 -78 l81 0 l3 -82 l-33 -90 l-55 16 l46 74 l-42 0 l0 82 Z" /><glyph glyph-name="uni1E63" unicode="&#x1e63;" d="M202 569 l-20 78 l-60 -7 l-15 -222 l145 -26 l-14 -332 q0 -20 -26 -40 q-26 -20 -48 -20 l-117 0 l-9 171 l59 0 l-1 -87 l70 -16 l16 266 l-135 30 l0 322 l40 24 l157 0 l-5 -141 l-37 0 ZM92 -56 l93 0 l0 -95 l-89 -3 l-4 98 Z" /><glyph glyph-name="germandbls" unicode="ß" d="M374 60 q-2 -21 -27 -40.5 q-25 -19.5 -47 -19.5 l-103 0 l-12 171 l67 0 l-8 -87 l62 -16 l0 228 l-109 30 l-26 63 l66 213 l-25 38 l-96 -24 l21 -617 l-82 0 l0 641 l101 70 l73 0 l112 -109 l-103 -217 l1 -5 l135 -14 l0 -305 Z" /><glyph glyph-name="longs" unicode="&#x17f;" d="M55 -20 l0 730 l214 -20 l0 -62 l-159 -12 l27 -636 l-82 0 Z" /><glyph glyph-name="t" unicode="t" d="M245 696 l5 -63 l-88 0 l0 -633 l-85 0 l20 615 l-72 24 l13 71 l207 -14 Z" /><glyph glyph-name="tbar" unicode="&#x167;" d="M93 492 l4 123 l-72 24 l13 71 l207 -14 l5 -63 l-88 0 l0 -141 l110 0 l0 -55 l-110 -4 l0 -433 l-85 0 l14 431 l-84 -3 l-3 64 l89 0 Z" /><glyph glyph-name="tcaron" unicode="&#x165;" d="M159 768 l-40 3 l-74 110 l29 19 l65 -62 l65 62 l29 -19 l-74 -113 ZM245 696 l5 -63 l-88 0 l0 -633 l-85 0 l20 615 l-72 24 l13 71 l207 -14 Z" /><glyph glyph-name="uni0163" unicode="&#x163;" d="M250 633 l-88 0 l0 -633 l-22 0 l-23 -45 l112 0 l-24 -103 q0 -21 -21 -40.5 q-21 -19.5 -43 -19.5 l-123 0 l0 58 l129 0 l10 53 l-105 8 l25 89 l20 615 l-72 24 l13 71 l207 -14 l5 -63 Z" /><glyph glyph-name="uni021B" unicode="&#x21b;" d="M245 696 l5 -63 l-88 0 l0 -633 l-85 0 l20 615 l-72 24 l13 71 l207 -14 ZM97 -78 l81 0 l3 -82 l-33 -90 l-55 16 l46 74 l-42 0 l0 82 Z" /><glyph glyph-name="uni1E6D" unicode="&#x1e6d;" d="M245 696 l5 -63 l-88 0 l0 -633 l-85 0 l20 615 l-72 24 l13 71 l207 -14 ZM73 -56 l93 0 l0 -95 l-89 -3 l-4 98 Z" /><glyph glyph-name="u" unicode="u" d="M132 700 l-21 -638 l84 6 l0 619 l70 -4 l0 -703 l-230 0 l23 720 l74 0 Z" /><glyph glyph-name="uacute" unicode="ú" d="M189 900 l46 -48 l-96 -84 l-34 24 l84 108 ZM132 700 l-21 -638 l84 6 l0 619 l70 -4 l0 -703 l-230 0 l23 720 l74 0 Z" /><glyph glyph-name="ubreve" unicode="&#x16d;" d="M111 894 l-5 -48 l12 -11 l110 -5 l-3 66 l46 4 l0 -76 l-39 -39 l-125 0 l-45 28 l-4 81 l53 0 ZM132 700 l-21 -638 l84 6 l0 619 l70 -4 l0 -703 l-230 0 l23 720 l74 0 Z" /><glyph glyph-name="ucircumflex" unicode="û" d="M144 900 l40 -3 l74 -110 l-29 -19 l-65 62 l-65 -62 l-29 19 l74 113 ZM132 700 l-21 -638 l84 6 l0 619 l70 -4 l0 -703 l-230 0 l23 720 l74 0 Z" /><glyph glyph-name="udieresis" unicode="ü" d="M37 895 l83 3 l-4 -83 l-79 0 l0 80 ZM187 898 l79 0 l0 -80 l-76 -3 l-3 83 ZM132 700 l-21 -638 l84 6 l0 619 l70 -4 l0 -703 l-230 0 l23 720 l74 0 Z" /><glyph glyph-name="uni1EE5" unicode="&#x1ee5;" d="M132 700 l-21 -638 l84 6 l0 619 l70 -4 l0 -703 l-230 0 l23 720 l74 0 ZM109 -56 l93 0 l0 -95 l-89 -3 l-4 98 Z" /><glyph glyph-name="ugrave" unicode="ù" d="M230 792 l-34 -24 l-96 84 l46 48 l84 -108 ZM132 700 l-21 -638 l84 6 l0 619 l70 -4 l0 -703 l-230 0 l23 720 l74 0 Z" /><glyph glyph-name="uhungarumlaut" unicode="&#x171;" d="M131 900 l46 -48 l-96 -84 l-34 24 l84 108 ZM261 900 l46 -48 l-96 -84 l-34 24 l84 108 ZM132 700 l-21 -638 l84 6 l0 619 l70 -4 l0 -703 l-230 0 l23 720 l74 0 Z" /><glyph glyph-name="umacron" unicode="&#x16b;" d="M293 891 l0 -55 l-265 -9 l-3 64 l268 0 ZM132 700 l-21 -638 l84 6 l0 619 l70 -4 l0 -703 l-230 0 l23 720 l74 0 Z" /><glyph glyph-name="uogonek" unicode="&#x173;" d="M132 700 l-21 -638 l84 6 l0 619 l70 -4 l0 -703 l-94 0 l-19 -63 l34 -62 l89 45 l16 -46 l-113 -63 l-88 114 l38 75 l-93 0 l23 720 l74 0 Z" /><glyph glyph-name="uring" unicode="&#x16f;" d="M235 900 l0 -109 l-25 -26 l-114 0 l0 135 l139 0 ZM186 800 q7 0 7 6 l0 56 q0 3 -6 6 l-40 5 q-8 0 -8 -3 l0 -66 q0 -4 6 -4 l41 0 ZM132 700 l-21 -638 l84 6 l0 619 l70 -4 l0 -703 l-230 0 l23 720 l74 0 Z" /><glyph glyph-name="utilde" unicode="&#x169;" d="M102 897 q25 0 54 -20 l38 -25 l72 48 l0 -60 l-24 -23 q-10 -9 -22.5 -16 q-12.5 -7 -21.5 -7 q-18 0 -45 19 l-44 31 l-68 -53 l-3 69 l26 23 q17 14 38 14 ZM132 700 l-21 -638 l84 6 l0 619 l70 -4 l0 -703 l-230 0 l23 720 l74 0 Z" /><glyph glyph-name="v" unicode="v" d="M76 0 l-59 710 l63 0 l60 -685 l5 0 l67 675 l66 0 l-97 -700 l-105 0 Z" /><glyph glyph-name="w" unicode="w" d="M283 10 l-76 490 l-4 0 l-23 -500 l-105 0 l-69 710 l65 0 l51 -673 l4 0 l49 653 l72 0 l-6 -151 l83 -506 l5 0 l22 667 l61 0 l-33 -690 l-96 0 Z" /><glyph glyph-name="wacute" unicode="&#x1e83;" d="M228 900 l46 -48 l-96 -84 l-34 24 l84 108 ZM379 10 l33 690 l-61 0 l-22 -667 l-5 0 l-83 506 l6 151 l-72 0 l-49 -653 l-4 0 l-51 673 l-65 0 l69 -710 l105 0 l23 500 l4 0 l76 -490 l96 0 Z" /><glyph glyph-name="wcircumflex" unicode="&#x175;" d="M189 900 l40 -3 l74 -110 l-29 -19 l-65 62 l-65 -62 l-29 19 l74 113 ZM283 10 l-76 490 l-4 0 l-23 -500 l-105 0 l-69 710 l65 0 l51 -673 l4 0 l49 653 l72 0 l-6 -151 l83 -506 l5 0 l22 667 l61 0 l-33 -690 l-96 0 Z" /><glyph glyph-name="wdieresis" unicode="&#x1e85;" d="M95 895 l83 3 l-4 -83 l-79 0 l0 80 ZM245 898 l79 0 l0 -80 l-76 -3 l-3 83 ZM379 10 l33 690 l-61 0 l-22 -667 l-5 0 l-83 506 l6 151 l-72 0 l-49 -653 l-4 0 l-51 673 l-65 0 l69 -710 l105 0 l23 500 l4 0 l76 -490 l96 0 Z" /><glyph glyph-name="wgrave" unicode="&#x1e81;" d="M268 792 l-34 -24 l-96 84 l46 48 l84 -108 ZM283 10 l-76 490 l-4 0 l-23 -500 l-105 0 l-69 710 l65 0 l51 -673 l4 0 l49 653 l72 0 l-6 -151 l83 -506 l5 0 l22 667 l61 0 l-33 -690 l-96 0 Z" /><glyph glyph-name="x" unicode="x" d="M202 -11 l-43 350 l-28 -15 l-44 -324 l-78 0 l78 386 l-64 324 l78 0 l40 -320 l35 9 l37 291 l67 0 l-71 -347 l89 -354 l-96 0 Z" /><glyph glyph-name="y" unicode="y" d="M185 0 l-77 0 l0 374 l-93 326 l91 0 l34 -287 l8 2 l30 295 l70 0 l-44 -279 l-36 -62 l17 -369 Z" /><glyph glyph-name="yacute" unicode="ý" d="M165 900 l46 -48 l-96 -84 l-34 24 l84 108 ZM168 369 l36 62 l44 279 l-70 0 l-30 -295 l-8 -2 l-34 287 l-91 0 l93 -326 l0 -374 l77 0 l-17 369 Z" /><glyph glyph-name="ycircumflex" unicode="&#x177;" d="M121 900 l40 -3 l74 -110 l-29 -19 l-65 62 l-65 -62 l-29 19 l74 113 ZM185 0 l-77 0 l0 374 l-93 326 l91 0 l34 -287 l8 2 l30 295 l70 0 l-44 -279 l-36 -62 l17 -369 Z" /><glyph glyph-name="ydieresis" unicode="ÿ" d="M17 895 l83 3 l-4 -83 l-79 0 l0 80 ZM167 898 l79 0 l0 -80 l-76 -3 l-3 83 ZM168 369 l36 62 l44 279 l-70 0 l-30 -295 l-8 -2 l-34 287 l-91 0 l93 -326 l0 -374 l77 0 l-17 369 Z" /><glyph glyph-name="ygrave" unicode="&#x1ef3;" d="M196 792 l-34 -24 l-96 84 l46 48 l84 -108 ZM185 0 l-77 0 l0 374 l-93 326 l91 0 l34 -287 l8 2 l30 295 l70 0 l-44 -279 l-36 -62 l17 -369 Z" /><glyph glyph-name="uni1EF9" unicode="&#x1ef9;" d="M84 897 q25 0 54 -20 l38 -25 l72 48 l0 -60 l-24 -23 q-10 -9 -22.5 -16 q-12.5 -7 -21.5 -7 q-18 0 -45 19 l-44 31 l-68 -53 l-3 69 l26 23 q17 14 38 14 ZM168 369 l36 62 l44 279 l-70 0 l-30 -295 l-8 -2 l-34 287 l-91 0 l93 -326 l0 -374 l77 0 l-17 369 Z" /><glyph glyph-name="z" unicode="z" d="M43 0 l-18 33 l144 629 l-128 -16 l0 64 l206 0 l-114 -654 l134 -9 l0 -47 l-224 0 Z" /><glyph glyph-name="zacute" unicode="&#x17a;" d="M176 900 l46 -48 l-96 -84 l-34 24 l84 108 ZM267 0 l0 47 l-134 9 l114 654 l-206 0 l0 -64 l128 16 l-144 -629 l18 -33 l224 0 Z" /><glyph glyph-name="zcaron" unicode="&#x17e;" d="M177 768 l-40 3 l-74 110 l29 19 l65 -62 l65 62 l29 -19 l-74 -113 ZM43 0 l-18 33 l144 629 l-128 -16 l0 64 l206 0 l-114 -654 l134 -9 l0 -47 l-224 0 Z" /><glyph glyph-name="zdotaccent" unicode="&#x17c;" d="M112 900 l93 0 l0 -95 l-89 -3 l-4 98 ZM267 0 l0 47 l-134 9 l114 654 l-206 0 l0 -64 l128 16 l-144 -629 l18 -33 l224 0 Z" /><glyph glyph-name="uni1E93" unicode="&#x1e93;" d="M43 0 l-18 33 l144 629 l-128 -16 l0 64 l206 0 l-114 -654 l134 -9 l0 -47 l-224 0 ZM109 -56 l93 0 l0 -95 l-89 -3 l-4 98 Z" /><glyph glyph-name="fi" unicode="&#xfb01;" d="M55 -20 l0 730 l298 -20 l0 -62 l-219 -12 l0 -169 l235 0 l21 -427 l-84 0 l0 367 l-189 -15 l20 -392 l-82 0 Z" /><glyph glyph-name="fl" unicode="&#xfb02;" d="M518 0 l-197 0 l0 625 l-187 -9 l0 -169 l125 0 l0 -58 l-142 -17 l20 -392 l-82 0 l0 730 l335 -20 l0 -585 l15 -23 l113 -13 l0 -69 Z" /><glyph glyph-name="ordfeminine" unicode="ª" d="M187 355 l-32 0 l-18 129 l-40 -25 l-11 -104 l-41 0 l22 355 l99 0 l21 -355 ZM135 676 q0 3 -3 3 l-31 -5 q-3 -1 -3 -5 l0 -154 q0 -2 3 -2 l26 0 q3 0 3 3 l5 160 Z" /><glyph glyph-name="ordmasculine" unicode="º" d="M50 698 q0 4 9 8 q9 4 22 4 q37 0 71.5 -4.5 q34.5 -4.5 34.5 -7.5 l0 -324 q0 -19 -27 -19 l-105 0 l-5 343 ZM139 665 l-32 -5 q-4 -1 -4 -3 l-10 -261 l5 -5 l50 13 l-5 258 l-4 3 Z" /><glyph glyph-name="uni0394" unicode="&#x394;" d="M315 0 l-300 10 l129 690 l70 10 l101 -710 ZM238 74 l-60 588 l-13 2 l-73 -600 l146 10 Z" /><glyph glyph-name="uni03A9" unicode="&#x3a9;" d="M127 710 l95 0 l60 -48 l0 -506 l-51 -90 l1 -4 l106 16 l-5 -77 l-135 5 l-10 66 l24 124 l15 453 q0 9 -9 9 l-86 0 q-9 0 -9 -9 l0 -453 l27 -110 l-19 -85 l-129 0 l3 60 l87 7 l1 4 l-29 90 l0 496 l63 52 Z" /><glyph glyph-name="uni03BC" unicode="&#x3bc;" d="M132 710 l-21 -637 l84 6 l0 608 l70 -4 l0 -692 l-176 0 l43 -213 l-89 -14 l-8 227 l23 699 l74 20 Z" /><glyph glyph-name="pi" unicode="&#x3c0;" d="M164 688 q19 -8 34 -13 q15 -5 25 -5 q8 0 21 5.5 q13 5.5 30 13.5 l55 26 l0 -70 l-62 -36 l0 -586 l-54 0 l0 586 l-73 27 l0 -636 l-79 10 l21 624 l-26 -16 l-42 -27 l-3 74 l94 47 l59 -24 Z" /><glyph glyph-name="zero" unicode="0" d="M290 666 l-1 -625 l-50 -41 l-158 0 l-31 26 l0 665 l40 19 l182 0 l18 -44 ZM218 655 q-2 0 -3 1 l-81 0 q-16 0 -16 -6 l0 -479 l100 484 ZM212 69 q6 0 10.5 4 q4.5 4 4.5 8 l0 527 l-103 -537 q4 -2 7 -2 l81 0 Z" /><glyph glyph-name="one" unicode="1" d="M29 54 l113 4 l19 570 l-125 -9 l-10 56 l211 36 l-14 -650 l94 3 l-4 -64 l-279 0 l-5 54 Z" /><glyph glyph-name="two" unicode="2" d="M204 63 l99 37 l-11 -100 l-240 0 l-15 85 l185 324 l0 237 l-91 -9 l-18 -15 l-5 -149 l-61 0 l0 189 l66 48 l187 0 l0 -329 l-194 -317 l98 -1 Z" /><glyph glyph-name="three" unicode="3" d="M255 409 l36 -55 l0 -302 l-47 -52 l-196 0 l0 198 l47 0 l9 -120 q0 -6 16 -6 l86 -12 q1 -1 5 -1 q10 0 10 10 l-11 301 l-111 2 l0 55 l118 31 l7 191 l-177 -7 l0 39 l46 29 l201 0 l0 -241 l-6 -24 l-33 -36 Z" /><glyph glyph-name="four" unicode="4" d="M200 0 l7 200 l-172 0 l-14 42 l151 468 l103 0 l0 -710 l-75 0 ZM196 266 l20 392 l-5 0 l-113 -403 l98 11 Z" /><glyph glyph-name="five" unicode="5" d="M109 483 l9 -69 l155 20 l27 -434 l-258 0 l0 196 l52 0 l22 -115 l88 -26 q6 0 10.5 5.5 q4.5 5.5 4.5 11.5 l-15 278 q0 6 -12 6 l-108 0 l-42 70 l0 253 l42 31 l186 0 l-15 -61 l-146 -20 l0 -146 Z" /><glyph glyph-name="six" unicode="6" d="M301 362 l-20 -362 l-240 0 l23 710 l227 -10 l0 -85 l-141 28 l-24 -23 l0 -221 l91 0 l84 -37 ZM217 327 l-91 21 l0 -288 l91 20 l0 247 Z" /><glyph glyph-name="seven" unicode="7" d="M110 0 l94 360 l-139 5 l0 62 l151 1 l37 208 l-222 -8 l10 86 l305 -9 l-63 -277 l35 0 l0 -68 l-50 0 l-87 -379 l-71 19 Z" /><glyph glyph-name="eight" unicode="8" d="M58 0 l-23 64 l23 229 l56 56 l-49 42 l-2 282 l79 37 l153 -13 l-17 -322 l-50 -24 l65 -38 l-9 -260 l-28 -53 l-198 0 ZM132 400 l79 -24 l17 272 l-92 -1 l-4 -247 ZM220 57 l9 235 l-88 30 l-29 -265 l108 0 Z" /><glyph glyph-name="nine" unicode="9" d="M49 323 l0 387 l250 0 l-30 -710 l-208 0 l-11 80 l130 -26 l24 27 l0 208 l-61 0 l-94 34 ZM113 371 l101 -21 l10 290 l-111 10 l0 -279 Z" /><glyph glyph-name="uni00B9" unicode="¹" d="M45 394 l44 1 l8 254 l-51 3 l1 27 l65 31 l35 0 l0 -313 l47 2 l6 -54 l-155 0 l0 49 Z" /><glyph glyph-name="uni00B2" unicode="²" d="M203 392 l0 -47 l-158 0 l8 54 l90 155 l5 105 l-42 0 l-10 -91 l-34 -2 l0 96 l37 48 l100 0 l-7 -177 l-79 -130 l90 -11 Z" /><glyph glyph-name="uni00B3" unicode="³" d="M172 568 q4 -5 7.5 -11.5 q3.5 -6.5 7.5 -11.5 l0 -170 l-27 -30 l-110 0 l0 116 l40 0 l5 -61 l48 -5 l-8 141 l-58 -3 l-20 25 l85 46 l2 57 l-99 -4 l0 27 l28 26 l116 0 l0 -115 l-4 -14 l-13 -13 Z" /><glyph glyph-name="fraction" unicode="&#x2044;" d="M39 -2 l-39 35 l361 674 l34 -28 l-356 -681 Z" /><glyph glyph-name="onehalf" unicode="½" d="M20 444 l45 1 l8 204 l-52 3 l1 27 l65 31 l30 0 l0 -263 l47 2 l6 -54 l-150 0 l0 49 ZM73 -2 l-39 35 l361 674 l34 -28 l-356 -681 ZM417 47 l0 -47 l-158 0 l8 54 l90 125 l5 95 l-42 0 l-10 -81 l-34 -2 l0 86 l37 48 l100 0 l-7 -167 l-79 -100 l90 -11 Z" /><glyph glyph-name="uni2153" unicode="&#x2153;" d="M20 444 l45 1 l8 204 l-52 3 l1 27 l65 31 l30 0 l0 -263 l47 2 l6 -54 l-150 0 l0 49 ZM73 -2 l-39 35 l361 674 l34 -28 l-356 -681 ZM408 193 q4 -5 7.5 -11.5 q3.5 -6.5 7.5 -11.5 l0 -140 l-27 -30 l-110 0 l0 116 l40 0 l5 -61 l48 -5 l-8 111 l-58 -3 l-20 25 l85 46 l2 37 l-99 -4 l0 27 l28 26 l116 0 l0 -95 l-4 -14 l-13 -13 Z" /><glyph glyph-name="uni2154" unicode="&#x2154;" d="M172 438 l0 -47 l-158 0 l8 54 l90 121 l5 92 l-42 0 l-10 -78 l-34 -2 l0 83 l37 48 l100 0 l-7 -164 l-79 -96 l90 -11 ZM73 -2 l-39 35 l361 674 l34 -28 l-356 -681 ZM408 193 q4 -5 7.5 -11.5 q3.5 -6.5 7.5 -11.5 l0 -140 l-27 -30 l-110 0 l0 116 l40 0 l5 -61 l48 -5 l-8 111 l-58 -3 l-20 25 l85 46 l2 37 l-99 -4 l0 27 l28 26 l116 0 l0 -95 l-4 -14 l-13 -13 Z" /><glyph glyph-name="onequarter" unicode="¼" d="M20 444 l45 1 l8 204 l-52 3 l1 27 l65 31 l30 0 l0 -263 l47 2 l6 -54 l-150 0 l0 49 ZM73 -2 l-39 35 l361 674 l34 -28 l-356 -681 ZM346 0 l3 90 l-86 0 l-22 31 l76 204 l76 0 l0 -325 l-47 0 ZM344 133 l7 165 l-4 0 l-52 -170 l49 5 Z" /><glyph glyph-name="threequarters" unicode="¾" d="M163 588 q4 -5 7.5 -11.5 q3.5 -6.5 7.5 -11.5 l0 -140 l-27 -30 l-110 0 l0 116 l40 0 l5 -61 l48 -5 l-8 111 l-58 -3 l-20 25 l85 46 l2 37 l-99 -4 l0 27 l28 26 l116 0 l0 -95 l-4 -14 l-13 -13 ZM73 -2 l-39 35 l361 674 l34 -28 l-356 -681 ZM346 0 l3 90 l-86 0 l-22 31 l76 204 l76 0 l0 -325 l-47 0 ZM344 133 l7 165 l-4 0 l-52 -170 l49 5 Z" /><glyph glyph-name="oneeighth" unicode="&#x215b;" d="M20 444 l45 1 l8 204 l-52 3 l1 27 l65 31 l30 0 l0 -263 l47 2 l6 -54 l-150 0 l0 49 ZM73 -2 l-39 35 l361 674 l34 -28 l-356 -681 ZM279 0 l-10 29 l10 102 l25 25 l-22 19 l-1 126 l36 16 l107 -5 l-8 -144 l-22 -11 l29 -17 l-4 -116 l-12 -24 l-128 0 ZM327 179 l44 -11 l8 109 l-50 -1 l-2 -97 ZM375 38 l4 83 l-52 13 l-13 -96 l61 0 Z" /><glyph glyph-name="asterisk" unicode="*" d="M420 646 l39 -66 l-147 -78 l156 -72 l-38 -67 l-145 90 l15 -169 l-77 0 l5 167 l-133 -93 l-39 66 l141 75 l-142 66 l38 67 l131 -82 l-14 160 l77 0 l-6 -161 l139 97 Z" /><glyph glyph-name="backslash" unicode="\" d="M30 710 l51 10 l135 -720 l-58 -14 l-128 724 Z" /><glyph glyph-name="periodcentered" unicode="·" d="M60 413 l96 4 l-4 -96 l-92 0 l0 92 Z" /><glyph glyph-name="bullet" unicode="&#x2022;" d="M51 272 l-7 153 l153 -5 l-5 -148 l-141 0 Z" /><glyph glyph-name="colon" unicode=":" d="M156 394 l-92 0 l-4 96 l96 -4 l0 -92 ZM60 92 l96 4 l-4 -96 l-92 0 l0 92 Z" /><glyph glyph-name="comma" unicode="," d="M29 92 l86 4 l-4 -96 l-48 -110 l-43 15 l41 95 l-32 92 Z" /><glyph glyph-name="ellipsis" unicode="&#x2026;" d="M60 92 l96 4 l-4 -96 l-92 0 l0 92 ZM266 92 l96 4 l-4 -96 l-92 0 l0 92 ZM472 92 l96 4 l-4 -96 l-92 0 l0 92 Z" /><glyph glyph-name="exclam" unicode="!" d="M50 710 l104 0 l-38 -526 l-43 6 l-23 520 ZM50 92 l96 4 l-4 -96 l-92 0 l0 92 Z" /><glyph glyph-name="exclamdown" unicode="¡" d="M143 618 l-93 5 l4 87 l92 0 l-3 -92 ZM42 0 l104 0 l-27 523 l-41 0 l-36 -523 Z" /><glyph glyph-name="numbersign" unicode="#" d="M127 445 l36 187 l51 -10 l-32 -178 l77 -2 l37 190 l51 -10 l-33 -181 l98 -2 l0 -49 l-107 0 l-14 -78 l92 0 l0 -49 l-101 -2 l-32 -183 l-58 14 l32 167 l-75 -2 l-32 -179 l-58 14 l31 164 l-95 -2 l3 58 l103 0 l15 78 l-89 0 l-3 58 l103 -3 ZM158 312 l76 0 l15 78 l-77 0 l-14 -78 Z" /><glyph glyph-name="period" unicode="." d="M60 92 l96 4 l-4 -96 l-92 0 l0 92 Z" /><glyph glyph-name="question" unicode="?" d="M101 163 l0 196 l82 133 l12 154 l-74 0 l-18 -24 l-3 -80 l-49 7 l0 141 l86 20 l133 0 l-13 -246 l-97 -145 l-14 -164 l-45 8 ZM78 92 l96 4 l-4 -96 l-92 0 l0 92 Z" /><glyph glyph-name="questiondown" unicode="¿" d="M263 618 l-93 5 l4 87 l92 0 l-3 -92 ZM244 525 l1 -193 l-82 -114 l-12 -154 l74 0 l0 104 l49 -7 l21 -141 l-86 -20 l-133 0 l13 246 l97 126 l13 154 l45 -1 Z" /><glyph glyph-name="quotedbl" unicode="&quot;" d="M50 710 l77 0 l-7 -208 l-51 -10 l-19 218 ZM182 710 l77 0 l-7 -208 l-51 -10 l-19 218 Z" /><glyph glyph-name="quotesingle" unicode="&#39;" d="M50 710 l77 0 l-7 -208 l-51 -10 l-19 218 Z" /><glyph glyph-name="semicolon" unicode=";" d="M156 394 l-92 0 l-4 96 l96 -4 l0 -92 ZM69 92 l86 4 l-4 -96 l-48 -110 l-43 15 l41 95 l-32 92 Z" /><glyph glyph-name="slash" unicode="/" d="M88 -14 l-58 14 l135 720 l51 -10 l-128 -724 Z" /><glyph glyph-name="underscore" unicode="_" d="M363 -45 l-3 -57 l-311 -11 l0 73 l314 -5 Z" /><glyph glyph-name="braceleft" unicode="{" d="M223 761 l0 -40 l-102 -11 l10 -253 l-56 -105 l60 -107 l0 -279 l88 0 l0 -49 l-108 7 l-38 40 l-11 247 l-40 117 l-74 -4 l-2 53 l77 0 l40 85 l0 290 l10 10 l146 -1 Z" /><glyph glyph-name="braceright" unicode="}" d="M50 -82 l0 40 l102 11 l-10 253 l56 105 l-60 107 l0 279 l-88 0 l0 49 l108 -7 l38 -40 l11 -247 l40 -117 l74 4 l2 -53 l-77 0 l-40 -85 l0 -290 l-10 -10 l-146 1 Z" /><glyph glyph-name="bracketleft" unicode="[" d="M105 -34 l91 3 l0 -50 l-156 5 l0 838 l156 0 l0 -41 l-98 -4 l7 -751 Z" /><glyph glyph-name="bracketright" unicode="]" d="M141 715 l-91 -3 l0 50 l156 -6 l0 -837 l-156 0 l0 41 l98 4 l-7 751 Z" /><glyph glyph-name="parenleft" unicode="(" d="M195 -49 l-65 -27 l-84 298 l-6 182 l90 358 l68 -20 l-93 -301 l0 -230 l90 -260 Z" /><glyph glyph-name="parenright" unicode=")" d="M53 735 l65 27 l84 -298 l6 -182 l-90 -358 l-68 20 l93 301 l0 230 l-90 260 Z" /><glyph glyph-name="emdash" unicode="&#x2014;" d="M363 376 l-3 -57 l-311 -11 l0 73 l314 -5 Z" /><glyph glyph-name="endash" unicode="&#x2013;" d="M291 376 l-3 -57 l-241 -11 l0 73 l244 -5 Z" /><glyph glyph-name="hyphen" unicode="-" d="M328 357 l0 -49 l-315 0 l-3 58 l318 -9 Z" /><glyph glyph-name="uni00AD" unicode="­" d="M288 357 l0 -49 l-275 0 l-3 58 l278 -9 Z" /><glyph glyph-name="guillemotleft" unicode="«" d="M31 318 l2 26 l162 229 l57 -55 l-143 -170 l0 -4 l141 -193 l-62 -55 l-157 222 ZM374 573 l62 -55 l-141 -163 l0 -4 l143 -200 l-57 -55 l-162 239 l-2 20 l157 218 Z" /><glyph glyph-name="guillemotright" unicode="»" d="M261 355 l-2 -20 l-162 -239 l-57 55 l143 200 l0 4 l-141 163 l62 55 l157 -218 ZM290 96 l-62 55 l141 193 l0 4 l-143 170 l57 55 l162 -229 l2 -26 l-157 -222 Z" /><glyph glyph-name="guilsinglleft" unicode="&#x2039;" d="M31 318 l2 26 l162 229 l57 -55 l-143 -170 l0 -4 l141 -193 l-62 -55 l-157 222 Z" /><glyph glyph-name="guilsinglright" unicode="&#x203a;" d="M99 96 l-62 55 l141 193 l0 4 l-143 170 l57 55 l162 -229 l2 -26 l-157 -222 Z" /><glyph glyph-name="quotedblbase" unicode="&#x201e;" d="M53 87 l99 5 l-5 -110 l-55 -126 l-49 17 l47 109 l-37 105 ZM200 87 l99 5 l-5 -110 l-55 -126 l-49 17 l47 109 l-37 105 Z" /><glyph glyph-name="quotedblleft" unicode="&#x201c;" d="M142 492 l-99 -5 l5 110 l55 126 l49 -17 l-47 -109 l37 -105 ZM288 492 l-99 -5 l5 110 l55 126 l49 -17 l-47 -109 l37 -105 Z" /><glyph glyph-name="quotedblright" unicode="&#x201d;" d="M53 710 l99 5 l-5 -110 l-55 -126 l-49 17 l47 109 l-37 105 ZM199 710 l99 5 l-5 -110 l-55 -126 l-49 17 l47 109 l-37 105 Z" /><glyph glyph-name="quoteleft" unicode="&#x2018;" d="M142 492 l-99 -5 l5 110 l55 126 l49 -17 l-47 -109 l37 -105 Z" /><glyph glyph-name="quoteright" unicode="&#x2019;" d="M53 709 l99 5 l-5 -110 l-55 -126 l-49 17 l47 109 l-37 105 Z" /><glyph glyph-name="quotesinglbase" unicode="&#x201a;" d="M53 87 l99 5 l-5 -110 l-55 -126 l-49 17 l47 109 l-37 105 Z" /><glyph glyph-name="uni2003" unicode="&#x2003;" d="" /><glyph glyph-name="uni2002" unicode="&#x2002;" d="" /><glyph glyph-name="uni2005" unicode="&#x2005;" d="" /><glyph glyph-name="uni00A0" unicode=" " d="" /><glyph glyph-name="uni2004" unicode="&#x2004;" d="" /><glyph glyph-name="cent" unicode="¢" d="M296 710 l-16 -162 l-46 0 l0 103 q0 9 -12 9 l-67 -20 q-18 -5 -27 -23.5 q-9 -18.5 -9 -36.5 q0 -11 3 -13 l0 -468 q-3 -1 -3 -3 q0 -3 9 -3 l104 0 q12 0 12 6 l0 68 l26 20 l26 0 l0 -167 l-93 0 l5 -109 l-54 2 l0 107 l-71 0 l-41 42 l20 591 q1 22 18.5 39.5 q17.5 17.5 48.5 17.5 l36 0 l0 101 l48 0 l5 -101 l78 0 Z" /><glyph glyph-name="currency" unicode="¤" d="M283 451 l9 -181 l-19 -19 l56 -50 l-37 -40 l-53 58 l-130 0 l-65 -59 l-34 34 l53 53 l-9 213 l-44 39 l37 47 l53 -58 l144 -7 l51 46 l34 -25 l-46 -51 ZM223 288 q6 0 10.5 4 q4.5 4 4.5 8 l-6 125 q0 7 -12 11 l-95 0 q-16 0 -16 -6 l12 -145 q0 -3 3.5 -6 q3.5 -3 8.5 -3 l90 12 Z" /><glyph glyph-name="dollar" unicode="$" d="M68 0 l-3 60 l154 0 l-12 265 l-139 30 l0 308 q0 16 12.5 31.5 q12.5 15.5 27.5 15.5 l50 0 l-5 101 l54 -2 l0 -99 l68 0 l0 -54 l-151 -5 l9 -241 l142 -33 l0 -317 q0 -21 -21 -40.5 q-21 -19.5 -43 -19.5 l-34 0 l0 -99 l-48 0 l-5 99 l-56 0 Z" /><glyph glyph-name="Euro" unicode="&#x20ac;" d="M277 399 l-130 -5 l-2 -79 l135 5 l-4 -68 l-133 0 l-6 -174 q0 -3 3.5 -6 q3.5 -3 8.5 -3 l111 0 l36 -40 l-7 -29 l-209 0 l0 252 l-60 0 l3 59 l57 2 l0 78 l-60 -2 l0 68 l60 0 l0 253 l219 0 l-26 -68 l-101 14 q-16 0 -16 -6 l-7 -193 l131 1 l-3 -59 Z" /><glyph glyph-name="florin" unicode="&#x192;" d="M119 -39 l-54 -48 l-131 13 l5 42 l106 12 l33 405 l-47 13 l0 50 l52 3 l17 203 l60 51 l136 -15 l-5 -62 l-116 -12 l-13 -169 l115 0 l-5 -58 l-133 -17 l-20 -411 Z" /><glyph glyph-name="uni20B2" unicode="&#x20b2;" d="M227 559 l0 96 l-112 -25 l17 -518 q0 -7 7 -12.5 q7 -5.5 14 -5.5 l46 0 q7 0 13.5 3.5 q6.5 3.5 6.5 8.5 l0 166 l-39 19 l0 52 l102 -10 l0 -275 q0 -26 -21 -42 q-21 -16 -49 -16 l-35 0 l0 -99 l-48 0 l-4 99 l-63 0 l-22 656 q1 24 14.5 39 q13.5 15 34.5 15 l69 0 l-5 101 l54 -2 l0 -99 l82 0 l0 -42 l-18 -109 l-44 0 Z" /><glyph glyph-name="sterling" unicode="£" d="M38 404 l57 -2 l-27 252 q0 24 21 40 q21 16 59 16 l164 0 l0 -56 l-16 -125 l-46 0 l-10 113 q0 9 -12 9 l-71 0 l-24 -9 l32 -243 l130 -5 l3 -59 l-124 0 l18 -133 l-31 -120 l146 -18 l0 -64 l-275 0 l0 43 l43 28 l43 125 l-16 140 l-64 0 l0 68 Z" /><glyph glyph-name="yen" unicode="¥" d="M318 353 l-3 -59 l-112 -4 l1 -54 l114 4 l-4 -68 l-109 0 l4 -172 l-67 0 l0 172 l-122 0 l3 59 l119 3 l0 54 l-122 -4 l0 68 l122 0 l0 1 l-67 119 l0 238 l64 0 l13 -279 l36 -3 l18 282 l56 0 l0 -259 l-60 -99 l116 1 Z" /><glyph glyph-name="uni2215" unicode="&#x2215;" d="M39 -2 l-39 35 l361 674 l34 -28 l-356 -681 Z" /><glyph glyph-name="plus" unicode="+" d="M198 516 l0 -150 l130 -9 l0 -49 l-130 0 l-10 -150 l-48 0 l0 150 l-130 0 l0 58 l135 -5 l-6 155 l59 0 Z" /><glyph glyph-name="minus" unicode="&#x2212;" d="M328 379 l0 -49 l-315 0 l-3 58 l318 -9 Z" /><glyph glyph-name="multiply" unicode="×" d="M270 173 l-101 125 l-107 -122 l-46 45 l121 115 l-121 132 l44 45 l119 -129 l102 120 l41 -40 l-114 -123 l111 -118 l-49 -50 Z" /><glyph glyph-name="divide" unicode="÷" d="M131 536 l92 0 l4 -96 l-96 4 l0 92 ZM328 357 l0 -49 l-315 0 l-3 58 l318 -9 ZM131 224 l96 4 l-4 -96 l-92 0 l0 92 Z" /><glyph glyph-name="equal" unicode="=" d="M318 448 l-3 -59 l-295 -10 l0 68 l298 1 ZM318 290 l-4 -68 l-294 0 l3 59 l295 9 Z" /><glyph glyph-name="notequal" unicode="&#x2260;" d="M118 284 l45 100 l-143 -5 l0 68 l172 0 l67 148 l39 -28 l-52 -120 l72 1 l-3 -59 l-96 -3 l-44 -101 l143 5 l-4 -68 l-166 0 l-63 -144 l-44 35 l49 109 l-70 0 l3 59 l95 3 Z" /><glyph glyph-name="greater" unicode="&gt;" d="M87 158 l-55 83 l204 89 l0 4 l-206 124 l36 58 l238 -152 l4 -66 l-221 -140 Z" /><glyph glyph-name="less" unicode="&lt;" d="M31 298 l4 66 l238 152 l36 -58 l-206 -124 l0 -4 l204 -109 l-45 -63 l-231 140 Z" /><glyph glyph-name="greaterequal" unicode="&#x2265;" d="M87 233 l-55 83 l204 89 l0 4 l-206 124 l36 58 l238 -152 l4 -66 l-221 -140 ZM328 169 l0 -49 l-315 0 l-3 58 l318 -9 Z" /><glyph glyph-name="lessequal" unicode="&#x2264;" d="M31 373 l4 66 l238 152 l36 -58 l-206 -124 l0 -4 l204 -109 l-45 -63 l-231 140 ZM328 169 l0 -49 l-315 0 l-3 58 l318 -9 Z" /><glyph glyph-name="plusminus" unicode="±" d="M198 598 l0 -150 l130 -9 l0 -49 l-130 0 l-10 -150 l-48 0 l0 150 l-130 0 l0 58 l135 -5 l-6 155 l59 0 ZM328 169 l0 -49 l-315 0 l-3 58 l318 -9 Z" /><glyph glyph-name="approxequal" unicode="&#x2248;" d="M164 439 q19 -8 34 -13 q15 -5 25 -5 q8 0 21 5.5 q13 5.5 30 13.5 l55 26 l0 -60 l-83 -48 l-90 33 q-9 3 -22.5 8.5 q-13.5 5.5 -21.5 5.5 q-11 0 -20 -4.5 q-9 -4.5 -36 -21.5 l-42 -27 l-3 64 l94 47 l59 -24 ZM164 287 q19 -8 34 -13 q15 -5 25 -5 q8 0 21 5.5 q13 5.5 30 13.5 l55 26 l0 -60 l-83 -48 l-90 33 q-9 3 -22.5 8.5 q-13.5 5.5 -21.5 5.5 q-11 0 -20 -4.5 q-9 -4.5 -36 -21.5 l-42 -27 l-3 64 l94 47 l59 -24 Z" /><glyph glyph-name="asciitilde" unicode="~" d="M193 366 q22 -10 35 -14 q13 -4 24 -4 q8 0 21 5.5 q13 5.5 30 13.5 l55 26 l0 -60 l-83 -58 l-90 43 q-31 14 -44 14 q-11 0 -20 -4.5 q-9 -4.5 -36 -21.5 l-42 -27 l-3 74 l94 40 l59 -27 Z" /><glyph glyph-name="logicalnot" unicode="¬" d="M10 308 l3 58 l315 0 l0 -49 l-16 -142 l-60 15 l26 125 l-268 -7 Z" /><glyph glyph-name="infinity" unicode="&#x221e;" d="M53 251 l-38 74 l10 145 l124 0 l45 -60 l30 61 l119 -10 l38 -35 l-11 -153 l-54 -44 l-83 17 l-46 76 l-41 -66 l-93 -5 ZM75 408 l-15 -103 l84 0 l27 56 l-14 37 l-82 10 ZM238 321 l92 -21 l8 98 l-99 9 l-25 -40 l24 -46 Z" /><glyph glyph-name="integral" unicode="&#x222b;" d="M145 636 q1 31 20.5 52.5 q19.5 21.5 48.5 21.5 l115 0 l0 -147 l-52 7 l0 85 l-72 5 l0 -566 l-75 -94 l-110 0 l0 161 l44 0 l18 -106 l52 45 l11 536 Z" /><glyph glyph-name="product" unicode="&#x220f;" d="M49 702 l204 8 l0 -687 l-50 0 l-20 618 l-77 6 l0 -647 l-64 0 l7 702 Z" /><glyph glyph-name="summation" unicode="&#x2211;" d="M271 10 l-248 -10 l-11 31 l141 334 l-129 277 l55 68 l203 0 l0 -58 l-163 -20 l122 -244 l-137 -305 l155 18 l12 -91 Z" /><glyph glyph-name="radical" unicode="&#x221a;" d="M133 -10 l-48 279 l-71 19 l-4 37 l119 0 l38 -247 l4 0 l68 632 l138 0 l4 -54 l-87 -9 l-95 -647 l-66 -10 Z" /><glyph glyph-name="partialdiff" unicode="&#x2202;" d="M91 704 l49 24 l143 -281 l16 -447 l-250 0 l0 388 l94 34 l81 0 l-133 282 ZM113 60 l111 10 l-10 291 l-101 -21 l0 -280 Z" /><glyph glyph-name="percent" unicode="%" d="M166 710 l0 -289 l-25 -26 l-114 0 l0 315 l139 0 ZM63 -2 l-39 35 l361 674 l34 -28 l-356 -681 ZM117 440 q7 0 7 6 l-10 206 q0 3 -6 6 l-30 15 q-8 0 -8 -3 l10 -226 q0 -4 6 -4 l31 0 ZM277 0 l0 315 l114 0 l25 -26 l0 -289 l-139 0 ZM336 270 q-6 0 -6 -4 l-10 -226 q0 -3 8 -3 l30 15 q6 3 6 6 l10 206 q0 6 -7 6 l-31 0 Z" /><glyph glyph-name="perthousand" unicode="&#x2030;" d="M166 710 l0 -289 l-25 -26 l-114 0 l0 315 l139 0 ZM63 -2 l-39 35 l361 674 l34 -28 l-356 -681 ZM117 440 q7 0 7 6 l-10 206 q0 3 -6 6 l-30 15 q-8 0 -8 -3 l10 -226 q0 -4 6 -4 l31 0 ZM277 0 l0 315 l114 0 l25 -26 l0 -289 l-139 0 ZM609 314 l0 -289 l-25 -26 l-114 0 l0 315 l139 0 ZM560 44 q7 0 7 6 l-10 206 q0 3 -6 6 l-30 15 q-8 0 -8 -3 l10 -226 q0 -4 6 -4 l31 0 ZM336 270 q-6 0 -6 -4 l-10 -226 q0 -3 8 -3 l30 15 q6 3 6 6 l10 206 q0 6 -7 6 l-31 0 Z" /><glyph glyph-name="lozenge" unicode="&#x25ca;" d="M186 10 l-80 -10 l-101 350 l139 350 l80 10 l101 -370 l-139 -330 ZM157 58 l8 -2 l78 262 l-74 314 l-4 2 l-82 -255 l74 -321 Z" /><glyph glyph-name="at" unicode="@" d="M460 642 l-317 12 l-9 -6 l-19 -587 l9 -9 l351 -15 l-10 -37 l-406 0 l0 710 l467 0 l-30 -597 l-304 20 l-16 194 l84 54 l72 0 l5 108 l-31 27 l-120 -14 l21 68 l184 0 l-13 -395 l58 0 l33 461 l-9 6 ZM246 213 l82 -20 l5 137 l-83 -21 l-4 -96 Z" /><glyph glyph-name="ampersand" unicode="&amp;" d="M77 352 l-36 55 l10 303 l233 0 l0 -178 l-47 0 l-9 100 q0 6 -16 6 l-86 12 q-1 1 -5 1 q-10 0 -10 -10 l10 -247 l227 0 l10 -46 l-86 -9 l22 -20 l0 -277 l-46 -42 l-210 0 l0 292 l6 24 l33 36 ZM222 65 l9 269 l-111 -11 l-9 -263 l111 5 Z" /><glyph glyph-name="paragraph" unicode="¶" d="M358 681 l-42 -12 l0 -769 l-32 0 l-25 766 l-27 4 l0 -770 l-48 0 l0 446 l-53 0 q-42 0 -65 14.5 q-23 14.5 -30.5 31 q-7.5 16.5 -7.5 27.5 l0 242 q0 20 26 34.5 q26 14.5 64 14.5 l240 0 l0 -29 Z" /><glyph glyph-name="section" unicode="§" d="M271 113 l-24 -288 q-2 -21 -22.5 -40.5 q-20.5 -19.5 -41.5 -19.5 l-143 0 l0 68 l139 0 l0 228 l-129 30 l27 278 l-30 7 l11 310 l40 24 l146 0 l-5 -141 l-37 0 l-20 78 l-49 -7 l-26 -219 l157 -6 l-25 -295 l32 -7 ZM145 355 l-15 -209 l41 -10 l21 210 l-47 9 Z" /><glyph glyph-name="copyright" unicode="©" d="M60 0 l0 710 l467 0 l-37 -710 l-430 0 ZM470 636 l-9 6 l-317 12 l-9 -6 l-19 -587 l9 -9 l300 -12 l45 596 ZM378 110 l-153 0 l-41 42 l0 381 q0 22 18 39.5 q18 17.5 49 17.5 l13 -1 l114 -20 l-16 -161 l-46 0 l0 113 q0 9 -12 9 l-22 0 q-19 0 -27.5 -15.5 q-8.5 -15.5 -8.5 -34.5 q0 -11 3 -13 l0 -298 q-3 -1 -3 -3 q0 -3 9 -3 l59 0 q12 0 12 6 l0 88 l26 20 l26 0 l0 -167 Z" /><glyph glyph-name="registered" unicode="®" d="M490 710 l37 -710 l-467 0 l0 710 l430 0 ZM425 670 l-300 -12 l-9 -9 l19 -587 l9 -6 l317 12 l9 6 l-45 596 ZM306 591 q36 0 55 -13.5 q19 -13.5 20 -35.5 l-10 -129 q-2 -30 -11 -44 q-9 -14 -33 -23 l40 -69 l21 -156 l-65 0 l0 124 l-43 95 l-40 0 l0 -219 l-48 0 l0 429 l-22 12 l0 29 l136 0 ZM254 394 q0 -3 3.5 -5.5 q3.5 -2.5 8.5 -2.5 l43 0 q6 0 6 6 l0 127 q0 14 -6.5 23 q-6.5 9 -25.5 9 l-17 -10 q-12 -4 -12 -12 l0 -135 Z" /><glyph glyph-name="trademark" unicode="&#x2122;" d="M176 356 l0 354 l63 0 l26 -184 l4 0 l22 194 l67 0 l0 -355 l-43 0 l11 321 l-4 0 l-40 -233 l-35 0 l-32 209 l-4 0 l0 -306 l-35 0 ZM150 683 l-36 0 l0 -308 l-50 0 l0 311 l-34 6 l4 18 l116 0 l0 -27 Z" /><glyph glyph-name="degree" unicode="°" d="M191 517 q0 -4 -9 -8 q-9 -4 -22 -4 q-37 0 -73.5 4.5 q-36.5 4.5 -36.5 7.5 l0 174 q0 19 27 19 l109 0 l5 -193 ZM98 550 l42 5 q4 1 4 3 l4 111 l-5 5 l-54 -13 l5 -108 l4 -3 Z" /><glyph glyph-name="bar" unicode="|" d="M125 -129 l-50 3 l0 888 l43 0 l7 -891 Z" /><glyph glyph-name="brokenbar" unicode="¦" d="M125 401 l-50 3 l0 358 l43 0 l7 -361 ZM79 237 l43 0 l0 -358 l-50 -3 l7 361 Z" /><glyph glyph-name="uni2113" unicode="&#x2113;" d="M240 381 l-122 -184 l-3 -147 l72 5 l0 85 l52 7 l0 -147 l-115 0 q-29 0 -49 21.5 q-20 21.5 -20 52.5 l0 122 l-56 0 l0 70 l49 -13 l7 0 l0 363 l75 94 l110 0 l0 -329 ZM191 409 l0 169 l-10 62 l-3 15 l-52 -45 l-6 -329 l71 128 Z" /><glyph glyph-name="dagger" unicode="&#x2020;" d="M134 487 l0 275 l64 0 l-4 -277 l124 -3 l0 -49 l-125 0 l-9 -562 l-50 3 l0 559 l-131 0 l-3 58 l134 -4 Z" /><glyph glyph-name="daggerdbl" unicode="&#x2021;" d="M134 487 l0 275 l63 0 l-4 -277 l125 -3 l0 -49 l-126 0 l-3 -198 l129 1 l-3 -58 l-127 4 l-4 -311 l-50 3 l0 310 l-134 5 l0 45 l134 1 l0 198 l-131 0 l-3 58 l134 -4 Z" /><glyph glyph-name="estimated" unicode="&#x212e;" d="M151 76 q0 -6 9 -6 l172 0 q6 0 17.5 13.5 q11.5 13.5 11.5 22.5 l2 107 l65 0 l0 -137 l-63 -76 l-226 0 l-89 92 l0 536 l93 82 l195 0 l90 -78 l0 -260 l-277 0 l0 -296 ZM160 658 q-9 0 -9 -9 l0 -207 l173 0 l4 207 q0 4 -5.5 6.5 q-5.5 2.5 -13.5 2.5 l-149 0 Z" /><glyph glyph-name="asciicircum" unicode="^" d="M167 490 l40 -3 l133 -191 l-29 -19 l-124 143 l-128 -143 l-29 19 l137 194 Z" /><glyph glyph-name="uni0308" unicode="&#x308;" d="M-259 895 l83 3 l-4 -83 l-79 0 l0 80 ZM-109 898 l79 0 l0 -80 l-76 -3 l-3 83 Z" /><glyph glyph-name="uni0307" unicode="&#x307;" d="M-123 900 l93 0 l0 -95 l-89 -3 l-4 98 Z" /><glyph glyph-name="gravecomb" unicode="&#x300;" d="M-20 792 l-34 -24 l-96 84 l46 48 l84 -108 Z" /><glyph glyph-name="acutecomb" unicode="&#x301;" d="M-66 900 l46 -48 l-96 -84 l-34 24 l84 108 Z" /><glyph glyph-name="uni030B" unicode="&#x30b;" d="M-196 900 l46 -48 l-96 -84 l-34 24 l84 108 ZM-66 900 l46 -48 l-96 -84 l-34 24 l84 108 Z" /><glyph glyph-name="uni0302" unicode="&#x302;" d="M-134 900 l40 -3 l74 -110 l-29 -19 l-65 62 l-65 -62 l-29 19 l74 113 Z" /><glyph glyph-name="uni030C" unicode="&#x30c;" d="M-94 768 l-40 3 l-74 110 l29 19 l65 -62 l65 62 l29 -19 l-74 -113 Z" /><glyph glyph-name="uni0306" unicode="&#x306;" d="M-190 894 l-5 -48 l12 -11 l110 -5 l-3 66 l46 4 l0 -76 l-39 -39 l-125 0 l-45 28 l-4 81 l53 0 Z" /><glyph glyph-name="uni030A" unicode="&#x30a;" d="M-30 900 l0 -109 l-25 -26 l-114 0 l0 135 l139 0 ZM-79 800 q7 0 7 6 l0 56 q0 3 -6 6 l-40 5 q-8 0 -8 -3 l0 -66 q0 -4 6 -4 l41 0 Z" /><glyph glyph-name="tildecomb" unicode="&#x303;" d="M-214 897 q25 0 54 -20 l38 -25 l72 48 l0 -60 l-24 -23 q-10 -9 -22.5 -16 q-12.5 -7 -21.5 -7 q-18 0 -45 19 l-44 31 l-68 -53 l-3 69 l26 23 q17 14 38 14 Z" /><glyph glyph-name="uni0304" unicode="&#x304;" d="M-30 891 l0 -55 l-265 -9 l-3 64 l268 0 Z" /><glyph glyph-name="dotbelowcomb" unicode="&#x323;" d="M-123 900 l93 0 l0 -95 l-89 -3 l-4 98 Z" /><glyph glyph-name="uni0326" unicode="&#x326;" d="M-109 -78 l81 0 l3 -82 l-33 -90 l-55 16 l46 74 l-42 0 l0 82 Z" /><glyph glyph-name="uni0327" unicode="&#x327;" d="M-152 -45 l112 0 l-24 -103 q0 -21 -21 -40.5 q-21 -19.5 -43 -19.5 l-123 0 l0 58 l129 0 l10 53 l-105 8 l40 142 l65 -21 l-40 -77 Z" /><glyph glyph-name="uni02BC" unicode="&#x2bc;" d="M39 710 l81 0 l3 -82 l-33 -90 l-55 16 l46 74 l-42 0 l0 82 Z" /><glyph glyph-name="acute" unicode="´" d="M104 900 l46 -48 l-96 -84 l-34 24 l84 108 Z" /><glyph glyph-name="breve" unicode="&#x2d8;" d="M83 894 l-5 -48 l12 -11 l110 -5 l-3 66 l46 4 l0 -76 l-39 -39 l-125 0 l-45 28 l-4 81 l53 0 Z" /><glyph glyph-name="caron" unicode="&#x2c7;" d="M134 768 l-40 3 l-74 110 l29 19 l65 -62 l65 62 l29 -19 l-74 -113 Z" /><glyph glyph-name="cedilla" unicode="¸" d="M139 -45 l112 0 l-24 -103 q0 -21 -21 -40.5 q-21 -19.5 -43 -19.5 l-123 0 l0 58 l129 0 l10 53 l-105 8 l40 142 l65 -21 l-40 -77 Z" /><glyph glyph-name="circumflex" unicode="&#x2c6;" d="M94 900 l40 -3 l74 -110 l-29 -19 l-65 62 l-65 -62 l-29 19 l74 113 Z" /><glyph glyph-name="dieresis" unicode="¨" d="M30 895 l83 3 l-4 -83 l-79 0 l0 80 ZM180 898 l79 0 l0 -80 l-76 -3 l-3 83 Z" /><glyph glyph-name="dotaccent" unicode="&#x2d9;" d="M30 900 l93 0 l0 -95 l-89 -3 l-4 98 Z" /><glyph glyph-name="grave" unicode="`" d="M150 792 l-34 -24 l-96 84 l46 48 l84 -108 Z" /><glyph glyph-name="hungarumlaut" unicode="&#x2dd;" d="M104 900 l46 -48 l-96 -84 l-34 24 l84 108 ZM234 900 l46 -48 l-96 -84 l-34 24 l84 108 Z" /><glyph glyph-name="macron" unicode="¯" d="M298 891 l0 -55 l-265 -9 l-3 64 l268 0 Z" /><glyph glyph-name="ogonek" unicode="&#x2db;" d="M118 40 l0 -40 l-26 -83 l34 -62 l89 45 l16 -46 l-113 -63 l-88 114 l73 145 l15 -10 Z" /><glyph glyph-name="ring" unicode="&#x2da;" d="M169 900 l0 -109 l-25 -26 l-114 0 l0 135 l139 0 ZM120 800 q7 0 7 6 l0 56 q0 3 -6 6 l-40 5 q-8 0 -8 -3 l0 -66 q0 -4 6 -4 l41 0 Z" /><glyph glyph-name="tilde" unicode="&#x2dc;" d="M114 897 q25 0 54 -20 l38 -25 l72 48 l0 -60 l-24 -23 q-10 -9 -22.5 -16 q-12.5 -7 -21.5 -7 q-18 0 -45 19 l-44 31 l-68 -53 l-3 69 l26 23 q17 14 38 14 Z" /></font>
</defs>
</svg>
