<?xml version="1.0" standalone="no"?><!DOCTYPE svg PUBLIC "-//W3C//DTD SVG 1.1//EN" "http://www.w3.org/Graphics/SVG/1.1/DTD/svg11.dtd" ><svg xmlns="http://www.w3.org/2000/svg"><metadata></metadata><defs><font id="FontForge 2.0 : Creepster : 19-12-2011" horiz-adv-x="837"><font-face font-family="Creepster" font-weight="400" font-stretch="normal" units-per-em="1024" panose-1="2 0 0 0 0 0 0 0 0 0" ascent="974" descent="-223" x-height="0" bbox="-102 -223 826 971" underline-thickness="51" underline-position="-77" unicode-range="U+0020-fb02" /><missing-glyph horiz-adv-x="241"  /><glyph glyph-name=".null" unicode="" d="" /><glyph glyph-name="nonmarkingreturn" unicode="" d="" /><glyph glyph-name="space" unicode=" " d="" /><glyph glyph-name="exclam" unicode="!" d="M160 308 l-2 -71 q0 -69 -29 -92 q-19 -13 -33.5 -11 q-14.5 2 -22.5 11 q-8 9 -8.5 21 q-0.5 12 -5 34.5 q-4.5 22.5 -11 45 q-6.5 22.5 -4.5 48.5 q2 26 2.5 49 q0.5 23 -8.5 34 q-12 15 -12 34 q0 12 4 21 q9 26 9 46 q0 20 -1 29 q-1 9 -2.5 17.5 q-1.5 8.5 -3.5 26 q-2 17.5 0 40 q2 22.5 0 45.5 q-2 23 -2.5 37 q-0.5 14 6.5 33.5 q7 19.5 11.5 25.5 q4.5 6 15.5 11.5 q11 5.5 15 8 q4 2.5 11 1.5 q7 -1 15 -9.5 q8 -8.5 19 -13.5 q11 -5 25.5 -12 q14.5 -7 16.5 -22.5 q2 -15.5 3.5 -18.5 q1.5 -3 3.5 -5 q2 -4 4 -26.5 q2 -22.5 -3.5 -45 q-5.5 -22.5 -6 -37.5 q-0.5 -15 -5.5 -30.5 q-5 -15.5 -3.5 -32 q1.5 -16.5 0.5 -24.5 q-1 -8 -2.5 -14.5 q-1.5 -6.5 -1.5 -13.5 q0 -7 3.5 -21.5 q3.5 -14.5 3 -26.5 q-0.5 -12 1 -25.5 q1.5 -13.5 0 -27 q-1.5 -13.5 -1.5 -39.5 ZM34 18 q-3 7 -1.5 15 q1.5 8 16.5 21 q15 13 37 25 q22 12 60 7 q18 -2 28 -21 q21 -36 -19 -65 q-18 -12 -32 -14.5 q-14 -2.5 -19.5 -9 q-5.5 -6.5 -17.5 -3.5 q-12 3 -16 12.5 q-4 9.5 -12 12.5 q-8 3 -14.5 8 q-6.5 5 -9.5 12 Z" /><glyph glyph-name="quotedbl" unicode="&quot;" d="M83 729 q44 0 39 -67 q-3 -34 -11.5 -84.5 q-8.5 -50.5 -7 -63 q1.5 -12.5 2 -25.5 q0.5 -13 -2.5 -25 q-7 -27 -35 -27 q-20 0 -32 30 q-11 25 -11.5 64 q-0.5 39 1.5 66 q2 27 -4.5 43.5 q-6.5 16.5 -6.5 28.5 q0 12 2 23 q5 24 12.5 30.5 q7.5 6.5 14 10.5 q6.5 4 19.5 0 q13 -4 20 -4 ZM172 508 l-5 74 l0 18 q0 9 -3 17 q-3 8 -1 16 q2 8 0 13 q-2 5 1 10.5 q3 5.5 1 11.5 q-2 6 1.5 8.5 q3.5 2.5 -0.5 9.5 q-5 12 4.5 23 q9.5 11 12.5 16 q3 5 8.5 2.5 q5.5 -2.5 11 -0.5 q5.5 2 11.5 4 q18 6 24 2 q6 -5 6 -12 q7 1 12 -3.5 q5 -4.5 8 -23.5 q6 -28 -2.5 -58.5 q-8.5 -30.5 -7.5 -50 q1 -19.5 -4 -36.5 q-5 -17 -5.5 -31.5 q-0.5 -14.5 -0.5 -29.5 q-3 -62 -48 -44 q-20 9 -22 25 q-2 14 -2 39 Z" /><glyph glyph-name="numbersign" unicode="#" d="M104 303 q4 14 5.5 22.5 q1.5 8.5 12.5 12 q11 3.5 12.5 24.5 q1.5 21 -3.5 39 q-19 0 -39 -0.5 q-20 -0.5 -36 3.5 q-37 8 -34 43 q2 46 53 42 q12 -1 31 -1 q19 0 39 6 q36 97 32 143 q-4 46 13 77 q17 31 46 31 q27 0 37 -44 q11 -37 -1 -79 q-31 -109 -25 -121 q2 -3 27 -2 q53 4 65 3 q43 -7 49.5 0 q6.5 7 11 26.5 q4.5 19.5 7.5 41.5 q5 38 5 72 q-2 17 -0.5 29.5 q1.5 12.5 10 18 q8.5 5.5 13 13 q4.5 7.5 15.5 17.5 q28 26 44 18 q8 -4 9.5 -13 q1.5 -9 4.5 -17 q8 -28 -6 -60 q-9 -20 -12 -43 q-3 -23 -6.5 -36 q-3.5 -13 -5 -32 q-1.5 -19 0.5 -25 q3 -9 29 -12 q33 10 37 20 q21 9 43 -10 q8 -10 12.5 -14.5 q4.5 -4.5 4 -18 q-0.5 -13.5 -8 -20.5 q-7.5 -7 -20.5 -19 q-24 -19 -48 -12 q-5 2 -15 2 q-10 0 -21 -1 q-26 -2 -37 -5 q-11 -29 -14 -53 q-3 -24 -10 -41 q-7 -17 -2 -21.5 q5 -4.5 17.5 -4.5 q12.5 0 26 2 q13.5 2 27.5 4 q35 3 45.5 -4.5 q10.5 -7.5 10.5 -27.5 q0 -20 -11.5 -31 q-11.5 -11 -27.5 -15.5 q-16 -4.5 -42 -4.5 l-37 0 q-22 0 -26 -5.5 q-4 -5.5 -10 -40 q-6 -34.5 -18.5 -71.5 q-12.5 -37 -16.5 -55.5 q-4 -18.5 -8.5 -31.5 q-4.5 -13 -10.5 -23 q-16 -22 -36 -15 q-47 14 -13 92 q40 89 35 144 q-2 17 -60 17 q-52 0 -70 -5.5 q-18 -5.5 -26.5 -21.5 q-8.5 -16 -5.5 -26.5 q3 -10.5 -3 -34.5 q-6 -24 -14.5 -37.5 q-8.5 -13.5 -13 -27 q-4.5 -13.5 -9 -28 q-4.5 -14.5 -8.5 -28 q-4 -13.5 -12 -25.5 q-21 -29 -49 -20 q-25 8 -29 47 q-2 21 5.5 34.5 q7.5 13.5 9.5 27.5 q2 14 6.5 26 q4.5 12 8.5 27 q8 34 13 47 q9 20 13 38 q-24 -5 -45 -8 q-21 -3 -31.5 3.5 q-10.5 6.5 -12.5 17 q-2 10.5 1 21.5 q6 27 25 33 q34 13 77 7 ZM191 301 q28 15 55 0 q17 -12 32 -11 q15 1 33.5 9 q18.5 8 33.5 8 l28 104 q-16 12 -33 12 q-46 0 -93 0 q-21 -1 -33 -16 q-5 -7 -13 -51.5 q-8 -44.5 -10 -54.5 Z" /><glyph glyph-name="dollar" unicode="$" d="M152 670 q2 16 2 26 q-22 43 15 53 q22 4 43 -6 q40 -18 46 -38 q2 -8 0 -20 q-2 -12 -4 -26 q20 -9 33.5 -9.5 q13.5 -0.5 24 -5 q10.5 -4.5 15.5 -9.5 q5 -5 8 -11 q3 -6 5.5 -12.5 q2.5 -6.5 7 -13 q4.5 -6.5 5.5 -13 q1 -6.5 1 -12.5 l0 -11 q0 -6 3.5 -14 q3.5 -8 1 -24 q-2.5 -16 -5.5 -20 q-10 -13 -30.5 -15 q-20.5 -2 -24 -7.5 q-3.5 -5.5 -1.5 -10.5 q-9 -9 -21 -19 q-28 5 -35 10 q-15 11 -17 39 q-6 35 -33 40 q-36 8 -59 -33 q-3 -7 -7 -20.5 q-4 -13.5 5 -29.5 q9 -16 12.5 -23 q3.5 -7 6.5 -12 q5 -9 17 -14 q12 -5 17.5 -10 q5.5 -5 10 -9.5 q4.5 -4.5 9 -9 q4.5 -4.5 19.5 -10.5 q45 -19 53 -47 q24 -12 31 -23 q7 -11 12 -25 q12 -30 0 -89 q-3 -18 -8 -45.5 q-5 -27.5 -13.5 -40.5 q-8.5 -13 -33.5 -8 q-10 -7 -20.5 -18 q-10.5 -11 -24.5 -18 q2 -12 2 -26 q0 -14 -10 -24 q-22 -22 -38 -8 q-8 7 -9.5 13.5 q-1.5 6.5 -2.5 23.5 l-1 13 q-17 2 -33.5 8 q-16.5 6 -19 19.5 q-2.5 13.5 -6 18 q-3.5 4.5 -8.5 7 q-5 2.5 -11.5 5.5 q-6.5 3 -15 11 q-8.5 8 -12.5 15.5 q-4 7.5 -5.5 15 q-1.5 7.5 -1.5 15 q0 7.5 -3 20 q-3 12.5 -5 23.5 q-2 11 8 22 q24 24 42.5 18.5 q18.5 -5.5 26 -17 q7.5 -11.5 12 -28 q4.5 -16.5 6 -26 q1.5 -9.5 3.5 -17.5 q4 -15 25 -17 q21 -2 33.5 4.5 q12.5 6.5 13.5 38.5 q1 32 -3 55 q-4 23 -33 36 q-20 8 -24 15 q-4 7 -8 10 q-4 3 -15.5 5.5 q-11.5 2.5 -17.5 7.5 q-6 5 -11 11 q-16 20 -26 26.5 q-10 6.5 -15 11.5 q-5 5 -8.5 10 q-3.5 5 -6.5 10 q-3 5 -9 11 q-15 15 -19 76 q-1 16 -2.5 31.5 q-1.5 15.5 4.5 36 q6 20.5 6.5 33 q0.5 12.5 4 17.5 q3.5 5 7.5 9 q15 11 20 20 q5 9 12.5 12 q7.5 3 17 9.5 q9.5 6.5 16.5 9 q7 2.5 14 9.5 q17 14 40 14 Z" /><glyph glyph-name="percent" unicode="%" d="M472 737 q15 -4 28 -19 q13 -15 14.5 -36.5 q1.5 -21.5 -5.5 -33 q-7 -11.5 -17 -19 q-10 -7.5 -19 -13 q-9 -5.5 -11.5 -12 q-2.5 -6.5 -1.5 -13.5 q1 -7 1 -15 q0 -19 -16 -35 l-13 -17 q-6 -7 -10 -13.5 q-4 -6.5 -12 -14.5 q-22 -22 -29 -38.5 q-7 -16.5 -18 -29 q-11 -12.5 -27.5 -35 q-16.5 -22.5 -25.5 -40 q-9 -17.5 -23.5 -30 q-14.5 -12.5 -18 -30 q-3.5 -17.5 -6.5 -29.5 q-6 -30 -30 -52 q-22 -22 -33 -97 q-11 -79 -51 -121 q-16 -17 -37 -18.5 q-21 -1.5 -34 6 q-13 7.5 -17 20.5 q-10 28 16 67 q7 11 8.5 19 q1.5 8 10.5 17 q9 9 14 11.5 q5 2.5 7 14.5 q2 12 12 22 q10 10 14 28.5 q4 18.5 13 29 q9 10.5 14 26 q5 15.5 12.5 22 q7.5 6.5 15.5 20 q8 13.5 10.5 19 q2.5 5.5 4.5 10.5 q6 13 18 29 q12 16 20 30.5 q8 14.5 15 25.5 q14 31 22.5 42 q8.5 11 19.5 23.5 q11 12.5 23 27.5 q29 38 40 68 q11 34 46 124 q-16 16 -43 5 q-10 -3 -22.5 -9 q-12.5 -6 -24.5 -12 q-32 -14 -37 -14.5 q-5 -0.5 -14 -0.5 q-9 0 -19 2 q3 -16 2 -25.5 q-1 -9.5 1 -18 q2 -8.5 -1 -22.5 q-3 -14 -0.5 -25 q2.5 -11 -4.5 -27 q-7 -16 -12 -32.5 q-5 -16.5 -14.5 -29 q-9.5 -12.5 -19 -23 q-9.5 -10.5 -18.5 -19 q-9 -8.5 -16.5 -21 q-7.5 -12.5 -28 -21.5 q-20.5 -9 -43 -6 q-22.5 3 -38.5 14 q-16 11 -27 26 q-26 33 -26 61.5 q0 28.5 2 50 q2 21.5 16 44.5 q-18 110 70 161 q30 18 51 16 q59 -4 85 -47 q21 -10 46 -3.5 q25 6.5 47 15 q22 8.5 43 16.5 q45 18 52 22 q7 4 22 0 q15 -4 28 -18 ZM74.5 516.5 q4.5 -18.5 19 -35 q14.5 -16.5 27.5 -14.5 q13 2 25 16 q12 14 22 32 q31 56 10 73 q-16 14 -19.5 32 q-3.5 18 -10.5 26 q-14 13 -20 2 q-2 -4 -6.5 -15 q-4.5 -11 -16.5 -27.5 q-12 -16.5 -17 -30.5 q-5 -14 -11.5 -27 q-6.5 -13 -2 -31.5 ZM477.5 350 q15.5 -4 19.5 -3.5 q4 0.5 14.5 -2 q10.5 -2.5 22.5 -18 q12 -15.5 13.5 -39.5 q1.5 -24 3 -35 q1.5 -11 2.5 -22 q2 -20 -1.5 -53.5 q-3.5 -33.5 -15.5 -63 q-12 -29.5 -28 -55.5 q-36 -58 -70 -66 q-52 -9 -102 16 q-11 5 -15 15 q-4 10 -12.5 18.5 q-8.5 8.5 -11.5 20 q-3 11.5 -5 24.5 q-2 13 -3 26 q-1 13 -2.5 23.5 q-1.5 10.5 1.5 20 q3 9.5 7.5 17 q4.5 7.5 9.5 14.5 q5 7 10 20 q5 13 21.5 30 q16.5 17 27.5 32 q11 15 16.5 25 q5.5 10 11.5 19 q14 21 35 28 q35 13 50.5 9 ZM454 243 q-11 1 -18.5 -4 q-7.5 -5 -19.5 -13 q-12 -8 -18.5 -8 q-6.5 0 -9.5 -8 q-3 -8 -10.5 -9.5 q-7.5 -1.5 -11.5 -13.5 q-4 -12 -5.5 -34.5 q-1.5 -22.5 6.5 -36.5 q3 -8 3.5 -13.5 q0.5 -5.5 1.5 -9.5 q4 -8 18 -13 q18 -6 44 21 q25 27 25 45 q0 6 3.5 15.5 q3.5 9.5 7.5 20.5 q13 43 -16 61 Z" /><glyph glyph-name="ampersand" unicode="&amp;" d="M247 386 q64 -99 79 -99 q11 0 27 21 q29 38 33 64 q8 56 40 58 q17 2 26 -13 q9 -15 13.5 -37.5 q4.5 -22.5 7 -37 q2.5 -14.5 3.5 -28.5 q1 -32 -9.5 -43 q-10.5 -11 -27.5 -16 q-7 -11 -15 -23.5 q-8 -12.5 -16 -25.5 q-17 -27 -23 -44 q9 -39 36 -61 q22 -19 27 -32 q10 -25 -1.5 -40.5 q-11.5 -15.5 -23 -26.5 q-11.5 -11 -30.5 -6 q-19 5 -30 7.5 q-11 2.5 -19 9.5 q-18 16 -18 60 q-13 -14 -28 -24 q-15 -10 -22 -20.5 q-7 -10.5 -15 -20.5 q-8 -10 -18 -18 q-23 -17 -52.5 -6 q-29.5 11 -47.5 20.5 q-18 9.5 -31 9.5 q-13 0 -22 5.5 q-9 5.5 -16 12.5 q-21 20 -40 23.5 q-19 3.5 -25 19 q-6 15.5 -3 29.5 q11 39 7 71.5 q-4 32.5 -1 54 q3 21.5 10 42.5 q17 49 50 72 q16 12 26 18.5 q10 6.5 16 10.5 q15 11 6 34 q-5 11 -11 23 q-17 31 -18 51 q-2 27 -5 33 q-3 6 -7.5 20 q-4.5 14 -3.5 30 q1 16 0 27 q-2 17 4 25 l8 12 q3 5 3.5 22 q0.5 17 8.5 28.5 q8 11.5 16 22.5 q3 6 7 6 q8 0 16 11 q8 11 19 15.5 q11 4.5 26.5 6.5 q15.5 2 32.5 2 q53 2 78 3 q55 2 57 -38 q1 -11 1 -19 l0 -14 q26 -22 27 -46.5 q1 -24.5 -8 -36 q-9 -11.5 -10.5 -16.5 q-1.5 -5 -3.5 -12.5 q-2 -7.5 -5 -16.5 q-7 -21 -13.5 -30.5 q-6.5 -9.5 -14.5 -19.5 q-8 -10 -18 -22 q-31 -40 -59 -88 ZM232 525.5 q-1 14.5 -9 16.5 q-8 2 -28 4.5 q-20 2.5 -23 -9.5 q-3 -12 2 -24 q7 -16 12 -48 q8 9 16.5 16.5 q8.5 7.5 15.5 14.5 q15 15 14 29.5 ZM116 191.5 q2 -33.5 13 -47.5 q11 -14 34 -29 q23 -15 33.5 -11.5 q10.5 3.5 16 10 q5.5 6.5 11.5 8.5 q6 2 12 4 q17 5 20 18 q6 28 -30 54 q-17 11 -23 21.5 q-6 10.5 -8 33.5 q-8 48 -27 49 q-17 0 -35 -38 q-19 -39 -17 -72.5 Z" /><glyph glyph-name="quotesingle" unicode="&#39;" d="M102 721 q17 2 20 -24 q5 -22 3.5 -35 q-1.5 -13 -8 -35 q-6.5 -22 -5.5 -41.5 q1 -19.5 -4.5 -36.5 q-5.5 -17 -6 -31.5 q-0.5 -14.5 -0.5 -29.5 q0 -63 -47 -44 q-20 9 -22 25 q-1 7 -1 17 l0 22 q0 28 -3 39 q-3 11 -3 28 l0 25 q0 9 -3.5 17 q-3.5 8 -1.5 16 q2 8 0 13 q-1 5 2.5 10.5 q3.5 5.5 1 11.5 q-2.5 6 1.5 8.5 q4 2.5 0 9.5 q-6 13 8 27 q5 7 8.5 12 q3.5 5 8 2.5 q4.5 -2.5 10 -0.5 q5.5 2 12.5 4 q30 9 30 -10 Z" /><glyph glyph-name="parenleft" unicode="(" d="M193 768 q6 5 12 7.5 q6 2.5 11.5 -1.5 q5.5 -4 7 -12.5 q1.5 -8.5 0.5 -17.5 q-2 -21 -19 -33.5 q-17 -12.5 -22.5 -23.5 q-5.5 -11 -8.5 -14 q-3 -3 -6 -9 q-7 -17 -10 -34 q-3 -17 -6 -24.5 q-3 -7.5 -6 -13.5 q-5 -12 -5 -27.5 q0 -15.5 -1.5 -22.5 q-1.5 -7 -4 -11.5 q-2.5 -4.5 -5.5 -9.5 q-9 -12 -13 -34 q-5 -26 -13 -57 q-8 -30 12 -72 q7 -16 3 -25 q-4 -9 -7 -19 q-6 -26 4.5 -55.5 q10.5 -29.5 12.5 -40.5 q2 -11 3 -17 q3 -15 12 -32.5 q9 -17.5 9 -31 q0 -13.5 6 -20 q6 -6.5 6.5 -17.5 q0.5 -11 10.5 -20.5 q10 -9.5 13.5 -22 q3.5 -12.5 8.5 -17 q5 -4.5 10 -11.5 q5 -7 8.5 -15 q3.5 -8 3.5 -16.5 q0 -8.5 -6 -14.5 q-13 -13 -46 16 q-7 6 -11.5 8.5 q-4.5 2.5 -10.5 16 q-6 13.5 -17 23 q-11 9.5 -13.5 22.5 q-2.5 13 -8.5 17.5 q-6 4.5 -8.5 10.5 q-2.5 6 -4.5 12 q-5 16 -11 19 q-6 3 -9 19 q-7 29 -12.5 36.5 q-5.5 7.5 -5.5 20 q0 12.5 -4 21 q-4 8.5 -3.5 19 q0.5 10.5 -2.5 18.5 q-5 11 -10 48 q-2 14 -2 24 q0 10 -3.5 21.5 q-3.5 11.5 -3.5 32.5 q0 21 -0.5 31 q-0.5 10 1 19.5 q1.5 9.5 4.5 20.5 q6 27 4 42 q-3 26 17 63 q5 10 11 18 q13 21 20 43 q18 52 28 57 q3 17 18 33 q23 26 34 31 q11 5 17 11 q6 6 12 11 Z" /><glyph glyph-name="parenright" unicode=")" d="M206 447 q1 -4 1 -26.5 q0 -22.5 -1 -52.5 q-1 -73 -11 -106 q-15 -49 -25.5 -87.5 q-10.5 -38.5 -17.5 -50.5 q-7 -12 -9.5 -25.5 q-2.5 -13.5 -12.5 -19 q-10 -5.5 -14.5 -17.5 q-4.5 -12 -12.5 -21 q-8 -9 -17 -18 q-21 -21 -34.5 -27.5 q-13.5 -6.5 -23 -15.5 q-9.5 -9 -18.5 2 q-18 20 34 74 q48 51 41 73 q-4 8 1.5 13 q5.5 5 9.5 11.5 q4 6.5 4.5 11 q0.5 4.5 4.5 6.5 q14 10 11 39 q-1 11 2 23 q5 20 3 35 q-2 15 3.5 30 q5.5 15 1.5 25 q-4 10 -2.5 26 q1.5 16 12.5 21 q2 22 3.5 43.5 q1.5 21.5 -4.5 31.5 q-6 10 -7 16 q-1 6 -2 11 q-1 13 -6.5 23 q-5.5 10 -3.5 23 q3 19 -10.5 42 q-13.5 23 -15.5 31.5 q-2 8.5 -4 19 q-2 10.5 -5 21.5 q-8 30 -19 40.5 q-11 10.5 -14 17.5 q-3 7 -7 14.5 q-4 7.5 -14 13.5 q-10 6 -10 11 q0 5 -4 12.5 q-4 7.5 -2.5 16 q1.5 8.5 7.5 10.5 q6 2 14 2 q19 -2 26 -12.5 q7 -10.5 15.5 -15.5 q8.5 -5 10.5 -16 q2 -11 14.5 -21.5 q12.5 -10.5 17 -21.5 q4.5 -11 13 -16.5 q8.5 -5.5 12 -20 q3.5 -14.5 10.5 -21.5 q7 -7 9.5 -22.5 q2.5 -15.5 4 -33.5 q1.5 -18 14.5 -26 q13 -11 15 -38 q1 -6 3.5 -8.5 q2.5 -2.5 4 -9 q1.5 -6.5 2 -14 q0.5 -7.5 1 -15 q0.5 -7.5 1.5 -11.5 Z" /><glyph glyph-name="asterisk" unicode="*" d="M125 413 q-28 -17 -43 -29 q-15 -12 -30 -10.5 q-15 1.5 -25 20.5 q-4 7 -4 19 q0 12 5 25 q12 29 46 40 q28 10 58 32 q-18 11 -35.5 20.5 q-17.5 9.5 -33.5 18.5 q-37 21 -46 34 q-13 20 -3 43 q10 25 39 21.5 q29 -3.5 42 -13.5 q13 -10 21 -22 q8 -12 12.5 -22.5 q4.5 -10.5 10 -14.5 q5.5 -4 12 -3.5 q6.5 0.5 14.5 -0.5 q1 19 1 33.5 q0 14.5 1 44 q1 29.5 -1 49 q-2 19.5 6 30.5 q17 25 50 5 q22 -13 27 -36 q5 -23 1 -43 q-7 -36 -3 -65 q33 21 61 43 q28 22 43 24.5 q15 2.5 26.5 -1.5 q11.5 -4 18.5 -13 q18 -20 3 -44.5 q-15 -24.5 -29.5 -32 q-14.5 -7.5 -29 -9.5 q-14.5 -2 -26 -1.5 q-11.5 0.5 -18 -3.5 q-6.5 -4 -8.5 -11.5 q-2 -7.5 -12 -18.5 l27 -18 q12 -8 36.5 -24.5 q24.5 -16.5 42 -25.5 q17.5 -9 22.5 -24 q7 -13 -2.5 -25 q-9.5 -12 -20.5 -17 q-11 -5 -24 -5 q-31 -2 -57 24 q-18 18 -47 34 q2 -37 4.5 -69 q2.5 -32 -3 -45.5 q-5.5 -13.5 -15 -21.5 q-9.5 -8 -21.5 -10 q-27 -3 -42 28 q-20 40 12 89 q6 10 6 16 q0 6 -3 10 q-3 4 -6 10 q-14 -8 -25.5 -15 q-11.5 -7 -34.5 -19 Z" /><glyph glyph-name="plus" unicode="+" d="M238 389 l123 7 q16 0 26 -1 q17 -2 19 -28 q1 -26 -9 -37.5 q-10 -11.5 -22 -11.5 q-8 -6 -22 -5 q-14 1 -26 2.5 q-12 1.5 -17 0.5 q-5 -1 -8 -2 q-7 -2 -19 4 q-12 6 -29 1 q-4 -31 -1 -53 q3 -22 2.5 -27 q-0.5 -5 -1.5 -9 q-2 -8 3 -22 q13 -34 -7 -53 q-9 -8 -26 -11.5 q-17 -3.5 -29.5 1 q-12.5 4.5 -20.5 14.5 q-17 20 -15 48 q1 19 0 23 q-3 5 3 17 q7 18 1 65 q-28 -13 -33 -10 q-5 3 -9 2.5 q-4 -0.5 -7 -2.5 q-10 -3 -16.5 0 q-6.5 3 -13.5 3 l-28 -2 q-9 0 -22 6.5 q-13 6.5 -21 6.5 q-5 14 -11 31 q-6 17 -0.5 26 q5.5 9 12.5 13 q7 4 16 6 q16 4 26 3.5 q10 -0.5 17.5 -3 q7.5 -2.5 14.5 -4.5 q19 -7 26 -3.5 q7 3.5 9.5 3.5 q2.5 0 6.5 -1 q4 -1 9.5 -2.5 q5.5 -1.5 16.5 -1.5 q4 29 4 54.5 q0 25.5 -2 46 q-2 20.5 -4 34 q-2 13.5 -2 19.5 q0 24 28 35 q9 3 26.5 1 q17.5 -2 30.5 -16.5 q13 -14.5 12.5 -36 q-0.5 -21.5 -1.5 -36.5 q-1 -15 -3 -32 q-2 -17 -4 -33.5 q-2 -16.5 -3 -29.5 Z" /><glyph glyph-name="comma" unicode="," d="M135 9 q3 -9 -0.5 -13 q-3.5 -4 -3 -15.5 q0.5 -11.5 -3.5 -17.5 q-4 -6 -6 -14 q-2 -8 -5 -10.5 q-3 -2.5 -6 -11.5 q-4 -8 -10 -8.5 q-6 -0.5 -7 -8.5 q-2 -15 -27 -15 q-26 0 -29 17 q-1 6 8 18.5 q9 12.5 15 15.5 q6 3 14.5 7 q8.5 4 9 13 q0.5 9 -5.5 21 q-8 -5 -16 -3 q-8 2 -17.5 0 q-9.5 -2 -14.5 4 q-5 6 -16 10 q-12 5 -10 29 q4 48 22 57 q10 4 15 7.5 q5 3.5 8 5.5 q3 2 5 2 q2 0 9.5 -2 q7.5 -2 15.5 2 q8 4 10.5 0.5 q2.5 -3.5 7 -4 q4.5 -0.5 8.5 -1.5 q12 -4 15.5 -14.5 q3.5 -10.5 5 -12.5 q1.5 -2 2.5 -3 q1 -2 3 -15 q1 -9 0.5 -13.5 q-0.5 -4.5 -0.5 -7.5 l0 -6 q0 -4 3 -13 Z" /><glyph glyph-name="hyphen" unicode="-" d="M14 309 q-19 19 -2 51 q20 40 68 29 q34 -8 57.5 -3.5 q23.5 4.5 30.5 0.5 q7 -4 12.5 -3 q5.5 1 13.5 3 q24 6 52 6 q19 0 37.5 1.5 q18.5 1.5 34.5 2.5 q39 2 53 -4 q20 -12 22 -30 q4 -34 -18 -47 q-22 -13 -36.5 -11.5 q-14.5 1.5 -26 7.5 q-11.5 6 -20 13 q-8.5 7 -14 7 q-5.5 0 -9.5 -3 q-4 -3 -9 -7 q-13 -9 -32 -9 q-19 0 -25 -1.5 q-6 -1.5 -11 -4.5 q-11 -5 -28 -5 q-18 0 -31 0 q-18 0 -46 1.5 q-28 1.5 -44.5 -0.5 q-16.5 -2 -28.5 7 Z" /><glyph glyph-name="period" unicode="." d="M7.5 18 q-3.5 7 -2 15 q1.5 8 16 21 q14.5 13 37 25 q22.5 12 60.5 7 q18 -2 29 -21 q8 -16 5.5 -28.5 q-2.5 -12.5 -9.5 -21 q-7 -8.5 -16 -15.5 q-18 -13 -32 -15 q-14 -2 -19.5 -8.5 q-5.5 -6.5 -18 -3.5 q-12.5 3 -16 12.5 q-3.5 9.5 -11.5 12.5 q-8 3 -14 8 q-6 5 -9.5 12 Z" /><glyph glyph-name="slash" unicode="/" d="M288 745 q18 13 31 7 q13 -6 19.5 -33.5 q6.5 -27.5 -9.5 -60.5 q-16 -33 -24 -42.5 q-8 -9.5 -15 -17.5 q-15 -17 -23.5 -47 q-8.5 -30 -13.5 -40 q-5 -10 -9 -18 q-12 -20 -22 -64 q-11 -46 -25.5 -74.5 q-14.5 -28.5 -23 -45.5 q-8.5 -17 -16 -41.5 q-7.5 -24.5 -15 -43.5 q-7.5 -19 -13.5 -35 q-15 -40 -15 -60 q0 -33 -17 -66 q-32 -62 -54 -69 q-7 -2 -21.5 0.5 q-14.5 2.5 -21.5 21.5 q-15 46 15 99 q17 28 23 50 q6 22 11.5 34.5 q5.5 12.5 10 27.5 q4.5 15 8.5 31 q10 38 19 56 q6 12 16 30 q10 18 20 40 q23 51 31 88 q8 37 14 46.5 q6 9.5 13 6.5 q11 56 40 91 q12 15 15 32 q15 71 52 97 Z" /><glyph glyph-name="zero" unicode="0" d="M161.5 733 q16.5 3 34.5 5 q18 2 40 10 q22 8 40 11 q18 3 39 -2.5 q21 -5.5 32 -13.5 q11 -8 19 -16.5 q8 -8.5 13.5 -16.5 q5.5 -8 16.5 -14 q24 -14 22 -42 q0 -6 3.5 -14 q3.5 -8 7.5 -18 q10 -24 8 -46.5 q-2 -22.5 2.5 -44.5 q4.5 -22 8.5 -45 q10 -58 -2.5 -99 q-12.5 -41 -20 -73 q-7.5 -32 -6 -54.5 q1.5 -22.5 -2 -44.5 q-3.5 -22 -10.5 -45 q-17 -53 -43 -76 q-9 -7 -19.5 -25.5 q-10.5 -18.5 -24.5 -38.5 q-37 -49 -88.5 -49 q-51.5 0 -86 37 q-34.5 37 -48.5 99 q-5 21 -15 37 q-18 29 -28 52 q-17 43 -6 114 q2 10 2 20 q0 21 -18 53 q-33 61 -3 135 q6 16 7.5 29 q1.5 13 3.5 25 q3 29 13.5 42 q10.5 13 11 20 q0.5 7 7.5 16 q7 9 15.5 19 q8.5 10 19 25 q10.5 15 24.5 20.5 q14 5.5 30.5 8.5 ZM248.5 519.5 q-1.5 -4.5 -2 -7.5 q-0.5 -3 -4 -6 q-3.5 -3 -7.5 -3 l-7 0 q-10 0 -15 -6 q-11 -16 -22 -34.5 q-11 -18.5 -15 -44.5 q-6 -46 4 -67 q9 -19 7 -43 q-2 -24 -1.5 -36 q0.5 -12 2 -21 q1.5 -9 4.5 -16.5 q3 -7.5 6 -16 q3 -8.5 7.5 -20 q4.5 -11.5 10.5 -22.5 q17 -26 40 -24 q22 2 24 59 q0 30 4 48 l8 30 q9 40 2.5 65.5 q-6.5 25.5 -5 36 q1.5 10.5 2.5 21.5 q3 32 -5.5 48 q-8.5 16 -11 25.5 q-2.5 9.5 -4.5 18.5 q-4 18 -13 20 q-8 0 -9.5 -4.5 Z" /><glyph glyph-name="one" unicode="1" d="M262 433 q8 -8 8 -43 q0 -35 -0.5 -51 q-0.5 -16 -16.5 -32 q-4 -36 -1 -65 q0 -12 -1 -22.5 q-1 -10.5 -1 -19.5 q2 -17 18 -27 q31 -17 15 -96 q-4 -23 -4 -40.5 q0 -17.5 -1.5 -24 q-1.5 -6.5 -9.5 -15 q-8 -8.5 -16 -10 q-8 -1.5 -17 1.5 l-21 7 q-12 4 -30 5 q-26 1 -41.5 -8 q-15.5 -9 -23.5 -12.5 q-8 -3.5 -18.5 -2.5 q-10.5 1 -18.5 7 q-8 6 -14 13 q-11 15 -11 23 q0 8 3.5 22 q3.5 14 -2.5 46.5 q-6 32.5 -0.5 47.5 q5.5 15 36.5 27 q19 41 9 107 q-4 32 -5 74 q-1 42 -2.5 77.5 q-1.5 35.5 -2 51.5 q-0.5 16 -4.5 27 q-8 21 -36 26 q-13 2 -21.5 3 q-8.5 1 -15.5 11 q-12 17 2 43 q7 12 15.5 25.5 q8.5 13.5 15 28 q6.5 14.5 16.5 32 q10 17.5 23 32.5 q32 35 68 35 q35 0 48 4 q23 7 29 7 q26 0 44 -18 q9 -9 7 -31.5 q-2 -22.5 -4.5 -42.5 q-2.5 -20 -6 -42 q-3.5 -22 -4.5 -39.5 q-1 -17.5 -2 -30.5 q-1 -13 -1.5 -26 q-0.5 -13 -2.5 -23 q12 -4 -1 -62 Z" /><glyph glyph-name="two" unicode="2" d="M369 300 q-13 -9 -22.5 -28.5 q-9.5 -19.5 -21 -34 q-11.5 -14.5 -25.5 -28 q-14 -13.5 -30 -27.5 q-37 -35 -55 -67 q5 -11 25 -12 q7 -1 12 1 q10 7 25.5 8 q15.5 1 22.5 1.5 q7 0.5 10 0.5 q9 -2 20 -2 q11 6 26.5 7.5 q15.5 1.5 25 -2 q9.5 -3.5 13.5 0 q4 3.5 12 0.5 q8 -3 11.5 -16 q3.5 -13 4.5 -28 q2 -37 -5 -47 q-11 -5 -12 -12 q-1 -7 -9 -11.5 q-8 -4.5 -14 -4 q-6 0.5 -11 2.5 q-15 6 -24 4.5 q-9 -1.5 -20 -6 q-11 -4.5 -21.5 -3 q-10.5 1.5 -22 3.5 q-11.5 2 -24.5 3.5 q-13 1.5 -26.5 1.5 q-13.5 0 -33.5 -5.5 q-20 -5.5 -38 -13 q-18 -7.5 -39.5 -6.5 q-21.5 1 -32.5 6.5 q-11 5.5 -18.5 13 q-7.5 7.5 -12.5 17 q-5 9.5 -15 21.5 q-10 12 -16.5 30 q-6.5 18 12 37.5 q18.5 19.5 29 36 q10.5 16.5 17.5 30 q7 13.5 12.5 24.5 q5.5 11 15 23.5 q9.5 12.5 20.5 23 q11 10.5 22 20.5 q22 20 34 45 q7 15 17.5 27 q10.5 12 20.5 26 q22 31 24 65.5 q2 34.5 -2 49 q-4 14.5 -12 19.5 q-16 11 -34.5 -19.5 q-18.5 -30.5 -40.5 -41.5 q-22 -11 -35 3 q-13 14 -22 23 q-9 9 -29 10.5 q-20 1.5 -40.5 8.5 q-20.5 7 -24.5 28 q-7 40 10 83.5 q17 43.5 48 79.5 q31 36 69.5 59.5 q38.5 23.5 71.5 23.5 q33 0 57 -9 q24 -9 40 -35 q7 1 25 -10 q18 -11 29 -33 q7 -2 15 -12 q11 -15 11 -23 q5 -3 12 -16 q12 -21 12 -33 q7 -3 12 -47 q2 -16 2 -39 q0 -23 -5 -51 q4 -11 4 -34.5 q0 -23.5 -8 -49.5 q-17 -42 -48 -62 Z" /><glyph glyph-name="three" unicode="3" d="M336 370 q66 -38 93 -99 q9 -20 9 -40 q0 -25 -17.5 -78 q-17.5 -53 -23.5 -81.5 q-6 -28.5 -19.5 -38.5 q-13.5 -10 -24.5 -12 q-11 -2 -21 -2 l-20 0 q-22 0 -37 -11 l-25 -17 q-19 -14 -44.5 -14 q-25.5 0 -33 3.5 q-7.5 3.5 -12 7.5 q-4.5 4 -10 8 q-5.5 4 -21.5 5.5 q-16 1.5 -31 13 q-15 11.5 -26 27.5 q-25 35 -21 66 q2 26 28 34 q32 11 62 -24 q24 -27 48 -27 q15 0 35 15 q20 15 32 28.5 q12 13.5 17 39.5 q4 12 7 25.5 q3 13.5 -13 29.5 q-17 16 -27 16 q-10 0 -25 -8 q-15 -8 -27 -10 q-12 -2 -25 1 q-29 8 -47 45 q-19 34 1 61 q13 16 31.5 21 q18.5 5 33.5 17 q15 12 26 28 q29 40 13 69 q-10 19 -21.5 19 q-11.5 0 -22.5 -4 q-11 -4 -16 -8.5 q-5 -4.5 -9 -9.5 q-10 -12 -21.5 -13.5 q-11.5 -1.5 -17 2 q-5.5 3.5 -9.5 9.5 q-12 14 -33 14.5 q-21 0.5 -39.5 7.5 q-18.5 7 -24 33 q-5.5 26 2.5 56.5 q8 30.5 25 60.5 q40 70 95 93 q34 37 91 25 q42 20 81 -16 q33 -28 38 -65 q26 -16 42 -41.5 q16 -25.5 22 -63.5 q6 -38 2.5 -61 q-3.5 -23 -10.5 -41 q-9 -23 -23 -44 q-14 -21 -22.5 -29.5 q-8.5 -8.5 -14.5 -22.5 Z" /><glyph glyph-name="four" unicode="4" d="M382 720 l1 -38 q0 -19 -7.5 -40 q-7.5 -21 -3 -45 q4.5 -24 8.5 -41 q7 -31 1 -64 q-7 -39 -13 -93 q-11 -84 1 -99 q4 -5 17 -7 q24 -5 33.5 -17.5 q9.5 -12.5 11 -30.5 q1.5 -18 -1.5 -35 q-7 -39 -21 -49 q-6 -3 -18 -0.5 q-12 2.5 -18 -3 q-6 -5.5 -9.5 -18 q-3.5 -12.5 -5.5 -28.5 q-2 -24 1 -55 q3 -45 -10 -66 q-7 -10 -34 -11 q-51 -3 -64 19 q-4 6 -3.5 14.5 q0.5 8.5 1 17 q0.5 8.5 1 17 q0.5 8.5 -3.5 15.5 q-3 7 -7 9.5 q-4 2.5 -7 5.5 q-7 7 -7 29 q0 33 -5 44 q-11 19 -45 19 q-29 0 -43 -8 q-28 -16 -43.5 -18 q-15.5 -2 -30 -2 q-14.5 0 -25.5 5 q-25 11 -21.5 45 q3.5 34 1 59.5 q-2.5 25.5 -6 45.5 q-3.5 20 -6 34.5 q-2.5 14.5 2.5 22.5 q5 8 7 14.5 q2 6.5 4 11.5 q4 14 13 22 q29 36 47 68 q-7 15 -6 30.5 q1 15.5 23 38.5 q35 38 55 96 q23 70 40 104 q12 21 35 10.5 q23 -10.5 54 -12 q31 -1.5 52.5 8.5 q21.5 10 38.5 5 q17 -5 16 -30 ZM225 295 q-1 17 2 28.5 q3 11.5 2 23 q-1 11.5 0 23 q1 11.5 1 23.5 q2 29 -10 49 q-2 -5 -3.5 -9.5 q-1.5 -4.5 -5 -17 q-3.5 -12.5 -15.5 -33 q-12 -20.5 -17 -37 q-5 -16.5 -9.5 -23 q-4.5 -6.5 -7.5 -12.5 q-8 -11 -3.5 -19.5 q4.5 -8.5 25.5 -4 q21 4.5 41 8.5 Z" /><glyph glyph-name="five" unicode="5" d="M33 596 q-6 18 -2.5 41.5 q3.5 23.5 3 52 q-0.5 28.5 17.5 40 q18 11.5 34.5 10.5 q16.5 -1 37.5 -4 q60 -10 101 -2.5 q41 7.5 68 13.5 q27 6 48 8 q44 4 58 -13 q14 -17 16 -42 q2 -25 -0.5 -52 q-2.5 -27 -6 -52 q-3.5 -25 0.5 -50 q6 -47 0 -79 q-4 -14 -11.5 -26.5 q-7.5 -12.5 -22 -11 q-14.5 1.5 -21.5 6 q-7 4.5 -14 9.5 q-17 13 -36 7 q-42 -12 -61 13 q-19 19 -48 8 q-7 -3 -11 -7 q-14 -24 -13 -90 q1 -16 5.5 -21.5 q4.5 -5.5 13.5 -6.5 q9 -1 21 0 q38 5 52 4.5 q14 -0.5 34.5 -5 q20.5 -4.5 41.5 -12.5 q21 -8 35.5 -21 q14.5 -13 10.5 -26 q-4 -13 -1 -20.5 q3 -7.5 9 -15.5 q18 -24 25.5 -45 q7.5 -21 4.5 -50 q-3 -29 -18 -47 q-15 -18 -23.5 -32 q-8.5 -14 -14.5 -26 q-17 -29 -30 -42.5 q-13 -13.5 -36.5 -20.5 q-23.5 -7 -48.5 -7 q-40 -1 -65.5 6 q-25.5 7 -32 5.5 q-6.5 -1.5 -13.5 -1.5 q-17 0 -26 23 q-10 22 -30 27 q-9 2 -18 4 q-24 4 -30 30 q-8 35 10 66 q10 15 26 22 q16 7 28 7 q12 0 20 -5 q15 -8 26 -31 q22 -5 33 -20 q8 -11 24 -12 q30 -3 50 15 q24 22 27 27 q5 8 5 19 q0 11 -5 23.5 q-5 12.5 -16 24.5 q-43 53 -116 21 q-12 -5 -21 -9 q-9 -4 -17 -2.5 q-8 1.5 -16.5 9.5 q-8.5 8 -24 19 q-15.5 11 -23.5 16 q-8 5 -11.5 16.5 q-3.5 11.5 4.5 24 q8 12.5 7.5 22 q-0.5 9.5 -0.5 22.5 q0 13 0 28 q-2 39 -12.5 53.5 q-10.5 14.5 -12.5 26.5 q-2 12 1.5 28.5 q3.5 16.5 7 28.5 q3.5 12 6.5 24.5 q3 12.5 3 25 q0 12.5 -6 30.5 Z" /><glyph glyph-name="six" unicode="6" d="M159 337 q1 -20 5 -24.5 q4 -4.5 11.5 0.5 q7.5 5 18.5 13 q31 22 47 26 q18 4 25 10 q12 9 28.5 9 q16.5 0 32.5 -6.5 q16 -6.5 30 -32.5 q9 -16 19 -25 q17 -15 23 -35 q4 -13 8 -24.5 q4 -11.5 5 -23.5 q7 -52 -29 -132 q-13 -30 -25 -40.5 q-12 -10.5 -17.5 -21 q-5.5 -10.5 -12.5 -20.5 q-15 -25 -28.5 -27 q-13.5 -2 -19.5 -1.5 q-6 0.5 -12 2.5 q-14 3 -32 1 q-57 -7 -76 19 q-8 13 -13.5 17 q-5.5 4 -18.5 7 q-38 9 -66 106 q-10 38 -15 43 q-3 3 -9 7.5 q-6 4.5 -11 13.5 q-18 30 -5 80 q6 20 4.5 31.5 q-1.5 11.5 -4.5 28.5 q-4 17 -4 30.5 q0 13.5 2 25.5 q3 26 -0.5 36 q-3.5 10 -6 18.5 q-2.5 8.5 -3.5 17.5 q-1 19 14.5 46 q15.5 27 20 47 q4.5 20 8.5 37.5 q4 17.5 12 36 q8 18.5 21 37.5 q30 46 65 60 q19 8 32.5 14.5 q13.5 6.5 24.5 9.5 q22 8 50 -3 q26 -2 34 -11 q8 -9 9 -14 q7 9 16.5 0 q9.5 -9 13.5 -15.5 q4 -6.5 7 -8.5 q3 -2 6 -4 q8 -4 13 -17 q3 -9 16 -26 q20 -29 24 -44.5 q4 -15.5 5 -24.5 q2 -18 -6 -32 q12 -13 12 -25.5 q0 -12.5 -2 -20.5 q-8 -30 -25 -30 q-20 0 -36.5 -1.5 q-16.5 -1.5 -26 -13.5 q-9.5 -12 -22 -16.5 q-12.5 -4.5 -24.5 -4.5 q-12 0 -22 6 q-10 6 -11 18 q-2 26 -19 28 q-17 2 -37 -27 q-28 -44 -24 -130 ZM208 176 q7 -21 29 -29 q17 -8 34 15 q15 15 19 30 q5 27 -15 45 q-8 8 -16.5 16 q-8.5 8 -20.5 4 q-52 -18 -30 -81 Z" /><glyph glyph-name="seven" unicode="7" d="M28 609 q-24 7 -16 32 q4 11 10 25 q14 34 12 62 q8 5 12.5 10.5 q4.5 5.5 15 5.5 q10.5 0 16.5 -2.5 q6 -2.5 13 -5.5 q19 -8 41 -8 q58 0 104 9.5 q46 9.5 65 10 q19 0.5 36 -3.5 q39 -7 50 -32 q7 -14 3.5 -29.5 q-3.5 -15.5 -2 -31.5 q1.5 -16 2.5 -36 q1 -20 1 -43 q-2 -52 -6.5 -69.5 q-4.5 -17.5 -14.5 -38 q-10 -20.5 -21 -44.5 q-30 -67 -34 -93.5 q-4 -26.5 -4.5 -49.5 q-0.5 -23 -7.5 -36.5 q-7 -13.5 -20.5 -29.5 q-13.5 -16 -16 -38 q-2.5 -22 -8.5 -38.5 q-6 -16.5 -7.5 -32.5 q-1.5 -16 -2 -30.5 q-0.5 -14.5 -7 -27 q-6.5 -12.5 -16.5 -17.5 q-10 -5 -12.5 -9.5 q-2.5 -4.5 -5 -10 q-2.5 -5.5 -6.5 -11.5 q-23 -35 -82 7 q-14 9 -18 21 q-4 12 -6 20 q-6 19 -6 27.5 q0 8.5 5.5 24.5 q5.5 16 4.5 33 q-1 17 5.5 33.5 q6.5 16.5 8.5 33.5 q5 41 19.5 64.5 q14.5 23.5 25.5 45.5 q11 22 23 47 q46 100 39 119 q-3 8 -18.5 4.5 q-15.5 -3.5 -27.5 -3.5 l-23 0 q-24 0 -27.5 -2 q-3.5 -2 -7.5 -8 q-4 -6 -11 -12 q-16 -16 -37 -14 q-30 2 -36 30 q-24 14 -6 70 q-5 14 -3 34 q2 20 4 38 Z" /><glyph glyph-name="eight" unicode="8" d="M418 540 q11 -21 2 -52 q3 -7 3 -17.5 q0 -10.5 -3 -20.5 q-6 -26 -16 -29.5 q-10 -3.5 -15 -16 q-5 -12.5 -14 -29 q-9 -16.5 -14.5 -21.5 q-5.5 -5 -5.5 -9.5 q0 -4.5 8 -7 q8 -2.5 17 -13.5 q9 -11 10 -17 q1 -6 1 -12 q0 -15 5.5 -23.5 q5.5 -8.5 6.5 -21 q1 -12.5 0 -25.5 q-3 -37 3 -61.5 q6 -24.5 -1 -44 q-7 -19.5 -33 -37.5 q-16 -12 -21 -20 q-7 -14 -21 -24 q-9 -6 -21 -17 q-12 -11 -25 -21 q-33 -26 -58.5 -26 q-25.5 0 -47 2.5 q-21.5 2.5 -31.5 16.5 q-5 6 -11 10 q-6 4 -12 8 q-46 31 -46 79 q0 6 -5 16 q-5 10 -12 9 q-21 -3 -27 19 q-5 15 -3 23.5 q2 8.5 6.5 21.5 q4.5 13 6.5 33 q6 43 25 69.5 q19 26.5 22 51 q3 24.5 -14 36.5 q-12 9 -13 17 l-3 14 q-1 5 -8.5 11.5 q-7.5 6.5 -11 14.5 q-3.5 8 -5.5 15.5 q-2 7.5 -3.5 14.5 q-1.5 7 -7 17 q-5.5 10 -5 20.5 q0.5 10.5 -3.5 29.5 q-5 19 0 38.5 q5 19.5 11 41.5 q5 22 3.5 30.5 q-1.5 8.5 -0.5 18.5 q2 19 32 53 q16 14 26.5 15 q10.5 1 17 0.5 q6.5 -0.5 16.5 2 q10 2.5 22.5 8 q12.5 5.5 26.5 -2.5 q30 7 47 20 q4 2 17 4.5 q13 2.5 20 2 q7 -0.5 14.5 -0.5 q7.5 0 17.5 -5 q36 -19 43.5 -29.5 q7.5 -10.5 14 -15.5 q6.5 -5 12.5 -10 q15 -13 17 -25 q3 0 10 -8 q7 -8 13 -19 q16 -29 12 -38 q4 -7 7 -26.5 q3 -19.5 1 -37.5 ZM243 423.5 q5 11.5 8 24.5 q3 13 7 31 q4 18 -3 30 q-7 12 -15 12 q-8 0 -14.5 -4.5 q-6.5 -4.5 -13 -7 q-6.5 -2.5 -10.5 -3 q-4 -0.5 -7 -0.5 q-19 -4 -25 -30 q-5 -25 2.5 -39.5 q7.5 -14.5 13.5 -22.5 q13 -16 25 -16 q12 0 19.5 7 q7.5 7 12.5 18.5 ZM244 179.5 q10 10.5 10 28 q0 17.5 -5.5 24.5 q-5.5 7 -13.5 13 q-8 6 -17 14 q-19 3 -19 -22 q0 -8 -5 -13 q-10 -10 -9 -20 q1 -10 -4.5 -22.5 q-5.5 -12.5 0 -23.5 q5.5 -11 11.5 -13.5 q6 -2.5 14 -4.5 q10 15 25 17 q3 12 13 22.5 Z" /><glyph glyph-name="nine" unicode="9" d="M416 570 l-5 -51 q0 -9 5 -18 l9 -13 q11 -16 5.5 -70 q-5.5 -54 -14.5 -94 q-19 -82 -46.5 -128.5 q-27.5 -46.5 -41.5 -81.5 q-14 -35 -19 -44.5 q-5 -9.5 -19 -20.5 q-14 -11 -21.5 -11 q-7.5 0 -12 1.5 q-4.5 1.5 -9.5 0.5 q-13 -3 -23.5 -19 q-10.5 -16 -21.5 -29.5 q-11 -13.5 -26 -13.5 q-15 0 -20 3 q-5 3 -10 7 q-12 9 -27 9.5 q-15 0.5 -22 9 q-7 8.5 -8 19.5 q-2 28 21.5 42 q23.5 14 39 24.5 q15.5 10.5 15 29 q-0.5 18.5 9 30.5 q9.5 12 22.5 27 q13 15 25 34.5 q12 19.5 22 39.5 q25 50 12 59 q-7 5 -17 0 q-10 -5 -23 -14 q-53 -34 -92 -15 q-25 12 -39 50 q-7 16 -14.5 35 q-7.5 19 -18.5 24 q-21 13 -35 51 q-16 45 6 99 q16 36 17.5 68 q1.5 32 18.5 60 q17 28 33.5 42 q16.5 14 37 22.5 q20.5 8.5 43.5 13.5 q81 18 116 -4 q11 -8 18 -16 q25 0 38.5 -6.5 q13.5 -6.5 26.5 -25 q13 -18.5 23 -40.5 q22 -50 22 -86 ZM198 525.5 q-5 -9.5 -7.5 -20.5 q-2.5 -11 0.5 -23.5 q3 -12.5 7.5 -26 q4.5 -13.5 20.5 -21.5 q17 -7 24 -3 q7 4 18 9 q11 7 17 26 q10 37 -12 66 q-13 16 -29 16 q-16 0 -25 -6.5 q-9 -6.5 -14 -16 Z" /><glyph glyph-name="colon" unicode=":" d="M44 347.5 q13 5.5 24.5 1.5 q11.5 -4 17.5 -1 q6 3 12.5 4 q6.5 1 13.5 0 q16 -2 20 -9.5 q4 -7.5 9.5 -16.5 q5.5 -9 2.5 -20 q-3 -11 -4 -18 q-1 -7 -6.5 -13.5 q-5.5 -6.5 -13 -13.5 q-7.5 -7 -16.5 -14 q-22 -16 -40.5 -15 q-18.5 1 -24.5 9.5 q-6 8.5 -14 14.5 q-18 13 -10 41.5 q8 28.5 12 36.5 q4 8 17 13.5 ZM7.5 18 q-3.5 7 -2 15 q1.5 8 16 21 q14.5 13 37 25 q22.5 12 60.5 7 q18 -2 29 -21 q8 -16 5.5 -28.5 q-2.5 -12.5 -9.5 -21 q-7 -8.5 -16 -15.5 q-18 -13 -32 -15 q-14 -2 -19.5 -8.5 q-5.5 -6.5 -18 -3.5 q-12.5 3 -16 12.5 q-3.5 9.5 -11.5 12.5 q-8 3 -14 8 q-6 5 -9.5 12 Z" /><glyph glyph-name="semicolon" unicode=";" d="M138 9 q3 -9 -0.5 -13 q-3.5 -4 -3 -15.5 q0.5 -11.5 -3.5 -17.5 q-4 -6 -6.5 -14 q-2.5 -8 -5.5 -10.5 q-3 -2.5 -5.5 -11 q-2.5 -8.5 -9 -9 q-6.5 -0.5 -7.5 -8.5 q-2 -15 -27 -15 q-26 0 -29 17 q-1 6 8 18.5 q9 12.5 15 15.5 q6 3 14.5 7.5 q8.5 4.5 9 13 q0.5 8.5 -5.5 20.5 q-8 -5 -16 -3 q-8 2 -18 0 q-10 -2 -14.5 4 q-4.5 6 -15.5 10 q-12 5 -10 29 q4 48 22 57 q10 4 15 7.5 q5 3.5 8 5.5 q3 2 5.5 2 q2.5 0 9.5 -2 q7 -2 15 2 q8 4 10.5 0.5 q2.5 -3.5 7 -4 q4.5 -0.5 9.5 -1.5 q12 -5 15 -17 q4 -10 6 -12 q3 -3 4 -16 q1 -9 0.5 -13.5 q-0.5 -4.5 -0.5 -7.5 l0 -6 q0 -4 3 -13 ZM35.5 349.5 q13.5 5.5 25 2 q11.5 -3.5 18 -0.5 q6.5 3 13 3.5 q6.5 0.5 13.5 -0.5 q16 -1 20.5 -9 q4.5 -8 10.5 -17 q6 -9 2.5 -20.5 q-3.5 -11.5 -4.5 -18.5 q-1 -7 -6.5 -14 q-5.5 -7 -13 -14 q-7.5 -7 -17.5 -14 q-24 -17 -42 -15.5 q-18 1.5 -24.5 10 q-6.5 8.5 -15.5 14.5 q-16 14 -6 52 q5 21 9 28.5 q4 7.5 17.5 13 Z" /><glyph glyph-name="less" unicode="&lt;" d="M43.5 277 q-16.5 10 -27 21.5 q-10.5 11.5 -11.5 24 q-1 12.5 12 33.5 q13 21 35.5 35 q22.5 14 31.5 18 q9 4 15.5 5.5 q6.5 1.5 13.5 2.5 q7 1 20.5 6.5 q13.5 5.5 26 14 q12.5 8.5 23 16.5 q10.5 8 20.5 16 q10 8 21 13 q98 45 124 64 q26 19 37.5 21 q11.5 2 20.5 -4 q20 -12 12 -54 q-7 -37 -40 -62 q-20 -16 -36.5 -19.5 q-16.5 -3.5 -31.5 -8 q-15 -4.5 -32 -22.5 q-38 -37 -78 -39 q-36 0 -64 -17 q-18 -10 -4 -28 q12 -16 30.5 -24 q18.5 -8 33.5 -8 q25 0 88 -33 q11 -7 24 -9 l21 -3 q7 -1 16 -6 q16 4 30 -4 q25 -14 25 -24 q22 -19 23 -36 q1 -17 -1.5 -23.5 q-2.5 -6.5 -5.5 -8 q-3 -1.5 -9.5 -6 q-6.5 -4.5 -14.5 -8.5 q-8 -4 -20.5 0 q-12.5 4 -28.5 9.5 q-16 5.5 -32.5 18 q-16.5 12.5 -21.5 20 q-5 7.5 -9 10 q-4 2.5 -22 8 q-18 5.5 -42 13.5 q-69 24 -92 36 q-23 12 -43.5 21.5 q-20.5 9.5 -37 19.5 Z" /><glyph glyph-name="equal" unicode="=" d="M350 388 l-44 2 q-10 0 -25 -6 q-28 -10 -145 -5 q-35 2 -56 -1 q-75 -10 -75 35 q0 15 10 28.5 q10 13.5 39 15 q29 1.5 54 -0.5 q25 -2 41.5 1 q16.5 3 23 3.5 q6.5 0.5 11.5 -0.5 q16 -1 29 1 q13 2 38 -0.5 q25 -2.5 41 -1 q16 1.5 30.5 4 q14.5 2.5 29.5 2.5 q34 -2 41 -22 q10 -23 1 -36 q-15 -20 -44 -20 ZM320 214 l-117 5 q-87 0 -131.5 -6.5 q-44.5 -6.5 -53 0 q-8.5 6.5 -11 20.5 q-2.5 14 15.5 33 q18 19 60.5 23.5 q42.5 4.5 69 3.5 q26.5 -1 42 -1 q15.5 0 29 -1 q13.5 -1 28.5 -1 q43 -2 71 7 q50 15 70 2 q13 -11 14 -29 q2 -35 -20 -46 q-24 -10 -67 -10 Z" /><glyph glyph-name="greater" unicode="&gt;" d="M379 395 q29 -18 42.5 -39 q13.5 -21 12 -33.5 q-1.5 -12.5 -11.5 -24 q-10 -11.5 -26.5 -21.5 q-16.5 -10 -36.5 -19.5 q-20 -9.5 -40.5 -20 q-20.5 -10.5 -46.5 -20 q-26 -9.5 -49.5 -17.5 q-23.5 -8 -41.5 -13.5 q-18 -5.5 -21.5 -8 q-3.5 -2.5 -8.5 -10 q-5 -7.5 -23 -20.5 q-19 -13 -60 -27 q-13 -4 -21 0 q-8 4 -14 8.5 q-6 4.5 -9.5 6 q-3.5 1.5 -6 8 q-2.5 6.5 -1.5 23.5 q1 17 23 36 q0 10 13 17 q26 15 41 11 q9 5 16.5 6 q7.5 1 14.5 2 q20 3 35 11 q55 32 90 32 q18 0 35 12 q45 32 19 48 q-27 17 -54 18 q-49 0 -87 38 q-18 18 -32.5 22.5 q-14.5 4.5 -24 6.5 q-9.5 2 -21 6.5 q-11.5 4.5 -24.5 14.5 q-31 22 -38 62 q-9 41 12 54 q18 11 42 -6 q26 -21 76.5 -45.5 q50.5 -24.5 62 -29.5 q11.5 -5 21 -13 q9.5 -8 20.5 -16 q43 -33 70 -37 q24 -4 53 -22 Z" /><glyph glyph-name="question" unicode="?" d="M228.5 726 q6.5 2 13.5 4 q7 2 24.5 1.5 q17.5 -0.5 28 -10.5 q10.5 -10 23.5 -14 q13 -4 17.5 -13.5 q4.5 -9.5 7.5 -13 q3 -3.5 7 -6.5 q8 -9 11 -22 q3 -13 6 -19 q3 -6 5 -11 q5 -13 4 -25.5 q-1 -12.5 2 -20 q3 -7.5 0.5 -21 q-2.5 -13.5 -0.5 -26.5 q2 -13 -6 -28.5 q-8 -15.5 -18.5 -30 q-10.5 -14.5 -12.5 -34.5 q-4 -34 -36 -48 q-16 -8 -24 -20.5 q-8 -12.5 -13 -29 q-5 -16.5 -8 -34 q-3 -17.5 -6 -35.5 q-5 -41 -3.5 -53 q1.5 -12 -1.5 -24 q-3 -12 -9 -23 q-15 -27 -30 -25 q-13 0 -22 -2 q-14 -3 -22 3 q-17 13 -22 23 q-10 20 -5.5 45.5 q4.5 25.5 2 42 q-2.5 16.5 -6.5 32.5 q-18 58 9 100 q8 12 16 15 q8 5 13 14 q5 9 12.5 9 q7.5 0 19 10 q11.5 10 22.5 26 q27 40 17 65 q-9 22 -25 17 q-6 -1 -11 -1.5 q-5 -0.5 -8 8.5 q-8 18 -29 19 q-22 2 -33 -23 q-6 -13 -9 -21 q-3 -8 -6 -14 q-5 -9 -18.5 -11 q-13.5 -2 -19.5 -0.5 q-6 1.5 -9.5 3.5 q-3.5 2 -6 4 q-2.5 2 -7 2 q-4.5 0 -12.5 3.5 q-8 3.5 -16 11.5 q-20 20 -26 48 q-6 28 -11 39.5 q-5 11.5 3 20.5 q8 9 15 19 q17 29 24 32 q7 3 12 5 q12 5 20.5 17 q8.5 12 13 16.5 q4.5 4.5 9.5 6.5 q5 2 11 2 q6 0 14.5 0.5 q8.5 0.5 13.5 2.5 q5 2 9 4 q10 3 20.5 0 q10.5 -3 13.5 -5.5 q3 -2.5 5 -4.5 q6 -6 19 -7 q10 -1 16.5 1 q6.5 2 13 4 ZM150.5 79.5 q12.5 5.5 23 1.5 q10.5 -4 19 0.5 q8.5 4.5 22.5 3 q14 -1.5 18.5 -10 q4.5 -8.5 10.5 -16.5 q6 -8 3 -18.5 q-3 -10.5 -4 -17.5 q-1 -7 -6.5 -13 q-5.5 -6 -13 -13 q-7.5 -7 -16.5 -14 q-22 -16 -39.5 -14.5 q-17.5 1.5 -23.5 10 q-6 8.5 -14 14.5 q-14 10 -5 48 q5 20 9 27 q4 7 16.5 12.5 Z" /><glyph glyph-name="at" unicode="@" d="M690 438 l-1 -24 q0 -6 3 -18 q5 -19 -11 -42 q0 -37 -11 -51 q-17 -22 -21.5 -37 q-4.5 -15 -9 -20 q-4.5 -5 -9.5 -10 q-18 -14 -23 -23 q-5 -9 -12.5 -14 q-7.5 -5 -19.5 -15 q-37 -30 -51 -16 q-12 15 -21 19 q-17 11 -15 54 q-23 -8 -34.5 -19 q-11.5 -11 -26.5 -31.5 q-15 -20.5 -36 -28 q-21 -7.5 -46 -13 q-25 -5.5 -41 -0.5 q-21 6 -37 47 q-7 16 -16 20.5 q-9 4.5 -21 7.5 q-27 7 -50 64 q-5 14 -9 24 q-16 33 24 146 q11 28 23 43.5 q12 15.5 23 27 q11 11.5 17.5 20 q6.5 8.5 13.5 15.5 q17 17 38.5 19 q21.5 2 31.5 3.5 q10 1.5 16 1.5 q10 0 16 -8 q6 -8 10.5 -10 q4.5 -2 8.5 -3 q4 -1 9 -2 q8 -2 13.5 -11.5 q5.5 -9.5 8.5 -13.5 q6 -10 14 -6.5 q8 3.5 10 10 q2 6.5 4 14.5 q10 39 42 31 q16 -4 20.5 -17 q4.5 -13 7.5 -16 q3 -3 6 -4 q12 -5 5 -26 q-7 -21 -14 -38 q-13 -114 -9 -140.5 q4 -26.5 11.5 -37 q7.5 -10.5 19 -12 q11.5 -1.5 18.5 3.5 q7 5 15 21 l14 28 q20 44 14 64 q-6 20 -4.5 37 q1.5 17 3.5 34 q5 43 -8 64.5 q-13 21.5 -18 32 q-5 10.5 -8 16.5 q-5 11 -12 14 q-5 2 -9.5 9.5 q-4.5 7.5 -11.5 15.5 q-19 23 -43 26.5 q-24 3.5 -39.5 4.5 q-15.5 1 -29.5 2 q-29 2 -46.5 10.5 q-17.5 8.5 -34.5 9 q-17 0.5 -33 -2.5 q-35 -6 -49.5 -17 q-14.5 -11 -21 -16 q-6.5 -5 -13.5 -11 q-7 -5 -36 -22 q-20 -12 -29.5 -27 q-9.5 -15 -15 -25.5 q-5.5 -10.5 -12.5 -20.5 q-7 -10 -9 -25 q-2 -15 -12 -29 q-10 -14 -13 -30 q-3 -16 -10.5 -35.5 q-7.5 -19.5 -10 -37 q-2.5 -17.5 -3 -37 q-0.5 -19.5 0 -39 q0.5 -19.5 0.5 -37.5 q6 -11 11 -31 q5 -20 19 -35 q8 -7 19 -16.5 q11 -9.5 28 -24.5 q17 -15 26.5 -23 q9.5 -8 20.5 -18 q16 -15 46 -41.5 q30 -26.5 47.5 -32.5 q17.5 -6 36 -7.5 q18.5 -1.5 39 -0.5 q20.5 1 38.5 0 q18 -1 27.5 2 q9.5 3 28 11 q18.5 8 29 8.5 q10.5 0.5 20.5 3.5 q18 7 23.5 -1 q5.5 -8 -4 -16.5 q-9.5 -8.5 -30.5 -19 q-21 -10.5 -34.5 -20.5 q-13.5 -10 -28.5 -12.5 q-15 -2.5 -21.5 -7 q-6.5 -4.5 -14.5 -9.5 q-19 -11 -44.5 -11 q-25.5 0 -38.5 4 q-13 4 -22 9 q-9 5 -17 11 q-8 6 -23.5 10 q-15.5 4 -26 5.5 q-10.5 1.5 -18.5 3.5 q-45 8 -68 32 q-10 12 -18 23 q-8 11 -17.5 21 q-9.5 10 -27 15 q-17.5 5 -27 17 q-9.5 12 -14.5 27 q-5 15 -8.5 31.5 q-3.5 16.5 -12 38.5 q-8.5 22 -9 51.5 q-0.5 29.5 -2.5 53 q-2 23.5 -1 34 q1 10.5 3 20.5 q2 10 4.5 22 q2.5 12 4.5 30 q5 33 11 44 q12 24 18 44 q9 24 59 93 q58 71 100 84 q13 4 22.5 10 q9.5 6 19.5 12 q24 14 50 19 q17 3 30.5 7 q13.5 4 24.5 7 q28 7 46.5 4.5 q18.5 -2.5 29 -3 q10.5 -0.5 18.5 -1.5 q18 -1 31 -6.5 q13 -5.5 25.5 -10 q12.5 -4.5 26.5 -11.5 q47 -21 82 -74 q7 -10 11 -18 q11 -20 20 -29.5 q9 -9.5 12 -16 q3 -6.5 5 -12.5 l5 -14 q2 -7 10.5 -25.5 q8.5 -18.5 9.5 -37 q1 -18.5 3.5 -37.5 q2.5 -19 2.5 -26 ZM404.5 309.5 q4.5 8.5 11.5 17 q7 8.5 7.5 20 q0.5 11.5 3 16.5 q2.5 5 5.5 12 q7 16 7 36 q0 20 -4.5 30.5 q-4.5 10.5 -10.5 20 q-6 9.5 -12.5 19.5 q-6.5 10 -10.5 24 q-5 14 -17.5 14 q-12.5 0 -19.5 -2 q-7 -2 -10.5 -5 q-3.5 -3 -5.5 -6 q-8 -14 -18 -23 q-17 -15 -21.5 -26 q-4.5 -11 -6.5 -20.5 q-2 -9.5 -7.5 -29 q-5.5 -19.5 -11 -44.5 q-5.5 -25 1 -39 q6.5 -14 14.5 -22 q8 -8 17 -15 q19 -15 32.5 -15 q13.5 0 23 6.5 q9.5 6.5 19.5 13.5 q9 9 13.5 17.5 Z" /><glyph glyph-name="A" unicode="a" d="M407 -6 q-6 -11 -16 -16.5 q-10 -5.5 -20 2 q-10 7.5 -14.5 6.5 q-4.5 -1 -8.5 -2 q-9 -1 -18 13 q-9 14 -10 22.5 q-1 8.5 0 16.5 q4 18 -5.5 32 q-9.5 14 -13 21 q-3.5 7 -3.5 20.5 q0 13.5 -1.5 17 q-1.5 3.5 -2.5 5.5 q-5 9 -3.5 28 q1.5 19 -5.5 26.5 q-7 7.5 -18.5 11.5 q-11.5 4 -18 -2.5 q-6.5 -6.5 -12 -15.5 q-5.5 -9 -13.5 -15.5 q-8 -6.5 -20.5 -3.5 q-12.5 3 -27.5 -6 q-15 -9 -18 -21.5 q-3 -12.5 -7 -25.5 q-4 -13 -2.5 -24 q1.5 -11 0 -21.5 q-1.5 -10.5 -5.5 -20.5 q-8 -25 -19 -27 q-9 -1 -19 0 q-11 -20 -26 -24 q-41 -9 -49 13 q-5 13 -6 34 q-2 42 -9 57 q-7 15 -3.5 36 q3.5 21 2.5 42 q-1 21 0 32 q1 11 2.5 20 q1.5 9 3.5 17.5 q2 8.5 2.5 20 q0.5 11.5 3.5 26.5 q3 15 6 31 q8 40 6 60 q-2 20 3.5 34 q5.5 14 12.5 25 q18 29 17 47.5 q-1 18.5 -1.5 29 q-0.5 10.5 0.5 21.5 q5 54 51 169 q3 11 19 17 q16 6 32.5 1.5 q16.5 -4.5 27 -4 q10.5 0.5 18 8 q7.5 7.5 16 14.5 q8.5 7 20.5 11.5 q12 4.5 27 4.5 q15 0 32 -9 q28 -15 37 -28 q9 -13 12 -21 q3 -8 10 -22 q7 -14 6.5 -25 q-0.5 -11 3.5 -26 q4 -15 0 -35 q-4 -20 0 -39.5 q4 -19.5 4 -26.5 q0 -7 1 -13 q1 -17 7 -30 q6 -14 3.5 -34.5 q-2.5 -20.5 -1 -34 q1.5 -13.5 10.5 -27.5 q17 -27 12 -60 q-1 -9 0.5 -19.5 q1.5 -10.5 1.5 -19 q0 -8.5 -2 -21.5 q-3 -19 1 -46 q6 -50 6 -67 q0 -17 1 -28.5 q1 -11.5 2 -24.5 q3 -34 0.5 -68.5 q-2.5 -34.5 -21.5 -39.5 ZM254 397 q2 19 -1.5 47 q-3.5 28 -3.5 41.5 q0 13.5 -2 23.5 q-3 16 -17 4 q-16 16 -26 1 q-7 -11 -7 -36 q-2 -17 -7.5 -31 q-5.5 -14 -7.5 -31 q-3 -20 -10.5 -49 q-7.5 -29 2 -43 q9.5 -14 23.5 -10 q14 4 21 4.5 q7 0.5 12 1.5 q12 1 18.5 9.5 q6.5 8.5 7 15 q0.5 6.5 -0.5 13.5 q-3 20 -1 39 Z" /><glyph glyph-name="B" unicode="b" d="M63 132 l-6 37 q0 10 -4 13.5 q-4 3.5 -13 11.5 q-9 8 -11 25.5 q-2 17.5 -1 40.5 q2 29 11 98 q-7 86 -9 111 q-11 132 6 163 q4 8 8 12 q8 8 7 26 q-4 37 39 51 q13 4 25 10 q12 6 25 11 q29 10 49.5 -0.5 q20.5 -10.5 42.5 -8 q22 2.5 45 6 q23 3.5 44.5 4.5 q21.5 1 37 -10 q15.5 -11 33 -24 q17.5 -13 31.5 -29 q31 -36 26 -70 q16 -38 7 -72 q-3 -9 -1 -18 q4 -18 0 -32 q-4 -14 -1.5 -29.5 q2.5 -15.5 -4.5 -31.5 q-7 -16 -9 -30 q-2 -14 -10 -23.5 q-8 -9.5 -14.5 -11 q-6.5 -1.5 -12 -6 q-5.5 -4.5 -8 -9.5 q-2.5 -5 -7.5 -11 q-11 -15 -31 -25 q11 -19 26 -29.5 q15 -10.5 25.5 -23 q10.5 -12.5 11 -23.5 q0.5 -11 4.5 -22 q4 -11 3 -17.5 q-1 -6.5 -2.5 -14 q-1.5 -7.5 -3.5 -16 q-2 -8.5 -1.5 -19 q0.5 -10.5 -2 -18 q-2.5 -7.5 -7 -15 q-4.5 -7.5 -10.5 -16.5 q-6 -9 -11 -22 q-6 -16 -19.5 -28.5 q-13.5 -12.5 -21 -20 q-7.5 -7.5 -14.5 -20.5 q-13 -24 -36 -31 q-21 -6 -32 11 q-6 11 -21.5 4 q-15.5 -7 -24.5 -11.5 q-9 -4.5 -21.5 -3 q-12.5 1.5 -25 4 q-12.5 2.5 -25.5 -2 q-13 -4.5 -24 -2.5 q-11 2 -20 7 q-20 10 -26 28 q-6 18 -8 37.5 q-2 19.5 -6 36 q-4 16.5 -4 23.5 l3 24 ZM205 404 q0 -53 19 -53 q10 0 18 14.5 q8 14.5 10 27.5 q1 13 1.5 26.5 q0.5 13.5 13 34 q12.5 20.5 8 38 q-4.5 17.5 -15.5 21 q-11 3.5 -19.5 11 q-8.5 7.5 -19 12.5 q-10.5 5 -18 -7.5 q-7.5 -12.5 0 -28.5 q7.5 -16 5 -43 q-2.5 -27 -2.5 -53 ZM233 260 q-23 7 -25 -23 q-2 -21 -5 -43 q-3 -22 -0.5 -33 q2.5 -11 5.5 -24 q6 -5 12 -9 q6 -4 11 -8 q6 12 11.5 18 q5.5 6 9.5 13 q10 16 11.5 39.5 q1.5 23.5 -3.5 37.5 q-8 26 -27 32 Z" /><glyph glyph-name="C" unicode="c" d="M346 706 q29 -2 52 -30 q4 -6 8 -11.5 q4 -5.5 6 -12.5 q6 -15 4 -43 q-2 -28 3 -45.5 q5 -17.5 10 -33.5 q9 -28 -11 -75 q-15 -43 -37 -51 l-18 -6 q-26 -9 -44.5 -6.5 q-18.5 2.5 -25.5 10.5 q-20 26 -10 60 q2 7 0 22 q-2 15 -17 19 q-8 2 -10.5 7 q-2.5 5 -4 8.5 q-1.5 3.5 -3 5 q-1.5 1.5 -9.5 -4.5 q-8 -6 -9 -6.5 q-1 -0.5 -6.5 1.5 q-5.5 2 -10.5 -1 q-5 -3 -10 -11 q-18 -31 -7 -101 q4 -21 8 -39 q8 -45 7.5 -60 q-0.5 -15 -6 -31.5 q-5.5 -16.5 -9.5 -32.5 q-12 -41 3 -70 q18 -36 23 -42 q9 -9 22 -7.5 q13 1.5 20 13 q7 11.5 13 25 q6 13.5 13 25.5 q7 12 16.5 14 q9.5 2 24.5 0.5 q15 -1.5 20.5 -1.5 q5.5 0 13.5 -6.5 q8 -6.5 8.5 -29 q0.5 -22.5 1.5 -36 q1 -13.5 -7 -24 q-8 -10.5 -10.5 -19 q-2.5 -8.5 -3.5 -16.5 q-1 -21 -7.5 -31 q-6.5 -10 -12 -16.5 q-5.5 -6.5 -29 -6.5 q-23.5 0 -42.5 -22 q-19 -22 -36 -19.5 q-17 2.5 -24 20.5 q-7 16 -31 17 q-7 1 -13 3.5 q-6 2.5 -14 4 q-8 1.5 -16 6.5 q-20 11 -33 35 q-8 15 -15.5 25 q-7.5 10 -12.5 19 q-13 20 -10 38 q6 48 -13 63 q-11 7 -11 11 q0 4 -4 17 q-6 18 0.5 42 q6.5 24 4.5 39.5 q-2 15.5 -5 32.5 q-6 44 -1 58 q5 14 2.5 40 q-2.5 26 -2.5 42.5 q0 16.5 -2.5 43.5 q-2.5 27 -0.5 58 q7 78 53 107 q69 41 88 39 q6 0 14.5 -1.5 q8.5 -1.5 16.5 0.5 q8 2 14 6 q6 4 12 9 q24 22 43 5 q18 -21 28 -28 q17 -13 51 -15 Z" /><glyph glyph-name="D" unicode="d" d="M425 638.5 q11 -10.5 14 -30 q3 -19.5 13 -60.5 q10 -41 -4 -88 q-8 -27 -10 -44 q-6 -32 -13.5 -54.5 q-7.5 -22.5 -14.5 -55 q-7 -32.5 -18 -56 q-11 -23.5 -17.5 -34.5 q-6.5 -11 -11.5 -20 q-12 -23 -14.5 -35 q-2.5 -12 -7 -26.5 q-4.5 -14.5 -11.5 -28.5 q-19 -32 -46 -24 q-34 -27 -44 -42.5 q-10 -15.5 -18 -22.5 q-8 -7 -15.5 -10 q-7.5 -3 -14.5 -5 q-7 -2 -14 -7 q-7 -5 -19.5 -8.5 q-12.5 -3.5 -25.5 -0.5 q-32 6 -34 52 q-26 10 -33 19 q-16 18 -16 46.5 q0 28.5 3.5 46 q3.5 17.5 6.5 33.5 q9 39 3 61.5 q-6 22.5 -3.5 42 q2.5 19.5 1 43 q-1.5 23.5 0 41.5 q1.5 18 3 34.5 q1.5 16.5 1.5 30.5 q0 14 -6 26.5 q-6 12.5 -9.5 25.5 q-3.5 13 -5.5 24 q-3 27 -9.5 39 q-6.5 12 -5.5 28.5 q1 16.5 -2.5 33 q-3.5 16.5 -3 26 q0.5 9.5 -2 20 q-2.5 10.5 1.5 12.5 q6 3 11 25 q5 22 12 27.5 q7 5.5 15 10 q8 4.5 18 6.5 q23 3 42.5 -8 q19.5 -11 29 -10 q9.5 1 19.5 6 q32 13 62 13 q30 0 42 -3.5 q12 -3.5 19 -7 q7 -3.5 13.5 -7 q6.5 -3.5 19 -3.5 q12.5 0 18.5 -6 q6 -6 11.5 -14 q5.5 -8 12.5 -16 q7 -8 18.5 -10.5 q11.5 -2.5 15 -5 q3.5 -2.5 5.5 -6 q2 -3.5 4.5 -8.5 q2.5 -5 13.5 -15.5 ZM214 484 q-10 -11 -8 -35.5 q2 -24.5 7 -55 q5 -30.5 4 -50.5 q-1 -20 -3.5 -39 q-2.5 -19 -5 -38 q-2.5 -19 -2.5 -37.5 q0 -18.5 5 -26.5 q5 -8 11 -7.5 q6 0.5 12 8 q6 7.5 8.5 25 q2.5 17.5 13 34 q10.5 16.5 16.5 33.5 q6 17 7.5 25 q1.5 8 2.5 14.5 q1 6.5 1.5 14 q0.5 7.5 5.5 23.5 q5 16 1.5 28.5 q-3.5 12.5 -5.5 28.5 q-2 16 -6.5 29.5 q-4.5 13.5 -20.5 18.5 q-7 2 -12.5 6 q-5.5 4 -10.5 7 q-11 5 -21 -6 Z" /><glyph glyph-name="E" unicode="e" d="M27 595 l2 57 q0 14 -2.5 28 q-2.5 14 7 29.5 q9.5 15.5 28.5 27.5 q19 12 43 12 q24 0 38 -8 q14 -8 26 -13 q12 -5 27 -8 q32 -5 62 9 q33 16 53 -2 q21 -1 44 4 q38 8 52 1 q31 -18 10 -72 q-3 -8 -3 -14 q0 -6 0 -12 q0 -18 -3 -27 q-3 -9 -3 -15 q0 -6 0 -14 q2 -16 -5 -31 q-4 -9 -4 -14.5 q0 -5.5 0 -10.5 q0 -13 -14 -25 q-23 -24 -38 -24 q-3 0 -6 2 q-3 2 -9 4 q-24 8 -50.5 10 q-26.5 2 -38.5 -1 q-30 -6 -37 -29 q-8 -24 4 -37 q5 -6 11 -8 q6 -2 11.5 -0.5 q5.5 1.5 15 -0.5 q9.5 -2 19.5 -5 q27 -6 36.5 -1.5 q9.5 4.5 13 3.5 q3.5 -1 5.5 -3 q7 -7 13 -7 q16 1 22 -13.5 q6 -14.5 -2 -35.5 q0 -3 -3 -15 q-7 -24 -6.5 -33 q0.5 -9 -3.5 -18.5 q-4 -9.5 -11 -16.5 q-17 -15 -37 -9 q-9 4 -16 11 q-51 15 -69 -7 q-10 -12 -11 -21 q-1 -9 -1 -32 l0 -37 q13 -9 24 -20.5 q11 -11.5 27 -12.5 q16 -1 28.5 2.5 q12.5 3.5 23.5 7.5 q24 10 44 3.5 q20 -6.5 25 -17.5 q5 -11 2 -29 q-3 -18 -2.5 -26.5 q0.5 -8.5 0.5 -15.5 q0 -17 -13 -33 q-14 -21 -26 -25.5 q-12 -4.5 -31 -2 q-19 2.5 -31 -2 q-12 -4.5 -21.5 -11.5 q-9.5 -7 -18.5 -13 q-15 -10 -34 0 q-7 4 -14 8 q-18 9 -44 7.5 q-26 -1.5 -46 15 q-20 16.5 -20.5 40.5 q-0.5 24 2.5 34.5 q3 10.5 6 16.5 q4 13 -4 20 q-24 19 -17 50 q3 16 6 25 q3 9 1 19.5 q-2 10.5 -1.5 19 q0.5 8.5 -0.5 16.5 q-2 16 -14 18 q-15 2 -20 32 q-6 29 4.5 58 q10.5 29 8.5 45.5 q-2 16.5 -3 30.5 l1 39 q0 29 -5 39 q-5 10 -3 29.5 q2 19.5 -1 30 q-3 10.5 -3 23.5 Z" /><glyph glyph-name="F" unicode="f" d="M175.5 6.5 q-4.5 -9.5 -11 -15 q-6.5 -5.5 -18.5 -1 q-12 4.5 -16.5 12.5 q-4.5 8 -7 17.5 q-2.5 9.5 -5 18.5 q-2.5 9 -9.5 15 q-15 11 -19 30 q-6 36 -6.5 86 q-0.5 50 -1.5 69 q-1 19 -3.5 28 q-2.5 9 -6 11 q-3.5 2 -9.5 5 q-11 5 -16 35.5 q-5 30.5 -3 71.5 q4 77 -9 132 q-12 52 -9 98.5 q3 46.5 9 65.5 q12 44 43.5 38 q31.5 -6 50 -5 q18.5 1 30.5 5 q12 4 22 8 q10 4 26.5 3.5 q16.5 -0.5 30 -5 q13.5 -4.5 27.5 -8.5 q37 -12 58 -11 q21 1 33 2.5 q12 1.5 21 1.5 q19 0 31.5 -10 q12.5 -10 14.5 -22 q2 -12 1 -25 q-2 -25 -9 -41.5 q-7 -16.5 -7.5 -27.5 q-0.5 -11 0.5 -21.5 q1 -10.5 2 -20.5 q1 -10 -1.5 -21.5 q-2.5 -11.5 -12.5 -23 q-10 -11.5 -23 -20.5 q-29 -18 -47 -13 q-18 5 -26.5 8.5 q-8.5 3.5 -16.5 5.5 q-17 5 -33 1 q-16 -4 -22 -15 q-6 -11 -4.5 -23 q1.5 -12 11.5 -21.5 q10 -9.5 27.5 -10.5 q17.5 -1 28.5 0 q11 1 18 1 q15 0 27 -13 q18 -21 -3 -63 q-5 -11 -8.5 -29 q-3.5 -18 -8.5 -35.5 q-5 -17.5 -12.5 -29 q-7.5 -11.5 -17.5 -9.5 q-10 2 -13.5 6 q-3.5 4 -7.5 7 q-8 8 -18 5 q-16 -4 -18.5 -28.5 q-2.5 -24.5 -1.5 -48.5 q1 -24 2.5 -41 q1.5 -17 -0.5 -34 q-3 -39 -30 -59 q-9 -6 -13.5 -16.5 q-4.5 -10.5 -9 -20 Z" /><glyph glyph-name="G" unicode="g" d="M268 241 q-28 0 -26 26 q2 21 -1 34 q-5 22 -2 32 q8 30 65 14 q10 -3 16 -3 q6 0 12 1 q18 3 32.5 0.5 q14.5 -2.5 25.5 -1.5 q11 1 20.5 3 q9.5 2 17.5 4 q8 2 15 2 q10 0 14.5 -16.5 q4.5 -16.5 3.5 -36.5 q-3 -51 -24 -59 q-15 -6 -28.5 -19 q-13.5 -13 -10 -38.5 q3.5 -25.5 4 -40 q0.5 -14.5 0 -25 q-0.5 -10.5 -1 -18 q-0.5 -7.5 1 -19 q1.5 -11.5 -1 -30.5 q-2.5 -19 -9.5 -34 q-17 -36 -43 -27 q-19 6 -37 32 q-6 9 -11.5 15.5 q-5.5 6.5 -14.5 4 q-9 -2.5 -15.5 -10 q-6.5 -7.5 -13.5 -15.5 q-42 -52 -107 -15 q-33 18 -46 45 q-5 12 -10.5 27 q-5.5 15 -12.5 29 q-16 33 -31 44 q-14 11 -16 108 q-1 21 1 36.5 q2 15.5 2 39.5 l0 46 q0 22 -1 42 q0 32 5 56 q-32 21 -25 81 q5 38 14.5 55.5 q9.5 17.5 15 35 q5.5 17.5 11.5 37 q6 19.5 17 25.5 q11 6 14 10 q3 4 6 8 q19 28 82 38 q28 5 55 -5 q27 -10 45 -12 q18 -2 34 -3 q69 -4 90 -29 q15 -17 19 -34.5 q4 -17.5 10.5 -28 q6.5 -10.5 4.5 -22 q-2 -11.5 -0.5 -19 q1.5 -7.5 -1.5 -15.5 q-3 -8 -6 -16 q-6 -21 1.5 -30 q7.5 -9 13.5 -16.5 q6 -7.5 9 -15.5 q9 -20 2 -34 q-7 -14 -15.5 -27 q-8.5 -13 -21.5 -14 q-35 -3 -47 -11.5 q-12 -8.5 -20 -11.5 q-20 -9 -37 2 q-28 13 -24 48 q2 42 -31 46 q-15 2 -31 -9 q-16 -11 -25 -29 q-21 -47 -5 -87 q4 -10 4 -25 l0 -26 q0 -23 -5.5 -34 q-5.5 -11 -6.5 -25.5 q-1 -14.5 -0.5 -33.5 q0.5 -19 3 -40.5 q2.5 -21.5 6.5 -39.5 q11 -42 31 -40 q16 0 25 15 q3 6 7 12 q4 6 12 9.5 q8 3.5 11.5 11.5 q3.5 8 3.5 19 q1 12 -2 49 q-8 -2 -16 -2 Z" /><glyph glyph-name="H" unicode="h" d="M123 744 q71 21 82 -26 q4 -17 2 -28 q-2 -11 -2 -24 l0 -30 q0 -41 -3 -57.5 q-3 -16.5 -1 -38.5 q2 -22 -1.5 -42 q-3.5 -20 0.5 -27 q4 -7 10 -11 q8 -6 21 -6 q22 0 29 20 q3 9 0.5 30.5 q-2.5 21.5 -0.5 42.5 q2 21 -0.5 38.5 q-2.5 17.5 -4 37.5 q-1.5 20 -1.5 41 q0 49 11 62 q11 13 34.5 19.5 q23.5 6.5 50.5 6.5 q63 0 83 -28 q9 -12 9 -24 q0 -12 -1 -18.5 q-1 -6.5 0 -15.5 q3 -24 -3 -48 q-6 -24 -8.5 -47 q-2.5 -23 -3.5 -50 q-3 -45 -3 -96 q0 -91 -7 -115 q-17 -51 -6 -77 q3 -7 2.5 -16.5 q-0.5 -9.5 -1 -20 q-0.5 -10.5 -0.5 -20.5 q0 -10 5 -23 q9 -27 -17 -57 q-9 -10 -8 -34.5 q1 -24.5 1 -36 q0 -11.5 -5.5 -17 q-5.5 -5.5 -23 -11.5 q-17.5 -6 -38.5 -8 q-53 -5 -67 21 q-12 22 -5.5 87.5 q6.5 65.5 9 98.5 q2.5 33 -1.5 46 q-4 13 -13 16 q-9 3 -19 2 q-22 -2 -30 -13 q1 -23 1 -63.5 q0 -40.5 -1 -81.5 q-3 -101 -7.5 -107.5 q-4.5 -6.5 -16.5 -9.5 q-12 -3 -26 -3 q-32 -2 -42 10.5 q-10 12.5 -16 19.5 q-6 7 -16.5 10.5 q-10.5 3.5 -12.5 11.5 q-2 8 -4 20 q-5 28 0 35.5 q5 7.5 5.5 20.5 q0.5 13 -3.5 16.5 q-4 3.5 -7.5 28.5 q-3.5 25 -5.5 56 q-2 31 -2 59.5 q0 28.5 6 42.5 q14 32 2.5 62 q-11.5 30 -13.5 47.5 q-2 17.5 -3 31.5 q-1 37 -4 47 q-3 10 -4 27.5 q-1 17.5 -1 37.5 q0 20 0.5 41 q0.5 21 -1 47 q-1.5 26 1 52 q2.5 26 18 40 q15.5 14 38 17 q22.5 3 39.5 -19 Z" /><glyph glyph-name="I" unicode="i" d="M230 155 q7 -17 21 -17 q13 0 17 -5 q7 -11 0 -42 q-4 -18 -4.5 -28 q-0.5 -10 -1.5 -17 q-2 -12 -14 -26 q-13 -11 -28.5 -15.5 q-15.5 -4.5 -25.5 -7 q-10 -2.5 -22 -8.5 q-18 -9 -30.5 -8 q-12.5 1 -19 1.5 q-6.5 0.5 -15 -2.5 q-8.5 -3 -13.5 -2.5 q-5 0.5 -10 2.5 q-15 6 -28 6 q-18 0 -24 60 q-3 24 -1 46 q2 22 7 28.5 q5 6.5 12 9 q7 2.5 13 4 q6 1.5 11 2.5 q6 3 6.5 21.5 q0.5 18.5 1.5 34.5 q1 44 7 62 q10 27 -3 46 q-13 23 -10 86 q2 38 -1 62 q-4 47 -3 66 q1 14 1 22 q0 8 -1 12 q-3 8 -18 8.5 q-15 0.5 -28 13.5 q-13 13 -11 41 q3 28 0 51 q-3 23 3 36 q6 13 7 22 q1 9 3 16 q6 16 27.5 18 q21.5 2 40 -0.5 q18.5 -2.5 34.5 -6.5 q42 -10 55 -10 q10 0 22.5 2.5 q12.5 2.5 24.5 4.5 q28 5 42.5 -3 q14.5 -8 18 -19 q3.5 -11 3.5 -23.5 q0 -12.5 -1.5 -26.5 q-1.5 -14 1.5 -30 q9 -36 1 -58.5 q-8 -22.5 -15 -27 q-7 -4.5 -13.5 -5.5 q-6.5 -1 -13 -1.5 q-6.5 -0.5 -11.5 -7.5 q-8 -13 -8 -100 l2 -167 q0 -64 -8 -120 Z" /><glyph glyph-name="J" unicode="j" d="M175 461 q-3 21 -3 46 q0 43 -7 58 q-7 15 -6 24.5 q1 9.5 -3 16.5 q-3 7 -2.5 21 q0.5 14 -10 28 q-10.5 14 -12.5 31.5 q-2 17.5 7 29.5 q10 11 19.5 12 q9.5 1 16.5 1.5 q7 0.5 17 6.5 q10 6 21 5.5 q11 -0.5 22 -1.5 q31 -1 46 9 q34 22 56 16 q46 -14 26 -111 q-12 -54 -11.5 -157.5 q0.5 -103.5 -0.5 -137.5 q-1 -34 -10 -49 q-13 -20 -13 -60 l1 -75 q-2 -39 -11 -74 q-9 -35 -38 -55 q-16 -11 -34.5 -36 q-18.5 -25 -28 -33.5 q-9.5 -8.5 -23 -7 q-13.5 1.5 -18 6.5 q-4.5 5 -8.5 10 q-10 12 -42.5 8 q-32.5 -4 -52.5 -4 q-20 0 -36 20 q-11 12 -14 23 q-5 20 -14.5 30 q-9.5 10 -13.5 19.5 q-4 9.5 -5.5 18.5 q-1.5 9 -3 19 q-1.5 10 -10 29 q-8.5 19 -6 41.5 q2.5 22.5 11.5 33.5 q21 27 57 31 q29 19 45 9 q6 -4 11.5 -5.5 q5.5 -1.5 9.5 -4.5 q7 -4 5 -30 q-5 -30 -1.5 -44.5 q3.5 -14.5 12.5 -21.5 q19 -14 40 -1 q5 23 20 43 l0 45 q0 77 -3 90 q-3 13 -1.5 19 q1.5 6 4.5 12 q13 35 -4 60 q-11 15 -1 35 Z" /><glyph glyph-name="K" unicode="k" d="M40 573 l1 19 q0 3 -3.5 15.5 q-3.5 12.5 -4 23.5 q-0.5 11 0 18.5 q0.5 7.5 1 14 q0.5 6.5 -3 18 q-3.5 11.5 2.5 21.5 q6 10 7 19.5 q1 9.5 6 19 q5 9.5 20.5 15.5 q15.5 6 24 1 q8.5 -5 18.5 -12 q28 -20 54.5 -18 q26.5 2 36.5 -3.5 q10 -5.5 15 -14.5 q5 -9 7 -19 q2 -10 5 -20 q3 -10 5 -26 q2 -16 -7.5 -32.5 q-9.5 -16.5 -9 -28.5 q0.5 -12 3.5 -26 q6 -38 -4 -70 q-2 -4 -2.5 -7.5 q-0.5 -3.5 -2.5 -6.5 q43 29 53 43 q12 14 19 34.5 q7 20.5 10 25.5 q3 5 5 8 q5 5 8 21 q8 42 22 53 q-3 30 8 57.5 q11 27.5 43 32 q32 4.5 46 -7.5 q25 5 37 2.5 q12 -2.5 24 -15.5 q22 -22 9 -80 q-3 -11 -3.5 -23.5 q-0.5 -12.5 -2.5 -24.5 q-5 -28 -25 -45 q-38 -32 -38 -92 q0 -26 -9.5 -35.5 q-9.5 -9.5 -21.5 -8.5 q-12 1 -22.5 -6 q-10.5 -7 -19.5 -17 q-22 -26 -22.5 -40 q-0.5 -14 8.5 -29 q9 -15 21 -37 l23 -41 q43 -77 43 -167 q0 -15 9.5 -35.5 q9.5 -20.5 0 -39.5 q-9.5 -19 -23.5 -22 q-52 -15 -69 61 q-13 54 -62 93 q-13 11 -18 28 l-8 25 q-3 10 -8.5 17.5 q-5.5 7.5 -11.5 16 q-6 8.5 -15 7.5 q-14 -2 -15 -30 l0 -27 q0 -81 -21 -93 q-9 -5 -14 -19 l-9 -28 q-5 -15 -12.5 -27.5 q-7.5 -12.5 -23.5 -14.5 q-31 -4 -42.5 29 q-11.5 33 -12.5 75 q-1 42 -3 53 q-2 11 -5.5 18.5 q-3.5 7.5 -7 14 q-3.5 6.5 -7.5 17.5 q-9 26 -10.5 59.5 q-1.5 33.5 0 44.5 q1.5 11 -1.5 28 q-4 17 -1 30.5 q3 13.5 2 25 q-1 11.5 1 21.5 q2 10 4 22 q5 27 3 49.5 q-2 22.5 -1.5 31.5 q0.5 9 1 15 q0.5 6 0.5 12 l-4 33 Z" /><glyph glyph-name="L" unicode="l" d="M204 143 q12 5 26 5 q14 0 22 -4 q8 -4 16 -9 q19 -13 41 -12.5 q22 0.5 37 2 q15 1.5 29 -8.5 q17 -15 15 -50 q-2 -33 -15 -42.5 q-13 -9.5 -24 -9.5 q-11 0 -22 1.5 q-11 1.5 -21 2.5 q-10 1 -17 -5 q-36 -25 -57 -5 q-10 11 -26 10 q-16 -1 -28.5 -6.5 q-12.5 -5.5 -25.5 -9.5 q-59 -22 -80 32 q-4 11 -6.5 20.5 q-2.5 9.5 -5.5 15.5 q-7 14 -4 48 q3 47 -1 69 q-4 22 -7 35 q-7 34 -6 53 q3 33 -3 71 q-1 11 7 30 q26 60 0 92 q-5 6 -9 11 q-4 5 -4 14 q-9 81 -9 208 q0 11 10 21 q19 19 30 17 q37 -10 66.5 -2.5 q29.5 7.5 51.5 8 q22 0.5 38 -20.5 q36 -50 18 -119 q-5 -16 -4 -30.5 q1 -14.5 -5.5 -31 q-6.5 -16.5 -5.5 -30.5 q1 -14 3 -39 q5 -65 -18 -101 q-12 -19 -10.5 -46 q1.5 -27 3 -44.5 q1.5 -17.5 0 -38 q-1.5 -20.5 -1.5 -48 q0 -27.5 3 -53.5 Z" /><glyph glyph-name="M" unicode="m" d="M481 744 q32 0 59 -17 q16 5 30.5 5 q14.5 0 36 -4 q21.5 -4 31 -20 q9.5 -16 8.5 -27 q-2 -20 -7 -29 q9 -24 -9 -59 q24 -58 -1 -173 q-6 -28 -12 -54 q-14 -61 -14 -86 q0 -16 2.5 -47 q2.5 -31 4.5 -63 q2 -32 2 -59 q0 -27 -5.5 -34.5 q-5.5 -7.5 -8 -23 q-2.5 -15.5 -6.5 -30.5 q-4 -15 -11 -25.5 q-7 -10.5 -17.5 -9 q-10.5 1.5 -13 4.5 q-2.5 3 -4.5 7 q-3 10 -12 13 q-14 4 -14.5 18.5 q-0.5 14.5 4 21 q4.5 6.5 4.5 14 q0 7.5 -3 15.5 q-7 16 -18 18.5 q-11 2.5 -18 12 q-7 9.5 -12 21.5 q-12 29 -8.5 44 q3.5 15 -1.5 36 q-16 64 -2 97 q5 14 1 24 q-6 21 -3 36 q6 30 6 55.5 q0 25.5 -13 25.5 q-12 0 -16 -64 q-4 -71 -12.5 -84 q-8.5 -13 -14.5 -21.5 q-6 -8.5 -11 -19.5 q-10 -22 -10 -48.5 q0 -26.5 -1.5 -31.5 q-1.5 -5 -2.5 -11 q-5 -18 -5 -44 q0 -36 -15 -58 q-2 -3 -4 -12.5 q-2 -9.5 -6 -19.5 q-10 -24 -26 -23.5 q-16 0.5 -24.5 10 q-8.5 9.5 -13.5 22.5 q-5 13 -8 26 q-3 13 -10 25 q-10 17 5 70 q6 21 5 34.5 q-1 13.5 -14 21.5 q-6 4 -12.5 43.5 q-6.5 39.5 -11 66 q-4.5 26.5 -8.5 48.5 q-11 51 -17.5 52 q-6.5 1 -8 -4.5 q-1.5 -5.5 -0.5 -13.5 q1 -8 2.5 -16 q1.5 -8 2 -15 q0.5 -7 -6 -26.5 q-6.5 -19.5 -1.5 -44.5 q5 -25 5 -38 q0 -13 -3 -28.5 q-3 -15.5 -1.5 -27.5 q1.5 -12 2.5 -22 q2 -25 -11 -33 q-13 -8 -12.5 -26 q0.5 -18 11.5 -29.5 q11 -11.5 8 -21.5 q-3 -10 -7 -16 q-4 -6 -3 -10 q1 -4 0 -10 q-2 -24 -38 -44 q-29 -16 -48 -12.5 q-19 3.5 -28 13.5 q-9 10 -7 22.5 q2 12.5 0.5 23 q-1.5 10.5 -2 21.5 q-0.5 11 -1.5 22 q-1 30 -6 40.5 q-5 10.5 -6 21.5 q-1 11 -0.5 20.5 q0.5 9.5 1.5 17.5 q1 8 -2.5 17 q-3.5 9 -0.5 23 q3 14 1 27 q-2 13 0.5 23.5 q2.5 10.5 4.5 21.5 q3 26 -11 35 q-16 13 -21.5 27.5 q-5.5 14.5 -4.5 37.5 q1 23 0 37.5 q-1 14.5 5.5 35 q6.5 20.5 6.5 42.5 q0 22 -1.5 38 q-1.5 16 -3.5 30 q-2 14 -4 29 q-3 31 3 52 q8 20 20.5 33.5 q12.5 13.5 40.5 12.5 q54 -2 65 5 q23 14 52 1 q8 -3 14 -8 q56 -14 63 -45 q20 -84 20 -111.5 q0 -27.5 1.5 -32.5 q1.5 -5 3 -7.5 q1.5 -2.5 1.5 -5.5 q0 -3 -2 -16 q-2 -13 3 -20 q5 -7 11.5 -7 q6.5 0 12.5 7 q7 8 9.5 31.5 q2.5 23.5 2.5 28.5 q0 9 3.5 16.5 q3.5 7.5 4.5 16.5 q1 9 3 19 q3 26 13 36 q10 10 21 17.5 q11 7.5 14 21.5 q3 14 6.5 26 q3.5 12 10.5 23 q17 28 50 28 Z" /><glyph glyph-name="N" unicode="n" d="M391 746 q31 9 45 -7 q26 5 48 -12 q22 -17 11 -65 q-7 -24 -4 -34 q3 -10 8.5 -20 q5.5 -10 3.5 -23.5 q-2 -13.5 -5 -29.5 q-10 -45 -4 -73 q15 -66 -12 -138 q-29 -79 -18 -190 q9 -80 6.5 -104.5 q-2.5 -24.5 -11.5 -39.5 q-9 -15 -30 -15 q-36 0 -50 21 q-8 12 -8 31 q0 19 -5.5 34 q-5.5 15 -13.5 28 q-19 28 -36 39 q-28 19 -43 91 q-9 53 -23 87 q-4 10 -6 21.5 q-2 11.5 -4 22.5 q-6 24 -21 24 q-23 0 -18 -66 q1 -14 4.5 -25.5 q3.5 -11.5 0.5 -27.5 q-3 -16 -8 -33 q-12 -44 -5 -65 q7 -24 5 -50.5 q-2 -26.5 -8 -41 q-6 -14.5 -21 -20.5 q-9 -16 -15 -36.5 q-6 -20.5 -8.5 -27.5 q-2.5 -7 -6.5 -8 q-17 -6 -34.5 2 q-17.5 8 -22.5 22.5 q-5 14.5 -4.5 27.5 q0.5 13 -3 23.5 q-3.5 10.5 -3 17.5 q0.5 7 0.5 14 q2 16 -5 24 q-9 10 -9.5 27 q-0.5 17 -0.5 29 q0 12 2 20 q7 19 6 58 q-3 73 -18 88 q-19 19 -21 70 q-1 12 1.5 22.5 q2.5 10.5 1 21.5 q-1.5 11 3.5 22 q8 21 5 59.5 q-3 38.5 -3.5 55 q-0.5 16.5 -2 35 q-1.5 18.5 3 33 q4.5 14.5 15.5 25.5 q25 27 70 27 q20 14 46.5 22 q26.5 8 44.5 1 q18 -7 25 -22 q7 -15 11.5 -32 q4.5 -17 9 -34.5 q4.5 -17.5 15.5 -28.5 q11 -11 16 -26.5 q5 -15.5 9 -29.5 q4 -14 8 -23.5 q4 -9.5 13 -9.5 q9 0 10.5 25.5 q1.5 25.5 1 58.5 q-0.5 33 -1 64.5 q-0.5 31.5 5.5 46 q6 14.5 21.5 21.5 q15.5 7 35.5 -4 Z" /><glyph glyph-name="O" unicode="o" d="M37.5 559.5 q-1.5 12.5 -1.5 25.5 q0 13 4 30.5 q4 17.5 20.5 32 q16.5 14.5 28.5 29 q12 14.5 21 29.5 q9 15 22 24 q45 31 126 24 q33 -3 70 -24 q18 -10 31 -36.5 q13 -26.5 18 -36.5 q5 -10 13 -14.5 q8 -4.5 14.5 -12.5 q6.5 -8 14 -25.5 q7.5 -17.5 13.5 -40.5 q16 -53 14 -89 q-2 -36 -3 -73 q-2 -66 -13 -95 q-11 -29 -16.5 -48.5 q-5.5 -19.5 -6.5 -35.5 q-1 -16 -1 -31 q-2 -40 -5.5 -48 q-3.5 -8 -11.5 -16 q-8 -8 -17.5 -15.5 q-9.5 -7.5 -18.5 -14.5 q-9 -7 -13 -11.5 q-4 -4.5 -9.5 -12.5 q-5.5 -8 -11 -17 q-5.5 -9 -10 -16.5 q-4.5 -7.5 -6.5 -11 q-2 -3.5 -7 -12.5 q-5 -9 -12 -19 q-39 -48 -74 -4 q-3 5 -9.5 5 q-6.5 0 -15 -4.5 q-8.5 -4.5 -23.5 0.5 q-15 5 -23.5 16.5 q-8.5 11.5 -16 18.5 q-7.5 7 -14.5 11 q-7 4 -14 7 q-19 10 -20 16.5 q-1 6.5 -1.5 12.5 q-0.5 6 -2.5 15 q-8 48 -39 136 q-24 66 -13 137 q8 52 15 87 q11 53 8.5 74 q-2.5 21 -4 33.5 ZM231.5 502.5 q-18.5 -1.5 -24.5 -14 q-6 -12.5 -9 -24 q-3 -11.5 -7.5 -18.5 q-4.5 -7 -8.5 -14 q-17 -25 -4 -52 q19 -39 20 -51.5 q1 -12.5 2 -36 q1 -23.5 4 -48.5 q9 -63 27 -63 q10 0 19 23 q2 5 2.5 17 q0.5 12 3.5 28 q11 57 8.5 79 q-2.5 22 -3 39 q-0.5 17 -0.5 35 l0 61 q0 22 -5.5 31.5 q-5.5 9.5 -24 8 Z" /><glyph glyph-name="P" unicode="p" d="M28 523 l-5 83 q0 21 -1 45 q-4 60 8 67 q11 6 15.5 13 q4.5 7 10 7 q5.5 0 17 0.5 q11.5 0.5 24.5 -0.5 q31 -2 41.5 -9 q10.5 -7 23.5 -9 q13 -2 26.5 -2.5 q13.5 -0.5 25.5 0 q12 0.5 21.5 0.5 q9.5 0 12.5 -2 q12 -5 20.5 -4 q8.5 1 16.5 -7.5 q8 -8.5 11 -13 q3 -4.5 19.5 -6.5 q16.5 -2 27.5 -3.5 q11 -1.5 22 -9.5 q11 -8 18 -10 q7 -2 15.5 -13 q8.5 -11 11.5 -16 q3 -5 4 -17 q1 -28 14 -41 q13 -13 14.5 -25 q1.5 -12 2.5 -28 q1 -16 3.5 -39.5 q2.5 -23.5 -10 -52 q-12.5 -28.5 -25 -39.5 q-12.5 -11 -20.5 -26.5 q-8 -15.5 -11.5 -35 q-3.5 -19.5 -21.5 -39.5 q-11 -14 -17.5 -17 q-6.5 -3 -12.5 -6.5 q-6 -3.5 -14 -9 q-8 -5.5 -18 -9.5 q-25 -12 -43 -5 q-11 -5 -21.5 -6.5 q-10.5 -1.5 -21.5 -4.5 q-23 -8 -25.5 -27 q-2.5 -19 4 -39 q6.5 -20 7.5 -34 q5 -45 -22 -78 q-17 -20 -22 -42.5 q-5 -22.5 -18 -30.5 q-22 -20 -42 9 q-3 3 -13 8 q-14 8 -17.5 25.5 q-3.5 17.5 -3.5 35.5 q0 18 -3 34 q-3 16 -7 34 q-9 49 -9 67 q0 18 -0.5 37 q-0.5 19 5 34 q5.5 15 4.5 20 q-1 5 2 11.5 q3 6.5 7 16 q4 9.5 6 19.5 q4 21 -12 36 q-18 17 -18 36 l0 6 q3 34 1 46 q-8 34 -8 67 ZM188 477.5 q2 -4.5 3.5 -12 q1.5 -7.5 3 -21.5 q1.5 -14 0 -29.5 q-1.5 -15.5 -2.5 -28.5 q-2 -33 8 -37 q11 -5 36 27 q27 33 45 80 q9 25 1 37 q-17 20 -14 36 q1 1 0 5 q-2 2 -5 5.5 q-3 3.5 -9 6.5 q-23 9 -41.5 0.5 q-18.5 -8.5 -24 -24.5 q-5.5 -16 -5 -24.5 q0.5 -8.5 1.5 -12 q1 -3.5 3 -8 Z" /><glyph glyph-name="Q" unicode="q" d="M426 240 q-24 -64 -25.5 -78 q-1.5 -14 -2.5 -17 q8 -32 23.5 -46.5 q15.5 -14.5 22 -22.5 q6.5 -8 7 -22.5 q0.5 -14.5 -7.5 -24.5 q-8 -10 -19 -25 q-29 -39 -45 -36 q-11 3 -27.5 22 q-16.5 19 -24.5 27.5 q-8 8.5 -14 9 q-6 0.5 -12 -5 q-6 -5.5 -15 -13.5 q-30 -27 -78 -19 q-21 3 -29.5 10 q-8.5 7 -18 11 q-9.5 4 -19 7 q-9.5 3 -19.5 17 q-12 20 -27.5 75 q-15.5 55 -18 67.5 q-2.5 12.5 -5.5 21.5 q-16 9 -21 25 q-12 34 -9.5 59 q2.5 25 -1 35 q-3.5 10 -13.5 23 q-23 34 -3 73 q15 33 15 73 q-1 55 19 128 q12 42 31 71 q19 29 33 35 q14 6 21 7.5 q7 1.5 16.5 3 q9.5 1.5 20 3.5 q10.5 2 20.5 3.5 q10 1.5 18 4 q8 2.5 19.5 9.5 q11.5 7 27.5 6.5 q16 -0.5 26 -9.5 q12 -9 29 -13 q17 -4 24 -4 q38 -18 47 -36 q6 -14 19.5 -26.5 q13.5 -12.5 18.5 -22.5 q17 -35 25 -82 q1 -15 2 -24 q1 -9 1.5 -16.5 q0.5 -7.5 1 -16 q0.5 -8.5 2.5 -27.5 q5 -74 2.5 -92 q-2.5 -18 -9.5 -32.5 q-7 -14.5 -12 -30 q-5 -15.5 -4.5 -35.5 q0.5 -20 -10.5 -50 ZM236 234 l-2 42 q0 8 8 16.5 q8 8.5 14 15.5 q9 8 29 1 q25 45 10 71 q-8 15 -4 32 q4 17 5.5 34 q1.5 17 -0.5 23 q-2 6 -4.5 10.5 q-2.5 4.5 -6 8 q-3.5 3.5 -7 13.5 q-3.5 10 -19.5 16 q-16 6 -27 -2.5 q-11 -8.5 -16.5 -20 q-5.5 -11.5 -9 -23.5 q-3.5 -12 -6 -23.5 q-2.5 -11.5 -4.5 -18 q-2 -6.5 -4.5 -22 q-2.5 -15.5 -3.5 -33.5 q-4 -46 4 -63 q8 -17 6.5 -30 q-1.5 -13 3.5 -24.5 q5 -11.5 6.5 -20 q1.5 -8.5 3.5 -16.5 q3 -19 13.5 -19 q10.5 0 10.5 33 Z" /><glyph glyph-name="R" unicode="r" d="M196 180 l3 -48 q2 -39 -20 -51 q-6 -40 -6 -71 q-7 -14 -23 -17 q-30 -4 -39 16 q-13 25 -21 27 q-2 1 -6.5 1.5 q-4.5 0.5 -10.5 3 q-6 2.5 -4.5 15.5 q1.5 13 -0.5 21 q-2 8 -5 17 q-8 26 -8 50 q0 17 0.5 31 q0.5 14 0.5 28 q-2 45 -11.5 77 q-9.5 32 -12.5 42 q-6 22 -6 42 q0 12 3 17.5 q3 5.5 6 11.5 q8 15 6.5 35 q-1.5 20 -3 40.5 q-1.5 20.5 -3 46 q-1.5 25.5 -3 54.5 q-1.5 29 -1.5 56 q0 88 22 99 q4 2 9.5 4.5 q5.5 2.5 13.5 7.5 q8 5 14.5 10 q6.5 5 13.5 8 q13 6 31.5 -1.5 q18.5 -7.5 26.5 -10 q8 -2.5 16 -4 q8 -1.5 18.5 -1 q10.5 0.5 30 1 q19.5 0.5 42 -0.5 q22.5 -1 43.5 -6 q68 -14 105 -75 q16 -27 17 -48 q1 -21 2.5 -40.5 q1.5 -19.5 7.5 -44 q6 -24.5 4 -46.5 q-2 -22 -4.5 -30.5 q-2.5 -8.5 -5.5 -15.5 q-5 -15 -4 -31 q2 -26 -4 -40.5 q-6 -14.5 -12 -29.5 q-17 -37 -37 -42 q-11 -2 -18 -4 q-7 -2 -8 -9 q-2 -5 6 -11.5 q8 -6.5 16.5 -19.5 q8.5 -13 14.5 -17 q6 -4 11 -5 q15 -3 19 -7 q9 -11 13.5 -18 q4.5 -7 2.5 -21 q-2 -14 0 -29 q2 -15 4 -31.5 q2 -16.5 0.5 -27.5 q-1.5 -11 -1.5 -16 l4 -26 q0 -24 -14 -39 q-14 -15 -22 -17 q-8 -2 -15 1 q-7 3 -12 7.5 q-5 4.5 -8 6 q-3 1.5 -7.5 2 q-4.5 0.5 -9.5 2.5 q-18 5 -31 70 q-7 32 -24 41 q-26 13 -28 36 q-1 11 -2 30 q-4 38 -26 47 q-11 4 -20 4 q-9 0 -18 -10 q-12 -15 -12 -48 ZM246 370 q13 12 25.5 21.5 q12.5 9.5 21 25 q8.5 15.5 13.5 31.5 q8 30 5.5 55.5 q-2.5 25.5 -6 34 q-3.5 8.5 -20 8.5 q-16.5 0 -33 8 q-16.5 8 -18.5 19 q-2 24 -15 17 q-7 -4 -10 -7.5 q-3 -3.5 -5 -20.5 q-3 -35 0.5 -55 q3.5 -20 4.5 -26.5 q1 -6.5 1.5 -14 q0.5 -7.5 1 -17 q0.5 -9.5 2 -30 q1.5 -20.5 0.5 -34.5 q-1 -14 3 -29 q16 2 29 14 Z" /><glyph glyph-name="S" unicode="s" d="M49 684 q24 29 58 36 q15 4 30 7 q15 3 31 12 q30 17 41.5 17 q11.5 0 18 -2 q6.5 -2 15 -3 q8.5 -1 18 -1 q9.5 0 21.5 -2 q38 -5 80 -50 q27 -29 33.5 -60 q6.5 -31 5.5 -61 q-1 -43 6 -64 q7 -21 9 -32 q2 -11 -2.5 -30.5 q-4.5 -19.5 -14.5 -27.5 q-10 -8 -22 -10 q-12 -2 -23 -1 q-11 1 -18 1 q-7 0 -9.5 -3.5 q-2.5 -3.5 -5.5 -7.5 q-7 -7 -27 -1 q-20 6 -33 25.5 q-13 19.5 -3 50.5 q3 10 6 18.5 q3 8.5 1 14.5 q-4 14 -19 15 q-15 1 -26 -8 q-15 -14 -19.5 -34.5 q-4.5 -20.5 -3 -29.5 q1.5 -9 1.5 -19 q0 -10 1 -21 q4 -26 12.5 -35 q8.5 -9 14.5 -10 q6 -1 11.5 -0.5 q5.5 0.5 11.5 0.5 q6 0 17 -5 q11 -5 22.5 -10 q11.5 -5 20.5 -16 q9 -11 15.5 -14 q6.5 -3 11.5 -5.5 q5 -2.5 9.5 -4.5 q4.5 -2 7.5 -10 q13 -35 6 -81 q-2 -17 -3.5 -27 q-1.5 -10 -2.5 -17.5 q-1 -7.5 -2 -13 q-1 -5.5 -1 -16.5 q0 -41 -13.5 -63 q-13.5 -22 -27.5 -30 q-14 -8 -18 -12 q-4 -4 -6.5 -10 q-2.5 -6 -7.5 -13 q-12 -17 -35 -24 q-26 -8 -55.5 -7.5 q-29.5 0.5 -45.5 3.5 q-16 3 -29.5 15 q-13.5 12 -22 26.5 q-8.5 14.5 -13.5 16 q-5 1.5 -11 1.5 l-12 0 q-16 0 -21.5 9.5 q-5.5 9.5 -4 18 q1.5 8.5 0.5 24.5 q0 16 0.5 30 q0.5 14 11.5 24 q24 19 42 20 q18 1 24 7 q6 6 9.5 11 q3.5 5 10 6 q6.5 1 13.5 -1 q17 -5 17 -20 q0 -15 0.5 -27.5 q0.5 -12.5 3.5 -22.5 q7 -26 26 -24 q21 2 23 42 q0 11 0 21 l0 22 q0 47 -45 72 q-18 10 -35 19 q-17 9 -32 22 q-34 30 -43 69 q-9 39 -13 50.5 q-4 11.5 -7.5 15.5 q-3.5 4 -7.5 6 q-4 2 -11 12 q-11 15 -5 35 q6 20 10 33.5 q4 13.5 4 29.5 q0 16 -1.5 31.5 q-1.5 15.5 -1.5 31.5 q2 36 27 66 Z" /><glyph glyph-name="T" unicode="t" d="M409 661 q5 -45 2 -76 q0 0 -6 -49 q-2 -17 -0.5 -44 q1.5 -27 -5.5 -38.5 q-7 -11.5 -23.5 -14.5 q-16.5 -3 -26 1.5 q-9.5 4.5 -17.5 9.5 q-20 11 -32.5 3 q-12.5 -8 -17.5 -24 q-5 -16 -6 -37 q-3 -31 0 -81 q1 -18 0.5 -28.5 q-0.5 -10.5 -0.5 -18.5 q0 -19 6 -37 q6 -18 6 -27 q0 -9 -2.5 -14.5 q-2.5 -5.5 -7.5 -9 q-5 -3.5 -9 -7 q-4 -3.5 -8.5 -7 q-4.5 -3.5 -9.5 -7.5 q5 -49 2 -77.5 q-3 -28.5 -4 -48.5 q-1 -20 -10 -31 q-12 -14 -48 -20 q-21 -1 -31 21.5 q-10 22.5 -8.5 54.5 q1.5 32 -1.5 49.5 q-3 17.5 -7.5 29.5 q-4.5 12 -8.5 21.5 q-4 9.5 -7 26.5 q-3 17 4 37 q-14 16 -19 34 q-5 18 1.5 47.5 q6.5 29.5 9 53.5 q2.5 24 1.5 44 q-2 46 -21 53 q-14 4 -30.5 -7 q-16.5 -11 -25.5 -14 q-9 -3 -17.5 4 q-8.5 7 -8 17 q0.5 10 3.5 21.5 q3 11.5 5.5 22.5 q2.5 11 -1.5 21 q-4 10 -10 13 q-6 3 -11 10 q-13 16 -7 56.5 q6 40.5 9 66.5 q3 26 4.5 38.5 q1.5 12.5 6.5 22.5 q5 10 15 18 q25 18 65 13 q184 -25 209 -17 q10 3 18 6 q69 28 81 -81 Z" /><glyph glyph-name="U" unicode="u" d="M230 632 l-4 -108 q0 -18 1.5 -29.5 q1.5 -11.5 2.5 -19.5 q4 -29 -6 -72.5 q-10 -43.5 -4 -78.5 q1 -8 3 -11 q2 -3 3 -6 q5 -9 5.5 -23 q0.5 -14 10.5 -30 q10 -16 24.5 -14.5 q14.5 1.5 24 29.5 q9.5 28 5 76 q-4.5 48 -6 73 q-1.5 25 -1.5 45 q-1 35 3 70 q9 74 3 124 q-2 18 -4 40.5 q-2 22.5 10 33.5 q12 11 25 9.5 q13 -1.5 32 -3.5 q19 -2 31 -0.5 q12 1.5 22 3.5 q26 3 34 -3.5 q8 -6.5 12 -11.5 q4 -5 7 -17 q6 -24 4 -79 q-2 -91 2 -157 q4 -66 0 -100 q-4 -34 -2.5 -63 q1.5 -29 -5.5 -55 q-7 -26 -12.5 -50 q-5.5 -24 -10.5 -37 q-5 -13 -10 -25 q-11 -30 -15 -57 q-7 -42 -29 -56 q-10 -8 -22 -8.5 q-12 -0.5 -18 -4 q-6 -3.5 -12 -9 q-6 -5.5 -13 -11.5 q-18 -14 -25.5 -12 q-7.5 2 -12.5 8 q-5 6 -9 13 q-11 19 -16 20 q-5 1 -15.5 -2 q-10.5 -3 -24.5 -6 q-68 -14 -104 33 q-29 38 -42 96 q-5 25 -10.5 55 q-5.5 30 -15 52.5 q-9.5 22.5 -12.5 37.5 q-3 15 -0.5 29 q2.5 14 5.5 31 q9 49 4.5 78 q-4.5 29 -8 47.5 q-3.5 18.5 -5.5 36.5 q-5 36 2 86 q4 27 5.5 48.5 q1.5 21.5 3.5 37.5 q6 50 41 53 q18 2 38.5 0 q20.5 -2 28.5 -1 l31 3 q24 0 33 -14 q19 -24 19 -94 Z" /><glyph glyph-name="V" unicode="v" d="M0 703 q-4 42 42 37 q10 -1 21.5 -3 q11.5 -2 23.5 -2.5 q12 -0.5 21 2.5 q9 3 18 5 q19 3 36 -9 q11 -8 13.5 -23.5 q2.5 -15.5 3 -36 q0.5 -20.5 1 -44.5 q0.5 -24 8 -50 q7.5 -26 8.5 -39.5 q1 -13.5 0 -25.5 q-1 -32 4 -53.5 q5 -21.5 6 -29 q1 -7.5 2.5 -15 q1.5 -7.5 4.5 -12 q3 -4.5 9 -1.5 q6 4 5 13 q-2 25 15 45 q20 21 10.5 49 q-9.5 28 -5.5 56.5 q4 28.5 9 50.5 q5 22 4 38.5 q-1 16.5 -2 31 q-1 14.5 -1 25.5 q0 11 9 23 q9 12 33 14.5 q24 2.5 50 -8.5 q5 4 15 2 q10 -2 15 -9 q13 8 32 4.5 q19 -3.5 24.5 -12.5 q5.5 -9 3.5 -17.5 q-2 -8.5 -5 -23.5 q-16 -66 -16 -124.5 q0 -58.5 -6 -81 q-6 -22.5 -12 -38.5 q-6 -16 -13 -32 q-16 -36 -21 -61 q-3 -14 -10 -23.5 q-7 -9.5 -13 -20.5 q-16 -31 -14 -80 q5 -93 -12 -103 q-8 -7 -12.5 -5 q-4.5 2 -8.5 -3.5 q-4 -5.5 -7 -24 q-3 -18.5 -11 -40.5 q-20 -57 -61 -67 q-25 -6 -35.5 2.5 q-10.5 8.5 -15 23 q-4.5 14.5 -7.5 30 q-3 15.5 -12 21.5 q-35 35 -27 92 q2 18 -2 25.5 q-4 7.5 -5.5 15.5 q-1.5 8 -3.5 17 q-5 22 -11 28 q-6 6 -10.5 11.5 q-4.5 5.5 -7.5 15.5 q-9 25 -11 59 q-2 34 -5 51.5 q-3 17.5 -7 32.5 q-10 38 -12.5 66 q-2.5 28 -8 47.5 q-5.5 19.5 -11.5 38.5 q-16 52 -18.5 79.5 q-2.5 27.5 -4 41.5 q-1.5 14 -2.5 24 Z" /><glyph glyph-name="W" unicode="w" d="M579 702.5 q10 -5.5 13.5 -11 q3.5 -5.5 8.5 -11 q5 -5.5 5 -10.5 q0 -5 -1 -11 q-1 -6 -2.5 -11.5 q-1.5 -5.5 1 -12.5 q2.5 -7 -4.5 -18.5 q-7 -11.5 -17 -35.5 q-10 -24 -14.5 -54 q-4.5 -30 -7.5 -59.5 q-3 -29.5 -5.5 -57 q-2.5 -27.5 -10 -49.5 q-7.5 -22 -12 -48.5 q-4.5 -26.5 -8.5 -54.5 q-10 -71 -17 -92 q-7 -21 -7 -28 q0 -7 -2 -17 q-5 -26 -22.5 -48.5 q-17.5 -22.5 -21.5 -35.5 q-4 -13 -7.5 -24.5 q-3.5 -11.5 -8.5 -19 q-5 -7.5 -14.5 -6.5 q-9.5 1 -13 3 q-3.5 2 -6.5 4 q-10 11 -25.5 10 q-15.5 -1 -22.5 0 q-16 1 -20.5 13 q-4.5 12 -8 38 q-3.5 26 -7.5 53 q-12 67 -28 67 q-9 0 -10 -14 q-1 -14 -1.5 -23 q-0.5 -9 -2.5 -21 q-2 -12 -8 -36 q-6 -24 -14 -46 q-21 -53 -50 -53 q-23 0 -33 17 q-4 7 -8 14.5 q-4 7.5 -14.5 13 q-10.5 5.5 -17.5 11.5 q-7 6 -11 16 q-6 13 -9.5 46.5 q-3.5 33.5 -9.5 52.5 q-6 19 -13 37 q-16 47 -15.5 69 q0.5 22 -2 38 q-2.5 16 -6.5 31 q-4 15 -9.5 31 q-5.5 16 -10 34.5 q-4.5 18.5 -10 35 q-5.5 16.5 -10.5 31.5 q-10 35 -0.5 61 q9.5 26 2.5 53 q-7 27 -17.5 53.5 q-10.5 26.5 -18 49 q-7.5 22.5 1.5 37 q9 14.5 25.5 17.5 q16.5 3 33.5 0.5 q17 -2.5 33 -6.5 q25 -6 34.5 -0.5 q9.5 5.5 15.5 8 q6 2.5 14 2.5 q8 0 20.5 -7 q12.5 -7 17 -16 q4.5 -9 6 -21 q1.5 -12 1.5 -26.5 q0 -14.5 7 -42.5 q22 -83 7 -148 q-9 -38 -3 -62.5 q6 -24.5 17 -22.5 q10 2 13 15.5 q3 13.5 3.5 34 q0.5 20.5 0.5 44 q0 23.5 4 43.5 q4 20 6 31 q2 11 4 17 q5 12 13 15 q-4 109 33 144 q7 6 16.5 6 q9.5 0 18.5 -13 q9 -13 10 -46 q2 -53 10 -103 q8 -50 11.5 -73 q3.5 -23 7.5 -42 q13 -78 29 -24 q13 46 13 82 q0 36 -5 41 q-22 20 0 56 q9 16 10 40 q4 48 7.5 56.5 q3.5 8.5 13 16 q9.5 7.5 20.5 11.5 q28 11 46 -10 q10 -13 32 -14 q22 -1 25.5 -5 q3.5 -4 13.5 -9.5 Z" /><glyph glyph-name="X" unicode="x" d="M226 247 l-43 -79 q0 -34 -20 -54 q-8 -8 -21 -9 q-4 -7 -8 -19 q-4 -12 -9 -26 q-12 -33 -29 -52 q-36 -40 -55 -14 q-6 8 -10 21 q-7 23 -14 26 q-8 5 -5.5 22.5 q2.5 17.5 13.5 36 q11 18.5 18 43.5 q7 25 14.5 35.5 q7.5 10.5 9.5 17 q2 6.5 3 13.5 q4 17 14 32 q11 16 16 40 q11 49 20 66 q16 31 23 42 q-8 12 -14 20.5 q-6 8.5 -11 16.5 q-7 13 -11.5 33 q-4.5 20 -10.5 32 q-6 12 -14 23 q-27 42 -51 106 q-7 19 -25 34 q-46 38 -25 68 q11 17 27 17 q16 0 30 -5.5 q14 -5.5 18.5 -5 q4.5 0.5 8.5 1.5 q11 5 26 2.5 q15 -2.5 24.5 -0.5 q9.5 2 17.5 5 q20 8 35 1 q15 -7 16 -22 q1 -15 0.5 -37.5 q-0.5 -22.5 3 -32.5 q3.5 -10 9.5 -20 q19 -34 23.5 -49.5 q4.5 -15.5 8.5 -21.5 q17 32 31.5 57.5 q14.5 25.5 17.5 40.5 q3 15 4 28 q1 13 3 25 q4 27 22 37 q35 21 80 -12 q16 2 33.5 2 q17.5 0 31.5 -3 q33 -7 35 -29 q3 -17 -6.5 -28 q-9.5 -11 -14 -17.5 q-4.5 -6.5 -4.5 -21.5 q0 -30 -30 -44 q-16 -8 -17.5 -15 q-1.5 -7 0.5 -9 q6 -6 -11 -23 q-17 -17 -26.5 -31 q-9.5 -14 -17.5 -28 q-20 -33 -29 -41 q-14 -10 -15.5 -29 q-1.5 -19 11.5 -40 q11 -23 20 -44.5 q9 -21.5 4.5 -30 q-4.5 -8.5 -2.5 -13 q2 -4.5 7 -10.5 q18 -21 28 -49 q7 -19 16 -35 q9 -16 17 -32 q30 -61 40 -134 q3 -23 -19 -33 q-16 -9 -36.5 -2 q-20.5 7 -28.5 28.5 q-8 21.5 -17.5 30 q-9.5 8.5 -19 15.5 q-9.5 7 -18.5 16 q-9 9 -13.5 24 q-4.5 15 -11.5 33 q-7 18 -17 38 q-23 44 -50 71 Z" /><glyph glyph-name="Y" unicode="y" d="M271 151 q5 -45 5.5 -63.5 q0.5 -18.5 -1 -30.5 q-1.5 -12 -4.5 -22 q-7 -23 -20 -25 q-9 0 -17.5 -8.5 q-8.5 -8.5 -13.5 -12.5 q-5 -4 -14.5 -4 q-9.5 0 -21 3 q-11.5 3 -20.5 16 q-20 29 -13 114 q-14 10 -19.5 29 q-5.5 19 1 56 q6.5 37 8 54 q1.5 17 0 28.5 q-1.5 11.5 -5.5 19 q-4 7.5 -11 22 q-7 14.5 -9.5 28 q-2.5 13.5 -8.5 20 q-6 6.5 -8 17 q-2 10.5 -7 20.5 q-5 10 -6.5 29 q-1.5 19 -9 31.5 q-7.5 12.5 -15 21 q-7.5 8.5 -14.5 16.5 q-20 22 -28 37.5 q-8 15.5 -8.5 26.5 q-0.5 11 0.5 21 q3 26 -2 35 l-11 22 q-17 34 -17 54 q0 20 10.5 30 q10.5 10 22.5 6 q12 -4 33 -8.5 q21 -4.5 32.5 -2 q11.5 2.5 21.5 6.5 q25 8 40 2.5 q15 -5.5 20.5 -18 q5.5 -12.5 6.5 -27.5 q1 -15 1.5 -30 q0.5 -15 7 -26 q6.5 -11 10.5 -19 q4 -8 6.5 -16.5 q2.5 -8.5 3.5 -17.5 q1 -9 2.5 -22 q1.5 -13 5.5 -18.5 q4 -5.5 9 -5.5 q12 2 16 24.5 q4 22.5 9 38 q5 15.5 9 27.5 q9 24 7.5 33.5 q-1.5 9.5 -2 20 q-0.5 10.5 3.5 19.5 q10 22 42.5 18 q32.5 -4 52.5 -5 q20 -1 31 8 q11 9 22 8 q11 -1 19 -9 q19 -19 -2.5 -54.5 q-21.5 -35.5 -28.5 -56 q-7 -20.5 -3.5 -35 q3.5 -14.5 2.5 -21.5 q-1 -7 -5 -14.5 q-4 -7.5 -10 -17.5 q-43 -76 -77 -190 q-17 -56 -23 -138 q-2 -31 -5 -45 Z" /><glyph glyph-name="Z" unicode="z" d="M320 -4.5 q-11 -1.5 -22.5 -2 q-11.5 -0.5 -23 -3.5 q-11.5 -3 -21.5 -0.5 q-10 2.5 -20 5.5 q-50 15 -77 -1 q-5 -2 -10.5 -2 q-5.5 0 -16.5 5 q-11 5 -20.5 4 q-9.5 -1 -18.5 -1 q-21 -2 -32 14 q-6 9 -7.5 36.5 q-1.5 27.5 -4.5 38.5 q-7 18 -2.5 29 q4.5 11 7.5 17 q3 6 4.5 12 q1.5 6 3.5 12.5 q2 6.5 5 15.5 q8 20 24 50 q16 30 21.5 44.5 q5.5 14.5 8 24 q2.5 9.5 3.5 15.5 q1 6 5.5 13 q4.5 7 13.5 11.5 q9 4.5 12.5 11 q3.5 6.5 2.5 10.5 q-1 4 -2.5 7.5 q-1.5 3.5 -3.5 7.5 q-2 4 -1 9.5 q1 5.5 10 21 q9 15.5 18 33.5 q24 48 20.5 57 q-3.5 9 -8.5 9 q-5 0 -11 -2 q-20 -9 -31 -3 q-22 11 -57 -8 q-41 -21 -69 -1 q-10 7 -15.5 24.5 q-5.5 17.5 -4.5 37 q1 19.5 4 37.5 q8 49 4 61 q-4 12 -6 23 q-2 11 -2 23 q2 27 20 42 q16 13 35 9.5 q19 -3.5 31 -7 q12 -3.5 31.5 -6 q19.5 -2.5 43 2 q23.5 4.5 43 4 q19.5 -0.5 30 -2.5 q10.5 -2 20.5 -3 q24 -2 43 4.5 q19 6.5 33 10 q14 3.5 28 -4.5 q34 -20 17 -78 q-26 -88 -8 -131 q8 -23 6.5 -44.5 q-1.5 -21.5 -18 -40 q-16.5 -18.5 -23 -31 q-6.5 -12.5 -12 -25 q-5.5 -12.5 -11.5 -26.5 q-6 -14 -15 -29 q-14 -23 -13 -27 q1 -4 2 -5.5 q1 -1.5 -3 -8.5 q-5 -8 -10 -8 q-5 0 -8.5 -4 q-3.5 -4 -8.5 -19 q-15 -45 -29 -66 q-14 -21 -25 -36 q-6 -6 -10 -12.5 q-4 -6.5 -8 -11.5 q26 8 46 6 q20 -2 29 -2 q9 0 23.5 8.5 q14.5 8.5 34 11.5 q19.5 3 30.5 -4.5 q11 -7.5 12.5 -13.5 q1.5 -6 0.5 -13.5 q-1 -7.5 -2.5 -17 q-1.5 -9.5 0 -27.5 q1.5 -18 5.5 -40 q4 -22 -3 -32 q-7 -10 -16.5 -13.5 q-9.5 -3.5 -20.5 -5 Z" /><glyph glyph-name="bracketleft" unicode="[" d="M141 54 q20 -11 44.5 -16.5 q24.5 -5.5 34.5 -8.5 q10 -3 10.5 -14 q0.5 -11 -7.5 -18 q-17 -11 -73 -9 q-11 0 -21.5 -2.5 q-10.5 -2.5 -20.5 -4.5 q-22 -5 -33 6 q-18 13 -7 66 q8 45 -7 49 q-7 1 -1 34.5 q6 33.5 5 69.5 q-1 36 -1.5 54.5 q-0.5 18.5 -0.5 38.5 l0 37 q-23 69 -9 114 q4 15 6 30 q-12 16 -11 27 q1 11 -0.5 30.5 q-1.5 19.5 -4.5 43 q-3 23.5 1 37.5 q7 21 2 33 q-9 22 -4 49 q2 10 -0.5 21 q-2.5 11 -0.5 16 q1 5 11.5 16 q10.5 11 22 15.5 q11.5 4.5 18 5 q6.5 0.5 19 -3 q12.5 -3.5 19.5 -6 q7 -2.5 14 -2.5 q13 -2 39 2 q28 4 35 -14 q2 -7 -2.5 -13 q-4.5 -6 -20.5 -7.5 q-16 -1.5 -26 -5.5 q-10 -4 -20.5 -5 q-10.5 -1 -20 -13 q-9.5 -12 -9 -32 q0.5 -20 0.5 -30.5 q0 -10.5 0 -21.5 q-3 -56 2 -104.5 q5 -48.5 -1 -94.5 q-8 -62 1 -108 q1 -4 4.5 -7.5 q3.5 -3.5 9.5 -25.5 q7 -28 0 -62 q-1 -14 -5.5 -46 q-4.5 -32 -0.5 -58 q4 -34 9 -62 Z" /><glyph glyph-name="backslash" unicode="\" d="M11 718.5 q2 13.5 8 22.5 q6 9 15.5 13 q9.5 4 27.5 -9 q18 -13 30 -34.5 q12 -21.5 14.5 -33 q2.5 -11.5 4.5 -21.5 q5 -24 18 -40 q30 -37 39 -91 q15 7 27 -49 q10 -56 52 -132 q26 -46 33 -74 q14 -57 20 -70 q6 -13 8.5 -22 q2.5 -9 5.5 -18 q8 -22 23 -49 q28 -49 12 -96 q-6 -18 -20.5 -20.5 q-14.5 -2.5 -24.5 0.5 q-10 3 -22 19 q-12 16 -22 36 q-23 48 -23 79 q0 22 -11 49 q-11 27 -19 46 q-8 19 -15.5 43.5 q-7.5 24.5 -16 41.5 q-8.5 17 -16.5 33 q-21 44 -31 87 q-10 44 -18 58 q-17 30 -24.5 56.5 q-7.5 26.5 -13.5 37 q-6 10.5 -12.5 18 q-6.5 7.5 -14.5 17 q-8 9.5 -19 31.5 q-11 22 -14 40 q-3 18 -1 31.5 Z" /><glyph glyph-name="bracketright" unicode="]" d="M81 42 q27 32 27 59 q0 12 -1 25.5 q-1 13.5 -2 27.5 q-2 35 -1 45.5 q1 10.5 0 18 q-1 7.5 -3 14.5 q-7 28 -1.5 48 q5.5 20 8.5 28 q14 49 6 81.5 q-8 32.5 -4.5 50.5 q3.5 18 2 27 q-1.5 9 -4.5 16.5 q-3 7.5 -6 15 q-3 7.5 -3 16.5 q0 9 6 32 q10 42 8.5 67.5 q-1.5 25.5 -2 44.5 q-0.5 19 -4.5 34 q-7 32 -34 36 q-12 1 -24 1.5 q-12 0.5 -22 1.5 q-21 4 -21 18 q0 20 32 15 q6 -1 17 0 q11 1 23 2 q24 2 46 2 q17 -2 33 -6 q16 -4 22 -18 q6 -14 7.5 -42.5 q1.5 -28.5 -3 -48 q-4.5 -19.5 -5.5 -37.5 q-1 -18 -1 -36 q2 -44 5 -57 q3 -11 1 -33 l-3 -34 q-1 -12 0.5 -25 q1.5 -13 -3 -40.5 q-4.5 -27.5 -0.5 -52.5 q4 -25 3.5 -52.5 q-0.5 -27.5 -2 -53.5 q-1.5 -26 -3 -47.5 q-1.5 -21.5 -1 -41 q0.5 -19.5 6.5 -100.5 q-10 -30 -33 -44 q-10 -6 -31 -7 q-21 -1 -48.5 -2.5 q-27.5 -1.5 -47 3 q-19.5 4.5 -20.5 15.5 q-1 11 17 19 q16 5 29.5 10.5 q13.5 5.5 34.5 3.5 Z" /><glyph glyph-name="asciicircum" unicode="^" d="M30 304 q-21 0 -20 38 q1 23 22.5 74 q21.5 51 36.5 86 q51 121 55.5 153.5 q4.5 32.5 9.5 50.5 q5 18 13.5 31 q8.5 13 24.5 16 q33 6 47 -34 q2 -7 5.5 -10 q3.5 -3 7.5 -7 q9 -11 12 -39 q6 -43 20 -67.5 q14 -24.5 30 -50 q16 -25.5 24 -61 q8 -35.5 17.5 -56 q9.5 -20.5 12.5 -27 q3 -6.5 6 -11.5 q3 -5 7 -12 q9 -17 8.5 -27.5 q-0.5 -10.5 -2 -13.5 q-1.5 -3 -2.5 -7.5 q-1 -4.5 -1 -9 q0 -4.5 -4 -7.5 q-28 -23 -57 7 q-23 24 -33.5 53.5 q-10.5 29.5 -16 36.5 q-5.5 7 -7 23 q-1.5 16 -9 25 q-7.5 9 -16.5 19.5 q-9 10.5 -13.5 21 q-4.5 10.5 -7.5 21.5 q-5 18 -4.5 34 q0.5 16 -8.5 16 q-9 0 -12 -16 q-3 -16 -6 -29.5 q-3 -13.5 -6 -26.5 q-4 -16 -10 -34 q-21 -21 -25 -38 q-4 -17 -5.5 -21.5 q-1.5 -4.5 -2.5 -8.5 q-5 -10 -7 -17 q-12 -40 -30.5 -60 q-18.5 -20 -52.5 -15 Z" /><glyph glyph-name="underscore" unicode="_" d="M0 40 q0 62 67 56 q38 -3 56 -7 q35 -6 48 -6 q13 0 27 -0.5 q14 -0.5 27 1 q13 1.5 26 1.5 q13 0 26 1 q35 1 45.5 3.5 q10.5 2.5 25.5 1 q15 -1.5 31 -3.5 q16 -2 30 -4 q14 -2 23 0 q16 -2 39 1.5 q23 3.5 40 -1 q17 -4.5 29 -5.5 q29 -4 34 -25 q6 -20 -6 -30 q-5 -5 -8 -12 q-3 -7 -12.5 -10.5 q-9.5 -3.5 -18 -2.5 q-8.5 1 -17.5 -2 q-9 -3 -30.5 -3 q-21.5 0 -49.5 4 q-12 -5 -33.5 -1.5 q-21.5 3.5 -40 2 q-18.5 -1.5 -29 -2.5 q-10.5 -1 -21.5 -1 q-21 0 -51 7 q-27 6 -39.5 4.5 q-12.5 -1.5 -20.5 -3 q-8 -1.5 -27 1 q-19 2.5 -29.5 -1 q-10.5 -3.5 -16.5 0.5 q-6 4 -14.5 0 q-8.5 -4 -17.5 -2 q-9 2 -12.5 1 q-3.5 -1 -7.5 -2 q-21 -8 -56 14 q-15 9 -16 26 Z" /><glyph glyph-name="grave" unicode="`" d="M295 694 q12 -7 18 -25.5 q6 -18.5 -2.5 -29.5 q-8.5 -11 -22.5 -13.5 q-14 -2.5 -27.5 11.5 q-13.5 14 -22.5 16 q-9 2 -11 7 q-2 9 -9 16.5 q-7 7.5 -10 5.5 q-6 -4 -15 3 q0 0 -14 11 q-5 4 -9.5 5.5 q-4.5 1.5 -12.5 12.5 q-8 11 -5.5 27.5 q2.5 16.5 11.5 19 q9 2.5 15 5.5 q6 3 16 -1 q10 -4 22 -10 q26 -14 33 -25 q9 -15 46 -36 Z" /><glyph glyph-name="a" unicode="a" d="M97 -12 q-10 -3 -22.5 1.5 q-12.5 4.5 -17.5 17 q-5 12.5 -6.5 29 q-1.5 16.5 -0.5 35.5 q1 19 1 37 q0 40 -13 51 q-27 20 -22 102 q5 47 11 75 q10 46 9.5 78 q-0.5 32 2 50 q2.5 18 6 30 q3.5 12 8.5 25 q5 13 9 43 q10 75 18 93 q11 25 26.5 51.5 q15.5 26.5 25.5 35.5 q23 17 66 3 q32 -11 59.5 -7 q27.5 4 42 3.5 q14.5 -0.5 32.5 -11 q18 -10.5 28 -25 q10 -14.5 14 -31.5 q7 -29 1 -73.5 q-6 -44.5 -4.5 -72 q1.5 -27.5 12 -52 q10.5 -24.5 14 -39 q3.5 -14.5 6 -29 q2.5 -14.5 4 -31 q1.5 -16.5 6 -37.5 q4.5 -21 5 -33.5 q0.5 -12.5 -0.5 -20.5 q-1 -8 -2.5 -14.5 q-1.5 -6.5 1 -20 q2.5 -13.5 0 -29.5 q-2.5 -16 -5.5 -31 q-11 -46 -9 -65 q4 -34 0 -48.5 q-4 -14.5 -7.5 -23.5 q-3.5 -9 -8 -25 q-4.5 -16 -18.5 -29 q-14 -13 -26.5 -8 q-12.5 5 -16 14.5 q-3.5 9.5 -6 19.5 q-2.5 10 -6 18 q-3.5 8 -12.5 9 q-16 2 -17 18.5 q-1 16.5 0.5 29 q1.5 12.5 -1.5 25.5 q-3 13 -10 25 q-18 31 -42 34 q-36 5 -50 -35 q-3 -10 -4.5 -26.5 q-1.5 -16.5 -8 -29.5 q-6.5 -13 -14 -22 q-7.5 -9 -14 -16.5 q-6.5 -7.5 -8.5 -18.5 q-8 -43 -34 -49 ZM186 407 q-20 -54 -5 -86 q10 -18 26 -19 q29 -3 34.5 4.5 q5.5 7.5 13 16 q7.5 8.5 5.5 26 q-2 17.5 -3 31 q-1 13.5 -9.5 30.5 q-8.5 17 -11.5 36.5 q-3 19.5 -4 37.5 q-4 40 -18 40 q-10 0 -12.5 -10.5 q-2.5 -10.5 -3.5 -27.5 q-1 -52 -12 -79 Z" /><glyph glyph-name="b" unicode="b" d="M384 361 q-28 -31 -57 -50 q25 -4 43.5 -12.5 q18.5 -8.5 18.5 -26 q0 -17.5 4 -25.5 q4 -8 8 -16 q10 -19 4.5 -44.5 q-5.5 -25.5 -7 -49 q-1.5 -23.5 -5.5 -45.5 q-10 -54 -42 -64 q-26 -8 -46 -12 q-30 -42 -52 -39 q-8 1 -13 11 q-5 10 -13 11 q-8 1 -17 -2 l-20 -7 q-19 -6 -60 8 q-15 6 -22 28 q-7 22 -12.5 31.5 q-5.5 9.5 -10.5 16 q-5 6.5 -10 10.5 q-19 17 -19 29 q-1 20 3.5 52.5 q4.5 32.5 5 56 q0.5 23.5 -2.5 44.5 q-5 45 -27 59 q-11 7 -15.5 11.5 q-4.5 4.5 -4.5 13.5 q0 9 4 26 q4 17 7 36 q3 19 8 27.5 q5 8.5 5.5 30 q0.5 21.5 -1.5 40 q-2 18.5 -4 30.5 q-3 29 0 47 q3 18 1.5 33.5 q-1.5 15.5 -0.5 29.5 q3 38 56 72 q44 28 75 13 q20 -8 29.5 -6 q9.5 2 14.5 2 q5 0 12 -4.5 q7 -4.5 16 -3 q9 1.5 18 4.5 q26 6 39 2 q13 -4 22 -1.5 q9 2.5 15 2.5 q6 0 15 -5 q9 -5 15.5 -6 q6.5 -1 11.5 -2 q9 -2 15 -18 q4 -10 5 -18.5 q1 -8.5 2 -16.5 q4 -17 14 -26 q8 -7 8 -16 q0 -16 7 -20.5 q7 -4.5 13 -19 q6 -14.5 9 -34.5 q8 -51 -10 -93 q-6 -72 -36 -87 q-5 -2 -17 -8 ZM226.5 543.5 q-2.5 7.5 -5 12.5 q-2.5 5 -8 3 q-5.5 -2 -7 -7 q-1.5 -5 -1.5 -12 q0 -7 0.5 -15 q0.5 -8 -1 -17 q-1.5 -9 -1 -17 q0.5 -8 2.5 -17 q4 -25 4.5 -45 q0.5 -20 0 -32 q-0.5 -12 -0.5 -21 q1 -16 15 -21 q14 -6 31 25 q26 45 30 92 q2 17 -6 31.5 q-8 14.5 -15 16 q-7 1.5 -17 2.5 q-10 1 -14.5 7.5 q-4.5 6.5 -7 14 ZM231.5 129 q9.5 7 12 15 q2.5 8 9.5 14.5 q7 6.5 9 26.5 q3 34 -6.5 48.5 q-9.5 14.5 -12.5 35.5 q-11 7 -15 11.5 q-4 4.5 -8 1.5 q-4 -3 -3.5 -8.5 q0.5 -5.5 -1.5 -12.5 q-2 -7 -4.5 -14.5 q-2.5 -7.5 0 -19 q2.5 -11.5 1 -21.5 q-1.5 -10 -4 -26.5 q-2.5 -16.5 -3 -24.5 q-0.5 -8 8.5 -20.5 q9 -12.5 18.5 -5.5 Z" /><glyph glyph-name="c" unicode="c" d="M421.5 601.5 q2.5 -10.5 2 -24 q-0.5 -13.5 -7.5 -38 q-7 -24.5 -4.5 -44 q2.5 -19.5 5.5 -26 q3 -6.5 4.5 -15.5 q1.5 -9 -0.5 -19 q-5 -23 -29 -36 q-23 -10 -39.5 -21.5 q-16.5 -11.5 -34.5 -17.5 q-4 -12 -7.5 -22 q-3.5 -10 -11.5 -15.5 q-8 -5.5 -18 -2 q-10 3.5 -8 21 q2 17.5 -5.5 24 q-7.5 6.5 -12 10.5 q-4.5 4 -8.5 8 q-4 4 -6 10 q-5 18 2.5 32 q7.5 14 8 21 q0.5 7 -0.5 15 q-3 20 -0.5 34 q2.5 14 -7 24 q-9.5 10 -21 9 q-11.5 -1 -19 -31 q-7.5 -30 -11.5 -74.5 q-4 -44.5 -4.5 -96.5 q-0.5 -52 4.5 -97 q10 -103 36 -105 q26 -2 40 7.5 q14 9.5 22 21.5 q8 12 12.5 22.5 q4.5 10.5 10.5 12.5 q42 14 59 -17 q7 -13 7 -37 q0 -24 -3.5 -35.5 q-3.5 -11.5 -8 -19 q-4.5 -7.5 -8.5 -13.5 q-4 -6 -6 -15.5 q-2 -9.5 -9 -17.5 q-7 -8 -17 -14 q-21 -11 -35 -11 q-55 0 -82 -20 q-17 -14 -34 -13 q-25 1 -34 10 q-9 9 -24 18 q-15 9 -17.5 22.5 q-2.5 13.5 -9.5 21.5 q-7 8 -15 20 q-21 27 -21 64 q0 23 1 38 q1 15 0 26 q0 21 -18 43.5 q-18 22.5 -21 39 q-3 16.5 -5.5 31 q-2.5 14.5 -0.5 28.5 q2 14 4 29 q2 15 7.5 26 q5.5 11 4 22 q-1.5 11 2 18 q3.5 7 6.5 15 q8 22 -2 43.5 q-10 21.5 -10.5 34.5 q-0.5 13 2.5 23.5 q3 10.5 6.5 20 q3.5 9.5 3.5 24.5 q0 15 5.5 35 q5.5 20 28 25.5 q22.5 5.5 25.5 15.5 q3 10 7 21 q3 11 19 24.5 q16 13.5 46.5 18 q30.5 4.5 44 0.5 q13.5 -4 24.5 -16.5 q11 -12.5 21 -14 q10 -1.5 21 0.5 q52 7 104 -22 q18 -10 24 -31 q6 -21 10 -30 q4 -9 6.5 -19.5 Z" /><glyph glyph-name="d" unicode="d" d="M193 4 q-40 -31 -68 -31 q-13 0 -27.5 8 q-14.5 8 -19 19 q-4.5 11 -4.5 24.5 q0 13.5 0 29.5 q1 27 -8 49 q-9 22 -12 32 q-5 21 -3 61 q1 31 -2 37.5 q-3 6.5 -3 12.5 q0 6 4 42 q11 86 -10 88 q-11 2 -10.5 5 q0.5 3 -5.5 13.5 q-6 10.5 -7.5 16.5 q-1.5 6 -1.5 19 q0 13 3 24 q3 11 7 22 q28 76 20 128 q-11 57 -7.5 80.5 q3.5 23.5 11 33.5 q7.5 10 17.5 18.5 q10 8.5 24 13.5 q30 10 52.5 -5 q22.5 -15 41.5 -19 q19 -4 36 -5 q44 -3 54 -11 q10 -8 19.5 -12.5 q9.5 -4.5 16.5 -7.5 q20 -10 24 -19 q4 -9 11 -16.5 q7 -7.5 15 -16.5 q18 -23 23 -49 q3 -17 5 -30 q2 -13 5 -25 q9 -39 21 -69 q24 -61 12 -94 l-2 -4 q8 -20 2.5 -42.5 q-5.5 -22.5 -8 -32 q-2.5 -9.5 -6.5 -21.5 q-4 -12 -9 -30.5 q-5 -18.5 -10 -32 q-5 -13.5 -11 -24.5 q-12 -22 -62 -74 q-16 -16 -22.5 -32 q-6.5 -16 -18.5 -25 q-16 -30 -27 -37 q-22 -17 -59 -12 ZM179 445 l3 -57 q2 -24 -3 -44.5 q-5 -20.5 -1.5 -43.5 q3.5 -23 1.5 -39 q-2 -16 2 -26 q4 -10 2.5 -20.5 q-1.5 -10.5 -2.5 -20.5 q-2 -26 10 -28 q8 -1 15 7.5 q7 8.5 12 21.5 q9 21 15 55 q2 14 10 30 q14 30 14 43.5 q0 13.5 1 17 q1 3.5 2.5 7.5 q1.5 4 3.5 9 q2 5 4 18.5 q2 13.5 -3.5 34 q-5.5 20.5 -21 33.5 q-15.5 13 -21.5 22 q-6 9 -11 16 q-10 14 -19 8 q-13 -10 -13 -44 Z" /><glyph glyph-name="e" unicode="e" d="M50 188 l-1 51 q0 14 1 26 q1 13 -2 32 q-5 33 -4.5 48.5 q0.5 15.5 0 25 q-0.5 9.5 -2.5 17.5 q-3 12 -14.5 38 q-11.5 26 -11.5 56 q0 30 13 48 q12 18 9 37 q-3 19 -4.5 40.5 q-1.5 21.5 -0.5 44 q1 22.5 10 43.5 q22 51 88 49 q41 -1 71 -8 q30 -7 44 -6 q14 1 43 10 q42 16 67 -2 q7 -5 13.5 -7.5 q6.5 -2.5 11.5 -7.5 q17 -19 10 -83 q-2 -19 -4 -38 q-5 -45 0 -67 q5 -22 5.5 -38.5 q0.5 -16.5 -1.5 -29.5 q-6 -29 -23 -29 q-15 1 -21.5 9.5 q-6.5 8.5 -10.5 19 q-4 10.5 -8.5 19 q-4.5 8.5 -19.5 8.5 q-44 0 -58.5 9.5 q-14.5 9.5 -25.5 11 q-11 1.5 -21 -2.5 q-21 -9 -24.5 -33 q-3.5 -24 -4.5 -42 q-1 -18 0 -33 q2 -35 13.5 -39.5 q11.5 -4.5 19.5 -1 q8 3.5 16 8.5 q24 16 49.5 15.5 q25.5 -0.5 38 -20.5 q12.5 -20 10.5 -38.5 q-2 -18.5 -3.5 -36.5 q-1.5 -18 -4.5 -34 q-14 -62 -58 -24 q-57 4 -71 -14 q-3 -5 -6 -21 q-3 -16 -1 -34 q5 -47 45 -50 q26 -2 47.5 7 q21.5 9 28.5 20 q6 12 15 13.5 q9 1.5 16 3 q7 1.5 14 1.5 q7 0 14 -2 q18 -6 21.5 -28 q3.5 -22 -4.5 -40 q-8 -18 -10.5 -32.5 q-2.5 -14.5 -4.5 -21.5 q-2 -7 -11.5 -17.5 q-9.5 -10.5 -15 -17.5 q-5.5 -7 -17.5 3 q-22 17 -53 -20 q-8 -11 -17 -16 q-9 -5 -28 -4 q-19 1 -30 10 q-11 9 -20 18 q-15 19 -52 14 q-22 -3 -36 19 q-3 3 -4.5 11 q-1.5 8 -3.5 18 q-7 26 -12.5 33.5 q-5.5 7.5 -6 19.5 q-0.5 12 -2.5 25.5 q-2 13.5 -3 20 q-1 6.5 1.5 15.5 q2.5 9 2.5 20 Z" /><glyph glyph-name="f" unicode="f" d="M202 403 q0 -28 29 -28 q7 0 13 1.5 q6 1.5 20.5 4.5 q14.5 3 27 -5.5 q12.5 -8.5 19 -12.5 q6.5 -4 10.5 -9 q7 -9 6.5 -33.5 q-0.5 -24.5 -10.5 -45 q-10 -20.5 -45 -25.5 q-35 -5 -52.5 -15 q-17.5 -10 -21 -33 q-3.5 -23 -8.5 -32 q-5 -9 -6 -20 q-1 -11 -5.5 -23.5 q-4.5 -12.5 -3 -23.5 q1.5 -11 1 -29.5 q-0.5 -18.5 -5.5 -36.5 q-12 -44 -43 -44 q-12 0 -18.5 12.5 q-6.5 12.5 -11 29.5 q-4.5 17 -9 36 q-4.5 19 -16.5 39.5 q-12 20.5 -13.5 46.5 q-1.5 26 -1.5 51 l0 48 q0 88 -20 110 q-13 13 -11 50 l0 28 q0 15 5 24 q12 26 6.5 73 q-5.5 47 -10.5 72.5 q-5 25.5 -0.5 48.5 q4.5 23 6 36 q1.5 13 10 25 q8.5 12 15 13.5 q6.5 1.5 15.5 0.5 q12 -1 21 8 q33 33 62 15 q12 -8 24.5 -17 q12.5 -9 27.5 -16 q15 -7 34.5 -5 q19.5 2 38.5 6 q19 4 38 2 q48 -3 70 -44 q15 -28 11.5 -58.5 q-3.5 -30.5 -6.5 -49.5 q-3 -19 -3 -31.5 q0 -12.5 -1 -15.5 q-1 -3 -2 -5 q-4 -11 -5 -30 q-1 -19 -4 -28 q-9 -23 -35 -23 q-17 0 -29 6 q-24 12 -34 13 q-14 2 -19 16 q-2 5 -4 10.5 q-2 5.5 -6 10 q-4 4.5 -8.5 12 q-4.5 7.5 -18.5 5.5 q-28 -4 -26 -32 l2 -58 l0 -25 Z" /><glyph glyph-name="g" unicode="g" d="M331 -3 q-3 6 -1 17.5 q2 11.5 2.5 33.5 q0.5 22 -10.5 22 q-9 0 -15.5 -19.5 q-6.5 -19.5 -17.5 -25 q-11 -5.5 -21.5 -8 q-10.5 -2.5 -21 -5 q-10.5 -2.5 -17.5 -9.5 q-7 -7 -22 -14.5 q-15 -7.5 -35 4 q-20 11.5 -27 20.5 q-7 9 -10.5 17 q-3.5 8 -7.5 14 q-4 6 -13 8 q-20 5 -27 32.5 q-7 27.5 -14 59 q-7 31.5 -9.5 55.5 q-2.5 24 -5.5 46 q-7 53 -19 63.5 q-12 10.5 -14 29.5 q-5 48 -5 68.5 q0 20.5 11.5 44 q11.5 23.5 11.5 47 q0 23.5 -3.5 36 q-3.5 12.5 -5.5 20 q-2 7.5 -2 16.5 q-1 16 8 48 q5 17 8 31.5 q3 14.5 6 25.5 q11 40 56 40 l14 0 q27 0 48 17 q10 7 22 11 q12 4 20 -0.5 q8 -4.5 22 -3 q14 1.5 29.5 11 q15.5 9.5 36.5 13 q21 3.5 44 -2 q23 -5.5 32 -18.5 q9 -13 14.5 -16.5 q5.5 -3.5 10.5 -6.5 q19 -14 23 -60 q3 -39 -10 -74 q-2 -7 -7 -22 q-5 -15 -12.5 -31.5 q-7.5 -16.5 -7.5 -31 q0 -14.5 -1.5 -27.5 q-1.5 -13 -8.5 -24 q-17 -27 -67 -25 q-43 0 -53 14 q-5 7 -5.5 18 q-0.5 11 -2 30 q-1.5 19 -11.5 35 q-10 16 -27 8 q-11 -6 -16 -40.5 q-5 -34.5 1 -69.5 q6 -35 5.5 -42.5 q-0.5 -7.5 -2.5 -14.5 q-13 -47 -4 -133 q7 -63 31 -68 q22 -4 36 23 q12 25 -2 103 q-12 61 20 64 q14 2 35.5 1 q21.5 -1 38 3.5 q16.5 4.5 35 0 q18.5 -4.5 30.5 -17.5 q12 -13 0 -50 q-24 -74 -9 -129 q2 -9 6 -25 q4 -16 7 -35.5 q3 -19.5 4 -39.5 q1 -20 -3 -36 q-7 -37 -37.5 -37 q-30.5 0 -42.5 2 q-12 2 -15 8 Z" /><glyph glyph-name="h" unicode="h" d="M289 126 l1 76 l0 25 q0 30 -6 38 q-9 14 -28 13.5 q-19 -0.5 -27.5 -11.5 q-8.5 -11 -10 -27 q-1.5 -16 -2 -35 q-0.5 -19 -0.5 -41 q-2 -44 0.5 -68 q2.5 -24 0 -30.5 q-2.5 -6.5 -10.5 -13 q-8 -6.5 -13 -17 q-5 -10.5 -9 -21.5 q-12 -26 -25 -27 q-39 -4 -67 42 q-6 11 -16 21 q-21 23 -8 74 q5 24 5 49.5 q0 25.5 -2 36.5 q-2 11 0 24.5 q2 13.5 -3 24 q-5 10.5 -3.5 27.5 q1.5 17 -2 29.5 q-3.5 12.5 -1.5 22.5 q2 10 -2.5 16 q-4.5 6 -3 17.5 q1.5 11.5 2.5 24.5 q3 36 -9 55 q-12 19 -20.5 44 q-8.5 25 2.5 60 q17 53 10 117 q-2 16 7 37 q13 33 85 37 q23 1 41.5 6 q18.5 5 37 0.5 q18.5 -4.5 21.5 -23.5 q3 -19 5.5 -26 q2.5 -7 3.5 -14 q2 -13 -4 -41.5 q-6 -28.5 -7 -48 q-1 -19.5 -1 -37.5 q2 -44 -3.5 -62.5 q-5.5 -18.5 -3.5 -28 q2 -9.5 8 -15.5 q20 -18 55 4 q5 3 9 10 q-5 28 -6 69 q-1 61 -4 95.5 q-3 34.5 1 57.5 q4 23 21 43 q17 20 31.5 17.5 q14.5 -2.5 24 -12 q9.5 -9.5 17.5 -8.5 q8 1 22 10 q37 22 69 -27 q-10 -10 -5.5 -36.5 q4.5 -26.5 1.5 -38 q-3 -11.5 -4 -32 q-1 -20.5 -1.5 -39.5 q-0.5 -19 -5.5 -50 q-7 -43 -1 -99 q6 -56 2 -101 q-4 -45 -2 -75 q2 -30 -1.5 -40 q-3.5 -10 -7.5 -20 q-15 -29 -17 -59 q-2 -25 -3 -49.5 q-1 -24.5 -5 -43.5 q-9 -43 -41 -43 q-36 0 -41 55 q-23 7 -37.5 24 q-14.5 17 -12.5 58 Z" /><glyph glyph-name="i" unicode="i" d="M272 553 q-34 -9 -13 -116 q7 -29 7.5 -48.5 q0.5 -19.5 -5.5 -42.5 q-6 -23 -6 -37 q0 -14 -4 -33 q1 -21 -0.5 -42.5 q-1.5 -21.5 -2.5 -41.5 q-3 -49 -1 -58 q2 -9 6.5 -11.5 q4.5 -2.5 10.5 -4.5 q14 -5 17 -13 q3 -8 2.5 -22.5 q-0.5 -14.5 -3.5 -30.5 q-9 -38 -25 -49 q-9 -6 -18.5 -4 q-9.5 2 -20.5 4 q-34 6 -58 -6 q-59 -32 -91 0 q-13 13 -16 40 q-4 49 5.5 63 q9.5 14 16 17.5 q6.5 3.5 11.5 6.5 q11 5 11 17 q0 9 2.5 19.5 q2.5 10.5 4.5 22.5 q5 29 -5 48 q-11 22 -9.5 36 q1.5 14 2.5 25 l4 24 q2 29 -1 49.5 q-3 20.5 -4.5 43 q-1.5 22.5 -1 42.5 q0.5 20 0.5 38 q0 42 -8.5 50 q-8.5 8 -15.5 8.5 q-7 0.5 -14 0.5 q-19 -2 -24 6 q-11 11 -11 28 q0 17 6.5 26 q6.5 9 8.5 20.5 q2 11.5 2 24.5 q2 30 -2 39.5 q-4 9.5 -5.5 17 q-1.5 7.5 -1.5 14.5 q0 29 41 30 q25 1 51 -0.5 q26 -1.5 41 1.5 q52 10 83.5 8 q31.5 -2 40.5 -5 q25 -10 27 -55 q1 -21 1 -44 q0 -23 2 -47 q4 -50 -38 -59 Z" /><glyph glyph-name="j" unicode="j" d="M329 453 q7 -13 12 -47 q10 -68 -17 -101 q-28 -30 -2 -69 q14 -28 -5 -116 q-10 -51 -20.5 -72 q-10.5 -21 -30.5 -24 q-9 -2 -16.5 -8.5 q-7.5 -6.5 -16.5 -13.5 q-41 -35 -109 -9 q-10 4 -20.5 8 q-10.5 4 -27.5 6 q-30 3 -45 32 q-7 13 -13 29 l-11 35 q-9 27 -9 51.5 q0 24.5 0.5 36 q0.5 11.5 -1.5 21.5 q-2 10 -2 21 q0 11 5 19 q11 20 45 11 q19 -5 31.5 -6 q12.5 -1 21.5 -2 q28 -3 26 -35 q0 -15 0 -30 q0 -37 20 -40 q20 -5 26 24 q3 11 2.5 23.5 q-0.5 12.5 -1 25 q-0.5 12.5 1 21.5 q1.5 9 13.5 23.5 q12 14.5 9 30 q-3 15.5 -8.5 20 q-5.5 4.5 -7.5 13 q-2 8.5 -3 18.5 q-1 10 -1 20 q0 10 1 22 q1 12 -5 36.5 q-6 24.5 -5.5 47 q0.5 22.5 -3 39.5 q-3.5 17 -8.5 36 q-10 48 -7 94 q-9 23 -11 46.5 q-2 23.5 3 32.5 q5 9 10 11 q5 2 11 4 q15 6 27 19 q12 13 29 19 q21 7 51 -23 q20 2 32.5 2.5 q12.5 0.5 17.5 -6 q5 -6.5 7 -8.5 q7 -5 11 -4 q-3 -13 3.5 -34.5 q6.5 -21.5 5 -43 q-1.5 -21.5 0 -38.5 q1.5 -17 0 -23.5 q-1.5 -6.5 -3.5 -11.5 q-7 -13 -3 -35 q4 -22 -1.5 -31 q-5.5 -9 -12 -15.5 q-6.5 -6.5 -4.5 -23.5 q2 -17 10 -28 Z" /><glyph glyph-name="k" unicode="k" d="M368 427 q-20 -41 -27.5 -60 q-7.5 -19 -7.5 -28.5 q0 -9.5 6.5 -26 q6.5 -16.5 16.5 -37 q10 -20.5 22.5 -45.5 q12.5 -25 21.5 -46.5 q9 -21.5 12.5 -33 q3.5 -11.5 5.5 -22.5 q2 -19 -1.5 -43 q-3.5 -24 -2 -38.5 q1.5 -14.5 1 -26.5 q-0.5 -12 -4.5 -19.5 q-4 -7.5 -23.5 -9 q-19.5 -1.5 -36 13.5 q-16.5 15 -28 35.5 q-11.5 20.5 -19 40.5 q-7.5 20 -19.5 33 q-12 13 -20.5 38 q-8.5 25 -14.5 48 q-6 23 -13 40 q-7 17 -19.5 19 q-12.5 2 -16 -6 q-3.5 -8 -3 -21.5 q0.5 -13.5 2.5 -30 q2 -16.5 2.5 -36 q0.5 -19.5 -2 -36.5 q-2.5 -17 -16 -32.5 q-13.5 -15.5 -18 -31.5 q-4.5 -16 -7.5 -31 q-3 -15 -8 -26 q-5 -11 -17 -11 q-24 -1 -44 27 q-20 28 -23 73 q-3 26 -15 34 q-11 7 -7 55 q1 13 4 23 q6 31 -0.5 88.5 q-6.5 57.5 -8.5 68 q-2 10.5 -4.5 25 q-2.5 14.5 -4 31 q-1.5 16.5 -1.5 34 q0 17.5 4.5 37 q4.5 19.5 5 32.5 q0.5 13 -0.5 23 q-5 32 -3.5 51.5 q1.5 19.5 -1.5 41.5 q-3 22 -4 43 q-1 21 3.5 38.5 q4.5 17.5 18 25.5 q13.5 8 23.5 6.5 q10 -1.5 21 -4.5 q33 -9 46 -7 q76 19 61 -97 q-3 -19 -6 -34 q-7 -36 -4 -54 q2 -12 2.5 -26 q0.5 -14 1.5 -26 q2 -28 13 -28 q17 0 43 58 q6 13 8.5 21 q2.5 8 7 19 q4.5 11 10.5 22 q16 27 34 34 q-13 28 -4.5 48.5 q8.5 20.5 13.5 30.5 q5 10 11 16 q11 11 32.5 5 q21.5 -6 37.5 -1 q16 5 31.5 10.5 q15.5 5.5 30.5 8 q15 2.5 25.5 -6.5 q10.5 -9 13 -20.5 q2.5 -11.5 -0.5 -24.5 q-6 -27 -30 -53 q-14 -55 -46 -87 q-4 -47 -30 -79 q-10 -11 -30 -52 Z" /><glyph glyph-name="l" unicode="l" d="M337.5 151.5 q4.5 -7.5 4 -18 q-0.5 -10.5 -2 -21.5 q-1.5 -11 0.5 -24.5 q2 -13.5 3.5 -26 q1.5 -12.5 1.5 -23.5 q0 -11 -6.5 -18.5 q-6.5 -7.5 -19.5 -12.5 q-13 -5 -29 -7 q-37 -3 -64 11 q-25 13 -47.5 8 q-22.5 -5 -35 -9.5 q-12.5 -4.5 -29 -8.5 q-16.5 -4 -32.5 -3.5 q-16 0.5 -27 18 q-11 17.5 -12 40.5 q-1 23 7 47 q8 24 6 54.5 q-2 30.5 -4 52 q-2 21.5 0 37.5 q5 38 -9 53 q-11 13 -11 30.5 q0 17.5 1 28.5 q1 11 7 19 q6 8 7.5 13.5 q1.5 5.5 -0.5 19.5 q-8 57 -5.5 88 q2.5 31 -1 53.5 q-3.5 22.5 -1.5 37 q2 14.5 -2 24.5 q-4 10 -2.5 14.5 q1.5 4.5 -0.5 13 q-2 8.5 -4 18.5 q-6 30 -3.5 41 q2.5 11 10 25.5 q7.5 14.5 18.5 17.5 q11 3 13 5 q2 2 10 5 q21 6 31 1 q10 -5 18 -5.5 q8 -0.5 16.5 0 q8.5 0.5 16.5 2.5 l12 2 q21 6 32 -2 q7 -7 10 -11 q3 -4 1 -12 q-2 -8 2 -13 q4 -5 3 -14.5 q-1 -9.5 -0.5 -14 q0.5 -4.5 1.5 -9.5 q2 -10 -2 -24 q-4 -14 -5 -18.5 q-1 -4.5 -1 -8.5 q0 -13 -3.5 -24.5 q-3.5 -11.5 -4 -19 q-0.5 -7.5 -0.5 -17.5 l0 -22 q0 -12 -1.5 -30 q-1.5 -18 -3 -42.5 q-1.5 -24.5 -2.5 -49.5 q-4 -66 -10 -84 q-16 -9 -5 -42 l7 -21 q10 -30 10 -59 q0 -29 -5 -56 q29 -16 41 -17 q29 -4 52.5 8 q23.5 12 34 10 q10.5 -2 15 -9.5 Z" /><glyph glyph-name="m" unicode="m" d="M506 7 q-33 0 -30 56 q2 38 0.5 67 q-1.5 29 -12.5 61 q-11 32 -15 58 q-4 26 6 57 q14 44 2 98 q-2 9 -2 18.5 q0 9.5 -1 17.5 q-1 19 -10 19 q-8 0 -11 -14 q-6 -36 -14 -56 q-22 -52 -17 -86 q13 -50 -2 -77 q-7 -13 -17 -19 q-10 -6 -13 -10.5 q-3 -4.5 -2.5 -16 q0.5 -11.5 -5.5 -18.5 q-6 -7 -7.5 -15 q-1.5 -8 -3.5 -15 q-5 -18 -22 -16 q-17 2 -23.5 21 q-6.5 19 -10 44 q-3.5 25 -7 50 q-3.5 25 -13 38 q-9.5 13 -13 26 q-3.5 13 -5.5 27 q-5 34 -13 47 q-7 12 -11 45 q-4 33 -7.5 45 q-3.5 12 -12.5 12 q-10 -1 -11 -15 q-1 -14 3 -23 q4 -9 1 -32 q-3 -23 1 -40 q4 -17 8 -30.5 q4 -13.5 7 -28.5 q10 -41 4.5 -69.5 q-5.5 -28.5 -6.5 -44 q-1 -15.5 -12.5 -22.5 q-11.5 -7 -14 -14.5 q-2.5 -7.5 -3.5 -17 q-1 -9.5 -2 -20 q-1 -10.5 -7 -25.5 q-13 -32 -8.5 -47 q4.5 -15 -5 -32 q-9.5 -17 -27 -18.5 q-17.5 -1.5 -28 6.5 q-10.5 8 -18.5 20 q-33 54 -26 122 q1 15 2.5 30 q1.5 15 -0.5 37 q-3 54 -25 85 q-15 21 -17 51 q-5 52 6 74 q5 10 5 31.5 q0 21.5 -0.5 31 q-0.5 9.5 1 14 q1.5 4.5 2 16 q0.5 11.5 0.5 26.5 q-1 27 -7 49.5 q-6 22.5 -7.5 39 q-1.5 16.5 0.5 32.5 q3 36 12.5 51 q9.5 15 17.5 17.5 q8 2.5 18 2.5 q10 0 17 3.5 q7 3.5 15 6.5 q17 7 33 1 q16 -6 27.5 -4 q11.5 2 21.5 5 q26 10 39.5 5 q13.5 -5 24.5 -17 q11 -12 12.5 -19.5 q1.5 -7.5 4.5 -10.5 q3 -3 7 -6 q8 -7 8 -22 q0 -22 12 -59 q21 -70 40 -76 q4 -1 14 6 q10 7 14 21 q6 24 4 36.5 q-2 12.5 3.5 19.5 q5.5 7 6 13 q0.5 6 1.5 16 q1 10 4 23 q8 33 23 50 q15 17 31 20 q16 3 32.5 1.5 q16.5 -1.5 33 -3 q16.5 -1.5 33.5 5.5 q45 20 62 1 q5 -5 9.5 -7 q4.5 -2 8.5 -4 q8 -6 9.5 -18.5 q1.5 -12.5 3.5 -17 q2 -4.5 4 -8.5 q11 -26 14 -90 q3 -105 -4 -120 q7 -41 -7 -58 q-3 -3 -6 -6 q-18 -18 -22 -48 q-2 -12 0.5 -20 q2.5 -8 2.5 -17 q0 -9 -0.5 -16 q-0.5 -7 -0.5 -15 q-2 -29 -0.5 -42 q1.5 -13 0 -19 q-1.5 -6 -3.5 -11 q-5 -15 -3 -25.5 q2 -10.5 0 -16.5 q-2 -6 -5 -12 q-8 -17 -6.5 -43.5 q1.5 -26.5 -2 -44.5 q-3.5 -18 -3.5 -37 q-2 -53 -14 -49 q-5 2 -8.5 -5 q-3.5 -7 -6 -18 q-2.5 -11 -13.5 -7.5 q-11 3.5 -14.5 16.5 q-3.5 13 -9 17 q-5.5 4 -16.5 4 Z" /><glyph glyph-name="n" unicode="n" d="M121 730 q50 20 54 4 q25 6 37 -15 q4 -7 15.5 -29 q11.5 -22 25 -47 q13.5 -25 25.5 -47 q12 -22 16 -29.5 q4 -7.5 10 -8.5 q6 -1 12 3 q13 10 7.5 30 q-5.5 20 -5 31.5 q0.5 11.5 2.5 21.5 q6 28 2 45 q-4 17 -4 32 q0 30 49 30 q10 0 23 -0.5 q13 -0.5 39 2 q26 2.5 45.5 -14 q19.5 -16.5 12.5 -58.5 q-9 -57 -8 -76.5 q1 -19.5 1 -36.5 q0 -18 -6 -53 q-11 -62 -6 -88 q4 -23 4 -34 l0 -16 q0 -3 2 -13 q2 -10 -1 -20.5 q-3 -10.5 -1 -22.5 q2 -12 -5 -27.5 q-7 -15.5 -6.5 -34 q0.5 -18.5 -2.5 -33.5 q-3 -15 3 -35 q9 -31 -15 -109 q-4 -19 -12.5 -24.5 q-8.5 -5.5 -12.5 -8.5 q-4 -3 -6 -13 q-5 -20 -21 -18 q-21 3 -34 42 q-18 54 -29 63 q-11 9 -16.5 25 q-5.5 16 -9.5 33 q-8 42 -16 48.5 q-8 6.5 -13 25.5 q-5 19 -10 27 q-5 8 -9.5 18 q-4.5 10 -9.5 20 q-13 25 -25 22 q-7 -2 -9.5 -17.5 q-2.5 -15.5 -4.5 -37.5 q-6 -64 -20 -92 q9 -26 13.5 -47.5 q4.5 -21.5 -2 -51 q-6.5 -29.5 -10.5 -47.5 q-4 -18 -8.5 -31.5 q-4.5 -13.5 -10.5 -20.5 q-6 -7 -15 -5.5 q-9 1.5 -12 5.5 q-3 4 -6 8 q-7 13 -24 19 q-17 6 -24 15 q-7 9 -9 21 q-2 12 -2.5 26 q-0.5 14 -7 30.5 q-6.5 16.5 -6.5 27.5 q0 11 2 19.5 q2 8.5 4 17 q2 8.5 -4 26.5 q-12 37 7 61 q14 20 12 34 q-6 29 -23 38 q-8 5 -8 12 q0 15 -4.5 22.5 q-4.5 7.5 -0.5 19.5 q4 12 -1 20 q0 1 -2.5 20.5 q-2.5 19.5 -5 50 q-2.5 30.5 -5.5 66 q-3 35.5 -4 68.5 q-4 76 1.5 89 q5.5 13 17 19 q11.5 6 24.5 8 q28 3 46 -4 Z" /><glyph glyph-name="o" unicode="o" d="M120 690 q11 10 19 21.5 q8 11.5 21 21.5 q35 29 70 17 q43 -16 79 -20 q36 -4 52.5 -18 q16.5 -14 28.5 -30 q29 -38 35 -83 q1 -17 6 -24 q13 -22 8.5 -59 q-4.5 -37 -3 -51.5 q1.5 -14.5 5 -21.5 q3.5 -7 6.5 -14 q8 -19 8 -38 q0 -24 -16 -48 q-7 -9 -5 -35 q2 -26 3 -52 q1 -65 -7 -80.5 q-8 -15.5 -11.5 -18.5 q-3.5 -3 -6.5 -5 q-15 -7 -26.5 -41.5 q-11.5 -34.5 -30.5 -56 q-19 -21.5 -39.5 -35 q-20.5 -13.5 -32 -21 q-11.5 -7.5 -16.5 -14.5 q-5 -7 -10 -14 q-13 -16 -33 -16 q-34 0 -50 16 q-7 9 -15 26 q-15 27 -40 44 q-28 19 -34 57 q-3 13 -1.5 26 q1.5 13 -1.5 33 q-2 20 -8 36 q-6 16 -7 30 q-5 42 -28 45 q-17 2 -20 51 q-1 25 2 47.5 q3 22.5 8 38.5 q8 29 5 67.5 q-3 38.5 0 68.5 q5 56 24 91 q9 15 26.5 30 q17.5 15 34.5 29 ZM183.5 404 q2.5 -14 10 -22.5 q7.5 -8.5 11 -26.5 q3.5 -18 2.5 -39.5 q-1 -21.5 -1 -41 q0 -19.5 2 -35 q2 -15.5 6 -28.5 q11 -31 31 -31 q31 0 43 120 q4 33 4 84.5 q0 51.5 -16 89 q-16 37.5 -39 37.5 q-22 0 -40 -49 q-16 -44 -13.5 -58 Z" /><glyph glyph-name="p" unicode="p" d="M134 -15 q-14 1 -28.5 30 q-14.5 29 -20 74 q-5.5 45 -7.5 61 q-2 16 -4 24 q-3 15 -11.5 26.5 q-8.5 11.5 -10.5 17.5 q-2 9 -1 45 q2 77 -7 102 q-4 11 -3 18 q1 7 0.5 15 q-0.5 8 -5.5 17 q-5 9 -10 21 q-16 32 -16 44 q0 15 10 34 q22 37 25.5 51.5 q3.5 14.5 3 37 q-0.5 22.5 -0.5 45.5 q-2 59 10 74 q8 8 19 11 q11 3 28 9 q34 12 51.5 12 q17.5 0 28 -9.5 q10.5 -9.5 24.5 -11 q14 -1.5 19.5 0 q5.5 1.5 9.5 2.5 q12 5 20 5 q13 0 19 -10 q6 -10 11 -16.5 q5 -6.5 16.5 -3.5 q11.5 3 17.5 3 q6 0 10 0 q15 -2 26 1 q22 7 34 -7 q3 -7 14 -10 q11 -3 19 -8 q19 -10 26 -35 q14 -46 4 -95 q-4 -17 -6.5 -27 q-2.5 -10 -4 -17.5 q-1.5 -7.5 -2 -14.5 q-0.5 -7 -1 -17 q-0.5 -10 -0.5 -22 l0 -27 q0 -31 2 -49 q6 -50 -45 -72 q-17 -7 -24 -13 q-7 -6 -12 -18 q-5 -12 -18.5 -30 q-13.5 -18 -41 -28.5 q-27.5 -10.5 -47.5 -17.5 q-20 -7 -25 -17 q-7 -13 -3.5 -61.5 q3.5 -48.5 2.5 -61.5 q-1 -13 -3 -21.5 q-2 -8.5 -10 -13.5 q-8 -5 -14 -5 q-6 0 -12.5 -6 q-6.5 -6 -11.5 -12 q-5 -6 -11 -11 q-14 -13 -33 -13 ZM202 545 q-6 -6 -12 -35 q-6 -29 -6 -46 q0 -17 7 -30.5 q7 -13.5 6.5 -22 q-0.5 -8.5 -2 -18 q-1.5 -9.5 -1.5 -19.5 q-2 -24 4 -30 q6 -6 13.5 -4.5 q7.5 1.5 15.5 5.5 q8 4 14.5 8.5 q6.5 4.5 13 6.5 q6.5 2 9.5 9 q3 7 9 12 q7 5 9.5 13.5 q2.5 8.5 5 18 q2.5 9.5 -0.5 18 q-3 8.5 -11 25.5 q-6 17 -4 27 q8 42 -10 58 q-23 14 -38.5 12 q-15.5 -2 -21.5 -8 Z" /><glyph glyph-name="q" unicode="q" d="M453 359 q4 -80 -21 -161 q-9 -32 -26 -61 q-5 -12 -3.5 -22.5 q1.5 -10.5 15 -25.5 q13.5 -15 18 -26.5 q4.5 -11.5 4.5 -22 q0 -10.5 -2.5 -20.5 q-2.5 -10 -4 -27 q-1.5 -17 -2 -32.5 q-0.5 -15.5 -11.5 -20.5 q-4 -2 -7 -4.5 q-3 -2.5 -7 -0.5 q-5 3 -12.5 16 q-7.5 13 -11.5 15.5 q-4 2.5 -8 2 q-4 -0.5 -8 -1.5 q-11 -3 -19 16 q-17 39 -37 37 q-9 -2 -19.5 -8 q-10.5 -6 -24.5 -11 q-63 -24 -108 24 q-18 20 -25 35 q-7 15 -11.5 17.5 q-4.5 2.5 -9 4 q-4.5 1.5 -9.5 3.5 q-12 5 -33 86 q-6 19 -15 44 q-9 25 -17 49 q-21 69 -22.5 100.5 q-1.5 31.5 0 48 q1.5 16.5 4 28 q2.5 11.5 4.5 20.5 q2 9 1 25.5 q-1 16.5 5 31 q6 14.5 12.5 32.5 q6.5 18 14.5 47 q8 29 24 48.5 q16 19.5 23 29 q7 9.5 14 16.5 q15 16 32 25 q17 9 32 16 q15 7 30 11 q36 9 56 -7 q29 -19 47 -16 q6 1 19 1 q33 0 64 -39 q20 -25 29.5 -39 q9.5 -14 13.5 -31.5 q4 -17.5 9 -27.5 q5 -10 4 -26 q-1 -16 -1.5 -35 q-0.5 -19 5.5 -42.5 q6 -23.5 9 -39.5 q3 -16 3 -31 q2 -36 -17 -51 ZM298 339 q-2 30 2 49 q21 81 -25 127 q-17 17 -28 6 q-5 -5 -11 -11 q-13 -17 -23 -17.5 q-10 -0.5 -15.5 -5.5 q-5.5 -5 -11 -14.5 q-5.5 -9.5 -10.5 -28.5 q-11 -47 -4.5 -105 q6.5 -58 16.5 -86.5 q10 -28.5 21 -45 q11 -16.5 21.5 -23.5 q10.5 -7 15.5 -7 l2 0 q-33 72 -29 99 q6 29 56 54 q13 6 23 9 Z" /><glyph glyph-name="r" unicode="r" d="M292 719 l32 2 q34 0 48.5 -11 q14.5 -11 22 -20 q7.5 -9 13.5 -18.5 q6 -9.5 16.5 -19.5 q10.5 -10 10.5 -23.5 q0 -13.5 7.5 -21.5 q7.5 -8 7.5 -26 q0 -18 -0.5 -34.5 q-0.5 -16.5 -3.5 -27 q-3 -10.5 -3 -21 q0 -10.5 4.5 -19 q4.5 -8.5 1 -41 q-3.5 -32.5 -11 -65.5 q-7.5 -33 -19.5 -57 q-24 -45 -78 -71 q5 -12 11.5 -26.5 q6.5 -14.5 12.5 -29.5 q13 -37 13 -53.5 q0 -16.5 1.5 -24 q1.5 -7.5 3.5 -11.5 q2 -4 5.5 -6 q3.5 -2 10.5 -7.5 q7 -5.5 11 -18.5 q4 -13 4 -27 q0 -32 -7.5 -39.5 q-7.5 -7.5 -16 -10 q-8.5 -2.5 -17.5 -3.5 q-23 -3 -29 6 q-8 8 -8.5 16.5 q-0.5 8.5 -3.5 15 q-3 6.5 -9 8 q-6 1.5 -8.5 12.5 q-2.5 11 -7 14.5 q-4.5 3.5 -18.5 1.5 q-25 -5 -37 30 q-3 8 -6 21 q-3 13 -7 25 q-8 29 -18.5 31.5 q-10.5 2.5 -15.5 -2.5 q-5 -5 -7.5 -13.5 q-2.5 -8.5 -2.5 -19 q0 -10.5 2.5 -22.5 q2.5 -12 0.5 -20 q-2 -8 -5.5 -13 q-3.5 -5 -7.5 -9 q-8 -5 -9.5 -20 q-1.5 -15 -4.5 -26 q-6 -27 -16 -34 q-10 -7 -20 -8.5 q-10 -1.5 -20 0.5 q-25 5 -31 17.5 q-6 12.5 -7 19 q-1 6.5 -0.5 12.5 q0.5 6 1.5 13 q1 7 0.5 16.5 q-0.5 9.5 -4.5 25.5 q-4 16 -5 38 l-1 26 q0 4 7 13.5 q7 9.5 4.5 22 q-2.5 12.5 -11.5 16 q-9 3.5 -9 8.5 q0 5 2 25 q2 20 -1.5 50 q-3.5 30 -4.5 53 q-4 50 -17.5 56.5 q-13.5 6.5 -15.5 16 q-2 9.5 0 21.5 q2 12 4.5 30 q2.5 18 5.5 36.5 q3 18.5 5.5 34.5 q2.5 16 3.5 22 q1 6 0.5 11.5 q-0.5 5.5 -0.5 10.5 q-2 16 0 28 q4 23 2 32.5 q-2 9.5 3.5 29 q5.5 19.5 9.5 27.5 q4 8 15 12 q11 4 21.5 11.5 q10.5 7.5 19.5 15 q9 7.5 16 14 q7 6.5 17 9.5 q29 6 42.5 1.5 q13.5 -4.5 19.5 -9.5 q6 -5 14.5 -10 q8.5 -5 18 -7.5 q9.5 -2.5 17.5 -2.5 q21 -2 25.5 -5.5 q4.5 -3.5 10.5 -3.5 ZM209 440 l6 -91 q0 -9 -1 -17.5 q-1 -8.5 -2 -15.5 q-1 -15 11 -18 q10 -2 16 5.5 q6 7.5 11 20.5 q12 25 8 32 q-8 10 -4.5 17.5 q3.5 7.5 15 29.5 q11.5 22 17 38 q5.5 16 2.5 34.5 q-3 18.5 -3 25.5 l0 11 q0 8 -7.5 14.5 q-7.5 6.5 -10.5 7 q-3 0.5 -5 0.5 q-9 -2 -17 1.5 q-8 3.5 -15 3 q-7 -0.5 -16 -9.5 q-9 -9 -10 -18.5 q-1 -9.5 0 -21.5 q5 -36 5 -49 Z" /><glyph glyph-name="s" unicode="s" d="M395.5 583 q2.5 -6 1.5 -13 q-1 -7 -14 -24 q-13 -17 -15.5 -36.5 q-2.5 -19.5 -1.5 -32 q1 -12.5 0 -21.5 q-1 -22 -24 -30 q-20 -8 -31 1 q-11 9 -18 23.5 q-7 14.5 -10.5 25 q-3.5 10.5 -11.5 11.5 q-14 3 -21.5 -3 q-7.5 -6 -11.5 -10 q-8 -8 -16.5 -11 q-8.5 -3 -13.5 -6 q-10 -7 -8 -23 q4 -31 69 -94 q12 -12 28.5 -26 q16.5 -14 32.5 -32 q36 -43 40 -97 q4 -55 -16 -96 q-16 -33 -38 -43 q-17 -9 -23 -23.5 q-6 -14.5 -9 -21 q-3 -6.5 -12.5 -11 q-9.5 -4.5 -21.5 -3.5 q-12 1 -22.5 4.5 q-10.5 3.5 -19 8 q-8.5 4.5 -14 5.5 q-5.5 1 -10.5 -3.5 q-5 -4.5 -10 -9.5 q-15 -15 -27 -11.5 q-12 3.5 -28 11.5 q-16 8 -31 20 q-54 42 -37 86 q11 29 24.5 41 q13.5 12 21.5 12 q13 0 17.5 -9.5 q4.5 -9.5 7.5 -16 q3 -6.5 7 -10.5 q4 -4 12.5 -8 q8.5 -4 18.5 -5 q25 -2 38 20 q13 22 10 48 q-7 47 -20 40 q-11 -7 -27 -0.5 q-16 6.5 -17 17 q-1 10.5 -4 20.5 q-3 10 -7 19 q-9 23 -16 25 q-8 2 -21.5 2 q-13.5 0 -29.5 17.5 q-16 17.5 -23 44 q-7 26.5 -12 46 q-5 19.5 -9 30.5 q-4 11 -7 23 q-10 38 -1 98 q6 35 22 61.5 q16 26.5 36 52.5 q38 51 70 71 q32 20 49 4 q15 -13 32.5 -10.5 q17.5 2.5 27.5 5.5 l18 4 q17 4 34.5 -1 q17.5 -5 31.5 -34 q7 -15 14.5 -26 q7.5 -11 14.5 -21 q15 -24 17.5 -39.5 q2.5 -15.5 7 -22.5 q4.5 -7 7 -13 Z" /><glyph glyph-name="t" unicode="t" d="M53.5 734 q22.5 -2 40 -1.5 q17.5 0.5 52.5 -0.5 q58 -3 82 8 q49 25 79 6 q14 -8 27 -10 q13 -2 37 12 q26 11 43 5 q17 -6 25 -15 q8 -9 10.5 -31.5 q2.5 -22.5 1 -44.5 q-1.5 -22 -4.5 -41 q-6 -51 -4.5 -67 q1.5 -16 4 -33 q2.5 -17 1.5 -33 q-2 -39 -32 -44 q-22 -3 -32 10.5 q-10 13.5 -16.5 30 q-6.5 16.5 -13 29.5 q-6.5 13 -18.5 9.5 q-12 -3.5 -15 -26 q-3 -22.5 -2 -53 q1 -30.5 4 -63 q3 -32.5 4 -55 q1 -22.5 2.5 -45.5 q1.5 -23 1.5 -43 q0 -43 -12 -59 q-6 -8 -6 -19 q0 -11 2.5 -23 q2.5 -12 5.5 -24 q3 -12 3 -29 q0 -40 -36 -56 q-13 -6 -24 -20 q-11 -14 -16.5 -18.5 q-5.5 -4.5 -13 -3 q-7.5 1.5 -11 7 q-3.5 5.5 -6.5 11.5 q-6 16 -17 21 q-13 3 -15.5 22 q-2.5 19 -3 33.5 q-0.5 14.5 -2.5 35.5 q-2 21 -13 34 q-11 13 -18 16.5 q-7 3.5 -9 17 q-2 13.5 0.5 27.5 q2.5 14 6.5 31 q12 49 13 92 q3 80 0 106 q-4 52 -28 52 q-12 -1 -17 -10.5 q-5 -9.5 -11 -22.5 q-14 -33 -51 -18 q-13 6 -16.5 19 q-3.5 13 -4 30.5 q-0.5 17.5 -1 37 q-0.5 19.5 -7 37 q-6.5 17.5 -12.5 33.5 q-6 16 -5 32 q1 16 7.5 31 q6.5 15 4 30 q-2.5 15 6 29.5 q8.5 14.5 31 12.5 Z" /><glyph glyph-name="u" unicode="u" d="M210 587 l-5 -227 q0 -151 42 -143 q36 6 33 127 q0 36 5.5 46.5 q5.5 10.5 7.5 17.5 q5 20 2 53 q-2 21 -7 63 q-5 42 -9 86.5 q-4 44.5 -4 80.5 q0 36 7.5 45 q7.5 9 19 10.5 q11.5 1.5 24 0 q12.5 -1.5 24 -4.5 q11.5 -3 19 -3 q7.5 0 18 2.5 q10.5 2.5 21 4 q10.5 1.5 20 1.5 q9.5 0 17.5 -7 q8 -7 13.5 -35 q5.5 -28 8 -66 q2.5 -38 2.5 -81.5 q0 -43.5 -1 -82.5 q-4 -86 -7.5 -104 q-3.5 -18 -8.5 -26 q-5 -8 -10 -15 q-10 -14 -3 -40 q7 -26 11 -40 q7 -25 1 -45 q-6 -20 -4 -39 q5 -51 -12 -73 q-8 -11 -25 -21 q-34 -19 -50 -46 q-8 -16 -19 -19 q-6 -2 -18 -0.5 q-12 1.5 -26 3 q-14 1.5 -27 3 q-13 1.5 -18 0 q-5 -1.5 -9 -6 q-4 -4.5 -9 -9.5 q-27 -27 -56 6 q-6 7 -11.5 13.5 q-5.5 6.5 -10.5 10 q-5 3.5 -13.5 7 q-8.5 3.5 -18.5 10.5 q-43 26 -54 84 q-6 28 -10 72.5 q-4 44.5 -6.5 56.5 q-2.5 12 -12.5 26.5 q-10 14.5 -13 27 q-3 12.5 -1 26.5 q2 14 5 32 q8 48 4 84 q-4 36 -1.5 56 q2.5 20 0.5 25.5 q-2 5.5 -6.5 10.5 q-4.5 5 -2.5 21 q2 16 2 31 q0 15 0 31 q3 68 21 82 q15 11 31 12 q25 1 37.5 9 q12.5 8 20.5 13 q50 28 62 -40 q8 -42 10 -117 Z" /><glyph glyph-name="v" unicode="v" d="M189 660 q19 -23 17 -75 q0 -27 6 -43 l10 -26 q7 -18 12 -70 q1 -20 12 -20 q7 0 8 26 q2 52 10 81 q8 29 11.5 50.5 q3.5 21.5 5.5 42 q2 20.5 3.5 38 q1.5 17.5 5 36 q3.5 18.5 15 32.5 q11.5 14 36.5 13 q25 -1 34 -2.5 q9 -1.5 14.5 -3 q5.5 -1.5 9 -3 q3.5 -1.5 10.5 -1.5 q7 0 15.5 1 q8.5 1 13 -0.5 q4.5 -1.5 9.5 -5.5 q5 -4 9 -14 q11 -24 7.5 -57 q-3.5 -33 -8 -43.5 q-4.5 -10.5 -9 -16.5 q-4.5 -6 -9.5 -10.5 q-5 -4.5 -9 -14.5 q-4 -10 -6 -28 q-2 -18 -4 -39 q-7 -75 -22 -100 q-3 -6 -8 -12 q-23 -31 -28.5 -53.5 q-5.5 -22.5 -7.5 -36.5 q-15 -80 -30 -129 q-18 -56 -20 -68 q-6 -42 -30 -60 q-12 -9 -22.5 -35 q-10.5 -26 -16.5 -36.5 q-6 -10.5 -17 -8.5 q-11 2 -15 14 q-10 33 -22 46.5 q-12 13.5 -21 37.5 q-9 24 -12.5 44.5 q-3.5 20.5 -5.5 41.5 q-7 57 -12 78 q-12 50 -25 62 q-8 9 -15 14.5 q-7 5.5 -12 10.5 q-11 11 -10.5 29.5 q0.5 18.5 3.5 50 q3 31.5 -6.5 61.5 q-9.5 30 -12 46.5 q-2.5 16.5 -6.5 33.5 q-8 37 -28 74 q-36 65 -11 103 q14 22 47 22 l23 0 q11 0 21 9 q14 12 42 -2 q4 -1 9.5 -0.5 q5.5 0.5 11.5 -1.5 q30 -10 30 -82 Z" /><glyph glyph-name="w" unicode="w" d="M424 411 l-1 67 q1 24 5 35 q4 11 5.5 22.5 q1.5 11.5 3 24 q1.5 12.5 3.5 24.5 q5 28 14 30 q9 2 11 22 q5 33 -2 53 q-8 24 1 37 q17 26 56 8 q28 -12 40 -12 q12 0 21.5 2.5 q9.5 2.5 27 7 q17.5 4.5 28 -13 q10.5 -17.5 9 -34.5 q-1.5 -17 -3.5 -31.5 q-2 -14.5 -4 -30.5 q-7 -40 -11.5 -52.5 q-4.5 -12.5 -6.5 -26 q-2 -13.5 -4 -28.5 q-4 -44 -9 -63 q-26 -98 -26 -119 q0 -21 -2 -26 q-2 -5 -5 -10 q-3 -5 -8 -12.5 q-5 -7.5 -11 -23.5 q-8 -21 -7 -38 q2 -35 -5 -54 q-7 -19 -14.5 -38.5 q-7.5 -19.5 -14.5 -38.5 q-17 -42 -21 -66 q-4 -24 -15.5 -36.5 q-11.5 -12.5 -24 -7.5 q-12.5 5 -16 12 q-3.5 7 -6.5 14 q-9 20 -22 24 q-20 8 -29.5 28.5 q-9.5 20.5 -11 49.5 q-1.5 29 -3.5 52 q-2 23 -5 42 q-9 47 -19 47 q-6 0 -9 -10.5 q-3 -10.5 -6 -26.5 q-9 -45 -19.5 -62 q-10.5 -17 -13.5 -30 q-3 -13 -4.5 -25 q-1.5 -12 -2.5 -23.5 q-1 -11.5 -5.5 -23.5 q-4.5 -12 -10.5 -24.5 q-6 -12.5 -15 -21.5 q-21 -19 -48 -2 q-17 11 -38 17.5 q-21 6.5 -28 11 q-7 4.5 -12.5 16.5 q-5.5 12 -8 33.5 q-2.5 21.5 -6.5 49.5 q-12 80 -28 129 q-13 40 -26 109.5 q-13 69.5 -17.5 91 q-4.5 21.5 -8.5 22.5 q-7 1 -12 20 q-7 33 -4 50 q3 17 1.5 31.5 q-1.5 14.5 -4.5 29.5 q-3 15 -6.5 29 q-3.5 14 -6.5 30 q-9 38 16 55 q36 22 60 4 q11 8 30 -2 q11 11 27.5 18 q16.5 7 29.5 2.5 q13 -4.5 20 -15 q7 -10.5 11 -25.5 q6 -21 9.5 -56.5 q3.5 -35.5 3.5 -50.5 q0 -15 0 -30 q0 -36 6.5 -78 q6.5 -42 6 -65.5 q-0.5 -23.5 1.5 -33 q2 -9.5 4 -16.5 q2 -7 5 -13 q7 -11 17 -8 q6 3 6 9.5 q0 6.5 -1.5 16.5 q-1.5 10 -3.5 22 q-2 12 -1 24.5 q1 12.5 2.5 31 q1.5 18.5 2.5 38.5 q5 57 9 81.5 q4 24.5 6 38 q2 13.5 5 29.5 q17 13 26 36 q-4 5 -4 9 l7 29 q1 11 10 19.5 q9 8.5 17 6.5 q8 -2 12 -5 q4 -3 8 -11 q6 -15 7.5 -49 q1.5 -34 3 -48 q1.5 -14 2.5 -24.5 q1 -10.5 2 -20 q1 -9.5 1 -29 q0 -19.5 -1 -38.5 q-1 -19 8 -38 q9 -19 10 -25.5 q1 -6.5 0 -13 q-1 -6.5 -2.5 -15 q-1.5 -8.5 -1.5 -25.5 q0 -31 15 -45 q23 -21 28 16 q2 15 2 33 Z" /><glyph glyph-name="x" unicode="x" d="M490.5 695 q-6.5 -21 -17.5 -46.5 q-11 -25.5 -25 -54 q-14 -28.5 -22 -60.5 q-8 -32 -12 -45 q-7 -18 -26 -46.5 q-19 -28.5 -27 -42.5 q-17 -29 -21 -53 q3 -12 10 -31.5 q7 -19.5 14 -43.5 q17 -57 17 -97 q21 -41 20 -60.5 q-1 -19.5 -4 -33.5 q11 -26 14 -44 q3 -18 -13 -36.5 q-16 -18.5 -29 -14 q-13 4.5 -16 21.5 q-4 17 -12 17.5 q-8 0.5 -15.5 0 q-7.5 -0.5 -20 7 q-12.5 7.5 -17.5 28 q-5 20.5 -10.5 43.5 q-5.5 23 -11.5 46 q-15 55 -25 55 q-6 1 -8 -6 q-2 -7 -4 -18 q-8 -47 -35 -79 q-17 -23 -20.5 -31.5 q-3.5 -8.5 -5 -23.5 q-1.5 -15 -16.5 -28.5 q-15 -13.5 -30 -15 q-15 -1.5 -20 -1.5 q-5 0 -8 0 q-5 -1 -14 -6 q-9 -5 -18 -5 q-9 0 -20 13 q-11 13 -13.5 18.5 q-2.5 5.5 -1.5 11 q1 5.5 5 12.5 q30 53 44.5 119.5 q14.5 66.5 28.5 97 q14 30.5 15.5 47.5 q1.5 17 3.5 33 q4 25 -7.5 54.5 q-11.5 29.5 -22 36.5 q-10.5 7 -13.5 12.5 q-3 5.5 -5 12.5 q-2 7 -3 15 q-2 19 -17 57 q-17 43 -39 87 q-27 54 -27 84 q0 25 22 28 q11 2 22.5 1.5 q11.5 -0.5 23 -1 q11.5 -0.5 20 3.5 q8.5 4 19 8 q10.5 4 21.5 6 q25 5 36.5 -5.5 q11.5 -10.5 18 -30.5 q6.5 -20 12 -44.5 q5.5 -24.5 11 -50 q5.5 -25.5 12.5 -47.5 q16 -48 40 -46 q12 1 16 16.5 q4 15.5 6 37.5 q6 60 28 86 q22 25 25 41 q3 16 5 23 q2 7 10.5 13.5 q8.5 6.5 17.5 6.5 q9 0 18 -3 q9 -3 16 -8 q7 -5 12 -8 q77 18 88 -1 q7 -12 0.5 -33 Z" /><glyph glyph-name="y" unicode="y" d="M435 740 q13 0 30 -21 q8 -12 8 -29 q0 -33 -23 -57.5 q-23 -24.5 -31 -40.5 q-8 -16 -8.5 -32 q-0.5 -16 -3.5 -27 q-3 -11 -9 -21 q-13 -23 -37 -29 q-5 -23 -18.5 -40 q-13.5 -17 -17 -24 q-3.5 -7 -5.5 -13 q-5 -13 -12 -23 q-6 -121 -4 -173 q2 -82 -29 -117 q-11 -15 -15 -47.5 q-4 -32.5 -8 -45 q-4 -12.5 -16 -14 q-12 -1.5 -20.5 3.5 q-8.5 5 -14 13 q-5.5 8 -10 17 q-4.5 9 -15 19 q-10.5 10 -10 32 q0.5 22 2 40 q1.5 18 -3 29 q-4.5 11 -10.5 21 q-6 10 -12 19 q-12 19 -9.5 41.5 q2.5 22.5 4.5 38.5 q7 41 6 53 q-4 28 2 62 q-8 14 -12 29 q-7 26 -22 31 q-30 9 -42 49 q-9 31 -4.5 40 q4.5 9 5.5 12 q3 8 -33 39 q-18 15 -25.5 37 q-7.5 22 -16 36.5 q-8.5 14.5 -16.5 27.5 q-16 28 -8 48 q8 14 30 17.5 q22 3.5 44 -4 q22 -7.5 37 -8.5 q15 -1 28.5 -0.5 q13.5 0.5 24 1 q10.5 0.5 16.5 -0.5 q4 -9 12.5 -17 q8.5 -8 12 -22 q3.5 -14 4 -37 q0.5 -23 10 -39 q9.5 -16 12 -29 q2.5 -13 4 -25 q1.5 -12 3.5 -20.5 q2 -8.5 9 -9.5 q7 -2 10 8 q3 10 6 25 q9 45 20 60 q13 17 17.5 46 q4.5 29 7.5 42 q3 13 13 21.5 q10 8.5 31 5.5 q21 -3 46 -6.5 q25 -3.5 41 2.5 q16 6 24 6 Z" /><glyph glyph-name="z" unicode="z" d="M39 47.5 q-1 19.5 0.5 39.5 q1.5 20 0.5 32.5 q-1 12.5 -7 26.5 q34 42 52 76.5 q18 34.5 19 40.5 q1 6 0 13.5 q-1 7.5 0 16.5 q1 24 10.5 36.5 q9.5 12.5 18 21 q8.5 8.5 17.5 19.5 q21 26 35 57 q20 39 32.5 59.5 q12.5 20.5 6.5 27 q-6 6.5 -11.5 5.5 q-5.5 -1 -12.5 -3 q-25 -4 -43 1 q-18 5 -26.5 0 q-8.5 -5 -16.5 -12 q-21 -18 -46 -12.5 q-25 5.5 -30.5 18 q-5.5 12.5 -5.5 28.5 q0 16 2 33 q4 26 -4 48 q-8 22 -11.5 36 q-3.5 14 -3.5 27.5 q0 13.5 8 27.5 q22 45 107 25 q13 -3 22 -6 q9 -3 17 -4 q19 -4 34.5 2 q15.5 6 21 7 q5.5 1 10.5 1 q16 -2 27.5 0 q11.5 2 20 1.5 q8.5 -0.5 15.5 -1.5 q16 -4 31 -3 q20 1 41 -17 q9 -12 7.5 -30.5 q-1.5 -18.5 1.5 -36 q3 -17.5 2 -25.5 q-1 -8 -3 -16 q-4 -26 -4 -43 q0 -17 1.5 -26.5 q1.5 -9.5 2.5 -16.5 q4 -16 2 -36 q-8 -38 -66 -124 q9 -37 -16 -54 q-10 -8 -30 -14 q0 -17 -24 -51.5 q-24 -34.5 -29.5 -53.5 q-5.5 -19 -5.5 -36 q12 0 17.5 -3.5 q5.5 -3.5 23 -4.5 q17.5 -1 37 0 q19.5 1 39 12.5 q19.5 11.5 32.5 2.5 q13 -9 6 -29 q-7 -20 -7 -44 q0 -24 3 -43 q10 -36 -15 -43 q-7 -3 -16.5 -1.5 q-9.5 1.5 -19.5 2.5 q-28 5 -41.5 0 q-13.5 -5 -26.5 -4.5 q-13 0.5 -24 2.5 q-34 6 -47 3 q-13 -3 -24.5 -8 q-11.5 -5 -23.5 -9 q-30 -8 -50.5 0.5 q-20.5 8.5 -26 25 q-5.5 16.5 -6.5 36 Z" /><glyph glyph-name="braceleft" unicode="{" d="M193 72 q26 -39 48 -39 q6 0 10 -7.5 q4 -7.5 -1 -22.5 q-7 -21 -32 -25 q-28 -5 -44.5 -2 q-16.5 3 -23.5 12 q-7 9 -7 15.5 q0 6.5 -7 10.5 q-7 4 -13 11 q-6 7 -11 17 q-14 23 -12.5 40.5 q1.5 17.5 2 24 q0.5 6.5 1.5 11.5 q1 5 1 10 q0 0 2 15 q3 20 4 38.5 q1 18.5 6 35.5 q5 17 3.5 23.5 q-1.5 6.5 -3.5 17 q-2 10.5 -8 21 q-6 10.5 -9.5 19 q-3.5 8.5 -9.5 10.5 q-6 2 -16 10 q-10 8 -20.5 9 q-10.5 1 -18 5 q-7.5 4 -10.5 11 q-3 7 -4 16 q-1 20 7 31 q8 11 11.5 10 q3.5 -1 11 4 q7.5 5 8.5 8 q1 3 2 6 q1 6 10 9 q13 4 28 45 q9 23 5 52 q-7 49 -16 55 q4 16 5 35.5 q1 19.5 7 30 q6 10.5 7 18 q1 7.5 1 15.5 q0 18 9 24 q6 4 10.5 12.5 q4.5 8.5 9.5 17.5 q12 22 28 28 q16 6 21.5 11 q5.5 5 10.5 8 q9 6 30 0 q14 11 20.5 4.5 q6.5 -6.5 8 -14 q1.5 -7.5 2 -14 q0.5 -6.5 -3.5 -13.5 q-7 -11 -26.5 -25 q-19.5 -14 -28.5 -23.5 q-9 -9.5 -5.5 -23.5 q3.5 -14 -0.5 -20.5 q-4 -6.5 -11.5 -17 q-7.5 -10.5 -9 -17 q-1.5 -6.5 -1.5 -12.5 q0 -6 0 -12 q0 -6 -2 -12.5 q-2 -6.5 -1.5 -26.5 q0.5 -20 1.5 -44 q5 -65 2.5 -72 q-2.5 -7 -5.5 -9.5 q-3 -2.5 -8 -12.5 q-12 -26 -34 -48 l13 -14 q7 -6 15 -11 q16 -10 21 -22 q5 -12 7.5 -16 q2.5 -4 4.5 -9 q13 -32 4 -100 q12 -39 0 -73 q-8 -30 5 -49 Z" /><glyph glyph-name="bar" unicode="|" d="M51.5 739.5 q4.5 7.5 7.5 11 q3 3.5 15 5.5 q20 4 28 -4 q8 -8 15 -11.5 q7 -3.5 11 -13.5 q4 -10 3 -19 q-1 -9 3 -22 q6 -18 0.5 -62 q-5.5 -44 -5.5 -70 q0 -26 -2.5 -38.5 q-2.5 -12.5 -1.5 -34 q1 -21.5 6.5 -35 q5.5 -13.5 2 -34.5 q-3.5 -21 -2 -40.5 q1.5 -19.5 2.5 -30 q1 -10.5 1 -21.5 q0 -21 -8 -57 q-4 -18 -4 -29 q0 -11 1 -19 q3 -24 0.5 -44.5 q-2.5 -20.5 1.5 -32 q4 -11.5 -0.5 -18 q-4.5 -6.5 0 -15.5 q4.5 -9 2 -19 q-2.5 -10 -1 -13.5 q1.5 -3.5 3.5 -8.5 q8 -24 -15 -60 q-10 -15 -24.5 -15.5 q-14.5 -0.5 -26 1.5 q-11.5 2 -20.5 9 q-22 17 -18 59 q2 30 7 56 l5 34 q2 9 2 23 q0 14 0.5 28.5 q0.5 14.5 -1 29 q-1.5 14.5 -1.5 28 q0 13.5 0 27.5 q-2 34 -5 47 q-3 13 -1 25 q2 12 5 23 q8 31 5.5 45 q-2.5 14 -2 24.5 q0.5 10.5 3.5 19.5 q6 22 4.5 35.5 q-1.5 13.5 -3 38.5 q-1.5 25 -3 38.5 q-1.5 13.5 -3 18.5 q-1.5 5 -2.5 9 q-3 12 -1 22.5 q2 10.5 1.5 17 q-0.5 6.5 -1.5 12.5 q-1 12 3.5 29 q4.5 17 6 30 q1.5 13 6 20.5 Z" /><glyph glyph-name="braceright" unicode="}" d="M84 688 q-25 39 -48 39 q-7 0 -9 6 q-5 8 0 23.5 q5 15.5 12.5 19 q7.5 3.5 17.5 6 q10 2.5 21 2.5 q27 2 36 -9.5 q9 -11.5 8.5 -18 q-0.5 -6.5 6 -11 q6.5 -4.5 13 -11 q6.5 -6.5 12.5 -16.5 q14 -24 12.5 -41 q-1.5 -17 -2 -23.5 q-0.5 -6.5 -1.5 -11.5 q-1 -5 -1.5 -10.5 q-0.5 -5.5 -2 -20.5 q-1.5 -15 2.5 -33 q4 -18 -0.5 -35 q-4.5 -17 -3.5 -23.5 q1 -6.5 3.5 -17 q2.5 -10.5 7.5 -21 q5 -10.5 8.5 -19 q3.5 -8.5 10 -11 q6.5 -2.5 16.5 -10.5 q10 -8 20.5 -8.5 q10.5 -0.5 18 -4.5 q7.5 -4 10.5 -11 q3 -7 3 -16 q2 -23 -6 -33 q-8 -10 -11.5 -9 q-3.5 1 -11.5 -3.5 q-8 -4.5 -9 -7.5 q-1 -3 -2 -6 q-1 -7 -8 -9 q-17 -6 -30 -45 q-7 -24 -6.5 -49 q0.5 -25 3.5 -33 l0 -24 q0 -54 -10 -69 q-4 -7 -4.5 -15 q-0.5 -8 -0.5 -16 q-2 -20 -9 -25 q-6 -4 -9 -12 q-3 -8 -6 -17 q-10 -24 -27 -30 q-12 -5 -17.5 -9.5 q-5.5 -4.5 -9.5 -7.5 q-10 -7 -32 0 q-26 -20 -30 23 q0 13 11.5 23.5 q11.5 10.5 24.5 19.5 q33 21 28 43 q-2 14 1.5 20.5 q3.5 6.5 11 17 q7.5 10.5 8 21 q0.5 10.5 -0.5 22 q-1 11.5 -2 21.5 q-1 10 1.5 16.5 q2.5 6.5 2.5 22.5 q0 16 0 35 q-2 59 6 68 q3 2 8 12 q16 31 34 48 q-8 6 -14 13 q-6 7 -14 12 q-14 9 -20 21 q-6 12 -8.5 16.5 q-2.5 4.5 -5.5 9.5 q-14 28 -4 100 q-5 16 -5 34.5 q0 18.5 6.5 43.5 q6.5 25 -5.5 44 Z" /><glyph glyph-name="asciitilde" unicode="~" d="M276 379 q12 13 30 11 q26 30 72 17 q20 -6 24 -20 q4 -14 -2 -23 q-6 -9 -10.5 -15.5 q-4.5 -6.5 -15 -11.5 q-10.5 -5 -29 -10 q-18.5 -5 -30 -10.5 q-11.5 -5.5 -15 -8.5 q-3.5 -3 -8.5 -4 q-12 -5 -33 0 q-14 3 -22 3.5 q-8 0.5 -13 1.5 q-11 2 -25 16 q-52 49 -95 5 q-4 -3 -9 -4 q-7 -2 -16 -10 q-15 -15 -22 -13 q-4 1 -10 2 q-6 1 -13 3 q-15 5 -17 13 q-2 8 -6 17 q-4 9 1 19.5 q5 10.5 10.5 12.5 q5.5 2 13 10 q7.5 8 18.5 13.5 q11 5.5 18 10.5 q7 5 14.5 9.5 q7.5 4.5 15.5 8.5 q19 9 24 8 q5 -1 14 -7 q13 10 28 3.5 q15 -6.5 23.5 -8 q8.5 -1.5 16.5 -8.5 q34 -25 43.5 -25.5 q9.5 -0.5 24.5 -5.5 Z" /><glyph glyph-name="uni00A0" unicode="" d="" /><glyph glyph-name="exclamdown" unicode="" d="M47 418 l2 71 q0 69 29 92 q18 13 33 10.5 q15 -2.5 23 -10.5 q7 -9 7.5 -21 q0.5 -12 5.5 -34.5 q5 -22.5 11.5 -45 q6.5 -22.5 4.5 -48.5 q-2 -26 -2.5 -49 q-0.5 -23 8.5 -34 q12 -15 12 -34 q0 -12 -3 -21 q-10 -26 -10 -46 q0 -20 1 -29 q3 -24 5.5 -42.5 q2.5 -18.5 0.5 -41 q-2 -22.5 0 -45.5 q2 -23 2.5 -37 q0.5 -14 -5 -29 q-5.5 -15 -8 -20.5 q-2.5 -5.5 -5.5 -9.5 q-4 -5 -15 -11 q-11 -6 -15 -9 q-4 -3 -11 -1.5 q-7 1.5 -15 10 q-8 8.5 -19 13.5 q-11 5 -25.5 12 q-14.5 7 -17 22.5 q-2.5 15.5 -3.5 18.5 q-1 3 -2 5 q-3 4 -5 26.5 q-2 22.5 3.5 45 q5.5 22.5 6 37.5 q0.5 15 5.5 30.5 q5 15.5 3.5 32 q-1.5 16.5 -0.5 24.5 q1 8 2.5 14.5 q1.5 6.5 1.5 13.5 q0 7 -3.5 22 q-3.5 15 -3 26.5 q0.5 11.5 -1 25 q-1.5 13.5 0 27 q1.5 13.5 1.5 39.5 ZM172 708 q3 -7 1.5 -15 q-1.5 -8 -11 -16.5 q-9.5 -8.5 -19.5 -16 q-10 -7.5 -22 -12.5 q-25 -12 -47.5 -9.5 q-22.5 2.5 -29.5 8.5 q-7 6 -12 14 q-9 18 -6 29.5 q3 11.5 10 20 q7 8.5 16 15.5 q18 12 33 15 q7 1 14 6 q11 8 22.5 5.5 q11.5 -2.5 15.5 -12 q4 -9.5 12 -12.5 q8 -3 14 -8 q6 -5 9 -12 Z" /><glyph glyph-name="cent" unicode="" d="M262 580 q26 3 44 -6.5 q18 -9.5 23 -17.5 q5 -8 17 -25.5 q12 -17.5 16.5 -32 q4.5 -14.5 -1 -23.5 q-5.5 -9 -10.5 -20.5 q-5 -11.5 -11 -18 q-6 -6.5 -23 -8.5 q-17 -2 -23 7 q-6 9 -7 15 q-3 14 -17 18 q-8 2 -10.5 4 q-2.5 2 -7.5 4 l-4 0 q-14 -86 -8 -121 q5 -33 -5 -64 q-15 -47 -22 -86 q6 2 16.5 5 q10.5 3 12.5 6.5 q2 3.5 6 5 q4 1.5 8.5 6 q4.5 4.5 9.5 8.5 q12 12 25 10.5 q13 -1.5 18 -8 q5 -6.5 8 -14.5 q7 -19 4 -27 q-5 -5 -10.5 -14.5 q-5.5 -9.5 -11 -11.5 q-5.5 -2 -9 -8 q-3.5 -6 -9 -6 q-5.5 0 -10.5 -5.5 q-5 -5.5 -10 -4.5 q-7 1 -63 -11 q-3 -10 -5.5 -30.5 q-2.5 -20.5 -5.5 -41.5 q-8 -55 -16 -64 q-8 -9 -15.5 -9 q-7.5 0 -15.5 3 q-18 9 -20 20 q-4 18 -1 29 q9 4 11.5 13 q2.5 9 1.5 26.5 q-1 17.5 -1 33.5 q0 16 1 28 q-2 2 -3.5 4 q-1.5 2 -6.5 8 q-5 6 -13 11.5 q-8 5.5 -13 13.5 q-23 3 -42 31 q-13 19 -15.5 34.5 q-2.5 15.5 -6 23.5 q-3.5 8 -6 19.5 q-2.5 11.5 -5.5 19 q-3 7.5 -6 17.5 q-11 34 -1 95 q7 45 28 72 q12 12 25 22 q13 10 17 15 q4 5 5 12.5 q1 7.5 4.5 10.5 q3.5 3 8.5 5 q12 6 16 14 q8 18 55 16 q11 -1 16 -2 q11 32 11.5 69 q0.5 37 7 55 q6.5 18 15 28 q8.5 10 18 8.5 q9.5 -1.5 12.5 -6 q3 -4.5 10.5 -6.5 q7.5 -2 13.5 -15 q6 -13 1.5 -33 q-4.5 -20 -6 -44.5 q-1.5 -24.5 -5.5 -33.5 q-5 -10 -5 -28 ZM91 318 q12 -62 27 -69 q6 -3 10 -7 l3 -5 q1 7 1.5 14.5 q0.5 7.5 2.5 17 q2 9.5 4 14 q2 4.5 5 8.5 q6 10 11 66 q5 56 9 80 q4 24 5 33.5 q1 9.5 3 17.5 q-16 -6 -36 -27.5 q-20 -21.5 -26.5 -25 q-6.5 -3.5 -9 -10.5 q-2.5 -7 3.5 -13.5 q6 -6.5 6 -17.5 q0 -11 -10 -24 q-12 -17 -9 -52 Z" /><glyph glyph-name="sterling" unicode="" d="M73 541 q-5 3 -5 11 q-2 28 7.5 42 q9.5 14 15 28 q5.5 14 14.5 19 q6 3 9 6 q5 7 13.5 8.5 q8.5 1.5 15 8.5 q6.5 7 17.5 10.5 q11 3.5 22.5 10 q11.5 6.5 25.5 2.5 q6 4 16 3.5 q10 -0.5 13 -5.5 q3 9 17.5 2.5 q14.5 -6.5 20.5 -6 q6 0.5 14 -7.5 q11 0 13 -8 q17 -6 32 -38 q14 -28 12 -41 q-2 -13 1 -15 q3 -2 9 -10 q21 -26 12 -38 q-3 -5 -1.5 -8.5 q1.5 -3.5 -0.5 -8.5 q-2 -5 -6 -10 q-12 -13 -23 -11 q-5 -8 -21.5 -13.5 q-16.5 -5.5 -32 -0.5 q-15.5 5 -18.5 9.5 q-3 4.5 -4 9.5 q-1 5 -2 10 q-1 5 -8 9.5 q-7 4.5 -10 8.5 q-3 4 -5 7 q-3 7 -12 9.5 q-9 2.5 -16 -1 q-7 -3.5 -14 -6.5 q-4 -10 -9.5 -17 q-5.5 -7 -5.5 -13.5 q0 -6.5 2 -16 q2 -9.5 -1 -19 q-3 -9.5 0.5 -29 q3.5 -19.5 5.5 -33.5 q2 -14 3 -15 q30 -2 53 0 q23 2 34 2 q30 -3 27 -40 q-3 -30 -39 -25 q-10 2 -20 6 q-17 6 -49 -3 q0 -21 -4.5 -37 q-4.5 -16 -3 -20 q1.5 -4 -2 -9 q-3.5 -5 -4.5 -16 q-1 -11 -10 -15 q-1 -12 -8.5 -26.5 q-7.5 -14.5 -16.5 -16.5 q-1 -5 -1 -15.5 q0 -10.5 10 -9.5 q24 0 42 7 q18 7 23 11 q6 8 29 13 q23 5 49.5 0 q26.5 -5 38 -14.5 q11.5 -9.5 5.5 -19.5 q2 -11 7 -29 q5 -18 2.5 -25 q-2.5 -7 -7.5 -16 q-5 -9 -13 -17 q-20 -22 -43 -17 q-13 3 -23 15 q-10 12 -16 17 q-6 5 -18 4.5 q-12 -0.5 -24.5 -7 q-12.5 -6.5 -22.5 -13.5 q-28 -18 -36 -17 q-7 1 -12.5 4 q-5.5 3 -12.5 4 q-16 1 -43 -11 q-17 1 -29 19.5 q-12 18.5 -14 39.5 q-2 21 -5 29.5 q-3 8.5 -5 14.5 q-8 26 9 42 q8 7 17 14 q36 30 36 58 q0 3 -0.5 7 q-0.5 4 1 13 q1.5 9 3.5 15 q2 6 0.5 13 q-1.5 7 -1.5 10 q-54 -12 -77 -6 q-19 8 -24 30 q-4 21 10 33 q6 6 12 5.5 q6 -0.5 14.5 -2 q8.5 -1.5 22 -1.5 q13.5 0 35.5 7 q-5 20 -5 33.5 q0 13.5 -2 20 q-2 6.5 -5 12.5 q-27 55 0 85 Z" /><glyph glyph-name="currency" unicode="" d="M287 500 q18 18 29 17 q28 -4 20 -28 q-2 -6 -6 -9 q-4 -3 -8 -6 q-12 -9 -17.5 -23.5 q-5.5 -14.5 -9.5 -21.5 q14 -27 9.5 -46.5 q-4.5 -19.5 -2 -27 q2.5 -7.5 -6.5 -14.5 q-3 -13 -2.5 -18.5 q0.5 -5.5 -6.5 -17.5 q23 -28 34.5 -36.5 q11.5 -8.5 15.5 -16 q4 -7.5 -2 -17 q-6 -9.5 -20 -13.5 q-22 -5 -39 27 q-3 5 -5 5.5 q-2 0.5 -9 2.5 q-36 -28 -71 -31 q-63 -5 -85 10 q-7 6 -13 11 q-24 -19 -31.5 -32 q-7.5 -13 -15 -14.5 q-7.5 -1.5 -19.5 1 q-12 2.5 -15 9 q-3 6.5 -1 20.5 q2 14 7 17 q25 17 35 36 q-5 7 -6 8.5 q-1 1.5 0 10.5 q1 9 -2.5 14 q-3.5 5 -2 14 q1.5 9 -1 14.5 q-2.5 5.5 -5.5 11.5 q-6 16 -2 32 q10 42 18.5 51 q8.5 9 4.5 20 q-5 5 -11.5 10 q-6.5 5 -13.5 18.5 q-7 13.5 -6.5 20 q0.5 6.5 5.5 15 q5 8.5 12.5 5 q7.5 -3.5 12.5 -3.5 q16 0 26 -19 q3 -7 10 -11 q7 -4 12 -7 q18 6 37 17.5 q19 11.5 37.5 11.5 q18.5 0 26.5 -0.5 q8 -0.5 17 -8.5 q9 -8 13.5 -7.5 q4.5 0.5 9.5 -5.5 q5 -6 6.5 -7.5 q1.5 -1.5 2.5 -3.5 q3 -2 8 -12 l13 13 q7 7 12 15 ZM200 431 q-5 15 -21 12.5 q-16 -2.5 -28.5 -12 q-12.5 -9.5 -14.5 -12.5 q-2 -3 -3.5 -6 q-1.5 -3 -2.5 -7 q-1 -4 -7 -13 q-7 -11 -9 -31 q-2 -20 1.5 -25.5 q3.5 -5.5 7.5 -13 q4 -7.5 10.5 -9.5 q6.5 -2 11 -6.5 q4.5 -4.5 8 -4.5 q3.5 0 10 -4 q6.5 -4 14.5 -3.5 q8 0.5 12.5 0.5 q4.5 0 7.5 3.5 q3 3.5 8 5.5 q5 2 4.5 5 q-0.5 3 6.5 6.5 q7 3.5 7 8.5 q0 5 3 13 q10 19 4 35 q-6 16 -8 23.5 q-2 7.5 -8.5 12.5 q-6.5 5 -8.5 10 q-2 5 -5 12 Z" /><glyph glyph-name="yen" unicode="" d="M200 482 q22 22 22 39 q2 40 15 57.5 q13 17.5 15 24.5 q2 7 2 16 q0 9 7 20 q7 11 6 21 q-1 10 2 16.5 q3 6.5 5 14.5 q3 8 14.5 11.5 q11.5 3.5 21.5 -1.5 q12 -6 30 -1.5 q18 4.5 32 0.5 q23 -6 16 -40 q-3 -16 -17.5 -38.5 q-14.5 -22.5 -20 -47 q-5.5 -24.5 -15 -38 q-9.5 -13.5 -15 -30.5 q-5.5 -17 -12.5 -38 q-18 -55 -42 -80 q84 24 98 10 q4 -3 3 -9 q-1 -6 0 -8 q1 -2 8 -3 q-3 -5 -3 -11.5 q0 -6.5 2 -8.5 q-13 -8 -30 -9 q-17 -1 -39.5 0 q-22.5 1 -45.5 -7 q0 -36 -2 -76 q8 -1 17.5 -3 q9.5 -2 29.5 -1 q20 1 34 1 q14 0 22.5 -8.5 q8.5 -8.5 3 -23 q-5.5 -14.5 -16.5 -19 q-11 -4.5 -19 -2.5 q-8 2 -16 1 q-8 -1 -13.5 0.5 q-5.5 1.5 -10 0.5 q-4.5 -1 -9 0.5 q-4.5 1.5 -9.5 2.5 q-10 2 -17 -9 q0 -16 3 -36 q5 -45 -6 -60 q-5 -9 -5.5 -16 q-0.5 -7 -2 -14 q-1.5 -7 -3.5 -14.5 q-2 -7.5 -7 -14.5 q-10 -17 -28 -16.5 q-18 0.5 -25 5.5 q-7 5 -10.5 11 q-3.5 6 -4.5 11.5 q-1 5.5 -4 8 q-3 2.5 -4 9 q-1 6.5 -0.5 15 q0.5 8.5 1.5 17.5 q1 9 0 16 q0 7 -4 13 q-4 6 -7 11 q-11 16 -9 26 q3 14 3 24 q-7 12 -20 10 q-13 -2 -17.5 -1 q-4.5 1 -9 -6.5 q-4.5 -7.5 -19.5 -11.5 q-15 -4 -25.5 1 q-10.5 5 -17 11 q-6.5 6 -5.5 20.5 q1 14.5 14 26 q13 11.5 32.5 12 q19.5 0.5 27.5 -0.5 q8 -1 15 -1 q14 -2 30 2 q2 22 2 41.5 q0 19.5 -2 36.5 q-54 16 -73 2 q-36 -25 -50 -4 q-19 28 -2 47 q10 11 27 16 q17 5 36 -7 q10 8 39 6 l4 0 q-8 13 -14.5 23.5 q-6.5 10.5 -7.5 18.5 q-5 25 -15 25 q0 8 -3.5 11.5 q-3.5 3.5 -4.5 14.5 q-1 11 -9 17.5 q-8 6.5 -11 21.5 q-4 23 -15 40.5 q-11 17.5 -17 28 q-6 10.5 -11 22.5 q-12 29 -5 46 q6 16 31 19 q10 2 19.5 3 q9.5 1 18.5 6 q9 5 15.5 1 q6.5 -4 22.5 -8 q41 -10 39 -68 q-2 -42 8 -60 q13 -25 16 -37 q6 -24 10 -30 q5 -8 7 -15 Z" /><glyph glyph-name="brokenbar" unicode="" d="M43 736 q1 5 10.5 12.5 q9.5 7.5 30 6.5 q20.5 -1 27.5 -10 q7 -9 11 -12 q4 -3 6 -6 q5 -7 0 -24 q-4 -13 0 -19 q6 -12 4 -36.5 q-2 -24.5 -2 -40.5 q0 -16 2 -32.5 q2 -16.5 1 -28.5 q-1 -12 -11 -30 q-10 -18 -10 -27.5 q0 -9.5 2.5 -17.5 q2.5 -8 5.5 -17 q12 -28 -14 -38 q-35 -15 -64 7 q-15 11 -15 33 q0 22 4 46.5 q4 24.5 8 49.5 q12 76 -1 132 q-3 13 5 52 ZM36 194 q-1 12 -3 28.5 q-2 16.5 -2 32.5 q0 38 14 50 q20 15 34 16 q14 1 19 -3 q22 -14 25 -28 q3 -14 1.5 -27 q-1.5 -13 -3.5 -28 q-6 -43 -1.5 -72 q4.5 -29 8 -51.5 q3.5 -22.5 3 -35 q-0.5 -12.5 -3.5 -26 q-3 -13.5 -9 -26.5 q-14 -32 -36 -35 q-22 -3 -34.5 7 q-12.5 10 -17.5 28 q-11 39 5 85 q12 37 9.5 48.5 q-2.5 11.5 -5 18 q-2.5 6.5 -3.5 18.5 Z" /><glyph glyph-name="section" unicode="" d="M270 230 q16 -35 36 -63 q39 -54 -7 -103 q-6 -7 -11 -12 q-2 -32 -25 -58 q-10 -12 -18 -23 q-8 -11 -19 -17 q-23 -15 -62 -5 q-14 -8 -21 -7.5 q-7 0.5 -14.5 -5.5 q-7.5 -6 -17.5 -8.5 q-10 -2.5 -14.5 -5 q-4.5 -2.5 -18 1.5 q-13.5 4 -24.5 6 q-11 3 -17 23.5 q-6 20.5 -6.5 45 q-0.5 24.5 6.5 45.5 q7 21 23 23 q45 7 63 16 q40 22 37 59 q-5 44 -40 51 q-9 2 -19.5 3 q-10.5 1 -18 8.5 q-7.5 7.5 -12.5 17.5 q-5 10 -9.5 19.5 q-4.5 9.5 -14 17 q-9.5 7.5 -19 23 q-9.5 15.5 -4.5 34 q5 18.5 4.5 36.5 q-0.5 18 6.5 30.5 q7 12.5 9.5 27.5 q2.5 15 14.5 22 q12 7 14 17 q2 10 4 17 q-16 26 -29 31 q-9 4 -13.5 20.5 q-4.5 16.5 -7 26 q-2.5 9.5 -6.5 15.5 q-13 23 6 76 q3 9 3 17 l0 14 q0 16 6 23 q4 5 8 13 q4 8 9 16 q10 17 25.5 15 q15.5 -2 35.5 9.5 q20 11.5 34 20 q14 8.5 29 16 q15 7.5 28 6.5 q13 -1 20.5 0.5 q7.5 1.5 14 3 q6.5 1.5 13 1.5 q6.5 0 12.5 -4 q5 -2 8 -10.5 q3 -8.5 16 -26.5 q13 -18 23.5 -41 q10.5 -23 -4.5 -40 q-24 -27 -43 -20 q-8 3 -14.5 7 q-6.5 4 -12.5 1.5 q-6 -2.5 -9 -7.5 l-5 -11 q-7 -15 -14 -15 q-5 0 -13 1 q-8 1 -16 0 q-22 -2 -31 -23 q-9 -21 0.5 -41.5 q9.5 -20.5 41.5 -37 q32 -16.5 38 -21.5 q6 -5 8 -8 q3 -4 23 -8 q25 -5 32 -10.5 q7 -5.5 11 -9.5 q4 -4 11 -7 q20 -11 33.5 -39 q13.5 -28 12.5 -63 q-1 -35 -14 -53.5 q-13 -18.5 -21 -23.5 q-5 -14 -20 -28.5 q-15 -14.5 -35 -20.5 ZM222 308 q5 17 2.5 29 q-2.5 12 -18.5 18 q-25 9 -46 30 q-11 -5 -18.5 -17 q-7.5 -12 -6 -25.5 q1.5 -13.5 10.5 -25.5 q9 -12 20 -23 q25 -23 36 -22.5 q11 0.5 13 10 q2 9.5 7 26.5 Z" /><glyph glyph-name="dieresis" unicode="" d="M83 697 q2 23 17 39 q15 16 27.5 16.5 q12.5 0.5 23 -3 q10.5 -3.5 19.5 -10.5 q23 -18 21 -44 q0 -27 -23 -44 q-19 -15 -39 -10 q-20 5 -34 19 q-14 14 -12 37 ZM374 669.5 q-11 -7.5 -25 -18 q-14 -10.5 -34 -12 q-20 -1.5 -28.5 10 q-8.5 11.5 -9 11.5 q-0.5 0 -5.5 5 q-5 5 -5 15.5 q0 10.5 -3.5 15 q-3.5 4.5 3.5 17 q7 12.5 12 16 q5 3.5 9.5 8 q4.5 4.5 11.5 8.5 q42 22 68 -23 q4 -6 9.5 -12 q5.5 -6 6.5 -20 q1 -14 -10 -21.5 Z" /><glyph glyph-name="copyright" unicode="" d="M497 500 l-4 -48 q0 -13 -4.5 -28 q-4.5 -15 -4.5 -29 q0 -14 -14 -25 q-9 -9 -12 -14 q-5 -8 -11 -10.5 q-6 -2.5 -10.5 -8.5 q-4.5 -6 -15.5 -9 q-11 -3 -15.5 -13 q-4.5 -10 -7.5 -14 q-3 -4 -5.5 -11 q-2.5 -7 -6.5 -15 q-9 -21 -16 -23.5 q-7 -2.5 -11.5 -7 q-4.5 -4.5 -10.5 -8.5 q-12 -7 -34 -1 q-22 6 -36 4.5 q-14 -1.5 -26.5 0.5 q-12.5 2 -18.5 -0.5 q-6 -2.5 -11 -5.5 q-26 -17 -56 13 q-21 2 -34 9 q-16 8 -46 38 q-14 11 -17 19 q-6 13 -14 21 q-8 8 -11 22 q-7 33 -16.5 47.5 q-9.5 14.5 -9.5 33.5 q0 19 -5 35 q-5 16 -3.5 27.5 q1.5 11.5 3 22.5 q1.5 11 4.5 22 q7 27 20 40 q22 21 29 32 q18 41 30.5 53.5 q12.5 12.5 25 23.5 q12.5 11 28.5 21 q38 26 74 22 q12 12 32.5 12.5 q20.5 0.5 30.5 -9.5 q10 -10 17.5 -11 q7.5 -1 15 0 q7.5 1 15 2 q7.5 1 18.5 -1.5 q11 -2.5 27 -12 q16 -9.5 22 -23.5 q6 -14 12 -20 q6 -6 12 -13 q19 -22 24.5 -36 q5.5 -14 9 -19 q3.5 -5 6.5 -10 q8 -11 13 -28 q4 -15 9 -21 q7 -9 7 -22 l2 -24 ZM134 633 q-1 -2 -3 -4.5 q-2 -2.5 -10.5 -10.5 q-8.5 -8 -13 -22 q-4.5 -14 -8 -24.5 q-3.5 -10.5 -7 -19 q-3.5 -8.5 -6.5 -16.5 q-9 -21 -8 -30 q1 -9 -1 -25.5 q-2 -16.5 2.5 -28.5 q4.5 -12 1.5 -25.5 q-3 -13.5 5.5 -22.5 q8.5 -9 11.5 -16.5 q3 -7.5 5 -15.5 q5 -19 15 -28 q10 -9 15.5 -22.5 q5.5 -13.5 16.5 -16.5 q11 -3 20 -10 q9 -7 30.5 -9.5 q21.5 -2.5 33.5 1 q12 3.5 31 -1.5 q19 -5 31 -3 q12 2 23 12.5 q11 10.5 22 19 q11 8.5 23 18.5 q33 26 40 35 q14 14 18 33.5 q4 19.5 6 32 q2 12.5 4 18 q2 5.5 4 11.5 q3 11 1 30 q-1 11 -1 16 q0 5 1 9.5 q1 4.5 3 10.5 q6 22 -2.5 36 q-8.5 14 -19.5 25 q-11 11 -22.5 21.5 q-11.5 10.5 -21.5 22.5 q-10 12 -26.5 18 q-16.5 6 -30 12 q-13.5 6 -22.5 13 q-9 7 -23.5 9 q-14.5 2 -25 1 q-10.5 -1 -30 -9.5 q-19.5 -8.5 -30 -9.5 q-10.5 -1 -18.5 -7.5 q-8 -6.5 -17.5 -8 q-9.5 -1.5 -12 -6.5 q-2.5 -5 -3 -7.5 q-0.5 -2.5 -1.5 -4.5 ZM270 618 l22 -6 l7 0 q6 0 18 -3 q31 -8 37 -35 q3 -8 1 -14 q-4 -13 -2.5 -22 q1.5 -9 -3.5 -20.5 q-5 -11.5 -10.5 -13 q-5.5 -1.5 -12 -2 q-6.5 -0.5 -14.5 -0.5 q-22 0 -32 6 q-10 6 -10 11 q-5 26 -21 29 q-11 1 -20 -12.5 q-9 -13.5 -8 -26.5 q1 -13 -0.5 -19 q-1.5 -6 -3.5 -12 q-6 -15 -3 -33 q6 -36 26 -47 q31 -15 60 4 q8 6 16 12 q19 14 26 14 q15 0 19 -8 q4 -8 5.5 -17 q1.5 -9 0.5 -17 q-2 -21 -19 -21 q-18 1 -24.5 -5.5 q-6.5 -6.5 -12.5 -9.5 q-6 -3 -10.5 -6.5 q-4.5 -3.5 -12.5 -5.5 q-18 -5 -42.5 0 q-24.5 5 -37.5 14.5 q-13 9.5 -26 20.5 q-22 -5 -36 17 q-8 15 -12.5 30.5 q-4.5 15.5 2.5 33.5 q7 18 8 26.5 q1 8.5 1 15.5 q0 7 0 14 q0 7 3 15.5 q3 8.5 3.5 16.5 q0.5 8 2.5 14 q3 17 12 20 q9 3 8.5 7.5 q-0.5 4.5 6.5 7 q7 2.5 11.5 7 q4.5 4.5 10.5 8.5 q15 12 44 10 l23 2 Z" /><glyph glyph-name="ordfeminine" unicode="" d="M284 324.5 q-1 -11.5 -5 -18 q-4 -6.5 -15 -12.5 q-11 -6 -17.5 -0.5 q-6.5 5.5 -19.5 23.5 q-88 -58 -137.5 -44.5 q-49.5 13.5 -70 47.5 q-20.5 34 -0.5 76 q16 33 74 46 q22 5 41.5 6 q19.5 1 28.5 4 q9 3 14.5 13.5 q5.5 10.5 4.5 21.5 q-1 11 -8.5 20 q-7.5 9 -19.5 9.5 q-12 0.5 -16 -4 q-4 -4.5 -7 -10.5 q-3 -6 -6 -12 q-3 -6 -9.5 -9 q-6.5 -3 -21 -5.5 q-14.5 -2.5 -30.5 -0.5 q-58 7 -51 61 q4 34 35 64 q16 15 42 23.5 q26 8.5 45.5 15 q19.5 6.5 34.5 9.5 q52 8 88 -44 q15 -21 17.5 -36 q2.5 -15 3 -30.5 q0.5 -15.5 0.5 -34.5 l0 -42 q0 -23 1.5 -54.5 q1.5 -31.5 3 -51 q1.5 -19.5 0.5 -31 ZM165.5 418 q-9.5 1 -27 -3.5 q-17.5 -4.5 -22 -12.5 q-4.5 -8 -3 -16 q1.5 -8 6.5 -16 q11 -19 23 -19 q16 0 30 9 q28 16 26 27.5 q-2 11.5 -13 20.5 q-11 9 -20.5 10 Z" /><glyph glyph-name="guillemotleft" unicode="" d="M368 422 q22 2 22 -22 q1 -5 -7 -16.5 q-8 -11.5 -7 -19.5 q-16 -20 -27 -34.5 q-11 -14.5 -19 -23.5 l-15 -18 q-7 -9 -17.5 -21 q-10.5 -12 -19.5 -25 q-23 -29 -22.5 -41 q0.5 -12 6 -25 q5.5 -13 12.5 -26 q16 -24 28.5 -37.5 q12.5 -13.5 12.5 -20 q0 -6.5 8.5 -12.5 q8.5 -6 21.5 -21.5 q13 -15.5 15.5 -32 q2.5 -16.5 1 -19.5 q-1.5 -3 -1.5 -9.5 q0 -6.5 -9.5 -9.5 q-9.5 -3 -16 5.5 q-6.5 8.5 -14.5 16.5 l-15 15 q-25 18 -52 63 q-8 12 -28.5 31 q-20.5 19 -32.5 37.5 q-12 18.5 -20 27.5 q-8 9 -6.5 25 q1.5 16 18 30.5 q16.5 14.5 29 25.5 q12.5 11 23.5 28 q11 17 27 33 q17 14 38 31.5 q21 17.5 38 40.5 q17 23 29 24 ZM227 377 q-7 -4 -9 -11.5 q-2 -7.5 -10.5 -11.5 q-8.5 -4 -9 -9 q-0.5 -5 -9.5 -12 q-26 -21 -29 -31 q-2 -8 -11 -14.5 q-9 -6.5 -19 -15.5 q-16 -13 -26 -32 q-10 -19 -15 -28 q-5 -9 2.5 -18 q7.5 -9 10 -21 q2.5 -12 12.5 -19.5 q10 -7.5 13 -11 q3 -3.5 6 -7.5 q7 -9 19.5 -19.5 q12.5 -10.5 18 -16 q5.5 -5.5 8.5 -10.5 q3 -5 5.5 -10.5 q2.5 -5.5 6.5 -13 q4 -7.5 13 -16.5 q9 -9 18 -19 q22 -23 15 -32.5 q-7 -9.5 -16.5 -10.5 q-9.5 -1 -20.5 3 q-25 7 -35 22.5 q-10 15.5 -18.5 23 q-8.5 7.5 -16.5 13.5 q-21 16 -22 21 q-5 9 -7.5 16.5 q-2.5 7.5 -16.5 14 q-14 6.5 -33.5 23.5 q-19.5 17 -28 33 q-8.5 16 -12.5 22 q-4 6 -5 12 q-1 9 6 31 q2 6 9.5 14 q7.5 8 16 23 q8.5 15 12 19.5 q3.5 4.5 7 7.5 q3.5 3 8 5.5 q4.5 2.5 15 14.5 q10.5 12 28 27 q17.5 15 28.5 26 q11 11 20.5 17 q9.5 6 16.5 19 q9 18 33 27 q2 0 6 2.5 q4 2.5 9 3.5 q11 4 16 -4 q9 -16 3.5 -29.5 q-5.5 -13.5 -12.5 -17.5 Z" /><glyph glyph-name="logicalnot" unicode="" d="M372 409 l66 6 q22 0 35 -1.5 q13 -1.5 42 -0.5 q29 1 43 -7.5 q14 -8.5 19.5 -8.5 q5.5 0 11 1.5 q5.5 1.5 11 3 q5.5 1.5 11.5 1.5 q11 0 19 -17 q2 -4 10 -6.5 q8 -2.5 10.5 -8.5 q2.5 -6 7.5 -11.5 q5 -5.5 8.5 -18.5 q3.5 -13 -1.5 -18.5 q-5 -5.5 -4.5 -7.5 q0.5 -2 0.5 -5 q0 -8 -7.5 -18.5 q-7.5 -10.5 -9 -15.5 q-1.5 -5 -1.5 -9 q0 -4 0 -8 q0 -4 -2 -10.5 q-2 -6.5 -2.5 -11.5 q-0.5 -5 0.5 -10.5 q1 -5.5 3 -12.5 l3 -18 q4 -21 -1 -28 q-5 -7 -13 -17 q-8 -10 -19.5 -9.5 q-11.5 0.5 -22.5 1.5 q-29 3 -41 63 q-6 27 1 52 q7 25 9.5 35 q2.5 10 -1.5 17 q-8 15 -24 15 q-16 0 -29 -3.5 q-13 -3.5 -18.5 -3 q-5.5 0.5 -11.5 1.5 q-17 3 -34 1 q-17 -2 -26.5 1.5 q-9.5 3.5 -21 1.5 q-11.5 -2 -18.5 0.5 q-7 2.5 -16 -0.5 q-9 -3 -16 -3 q-17 0 -30 0 q-13 0 -22.5 -2.5 q-9.5 -2.5 -14.5 -2 q-5 0.5 -9 1.5 q-10 4 -23 1 q-13 -3 -18.5 -2 q-5.5 1 -9.5 3 q-9 5 -22.5 3 q-13.5 -2 -21.5 -0.5 q-8 1.5 -15 3.5 q-7 2 -14 2 q-7 0 -16 -5.5 q-9 -5.5 -15 -6 q-6 -0.5 -11 1.5 q-13 4 -30 -1 q-32 -8 -42 12 q-13 2 -16 35 q0 7 -2 10 q2 2 10 12.5 q8 10.5 13.5 15 q5.5 4.5 14 6.5 q8.5 2 17 1.5 q8.5 -0.5 16.5 -1.5 q8 -1 16.5 1.5 q8.5 2.5 15 3.5 q6.5 1 12.5 1 q6 0 12.5 -2 q6.5 -2 14 -5 q7.5 -3 14.5 -2.5 q7 0.5 16 1.5 q22 2 39 -3 q17 -5 20.5 -4 q3.5 1 6.5 4 q7 7 20 8 q13 1 17.5 -0.5 q4.5 -1.5 6.5 -2.5 q7 -4 17 -1 q10 3 19 3 l44 -1 Z" /><glyph glyph-name="sfthyphen" unicode="" d="M14 309 q-19 19 -2 51 q20 40 68 29 q34 -8 57.5 -3.5 q23.5 4.5 30.5 0.5 q7 -4 12.5 -3 q5.5 1 13.5 3 q24 6 52 6 q19 0 37.5 1.5 q18.5 1.5 34.5 2.5 q39 2 53 -4 q20 -12 22 -30 q4 -34 -18 -47 q-22 -13 -36.5 -11.5 q-14.5 1.5 -26 7.5 q-11.5 6 -20 13 q-8.5 7 -14 7 q-5.5 0 -9.5 -3 q-4 -3 -9 -7 q-13 -9 -32 -9 q-19 0 -25 -1.5 q-6 -1.5 -11 -4.5 q-11 -5 -28 -5 q-18 0 -31 0 q-18 0 -46 1.5 q-28 1.5 -44.5 -0.5 q-16.5 -2 -28.5 7 Z" /><glyph glyph-name="registered" unicode="" d="M497 500 l-4 -48 q0 -13 -4.5 -28 q-4.5 -15 -4.5 -29 q0 -14 -14 -25 q-9 -9 -12 -14 q-5 -8 -11 -10.5 q-6 -2.5 -10.5 -8.5 q-4.5 -6 -15.5 -9 q-11 -3 -15.5 -13 q-4.5 -10 -7.5 -14 q-3 -4 -5.5 -11 q-2.5 -7 -6.5 -15 q-9 -21 -16 -23.5 q-7 -2.5 -11.5 -7 q-4.5 -4.5 -10.5 -8.5 q-12 -7 -34 -1 q-22 6 -36 4.5 q-14 -1.5 -26.5 0.5 q-12.5 2 -18.5 -0.5 q-6 -2.5 -11 -5.5 q-26 -17 -56 13 q-21 2 -34 9 q-16 8 -46 38 q-14 11 -17 19 q-6 13 -14 21 q-8 8 -11 22 q-7 33 -16.5 47.5 q-9.5 14.5 -9.5 33.5 q0 19 -5 35 q-5 16 -3.5 27.5 q1.5 11.5 3 22.5 q1.5 11 4.5 22 q7 27 20 40 q22 21 29 32 q18 41 30.5 53.5 q12.5 12.5 25 23.5 q12.5 11 28.5 21 q38 26 74 22 q12 12 32.5 12.5 q20.5 0.5 30.5 -9.5 q10 -10 17.5 -11 q7.5 -1 15 0 q7.5 1 15 2 q7.5 1 18.5 -1.5 q11 -2.5 27 -12 q16 -9.5 22 -23.5 q6 -14 12 -20 q6 -6 12 -13 q19 -22 24.5 -36 q5.5 -14 9 -19 q3.5 -5 6.5 -10 q8 -11 13 -28 q4 -15 9 -21 q7 -9 7 -22 l2 -24 ZM134 633 q-1 -2 -3 -4.5 q-2 -2.5 -10.5 -10.5 q-8.5 -8 -13 -22 q-4.5 -14 -8 -24.5 q-3.5 -10.5 -7 -19 q-3.5 -8.5 -6.5 -16.5 q-9 -21 -8 -30 q1 -9 -1 -25.5 q-2 -16.5 2.5 -28.5 q4.5 -12 1.5 -25.5 q-3 -13.5 5.5 -22.5 q8.5 -9 11.5 -16.5 q3 -7.5 5 -15.5 q5 -19 15 -28 q10 -9 15.5 -22.5 q5.5 -13.5 16.5 -16.5 q11 -3 20 -10 q9 -7 30.5 -9.5 q21.5 -2.5 33.5 1 q12 3.5 31 -1.5 q19 -5 31 -3 q12 2 23 12.5 q11 10.5 22 19 q11 8.5 23 18.5 q33 26 40 35 q14 14 18 33.5 q4 19.5 6 32 q2 12.5 4 18 q2 5.5 4 11.5 q3 11 1 30 q-1 11 -1 16 q0 5 1 9.5 q1 4.5 3 10.5 q6 22 -2.5 36 q-8.5 14 -19.5 25 q-11 11 -22.5 21.5 q-11.5 10.5 -21.5 22.5 q-10 12 -26.5 18 q-16.5 6 -30 12 q-13.5 6 -22.5 13 q-9 7 -23.5 9 q-14.5 2 -25 1 q-10.5 -1 -30 -9.5 q-19.5 -8.5 -30 -9.5 q-10.5 -1 -18.5 -7.5 q-8 -6.5 -17.5 -8 q-9.5 -1.5 -12 -6.5 q-2.5 -5 -3 -7.5 q-0.5 -2.5 -1.5 -4.5 ZM168 605 q19 32 58 16 q14 -5 27 -1 q33 11 63 -10 q5 -3 8 -7 q3 -4 9 -5.5 q6 -1.5 7.5 -3 q1.5 -1.5 1.5 -4.5 q2 -8 8 -15 q15 -17 6 -43 q-2 -8 -1 -14 q3 -16 -13 -28 q-2 -2 -4 -2 q-7 -3 -16 -32 q-2 -8 2 -17 q4 -9 6.5 -11.5 q2.5 -2.5 5.5 -3.5 q6 -4 7.5 -13 q1.5 -9 4.5 -16 q3 -7 0.5 -15 q-2.5 -8 0 -19.5 q2.5 -11.5 -5 -15 q-7.5 -3.5 -14 -3 q-6.5 0.5 -11.5 2.5 q-14 5 -12 16 q-11 16 -12 27.5 q-1 11.5 -6 19 q-5 7.5 -16 13 q-11 5.5 -21.5 -4 q-10.5 -9.5 -12.5 -18.5 q-2 -9 -2.5 -18 q-0.5 -9 -0.5 -17.5 q0 -8.5 -4 -14.5 q-4 -6 -13.5 -10 q-9.5 -4 -19.5 -4 q-25 0 -28.5 21.5 q-3.5 21.5 -2.5 44 q1 22.5 3 44.5 q8 89 -4 99 q-10 9 -8.5 28.5 q1.5 19.5 10.5 33.5 ZM233 475 q7 -12 24.5 -9.5 q17.5 2.5 26 17 q8.5 14.5 8.5 23.5 q0 28 -10.5 35.5 q-10.5 7.5 -26.5 8.5 q-16 1 -22 -8.5 q-6 -9.5 -7.5 -18.5 q-1.5 -9 -1.5 -17 q2 -19 9 -31 Z" /><glyph glyph-name="macron" unicode="" d="M146 666 q-33 2 -36 24 q-1 13 1.5 16 q2.5 3 4.5 9 q1 6 5.5 6.5 q4.5 0.5 6.5 5.5 q2 5 6 4 q4 -1 8.5 1.5 q4.5 2.5 6.5 -1 q2 -3.5 9 -2 q7 1.5 9.5 0 q2.5 -1.5 4.5 -3.5 q5 -3 17 1 q19 7 27 2 q5 -3 14.5 0 q9.5 3 16.5 1 q7 -2 17 1 q10 3 16 -1 q14 -10 18 -6 q4 4 8 4 q4 -1 12 2.5 q8 3.5 19 1 q11 -2.5 12 -11.5 q2 -6 5 -9 q3 -3 1 -10 q-2 -7 0 -12 q2 -5 -8.5 -16.5 q-10.5 -11.5 -24.5 -13 q-14 -1.5 -24 4 q-10 5.5 -22 1 q-12 -4.5 -19.5 -1 q-7.5 3.5 -11 2 q-3.5 -1.5 -8.5 -3.5 q-15 -4 -30 0.5 q-15 4.5 -29.5 3 q-14.5 -1.5 -31.5 0.5 Z" /><glyph glyph-name="degree" unicode="" d="M41 745 q4 11 12.5 13 q8.5 2 13.5 7 q5 5 10.5 3.5 q5.5 -1.5 10 3 q4.5 4.5 16.5 3 q12 -1.5 17 1 q5 2.5 13.5 -1.5 q8.5 -4 13 -5.5 q4.5 -1.5 9 -3.5 q4.5 -2 9.5 -14 q5 -12 9.5 -15.5 q4.5 -3.5 6.5 -9.5 q3 -17 2.5 -29 q-0.5 -12 -0.5 -25.5 q0 -13.5 -8 -18 q-8 -4.5 -13 -16.5 q-5 -12 -16.5 -12.5 q-11.5 -0.5 -18.5 -3.5 q-7 -3 -18.5 -1 q-11.5 2 -17 -2.5 q-5.5 -4.5 -13 0 q-7.5 4.5 -18 6 q-10.5 1.5 -14.5 6.5 q-4 5 -8.5 12.5 q-4.5 7.5 -8.5 11.5 q-4 4 -6 11.5 q-2 7.5 -3 16.5 q-2 21 3 29.5 q5 8.5 4 16 q-1 7.5 3 10.5 q8 4 10 7 ZM95.5 731 q-3.5 0 -4 -3 q-0.5 -3 -7 -5 q-6.5 -2 -6.5 -3.5 q0 -1.5 -3 -7 q-3 -5.5 -3.5 -7.5 q-0.5 -2 -0.5 -4 l0 -5 q0 -2 -2 -10 q-4 -16 11 -19 q5 -2 11.5 -2 q6.5 0 11 5 q4.5 5 11 5.5 q6.5 0.5 8 4.5 q1.5 4 3.5 4.5 q2 0.5 4 1.5 q5 2 5 13 q0 19 -28 29 q-7 3 -10.5 3 Z" /><glyph glyph-name="twosuperior" unicode="" d="M104 460 q13 3 26 7 q13 4 30 3 q37 -1 42 -9.5 q5 -8.5 5.5 -19.5 q0.5 -11 -0.5 -23 q-3 -39 -24 -39 q-7 0 -15 1 q-40 7 -78 -10 q-23 -10 -50 5 q-4 3 -7.5 7 q-3.5 4 -11 7.5 q-7.5 3.5 -6.5 16 q1 12.5 -1 28 q-2 15.5 2 21.5 q4 6 12.5 11 q8.5 5 10.5 9 q2 4 10.5 5.5 q8.5 1.5 12 7 q3.5 5.5 6.5 12 q3 6.5 5.5 12 q2.5 5.5 7.5 7.5 q6 2 9.5 10.5 q3.5 8.5 5.5 12 q2 3.5 7 4 q5 0.5 10.5 9 q5.5 8.5 10.5 19.5 q11 27 9 36 q-5 21 -24 13 q-7 -4 -9 -11 q-2 -7 -3.5 -10 q-1.5 -3 -10.5 -6.5 q-9 -3.5 -14.5 -6 q-5.5 -2.5 -13.5 2 q-8 4.5 -15 4.5 l-13 0 q-25 0 -18 20 q2 8 0 16 q-2 8 6.5 19.5 q8.5 11.5 10.5 22 q2 10.5 11 24.5 q9 14 20.5 18 q11.5 4 21 8 q9.5 4 18.5 8 q23 8 33 1 q9 -6 15 -5 q11 2 18 -3.5 q7 -5.5 13.5 -7.5 q6.5 -2 8 -9.5 q1.5 -7.5 5 -8 q3.5 -0.5 6.5 -7 q3 -6.5 8.5 -9 q5.5 -2.5 6 -10.5 q0.5 -8 5.5 -20.5 q5 -12.5 2.5 -24 q-2.5 -11.5 -5 -30.5 q-2.5 -19 -19.5 -39 q-17 -17 -25 -29 q-8 -12 -21 -14 q-20 -20 -26 -33 q-8 -16 -21 -23 Z" /><glyph glyph-name="threesuperior" unicode="" d="M197 588 q-14 -14 -23 -27 l14 -15 q7 -6 8.5 -13.5 q1.5 -7.5 7 -10.5 q5.5 -3 5.5 -16 q0 -13 -3.5 -18 q-3.5 -5 -2 -16 q1.5 -11 -2.5 -18.5 q-4 -7.5 -10.5 -17 q-6.5 -9.5 -13.5 -15 q-7 -5.5 -17.5 -15 q-10.5 -9.5 -24.5 -22 q-14 -12.5 -27.5 -10 q-13.5 2.5 -18 8 q-4.5 5.5 -19.5 5.5 q-28 0 -44 23 q-23 29 -4 50.5 q19 21.5 32 4.5 q2 -3 9 -8 q7 -5 13.5 -3 q6.5 2 13 0 q6.5 -2 12 2.5 q5.5 4.5 12.5 14.5 q7 10 2 16.5 q-5 6.5 -6 10 q-1 3.5 -9 5.5 q-8 2 -10.5 0.5 q-2.5 -1.5 -4.5 0.5 q-2 2 -1.5 6.5 q0.5 4.5 -1.5 11 q-2 6.5 -4.5 11 q-2.5 4.5 -0.5 9 q2 4.5 13.5 15 q11.5 10.5 21 17 q9.5 6.5 18 15.5 q8.5 9 6.5 25 q-2 16 -10.5 19.5 q-8.5 3.5 -17.5 -1 q-9 -4.5 -12 -13.5 q-3 -9 -8 -11 q-4 -1 -15 -1 l-22 0 q-43 0 -46 8 q-2 5 0 11 q2 6 -0.5 9.5 q-2.5 3.5 0.5 8 q3 4.5 6 14.5 q3 10 11 16.5 q8 6.5 12 19.5 q4 13 7.5 18.5 q3.5 5.5 12 9 q8.5 3.5 17.5 7.5 q9 4 18 8 q21 8 29.5 3.5 q8.5 -4.5 18 -1 q9.5 3.5 16 -1.5 q6.5 -5 13.5 -9.5 q7 -4.5 14 -9.5 q17 -14 18.5 -25 q1.5 -11 4.5 -18 q3 -7 6 -13 q6 -17 2 -31.5 q-4 -14.5 -6 -28.5 q-2 -14 -9 -16 Z" /><glyph glyph-name="acute" unicode="" d="M205.5 637 q-13.5 -14 -27.5 -11.5 q-14 2.5 -22.5 13.5 q-8.5 11 -2.5 29.5 q6 18.5 18 25.5 q36 21 42.5 30.5 q6.5 9.5 16 17 q9.5 7.5 20.5 13.5 q28 15 36 11.5 q8 -3.5 17 -6 q9 -2.5 11 -19 q2 -16.5 -5.5 -27.5 q-7.5 -11 -12 -12.5 q-4.5 -1.5 -9.5 -5.5 q-5 -4 -10 -8 q-13 -10 -19 -6 q-3 2 -10 -5.5 q-7 -7.5 -9 -16.5 q-2 -5 -11 -7 q-9 -2 -22.5 -16 Z" /><glyph glyph-name="mu" unicode="" d="M441 162 l-2 -41 q0 -31 7 -36.5 q7 -5.5 12.5 -3.5 q5.5 2 11.5 4 q16 5 23.5 -2 q7.5 -7 4.5 -16 q-3 -9 -2.5 -21.5 q0.5 -12.5 -1 -21 q-1.5 -8.5 -12.5 -17.5 q-9 -10 -11.5 -15.5 q-2.5 -5.5 -10 -7 q-7.5 -1.5 -11 -4.5 q-3.5 -3 -7.5 -6 q-12 -6 -32.5 -1 q-20.5 5 -31 20 q-10.5 15 -13.5 25.5 q-3 10.5 0 29.5 q3 19 3 38 l1 56 q0 8 -0.5 18.5 q-0.5 10.5 0.5 23.5 q-8 -16 -11 -33 q-3 -19 -12.5 -29.5 q-9.5 -10.5 -15 -20.5 q-5.5 -10 -13 -17 q-7.5 -7 -14.5 -12 q-17 -11 -21 -18 q-8 -11 -16.5 -24 q-8.5 -13 -19.5 -22 q-13 -8 -19 -13.5 q-6 -5.5 -24 -6.5 q-30 -2 -45.5 4.5 q-15.5 6.5 -30 12.5 q-14.5 6 -19.5 20 q-4 9 -9 18 q-5 9 -9 20 q-7 -41 -13 -57 q-16 -46 -16 -66.5 q0 -20.5 -1 -31.5 q-2 -24 -13 -35 q-4 -24 -17 -35 q-14 -9 -20 -18 q-6 -9 -10.5 -16 q-4.5 -7 -9.5 -13 q-8 -10 -31.5 -12.5 q-23.5 -2.5 -34.5 -0.5 q-26 3 -26 22 q0 8 6 12 q6 4 14 8 q20 13 26 34 q6 23 14 37 q12 23 15 42 q3 19 10.5 33.5 q7.5 14.5 7.5 33.5 q0 24 13.5 63 q13.5 39 15.5 58.5 q2 19.5 6 30.5 q4 11 4 25 q0 17 3 43.5 q3 26.5 6 35 q3 8.5 1 30.5 q-2 22 4 44 q6 22 6 46 q1 24 1 37.5 q0 13.5 10 20.5 q10 7 15 7.5 q5 0.5 10 -1.5 q17 -4 35 1 q52 17 55 -24 q2 -34 -3 -56.5 q-5 -22.5 -7 -42.5 q-2 -20 -8 -41 q-15 -54 -16.5 -84.5 q-1.5 -30.5 -8.5 -52.5 q-7 -22 -2 -32 q5 -10 15 -16 q19 -14 40.5 -11.5 q21.5 2.5 30.5 11 q9 8.5 14 24 q5 15.5 11.5 21 q6.5 5.5 10 20 q3.5 14.5 14.5 22.5 q11 8 20 31.5 q9 23.5 11 37.5 q2 14 7 25 q13 29 15 45 q2 16 8.5 30.5 q6.5 14.5 6.5 39.5 q0 25 3 34 q6 19 21 33 q22 20 39 1 q7 -8 17.5 -9.5 q10.5 -1.5 18.5 -5.5 q8 -4 14 -11 q15 -16 10.5 -37 q-4.5 -21 -7 -31 q-2.5 -10 -2.5 -19.5 q0 -9.5 -2 -17 q-2 -7.5 -4 -17.5 q-2 -10 -2 -23.5 q0 -13.5 3.5 -26.5 q3.5 -13 9 -29 q5.5 -16 4.5 -25.5 q-1 -9.5 -4 -15 q-3 -5.5 -6 -9.5 q-7 -9 -7 -17 Z" /><glyph glyph-name="paragraph" unicode="" d="M346 95 l-4 -25 l0 -10 q0 -11 -8.5 -19 q-8.5 -8 -6.5 -15 q7 -23 -17 -51 q-4 -4 -12.5 -3 q-8.5 1 -13.5 6 q-5 5 -8.5 12 q-3.5 7 -7 14 q-3.5 7 -8 12.5 q-4.5 5.5 -5 15.5 q-0.5 10 0.5 21 q2 22 8 47.5 q6 25.5 3.5 47.5 q-2.5 22 -2 33 q0.5 11 0.5 22 q0 11 0.5 22 q0.5 11 -0.5 23 q-1 12 -2.5 22 q-1.5 10 -3 26.5 q-1.5 16.5 0.5 25.5 q2 9 3 18 q-26 -9 -43 -10 q-17 -1 -33 13 q-16 14 -31 14 q-15 0 -30.5 -3 q-15.5 -3 -30.5 -2 q-20 0 -48 36 q-6 9 -9 14 q-5 10 -11 15.5 q-6 5.5 -7.5 9.5 q-1.5 4 -2.5 9 q-1 16 -9 36 q-21 50 6 79 q15 17 22 39 q12 43 25 58 q25 27 60 42 q16 8 32.5 18 q16.5 10 39.5 14 q23 4 32.5 6 q9.5 2 17.5 4 q14 4 35.5 6.5 q21.5 2.5 33.5 4.5 q12 2 23 3.5 q11 1.5 23 1.5 q12 0 28 -2 q16 -2 32 -3.5 q16 -1.5 29 -6.5 q28 -13 26 -44 q-1 -22 -9.5 -70.5 q-8.5 -48.5 -10.5 -64 q-2 -15.5 -2.5 -54.5 q-0.5 -39 -4 -71 q-3.5 -32 -3 -45.5 q0.5 -13.5 2 -24 q1.5 -10.5 3 -21 q1.5 -10.5 3 -27 q1.5 -16.5 3.5 -28 q2 -11.5 4 -22.5 q5 -20 6 -44 q1 -24 2.5 -43.5 q1.5 -19.5 2 -38 q0.5 -18.5 1 -34 q0.5 -15.5 -0.5 -23.5 q-1 -8 -1 -19 l0 -23 q0 -27 -10 -33 q-10 -6 -20.5 -16.5 q-10.5 -10.5 -25.5 -9.5 q-29 3 -25 36 l-1 21 q0 8 5 23 q-2 25 2 66 q4 41 4 50 l-4 67 q3 45 -5.5 84 q-8.5 39 -10 48.5 q-1.5 9.5 -1.5 18.5 q-1 14 3.5 45 q4.5 31 4.5 51.5 q0 20.5 2 45.5 q2 25 1 43.5 q-1 18.5 3 38.5 q3 21 15 56 q-57 11 -60 -24 q-2 -15 -2.5 -25.5 q-0.5 -10.5 -1 -20 q-0.5 -9.5 -0.5 -19 q0 -9.5 -1.5 -29 q-1.5 -19.5 -3.5 -43 q-2 -23.5 -4 -47.5 q-5 -62 -4 -93 q4 -78 3.5 -101.5 q-0.5 -23.5 1 -33.5 q1.5 -10 3.5 -18 q3 -23 2 -38 q-1 -12 1 -21 q4 -17 3 -28 q-1 -11 0 -17 q2 -12 2 -21 Z" /><glyph glyph-name="periodcentered" unicode="" d="M13 350.5 q-3 6.5 -1.5 15 q1.5 8.5 15.5 21 q14 12.5 36.5 25 q22.5 12.5 60.5 7.5 q18 -2 28 -21 q10 -16 6 -33.5 q-4 -17.5 -24.5 -31.5 q-20.5 -14 -30.5 -15.5 q-10 -1.5 -14 -4 q-4 -2.5 -7 -4.5 q-10 -6 -20.5 -3 q-10.5 3 -14 12 q-3.5 9 -11.5 12.5 q-8 3.5 -14 8.5 q-6 5 -9 11.5 Z" /><glyph glyph-name="cedilla" unicode="" d="M133 -146 q8 -1 18 4.5 q10 5.5 20 1.5 q10 -4 27.5 -9.5 q17.5 -5.5 36.5 1.5 q31 13 29 31 q-2 7 0.5 10 q2.5 3 -5.5 7.5 q-8 4.5 -16 15 q-8 10.5 -29 8.5 q-21 -2 -40 9 q-17 9 -14 44 q0 7 -3 10.5 q-3 3.5 1 6 q4 2.5 -0.5 10 q-4.5 7.5 0 9.5 q4.5 2 3.5 11 q-4 12 3 19 q8 6 15 5 q13 -4 17 -1 q3 2 5 -1 q4 -5 12.5 -0.5 q8.5 4.5 16 2 q7.5 -2.5 8.5 -13 q1 -10.5 2.5 -12.5 q1.5 -2 -3.5 -13 q-5 -11 -4.5 -14 q0.5 -3 7.5 -9 q8 -13 26 -8 q6 4 16 0 q20 -6 22 -18 q0 -2 8 -5 q13 -5 15 -13 q0 -7 3 -10 q7 -7 8.5 -22 q1.5 -15 2.5 -21 q1 -6 0.5 -9 q-0.5 -3 -1.5 -6 q-1 -3 -3.5 -11 q-2.5 -8 -5.5 -19 q-6 -25 -25 -32 q-9 -3 -17 -14 q-52 -15 -73 -11.5 q-21 3.5 -35 3 q-14 -0.5 -24 7 q-10 7.5 -21.5 8 q-11.5 0.5 -11.5 25 q0 24.5 9 24.5 Z" /><glyph glyph-name="onesuperior" unicode="" d="M129 518 q-1 -6 2 -14 q3 -8 2 -26 q-1 -18 3 -27 q4 -9 -1.5 -24 q-5.5 -15 -10 -24.5 q-4.5 -9.5 -13 -11.5 q-8.5 -2 -17.5 -3 q-9 -1 -14 -3.5 q-5 -2.5 -11 -2 q-6 0.5 -13 3.5 q-16 5 -20 22 q-4 17 -0.5 26 q3.5 9 2 17 q-1.5 8 0.5 14.5 q2 6.5 4 13.5 q7 17 5.5 24.5 q-1.5 7.5 -0.5 23 q1 15.5 2.5 35 q1.5 19.5 1.5 40 q0 20.5 -3 36.5 q-31 6 -32.5 18 q-1.5 12 3 18.5 q4.5 6.5 11.5 12.5 q7 6 9 12 q2 6 3 12 q4 14 13 17 q6 2 8 6 q2 4 4 7 q5 8 21 -2 q10 -6 17 -8 q7 -2 11 -5 q12 -7 12 -41 l0 -14 q0 -8 -0.5 -15 q-0.5 -7 1.5 -15 q2 -8 -0.5 -17.5 q-2.5 -9.5 -2.5 -20.5 q0 -11 3 -19.5 q3 -8.5 -0.5 -21.5 q-3.5 -13 -3 -18.5 q0.5 -5.5 1.5 -9.5 q1 -4 2 -7 q1 -3 0 -9 Z" /><glyph glyph-name="ordmasculine" unicode="" d="M27 565 q7 5 10 8 q3 3 6 12.5 q3 9.5 9 16 q6 6.5 12.5 11 q6.5 4.5 12.5 8 q6 3.5 10 9.5 q5 7 14 8 q19 2 22.5 8.5 q3.5 6.5 11.5 7 q8 0.5 16.5 0 q8.5 -0.5 16.5 -0.5 q8 0 13 4 q10 8 37 -11 q6 -5 12 -7 q6 -2 14 -7.5 q8 -5.5 14 -27.5 q6 -22 10 -30.5 q4 -8.5 8 -15.5 q10 -15 11 -28 q5 -37 5 -60.5 q0 -23.5 -2.5 -40 q-2.5 -16.5 -5.5 -31.5 q-9 -38 -22 -47 q-7 -6 -15.5 -26.5 q-8.5 -20.5 -14.5 -29 q-6 -8.5 -19 -9.5 q-13 -1 -25 -7.5 q-12 -6.5 -24.5 -4 q-12.5 2.5 -18.5 0.5 q-6 -2 -11 -4 q-13 -5 -22.5 2.5 q-9.5 7.5 -25 11 q-15.5 3.5 -21.5 14.5 q-6 11 -13.5 27.5 q-7.5 16.5 -13.5 25 q-6 8.5 -11.5 28 q-5.5 19.5 -10.5 42.5 q-11 56 -5 71.5 q6 15.5 7.5 26 q1.5 10.5 1.5 18.5 q0 22 7 27 ZM109 472 l2 -17 q0 -9 3 -15 l6 -11 q2 -5 6.5 -20.5 q4.5 -15.5 15.5 -18.5 q17 -5 31 5.5 q14 10.5 15.5 19.5 q1.5 9 4.5 13.5 q3 4.5 6 9.5 q8 12 7 17.5 q-1 5.5 1.5 8.5 q2.5 3 4.5 7 q5 9 -5 27 q-11 19 -43 20 q-29 2 -41 -8 q-5 -3 -3 -8.5 q2 -5.5 -4 -13.5 q-7 -11 -7 -16 Z" /><glyph glyph-name="guillemotright" unicode="" d="M14 364 q1 8 -6.5 19.5 q-7.5 11.5 -7.5 20.5 q0 9 6 14 q20 16 45 -20 q17 -23 38 -40.5 q21 -17.5 38 -31.5 q16 -16 27 -33 q11 -17 24.5 -28 q13.5 -11 29 -25.5 q15.5 -14.5 17 -30.5 q1.5 -16 -6.5 -25 q-8 -9 -19.5 -27.5 q-11.5 -18.5 -32.5 -37.5 q-21 -19 -31 -35 q-27 -43 -49 -59 l-16 -15 q-7 -8 -13.5 -16.5 q-6.5 -8.5 -16.5 -5.5 q-10 3 -10 11 q0 5 -1 8 q-1 3 1 19.5 q2 16.5 15 32 q13 15.5 19.5 20 q6.5 4.5 8 7.5 q1.5 3 2.5 6 q3 11 9.5 17.5 q6.5 6.5 15 17.5 q8.5 11 16.5 23 q19 30 19 43.5 q0 13.5 -6.5 25 q-6.5 11.5 -15.5 24 q-9 12.5 -19.5 24.5 q-10.5 12 -17.5 20 q-7 8 -16 18 q-19 23 -46 59 ZM184 353 q-10 5 -11.5 12.5 q-1.5 7.5 -6.5 10.5 q-5 3 -9 7.5 q-4 4.5 -6 10.5 q-4 15 2 25 q6 10 10 10.5 q4 0.5 8.5 -1 q4.5 -1.5 8 -4 q3.5 -2.5 7.5 -3.5 q20 -5 31 -27 q7 -12 17 -18 q10 -6 21 -17 q11 -11 28 -26 q17 -15 27.5 -27 q10.5 -12 15 -14.5 q4.5 -2.5 7.5 -5.5 q7 -6 18 -24 q11 -18 18 -26 q10 -10 13 -24.5 q3 -14.5 2.5 -20.5 q-0.5 -6 -4.5 -12 q-4 -6 -13 -22 q-9 -16 -28 -33 q-19 -17 -33 -23.5 q-14 -6.5 -17 -14 q-3 -7.5 -5.5 -14.5 q-2.5 -7 -9 -12 q-6.5 -5 -14.5 -11 q-24 -18 -32 -31 q-12 -20 -30 -26 q-34 -11 -43 4 q-11 13 30 53 q10 9 16 22 q6 13 10 18 q6 10 19.5 21 q13.5 11 18 16 q4.5 5 7.5 9 q5 7 17 16.5 q12 9.5 14.5 21.5 q2.5 12 10 21 q7.5 9 2.5 18 q-28 50 -39.5 59.5 q-11.5 9.5 -20.5 16 q-9 6.5 -11 14.5 q-2 8 -11 16 q-9 8 -17.5 15 q-8.5 7 -9 12 q-0.5 5 -8.5 8 Z" /><glyph glyph-name="onequarter" unicode="" d="M155 544 l4 -24 q-2 -8 1.5 -16 q3.5 -8 2.5 -22 q-1 -14 0.5 -20 q1.5 -6 2.5 -11 q1 -5 1 -11 q0 -6 -4.5 -17 q-4.5 -11 -9 -20.5 q-4.5 -9.5 -13 -11.5 q-8.5 -2 -17.5 -3 q-9 -1 -16 -4 q-7 -3 -22 1.5 q-15 4.5 -20 22 q-5 17.5 -0.5 26.5 q4.5 9 3 17 q-1.5 8 0.5 14.5 q2 6.5 4 13.5 q5 19 4 25.5 q-1 6.5 0.5 22 q1.5 15.5 2.5 35 q1 19.5 1 40 q0 20.5 -3 36.5 q-31 5 -32 17.5 q-1 12.5 3 19 q4 6.5 11 12.5 q7 6 9 12 q2 6 4 12 q3 14 12 17 q6 2 8 6 q2 4 4 7 q5 7 18.5 -0.5 q13.5 -7.5 20 -9.5 q6.5 -2 10.5 -5 q12 -7 12 -41 l0 -29 q0 -7 2 -15 q2 -8 -0.5 -17.5 q-2.5 -9.5 -2.5 -20.5 q0 -11 3 -19.5 q3 -8.5 -0.5 -21.5 q-3.5 -13 -3.5 -18 ZM101.5 41 q-5.5 -18 -11 -30.5 q-5.5 -12.5 -18.5 -16.5 q-29 -9 -47 5 q-11 8 -16.5 12.5 q-5.5 4.5 -3.5 17 q2 12.5 3.5 22 q1.5 9.5 9.5 17.5 q12 11 17 34 q1 3 6 9 q5 6 11 13 q16 20 18.5 35.5 q2.5 15.5 8.5 26 q6 10.5 7.5 16.5 q1.5 6 7 12 q5.5 6 12.5 13 q18 18 23 33 q5 15 15.5 24.5 q10.5 9.5 14 20 q3.5 10.5 11.5 20 q8 9.5 13.5 18.5 q5.5 9 16 19.5 q10.5 10.5 21.5 23.5 q30 33 33 46 q3 13 9 20 q6 7 9 20 q5 12 11.5 20 q6.5 8 8.5 19 q2 11 5.5 17 q3.5 6 8.5 16.5 q5 10.5 13 23 q8 12.5 12 21 q4 8.5 13 22.5 q9 14 10.5 20 q1.5 6 5.5 13 q4 7 9 14 q13 18 13.5 29.5 q0.5 11.5 7.5 16 q7 4.5 9 14 q2 9.5 9 13 q7 3.5 17.5 12 q10.5 8.5 20.5 5 q10 -3.5 11.5 -9.5 q1.5 -6 5 -10.5 q3.5 -4.5 5.5 -9.5 q6 -14 -4.5 -29 q-10.5 -15 -16 -26.5 q-5.5 -11.5 -8.5 -21.5 q-11 -35 -24 -56 q-13 -21 -19 -32 q-6 -11 -12.5 -19 q-6.5 -8 -10 -13 q-3.5 -5 -8 -11 q-4.5 -6 -9.5 -13 q-10 -17 -12 -23 q-4 -14 -17 -31.5 q-13 -17.5 -18.5 -27 q-5.5 -9.5 -10.5 -19.5 q-14 -24 -18 -30 q-4 -6 -14 -22 q-10 -16 -21 -33 q-11 -17 -21 -32 l-14 -21 q-38 -56 -62.5 -107.5 q-24.5 -51.5 -25.5 -62.5 q-1 -11 -8 -20 q-7 -9 -12.5 -27 ZM421 286 l-5 -73 q0 -20 3 -30 q13 2 21 3 q8 1 13 -6 q4 -8 7.5 -10.5 q3.5 -2.5 2.5 -13.5 q-1 -11 -1.5 -23 q-0.5 -12 -5.5 -14 q-5 -2 -10 -8 q-5 -6 -14 -5.5 q-9 0.5 -12 -10 q-3 -10.5 -2 -20.5 q1 -10 -2.5 -20 q-3.5 -10 -5 -21 q-1.5 -11 -3 -26.5 q-1.5 -15.5 -8.5 -16.5 q-8 -2 -18 -7.5 q-10 -5.5 -17.5 2.5 q-7.5 8 -15.5 13.5 q-8 5.5 -10 19 q-2 13.5 0 20 q2 6.5 0 20 q-2 13.5 0 28.5 q2 15 -6 16 l-53 -3 q-33 0 -39.5 6 q-6.5 6 -8.5 17.5 q-2 11.5 0.5 33 q2.5 21.5 9.5 33.5 q7 17 16.5 27.5 q9.5 10.5 16 17.5 q6.5 7 13 15.5 q6.5 8.5 12.5 17.5 q13 21 17 37 q8 34 34 49 q9 6 24.5 5.5 q15.5 -0.5 25.5 1.5 q10 2 14 -4 q8 -10 8 -37 l-1 -34 ZM332.5 203 q-9.5 -11 -13 -17.5 q-3.5 -6.5 -3.5 -11.5 q0 -5 12 -4 q21 2 25 4 q3 2 2.5 8 q-0.5 6 0 13.5 q0.5 7.5 0 13.5 q-0.5 6 -7.5 5 q-6 0 -15.5 -11 Z" /><glyph glyph-name="onehalf" unicode="" d="M133 698 l2 -32 q0 -5 1.5 -7.5 q1.5 -2.5 2.5 -5.5 q3 -9 0 -18.5 q-3 -9.5 -2.5 -22.5 q0.5 -13 -1.5 -28.5 q-2 -15.5 5 -33.5 q7 -18 9 -45 q4 -50 6 -55 q13 -28 4 -51 q-15 -37 -40 -30 q-7 2 -19.5 -0.5 q-12.5 -2.5 -23.5 5.5 q-23 14 -18 45 q2 13 7 34 q5 21 4.5 35.5 q-0.5 14.5 0 36 q0.5 21.5 0.5 45.5 q-2 59 -7 66 q-5 7 -10 7 q-5 0 -10.5 -1.5 q-5.5 -1.5 -10 6 q-4.5 7.5 0.5 19 q5 11.5 3.5 18 q-1.5 6.5 4.5 8.5 q6 2 7.5 8.5 q1.5 6.5 3.5 13.5 q3 18 15 21 q15 2 31 5 q16 3 26 -3 q12 -8 9 -40 ZM78.5 13.5 q-4.5 -7.5 -10.5 -13 q-6 -5.5 -15 -7 q-9 -1.5 -22 4.5 q-13 6 -15 26 q-4 34 11 60 q8 14 14 26.5 q6 12.5 16.5 25 q10.5 12.5 20.5 26 q10 13.5 20 28.5 q23 33 29 47.5 q6 14.5 15.5 29 q9.5 14.5 19.5 30.5 q26 41 30 64 q7 38 71 124 q29 40 43.5 74 q14.5 34 22.5 45.5 q8 11.5 15.5 18.5 q7.5 7 13.5 13 q14 14 15 27 q1 13 7.5 24 q6.5 11 14.5 20 q20 22 34 23 q14 1 26.5 -10.5 q12.5 -11.5 10.5 -29.5 q-5 -31 -38 -61 q-30 -30 -53 -67 q-23 -37 -28 -50 q-5 -14 -17 -31 q-21 -30 -25.5 -46 q-4.5 -16 -11 -27.5 q-6.5 -11.5 -13.5 -21.5 q-16 -25 -17.5 -37.5 q-1.5 -12.5 -6.5 -26.5 q-5 -14 -8 -24 q-8 -31 -23 -51.5 q-15 -20.5 -24 -37.5 q-9 -17 -15 -25 q-20 -28 -24.5 -38.5 q-4.5 -10.5 -14.5 -23 q-10 -12.5 -15 -20.5 q-5 -8 -17 -24.5 q-12 -16.5 -18 -28 q-6 -11.5 -10 -20 q-4 -8.5 -8.5 -16 ZM385 99.5 q-4 -8.5 -10.5 -13.5 q-6.5 -5 -7.5 -5 q12 3 25 7 q13 4 30 4 q37 -2 44 -13 q11 -18 -2 -61 q-5 -18 -20 -18 q-7 0 -16 2 q-37 6 -76 -10 q-16 -7 -31.5 -2.5 q-15.5 4.5 -19 6.5 q-3.5 2 -5.5 4 q-5 7 -12.5 10.5 q-7.5 3.5 -6 16 q1.5 12.5 -1 28 q-2.5 15.5 2 21.5 q4.5 6 12.5 11 q8 5 9.5 9 q1.5 4 10.5 5.5 q9 1.5 12.5 7 q3.5 5.5 6.5 11.5 q6 17 13 20 q6 2 9.5 10.5 q3.5 8.5 6 12 q2.5 3.5 7 4 q4.5 0.5 10 9 q5.5 8.5 10.5 19.5 q11 27 9 36 q-5 21 -24 13 q-7 -2 -9 -9.5 q-2 -7.5 -3.5 -11 q-1.5 -3.5 -10.5 -7 q-9 -3.5 -14.5 -6 q-5.5 -2.5 -13.5 2 q-8 4.5 -15 4.5 l-13 0 q-28 0 -18 21 q3 7 0 15 q-2 8 6.5 20 q8.5 12 10.5 22 q2 10 11 24 q9 14 20 18 q11 4 20.5 8.5 q9.5 4.5 19.5 8.5 q22 7 33 0 q9 -6 15 -5 q11 2 18 -3.5 q7 -5.5 13.5 -7.5 q6.5 -2 8.5 -9.5 q2 -7.5 5 -7.5 q3 0 6 -7 q3 -7 8.5 -9.5 q5.5 -2.5 6 -10.5 q0.5 -8 5.5 -20.5 q5 -12.5 2.5 -24 q-2.5 -11.5 -5 -30.5 q-2.5 -19 -19.5 -39 q-17 -17 -25 -29 q-8 -12 -22 -14 q-23 -29 -27 -37.5 Z" /><glyph glyph-name="threequarters" unicode="" d="M207 588 q-7 -7 -23 -27 l14 -15 q7 -6 8.5 -13.5 q1.5 -7.5 7 -10.5 q5.5 -3 5.5 -16 q0 -13 -3.5 -18 q-3.5 -5 -2 -16 q1.5 -11 -2.5 -18.5 q-4 -7.5 -10 -17 q-6 -9.5 -13.5 -15 q-7.5 -5.5 -17.5 -15 q-10 -9.5 -24 -22 q-14 -12.5 -25 -10.5 q-11 2 -14.5 4 q-3.5 2 -6.5 4 q-9 6 -22 6 q-26 0 -38 18 q-25 36 -7 56 q18 20 32 4 q2 -3 8.5 -8 q6.5 -5 13 -3 q6.5 2 13 0 q6.5 -2 12.5 2 q22 22 12 33 q-3 5 -4 8.5 q-1 3.5 -9 5.5 q-8 2 -10.5 0.5 q-2.5 -1.5 -4.5 0.5 q-2 2 -1.5 6.5 q0.5 4.5 -1.5 11 q-2 6.5 -4.5 11 q-2.5 4.5 -0.5 8.5 q5 11 39 35 q5 4 14 13 q9 9 6 25 q-2 16 -10.5 19.5 q-8.5 3.5 -17 -1 q-8.5 -4.5 -12 -13.5 q-3.5 -9 -8.5 -11 q-4 -1 -15 -1 l-22 0 q-42 0 -45 8 q-1 3 0 10 q1 7 -1.5 10.5 q-2.5 3.5 1 8 q3.5 4.5 6.5 14.5 q3 10 10.5 16.5 q7.5 6.5 11.5 19.5 q4 13 8 18.5 q4 5.5 12.5 9 q8.5 3.5 17 7.5 q8.5 4 17.5 8 q21 8 29.5 3.5 q8.5 -4.5 18.5 -1 q10 3.5 16 -1.5 q6 -5 13 -9.5 q7 -4.5 14 -9.5 q17 -14 18.5 -25 q1.5 -11 4.5 -18 q3 -7 6 -13 q6 -17 2 -31.5 q-4 -14.5 -6 -28.5 q-2 -14 -9 -16 ZM483 716 q6 -26 -19 -59 q-21 -25 -29 -35 q-8 -10 -11 -19.5 q-3 -9.5 -11.5 -17.5 q-8.5 -8 -13.5 -19 q-5 -11 -10 -21 q-5 -10 -9 -19 q-10 -21 -12.5 -31 q-2.5 -10 -12 -28.5 q-9.5 -18.5 -13 -27.5 q-3.5 -9 -9 -24.5 q-5.5 -15.5 -13.5 -33.5 q-18 -45 -38 -54 q-19 -9 -24 -24.5 q-5 -15.5 -6 -25 q-1 -9.5 -3.5 -20 q-2.5 -10.5 -17 -26 q-14.5 -15.5 -25.5 -37.5 q-11 -22 -23.5 -38 q-12.5 -16 -18.5 -33.5 q-6 -17.5 -11 -33 q-5 -15.5 -10 -30.5 q-11 -34 -21 -42 q-10 -6 -21.5 -11 q-11.5 -5 -19.5 3 q-27 -7 -34.5 4 q-7.5 11 -4 14.5 q3.5 3.5 1.5 13.5 q-2 10 6 17 q17 16 23.5 33.5 q6.5 17.5 13.5 26.5 q7 9 13 18.5 q6 9.5 12 19.5 q11 22 18 32 q25 32 27 40 q2 8 5 15 l8 15 q11 21 12 28 q2 11 13 28 l17 29 q6 11 12.5 22 q6.5 11 15.5 32.5 q9 21.5 23 38.5 q15 17 19.5 37 q4.5 20 12.5 31 q18 25 21 34 q3 9 8 18.5 q5 9.5 12 21.5 q14 27 21 43 q8 14 13.5 22 q5.5 8 15 14 q9.5 6 14 13 q4.5 7 8 14 q3.5 7 6.5 14 q3 7 10.5 13 q7.5 6 14 16.5 q6.5 10.5 12.5 9 q6 -1.5 7 -1.5 q7 10 19.5 2.5 q12.5 -7.5 5.5 -21.5 ZM449 309 q8 -25 3 -59 q11 -11 6 -28 q-7 -20 3 -35 q2 -3 9.5 1.5 q7.5 4.5 15.5 2.5 l14 0 q6 0 6.5 -7.5 q0.5 -7.5 -1.5 -18.5 q-2 -11 -3 -19 q0 -12 -8 -20.5 q-8 -8.5 -13 -16 q-5 -7.5 -11 -8.5 q-21 -3 -31 -2 q-3 -13 -5 -46 q-2 -33 0.5 -43 q2.5 -10 -2 -15 q-4.5 -5 -9 -4 q-4.5 1 -9 -1 q-4.5 -2 -12.5 -2 q-16 0 -20 15 q-2 5 -7 7 q-5 2 -5.5 18 q-0.5 16 -5.5 31.5 q-5 15.5 -2.5 20.5 q2.5 5 -2 10 q-4.5 5 -9 11.5 q-4.5 6.5 -9.5 2 q-5 -4.5 -12.5 -4.5 q-7.5 0 -11.5 1.5 q-4 1.5 -9 0.5 q-5 -1 -11 -1 q-38 0 -22 71 q3 13 9.5 30 q6.5 17 22.5 37.5 q16 20.5 26.5 41 q10.5 20.5 19.5 41 q9 20.5 19 25.5 q10 5 27.5 11.5 q17.5 6.5 34.5 -1.5 q21 -8 15 -47 ZM338 166 q6 -9 24 -2 q18 7 18 12 q0 5 -2 14 q-2 9 0.5 19.5 q2.5 10.5 -1 12 q-3.5 1.5 -6 -1.5 q-2.5 -3 -7 -5 q-4.5 -2 -4.5 -5 q0 -4 -11 -14 q-21 -20 -11 -30 Z" /><glyph glyph-name="questiondown" unicode="" d="M78 -12 q-9 9 -22 12.5 q-13 3.5 -17.5 13.5 q-4.5 10 -7.5 13.5 q-3 3.5 -7 6.5 q-9 10 -12 24 q-3 15 -8 24 q-6 13 -5.5 27.5 q0.5 14.5 -2 22 q-2.5 7.5 -0.5 21 q2 13.5 0.5 26 q-1.5 12.5 6 28 q7.5 15.5 18 30.5 q10.5 15 12.5 35 q3 33 36 47 q16 8 23.5 21 q7.5 13 13 29 q5.5 16 8.5 33.5 q3 17.5 6 35.5 q5 41 3 58 q-2 18 7 35 q18 33 35 33 q9 -1 14.5 0.5 q5.5 1.5 10.5 1.5 q11 2 18 -4 q17 -14 22 -23 q11 -20 5.5 -45.5 q-5.5 -25.5 -2.5 -42 q3 -16.5 7 -31.5 q12 -41 6 -64 q-13 -45 -31 -52 q-8 -4 -13 -13 q-5 -9 -13 -9 q-8 0 -19.5 -10.5 q-11.5 -10.5 -21.5 -25.5 q-28 -39 -17 -66 q9 -22 25 -18 q6 2 11.5 3 q5.5 1 8.5 -8 q7 -20 28 -20 q22 0 33 24 q6 13 9 21 q3 8 6 14 q9 16 37 11 q11 -2 14.5 -5.5 q3.5 -3.5 8 -3.5 q4.5 0 12.5 -3.5 q8 -3.5 16 -12.5 q20 -19 29 -53 q4 -23 9 -34 q5 -11 -3 -20.5 q-8 -9.5 -15 -20 q-7 -10.5 -14.5 -20 q-7.5 -9.5 -12 -11.5 q-4.5 -2 -9.5 -5 q-15 -7 -22 -19 q-14 -23 -32 -23 q-20 0 -26.5 -2.5 q-6.5 -2.5 -11.5 -3.5 q-11 -4 -21 -1 q-10 3 -12.5 5.5 q-2.5 2.5 -4.5 5.5 q-5 6 -19 7 q-14 1 -25 -3 q-46 -20 -72 4 ZM224.5 629 q-12.5 -5 -23.5 -1.5 q-11 3.5 -19.5 -0.5 q-8.5 -4 -22.5 -3 q-14 1 -19 9 q-5 8 -10.5 16.5 q-5.5 8.5 -2.5 19 q3 10.5 4 17 q1 6.5 6 12.5 q5 6 12.5 13 q7.5 7 16.5 13 q23 17 40 15.5 q17 -1.5 23 -9 q6 -7.5 14 -13.5 q16 -13 9 -41 q-7 -28 -11 -35 q-4 -7 -16.5 -12 Z" /><glyph glyph-name="Aring" unicode="" d="M169 841 q4 10 12.5 12 q8.5 2 13.5 7 q5 5 10.5 3.5 q5.5 -1.5 10 3 q4.5 4.5 16.5 3 q12 -1.5 17 1 q5 2.5 13.5 -1.5 q8.5 -4 13 -5.5 q4.5 -1.5 9 -3.5 q4.5 -2 9.5 -14 q5 -12 9.5 -15.5 q4.5 -3.5 6.5 -10.5 q3 -16 2.5 -27.5 q-0.5 -11.5 0 -22.5 q0.5 -11 -4.5 -18 q33 -16 41.5 -29 q8.5 -13 11.5 -21.5 q3 -8.5 10 -22.5 q7 -14 6.5 -25 q-0.5 -11 3.5 -26 q4 -15 0 -35 q-4 -20 0 -39.5 q4 -19.5 4 -26.5 q0 -7 1 -13 q1 -17 7 -30 q6 -14 3.5 -34.5 q-2.5 -20.5 -1 -34 q1.5 -13.5 10.5 -27.5 q17 -27 12 -60 q-1 -9 0.5 -19.5 q1.5 -10.5 1.5 -19 q0 -8.5 -2 -21.5 q-3 -19 1 -46 q6 -50 6 -67 q0 -17 1 -28.5 q1 -11.5 2 -24.5 q6 -78 -8 -97 q-6 -9 -13 -11 q-6 -11 -16 -16.5 q-10 -5.5 -20 2 q-10 7.5 -14.5 6.5 q-4.5 -1 -8.5 -2 q-9 -1 -18 13 q-9 14 -10 22.5 q-1 8.5 0 16.5 q4 18 -5.5 32 q-9.5 14 -13 21 q-3.5 7 -3.5 20.5 q0 13.5 -1.5 17 q-1.5 3.5 -2.5 5.5 q-5 9 -3.5 28 q1.5 19 -5.5 26.5 q-7 7.5 -18.5 11.5 q-11.5 4 -18 -2.5 q-6.5 -6.5 -12 -15.5 q-5.5 -9 -13.5 -15.5 q-8 -6.5 -20.5 -3.5 q-12.5 3 -27.5 -6 q-15 -9 -18 -21.5 q-3 -12.5 -7 -25.5 q-4 -13 -2.5 -24 q1.5 -11 0 -21.5 q-1.5 -10.5 -5.5 -20.5 q-8 -25 -19 -27 q-9 -1 -19 0 q-11 -20 -26 -24 q-41 -9 -49 13 q-5 13 -6 34 q-2 42 -9 57 q-7 15 -3.5 36 q3.5 21 2.5 42 q-1 21 0 32 q1 11 2.5 20 q1.5 9 3.5 17.5 q2 8.5 2.5 20 q0.5 11.5 3.5 26.5 q3 15 6 31 q8 40 6 60 q-2 20 3.5 34 q5.5 14 12.5 25 q18 29 17 47.5 q-1 18.5 -1.5 29 q-0.5 10.5 0.5 21.5 q5 54 51 169 q3 11 19 17 q16 6 32 1 q2 0 3.5 -0.5 q1.5 -0.5 3.5 -0.5 q-3 0 -9.5 11 q-6.5 11 -10.5 15.5 q-4 4.5 -6 12 q-2 7.5 -3 16.5 q-3 22 2.5 29.5 q5.5 7.5 4.5 15 q-1 7.5 3 11.5 q8 4 10 7 ZM254 397 q2 19 -1.5 47 q-3.5 28 -3.5 41.5 q0 13.5 -2 23.5 q-3 16 -17 4 q-16 16 -26 1 q-7 -11 -7 -36 q-2 -17 -7.5 -31 q-5.5 -14 -7.5 -31 q-3 -20 -10.5 -49 q-7.5 -29 2 -43 q9.5 -14 23.5 -10 q14 4 21 4.5 q7 0.5 12 1.5 q12 1 18.5 9.5 q6.5 8.5 7 15 q0.5 6.5 -0.5 13.5 q-3 20 -1 39 ZM226 826 q-6 0 -6.5 -3 q-0.5 -3 -7 -5 q-6.5 -2 -6.5 -3.5 q0 -1.5 -4 -8.5 q-4 -7 -3 -9 q1 -2 -1 -13 q-5 -19 10 -22 q5 -2 11.5 -2 q6.5 0 11 5 q4.5 5 11 5.5 q6.5 0.5 8.5 5.5 q2 5 7 5 q5 0 5 10.5 q0 10.5 -4.5 16 q-4.5 5.5 -11.5 9.5 q-14 9 -20 9 Z" /><glyph glyph-name="AE" unicode="" d="M422 158 l56 2 q14 0 27.5 -2 q13.5 -2 27 0 q13.5 2 26 5.5 q12.5 3.5 24.5 7 q12 3.5 25.5 2 q13.5 -1.5 20.5 -7.5 q7 -6 9 -14 q6 -16 -3 -34 q-9 -18 -16 -31 q-7 -13 -11.5 -33.5 q-4.5 -20.5 -6 -30.5 q-1.5 -10 -9.5 -15 q-8 -5 -17 -10.5 q-9 -5.5 -22 -2.5 q-13 3 -34.5 3.5 q-21.5 0.5 -46.5 -1.5 q-62 -3 -79 -11.5 q-17 -8.5 -26 -12.5 q-9 -4 -17 -6 q-15 -2 -26.5 6.5 q-11.5 8.5 -18.5 13.5 q-19 12 -30 15 q-24 7 -12 40 q23 62 -6 118 q-5 8 -13 6 q-8 -2 -19.5 0 q-11.5 2 -20 -3.5 q-8.5 -5.5 -27 -8 q-18.5 -2.5 -24.5 8.5 q-33 -33 -52 -101 q-6 -24 -12.5 -28 q-6.5 -4 -12 -8 q-5.5 -4 -18.5 -26.5 q-13 -22.5 -29.5 -30.5 q-16.5 -8 -28.5 -3.5 q-12 4.5 -19.5 10.5 q-7.5 6 -9.5 22.5 q-2 16.5 -0.5 23.5 q1.5 7 -6 13.5 q-7.5 6.5 -5.5 26.5 q2 20 13 37 q21 36 19.5 55 q-1.5 19 4.5 34 q6 15 11 26.5 q5 11.5 13 28.5 q8 17 16 38 q22 51 22 71.5 q0 20.5 2 41.5 q2 21 6 42 q7 47 23 63 q18 14 25.5 24 q7.5 10 9.5 21.5 q2 11.5 4.5 16 q2.5 4.5 5.5 9.5 q10 16 18 51.5 q8 35.5 16 55.5 q29 76 94 66 q26 -5 53 -13 q27 -8 51.5 -14.5 q24.5 -6.5 40.5 -0.5 q16 6 27 10 l17 8 q14 6 24 2 q10 -4 14 -3.5 q4 0.5 7 1.5 q10 1 18 -1 q8 -2 17 0 q9 2 19 3.5 q10 1.5 20 1.5 q16 0 28.5 -11.5 q12.5 -11.5 16 -20.5 q3.5 -9 3.5 -23 q0 -14 -3.5 -29.5 q-3.5 -15.5 -2.5 -26 q1 -10.5 -5 -30.5 q-6 -20 -6 -39 q0 -19 -4.5 -31 q-4.5 -12 -11 -27.5 q-6.5 -15.5 -19.5 -17.5 q-49 -8 -77 7 q-31 19 -65 15 q-29 -3 -22 -57 q1 -7 -0.5 -16.5 q-1.5 -9.5 -3.5 -20.5 q-3 -25 12 -36.5 q15 -11.5 27.5 -13 q12.5 -1.5 27.5 5 q15 6.5 28.5 9.5 q13.5 3 18.5 -9 q19 -47 16 -55 q-3 -8 -3.5 -23 q-0.5 -15 -6.5 -21 q-6 -6 -15 -14 q-9 -8 -25.5 -8 q-16.5 0 -28.5 -1 q-12 -1 -23 -4 q-25 -7 -27 -23 q-4 -43 9 -54 q3 -3 14 -3 ZM192.5 375.5 q-5.5 -13.5 -9 -26.5 q-3.5 -13 -1.5 -23.5 q2 -10.5 7.5 -16 q5.5 -5.5 12.5 -7.5 q13 -3 23 1 q10 4 13.5 11 q3.5 7 8 18.5 q4.5 11.5 2.5 21.5 q-2 10 -4 20 q-5 29 2 39 q2 3 2 10 q0 7 -2 13 q-5 18 -15 18 q-11 2 -15 -7 q-4 -9 -6 -20 q-2 -11 -7.5 -24.5 q-5.5 -13.5 -11 -27 Z" /><glyph glyph-name="Ccedilla" unicode="" d="M140 -201 q-8 0 -8 24 q0 24 8 24 q10 -1 19 5 q9 6 19 2 q40 -17 62 -8.5 q22 8.5 27.5 16 q5.5 7.5 4 15 q-1.5 7.5 0.5 10.5 q2 3 -6 8 q-8 5 -15.5 15 q-7.5 10 -28 8 q-20.5 -2 -35 5.5 q-14.5 7.5 -17 15.5 q-2.5 8 -3 16.5 q-0.5 8.5 -0.5 15.5 q0 7 -3 10 q-3 3 1 6 q4 3 1 9 q-3 6 -1 11 q-9 4 -18.5 6 q-9.5 2 -17.5 7 q-20 11 -33 35 q-8 15 -15.5 25 q-7.5 10 -12.5 19 q-13 20 -10 38 q6 48 -13 63 q-11 7 -11 11 q0 4 -4 17 q-6 18 0.5 42 q6.5 24 4.5 39.5 q-2 15.5 -5 32.5 q-6 44 -1 58 q5 14 2.5 40 q-2.5 26 -2.5 42.5 q0 16.5 -2.5 43.5 q-2.5 27 -0.5 58 q7 78 53 107 q69 41 88 39 q6 0 14.5 -1.5 q8.5 -1.5 16.5 0.5 q8 2 14 6 q6 4 12 9 q24 22 43 5 q18 -21 28 -28 q17 -13 51 -15 q29 -2 52 -30 q4 -6 8 -11.5 q4 -5.5 6 -12.5 q6 -15 4 -43 q-2 -28 3 -45.5 q5 -17.5 10 -33.5 q9 -28 -11 -75 q-15 -43 -37 -51 l-18 -6 q-26 -9 -44.5 -6.5 q-18.5 2.5 -25.5 10.5 q-20 26 -10 60 q2 7 0 22 q-2 15 -17 19 q-8 2 -10.5 7 q-2.5 5 -4 8.5 q-1.5 3.5 -3 5 q-1.5 1.5 -9.5 -4.5 q-8 -6 -9 -6.5 q-1 -0.5 -6.5 1.5 q-5.5 2 -10.5 -1 q-5 -3 -10 -11 q-18 -31 -7 -101 q4 -21 8 -39 q8 -45 7.5 -60 q-0.5 -15 -6 -31.5 q-5.5 -16.5 -9.5 -32.5 q-12 -41 3 -70 q18 -36 23 -42 q9 -9 22 -7.5 q13 1.5 20 13 q7 11.5 13 25 q6 13.5 13 25.5 q7 12 16.5 14 q9.5 2 24.5 0.5 q15 -1.5 20.5 -1.5 q5.5 0 13.5 -6.5 q8 -6.5 8.5 -29 q0.5 -22.5 1.5 -36 q1 -13.5 -7 -24 q-8 -10.5 -10.5 -19 q-2.5 -8.5 -3.5 -16.5 q-1 -21 -7.5 -31 q-6.5 -10 -12 -16.5 q-5.5 -6.5 -28.5 -6.5 q-28 0 -52 -31 q-1 -2 -3 -4 q11 -8 21 -4 q10 4 23.5 -0.5 q13.5 -4.5 16.5 -16.5 q0 -2 8 -5 q14 -5 15 -14 q0 -5 3 -10 q6 -6 8 -21 q2 -15 3 -21 q1 -6 1 -9 q-1 -5 -4.5 -15 q-3.5 -10 -6.5 -21 q-6 -25 -25 -32 q-9 -3 -18 -14 q-50 -15 -71.5 -11.5 q-21.5 3.5 -35.5 3 q-14 -0.5 -24.5 7 q-10.5 7.5 -24.5 8.5 Z" /><glyph glyph-name="Eth" unicode="" d="M41 412 l-1 52 l0 30 q0 15 3 28 q12 48 5 82 q-17 83 5 116 q27 36 69 33 q15 -1 31.5 -12 q16.5 -11 35 -15 q18.5 -4 35.5 -5 q44 -3 54 -11 q10 -8 19 -12.5 q9 -4.5 17 -7.5 q19 -9 23 -18.5 q4 -9.5 11 -17 q7 -7.5 15 -16.5 q19 -22 24 -49 q3 -17 5 -30 q2 -13 5 -25 q9 -39 21 -69 q23 -60 11 -94 l-1 -4 q6 -17 3 -32.5 q-3 -15.5 -4.5 -24 q-1.5 -8.5 -4 -18 q-2.5 -9.5 -6 -21.5 q-3.5 -12 -8.5 -30.5 q-5 -18.5 -10.5 -32 q-5.5 -13.5 -11.5 -24.5 q-12 -22 -62 -74 q-16 -16 -23.5 -33 q-7.5 -17 -18.5 -24 q-12 -27 -24 -36 q-24 -18 -62 -13 q-27 -21 -40.5 -26 q-13.5 -5 -27 -5 q-13.5 0 -28 8 q-14.5 8 -19 19 q-4.5 11 -4.5 24.5 q0 13.5 1 29.5 q2 29 -8 50 q-10 21 -12 31 q-6 21 -4 61 q1 33 -1 39 q-5 9 2 60 q-9 0 -16.5 -1 q-7.5 -1 -20 -1.5 q-12.5 -0.5 -23.5 3.5 q-26 8 -26 36 q0 34 41 36 q11 0 20 -3 q9 7 20 7 l0 1 q-6 10 -7.5 16 q-1.5 6 -1.5 23 ZM194 487 q-12 -9 -12 -30 q0 -21 4 -69 l0 -12 q17 1 28 -4 q11 -5 8.5 -28.5 q-2.5 -23.5 -11 -33 q-8.5 -9.5 -30.5 -11.5 q4 -23 2 -39 q-2 -16 2 -25.5 q4 -9.5 2.5 -20 q-1.5 -10.5 -2.5 -20.5 q-2 -27 11 -28 q20 -3 36 57 q4 15 6 27 q1 12 5 21 q4 9 7 17 q10 24 10 36.5 q0 12.5 1.5 16 q1.5 3.5 3 7.5 q1.5 4 3.5 9 q2 5 4 19 q4 43 -29 71 q-14 11 -23.5 26 q-9.5 15 -14 17 q-4.5 2 -11.5 -3 Z" /><glyph glyph-name="multiply" unicode="" d="M282.5 511.5 q11.5 9.5 20 6.5 q8.5 -3 16.5 -10.5 q8 -7.5 13 -17.5 q14 -22 0 -38 q-2 -10 -13 -19 q-11 -9 -20 -17 q-9 -8 -11.5 -12 q-2.5 -4 -4.5 -7 q-5 -7 -13 -9 q-14 -4 -24 -20 q13 -18 25.5 -29 q12.5 -11 20.5 -18 q8 -7 11 -10.5 q3 -3.5 5 -6.5 q7 -9 16.5 -13 q9.5 -4 17.5 -10 q8 -6 12 -14 q11 -18 -5 -45 q-16 -27 -47 -25 q-24 2 -45 23 q-10 12 -15 15 q-6 3 -11 16 q-7 17 -45 46 q-5 -11 -8.5 -19.5 q-3.5 -8.5 -8.5 -10.5 q-6 -2 -9 -9 q-8 -13 -16.5 -15.5 q-8.5 -2.5 -16.5 -16 q-8 -13.5 -19.5 -18 q-11.5 -4.5 -18 -6.5 q-6.5 -2 -11.5 -7 q-14 5 -30 13 q-16 8 -19 21.5 q-3 13.5 6.5 30.5 q9.5 17 18.5 25 q5 3 12.5 6 q7.5 3 14.5 7 q17 8 19 15.5 q2 7.5 4 9.5 q2 2 6 4 q12 6 21 15 q-41 54 -97 93 q-11 8 -17 14.5 q-6 6.5 -7 25.5 q-1 19 18 34 q39 31 80 -10 q7 -8 16.5 -20 q9.5 -12 20 -25 q10.5 -13 21 -26.5 q10.5 -13.5 18.5 -23.5 q28 29 50 56 q37 42 48.5 51.5 Z" /><glyph glyph-name="Oslash" unicode="" d="M449 728 q28 -4 24 -43 q0 -11 -7.5 -22.5 q-7.5 -11.5 -12.5 -15.5 q-5 -4 -9.5 -9 q-4.5 -5 -8 -17.5 q-3.5 -12.5 -10.5 -23.5 q1 -11 5 -20 q14 -27 9.5 -62.5 q-4.5 -35.5 -3 -50 q1.5 -14.5 5 -21.5 q3.5 -7 6.5 -14 q8 -19 8 -38 q0 -24 -16 -48 q-7 -9 -5 -35 q2 -26 3 -52 q1 -65 -7 -80.5 q-8 -15.5 -11.5 -18.5 q-3.5 -3 -6.5 -5 q-15 -7 -26.5 -41.5 q-11.5 -34.5 -30.5 -56 q-19 -21.5 -39.5 -35 q-20.5 -13.5 -32 -21 q-11.5 -7.5 -16.5 -14.5 q-5 -7 -10 -14 q-13 -16 -33 -16 q-34 0 -50 16 q-7 9 -15 26 q-15 27 -40 44 q-16 11 -22 22 q-16 -16 -17 -29 q-2 -23 -5.5 -27.5 q-3.5 -4.5 -10.5 -4.5 q-7 0 -14 3 q-17 9 -19 27 q-2 20 26 58 q12 16 17.5 26.5 q5.5 10.5 9.5 17.5 q0 32 -8 53.5 q-8 21.5 -9 35.5 q-5 42 -28 45 q-17 2 -20 51 q-1 25 2 47.5 q3 22.5 8 38.5 q8 29 5 67.5 q-3 38.5 0 68.5 q5 56 24 91 q9 15 26.5 30 q17.5 15 34.5 29 q11 10 19 21.5 q8 11.5 21 21.5 q35 29 70 17 q43 -16 79 -20 q36 -4 52.5 -18 q16.5 -14 23.5 -23 q7 -9 8.5 -11.5 q1.5 -2.5 3.5 -4.5 q23 46 32.5 51.5 q9.5 5.5 19.5 3.5 ZM233 388 q22 25 22 45.5 q0 20.5 21 38.5 q-15 39 -39 39 q-22 0 -40 -49 q-16 -43 -13.5 -57.5 q2.5 -14.5 10.5 -22.5 q12 -15 12 -44 q22 43 27 50 ZM210 228 q10 -48 35 -48 q31 0 43 120 q4 33 4 54 l0 27 q0 6 -1 12 q-4 -5 -7.5 -9 q-3.5 -4 -8.5 -13 q-5 -9 -9.5 -30 q-4.5 -21 -14.5 -39 q-10 -18 -21.5 -33 q-11.5 -15 -19.5 -41 Z" /><glyph glyph-name="Thorn" unicode="" d="M183 86 q5 -10 5 -28 q0 -33 -13 -46 q-21 -21 -55 -32 q-15 -5 -30.5 2.5 q-15.5 7.5 -34 9 q-18.5 1.5 -24 10.5 q-5.5 9 -5.5 20 q0 23 12.5 42 q12.5 19 16.5 42 q11 60 3 103 q-8 43 -11 62.5 q-3 19.5 -5.5 37 q-2.5 17.5 4 21 q6.5 3.5 7.5 9.5 q1 6 0.5 13 q-0.5 7 -2.5 14 q-2 7 -3 11.5 q-1 4.5 -3.5 19 q-2.5 14.5 -4.5 33.5 q-4 57 -1 91 q3 34 -3 67.5 q-6 33.5 -12.5 62 q-6.5 28.5 -8 50.5 q-1.5 22 8.5 32.5 q10 10.5 21 9.5 q11 -1 24 -4 q13 -3 25.5 -5.5 q12.5 -2.5 21.5 3.5 q38 23 47 1 q3 -6 7 -9 q4 -3 7 -7 q7 -8 4.5 -23.5 q-2.5 -15.5 -2.5 -24 q0 -8.5 1 -14.5 q4 -28 0 -50 q6 0 12 -1 q6 -1 13 1 q7 2 17 -1 q10 -3 18 -2 q8 1 15 -1 q7 -2 15 -2 l18 0 q9 0 14 -3 q5 -3 11 -4.5 q6 -1.5 13 -3.5 q18 -5 21 -15 q4 -15 12 -21 q8 -6 12 -9 q4 -3 7 -7 q5 -10 17.5 -17.5 q12.5 -7.5 17.5 -16.5 q5 -9 13.5 -18.5 q8.5 -9.5 8.5 -21 q0 -11.5 3 -18.5 q3 -7 6 -16 q8 -31 -15 -89 q-7 -17 -5.5 -35 q1.5 -18 -5.5 -30 q-7 -12 -10 -19.5 q-3 -7.5 -7 -10.5 q-4 -3 -7 -7 q-9 -12 -8 -33 q2 -42 -32 -65 q-22 -15 -44.5 -12.5 q-22.5 2.5 -38.5 5 q-16 2.5 -33 -0.5 q-28 -3 -49 -14 q2 -28 -6 -36 ZM194.5 443 q-6.5 -6 -6.5 -13.5 q0 -7.5 3.5 -14 q3.5 -6.5 0.5 -16.5 q-6 -19 -4.5 -33 q1.5 -14 1.5 -31.5 q0 -17.5 -5 -38 q-5 -20.5 2 -40.5 q2 -7 15 -5 q25 5 29.5 17.5 q4.5 12.5 15 18 q10.5 5.5 13 17 q2.5 11.5 9.5 22 q7 10.5 7 25 q0 14.5 5.5 26 q5.5 11.5 0.5 20.5 q-5 9 -7.5 11 q-2.5 2 -6.5 3 q-4 1 -11 3 q-21 4 -30 12.5 q-9 8.5 -14 13.5 q-11 9 -17.5 3 Z" /><glyph glyph-name="germandbls" unicode="" d="M460 684 q24 28 58 36 q14 4 29 7 q15 3 31 12 q30 17 41.5 17 q11.5 0 18 -2 q6.5 -2 15 -3 q8.5 -1 18.5 -1 q10 0 21 -2 q38 -4 80 -50 q27 -29 33.5 -60 q6.5 -31 5.5 -61 q-1 -38 6 -61.5 q7 -23.5 8.5 -34.5 q1.5 -11 -2.5 -30.5 q-4 -19.5 -13.5 -27.5 q-9.5 -8 -21.5 -10 q-12 -2 -23.5 -1 q-11.5 1 -18.5 1 q-7 0 -9.5 -3.5 q-2.5 -3.5 -4.5 -7.5 q-6 -8 -26.5 -1.5 q-20.5 6.5 -34 26 q-13.5 19.5 -2.5 50.5 q3 10 6 18.5 q3 8.5 1 14.5 q-4 14 -19 15 q-15 1 -29 -10.5 q-14 -11.5 -18 -32 q-4 -20.5 -2.5 -29.5 q1.5 -9 1.5 -19 q0 -10 1 -21 q4 -27 16 -37 q8 -10 18 -9 q10 1 16 1 q6 0 17 -5 q11 -5 22.5 -10 q11.5 -5 21 -16 q9.5 -11 15.5 -14 q6 -3 12 -5 q13 -7 16 -15 q12 -31 8.5 -64.5 q-3.5 -33.5 -5 -43.5 q-1.5 -10 -2.5 -17.5 q-1 -7.5 -2 -13 q-1 -5.5 -1 -16.5 q0 -40 -19 -68 q-9 -17 -23 -25 q-14 -8 -20 -13 q-2 -3 -5 -9 q-3 -6 -7 -13 q-11 -17 -34 -24 q-26 -8 -56 -7.5 q-30 0.5 -46 3.5 q-16 3 -30 14 q-13 13 -21.5 27.5 q-8.5 14.5 -13.5 16 q-5 1.5 -11 1.5 l-12 0 q-17 0 -22 8 q-5 11 -3.5 19.5 q1.5 8.5 0.5 24.5 q-1 16 0 30 q1 14 19 29 q18 15 36 15.5 q18 0.5 23.5 6.5 q5.5 6 9.5 11 q4 5 10 6 q6 1 13 -1 q17 -5 17 -20 q0 -15 0.5 -27.5 q0.5 -12.5 3.5 -22.5 q7 -26 27 -24 q21 2 22 42 q1 11 1 21 q0 49 -19 72 q-11 15 -45.5 32.5 q-34.5 17.5 -49.5 30.5 q-35 30 -45 79 q-12 50 -16.5 55 q-4.5 5 -8 7 q-3.5 2 -10.5 12 q-10 14 -5 34.5 q5 20.5 9 34 q4 13.5 4 29.5 q0 16 -1.5 31.5 q-1.5 15.5 -0.5 31.5 q2 36 27 66 ZM395.5 583 q2.5 -6 1.5 -13 q-1 -7 -14 -24 q-13 -17 -15.5 -36.5 q-2.5 -19.5 -1.5 -32 q1 -12.5 0 -21.5 q-1 -22 -24 -30 q-20 -8 -31 1 q-11 9 -18 23.5 q-7 14.5 -10.5 25 q-3.5 10.5 -11.5 11.5 q-14 3 -21.5 -3 q-7.5 -6 -11.5 -10 q-8 -8 -16.5 -11 q-8.5 -3 -13.5 -6 q-10 -7 -8 -23 q4 -31 69 -94 q12 -12 28.5 -26 q16.5 -14 32.5 -32 q36 -43 40 -97 q4 -55 -16 -96 q-16 -33 -38 -43 q-17 -9 -23 -23.5 q-6 -14.5 -9 -21 q-3 -6.5 -12.5 -11 q-9.5 -4.5 -21.5 -3.5 q-12 1 -22.5 4.5 q-10.5 3.5 -19 8 q-8.5 4.5 -14 5.5 q-5.5 1 -10.5 -3.5 q-5 -4.5 -10 -9.5 q-15 -15 -27 -11.5 q-12 3.5 -28 11.5 q-16 8 -31 20 q-54 42 -37 86 q11 29 24.5 41 q13.5 12 21.5 12 q13 0 17.5 -9.5 q4.5 -9.5 7.5 -16 q3 -6.5 7 -10.5 q4 -4 12.5 -8 q8.5 -4 18.5 -5 q25 -2 38 20 q13 22 10 48 q-7 47 -20 40 q-11 -7 -27 -0.5 q-16 6.5 -17 17 q-1 10.5 -4 20.5 q-3 10 -7 19 q-9 23 -16 25 q-8 2 -21.5 2 q-13.5 0 -29.5 17.5 q-16 17.5 -23 44 q-7 26.5 -12 46 q-5 19.5 -9 30.5 q-4 11 -7 23 q-10 38 -1 98 q6 35 22 61.5 q16 26.5 36 52.5 q38 51 70 71 q32 20 49 4 q15 -13 32.5 -10.5 q17.5 2.5 27.5 5.5 l18 4 q17 4 34.5 -1 q17.5 -5 31.5 -34 q7 -15 14.5 -26 q7.5 -11 14.5 -21 q15 -24 17.5 -39.5 q2.5 -15.5 7 -22.5 q4.5 -7 7 -13 Z" /><glyph glyph-name="aring" unicode="" d="M166 847 q4 10 12 12 q8 2 13 7 q5 5 11 3.5 q6 -1.5 10.5 3.5 q4.5 5 16.5 3 q12 -2 17 1 q5 3 13.5 -1.5 q8.5 -4.5 13 -6 q4.5 -1.5 9 -3.5 q4.5 -2 9.5 -13.5 q5 -11.5 9.5 -15 q4.5 -3.5 5.5 -10.5 q4 -17 3.5 -29 q-0.5 -12 -0.5 -25 q0 -13 -7 -17 q-7 -4 -12 -15 q18 1 42 -10 q47 -29 46 -93 q-1 -20 -5 -51 q-9 -68 12 -117 q16 -37 19.5 -73 q3.5 -36 8 -57 q4.5 -21 5 -33.5 q0.5 -12.5 -0.5 -20.5 q-1 -8 -2.5 -14.5 q-1.5 -6.5 1 -20 q2.5 -13.5 0 -29.5 q-2.5 -16 -5.5 -31 q-11 -46 -9 -65 q4 -34 0 -48.5 q-4 -14.5 -7.5 -23.5 q-3.5 -9 -8 -25 q-4.5 -16 -18.5 -29 q-14 -13 -26.5 -8 q-12.5 5 -16 14.5 q-3.5 9.5 -6 19.5 q-2.5 10 -6 18 q-3.5 8 -12.5 9 q-16 2 -17 18.5 q-1 16.5 0.5 29 q1.5 12.5 -1.5 25.5 q-3 13 -10 25 q-18 31 -42 34 q-36 5 -50 -35 q-3 -10 -4.5 -26.5 q-1.5 -16.5 -8 -29.5 q-6.5 -13 -14 -22 q-7.5 -9 -14 -16.5 q-6.5 -7.5 -8.5 -18.5 q-8 -43 -34 -49 q-10 -3 -22.5 1.5 q-12.5 4.5 -17.5 17 q-5 12.5 -6.5 29 q-1.5 16.5 -0.5 35.5 q1 19 1 37 q0 40 -13 51 q-27 20 -22 102 q5 47 11 75 q10 46 9.5 78 q-0.5 32 2 50 q2.5 18 6 30 q3.5 12 8.5 25 q5 13 9 43 q10 75 18 93.5 q8 18.5 19.5 38.5 q11.5 20 23.5 38 q12 18 35 20 q-1 2 -4 5 q-10 10 -9 31 q1 21 4.5 27 q3.5 6 3 14 q-0.5 8 3.5 11 q8 4 10 7 ZM186 407 q-20 -54 -5 -86 q10 -18 26 -19 q29 -3 34.5 4.5 q5.5 7.5 13 16 q7.5 8.5 5.5 26 q-2 17.5 -3 31 q-1 13.5 -9.5 30.5 q-8.5 17 -11.5 36.5 q-3 19.5 -4 37.5 q-4 40 -18 40 q-10 0 -12.5 -10.5 q-2.5 -10.5 -3.5 -27.5 q-1 -52 -12 -79 ZM223.5 833 q-6.5 0 -7 -3.5 q-0.5 -3.5 -7 -5.5 q-6.5 -2 -6.5 -3.5 q0 -1.5 -4 -8.5 q-4 -7 -3 -9 q1 -2 -2 -13 q-3 -11 1.5 -16 q4.5 -5 9.5 -6.5 q5 -1.5 11.5 -1.5 q6.5 0 11 5 q4.5 5 11 5.5 q6.5 0.5 8 4.5 q1.5 4 3.5 4.5 q2 0.5 4 1.5 q5 3 5 14 q0 12 -11 19 q-18 13 -24.5 13 Z" /><glyph glyph-name="ccedilla" unicode="" d="M141 -201 q-8 0 -8 24 q0 24 8 24 q10 -1 19 5 q9 6 20 1.5 q11 -4.5 28 -9.5 q17 -5 36 2 q32 13 28 31 q-1 7 1 10 q2 3 -6 8 q-8 5 -15.5 15 q-7.5 10 -28 8 q-20.5 -2 -34.5 5.5 q-14 7.5 -16.5 14 q-2.5 6.5 -3.5 14 q-1 7.5 -0.5 14 q0.5 6.5 -0.5 10.5 q-19 3 -27 11 q-8 8 -23 17 q-15 9 -17.5 22.5 q-2.5 13.5 -9.5 21.5 q-7 8 -15 20 q-21 27 -21 64 q0 23 1 38 q1 15 0 26 q0 21 -18 43.5 q-18 22.5 -21 39 q-3 16.5 -5.5 31 q-2.5 14.5 -0.5 28.5 q2 14 4 29 q2 15 7.5 26 q5.5 11 4 22 q-1.5 11 2 18 q3.5 7 6.5 15 q8 22 -2 43.5 q-10 21.5 -10.5 34.5 q-0.5 13 2.5 23.5 q3 10.5 6.5 20 q3.5 9.5 3.5 24.5 q0 15 5.5 35 q5.5 20 28 25.5 q22.5 5.5 25.5 15.5 q3 10 7 21 q3 11 19 24.5 q16 13.5 46.5 18 q30.5 4.5 44 0.5 q13.5 -4 24.5 -16.5 q11 -12.5 21 -14 q10 -1.5 21 0.5 q52 7 104 -22 q18 -10 24 -31 q6 -21 10 -30 q4 -9 7 -19 q5 -23 -4 -55 q-14 -51 0 -79 q12 -29 -6 -52 q-7 -10 -25 -18.5 q-18 -8.5 -34.5 -20 q-16.5 -11.5 -34.5 -17.5 q-4 -12 -7.5 -22 q-3.5 -10 -11.5 -15.5 q-8 -5.5 -18 -2 q-10 3.5 -8 21 q2 17.5 -5.5 24 q-7.5 6.5 -12 10.5 q-4.5 4 -8.5 8 q-4 4 -6 10 q-5 18 2.5 32 q7.5 14 8 21 q0.5 7 -0.5 15 q-3 20 -0.5 34 q2.5 14 -7 24 q-9.5 10 -21 9 q-11.5 -1 -19 -31 q-7.5 -30 -11.5 -74.5 q-4 -44.5 -4.5 -96.5 q-0.5 -52 4.5 -97 q10 -103 36 -105 q26 -2 40 7.5 q14 9.5 22 21.5 q8 12 12.5 22.5 q4.5 10.5 10.5 12.5 q42 14 59 -17 q7 -13 7 -37 q0 -24 -3.5 -35.5 q-3.5 -11.5 -8 -19 q-4.5 -7.5 -8.5 -13.5 q-4 -6 -6 -15.5 q-2 -9.5 -9 -17.5 q-7 -8 -17 -14 q-21 -11 -32 -11 q-32 0 -49 -4 q-6 -13 -4.5 -16 q1.5 -3 6.5 -10 q9 -11 22 -7.5 q13 3.5 26.5 -1 q13.5 -4.5 16.5 -16.5 q0 -2 7 -5 q15 -5 16 -14 q0 -5 4 -10 q5 -6 7 -21 q2 -15 3 -21 q1 -6 0 -9 q0 -5 -3.5 -15 q-3.5 -10 -6.5 -21 q-6 -25 -24 -32 q-10 -3 -19 -14 q-50 -15 -71.5 -11.5 q-21.5 3.5 -35.5 3 q-14 -0.5 -24.5 7 q-10.5 7.5 -24.5 8.5 Z" /><glyph glyph-name="divide" unicode="" d="M243 466 q-50 -22 -83 -6 q-21 10 -16 48 q4 25 18.5 38.5 q14.5 13.5 38.5 20 q24 6.5 41.5 -2 q17.5 -8.5 24.5 -21.5 q7 -13 7 -27 q2 -37 -31 -50 ZM84.5 314 q-19.5 -2 -30.5 -3.5 q-11 -1.5 -24 1.5 q-25 6 -25 29 q0 48 61 46 q31 0 41 2 q18 4 31 4 q13 0 33 -6.5 q20 -6.5 59 -7 q39 -0.5 68 5 q29 5.5 46.5 5.5 q17.5 0 28.5 -0.5 q11 -0.5 19 -3.5 q18 -7 16.5 -26 q-1.5 -19 -5 -25.5 q-3.5 -6.5 -8 -10.5 q-4.5 -4 -10.5 -6.5 q-6 -2.5 -11 -8.5 q-19 0 -43 1 q-24 1 -48 2 q-75 3 -96.5 -2.5 q-21.5 -5.5 -31.5 -7.5 q-10 -2 -19 -2 q-9 0 -18 6 q-14 10 -33.5 8 ZM188 136 q-16 13 -21.5 20 q-5.5 7 -8 23 q-2.5 16 8.5 35 q11 19 16.5 22.5 q5.5 3.5 14.5 6.5 q9 3 20 4 q28 3 43 -13 q5 -5 7.5 -12 q2.5 -7 8.5 -20 q12 -29 -8 -49 q-17 -15 -40.5 -21.5 q-23.5 -6.5 -40.5 4.5 Z" /><glyph glyph-name="dotlessi" unicode="&#x131;" d="M272 553 q-34 -9 -13 -116 q7 -29 7.5 -48.5 q0.5 -19.5 -5.5 -42.5 q-6 -23 -6 -37 q0 -14 -4 -33 q1 -21 -0.5 -42.5 q-1.5 -21.5 -2.5 -41.5 q-3 -49 -1 -58 q2 -9 6.5 -11.5 q4.5 -2.5 10.5 -4.5 q14 -5 17 -13 q3 -8 2.5 -22.5 q-0.5 -14.5 -3.5 -30.5 q-9 -38 -25 -49 q-9 -6 -18.5 -4 q-9.5 2 -20.5 4 q-34 6 -58 -6 q-59 -32 -91 0 q-13 13 -16 40 q-4 49 5.5 63 q9.5 14 16 17.5 q6.5 3.5 11.5 6.5 q11 5 11 17 q0 9 2.5 19.5 q2.5 10.5 4.5 22.5 q5 29 -5 48 q-11 22 -9.5 36 q1.5 14 2.5 25 l4 24 q2 29 -1 49.5 q-3 20.5 -4.5 43 q-1.5 22.5 -1 42.5 q0.5 20 0.5 38 q0 42 -8.5 50 q-8.5 8 -15.5 8.5 q-7 0.5 -14 0.5 q-19 -2 -24 6 q-11 11 -11 28 q0 17 6.5 26 q6.5 9 8.5 20.5 q2 11.5 2 24.5 q2 30 -2 39.5 q-4 9.5 -5.5 17 q-1.5 7.5 -1.5 14.5 q0 29 41 30 q25 1 51 -0.5 q26 -1.5 41 1.5 q52 10 83.5 8 q31.5 -2 40.5 -5 q25 -10 27 -55 q1 -21 1 -44 q0 -23 2 -47 q4 -50 -38 -59 Z" /><glyph glyph-name="Lslash" unicode="&#x141;" d="M204 143 q12 5 26 5 q14 0 22 -4 q8 -4 16 -9 q19 -13 41 -12.5 q22 0.5 37 2 q15 1.5 29 -8.5 q17 -15 15 -50 q-2 -33 -15 -42.5 q-13 -9.5 -24 -9.5 q-11 0 -22 1.5 q-11 1.5 -21 2.5 q-10 1 -17 -5 q-36 -25 -57 -5 q-10 11 -26 10 q-16 -1 -28.5 -6.5 q-12.5 -5.5 -25.5 -9.5 q-59 -22 -80 32 q-4 11 -6.5 20.5 q-2.5 9.5 -5.5 15.5 q-7 14 -4.5 48.5 q2.5 34.5 1 54 q-1.5 19.5 -7.5 44 q-6 24.5 -7 45.5 q-14 -9 -25 -15.5 q-11 -6.5 -21 -4.5 q-26 5 -29 42 q-2 26 17 46 q10 9 22 12 q18 5 33 13 q1 8 5 16.5 q4 8.5 8 17.5 q10 22 8 40.5 q-2 18.5 -6 26 q-4 7.5 -8.5 13 q-4.5 5.5 -8.5 10.5 q-4 5 -4 14 q-9 81 -9 208 q0 11 10 21 q19 19 30 17 q37 -10 66.5 -2.5 q29.5 7.5 51.5 8 q22 0.5 38 -20.5 q36 -50 18 -119 q-5 -16 -4 -30.5 q1 -14.5 -5.5 -31 q-6.5 -16.5 -5.5 -30.5 q1 -14 3 -34 q25 14 34.5 14.5 q9.5 0.5 20 -4.5 q10.5 -5 17.5 -15 q18 -21 6 -43 q-12 -22 -23.5 -28.5 q-11.5 -6.5 -23 -8 q-11.5 -1.5 -22 -0.5 q-10.5 1 -17.5 1 q-3 -9 -10 -21 q-7 -12 -9 -26.5 q-2 -14.5 -1 -31 q1 -16.5 2.5 -34 q1.5 -17.5 0 -38 q-1.5 -20.5 -1.5 -48 q0 -27.5 3 -53.5 Z" /><glyph glyph-name="lslash" unicode="&#x142;" d="M201 469 q33 23 45.5 24 q12.5 1 23 -4 q10.5 -5 18.5 -15 q17 -22 4.5 -44.5 q-12.5 -22.5 -25.5 -28.5 q-13 -6 -26 -7 q-13 -1 -23 1 q-17 3 -22 -9 q-3 -30 -8 -48 q-16 -9 -5 -42 l7 -21 q10 -30 10 -59 q0 -29 -5 -56 q29 -16 41 -17 q29 -4 52.5 8 q23.5 12 34 10 q10.5 -2 15.5 -9 q5 -10 2.5 -30.5 q-2.5 -20.5 -0.5 -34 q2 -13.5 3.5 -26 q1.5 -12.5 1.5 -23.5 q0 -11 -6.5 -18.5 q-6.5 -7.5 -19.5 -12.5 q-13 -5 -29 -7 q-37 -3 -64 11 q-25 13 -47.5 8 q-22.5 -5 -35 -9.5 q-12.5 -4.5 -29 -8.5 q-16.5 -4 -32.5 -3.5 q-16 0.5 -27 18 q-11 17.5 -12 40.5 q-1 23 7 47 q8 24 6 54.5 q-2 30.5 -4 52 q-2 21.5 0 37 q2 15.5 0 27.5 l-1 -1 q-25 -13 -38.5 -23 q-13.5 -10 -25.5 -8 q-27 4 -30 42 q-2 26 17 46 q10 9 23 12 q20 6 36 15 q2 13 7.5 21 q5.5 8 7 13.5 q1.5 5.5 -0.5 19.5 q-8 57 -5.5 88 q2.5 31 -1 53.5 q-3.5 22.5 -1.5 37 q2 14.5 -2 24.5 q-4 10 -2.5 14.5 q1.5 4.5 -0.5 13 q-2 8.5 -4 18.5 q-6 30 -3.5 41 q2.5 11 10 25.5 q7.5 14.5 18.5 17.5 q11 3 13 5 q2 2 10 5 q21 6 31 1 q10 -5 18 -5.5 q8 -0.5 16.5 0 q8.5 0.5 16.5 2.5 l12 2 q21 6 32 -2 q7 -7 10 -11 q3 -4 1 -12 q-2 -8 2 -13 q4 -5 3 -14.5 q-1 -9.5 -0.5 -14 q0.5 -4.5 1.5 -9.5 q2 -10 -2 -24 q-4 -14 -5 -18.5 q-1 -4.5 -1 -8.5 q0 -13 -3.5 -24.5 q-3.5 -11.5 -4 -19 q-0.5 -7.5 -0.5 -17.5 l0 -22 q0 -12 -1 -26 q-3 -22 -3 -49 Z" /><glyph glyph-name="OE" unicode="&#x152;" d="M650 702.5 q4 -4.5 6 -9.5 q2 -5 0.5 -18.5 q-1.5 -13.5 -6 -39.5 q-4.5 -26 -3.5 -40.5 q1 -14.5 1.5 -28 q0.5 -13.5 -0.5 -26.5 q-1 -31 -14 -39 q-13 -8 -19 -10 q-6 -2 -21 8 q-11 5 -31.5 -6 q-20.5 -11 -31 -13 q-10.5 -2 -16.5 7.5 q-6 9.5 -19 15.5 q-13 6 -26 7 q-33 2 -43 -22 q-10 -24 -8 -51.5 q2 -27.5 11 -35.5 q9 -8 18 -7.5 q9 0.5 19 2.5 q29 4 45 -0.5 q16 -4.5 24.5 -23 q8.5 -18.5 6 -45.5 q-2.5 -27 -12.5 -52 q-15 -37 -42 -17 q-34 25 -49 12 q-23 -18 -16 -48 q2 -8 -1 -17 q-3 -9 -6 -19 q-8 -27 2 -48 q10 -21 29.5 -20 q19.5 1 45 9 q25.5 8 49 20.5 q23.5 12.5 32.5 12.5 q9 0 13 -3.5 q4 -3.5 13 -10.5 q26 -23 21 -61 q-13 -96 -41 -100 q-9 -1 -19.5 1 q-10.5 2 -22.5 4 q-12 2 -25.5 2 q-13.5 0 -34 -8.5 q-20.5 -8.5 -45.5 -4 q-25 4.5 -48 12 q-23 7.5 -44 12 q-21 4.5 -35.5 -4 q-14.5 -8.5 -25.5 -18.5 q-24 -20 -66 -20 q-40 0 -56 21 q-8 11 -16.5 22.5 q-8.5 11.5 -17.5 22 q-9 10.5 -21 13.5 q-29 7 -41 43 q-4 12 -5.5 29 q-1.5 17 -2.5 29 q-4 29 -11 36.5 q-7 7.5 -9 16 q-2 8.5 -4 18.5 q-4 25 -8.5 31 q-4.5 6 -7.5 23 q-3 17 -4 38 q-1 52 9 65 q10 13 15.5 22 q5.5 9 7.5 17 q4 12 -1.5 37.5 q-5.5 25.5 0 46 q5.5 20.5 9.5 39.5 q4 19 7.5 28.5 q3.5 9.5 6.5 17.5 q7 14 13 33 q6 19 10.5 26.5 q4.5 7.5 9.5 13.5 q14 15 18 22 q18 31 56 50 q26 13 55.5 13 q29.5 0 49.5 -4 q45 -9 62 -39 q15 12 15 19.5 q0 7.5 4 13.5 q4 6 13 11 q20 11 57 4 q27 -4 45 -15 q25 10 43 6 q18 -4 22.5 -4.5 q4.5 -0.5 9.5 -2.5 q62 21 81 2 q7 -9 12.5 -14 q5.5 -5 9.5 -9.5 ZM273 357 q-1 32 -5 57.5 q-4 25.5 -9.5 38 q-5.5 12.5 -21 12.5 q-15.5 0 -25.5 -9 q-10 -9 -15.5 -22.5 q-5.5 -13.5 -8.5 -30.5 q-8 -37 -6.5 -57 q1.5 -20 0 -31.5 q-1.5 -11.5 -2.5 -20.5 q-2 -22 7 -31 q11 -8 12 -23 q1 -15 1 -24 q0 -9 2.5 -19.5 q2.5 -10.5 16.5 -23.5 q30 -26 41 10 q14 43 14.5 92.5 q0.5 49.5 -0.5 81.5 Z" /><glyph glyph-name="circumflex" unicode="&#x2c6;" d="M100 652 q-4 26 54 63 q30 20 46 33 q16 13 22 16 q10 5 25 -1 q14 -8 22.5 -20.5 q8.5 -12.5 18.5 -15.5 q10 -3 12 -6 q2 -3 3.5 -6 q1.5 -3 4.5 -3.5 q3 -0.5 6 -1.5 q10 -1 16.5 -9.5 q6.5 -8.5 13.5 -10.5 q25 -9 22.5 -24 q-2.5 -15 -13 -25.5 q-10.5 -10.5 -18 -11 q-7.5 -0.5 -15.5 4.5 q-8 5 -19 10 q-11 5 -17 16 q-6 11 -14 13 q-8 2 -13 9 q-5 7 -16.5 9 q-11.5 2 -14.5 4 q-3 2 -10.5 -4.5 q-7.5 -6.5 -11.5 -14.5 q-4 -8 -13 -12.5 q-9 -4.5 -10.5 -13.5 q-1.5 -9 -10 -11 q-8.5 -2 -16 -8 q-7.5 -6 -25.5 -5 q-26 2 -29 26 Z" /><glyph glyph-name="caron" unicode="&#x2c7;" d="M340 694 q-12 -10 -28 -20 q-26 -18 -44 -32 q-18 -14 -24.5 -17 q-6.5 -3 -12 -3 q-5.5 0 -16 6 q-10.5 6 -19.5 18 q-9 12 -18.5 15.5 q-9.5 3.5 -11.5 6.5 q-2 3 -3.5 6 q-1.5 3 -4.5 3.5 q-3 0.5 -6 0.5 q-10 2 -17 10 q-7 8 -14 10.5 q-7 2.5 -15 9.5 q-17 15 6 40 q17 17 34 7 q8 -5 19 -10.5 q11 -5.5 17 -16 q6 -10.5 14 -12.5 q8 -2 13 -9.5 q5 -7.5 16.5 -9.5 q11.5 -2 14.5 -4 q3 -2 10.5 5 q7.5 7 11.5 15 q4 8 13 12.5 q9 4.5 10.5 13 q1.5 8.5 9.5 11.5 q9 2 16.5 8 q7.5 6 25.5 5 q26 -2 28.5 -24.5 q2.5 -22.5 -25.5 -44.5 Z" /><glyph glyph-name="breve" unicode="&#x2d8;" d="M341 758 q12 -2 22.5 -8 q10.5 -6 10.5 -22 q-1 -30 -32 -48 q-2 -7 -7.5 -15 q-5.5 -8 -21.5 -13 q-16 -5 -24 -8.5 q-8 -3.5 -14 -5.5 q-15 -5 -29 -5.5 q-14 -0.5 -24.5 -1 q-10.5 -0.5 -21.5 7.5 q-13 10 -33.5 13.5 q-20.5 3.5 -29 15.5 q-8.5 12 -19 17 q-10.5 5 -16 13.5 q-5.5 8.5 -8.5 17.5 q-5 22 3 30 q19 19 33 14 q4 -2 12 -1 q12 2 15 -7 q8 -23 23 -37 q24 -21 50 -21 q8 0 21 8 q24 15 37 14 q12 23 25 27 q5 20 28 15 Z" /><glyph glyph-name="dotaccent" unicode="&#x2d9;" d="M283.5 669.5 q-10.5 -7.5 -24.5 -18 q-14 -10.5 -34.5 -12 q-20.5 -1.5 -28.5 10 q-8 11.5 -9 11.5 q-1 0 -5.5 5 q-4.5 5 -4.5 15.5 q0 10.5 -3.5 15 q-3.5 4.5 3.5 17 q7 12.5 11.5 16 q4.5 3.5 9.5 8 q5 4.5 12 8.5 q41 22 68 -23 q3 -6 9 -12 q6 -6 6.5 -20 q0.5 -14 -10 -21.5 Z" /><glyph glyph-name="ring" unicode="&#x2da;" d="M171 745 q4 11 12.5 13 q8.5 2 13.5 7 q5 5 11 3.5 q6 -1.5 10 3 q4 4.5 16 3 q12 -1.5 17.5 1 q5.5 2.5 14 -1.5 q8.5 -4 13 -5.5 q4.5 -1.5 9 -3.5 q4.5 -2 9.5 -14 q5 -12 9 -15.5 q4 -3.5 6 -9.5 q3 -16 2.5 -28.5 q-0.5 -12.5 -0.5 -26 q0 -13.5 -8 -18 q-8 -4.5 -13 -16.5 q-5 -12 -16.5 -12.5 q-11.5 -0.5 -18.5 -3.5 q-7 -3 -18.5 -1 q-11.5 2 -17 -2.5 q-5.5 -4.5 -13 0 q-7.5 4.5 -17.5 6 q-10 1.5 -14 6.5 q-4 5 -9 12.5 q-5 7.5 -9 11.5 q-4 4 -6 11.5 q-2 7.5 -3 16.5 q-2 21 3 29.5 q5 8.5 4 16 q-1 7.5 5 11 q6 3.5 8 6.5 ZM208 720 l-6 -15 q0 -2 0 -4 q0 -2 -0.5 -4.5 q-0.5 -2.5 -1.5 -10.5 q-3 -16 11 -19 q5 -2 11 -2 q6 0 11 5 q5 5 11 5.5 q6 0.5 7.5 4.5 q1.5 4 3.5 4.5 q2 0.5 4 1.5 q5 2 5 13 q0 19 -28 29 q-6 3 -10 3 q-4 0 -4.5 -3 q-0.5 -3 -7 -5 q-6.5 -2 -6.5 -3 Z" /><glyph glyph-name="ogonek" unicode="&#x2db;" d="M273 -73 q25 20 40 18 q28 23 46 -10 q5 -9 -8 -24 q-20 -27 -59 -34 q-15 -17 -38 -17 q-23 0 -31.5 -0.5 q-8.5 -0.5 -14.5 -1.5 q-13 0 -27 4 q-14 4 -24 6.5 q-10 2.5 -13 13.5 q-5 19 -22 27 q-9 6 -8.5 19.5 q0.5 13.5 -4 22 q-4.5 8.5 -3.5 18 q1 9.5 6 18.5 q15 31 46 34 q10 1 13 -3.5 q3 -4.5 7 -5 q4 -0.5 7 -0.5 q8 -2 4 -11 q-11 -26 -8 -42 q5 -25 29 -34 q6 -2 22 1 q29 7 41 1 Z" /><glyph glyph-name="tilde" unicode="&#x2dc;" d="M273 707 q7 10 18 10 q11 14 29.5 18 q18.5 4 33.5 1.5 q15 -2.5 23 -11 q8 -8.5 4 -15.5 q-4 -7 -3 -14.5 q1 -7.5 -6.5 -11.5 q-7.5 -4 -25.5 -13 q-18 -9 -28.5 -15 q-10.5 -6 -18.5 -8 q-8 -2 -25 0 q-17 2 -22 2.5 q-5 0.5 -8 1.5 q-14 6 -22 16.5 q-8 10.5 -10 13.5 q-5 4 -18.5 1.5 q-13.5 -2.5 -17.5 -11 q-4 -8.5 -12 -12.5 q-5 -1 -16 -8 q-18 -10 -24 -10 q-6 0 -17.5 4 q-11.5 4 -13.5 10.5 q-2 6.5 -2 13 q0 6.5 -2.5 13 q-2.5 6.5 -5 10.5 q-2.5 4 2.5 12 q5 8 8.5 9 q3.5 1 10 6.5 q6.5 5.5 15 7 q8.5 1.5 16 5.5 q7.5 4 19.5 11 q18 12 29 1 q9 9 21.5 4.5 q12.5 -4.5 20 -6.5 q7.5 -2 7.5 -8.5 q0 -6.5 8 -15.5 q8 -9 12.5 -9 q4.5 0 19.5 -3 Z" /><glyph glyph-name="hungarumlaut" unicode="&#x2dd;" d="M123.5 637 q-13.5 -14 -27.5 -11.5 q-14 2.5 -22.5 13.5 q-8.5 11 -2.5 29.5 q6 18.5 18 25.5 q36 21 42.5 30.5 q6.5 9.5 16 17 q9.5 7.5 20.5 13.5 q30 15 37 11.5 q7 -3.5 16 -6 q9 -2.5 11.5 -19 q2.5 -16.5 -5.5 -27.5 q-8 -11 -12.5 -12.5 q-4.5 -1.5 -9.5 -5.5 q-5 -4 -10 -8 q-13 -10 -19 -6 q-3 2 -10 -5.5 q-7 -7.5 -9 -16.5 q-2 -5 -11 -7 q-9 -2 -22.5 -16 ZM287.5 637 q-13.5 -14 -27.5 -11.5 q-14 2.5 -22.5 13.5 q-8.5 11 -2.5 29.5 q6 18.5 18 25.5 q36 21 42.5 30.5 q6.5 9.5 16 17 q9.5 7.5 20.5 13.5 q28 15 36 11.5 q8 -3.5 17 -6 q9 -2.5 11 -19 q2 -16.5 -5.5 -27.5 q-7.5 -11 -12 -12.5 q-4.5 -1.5 -9.5 -5.5 q-5 -4 -10 -8 q-13 -10 -19 -6 q-3 2 -10 -5.5 q-7 -7.5 -9 -16.5 q-2 -5 -11 -7 q-9 -2 -22.5 -16 Z" /><glyph glyph-name="endash" unicode="&#x2013;" d="M14 309 q-19 19 -2 51 q20 40 68 29 q34 -8 57.5 -3.5 q23.5 4.5 30.5 0.5 q7 -4 12.5 -3 q5.5 1 13.5 3 q24 6 52 6 q19 0 37.5 1.5 q18.5 1.5 34.5 2.5 q39 2 53 -4 q20 -12 22 -30 q4 -34 -18 -47 q-22 -13 -36.5 -11.5 q-14.5 1.5 -26 7.5 q-11.5 6 -20 13 q-8.5 7 -14 7 q-5.5 0 -9.5 -3 q-4 -3 -9 -7 q-13 -9 -32 -9 q-19 0 -25 -1.5 q-6 -1.5 -11 -4.5 q-11 -5 -28 -5 q-18 0 -31 0 q-18 0 -46 1.5 q-28 1.5 -44.5 -0.5 q-16.5 -2 -28.5 7 Z" /><glyph glyph-name="emdash" unicode="&#x2014;" d="M5 344 q0 61 67 55 q38 -3 56 -7 q34 -6 47.5 -6 q13.5 0 27.5 -0.5 q14 -0.5 27 1 q13 1.5 26 1.5 q13 0 26 0 q31 2 43.5 5 q12.5 3 27.5 1.5 q15 -1.5 31 -3.5 q16 -2 30 -4 q14 -2 23 0 q8 -2 18.5 -1 q10.5 1 21 2 q10.5 1 21 1 q10.5 0 23 -3.5 q12.5 -3.5 25.5 -4.5 q29 -2 34 -25 q5 -21 -7 -30 q-5 -4 -8 -11 q-3 -7 -12.5 -11 q-9.5 -4 -18 -3 q-8.5 1 -17.5 -2 q-9 -3 -30.5 -3 q-21.5 0 -49.5 4 q-12 -5 -33.5 -1 q-21.5 4 -40 2.5 q-18.5 -1.5 -28.5 -2.5 q-10 -1 -21 -1 q-22 0 -52 7 q-17 4 -27 4 q-10 0 -17 -1 q-24 -3 -43 -0.5 q-19 2.5 -29.5 -1 q-10.5 -3.5 -16.5 0 q-6 3.5 -14 0 q-8 -3.5 -17.5 -1.5 q-9.5 2 -13 1 q-3.5 -1 -7.5 -2 q-23 -9 -56 13 q-15 10 -16 27 Z" /><glyph glyph-name="quoteleft" unicode="&#x2018;" d="M17 660.5 q1 2.5 2.5 5.5 q1.5 3 2.5 11.5 q1 8.5 4.5 13 q3.5 4.5 6.5 12.5 q3 8 6 10 q3 2 6 10 q4 8 9.5 9 q5.5 1 12.5 8 q19 27 38 2 q8 -10 0 -19.5 q-8 -9.5 -11 -12.5 q-6 -6 -8 -6 q-15 -6 -17 -24 q-1 -7 4 -14 q8 4 12.5 1 q4.5 -3 13.5 -2 q9 1 13 -5.5 q4 -6.5 11 -9.5 q7 -3 8.5 -14.5 q1.5 -11.5 -0.5 -24.5 q-5 -33 -23 -41 q-9 -4 -17 -8 q-11 -6 -18 -2.5 q-7 3.5 -15 0 q-8 -3.5 -10 0.5 q-2 4 -5.5 5 q-3.5 1 -7.5 3 q-11 4 -13 13.5 q-2 9.5 -3.5 12 q-1.5 2.5 -2.5 3.5 q-1 3 -1 16.5 q0 13.5 1.5 17 q1.5 3.5 0 12 q-1.5 8.5 -1 12 q0.5 3.5 1.5 6 Z" /><glyph glyph-name="quoteright" unicode="&#x2019;" d="M127 696 l-2 -26 q0 -2 1.5 -11.5 q1.5 -9.5 -1.5 -12.5 q-3 -3 -4 -14 q-1 -11 -4.5 -16 q-3.5 -5 -7 -13 q-3.5 -8 -6.5 -9.5 q-3 -1.5 -6.5 -9.5 q-3.5 -8 -9.5 -9.5 q-6 -1.5 -11 -8.5 q-11 -14 -23 -12 q-10 0 -14 7.5 q-4 7.5 -4 13.5 q0 6 7.5 15.5 q7.5 9.5 9.5 11 q2 1.5 11 5 q9 3.5 10 16 q1 12.5 -3 19.5 q-9 -5 -13.5 -2 q-4.5 3 -13.5 2 q-9 -1 -12.5 5 q-3.5 6 -11 9.5 q-7.5 3.5 -9 15 q-1.5 11.5 1.5 24.5 q6 34 23.5 41.5 q17.5 7.5 21 11 q3.5 3.5 11.5 -0.5 q8 -4 16 -1 q8 3 10 -0.5 q2 -3.5 5.5 -4.5 q3.5 -1 8.5 -2 q9 -4 11.5 -14.5 q2.5 -10.5 4 -12.5 q1.5 -2 2.5 -3 q1 -3 1 -14 Z" /><glyph glyph-name="quotesinglbase" unicode="&#x201a;" d="M125 71 q0 0 4 -33 q0 -27 -9 -43.5 q-9 -16.5 -14 -30.5 q-10 -27 -33 -37 q-14 -7 -19.5 -5.5 q-5.5 1.5 -10 7.5 q-4.5 6 -1.5 17 q4 19 24 20 q7 1 7 12 q0 17 3.5 21 q3.5 4 1.5 9 q-14 -3 -21 0 l-11 4 q-3 2 -11 1.5 q-8 -0.5 -16.5 7.5 q-8.5 8 -8.5 22 q0 14 1.5 18 q1.5 4 3.5 15 q3 15 11.5 22.5 q8.5 7.5 17 14 q8.5 6.5 22 5.5 q13.5 -1 18.5 -6 q5 -5 12.5 -9.5 q7.5 -4.5 18.5 -10 q11 -5.5 10 -21.5 Z" /><glyph glyph-name="quotedblleft" unicode="&#x201c;" d="M17 660.5 q1 2.5 2.5 5.5 q1.5 3 2.5 11.5 q1 8.5 4.5 13 q3.5 4.5 6.5 12.5 q3 8 6 10 q3 2 6 10 q4 8 9.5 9 q5.5 1 12.5 8 q19 27 38 2 q8 -10 0 -19.5 q-8 -9.5 -11 -12.5 q-6 -6 -8 -6 q-15 -6 -17 -24 q-1 -7 4 -14 q8 4 12.5 1 q4.5 -3 13.5 -2 q9 1 13 -5.5 q4 -6.5 11 -9.5 q7 -3 8.5 -14.5 q1.5 -11.5 -0.5 -24.5 q-5 -33 -23 -41 q-9 -4 -17 -8 q-11 -6 -18 -2.5 q-7 3.5 -15 0 q-8 -3.5 -10 0.5 q-2 4 -5.5 5 q-3.5 1 -7.5 3 q-11 4 -13 13.5 q-2 9.5 -3.5 12 q-1.5 2.5 -2.5 3.5 q-1 3 -1 16.5 q0 13.5 1.5 17 q1.5 3.5 0 12 q-1.5 8.5 -1 12 q0.5 3.5 1.5 6 ZM147 601 l-3 34 q0 24 9.5 41.5 q9.5 17.5 14.5 31.5 q8 24 33 37 q14 8 18.5 6 q4.5 -2 9.5 -8 q5 -6 2.5 -16.5 q-2.5 -10.5 -10 -15.5 q-7.5 -5 -14.5 -6 q-7 -1 -7 -12 q0 -15 -3 -19 q-3 -4 -2.5 -5.5 q0.5 -1.5 0.5 -3.5 q15 2 25 -2.5 q10 -4.5 16 -4.5 q25 0 27 -29 q0 -14 -2 -18.5 q-2 -4.5 -4 -14.5 q-3 -16 -11 -23.5 q-8 -7.5 -16.5 -13.5 q-8.5 -6 -22 -5 q-13.5 1 -19 6 q-5.5 5 -13 9.5 q-7.5 4.5 -18 10 q-10.5 5.5 -10.5 21.5 Z" /><glyph glyph-name="quotedblright" unicode="&#x201d;" d="M258 696 l-2 -26 q0 -2 1.5 -11.5 q1.5 -9.5 -1.5 -12.5 q-3 -3 -4 -14 q-1 -11 -4.5 -16 q-3.5 -5 -7 -13 q-3.5 -8 -6.5 -9.5 q-3 -1.5 -6.5 -9.5 q-3.5 -8 -9.5 -9.5 q-6 -1.5 -11 -8.5 q-11 -14 -23 -12 q-10 0 -14 7.5 q-4 7.5 -4 13.5 q0 6 7.5 15.5 q7.5 9.5 9.5 11 q2 1.5 10.5 4.5 q8.5 3 11.5 22 q0 4 -4 14 q-9 -5 -13.5 -2 q-4.5 3 -13.5 2 q-9 -1 -12.5 5 q-3.5 6 -11 9.5 q-7.5 3.5 -9 15 q-1.5 11.5 0.5 24.5 q5 33 23 41 q9 4 14 7 q5 3 8 4.5 q3 1.5 5.5 1.5 q2.5 0 8.5 -3 q6 -3 14 0 q8 3 10 -0.5 q2 -3.5 5.5 -4.5 q3.5 -1 7.5 -2 q10 -4 12.5 -14.5 q2.5 -10.5 4 -12.5 q1.5 -2 1.5 -3 q2 -3 2 -14 ZM125 706 l4 -34 q0 -26 -9 -43 q-9 -17 -14 -30 q-11 -27 -33 -37 q-14 -7 -19.5 -5.5 q-5.5 1.5 -10 7 q-4.5 5.5 -1.5 16.5 q4 20 24 22 q7 0 7 11 q0 17 3.5 21 q3.5 4 1.5 9 q-14 -3 -21 0 q-7 3 -10.5 4.5 q-3.5 1.5 -11.5 1 q-8 -0.5 -16.5 7.5 q-8.5 8 -8.5 22 q0 14 1.5 18 q1.5 4 3.5 15 q3 15 11.5 22.5 q8.5 7.5 17 14 q8.5 6.5 22 5.5 q13.5 -1 18.5 -6.5 q5 -5.5 12.5 -9.5 q7.5 -4 18.5 -9.5 q11 -5.5 10 -21.5 Z" /><glyph glyph-name="quotedblbase" unicode="&#x201e;" d="M258 61 l-2 -25 q0 -3 1.5 -12.5 q1.5 -9.5 -1.5 -12.5 q-3 -3 -4 -14 q-1 -11 -4.5 -16 q-3.5 -5 -7 -13 q-3.5 -8 -6.5 -9.5 q-3 -1.5 -6.5 -9.5 q-3.5 -8 -9.5 -9 q-6 -1 -11 -8 q-10 -15 -23 -13 q-10 0 -14 7.5 q-4 7.5 -4 13.5 q0 6 7.5 15.5 q7.5 9.5 9.5 11 q2 1.5 8 3.5 q9 3 14 23 q0 4 -4 14 q-9 -5 -13.5 -2 q-4.5 3 -13.5 2 q-9 -1 -12.5 5.5 q-3.5 6.5 -11 10 q-7.5 3.5 -9 14.5 q-1.5 11 0.5 24 q5 33 23 41 q9 4 14 7 q5 3 8 4.5 q3 1.5 5.5 1.5 q2.5 0 8.5 -2.5 q6 -2.5 14 0.5 q8 3 10 -1 q2 -4 5.5 -5 q3.5 -1 7.5 -3 q11 -3 13 -13.5 q2 -10.5 3.5 -12.5 q1.5 -2 1.5 -3 q2 -3 2 -14 ZM125 71 l4 -33 q0 -27 -9 -43.5 q-9 -16.5 -14 -30.5 q-10 -27 -33 -37 q-14 -7 -19.5 -5.5 q-5.5 1.5 -10 7.5 q-4.5 6 -1.5 17 q4 19 24 20 q7 1 7 12 q0 17 3.5 21 q3.5 4 1.5 9 q-14 -3 -21 0 l-11 4 q-3 2 -11 1.5 q-8 -0.5 -16.5 7.5 q-8.5 8 -8.5 22 q0 14 1.5 18 q1.5 4 3.5 15 q3 15 11.5 22.5 q8.5 7.5 17 14 q8.5 6.5 22 5.5 q13.5 -1 18.5 -6 q5 -5 12.5 -9.5 q7.5 -4.5 18.5 -10 q11 -5.5 10 -21.5 Z" /><glyph glyph-name="bullet" unicode="&#x2022;" d="M72 239 q-11 -1 -22 5.5 q-11 6.5 -17 24.5 q-6 18 -11.5 35.5 q-5.5 17.5 -6.5 37.5 q-2 43 22 88 q11 23 43 28 q60 9 80 -61 q9 -33 4 -55 q-2 -9 -0.5 -16 q1.5 -7 2.5 -13 q3 -16 -4.5 -25 q-7.5 -9 -14 -12 q-6.5 -3 -13.5 -5 q-18 -6 -24 -12.5 q-6 -6.5 -16.5 -12.5 q-10.5 -6 -21.5 -7 Z" /><glyph glyph-name="ellipsis" unicode="&#x2026;" d="M7.5 18 q-3.5 7 -2 15 q1.5 8 16 21 q14.5 13 37 25 q22.5 12 60.5 7 q18 -2 29 -21 q8 -16 5.5 -28.5 q-2.5 -12.5 -9.5 -21 q-7 -8.5 -16 -15.5 q-18 -13 -32 -15 q-14 -2 -19.5 -8.5 q-5.5 -6.5 -18 -3.5 q-12.5 3 -16 12.5 q-3.5 9.5 -11.5 12.5 q-8 3 -14 8 q-6 5 -9.5 12 ZM212.5 18 q-3.5 7 -2 15 q1.5 8 11 16.5 q9.5 8.5 19.5 16 q10 7.5 22 12.5 q24 12 47 9.5 q23 -2.5 30 -8.5 q7 -6 12 -14 q20 -36 -19 -65 q-18 -12 -32 -14.5 q-14 -2.5 -19.5 -9 q-5.5 -6.5 -18 -3.5 q-12.5 3 -16.5 12.5 q-4 9.5 -11.5 12.5 q-7.5 3 -13.5 8 q-6 5 -9.5 12 ZM417 18 q-3 7 -1.5 15 q1.5 8 16 21 q14.5 13 36.5 25 q22 12 60 7 q18 -2 28 -21 q21 -36 -18 -65 q-18 -12 -34 -15 q-6 -1 -14 -6 q-14 -9 -24 -6 q-10 3 -14 12.5 q-4 9.5 -11.5 12.5 q-7.5 3 -14 8 q-6.5 5 -9.5 12 Z" /><glyph glyph-name="perthousand" unicode="&#x2030;" d="M716 349 q12 -3 16 -2.5 q4 0.5 15 -2 q11 -2.5 22.5 -18 q11.5 -15.5 13 -39.5 q1.5 -24 3 -35 q1.5 -11 2.5 -22 q1 -11 1 -25 q0 -14 -3 -38 q-3 -24 -14.5 -53.5 q-11.5 -29.5 -27.5 -55.5 q-38 -58 -70 -66 q-52 -9 -103 16 q-11 5 -14.5 15 q-3.5 10 -12.5 19 q-13 13 -18 49 q-31 -63 -65 -88 q-29 -22 -85 -9 q-48 10 -55 29 q-4 10 -12.5 18.5 q-8.5 8.5 -11.5 20 q-3 11.5 -5 24.5 q-2 13 -3 26 q-1 13 -2.5 23.5 q-1.5 10.5 1.5 20 q3 9.5 7.5 17 q4.5 7.5 9.5 14.5 q5 7 10 20 q5 13 21.5 30 q16.5 17 27.5 32 q11 15 16.5 25 q5.5 10 11.5 19 q14 21 35 28 q35 13 50.5 9 q15.5 -4 19.5 -3.5 q4 0.5 14.5 -2 q10.5 -2.5 22.5 -18 q12 -15.5 14 -42.5 q2 -27 3.5 -40 q1.5 -13 1.5 -31 q9 14 23.5 29 q14.5 15 24 28.5 q9.5 13.5 15 23.5 q5.5 10 11.5 19 q14 21 35 28 q34 13 54 8 ZM472 737 q15 -4 28 -19 q13 -15 14.5 -36.5 q1.5 -21.5 -5.5 -33 q-7 -11.5 -17 -19 q-10 -7.5 -19 -13 q-9 -5.5 -11.5 -12 q-2.5 -6.5 -1.5 -13.5 q1 -7 1 -15 q0 -19 -16 -35 l-13 -17 q-6 -7 -10 -13.5 q-4 -6.5 -12 -14.5 q-22 -22 -29 -38.5 q-7 -16.5 -18 -29 q-11 -12.5 -27.5 -35 q-16.5 -22.5 -25.5 -40 q-9 -17.5 -23.5 -30 q-14.5 -12.5 -18 -30 q-3.5 -17.5 -6.5 -29.5 q-6 -30 -30 -52 q-22 -22 -33 -97 q-11 -79 -51 -121 q-16 -17 -37 -18.5 q-21 -1.5 -34 6 q-13 7.5 -17 20.5 q-10 28 16 67 q7 11 8.5 19 q1.5 8 10.5 17 q9 9 14 11.5 q5 2.5 7 14.5 q2 12 12 22 q10 10 14 28.5 q4 18.5 13 29 q9 10.5 14 26 q5 15.5 12.5 22 q7.5 6.5 15.5 20 q8 13.5 10.5 19 q2.5 5.5 4.5 10.5 q6 13 18 29 q12 16 20 30.5 q8 14.5 15 25.5 q14 31 22.5 42 q8.5 11 19.5 23.5 q11 12.5 23 27.5 q29 38 40 68 q11 34 46 124 q-19 19 -66 -4 q-54 -26 -60 -26.5 q-6 -0.5 -15 -0.5 q-9 0 -19 2 q3 -16 2 -25.5 q-1 -9.5 1 -18 q2 -8.5 -1 -22.5 q-3 -14 -0.5 -25 q2.5 -11 -4.5 -27 q-7 -16 -12 -32.5 q-5 -16.5 -14.5 -29 q-9.5 -12.5 -19 -23 q-9.5 -10.5 -18.5 -19 q-9 -8.5 -16.5 -21 q-7.5 -12.5 -28 -21.5 q-20.5 -9 -43 -6 q-22.5 3 -38.5 14 q-16 11 -27 26 q-26 33 -26 61.5 q0 28.5 2 50 q2 21.5 16 44.5 q-18 110 70 161 q30 18 51 16 q59 -4 85 -47 q21 -10 46 -3.5 q25 6.5 47 15 q22 8.5 43 16.5 q45 18 52 22 q7 4 22 0 q15 -4 28 -18 ZM74.5 516.5 q4.5 -18.5 19 -35 q14.5 -16.5 27.5 -14.5 q13 2 25 16 q12 14 22 32 q31 56 10 73 q-16 14 -19.5 32 q-3.5 18 -10.5 26 q-14 13 -20 2 q-2 -4 -6.5 -15 q-4.5 -11 -16.5 -27.5 q-12 -16.5 -17 -30.5 q-5 -14 -11.5 -27 q-6.5 -13 -2 -31.5 ZM454 243 q-11 1 -18.5 -4 q-7.5 -5 -19.5 -13 q-12 -8 -18.5 -8 q-6.5 0 -9.5 -8 q-3 -8 -10.5 -9.5 q-7.5 -1.5 -11.5 -13.5 q-4 -12 -5.5 -34.5 q-1.5 -22.5 6.5 -36.5 q3 -8 3.5 -13.5 q0.5 -5.5 1.5 -9.5 q4 -8 18 -13 q18 -6 44 21 q25 27 25 45 q0 6 3.5 15.5 q3.5 9.5 7.5 20.5 q13 43 -16 61 ZM689 243 q-10 1 -17.5 -4 q-7.5 -5 -19.5 -13 q-12 -8 -18.5 -8 q-6.5 0 -9.5 -8 q-3 -8 -11 -9.5 q-8 -1.5 -11.5 -13.5 q-3.5 -12 -5 -34.5 q-1.5 -22.5 3.5 -33.5 q5 -11 5.5 -16.5 q0.5 -5.5 2.5 -9.5 q2 -8 18 -13 q17 -6 42.5 21 q25.5 27 25.5 45 q0 6 4 15.5 q4 9.5 8 20.5 q13 43 -17 61 Z" /><glyph glyph-name="guilsinglleft" unicode="&#x2039;" d="M179 398 q26 36 45 20 q6 -5 6 -14 q0 -9 -7.5 -20.5 q-7.5 -11.5 -6.5 -19.5 q-16 -20 -27 -34.5 q-11 -14.5 -19 -23.5 l-15 -18 q-60 -68 -60 -89 q0 -26 35 -72 q9 -11 17.5 -19.5 q8.5 -8.5 8.5 -15 q0 -6.5 8 -12.5 q8 -6 21.5 -21.5 q13.5 -15.5 15.5 -32 q2 -16.5 1 -19.5 q-1 -3 -1 -8 q0 -8 -10 -11 q-10 -3 -17 6 q-10 13 -30 31 q-19 14 -51 63 q-4 6 -12 14 l-17 17 q-23 23 -34 42 q-10 14 -18 23 q-8 9 -6.5 25 q1.5 16 17.5 30.5 q16 14.5 29.5 25.5 q13.5 11 24 28 q10.5 17 26.5 33 q17 14 38 31.5 q21 17.5 38 40.5 Z" /><glyph glyph-name="guilsinglright" unicode="&#x203a;" d="M14 364 q1 8 -6.5 19.5 q-7.5 11.5 -7.5 20.5 q0 9 6 14 q20 16 45 -20 q17 -23 38 -40.5 q21 -17.5 38 -31.5 q16 -16 27 -33 q11 -17 24.5 -28 q13.5 -11 29 -25.5 q15.5 -14.5 17 -30.5 q1.5 -16 -6.5 -25 q-8 -9 -19.5 -27.5 q-11.5 -18.5 -32.5 -37.5 q-21 -19 -31 -35 q-27 -43 -49 -59 l-16 -15 q-7 -8 -13.5 -16.5 q-6.5 -8.5 -16.5 -5.5 q-10 3 -10 11 q0 5 -1 8 q-1 3 1 19.5 q2 16.5 15 32 q13 15.5 19.5 20 q6.5 4.5 8 7.5 q1.5 3 2.5 6 q3 11 9.5 17.5 q6.5 6.5 15 17.5 q8.5 11 16.5 23 q19 30 19 43.5 q0 13.5 -6.5 25 q-6.5 11.5 -15.5 24 q-9 12.5 -19.5 24.5 q-10.5 12 -17.5 20 q-7 8 -16 18 q-19 23 -46 59 Z" /><glyph glyph-name="fraction" unicode="&#x2044;" d="M111.5 41 q-5.5 -18 -11 -30.5 q-5.5 -12.5 -17.5 -16.5 q-29 -10 -48 5 q-10 8 -16 12.5 q-6 4.5 -4 17 q2 12.5 4 22 q2 9.5 9 17.5 q12 12 17 34 q1 3 6 9 q5 6 11 13 q16 20 18.5 35.5 q2.5 15.5 8.5 26 q6 10.5 7.5 16.5 q1.5 6 7 12 q5.5 6 12.5 13 q18 18 23 33 q5 15 15.5 24.5 q10.5 9.5 14 20 q3.5 10.5 11.5 20 q8 9.5 13.5 18.5 q5.5 9 16 19.5 q10.5 10.5 21.5 23.5 q30 33 33 46 q3 13 9.5 20 q6.5 7 10 19.5 q3.5 12.5 10 20.5 q6.5 8 8.5 19 q2 11 5.5 17 q3.5 6 9 16.5 q5.5 10.5 13 23 q7.5 12.5 11.5 21 q4 8.5 13.5 22.5 q9.5 14 11 20 q1.5 6 5.5 13 q4 7 9 14 q12 19 12.5 30 q0.5 11 8 15.5 q7.5 4.5 9.5 14 q2 9.5 8.5 13 q6.5 3.5 17.5 12 q11 8.5 20.5 5 q9.5 -3.5 11 -9.5 q1.5 -6 5 -10.5 q3.5 -4.5 5.5 -9.5 q6 -14 -4.5 -29 q-10.5 -15 -15.5 -26.5 q-5 -11.5 -8.5 -21.5 q-3.5 -10 -6 -19 q-2.5 -9 -11 -24 q-8.5 -15 -14 -24.5 q-5.5 -9.5 -12 -20.5 q-6.5 -11 -13 -19 q-6.5 -8 -10 -13 q-3.5 -5 -8 -11 q-4.5 -6 -9.5 -13 q-10 -17 -12 -23 q-4 -16 -16.5 -32.5 q-12.5 -16.5 -18.5 -26 q-6 -9.5 -11 -19.5 q-14 -24 -18 -30 q-4 -6 -14 -22 q-10 -16 -21 -33 q-11 -17 -21 -32 l-14 -21 q-38 -56 -62.5 -107.5 q-24.5 -51.5 -25.5 -62.5 q-1 -11 -8 -20 q-7 -9 -12.5 -27 Z" /><glyph glyph-name="Euro" unicode="&#x20ac;" d="M52 420 l-1 68 q0 45 4 58.5 q4 13.5 14.5 23.5 q10.5 10 15.5 23.5 q5 13.5 12 19.5 q7 6 13 18 q13 26 32 36 q30 16 45.5 16 q15.5 0 18 -1.5 q2.5 -1.5 4.5 -3 q2 -1.5 4.5 -1.5 q2.5 0 10.5 2 q11 3 23.5 0 q12.5 -3 22 -1.5 q9.5 1.5 17 -1 q7.5 -2.5 16 -2.5 q8.5 0 14 -6 q5.5 -6 11.5 -10 q14 -8 17 -25 q6 -2 8 -11.5 q2 -9.5 7 -16.5 q5 -7 3 -17.5 q-2 -10.5 -9 -17 q-7 -6.5 -10.5 -12.5 q-3.5 -6 -6.5 -13 q-7 -15 -14 -21 q-17 -11 -26 -9 q-34 7 -45 24 q-8 11 -18.5 18.5 q-10.5 7.5 -26 3 q-15.5 -4.5 -20.5 -8 q-5 -3.5 -7.5 -9 q-2.5 -5.5 -5 -14 q-2.5 -8.5 -7.5 -20.5 q-7 -17 -8 -27 q-1 -13 -4 -22.5 q-3 -9.5 -2.5 -22 q0.5 -12.5 -2 -24.5 q-2.5 -12 0.5 -15 q3 -3 8.5 -3.5 q5.5 -0.5 12 1 q6.5 1.5 14.5 2 q8 0.5 30.5 -2 q22.5 -2.5 45.5 1.5 q23 4 37.5 6 q14.5 2 19.5 -7 q11 -18 -10 -34 q-3 -2 -7 -6 q-4 -4 -11 -7 q-14 -7 -41 -2 q-64 10 -100 -6 q0 -24 2.5 -38.5 q2.5 -14.5 16 -11.5 q13.5 3 21.5 3 l17 0 q6 0 22.5 3 q16.5 3 25.5 2.5 q9 -0.5 18 -5.5 q10 -7 10 -13.5 q0 -6.5 -5 -10.5 q-5 -4 -9 -8 q-4 -4 -12 -8.5 q-8 -4.5 -34 0.5 q-63 12 -65 -5 q-1 -8 2 -21.5 q3 -13.5 3 -25 q0 -11.5 9.5 -25.5 q9.5 -14 20 -15 q10.5 -1 14 -6 q3.5 -5 12 -6 q8.5 -1 18.5 -2 q10 -1 22 0 q31 2 59 19 q30 0 38 -17 q4 -10 5.5 -14 q1.5 -4 -2.5 -12 q-4 -8 -4.5 -18.5 q-0.5 -10.5 -12.5 -14.5 q-39 -13 -46 -23 q-15 -21 -56 -6 q-14 6 -25 4.5 q-11 -1.5 -18.5 -1.5 q-7.5 0 -22.5 3 q-15 3 -26.5 5 q-11.5 2 -18 6.5 q-6.5 4.5 -11.5 14.5 q-5 10 -25 18 q-19 8 -21.5 22 q-2.5 14 -7 28.5 q-4.5 14.5 -9 29 q-4.5 14.5 -2.5 25.5 q1 11 -0.5 20 q-1.5 9 -12.5 6.5 q-11 -2.5 -19.5 -5.5 q-8.5 -3 -13.5 6 q-5 9 -7.5 11.5 q-2.5 2.5 -4 4.5 q-1.5 2 -1.5 4.5 q0 2.5 1.5 10.5 q1.5 8 3.5 6.5 q2 -1.5 7 3.5 q5 5 6.5 4 q1.5 -1 7 -4.5 q5.5 -3.5 16 -3 q10.5 0.5 13.5 6 q3 5.5 4.5 14 q1.5 8.5 1.5 17.5 q0 24 -6 29.5 q-6 5.5 -19.5 3.5 q-13.5 -2 -21.5 5 q-8 7 -11.5 11 q-3.5 4 1.5 13 q5 9 10.5 14 q5.5 5 22.5 3 q22 -1 20 22 Z" /><glyph glyph-name="trademark" unicode="&#x2122;" d="M58 671 q22 11 66 -1 q13 8 30 11.5 q17 3.5 28 -2.5 q39 -4 49.5 3 q10.5 7 18 5.5 q7.5 -1.5 18.5 -1.5 q11 0 18 -1 q7 -1 13 -9 q8 1 10 -5.5 q2 -6.5 3.5 -18 q1.5 -11.5 6.5 -15 q5 -3.5 8 -16.5 q2 -8 9 -5 q7 3 10.5 12.5 q3.5 9.5 4.5 15.5 q1 6 5 13 q5 7 5.5 12.5 q0.5 5.5 6 7.5 q5.5 2 16.5 -1 q11 -3 18 2 q7 5 14 1 q7 -4 17 -2 q28 6 33 -29 q0 -3 0 -5.5 q0 -2.5 -0.5 -4.5 q-0.5 -2 1 -11.5 q1.5 -9.5 -2 -17.5 q-3.5 -8 -3 -21.5 q0.5 -13.5 -6.5 -32 q-7 -18.5 -9 -38 q-2 -19.5 -3 -28 q-1 -8.5 -1.5 -16 q-0.5 -7.5 -0.5 -15.5 l0 -22 q0 -6 -1 -11.5 q-1 -5.5 -1.5 -13 q-0.5 -7.5 -2.5 -14.5 q-11 -11 -18.5 -10.5 q-7.5 0.5 -10.5 5.5 q-3 5 -7.5 9.5 q-4.5 4.5 -6.5 16 q-2 11.5 0 20.5 q6 28 2.5 39 q-3.5 11 -1 16.5 q2.5 5.5 1 10 q-1.5 4.5 -1.5 10.5 q0 6 0 12 q0 14 -8 16 q-5 1 -6 -3 q-1 -4 -2 -9 q-1 -16 -5 -18.5 q-4 -2.5 -5 -16.5 q-1 -14 -6 -22 q-5 -8 -7 -18.5 q-2 -10.5 -3 -21.5 q-3 -18 -3 -32 q0 -14 -5.5 -20 q-5.5 -6 -11.5 -6 q-6 0 -9.5 8 q-3.5 8 -8 12 q-4.5 4 -4.5 11.5 q0 7.5 0 16.5 q2 24 -4 32 q-6 8 -9.5 19 q-3.5 11 -5.5 21 q-5 24 -13 24 q-16 0 -13 -45 q1 -18 2 -34.5 q1 -16.5 -3.5 -26 q-4.5 -9.5 -6 -19.5 q-1.5 -10 -15 -7 q-13.5 3 -15.5 10 q-2 7 -7.5 16.5 q-5.5 9.5 -3.5 21 q2 11.5 -2.5 20 q-4.5 8.5 -3.5 26 q1 17.5 -1 31 q-2 13.5 1 24.5 q7 23 -4 30 q-4 3 -19.5 1.5 q-15.5 -1.5 -19 -9.5 q-3.5 -8 -4 -19 q-0.5 -11 -3 -19 q-2.5 -8 -5.5 -14 q-7 -15 -5 -36 q4 -50 -12 -70 q-5 -8 -16 -9 q-11 -1 -16 3.5 q-5 4.5 -6.5 12 q-1.5 7.5 -2 16.5 q-0.5 9 -8.5 21 q-8 12 -6 27.5 q2 15.5 1.5 27 q-0.5 11.5 0.5 21.5 q1 10 1 19 q2 23 -3 25.5 q-5 2.5 -10 1.5 q-5 -1 -10 -3 q-29 -11 -47 5 q-12 10 -6 55 q1 8 -4 16 q-11 17 -4 29 q7 12 25 13 q18 1 31 -10 Z" /><glyph glyph-name="minus" unicode="&#x2212;" d="M14 309 q-19 19 -2 51 q20 40 68 29 q34 -8 57.5 -3.5 q23.5 4.5 30.5 0.5 q7 -4 12.5 -3 q5.5 1 13.5 3 q24 6 52 6 q19 0 37.5 1.5 q18.5 1.5 34.5 2.5 q39 2 53 -4 q20 -12 22 -30 q4 -34 -18 -47 q-22 -13 -36.5 -11.5 q-14.5 1.5 -26 7.5 q-11.5 6 -20 13 q-8.5 7 -14 7 q-5.5 0 -9.5 -3 q-4 -3 -9 -7 q-13 -9 -32 -9 q-19 0 -25 -1.5 q-6 -1.5 -11 -4.5 q-11 -5 -28 -5 q-18 0 -31 0 q-18 0 -46 1.5 q-28 1.5 -44.5 -0.5 q-16.5 -2 -28.5 7 Z" /><glyph glyph-name="fi" unicode="&#xfb01;" d="M202 403 q0 -28 29 -28 q7 0 13 1.5 q6 1.5 20.5 4.5 q14.5 3 27 -5.5 q12.5 -8.5 19 -12.5 q6.5 -4 10.5 -9 q7 -9 6.5 -33.5 q-0.5 -24.5 -10.5 -45 q-10 -20.5 -45 -25.5 q-35 -5 -52.5 -15 q-17.5 -10 -21 -33 q-3.5 -23 -8.5 -32 q-5 -9 -6 -20 q-1 -11 -5.5 -23.5 q-4.5 -12.5 -3 -23.5 q1.5 -11 1 -29.5 q-0.5 -18.5 -5.5 -36.5 q-12 -44 -43 -44 q-12 0 -18.5 12.5 q-6.5 12.5 -11 29.5 q-4.5 17 -9 36 q-4.5 19 -16.5 39.5 q-12 20.5 -13.5 46.5 q-1.5 26 -1.5 51 l0 48 q0 88 -20 110 q-13 13 -11 50 l0 28 q0 15 5 24 q12 26 6.5 73 q-5.5 47 -10.5 72.5 q-5 25.5 -0.5 48.5 q4.5 23 6 36 q1.5 13 10 25 q8.5 12 15 13.5 q6.5 1.5 15.5 0.5 q12 -1 21 8 q33 33 62 15 q12 -8 24.5 -17 q12.5 -9 27.5 -16 q15 -7 34.5 -5 q19.5 2 38.5 6 q19 4 38 2 q48 -3 70 -44 q15 -28 11.5 -58.5 q-3.5 -30.5 -6.5 -49.5 q-3 -19 -3 -31.5 q0 -12.5 -1 -15.5 q-1 -3 -2 -5 q-4 -11 -5 -30 q-1 -19 -4 -28 q-9 -23 -35 -23 q-17 0 -29 6 q-24 12 -34 13 q-14 2 -19 16 q-2 5 -4 10.5 q-2 5.5 -6 10 q-4 4.5 -8.5 12 q-4.5 7.5 -18.5 5.5 q-28 -4 -26 -32 l2 -58 l0 -25 ZM677 553 q-19 -5 -21 -46 q-2 -33 6.5 -66 q8.5 -33 9 -52.5 q0.5 -19.5 -6 -42.5 q-6.5 -23 -6 -36.5 q0.5 -13.5 -4.5 -33.5 q1 -21 -0.5 -42.5 q-1.5 -21.5 -2.5 -41.5 q-3 -49 -1 -58 q2 -9 6.5 -11.5 q4.5 -2.5 10.5 -4.5 q15 -6 17.5 -13.5 q2.5 -7.5 2 -22 q-0.5 -14.5 -3.5 -30.5 q-9 -38 -25 -49 q-9 -6 -18.5 -4 q-9.5 2 -20.5 4 q-34 6 -58 -6 q-59 -32 -91 0 q-13 13 -16 40 q-4 50 9 67 q7 12 18.5 17 q11.5 5 14.5 8 q3 3 3 12 q0 9 2.5 19.5 q2.5 10.5 4.5 22.5 q5 29 -5 48 q-11 21 -10 35.5 q1 14.5 3 25 q2 10.5 4 32 q2 21.5 -1 42 q-3 20.5 -5 43 q-2 22.5 -1.5 42.5 q0.5 20 0.5 38 q0 42 -10 52 q-8 8 -21.5 7 q-13.5 -1 -20 -0.5 q-6.5 0.5 -13.5 9 q-7 8.5 -7 25.5 q0 17 6 26 q6 9 8 20.5 q2 11.5 2 24.5 q2 30 -2 39.5 q-4 9.5 -5 17 q-1 7.5 -1 14.5 q0 19 12.5 24.5 q12.5 5.5 27.5 6 q15 0.5 30.5 0 q15.5 -0.5 31 -1.5 q15.5 -1 30.5 2 q52 10 84 8 q32 -2 40 -5 q26 -11 28 -55 q1 -21 1 -44 q0 -23 2 -47 q4 -50 -38 -59 Z" /><glyph glyph-name="fl" unicode="&#xfb02;" d="M202 403 q0 -28 29 -28 q7 0 13 1.5 q6 1.5 20.5 4.5 q14.5 3 27 -5.5 q12.5 -8.5 19 -12.5 q6.5 -4 10.5 -9 q7 -9 6.5 -33.5 q-0.5 -24.5 -10.5 -45 q-10 -20.5 -45 -25.5 q-35 -5 -52.5 -15 q-17.5 -10 -21 -33 q-3.5 -23 -8.5 -32 q-5 -9 -6 -20 q-1 -11 -5.5 -23.5 q-4.5 -12.5 -3 -23.5 q1.5 -11 1 -29.5 q-0.5 -18.5 -5.5 -36.5 q-12 -44 -43 -44 q-12 0 -18.5 12.5 q-6.5 12.5 -11 29.5 q-4.5 17 -9 36 q-4.5 19 -16.5 39.5 q-12 20.5 -13.5 46.5 q-1.5 26 -1.5 51 l0 48 q0 88 -20 110 q-13 13 -11 50 l0 28 q0 15 5 24 q12 26 6.5 73 q-5.5 47 -10.5 72.5 q-5 25.5 -0.5 48.5 q4.5 23 6 36 q1.5 13 10 25 q8.5 12 15 13.5 q6.5 1.5 15.5 0.5 q12 -1 21 8 q33 33 62 15 q12 -8 24.5 -17 q12.5 -9 27.5 -16 q15 -7 34.5 -5 q19.5 2 38.5 6 q19 4 38 2 q48 -3 70 -44 q15 -28 11.5 -58.5 q-3.5 -30.5 -6.5 -49.5 q-3 -19 -3 -31.5 q0 -12.5 -1 -15.5 q-1 -3 -2 -5 q-4 -11 -5 -30 q-1 -19 -4 -28 q-9 -23 -35 -23 q-17 0 -29 6 q-24 12 -34 13 q-14 2 -19 16 q-2 5 -4 10.5 q-2 5.5 -6 10 q-4 4.5 -8.5 12 q-4.5 7.5 -18.5 5.5 q-28 -4 -26 -32 l2 -58 l0 -25 ZM743.5 151.5 q4.5 -7.5 4 -18 q-0.5 -10.5 -2.5 -21.5 q-2 -11 0 -24.5 q2 -13.5 3.5 -26 q1.5 -12.5 1.5 -23.5 q0 -11 -6.5 -18.5 q-6.5 -7.5 -19 -12.5 q-12.5 -5 -28.5 -7 q-37 -3 -64 11 q-25 13 -48 8 q-23 -5 -35.5 -9.5 q-12.5 -4.5 -28.5 -8.5 q-16 -4 -32 -3.5 q-16 0.5 -27 18 q-11 17.5 -12 40.5 q-1 23 7 47 q8 24 6 54.5 q-2 30.5 -4 52 q-2 21.5 0 37.5 q5 38 -6 49 q-15 16 -15 34 q0 18 1 29 q1 11 7 19 q6 8 8 14 q2 6 -3.5 41.5 q-5.5 35.5 -2.5 66 q3 30.5 -1 53 q-4 22.5 -2 37 q2 14.5 -2 24.5 q-4 10 -2.5 14.5 q1.5 4.5 -0.5 13 q-2 8.5 -4 18.5 q-6 30 -3.5 41 q2.5 11 10 25.5 q7.5 14.5 19.5 16.5 q11 4 12.5 6 q1.5 2 10.5 5 q21 5 34 -1 q16 -8 43 -2 q27 6 33.5 6.5 q6.5 0.5 14 -6 q7.5 -6.5 11 -10.5 q3.5 -4 1 -12 q-2.5 -8 2 -13 q4.5 -5 3.5 -14.5 q-1 -9.5 -0.5 -14 q0.5 -4.5 1.5 -9.5 q2 -10 -2.5 -24 q-4.5 -14 -5 -18.5 q-0.5 -4.5 -0.5 -8.5 q0 -10 -4 -23 q-4 -13 -4.5 -20.5 q-0.5 -7.5 -0.5 -17.5 l0 -22 q0 -12 -1.5 -30 q-1.5 -18 -3 -42.5 q-1.5 -24.5 -3.5 -49.5 q-3 -63 -8 -84 q-16 -9 -5 -42 q6 -17 13.5 -49.5 q7.5 -32.5 -2.5 -86.5 q28 -16 41 -17 q28 -4 52.5 8 q24.5 12 35 10 q10.5 -2 15 -9.5 Z" /></font>
</defs>
</svg>
