<?xml version="1.0" standalone="no"?><!DOCTYPE svg PUBLIC "-//W3C//DTD SVG 1.1//EN" "http://www.w3.org/Graphics/SVG/1.1/DTD/svg11.dtd" ><svg xmlns="http://www.w3.org/2000/svg"><metadata></metadata><defs><font id="1.004;STC ;Fruktur-Regular" horiz-adv-x="2834"><font-face font-family="Fruktur" font-weight="400" font-stretch="normal" units-per-em="2048" panose-1="0 0 5 0 0 0 0 0 0 0" ascent="2020" descent="-540" x-height="0" bbox="-429 -537 2774 2020" underline-thickness="262" underline-position="20" unicode-range="U+0000-fb02" /><missing-glyph horiz-adv-x="1703" d="M291 0 q-33 0 -51 20.5 q-18 20.5 -18 57.5 l0 1376 q0 37 17.5 58 q17.5 21 48.5 21 l1117 0 q38 0 57 -20 q19 -20 19 -56 l0 -1381 q0 -36 -19 -56 q-19 -20 -57 -20 l-1114 0 ZM1261 413 q17 17 17 35 q0 20 -17 35 l-284 284 l275 276 q21 21 21 40 q0 13 -12 25 l-67 69 q-14 15 -32 15 q-19 0 -32 -15 l-281 -282 l-287 288 q-14 14 -32 14 q-16 0 -29 -13 l-61 -58 q-15 -15 -15 -32 q0 -17 15 -32 l287 -289 l-285 -285 q-14 -12 -14 -31 q0 -19 17 -36 l55 -55 q18 -19 38 -19 q22 0 41 21 l276 277 l281 -279 q20 -20 40 -20 q18 0 33 15 l52 52 Z" /><glyph glyph-name="NULL" unicode="" d="" /><glyph glyph-name="nonmarkingreturn" unicode="" d="" /><glyph glyph-name="space" unicode=" " d="" /><glyph glyph-name="A" unicode="a" d="M1025 1366 q135 -669 178.5 -931.5 q43.5 -262.5 43.5 -352.5 q0 -18 -2 -48 q-87 -54 -209 -54 q-76 0 -142.5 22 q-66.5 22 -101.5 59 l81 272 l-19 87 l-54 0 q-124 7 -254 18 q-18 -149 -40 -240 q-22 -91 -77.5 -154.5 q-55.5 -63.5 -156.5 -63.5 q-88 0 -163 43 q-75 43 -103 117 l45 163 l132 -11 l174 875 q-159 22 -230 49 q3 87 36.5 184 q33.5 97 91.5 149 q369 -61 770 -183 ZM802 655 l-104 476 l-86 7 q-5 -87 -16.5 -227 q-11.5 -140 -26.5 -278 l233 22 Z" /><glyph glyph-name="Aogonek" unicode="&#x104;" d="M1245 34 q-19 -14 -68 -46 q-76 -49 -123.5 -85.5 q-47.5 -36.5 -66.5 -72.5 l14 -13 l196 67 l47 -127 q-51 -100 -113.5 -147.5 q-62.5 -47.5 -148.5 -47.5 q-48 0 -106.5 33.5 q-58.5 33.5 -99.5 83.5 q-41 50 -41 96 q0 55 55 109 q55 54 141 108 q-94 21 -139 69 l81 272 l-19 87 l-54 0 q-124 7 -254 18 q-18 -149 -40 -240 q-22 -91 -77.5 -154.5 q-55.5 -63.5 -156.5 -63.5 q-88 0 -163 43 q-75 43 -103 117 l45 163 l132 -11 l174 875 q-159 22 -230 49 q3 87 36.5 184 q33.5 97 91.5 149 q369 -61 770 -183 q135 -669 178.5 -931.5 q43.5 -262.5 43.5 -352.5 q0 -18 -2 -48 ZM802 655 l-104 476 l-86 7 q-5 -87 -16.5 -227 q-11.5 -140 -26.5 -278 l233 22 Z" /><glyph glyph-name="AE" unicode="æ" d="M1640 474 q17 -44 27.5 -108 q10.5 -64 10.5 -128 q0 -118 -65.5 -188 q-65.5 -70 -185.5 -70 q-114 0 -303 27.5 q-189 27.5 -288 60.5 q-27 27 -44 57 q-17 30 -30 66 l49 229 l-11 0 q-124 7 -254 18 q-18 -149 -40 -240 q-22 -91 -77.5 -154.5 q-55.5 -63.5 -156.5 -63.5 q-88 0 -163 43 q-75 43 -103 117 l45 163 l132 -11 l172 866 q-162 22 -228 48 q2 55 17 121 q15 66 43.5 126.5 q28.5 60.5 67.5 95.5 l464 -129 q45 66 105 109 l344 -74 l369 94 q47 -27 71 -86 q24 -59 24 -132 q0 -80 -29 -149.5 q-29 -69.5 -78 -106.5 q-167 20 -445 99 l17 -323 q114 13 189 26 q75 13 185 36 q3 1 79 17 q40 -61 40 -152 q0 -61 -16 -117.5 q-16 -56.5 -35 -76.5 q-30 -3 -60 -3 q-103 0 -200.5 20 q-97.5 20 -173.5 63 l-14 -345 l287 -20 l82 190 l180 -15 ZM569 633 q86 9 243 23 l-102 466 l-56 5 l-43 3 q-4 -84 -15.5 -222 q-11.5 -138 -26.5 -275 Z" /><glyph glyph-name="B" unicode="b" d="M1276 611 q13 -55 13 -114 q0 -110 -45 -214 q-45 -104 -125 -183.5 q-80 -79.5 -183 -116.5 q-54 -6 -109 -6 q-122 0 -283 19 q-161 19 -276.5 52.5 q-115.5 33.5 -115.5 74.5 q0 16 7 40 q24 88 60 207 q-24 48 -54.5 262.5 q-30.5 214.5 -54 450.5 q-23.5 236 -23.5 298 q0 10 1 12 q45 61 120.5 98.5 q75.5 37.5 156.5 37.5 q93 0 165 -49 l-95 -497 l29 -14 l227 562 q71 17 130 17 q42 0 103.5 -15.5 q61.5 -15.5 129.5 -48 q68 -32.5 125 -80.5 q-3 -134 -28.5 -313 q-25.5 -179 -63.5 -354 l-13 -58 q169 -27 202 -68 ZM740 1151 q-74 -149 -192 -405 q62 -2 218 -9 q8 109 14 229 q6 120 7 177 l-47 8 ZM866 222 q11 51 11 52 q12 55 16.5 86.5 q4.5 31.5 4.5 66.5 q0 27 -3 63 l-401 83 q-20 -120 -29 -229 q87 -50 196 -83 q109 -33 205 -39 Z" /><glyph glyph-name="C" unicode="c" d="M510 1170 q5 -62 5 -138 q0 -155 -14.5 -366 q-14.5 -211 -30.5 -346 q38 5 91 24 q53 19 177 67 q106 41 160 61 l75 -167 q-37 -63 -114 -134 q-77 -71 -180.5 -125 q-103.5 -54 -213.5 -66 q-47 0 -110.5 35 q-63.5 35 -121.5 80 q-33 26 -48 48.5 q-15 22.5 -19 48.5 q-12 241 -24 421 q-27 422 -53 558 q-6 34 -6 115 q12 46 57.5 99 q45.5 53 107.5 97.5 q62 44.5 121 66.5 q47 -9 130.5 -38 q83.5 -29 128.5 -52 l316 22 q13 -62 13 -122 q0 -88 -24.5 -163.5 q-24.5 -75.5 -58 -124.5 q-33.5 -49 -59.5 -61 q-144 60 -281 182 l-24 -22 Z" /><glyph glyph-name="Ccedilla" unicode="ç" d="M973 305 q-39 -68 -124 -144 q-85 -76 -190 -125 l116 -181 q-22 -86 -95.5 -157.5 q-73.5 -71.5 -167.5 -103.5 q-18 -2 -30 -2 q-49 0 -99 19 q-50 19 -88.5 45 q-38.5 26 -55.5 48 q-1 7 -1 21 q0 34 7 74 q7 40 16 71 q62 -15 135.5 -27 q73.5 -12 117.5 -12 l-68 150 q-46 7 -103.5 40.5 q-57.5 33.5 -109.5 73.5 q-33 26 -48 48.5 q-15 22.5 -19 48.5 q-12 241 -24 421 q-27 422 -53 558 q-6 34 -6 115 q12 46 57.5 99 q45.5 53 107.5 97.5 q62 44.5 121 66.5 q47 -9 130.5 -38 q83.5 -29 128.5 -52 l316 22 q13 -62 13 -122 q0 -88 -24.5 -163.5 q-24.5 -75.5 -58 -124.5 q-33.5 -49 -59.5 -61 q-144 60 -281 182 l-24 -22 q5 -62 5 -138 q0 -155 -14.5 -366 q-14.5 -211 -30.5 -346 q38 5 91 24 q53 19 177 67 q106 41 160 61 l75 -167 Z" /><glyph glyph-name="D" unicode="d" d="M1242 1226 q7 -60 9.5 -99.5 q2.5 -39.5 2.5 -130.5 q0 -78 -14 -249 q-14 -171 -35 -332.5 q-21 -161.5 -39 -224.5 q-10 -36 -84 -83 q-74 -47 -168.5 -84 q-94.5 -37 -158.5 -44 q-73 40 -135 104 q-62 64 -86 117 q-55 -94 -112 -154.5 q-57 -60.5 -134 -65.5 q-41 20 -87 75 q-46 55 -79 122 q-33 67 -37 122 l89 124 q38 14 97 14 l33 0 q-32 188 -49.5 341.5 q-17.5 153.5 -33.5 340.5 l-8 91 l-183 16 q8 111 36.5 193 q28.5 82 98.5 130 l712 -60 q94 -44 195.5 -115.5 q101.5 -71.5 169.5 -147.5 ZM855 586 q0 363 -17 543 l-242 51 l-36 -783 l17 -3 l271 -82 q7 142 7 274 Z" /><glyph glyph-name="Eth" unicode="ð" d="M1242 1226 q7 -60 9.5 -99.5 q2.5 -39.5 2.5 -130.5 q0 -78 -14 -249 q-14 -171 -35 -332.5 q-21 -161.5 -39 -224.5 q-10 -36 -84 -83 q-74 -47 -168.5 -84 q-94.5 -37 -158.5 -44 q-73 40 -135 104 q-62 64 -86 117 q-55 -94 -112 -154.5 q-57 -60.5 -134 -65.5 q-41 20 -87 75 q-46 55 -79 122 q-33 67 -37 122 l89 124 q38 14 97 14 l33 0 q-19 109 -33 207 q-50 1 -182 5 q-22 59 -22 113 q0 37 8 72 l169 33 q-11 103 -22 234 l-9 109 l-183 16 q8 111 36.5 193 q28.5 82 98.5 130 l712 -60 q94 -44 195.5 -115.5 q101.5 -71.5 169.5 -147.5 ZM855 586 q0 363 -17 543 l-242 51 l-12 -272 l149 14 q25 -47 25 -115 q0 -43 -11 -84 q-11 -41 -30 -68 q-51 -4 -145 -8 l-12 -250 l17 -3 l271 -82 q7 142 7 274 Z" /><glyph glyph-name="E" unicode="e" d="M903 1549 q47 -27 71 -86 q24 -59 24 -132 q0 -82 -28.5 -157 q-28.5 -75 -76.5 -112 q-74 7 -159.5 27.5 q-85.5 20.5 -265.5 69.5 l-44 12 l39 -320 q114 13 189 26 q75 13 185 36 q3 1 79 17 q40 -61 40 -152 q0 -61 -16 -117.5 q-16 -56.5 -35 -76.5 q-30 -3 -60 -3 q-103 0 -200.5 20 q-97.5 20 -173.5 63 l-14 -355 l287 -10 l82 190 l180 -15 q15 -41 26.5 -126.5 q11.5 -85.5 11.5 -154.5 q-40 -81 -104.5 -136.5 q-64.5 -55.5 -146.5 -76.5 q-130 4 -319.5 31.5 q-189.5 27.5 -300.5 56.5 q-79 94 -93 196 l158 417 l-243 584 q0 65 49 141.5 q49 76.5 114 121.5 l333 -73 l412 94 Z" /><glyph glyph-name="Eogonek" unicode="&#x118;" d="M856 2 q-90 -60 -142.5 -100 q-52.5 -40 -70.5 -72 l14 -13 l196 67 l47 -127 q-51 -100 -113.5 -147.5 q-62.5 -47.5 -148.5 -47.5 q-48 0 -106.5 33.5 q-58.5 33.5 -99.5 83.5 q-41 50 -41 96 q0 56 57 111.5 q57 55.5 145 109.5 q-115 13 -231 32.5 q-116 19.5 -189 39.5 q-79 94 -93 196 l158 417 l-243 584 q0 65 49 141.5 q49 76.5 114 121.5 l333 -73 l412 94 q47 -27 71 -86 q24 -59 24 -132 q0 -82 -28.5 -157 q-28.5 -75 -76.5 -112 q-74 7 -159.5 27.5 q-85.5 20.5 -265.5 69.5 l-44 12 l39 -320 q114 13 189 26 q75 13 185 36 q3 1 79 17 q40 -61 40 -152 q0 -61 -16 -117.5 q-16 -56.5 -35 -76.5 q-30 -3 -60 -3 q-103 0 -200.5 20 q-97.5 20 -173.5 63 l-14 -355 l287 -10 l82 190 l180 -15 q15 -41 26.5 -126.5 q11.5 -85.5 11.5 -154.5 q-32 -65 -80 -114 q-48 -49 -108 -77 Z" /><glyph glyph-name="F" unicode="f" d="M532 828 q101 15 169 27.5 q68 12.5 173 34.5 q6 1 68 14 q21 -31 31 -73 q10 -42 10 -85 q0 -61 -16 -117.5 q-16 -56.5 -35 -76.5 q-30 -5 -74 -5 q-78 0 -157 22 q-79 22 -151 63 l-5 -5 q40 -111 61 -198 q21 -87 21 -176 q0 -29 -3 -59 q-5 -61 -57.5 -110 q-52.5 -49 -125.5 -76.5 q-73 -27.5 -136 -27.5 q-58 0 -113 31 q-55 31 -96.5 76 q-41.5 45 -63.5 87 l65 137 l233 0 l-308 942 q-1 7 -1 22 q0 64 30 141.5 q30 77.5 76 124.5 l449 -94 l354 102 q46 -24 70 -84 q24 -60 24 -135 q0 -80 -27 -151 q-27 -71 -76 -104 q-197 28 -468 106 l79 -353 Z" /><glyph glyph-name="G" unicode="g" d="M1050 499 l64 -476 q-24 -17 -66.5 -30 q-42.5 -13 -82.5 -13 q-69 1 -127 17 q-58 16 -93 51 q4 52 19 159 l17 129 l-24 11 q-58 -133 -142.5 -250 q-84.5 -117 -168.5 -117 q-42 0 -87 32 q-55 29 -126 83 q-33 26 -48 48.5 q-15 22.5 -19 48.5 q-12 241 -24 421 q-19 294 -49 558 q-3 30 -6 62.5 q-3 32.5 -4 52.5 q12 46 57.5 99 q45.5 53 107.5 97.5 q62 44.5 121 66.5 q49 -7 163.5 -41.5 q114.5 -34.5 158.5 -57.5 l343 31 q13 -62 13 -122 q0 -88 -24.5 -163.5 q-24.5 -75.5 -58 -124.5 q-33.5 -49 -59.5 -61 q-78 16 -190 68 q-112 52 -181 114 l-24 -22 q5 -62 5 -138 q0 -155 -14.5 -366 q-14.5 -211 -30.5 -346 l-1 -37 l3 -1 q28 -1 94 49.5 q66 50.5 161 133.5 l37 32 q-35 103 -48 187 q-13 84 -13 131 q19 10 66.5 18.5 q47.5 8.5 101.5 8.5 q92 0 158.5 -29.5 q66.5 -29.5 118.5 -92.5 l-98 -221 Z" /><glyph glyph-name="H" unicode="h" d="M1309 177 q-18 -43 -56.5 -89 q-38.5 -46 -93.5 -77 q-55 -31 -116 -31 q-70 0 -124.5 30 q-54.5 30 -85.5 86 q-31 56 -32 132 q-1 67 6 131.5 q7 64.5 23 166.5 l9 55 q-259 16 -348 28 l0 -2 q24 -114 41 -271.5 q17 -157.5 26 -316.5 q-32 -21 -72.5 -30 q-40.5 -9 -94.5 -9 q-87 0 -152 21.5 q-65 21.5 -106 60.5 q8 153 34.5 321.5 q26.5 168.5 62.5 272.5 q-37 111 -64.5 253.5 q-27.5 142.5 -60.5 347.5 l-23 142 q19 30 67 60 q48 30 114.5 50 q66.5 20 136.5 20 q100 0 166 -40 l-59 -689 q70 11 168 24 q98 13 163 20 q-35 144 -64 292.5 q-29 148.5 -44 263.5 q20 30 68 60 q48 30 113.5 50 q65.5 20 135.5 20 q104 0 169 -40 l-78 -1174 l136 3 l35 -142 Z" /><glyph glyph-name="Hbar" unicode="&#x126;" d="M1309 1009 q-29 -2 -125 -5 l-46 -688 l136 3 l35 -142 q-18 -43 -56.5 -89 q-38.5 -46 -93.5 -77 q-55 -31 -116 -31 q-70 0 -124.5 30 q-54.5 30 -85.5 86 q-31 56 -32 132 q-1 67 6 131.5 q7 64.5 23 166.5 l9 55 q-259 16 -348 28 l0 -2 q24 -114 41 -271.5 q17 -157.5 26 -316.5 q-32 -21 -72.5 -30 q-40.5 -9 -94.5 -9 q-87 0 -152 21.5 q-65 21.5 -106 60.5 q8 153 34.5 321.5 q26.5 168.5 62.5 272.5 q-42 125 -80 334 l-119 3 q-13 37 -18.5 56 q-5.5 19 -5.5 39 q0 26 10 60 l103 18 q-3 19 -7 43 q-4 24 -8 53 l-23 137 q19 30 67 60 q48 30 114.5 50 q66.5 20 136.5 20 q100 0 166 -40 l-23 -271 l213 17 q-17 98 -26 165 q20 30 68 60 q48 30 113.5 50 q65.5 20 135.5 20 q104 0 169 -40 l-15 -220 l127 10 q27 -43 27 -102 q0 -79 -46 -169 ZM838 844 q-12 49 -34 151 q-88 -2 -280 -4 l-17 -191 q70 11 168 24 q98 13 163 20 Z" /><glyph glyph-name="I" unicode="i" d="M82 1399 q19 30 67 60 q48 30 114.5 50 q66.5 20 136.5 20 q100 0 166 -40 l-78 -906 q25 -119 43.5 -269 q18.5 -150 26.5 -295 q-32 -21 -72.5 -30 q-40.5 -9 -94.5 -9 q-87 0 -152 21.5 q-65 21.5 -106 60.5 q8 153 34.5 321.5 q26.5 168.5 62.5 272.5 q-37 111 -64.5 253.5 q-27.5 142.5 -60.5 347.5 l-23 142 Z" /><glyph glyph-name="Iogonek" unicode="&#x12e;" d="M585 -243 q-51 -100 -113.5 -147.5 q-62.5 -47.5 -148.5 -47.5 q-48 0 -106.5 33.5 q-58.5 33.5 -99.5 83.5 q-41 50 -41 96 q0 96 197 217 q-89 21 -140 70 q8 153 34.5 321.5 q26.5 168.5 62.5 272.5 q-37 111 -64.5 253.5 q-27.5 142.5 -60.5 347.5 l-23 142 q19 30 67 60 q48 30 114.5 50 q66.5 20 136.5 20 q100 0 166 -40 l-78 -906 q25 -119 43.5 -269 q18.5 -150 26.5 -295 l-2 -1 q-15 -10 -21 -13 q-76 -49 -130 -91 q-54 -42 -77 -84 l14 -13 l196 67 l47 -127 Z" /><glyph glyph-name="J" unicode="j" d="M777 1153 l-62 -335 l161 -602 q-33 -127 -124.5 -228 q-91.5 -101 -220.5 -145 q-21 -3 -43 -3 q-73 0 -156.5 18 q-83.5 18 -148.5 46 q-65 28 -87 56 q-2 26 -2 37 q0 32 13 90 q13 58 35 111.5 q22 53.5 48 77.5 q45 -27 130 -84 q76 -50 121.5 -78 q45.5 -28 64.5 -35 l-65 647 l3 434 l-132 16 l0 -216 l-166 -36 q-31 32 -63.5 92.5 q-32.5 60.5 -54 132 q-21.5 71.5 -21.5 135.5 q0 77 29.5 132.5 q29.5 55.5 79.5 84 q50 28.5 111 28.5 q53 0 130 -20.5 q77 -20.5 151 -52 q74 -31.5 120 -61.5 q38 57 95.5 104 q57.5 47 124.5 50 q55 -41 90 -125 q35 -84 35 -171 q0 -59 -16 -103 q-14 -8 -37.5 -12.5 q-23.5 -4.5 -48.5 -4.5 q-62 0 -89 20 l-5 0 Z" /><glyph glyph-name="K" unicode="k" d="M1324 350 q0 -73 -28 -149.5 q-28 -76.5 -66 -131.5 q-30 -44 -76 -66 q-46 -22 -103 -22 q-57 0 -122 21 q-56 17 -95 69 q-39 52 -69 130 q-39 105 -62 261 q-116 9 -194 17 q47 -261 59 -460 q-60 -39 -177 -39 q-88 0 -157.5 22 q-69.5 22 -110.5 60 q7 144 38 314 q31 170 69 280 q-37 111 -64.5 253.5 q-27.5 142.5 -60.5 347.5 l-23 142 q19 30 67 60 q48 30 114.5 50 q66.5 20 136.5 20 q100 0 166 -40 l-72 -834 l106 12 q63 119 128.5 274.5 q65.5 155.5 84.5 241.5 l-141 50 q12 111 56.5 197.5 q44.5 86.5 113.5 118.5 q49 0 121 -18 q72 -18 144.5 -58 q72.5 -40 120.5 -101 q-16 -137 -117.5 -329.5 q-101.5 -192.5 -232.5 -377.5 q115 -222 193 -299 q57 20 135 86 l118 -102 Z" /><glyph glyph-name="L" unicode="l" d="M1079 625 q13 -36 22.5 -107.5 q9.5 -71.5 9.5 -148.5 q0 -168 -55.5 -278.5 q-55.5 -110.5 -193.5 -110.5 q-144 0 -358 170 q-94 -161 -246 -170 q-41 20 -87 75 q-46 55 -79 122 q-33 67 -37 122 l89 124 q38 14 97 14 l33 0 q-32 185 -49.5 338 q-17.5 153 -33.5 339 q-7 81 -14.5 157 q-7.5 76 -16.5 128 q19 30 67 60 q48 30 114.5 50 q66.5 20 136.5 20 q48 0 87 -9.5 q39 -9.5 74 -30.5 l-105 -1080 l13 -1 l253 -48 l95 289 l184 -24 Z" /><glyph glyph-name="Ldot" unicode="&#x13f;" d="M639 1489 q-35 21 -74 30.5 q-39 9.5 -87 9.5 q-66 0 -128.5 -18 q-62.5 -18 -111.5 -46 q30 74 45.5 116.5 q15.5 42.5 33.5 99.5 q70 0 140.5 -20.5 q70.5 -20.5 125 -69 q54.5 -48.5 71.5 -127.5 q-8 -19 -21 -40 l6 65 ZM1079 625 q13 -36 22.5 -107.5 q9.5 -71.5 9.5 -148.5 q0 -168 -55.5 -278.5 q-55.5 -110.5 -193.5 -110.5 q-144 0 -358 170 q-94 -161 -246 -170 q-41 20 -87 75 q-46 55 -79 122 q-33 67 -37 122 l89 124 q38 14 97 14 l33 0 q-32 185 -49.5 338 q-17.5 153 -33.5 339 q-7 81 -14.5 157 q-7.5 76 -16.5 128 q23 35 78 66 l-30 -73 q9 -31 42.5 -63.5 q33.5 -32.5 80.5 -55.5 q47 -23 94 -26 q56 24 114.5 72.5 q58.5 48.5 93.5 104.5 l-99 -1015 l13 -1 l253 -48 l95 289 l184 -24 Z" /><glyph glyph-name="Lslash" unicode="&#x141;" d="M1079 625 q13 -36 22.5 -107.5 q9.5 -71.5 9.5 -148.5 q0 -168 -55.5 -278.5 q-55.5 -110.5 -193.5 -110.5 q-144 0 -358 170 q-94 -161 -246 -170 q-41 20 -87 75 q-46 55 -79 122 q-33 67 -37 122 l89 124 q38 14 97 14 l33 0 q-12 65 -25 154 l-114 -49 q-30 17 -49.5 67.5 q-19.5 50.5 -24.5 103.5 l161 81 q-17 143 -30 316 q-7 83 -15 159.5 q-8 76.5 -17 129.5 q19 30 67 60 q48 30 114.5 50 q66.5 20 136.5 20 q48 0 87 -9.5 q39 -9.5 74 -30.5 l-49 -509 l261 132 q24 -14 35.5 -57 q11.5 -43 11.5 -100 q0 -50 -7 -89 l-326 -140 l-31 -317 l13 -1 l253 -48 l95 289 l184 -24 Z" /><glyph glyph-name="M" unicode="m" d="M1829 168 q-4 -7 -31.5 -57 q-27.5 -50 -86.5 -90.5 q-59 -40.5 -136 -40.5 q-60 0 -111.5 22 q-51.5 22 -85.5 66 q-34 44 -42 106 q-10 75 -21 320 q-11 206 -11 467 q0 128 3 210 l-19 3 l-194 -851 q26 -55 40 -113 q14 -58 28 -143 l6 -32 q-38 -27 -89 -40.5 q-51 -13.5 -109 -13.5 q-75 0 -146.5 22 q-71.5 22 -116.5 59 q0 51 9.5 121 q9.5 70 31.5 103 l-289 889 l-19 -7 q12 -56 37 -235 q25 -179 45.5 -372.5 q20.5 -193.5 22.5 -312.5 q2 -120 -53 -194 q-55 -74 -178 -74 l-6 0 l-13 0 q-86 2 -158 45.5 q-72 43.5 -100 116.5 l45 163 l111 -9 l0 9 l69 870 l-169 51 q8 106 49.5 190 q41.5 84 137.5 133 q53 -7 154 -36.5 q101 -29.5 204.5 -73.5 q103.5 -44 167.5 -93 l172 -790 l8 1 l26 220 q36 212 78 423 q-66 28 -98 47 q9 97 64 180.5 q55 83.5 151 121.5 q53 -7 156 -50.5 q103 -43.5 200.5 -99.5 q97.5 -56 138.5 -100 q-11 -266 -30 -519.5 q-19 -253.5 -61 -472.5 l186 27 l32 -166 Z" /><glyph glyph-name="N" unicode="n" d="M1034 395 q-152 882 -152 1035 q12 26 50 49 q38 23 90 36.5 q52 13.5 104 13.5 q43 0 91 -11.5 q48 -11.5 77 -31.5 l-86 -1138 q46 -56 71 -103 q25 -47 37 -114 q-32 -77 -102.5 -114.5 q-70.5 -37.5 -164.5 -37.5 q-75 0 -156.5 18.5 q-81.5 18.5 -122.5 51.5 q-3 17 -3 44 q0 40 6.5 82.5 q6.5 42.5 19.5 69.5 l-437 925 l-5 -2 q20 -66 65 -243.5 q45 -177.5 86.5 -368.5 q41.5 -191 53.5 -308 q2 -30 2 -45 q0 -101 -51.5 -162 q-51.5 -61 -160.5 -61 q-90 0 -167 44 q-77 44 -112 118 l31 163 l111 -9 l-8 879 q-47 3 -92.5 15.5 q-45.5 12.5 -80.5 35.5 q0 108 33.5 191 q33.5 83 125.5 132 q98 -12 227 -53 q129 -41 228 -111 l388 -994 l4 4 Z" /><glyph glyph-name="Eng" unicode="&#x14a;" d="M1264 60 l27 -120 q-33 -127 -124.5 -228 q-91.5 -101 -220.5 -145 q-21 -3 -43 -3 q-71 0 -154.5 27 q-83.5 27 -151 65 q-67.5 38 -90.5 68 q-2 26 -2 37 q0 40 7 75.5 q7 35.5 20 79.5 q76 -17 198.5 -32.5 q122.5 -15.5 190.5 -15.5 l-15 127 l-113 250 l-437 925 l-5 -2 q20 -66 65 -243.5 q45 -177.5 86.5 -368.5 q41.5 -191 53.5 -308 q2 -30 2 -45 q0 -101 -51.5 -162 q-51.5 -61 -160.5 -61 q-90 0 -167 44 q-77 44 -112 118 l31 163 l111 -9 l-8 879 q-47 3 -92.5 15.5 q-45.5 12.5 -80.5 35.5 q0 108 33.5 191 q33.5 83 125.5 132 q98 -12 227 -53 q129 -41 228 -111 l384 -1084 l4 4 q-38 221 -93 622.5 q-55 401.5 -55 502.5 q12 26 50 49 q38 23 90 36.5 q52 13.5 104 13.5 q42 0 89.5 -11.5 q47.5 -11.5 76.5 -31.5 l-80 -1138 l52 -288 Z" /><glyph glyph-name="O" unicode="o" d="M1173 1321 q9 -79 12.5 -129 q3.5 -50 3.5 -132 q0 -107 -14 -290 q-14 -183 -35 -349 q-21 -166 -39 -231 q-9 -34 -47 -61 q-38 -27 -104 -61 q-7 -3 -12 -5.5 q-5 -2.5 -9 -4.5 q-72 -37 -125 -55.5 q-53 -18.5 -105 -23.5 q-75 5 -180 30 q-105 25 -198.5 62.5 q-93.5 37.5 -135.5 75.5 q-29 184 -56 491.5 q-27 307.5 -27 454.5 q0 85 6.5 149.5 q6.5 64.5 29.5 94.5 q34 45 135.5 94 q101.5 49 209.5 83.5 q108 34.5 145 34.5 q52 0 167.5 -34.5 q115.5 -34.5 224.5 -87.5 q109 -53 153 -106 ZM497 1174 q-11 -140 -11 -388 q0 -297 14 -455 q46 -27 111 -55 q65 -28 114 -38 l61 42 q11 102 11 306 q0 146 -5.5 291 q-5.5 145 -14.5 241 l-211 91 l-69 -35 Z" /><glyph glyph-name="Oslash" unicode="ø" d="M1173 1321 q9 -79 12.5 -129 q3.5 -50 3.5 -132 q0 -107 -14 -290 q-14 -183 -35 -349 q-21 -166 -39 -231 q-9 -34 -47 -61 q-38 -27 -104 -61 q-7 -3 -12 -5.5 q-5 -2.5 -9 -4.5 q-72 -37 -125 -55.5 q-53 -18.5 -105 -23.5 q-82 4 -201 35 l-115 -271 q-14 1 -43 1 q-42 0 -68 3 q-26 3 -50.5 17.5 q-24.5 14.5 -43.5 45.5 l103 279 q-66 30 -96 58 q-29 184 -56 491.5 q-27 307.5 -27 454.5 q0 85 6.5 149.5 q6.5 64.5 29.5 94.5 q34 45 135.5 94 q101.5 49 209.5 83.5 q108 34.5 145 34.5 q29 0 84.5 -12.5 q55.5 -12.5 120.5 -34.5 l147 315 q80 -23 125.5 -56.5 q45.5 -33.5 81.5 -105.5 l-128 -248 q81 -46 114 -86 ZM786 280 q11 102 11 306 q0 146 -5.5 291 q-5.5 145 -14.5 241 l-211 91 l-69 -35 q-11 -140 -11 -388 q0 -297 14 -455 q46 -27 111 -55 q65 -28 114 -38 l61 42 Z" /><glyph glyph-name="OE" unicode="&#x152;" d="M1693 475 q17 -44 27.5 -108 q10.5 -64 10.5 -128 q0 -118 -65.5 -188 q-65.5 -70 -185.5 -70 q-261 0 -523 89 l-23 -12 q-73 -37 -126 -55.5 q-53 -18.5 -105 -23.5 q-76 5 -185.5 30.5 q-109.5 25.5 -206 62.5 q-96.5 37 -138.5 75 q-28 178 -52.5 486 q-24.5 308 -24.5 460 q0 85 6.5 149.5 q6.5 64.5 29.5 94.5 q34 45 137.5 94 q103.5 49 214 83.5 q110.5 34.5 147.5 34.5 q56 0 179 -38.5 q123 -38.5 224 -91.5 l188 36 l369 94 q47 -27 71 -86 q24 -59 24 -132 q0 -80 -29 -149.5 q-29 -69.5 -78 -106.5 q-153 17 -395 85 q2 -58 2 -100 q0 -78 -8 -203 q121 14 207 29.5 q86 15.5 219 43.5 q40 -61 40 -152 q0 -61 -16 -117.5 q-16 -56.5 -35 -76.5 q-30 -3 -60 -3 q-98 0 -198 17.5 q-100 17.5 -173 53.5 q-18 -194 -39 -332 l308 -20 l82 190 l180 -15 ZM791 228 q6 52 9 156 q3 104 3 202 q0 146 -5.5 291 q-5.5 145 -14.5 241 l-214 91 l-71 -35 q-12 -133 -12 -388 q0 -301 15 -455 q46 -27 112 -55 q66 -28 116 -38 l62 -10 Z" /><glyph glyph-name="P" unicode="p" d="M1219 1404 q4 -48 4 -118 q0 -176 -28.5 -376 q-28.5 -200 -78.5 -340 q-26 -30 -73.5 -72.5 q-47.5 -42.5 -99 -74.5 q-51.5 -32 -88.5 -32 q-51 -1 -169.5 21 q-118.5 22 -205.5 49 l36 -179 l206 -13 l28 -124 q-19 -39 -71.5 -77.5 q-52.5 -38.5 -124.5 -63.5 q-72 -25 -148 -25 q-62 0 -110.5 24.5 q-48.5 24.5 -76 62.5 q-27.5 38 -27.5 77 q0 45 7.5 170.5 q7.5 125.5 19.5 174.5 q-24 48 -54.5 238 q-30.5 190 -54 395.5 q-23.5 205.5 -23.5 260.5 l1 11 q45 61 121 98.5 q76 37.5 157 37.5 q92 0 164 -49 l-95 -497 l29 -14 l267 562 q21 6 57.5 11.5 q36.5 5.5 75.5 5.5 q42 0 103.5 -16 q61.5 -16 128.5 -48.5 q67 -32.5 123 -79.5 ZM795 638 q38 215 38 380 q0 64 -6 125 l-47 8 q-73 -111 -159.5 -251.5 q-86.5 -140.5 -116.5 -204.5 q17 -7 49 -22 q66 -31 113 -49.5 q47 -18.5 82 -18.5 q42 0 47 33 Z" /><glyph glyph-name="Thorn" unicode="þ" d="M1219 1253 q4 -48 4 -118 q0 -176 -28.5 -376 q-28.5 -200 -78.5 -340 q-26 -30 -74 -72.5 q-48 -42.5 -100 -74.5 q-52 -32 -88 -32 q-36 0 -106 31.5 q-70 31.5 -183 90.5 l-45 23 q24 -115 39 -203.5 q15 -88.5 19 -162.5 q-32 -21 -72.5 -30 q-40.5 -9 -94.5 -9 q-87 0 -152 21.5 q-65 21.5 -106 60.5 q5 107 20.5 226 q15.5 119 37.5 220 q-24 71 -53 256.5 q-29 185.5 -50 374.5 q-21 189 -21 242 l1 12 q45 61 119 98.5 q74 37.5 153 37.5 q92 0 170 -49 l-61 -477 l31 -9 l231 386 q21 6 57.5 11.5 q36.5 5.5 75.5 5.5 q42 0 103.5 -16 q61.5 -16 128.5 -48.5 q67 -32.5 123 -79.5 ZM795 487 q38 215 38 380 q0 64 -6 125 l-47 8 l-51 -48 q-75 -69 -131.5 -127.5 q-56.5 -58.5 -93.5 -110.5 q12 -7 34.5 -29 q22.5 -22 60.5 -63 q69 -74 112.5 -113.5 q43.5 -39.5 66.5 -39.5 q14 0 17 18 Z" /><glyph glyph-name="Q" unicode="q" d="M627 -123 q406 28 550 47 q12 -30 12 -71 q0 -50 -16.5 -106 q-16.5 -56 -44.5 -102.5 q-28 -46.5 -60 -68.5 q-8 -16 -28 -22 q-95 11 -250.5 46.5 q-155.5 35.5 -276.5 81.5 q-66 -85 -160 -92 q-64 40 -100.5 134.5 q-36.5 94.5 -31.5 198.5 q45 25 77 38.5 q32 13.5 68 18.5 l55 -49 l146 99 q-127 17 -232 46.5 q-105 29.5 -150 70.5 q-29 184 -56 491.5 q-27 307.5 -27 454.5 q0 85 6.5 149.5 q6.5 64.5 29.5 94.5 q34 45 135.5 94 q101.5 49 209.5 83.5 q108 34.5 145 34.5 q52 0 167.5 -34.5 q115.5 -34.5 224.5 -87.5 q109 -53 153 -106 q9 -79 12.5 -129 q3.5 -50 3.5 -132 q0 -107 -14 -290 q-14 -183 -35 -349 q-21 -166 -39 -231 q-11 -44 -93 -91 q-45 -30 -115 -64 q-70 -34 -169 -79 q-40 -18 -70 -32.5 q-30 -14.5 -31 -17.5 l4 -29 ZM486 786 q0 -297 14 -455 q46 -27 111 -55 q65 -28 114 -38 l61 42 q11 102 11 306 q0 146 -5.5 291 q-5.5 145 -14.5 241 l-211 91 l-69 -35 q-11 -140 -11 -388 Z" /><glyph glyph-name="R" unicode="r" d="M1355 350 q-3 -73 -33.5 -149.5 q-30.5 -76.5 -70.5 -131.5 q-32 -44 -78 -66.5 q-46 -22.5 -103 -22.5 q-54 0 -122 22 q-166 53 -207 463 l-268 36 q28 -66 54.5 -214 q26.5 -148 35.5 -260 q-34 -23 -80 -35 q-46 -12 -96 -12 q-76 0 -145 24 q-69 24 -105 65 q23 112 40 173 q17 61 42 128 q-24 49 -54.5 263.5 q-30.5 214.5 -54 450 q-23.5 235.5 -23.5 297.5 l1 12 q45 61 121 98.5 q76 37.5 157 37.5 q92 0 164 -49 l-95 -497 l29 -14 l267 562 q21 6 57.5 11.5 q36.5 5.5 75.5 5.5 q42 0 103.5 -16 q61.5 -16 128.5 -48.5 q67 -32.5 123 -79.5 q2 -150 -22.5 -334.5 q-24.5 -184.5 -73.5 -346.5 q-58 -86 -152 -165 q31 -58 62.5 -105.5 q31.5 -47.5 70.5 -86.5 q54 19 137 86 l114 -102 ZM780 1151 q-68 -104 -162 -257 q-94 -153 -128 -222 l316 22 q26 169 26 339 q0 63 -5 110 l-47 8 Z" /><glyph glyph-name="S" unicode="s" d="M654 268 q13 67 13 113 q0 43 -9 73 q-68 19 -187.5 76.5 q-119.5 57.5 -223 126 q-103.5 68.5 -134.5 122.5 q-11 40 -18 115 q-7 75 -15 199 q-5 90 -11 151 q69 111 158 182.5 q89 71.5 209 122.5 q56 -17 188 -87 l42 -22 l320 15 q17 -65 17 -130 q0 -85 -25.5 -157 q-25.5 -72 -60.5 -118.5 q-35 -46.5 -61 -59.5 q-49 10 -117 39.5 q-68 29.5 -140.5 76 q-72.5 46.5 -129.5 102.5 l-13 0 l-38 -210 q67 -39 183 -120.5 q116 -81.5 227.5 -176.5 q111.5 -95 164.5 -173 q1 -8 1 -24 q0 -67 -21.5 -164.5 q-21.5 -97.5 -44.5 -171.5 q-65 -65 -126.5 -111.5 q-61.5 -46.5 -134.5 -76.5 q-75 8 -290 32 q-215 24 -208 25 q-64 111 -64 217 q0 50 11 87 q11 37 20.5 56.5 q9.5 19.5 11.5 24.5 q206 -15 446 -179 l60 25 Z" /><glyph glyph-name="Scedilla" unicode="&#x15e;" d="M418 998 q67 -39 183 -120.5 q116 -81.5 227.5 -176.5 q111.5 -95 164.5 -173 q1 -8 1 -24 q0 -67 -21.5 -164.5 q-21.5 -97.5 -44.5 -171.5 q-84 -84 -161 -135 l104 -163 q-22 -86 -95.5 -157.5 q-73.5 -71.5 -167.5 -103.5 q-18 -2 -30 -2 q-49 0 -99 19 q-50 19 -88.5 45 q-38.5 26 -55.5 48 q-1 7 -1 21 q0 34 7 74 q7 40 16 71 q62 -15 135.5 -27 q73.5 -12 117.5 -12 l-66 147 l-57 6 q-63 7 -192.5 22 q-129.5 15 -125.5 16 q-64 111 -64 217 q0 50 11 87 q11 37 20.5 56.5 q9.5 19.5 11.5 24.5 q206 -15 446 -179 l60 25 q13 67 13 113 q0 43 -9 73 q-68 19 -187.5 76.5 q-119.5 57.5 -223 126 q-103.5 68.5 -134.5 122.5 q-11 40 -18 115 q-7 75 -15 199 q-5 90 -11 151 q69 111 158 182.5 q89 71.5 209 122.5 q56 -17 188 -87 l42 -22 l320 15 q17 -65 17 -130 q0 -85 -25.5 -157 q-25.5 -72 -60.5 -118.5 q-35 -46.5 -61 -59.5 q-49 10 -117 39.5 q-68 29.5 -140.5 76 q-72.5 46.5 -129.5 102.5 l-13 0 l-38 -210 Z" /><glyph glyph-name="T" unicode="t" d="M1054 1084 q-46 0 -119.5 18 q-73.5 18 -125.5 43 l-60 -561 l9 -270 l220 101 l78 -132 q-11 -50 -60.5 -123 q-49.5 -73 -115.5 -127 q-66 -54 -127 -54 q-73 0 -150 30.5 q-77 30.5 -130.5 87.5 q-53.5 57 -60.5 130 q-2 26 -2 39 q0 46 7 90 q7 44 23 118 q15 63 22 106 l2 0 l-60 639 l-111 28 l-41 -281 q-64 -22 -121 -22 q-57 0 -112 23 q-21 64 -37.5 144 q-16.5 80 -16.5 150 q0 84 27 132 q52 64 131.5 106.5 q79.5 42.5 152.5 49.5 l439 -111 l348 111 q46 -24 70.5 -83 q24.5 -59 24.5 -132 q0 -77 -27.5 -146.5 q-27.5 -69.5 -76.5 -103.5 Z" /><glyph glyph-name="Tbar" unicode="&#x166;" d="M1061 1084 q-44 0 -118.5 17 q-74.5 17 -129.5 41 l-28 -271 l217 15 q7 -28 7 -62 q0 -106 -75 -253 q-33 -3 -96 -3 l-82 1 l17 -255 l220 101 l78 -132 q-11 -50 -60.5 -123 q-49.5 -73 -115.5 -127 q-66 -54 -127 -54 q-73 0 -150 30.5 q-77 30.5 -130.5 87.5 q-53.5 57 -60.5 130 q-1 11 -1 32 q0 44 8.5 87.5 q8.5 43.5 24.5 107.5 q20 78 27 123 l-234 8 q-3 30 -3 57 q0 56 14 99.5 q14 43.5 45 95.5 l156 11 l-34 366 l-130 33 l-41 -281 q-64 -22 -121 -22 q-57 0 -112 23 q-21 64 -37.5 144 q-16.5 80 -16.5 150 q0 84 27 132 q52 64 131.5 106.5 q79.5 42.5 152.5 49.5 l439 -111 l348 111 q46 -24 70.5 -83 q24.5 -59 24.5 -132 q0 -77 -27.5 -146.5 q-27.5 -69.5 -76.5 -103.5 Z" /><glyph glyph-name="uni0162" unicode="&#x162;" d="M1054 1084 q-46 0 -119.5 18 q-73.5 18 -125.5 43 l-60 -561 l9 -270 l220 101 l78 -132 q-9 -42 -46.5 -102 q-37.5 -60 -90 -113 q-52.5 -53 -106.5 -76 l78 -122 q-22 -86 -95.5 -157.5 q-73.5 -71.5 -167.5 -103.5 q-18 -2 -30 -2 q-49 0 -99 19 q-50 19 -88.5 45 q-38.5 26 -55.5 48 q-1 7 -1 21 q0 34 7 74 q7 40 16 71 q62 -15 135.5 -27 q73.5 -12 117.5 -12 l-87 194 q-56 34 -91 82 q-35 48 -40 105 q-2 26 -2 39 q0 46 7 90 q7 44 23 118 q15 63 22 106 l2 0 l-60 639 l-111 28 l-41 -281 q-64 -22 -121 -22 q-57 0 -112 23 q-21 64 -37.5 144 q-16.5 80 -16.5 150 q0 84 27 132 q52 64 131.5 106.5 q79.5 42.5 152.5 49.5 l439 -111 l348 111 q46 -24 70.5 -83 q24.5 -59 24.5 -132 q0 -77 -27.5 -146.5 q-27.5 -69.5 -76.5 -103.5 Z" /><glyph glyph-name="U" unicode="u" d="M1188 1257 q11 -99 11 -197 q0 -107 -14 -290 q-14 -183 -35 -349 q-21 -166 -39 -231 q-9 -33 -47.5 -59.5 q-38.5 -26.5 -103.5 -58.5 q-6 -3 -13.5 -6.5 q-7.5 -3.5 -15.5 -7.5 q-73 -37 -126 -55.5 q-53 -18.5 -105 -23.5 q-74 4 -173 29.5 q-99 25.5 -186.5 63 q-87.5 37.5 -130.5 75.5 q-28 178 -52.5 479.5 q-24.5 301.5 -24.5 454.5 q0 62 2 98 l-140 47 q8 106 49.5 190 q41.5 84 137.5 133 q121 -15 367 -203 l-3 -2 l3 1 l-25 -171 l-1 -388 q0 -321 15 -475 q113 -66 250 -83 q6 52 9 156 q3 104 3 202 q0 151 -6 336.5 q-6 185.5 -15 278.5 l-164 46 q9 97 64 180.5 q55 83.5 151 121.5 q51 -7 149 -48 q98 -41 189 -92 l12 -87 l0 -1 l3 -26 l5 -38 Z" /><glyph glyph-name="Uogonek" unicode="&#x172;" d="M1188 1257 q11 -99 11 -197 q0 -107 -14 -290 q-14 -183 -35 -349 q-21 -166 -39 -231 q-9 -33 -47.5 -59.5 q-38.5 -26.5 -103.5 -58.5 q-6 -3 -13.5 -6.5 q-7.5 -3.5 -15.5 -7.5 q-69 -35 -112 -51 q-57 -94 -102 -177 l14 -13 l196 67 l47 -127 q-51 -100 -113.5 -147.5 q-62.5 -47.5 -148.5 -47.5 q-48 0 -106.5 33.5 q-58.5 33.5 -99.5 83.5 q-41 50 -41 96 q0 97 151 214 q-115 20 -234 65 q-119 45 -172 93 q-28 178 -52.5 479.5 q-24.5 301.5 -24.5 454.5 q0 62 2 98 l-140 47 q8 106 49.5 190 q41.5 84 137.5 133 q121 -15 367 -203 l-3 -2 l3 1 l-25 -171 l-1 -388 q0 -321 15 -475 q113 -66 250 -83 q6 52 9 156 q3 104 3 202 q0 151 -6 336.5 q-6 185.5 -15 278.5 l-164 46 q9 97 64 180.5 q55 83.5 151 121.5 q51 -7 149 -48 q98 -41 189 -92 l12 -87 l0 -1 l3 -26 l5 -38 Z" /><glyph glyph-name="V" unicode="v" d="M814 1082 l-19 16 q-63 54 -101 95.5 q-38 41.5 -71 108.5 q28 73 89 126 q61 53 137.5 83 q76.5 30 153.5 40 q81 -65 132.5 -184.5 q51.5 -119.5 60.5 -239.5 l-369 -868 q39 -91 61 -218 q-39 -31 -107.5 -47 q-68.5 -16 -149.5 -16 q-90 0 -171 18.5 q-81 18.5 -120 49.5 q9 122 51 236 l-267 783 l-175 222 q8 76 48 130.5 q40 54.5 100.5 83 q60.5 28.5 127.5 28.5 q102 0 178 -57 q16 -32 72 -254.5 q56 -222.5 107 -473.5 q51 -251 63 -401 l169 739 Z" /><glyph glyph-name="W" unicode="w" d="M1621 1550 q80 -66 124.5 -167 q44.5 -101 49.5 -218 l-303 -896 q38 -82 57 -193 q-43 -36 -119.5 -54.5 q-76.5 -18.5 -164.5 -18.5 q-92 0 -171.5 20.5 q-79.5 20.5 -117.5 56.5 q7 63 23.5 115 q16.5 52 40.5 103 l-142 492 l-130 -518 q39 -82 58 -196 q-43 -36 -119.5 -54.5 q-76.5 -18.5 -164.5 -18.5 q-92 0 -171.5 20.5 q-79.5 20.5 -117.5 56.5 q12 108 61 211 l-207 795 l-3 11 l-173 230 q25 52 78 103.5 q53 51.5 119 85 q66 33.5 126 34.5 q48 2 90.5 -15.5 q42.5 -17.5 73.5 -54.5 l1 0 q13 -28 50 -246.5 q37 -218.5 71 -471.5 q34 -253 42 -389 l7 0 l159 687 q-58 51 -98 100.5 q-40 49.5 -74 125.5 q67 111 178.5 179 q111.5 68 226.5 82 q62 -56 103.5 -173.5 q41.5 -117.5 45.5 -236.5 l-1 -2 q3 -18 32 -113 q57 -193 96.5 -352 q39.5 -159 47.5 -297 l17 0 l99 683 l-40 33 q-61 51 -98.5 91.5 q-37.5 40.5 -64.5 99.5 q31 74 98 132 q67 58 148.5 93.5 q81.5 35.5 156.5 44.5 Z" /><glyph glyph-name="X" unicode="x" d="M606 527 q-23 -89 -38.5 -143 q-15.5 -54 -36.5 -113 q-104 -290 -238 -290 q-55 0 -111 72 q-56 72 -96.5 176.5 q-40.5 104.5 -53.5 191.5 q39 57 89 93 q50 36 119 61 l141 -142 l124 313 l-187 374 l-155 -97 l-137 134 q9 61 34 132 q25 71 63.5 130.5 q38.5 59.5 85.5 85.5 q81 22 147 22 q86 0 145 -40.5 q59 -40.5 98 -124.5 q52 -112 74 -218 q22 -106 29 -208 q23 179 53 315 q30 136 49 157 q38 44 119 80.5 q81 36.5 165 40.5 q88 -79 150 -198 q62 -119 64 -234 q-84 -120 -252 -157 l-113 186 l-159 -340 l235 -407 l142 126 l135 -100 q-30 -178 -106 -316 q-30 -54 -87.5 -81.5 q-57.5 -27.5 -137.5 -27.5 q-64 0 -120 26.5 q-56 26.5 -84 77.5 q-57 103 -90.5 234.5 q-33.5 131.5 -43.5 241.5 l-6 2 l-9 -35 Z" /><glyph glyph-name="Y" unicode="y" d="M273 1529 q110 0 179 -49 l133 -840 l45 0 l153 438 q-56 49 -96.5 101 q-40.5 52 -75.5 129 q45 107 154 166 q109 59 235 75 q79 -65 119.5 -165 q40.5 -100 45.5 -219 q-52 -134 -145.5 -307 q-93.5 -173 -191.5 -284 l-136 -76 l31 -191 q40 6 117.5 30 q77.5 24 128.5 45 l75 -146 q-25 -58 -89 -118 q-64 -60 -141.5 -99 q-77.5 -39 -140.5 -39 q-72 0 -141 30.5 q-69 30.5 -113 87 q-44 56.5 -45 130.5 q-1 50 5 93 q6 43 17 100 q12 60 15 84 l-149 116 l-142 510 l-120 138 q4 106 55.5 164 q51.5 58 112 77 q60.5 19 105.5 19 Z" /><glyph glyph-name="Z" unicode="z" d="M1129 625 q13 -36 22.5 -107.5 q9.5 -71.5 9.5 -148.5 q0 -168 -55.5 -278.5 q-55.5 -110.5 -193.5 -110.5 q-99 0 -222 69 q-123 69 -242 169 q-31 -99 -95 -168.5 q-64 -69.5 -147 -69.5 q-44 28 -85 93.5 q-41 65.5 -66.5 144 q-25.5 78.5 -25.5 142.5 q0 14 1 21 q31 42 69 77.5 q38 35.5 69 52.5 q70 -15 120 -42 l365 685 l-237 36 l-45 -303 l-185 -40 q-31 34 -61 104 q-30 70 -48.5 155.5 q-18.5 85.5 -18.5 162.5 q0 46 7 82 q10 52 69.5 97.5 q59.5 45.5 128 73.5 q68.5 28 93.5 27 q103 -14 228 -48.5 q125 -34.5 242 -77.5 q47 48 95 80 q48 32 109 46 q71 -17 107.5 -85.5 q36.5 -68.5 36.5 -161.5 q0 -100 -40 -186 l-123 4 q-68 -110 -223 -344 q-155 -234 -247 -357 l309 -59 l95 289 l184 -24 Z" /><glyph glyph-name="a" unicode="a" d="M1201 278 q-58 -133 -131.5 -216 q-73.5 -83 -155.5 -83 q-46 0 -99 28 q-53 28 -94 72 q-4 4 -19 20 q-15 16 -23.5 39 q-8.5 23 -8.5 54 q0 18 1 28 q14 139 34 269 l-15 7 q-157 -402 -260 -492 q-31 -24 -60 -24 q-24 0 -48 12.5 q-24 12.5 -59 37.5 q-13 9 -45 27 q-44 25 -65.5 44 q-21.5 19 -22.5 45 q0 28 1 50 q2 64 2 104 q0 131 -20.5 305.5 q-20.5 174.5 -55.5 288.5 q-12 41 -12 55 q0 12 5.5 24 q5.5 12 19.5 31 q55 71 129 114.5 q74 43.5 135 61.5 q61 18 98 23 q73 -50 132 -125.5 q59 -75.5 114 -170.5 q-1 61 -6 179 l-2 67 q17 11 65 19.5 q48 8.5 103 8.5 q91 0 157.5 -29 q66.5 -29 119.5 -92 q4 -34 -20 -176.5 q-24 -142.5 -65 -305.5 q-41 -163 -87 -271 l173 92 l85 -121 ZM461 338 q48 48 112.5 160 q64.5 112 103.5 195 q2 24 2 27 l0 53 q-56 13 -129 28 l-85 18 l1 -107 l0 -33 q0 -152 -35 -327 l30 -14 Z" /><glyph glyph-name="aogonek" unicode="&#x105;" d="M1147 -116 l47 -127 q-51 -100 -113.5 -147.5 q-62.5 -47.5 -148.5 -47.5 q-48 0 -106.5 33.5 q-58.5 33.5 -99.5 83.5 q-41 50 -41 96 q0 100 155 217 q-33 13 -66 35.5 q-33 22.5 -60 51.5 q-4 4 -19 20 q-15 16 -23.5 39 q-8.5 23 -8.5 54 q0 18 1 28 q14 139 34 269 l-15 7 q-56 -144 -131 -291 q-75 -147 -139 -201 q-31 -24 -60 -24 q-24 0 -48 12.5 q-24 12.5 -58 37.5 q-17 12 -44 27 q-44 25 -65.5 44 q-21.5 19 -21.5 45 l2 61 q4 74 4 112 q0 135 -17 300.5 q-17 165.5 -49 274.5 q-11 37 -11 55 q0 12 6 24 q6 12 20 31 q56 71 130.5 114.5 q74.5 43.5 136 61.5 q61.5 18 98.5 23 q70 -49 121 -118.5 q51 -69.5 114 -177.5 q-1 61 -6 179 l-2 67 q17 11 65 19.5 q48 8.5 103 8.5 q91 0 157.5 -29 q66.5 -29 119.5 -92 q4 -34 -20 -176.5 q-24 -142.5 -65 -305.5 q-41 -163 -87 -271 l173 92 l85 -121 q-43 -100 -95 -171 q-37 -60 -86 -143.5 q-49 -83.5 -76 -133.5 l14 -13 l196 67 ZM670 693 q2 24 2 27 l0 53 q-43 11 -128 28 l-82 18 l0 -107 q0 -165 -42 -360 l30 -14 q49 48 116 162 q67 114 104 193 Z" /><glyph glyph-name="ae" unicode="æ" d="M1056 284 q30 6 74.5 27 q44.5 21 124.5 62 q62 33 127 65 l85 -139 q-44 -59 -133.5 -134.5 q-89.5 -75.5 -192 -130 q-102.5 -54.5 -185.5 -54.5 q-26 0 -51 17 q-25 17 -74 59 l-30 26 q-47 41 -70.5 66 q-23.5 25 -31 42.5 q-7.5 17.5 -5.5 36.5 q9 124 9 178 q0 53 -5 87 l-15 4 q-74 -191 -164 -353.5 q-90 -162.5 -162 -162.5 q-25 0 -50 12.5 q-25 12.5 -60 37.5 q-17 12 -44 27 q-44 25 -65.5 44 q-21.5 19 -21.5 45 l2 61 q4 74 4 112 q0 135 -17 300.5 q-17 165.5 -49 274.5 q-11 37 -11 55 q0 12 5.5 24.5 q5.5 12.5 20.5 30.5 q55 71 130 114.5 q75 43.5 136.5 61.5 q61.5 18 98.5 23 q56 -40 118.5 -123.5 q62.5 -83.5 116.5 -172.5 q3 9 7 29 q10 42 21 72.5 q11 30.5 36.5 63 q25.5 32.5 68.5 57.5 q61 35 134.5 65 q73.5 30 122.5 30 q24 0 55 -16.5 q31 -16.5 83 -50.5 q70 -43 77 -47 q32 -17 59 -28.5 q27 -11.5 51 -20.5 q24 -9 33 -12 q7 -2 32 -11 q19 -7 30.5 -36 q11.5 -29 11.5 -113 q0 -77 -21 -119 q-9 -17 -87.5 -108.5 q-78.5 -91.5 -177.5 -198 q-99 -106.5 -180 -179.5 l29 0 ZM1227 794 q-54 12 -194 57 q0 -57 -7 -210.5 q-7 -153.5 -16 -220.5 l-1 -3 q155 229 218 377 ZM450 338 q49 48 116 162 q67 114 104 193 q2 24 2 27 l0 53 q-16 4 -28.5 7.5 q-12.5 3.5 -21.5 5.5 q-56 15 -90 22.5 q-34 7.5 -70 10.5 l0 -107 q0 -165 -42 -360 l30 -14 Z" /><glyph glyph-name="b" unicode="b" d="M749 1182 q42 0 103.5 -16 q61.5 -16 128.5 -48.5 q67 -32.5 123 -79.5 q-3 -149 -32 -341 q-29 -192 -71.5 -373 q-42.5 -181 -85.5 -301 q-32 -23 -105.5 -33 q-73.5 -10 -148.5 -10 q-123 0 -264 24.5 q-141 24.5 -230 72.5 q-23 12 -31.5 21 q-8.5 9 -8.5 27 q0 14 6 38 l35 144 l16 61 l-2 0 l1 2 q-24 52 -55.5 282.5 q-31.5 230.5 -56 483 q-24.5 252.5 -24.5 317.5 q0 11 1 13 q51 63 142.5 105 q91.5 42 180.5 42 q94 0 152 -47 q-9 -165 -28.5 -336.5 q-19.5 -171.5 -53.5 -423.5 q-13 -95 -37 -285 l10 -4 l222 648 q29 8 51.5 12.5 q22.5 4.5 61.5 4.5 ZM671 215 q13 125 26.5 299.5 q13.5 174.5 14.5 262.5 l-27 8 q-48 -98 -127 -265 q-79 -167 -101 -220 q37 -32 105.5 -57 q68.5 -25 108.5 -28 Z" /><glyph glyph-name="c" unicode="c" d="M61 869 q-1 5 -8.5 27 q-7.5 22 -7.5 34 q0 38 61.5 93.5 q61.5 55.5 117.5 88.5 q52 31 123.5 61.5 q71.5 30.5 113.5 30.5 q29 0 72 -18.5 q43 -18.5 110 -53.5 l48 -25 l186 -48 q5 -37 5 -64 q0 -91 -34.5 -171 q-34.5 -80 -79.5 -131.5 q-45 -51.5 -72 -59.5 q-58 34 -103.5 86 q-45.5 52 -102.5 131 l-28 39 q9 -75 9 -187 q0 -106 -9 -213 q-9 -107 -26 -189 l19 -16 q36 15 135 64.5 q99 49.5 183 94.5 l101 -153 q-25 -47 -105.5 -122 q-80.5 -75 -175.5 -131.5 q-95 -56.5 -167 -56.5 q-39 0 -92 29 q-53 29 -86.5 54.5 q-33.5 25.5 -80.5 63.5 q-32 28 -43.5 47 q-11.5 19 -11.5 41 q0 10 1 19 q1 9 2 16 q6 36 6 69 q0 150 -16 309.5 q-16 159.5 -44 240.5 Z" /><glyph glyph-name="ccedilla" unicode="ç" d="M455 284 q36 15 135 64.5 q99 49.5 183 94.5 l101 -153 q-23 -43 -95 -112 q-72 -69 -152 -121 l129 -202 q-22 -86 -95.5 -157.5 q-73.5 -71.5 -167.5 -103.5 q-18 -2 -30 -2 q-49 0 -99 19 q-50 19 -88.5 45 q-38.5 26 -55.5 48 q-1 7 -1 21 q0 34 7 74 q7 40 16 71 q62 -15 135.5 -27 q73.5 -12 117.5 -12 l-67 149 l-2 0 q-39 0 -92 29 q-53 29 -86.5 54.5 q-33.5 25.5 -80.5 63.5 q-32 28 -43.5 47 q-11.5 19 -11.5 41 q0 10 1 19 q1 9 2 16 q6 36 6 69 q0 150 -16 309.5 q-16 159.5 -44 240.5 q-1 5 -8.5 27 q-7.5 22 -7.5 34 q0 38 61.5 93.5 q61.5 55.5 117.5 88.5 q52 31 123.5 61.5 q71.5 30.5 113.5 30.5 q29 0 72 -18.5 q43 -18.5 110 -53.5 l48 -25 l186 -48 q5 -37 5 -64 q0 -91 -34.5 -171 q-34.5 -80 -79.5 -131.5 q-45 -51.5 -72 -59.5 q-58 34 -103.5 86 q-45.5 52 -102.5 131 l-28 39 q9 -75 9 -187 q0 -106 -9 -213 q-9 -107 -26 -189 l19 -16 Z" /><glyph glyph-name="d" unicode="d" d="M1206 279 q-56 -133 -128 -216 q-72 -83 -154 -83 q-46 0 -99.5 28 q-53.5 28 -95.5 72 q-3 3 -19 19.5 q-16 16.5 -25 40.5 q-9 24 -9 56 q0 16 1 25 q4 45 16 235 l3 39 l-5 2 q-55 -146 -127 -292 q-72 -146 -135 -200 q-29 -25 -59 -25 q-23 0 -46.5 12.5 q-23.5 12.5 -60.5 38.5 q-17 12 -44 27 q-43 24 -65.5 43.5 q-22.5 19.5 -23.5 45.5 l-1 83 q-2 145 -6.5 240.5 q-4.5 95.5 -19.5 207 q-15 111.5 -46 217.5 q-12 41 -12 55 q0 12 5.5 24 q5.5 12 19.5 31 q54 71 128 114.5 q74 43.5 135 61.5 q61 18 98 23 q71 -49 123.5 -118.5 q52.5 -69.5 117.5 -177.5 l5 2 q-9 114 -32.5 294.5 q-23.5 180.5 -27.5 212.5 q-16 122 -18 142 q18 22 75.5 38 q57.5 16 127.5 16 q76 0 146 -21.5 q70 -21.5 120 -67.5 q1 -5 1 -33 q0 -104 -15.5 -344 q-15.5 -240 -43 -479 q-27.5 -239 -63.5 -360 l171 92 l88 -121 ZM460 339 q48 48 112.5 161.5 q64.5 113.5 101.5 193.5 l2 24 l-1 56 q-39 10 -128 28 l-83 18 l2 -107 q3 -165 -36 -360 l30 -14 Z" /><glyph glyph-name="eth" unicode="ð" d="M994 1058 q19 -82 19 -239 l0 -60 q0 -140 -24.5 -318.5 q-24.5 -178.5 -52.5 -280.5 q-17 -21 -66 -52 q-49 -31 -98 -56 q-66 -33 -114 -50 q-48 -17 -96 -22 q-66 6 -151.5 29.5 q-85.5 23.5 -163 57.5 q-77.5 34 -121.5 69 q-30 109 -47 217.5 q-17 108.5 -17 226.5 q0 140 18 256 q28 35 104 73.5 q76 38.5 162.5 68 q86.5 29.5 139.5 36.5 q49 -5 102 -15 l4 7 q-88 100 -188 184 l-126 -131 q-143 23 -173 109 l115 140 l-181 111 q0 25 19 67.5 q19 42.5 46.5 79.5 q27.5 37 51.5 47 q123 -38 236 -96 l127 154 q62 -7 128.5 -40 q66.5 -33 91.5 -93 l-138 -144 q206 -141 393 -336 ZM639 268 q9 102 9 221 q0 171 -16 347 l-17 4 l-189 -162 q-9 -111 -9 -172 q0 -116 11 -204 q70 -46 156 -72 l55 38 Z" /><glyph glyph-name="dcaron" unicode="&#x10f;" d="M1297 1623 q-56 0 -104 -14 l-55 -621 l158 -52 q86 129 152 283 q66 154 106 303 q-47 50 -115.5 75.5 q-68.5 25.5 -141.5 25.5 ZM1262 310 q-34 -81 -92.5 -157.5 q-58.5 -76.5 -124 -124.5 q-65.5 -48 -121.5 -48 q-46 0 -99.5 28 q-53.5 28 -95.5 72 q-3 3 -19 19.5 q-16 16.5 -25 40.5 q-9 24 -9 56 q0 16 1 25 q4 45 16 235 l3 39 l-5 2 q-55 -146 -127 -292 q-72 -146 -135 -200 q-29 -25 -59 -25 q-23 0 -46.5 12.5 q-23.5 12.5 -60.5 38.5 q-17 12 -44 27 q-43 24 -65.5 43.5 q-22.5 19.5 -23.5 45.5 l-1 83 q-2 145 -6.5 240.5 q-4.5 95.5 -19.5 207 q-15 111.5 -46 217.5 q-12 41 -12 55 q0 12 5.5 24 q5.5 12 19.5 31 q54 71 128 114.5 q74 43.5 135 61.5 q61 18 98 23 q71 -49 123.5 -118.5 q52.5 -69.5 117.5 -177.5 l5 2 q-9 114 -32.5 294.5 q-23.5 180.5 -27.5 212.5 q-16 122 -18 142 q18 22 75.5 38 q57.5 16 127.5 16 q76 0 146 -21.5 q70 -21.5 120 -67.5 q1 -5 1 -33 q0 -104 -15.5 -344 q-15.5 -240 -43 -479 q-27.5 -239 -63.5 -360 l227 123 l88 -121 ZM460 339 q48 48 112.5 161.5 q64.5 113.5 101.5 193.5 l2 24 l-1 56 q-39 10 -128 28 l-83 18 l2 -107 q3 -165 -36 -360 l30 -14 Z" /><glyph glyph-name="dcroat" unicode="&#x111;" d="M1206 279 q-56 -133 -128 -216 q-72 -83 -154 -83 q-46 0 -99.5 28 q-53.5 28 -95.5 72 q-3 3 -19 19.5 q-16 16.5 -25 40.5 q-9 24 -9 56 q0 16 1 25 q4 45 16 235 l3 39 l-5 2 q-55 -146 -127 -292 q-72 -146 -135 -200 q-29 -25 -59 -25 q-23 0 -46.5 12.5 q-23.5 12.5 -60.5 38.5 q-17 12 -44 27 q-43 24 -65.5 43.5 q-22.5 19.5 -23.5 45.5 l-1 74 q-1 122 -5.5 205 q-4.5 83 -19.5 179.5 q-15 96.5 -47 205.5 q-12 41 -12 55 q0 12 5.5 24 q5.5 12 19.5 31 q54 71 128 114.5 q74 43.5 135 61.5 q61 18 98 23 q71 -49 123.5 -118.5 q52.5 -69.5 117.5 -177.5 l21 2 q-12 131 -35 316 q-101 2 -204 6 q-22 59 -22 123 q0 37 8 72 l191 16 q-23 175 -25 200 q18 22 72.5 38 q54.5 16 123.5 16 q73 0 134 -21 q61 -21 112 -68 q2 -14 2 -53 l-1 -72 l120 12 q25 -47 25 -115 q0 -43 -11 -84 q-11 -41 -30 -68 q-23 -2 -112 -4 q-13 -258 -36 -486.5 q-23 -228.5 -58 -345.5 l171 92 l88 -121 ZM675 690 q-39 10 -128 28 l-83 18 l2 -23 q3 -165 -36 -360 l30 -14 q49 48 115 160 q66 112 99 185 l1 6 Z" /><glyph glyph-name="uni1E0B" unicode="&#x1e0b;" d="M165 1392 q9 -31 42.5 -63.5 q33.5 -32.5 80.5 -55.5 q47 -23 94 -26 q67 29 134 90 q67 61 95 127 q-17 79 -71.5 127.5 q-54.5 48.5 -125 69 q-70.5 20.5 -140.5 20.5 q-15 -50 -32 -95 q-17 -45 -29.5 -76.5 q-12.5 -31.5 -18.5 -45.5 l-29 -72 ZM1206 279 q-56 -133 -128 -216 q-72 -83 -154 -83 q-46 0 -99.5 28 q-53.5 28 -95.5 72 q-3 3 -19 19.5 q-16 16.5 -25 40.5 q-9 24 -9 56 q0 16 1 25 q4 45 16 235 l3 39 l-5 2 q-55 -146 -127 -292 q-72 -146 -135 -200 q-29 -25 -59 -25 q-23 0 -46.5 12.5 q-23.5 12.5 -60.5 38.5 q-17 12 -44 27 q-43 24 -65.5 43.5 q-22.5 19.5 -23.5 45.5 l-1 83 q-2 145 -6.5 240.5 q-4.5 95.5 -19.5 207 q-15 111.5 -46 217.5 q-12 41 -12 55 q0 12 5.5 24 q5.5 12 19.5 31 q54 71 128 114.5 q74 43.5 135 61.5 q61 18 98 23 q71 -49 123.5 -118.5 q52.5 -69.5 117.5 -177.5 l5 2 q-9 114 -32.5 294.5 q-23.5 180.5 -27.5 212.5 q-16 122 -18 142 q18 22 75.5 38 q57.5 16 127.5 16 q76 0 146 -21.5 q70 -21.5 120 -67.5 q1 -5 1 -33 q0 -104 -15.5 -344 q-15.5 -240 -43 -479 q-27.5 -239 -63.5 -360 l171 92 l88 -121 ZM460 339 q48 48 112.5 161.5 q64.5 113.5 101.5 193.5 l2 24 l-1 56 q-39 10 -128 28 l-83 18 l2 -107 q3 -165 -36 -360 l30 -14 Z" /><glyph glyph-name="e" unicode="e" d="M472 284 q30 6 74.5 27 q44.5 21 124.5 62 q62 33 127 65 l85 -139 q-44 -59 -133.5 -134.5 q-89.5 -75.5 -192 -130 q-102.5 -54.5 -185.5 -54.5 q-26 0 -51 13.5 q-25 13.5 -55 44.5 q-26 26 -39 37 q-21 19 -39.5 33.5 q-18.5 14.5 -23.5 18.5 q-31 28 -42.5 51.5 q-11.5 23.5 -11.5 50.5 q0 18 3 40 q4 38 4 69 q0 140 -19.5 300 q-19.5 160 -40.5 230 q-12 41 -12 54 q0 40 59.5 96 q59.5 56 115.5 91 q55 34 131 64.5 q76 30.5 126 30.5 q35 -2 78 -30 q96 -65 150.5 -91.5 q54.5 -26.5 133.5 -54.5 l28 -10 q12 -5 17 -10 q5 -5 9.5 -18.5 q4.5 -13.5 9.5 -43.5 q6 -36 6 -77 q0 -80 -21 -119 q-9 -16 -86 -101.5 q-77 -85.5 -177 -188 q-100 -102.5 -182 -176.5 l29 0 ZM643 774 q-54 12 -194 57 q0 -55 -7 -199 q-7 -144 -16 -212 l-1 -3 l28 40 q66 96 112.5 169.5 q46.5 73.5 77.5 147.5 Z" /><glyph glyph-name="eogonek" unicode="&#x119;" d="M888 750 q-9 -16 -86 -101.5 q-77 -85.5 -177 -188 q-100 -102.5 -182 -176.5 l29 0 q30 6 74.5 27 q44.5 21 124.5 62 q62 33 127 65 l85 -139 q-60 -102 -91 -153 q-117 -192 -182 -316 l14 -13 l196 67 l47 -127 q-51 -100 -113.5 -147.5 q-62.5 -47.5 -148.5 -47.5 q-47 0 -105.5 34 q-58.5 34 -100 82 q-41.5 48 -41.5 87 q0 54 59 116 q59 62 164 146 l35 28 l-11 6 q-136 -81 -233 -81 q-26 0 -51 13.5 q-25 13.5 -55 44.5 q-26 26 -39 37 q-21 19 -39.5 33.5 q-18.5 14.5 -23.5 18.5 q-31 28 -42.5 51.5 q-11.5 23.5 -11.5 50.5 q0 18 3 40 q4 38 4 69 q0 140 -19.5 300 q-19.5 160 -40.5 230 q-12 41 -12 54 q0 40 59.5 96 q59.5 56 115.5 91 q55 34 131 64.5 q76 30.5 126 30.5 q35 -2 78 -30 q96 -65 150.5 -91.5 q54.5 -26.5 133.5 -54.5 l28 -10 q12 -5 17 -10 q5 -5 9.5 -18.5 q4.5 -13.5 9.5 -43.5 q6 -36 6 -77 q0 -80 -21 -119 ZM453 457 q66 96 112.5 169.5 q46.5 73.5 77.5 147.5 q-54 12 -194 57 q0 -55 -7 -199 q-7 -144 -16 -212 l-1 -3 l28 40 Z" /><glyph glyph-name="f" unicode="f" d="M201 -143 q-14 144 -38 321 q-24 177 -65 454 q-41 284 -59.5 425.5 q-18.5 141.5 -19.5 204.5 q38 85 117.5 185.5 q79.5 100.5 240.5 165.5 q110 -25 181 -36.5 q71 -11.5 133 -11.5 q31 0 61 3 q11 -22 11 -62 q0 -69 -31 -154 q-31 -85 -72 -123 q-81 6 -129.5 26 q-48.5 20 -71 43.5 q-22.5 23.5 -54.5 67.5 l20 -345 l260 77 q29 -44 29 -126 q0 -69 -18 -141.5 q-18 -72.5 -37 -99.5 q-55 -2 -112 17 q-57 19 -104 44 q29 -555 29 -839 q0 -92 -3 -167 q-9 -55 -55.5 -105.5 q-46.5 -50.5 -110.5 -82.5 q-64 -32 -122 -36 q-78 14 -129 56 q-51 42 -88 94 q-1 51 6.5 85 q7.5 34 27.5 91 l203 -31 Z" /><glyph glyph-name="uni1E1F" unicode="&#x1e1f;" d="M179 1731 q9 -31 42.5 -63.5 q33.5 -32.5 80.5 -55.5 q47 -23 94 -26 q67 29 134 90 q67 61 95 127 q-17 79 -71.5 127.5 q-54.5 48.5 -125 69 q-70.5 20.5 -140.5 20.5 q-15 -50 -32 -95 q-17 -45 -29.5 -76.5 q-12.5 -31.5 -18.5 -45.5 l-29 -72 ZM201 -143 q-14 147 -38.5 316 q-24.5 169 -68.5 445 q-37 232 -55.5 367 q-18.5 135 -19.5 197 q38 85 117.5 185.5 q79.5 100.5 240.5 165.5 q110 -25 181 -36.5 q71 -11.5 133 -11.5 q31 0 61 3 q12 -24 12 -67 q0 -51 -14.5 -114.5 q-14.5 -63.5 -38 -118 q-23.5 -54.5 -50.5 -79.5 q-81 6 -129.5 26 q-48.5 20 -71 43.5 q-22.5 23.5 -54.5 67.5 l19 -305 l260 77 q29 -44 29 -126 q0 -69 -18 -141.5 q-18 -72.5 -37 -99.5 q-55 -2 -112 17 q-57 19 -104 44 q15 -287 22 -454.5 q7 -167.5 7 -312.5 q0 -84 -3 -159 q-9 -55 -55.5 -105.5 q-46.5 -50.5 -110.5 -82.5 q-64 -32 -122 -36 q-78 14 -129 56 q-51 42 -88 94 q-1 51 6.5 85 q7.5 34 27.5 91 l203 -31 Z" /><glyph glyph-name="g" unicode="g" d="M1108 1060 l-4 -20 q-11 -51 -22.5 -92 q-11.5 -41 -38.5 -104 q-27 -63 -76 -148 l132 -758 q-21 -81 -76 -155.5 q-55 -74.5 -133 -131 q-78 -56.5 -166 -86.5 q-21 -3 -43 -3 q-70 0 -149 27 q-79 27 -141.5 65 q-62.5 38 -85.5 68 q-1 13 -1 35 q0 36 5.5 62 q5.5 26 20.5 75 q75 -17 201.5 -32.5 q126.5 -15.5 194.5 -15.5 q2 60 2 96 q0 94 -8 296 q-9 195 -8 290 l-13 9 q-62 -178 -139.5 -325.5 q-77.5 -147.5 -146.5 -206.5 q-31 -24 -60 -24 q-24 0 -48 12.5 q-24 12.5 -58 37.5 q-17 12 -44 27 q-44 25 -65.5 44 q-21.5 19 -21.5 45 l2 61 q4 74 4 112 q0 135 -17 300.5 q-17 165.5 -49 274.5 q-11 37 -11 55 q0 12 6 24 q6 12 20 31 q56 71 130.5 114.5 q74.5 43.5 136 61.5 q61.5 18 98.5 23 q70 -49 121 -118.5 q51 -69.5 114 -177.5 q-1 61 -6 179 l-2 67 q17 11 65 19.5 q48 8.5 103 8.5 q91 0 157.5 -29 q66.5 -29 119.5 -92 l-1 -1 l1 0 ZM450 339 q49 48 116 162 q67 114 104 193 q2 24 2 27 l0 53 q-43 11 -128 28 l-82 18 l0 -107 q0 -165 -42 -360 l30 -14 Z" /><glyph glyph-name="gcommaaccent" unicode="&#x123;" d="M686 1760 q-70 -61 -172.5 -177.5 q-102.5 -116.5 -137.5 -181.5 q28 -47 115 -69 q87 -22 188 -22 q50 0 81 4 l68 389 l-142 57 ZM1108 1060 l-4 -20 q-11 -51 -22.5 -92 q-11.5 -41 -38.5 -104 q-27 -63 -76 -148 l132 -758 q-21 -81 -76 -155.5 q-55 -74.5 -133 -131 q-78 -56.5 -166 -86.5 q-21 -3 -43 -3 q-70 0 -149 27 q-79 27 -141.5 65 q-62.5 38 -85.5 68 q-1 13 -1 35 q0 36 5.5 62 q5.5 26 20.5 75 q75 -17 201.5 -32.5 q126.5 -15.5 194.5 -15.5 q2 60 2 96 q0 94 -8 296 q-9 195 -8 290 l-13 9 q-62 -178 -139.5 -325.5 q-77.5 -147.5 -146.5 -206.5 q-31 -24 -60 -24 q-24 0 -48 12.5 q-24 12.5 -58 37.5 q-17 12 -44 27 q-44 25 -65.5 44 q-21.5 19 -21.5 45 l2 61 q4 74 4 112 q0 135 -17 300.5 q-17 165.5 -49 274.5 q-11 37 -11 55 q0 12 6 24 q6 12 20 31 q56 71 130.5 114.5 q74.5 43.5 136 61.5 q61.5 18 98.5 23 q70 -49 121 -118.5 q51 -69.5 114 -177.5 q-1 61 -6 179 l-2 67 q17 11 65 19.5 q48 8.5 103 8.5 q91 0 157.5 -29 q66.5 -29 119.5 -92 l-1 -1 l1 0 ZM450 339 q49 48 116 162 q67 114 104 193 q2 24 2 27 l0 53 q-43 11 -128 28 l-82 18 l0 -107 q0 -165 -42 -360 l30 -14 Z" /><glyph glyph-name="h" unicode="h" d="M669 781 q-64 -139 -108 -231 q-44 -92 -95 -190 q34 -100 54 -173.5 q20 -73.5 30 -162.5 q-60 -44 -172 -44 q-79 0 -154.5 22.5 q-75.5 22.5 -111.5 63.5 q19 115 33.5 176.5 q14.5 61.5 36.5 125.5 l1 2 q-26 53 -66.5 289.5 q-40.5 236.5 -73.5 491.5 q-33 255 -33 307 l1 8 q47 61 135.5 104.5 q88.5 43.5 176.5 43.5 q95 0 158 -48 q-3 -165 -16.5 -334 q-13.5 -169 -39.5 -433 q-5 -48 -12 -118.5 q-7 -70.5 -15 -162.5 l13 -3 l4 -1 q21 66 63 220 q44 158 72 248 q28 90 67 183 q71 17 130 17 q67 0 164 -35 q97 -35 189 -109 q0 -85 -21.5 -214.5 q-21.5 -129.5 -59 -267 q-37.5 -137.5 -81.5 -245.5 l170 89 l89 -121 q-23 -68 -67 -137.5 q-44 -69.5 -99 -115.5 q-55 -46 -109 -46 q-46 0 -99.5 26 q-53.5 26 -90.5 66 q-35 37 -49 71 q-14 34 -12 78 l25 551 l-27 9 Z" /><glyph glyph-name="hbar" unicode="&#x127;" d="M1198 279 q-18 -71 -62 -140.5 q-44 -69.5 -101.5 -114 q-57.5 -44.5 -113.5 -44.5 q-46 0 -100 28 q-54 28 -97 72 q-19 21 -29 34.5 q-10 13.5 -17.5 39.5 q-7.5 26 -7.5 67 q1 110 10 240 q8 120 10 170 l-27 9 q-112 -136 -197 -280 q34 -100 54 -173.5 q20 -73.5 30 -162.5 q-60 -44 -171 -44 q-79 0 -155 22.5 q-76 22.5 -112 63.5 q19 115 33.5 176.5 q14.5 61.5 36.5 125.5 l1 2 q-25 49 -58 262 q-33 213 -62 469 q-93 2 -137 4 q-24 66 -24 111 q0 33 10 67 l129 24 q-14 143 -11 159 q49 64 130 106 q81 42 169 42 q42 0 75.5 -11.5 q33.5 -11.5 66.5 -36.5 l-14 -200 l402 48 q24 -38 24 -99 q0 -49 -15 -104.5 q-15 -55.5 -38 -100.5 q-30 -2 -143.5 -5.5 q-113.5 -3.5 -247.5 -4.5 l-41 -582 l13 -3 l1 0 l3 -1 q47 152 88 256.5 q41 104.5 108 253.5 q21 6 57.5 11.5 q36.5 5.5 75.5 5.5 q67 0 163.5 -35.5 q96.5 -35.5 186.5 -108.5 q-17 -132 -55 -282 q-38 -150 -101 -304 l169 89 l91 -121 Z" /><glyph glyph-name="hcircumflex" unicode="&#x125;" d="M28 1609 q-48 21 -84 53 q-36 32 -57 69 q65 61 101 104.5 q36 43.5 78 111.5 q27 24 113 42 q86 18 157 18 q33 0 53 -4 l208 -249 q-17 -42 -57.5 -87.5 q-40.5 -45.5 -85.5 -57.5 q-52 19 -102 52.5 q-50 33.5 -122 89.5 l-31 24 q-62 -71 -98.5 -108 q-36.5 -37 -72.5 -58 ZM725 80 q-4 4 -21 20.5 q-17 16.5 -26 43 q-9 26.5 -7 62.5 l26 566 l-27 9 q-64 -139 -108 -231 q-44 -92 -95 -190 q34 -100 54 -173.5 q20 -73.5 30 -162.5 q-60 -44 -172 -44 q-79 0 -154.5 22.5 q-75.5 22.5 -111.5 63.5 q19 115 33.5 176.5 q14.5 61.5 36.5 125.5 l1 2 q-26 53 -66.5 271 q-40.5 218 -73.5 449.5 q-33 231.5 -33 282.5 l1 8 q47 61 135.5 104.5 q88.5 43.5 176.5 43.5 q95 0 158 -48 q-3 -150 -14.5 -284 q-11.5 -134 -34.5 -350 q-17 -144 -34 -329 l13 -3 l4 -1 q21 66 63 220 q44 158 72 248 q28 90 67 183 q71 17 130 17 q67 0 164 -35 q97 -35 189 -109 q0 -85 -21.5 -214.5 q-21.5 -129.5 -59 -267 q-37.5 -137.5 -81.5 -245.5 l169 89 l91 -121 q-18 -70 -61.5 -139.5 q-43.5 -69.5 -100.5 -114 q-57 -44.5 -113 -45.5 q-47 0 -101.5 27.5 q-54.5 27.5 -97.5 72.5 Z" /><glyph glyph-name="i" unicode="i" d="M90 1330 q36 -43 100 -82.5 q64 -39.5 101 -40.5 q35 6 94 50.5 q59 44.5 113 103 q54 58.5 75 103.5 q-27 116 -125.5 166.5 q-98.5 50.5 -219.5 50.5 q-63 -182 -138 -351 ZM63 212 q0 19 4 34 q4 15 27 77 q37 99 63 174 l-131 521 q31 37 83 70.5 q52 33.5 114.5 54 q62.5 20.5 122.5 20.5 q99 0 165 -58 q-5 -30 -13 -107 q-20 -188 -41 -343.5 q-21 -155.5 -47 -262.5 l-19 -78 l150 67 l79 -125 q-44 -102 -116 -189 q-72 -87 -159 -87 q-47 0 -115 36.5 q-68 36.5 -117.5 90.5 q-49.5 54 -49.5 105 Z" /><glyph glyph-name="dotlessi" unicode="&#x131;" d="M63 212 q0 19 4 34 q4 15 27 77 q37 99 63 174 l-131 521 q31 37 83 70.5 q52 33.5 114.5 54 q62.5 20.5 122.5 20.5 q99 0 165 -58 q-5 -30 -13 -107 q-20 -188 -41 -343.5 q-21 -155.5 -47 -262.5 l-19 -78 l150 67 l79 -125 q-44 -102 -116 -189 q-72 -87 -159 -87 q-47 0 -115 36.5 q-68 36.5 -117.5 90.5 q-49.5 54 -49.5 105 Z" /><glyph glyph-name="imacron" unicode="&#x12b;" d="M602 1608 q8 -31 8 -75 q0 -49 -12 -99.5 q-12 -50.5 -36 -96.5 q-93 -7 -240 -7 q-144 0 -330 7 q-3 26 -3 52 q0 58 13 111.5 q13 53.5 36 93.5 l564 14 ZM83 212 q0 19 4 34 q4 15 27 77 q37 99 63 174 l-131 521 q31 37 83 70.5 q52 33.5 114.5 54 q62.5 20.5 122.5 20.5 q99 0 165 -58 q-5 -30 -13 -107 q-20 -188 -41 -343.5 q-21 -155.5 -47 -262.5 l-19 -78 l150 67 l79 -125 q-44 -102 -116 -189 q-72 -87 -159 -87 q-47 0 -115 36.5 q-68 36.5 -117.5 90.5 q-49.5 54 -49.5 105 Z" /><glyph glyph-name="iogonek" unicode="&#x12f;" d="M291 1207 q-37 1 -101 40.5 q-64 39.5 -100 82.5 q75 169 138 351 q121 0 219.5 -50.5 q98.5 -50.5 125.5 -166.5 q-21 -45 -75 -103.5 q-54 -58.5 -113 -103 q-59 -44.5 -94 -50.5 ZM564 -116 l47 -127 q-51 -100 -113.5 -147.5 q-62.5 -47.5 -148.5 -47.5 q-48 0 -106.5 33.5 q-58.5 33.5 -99.5 83.5 q-41 50 -41 96 q0 103 164 224 q-48 20 -95 55 q-47 35 -77.5 77 q-30.5 42 -30.5 81 q0 19 4 34 q4 15 27 77 q37 99 63 174 l-131 521 q31 37 83 70.5 q52 33.5 114.5 54 q62.5 20.5 122.5 20.5 q99 0 165 -58 q-5 -30 -13 -107 q-20 -188 -41 -343.5 q-21 -155.5 -47 -262.5 l-19 -78 l150 67 l79 -125 q-33 -78 -79 -142 l-183 -276 l-4 -8 l14 -13 l196 67 Z" /><glyph glyph-name="j" unicode="j" d="M61 1321 q36 -43 100 -82.5 q64 -39.5 101 -40.5 q36 6 95 48 q59 42 112.5 98.5 q53.5 56.5 74.5 100.5 q-27 116 -125.5 166.5 q-98.5 50.5 -219.5 50.5 q-47 -137 -138 -341 ZM406 373 q83 -363 83 -565 q0 -43 -2 -62 q-4 -29 -46 -73.5 q-42 -44.5 -101.5 -77.5 q-59.5 -33 -116.5 -33 q-56 10 -112 38 q-56 28 -99 61 q-43 33 -62 58 q-3 37 -3 62 q0 28 4 51 q4 23 13 55 q20 -1 59.5 -7 q39.5 -6 58.5 -8 l38 -6 l33 699 l-127 453 q31 37 83 70.5 q52 33.5 114.5 54 q62.5 20.5 122.5 20.5 q99 0 165 -58 l-4 -39 q-49 -449 -93 -638 l-8 -35 l-4 -22 l4 2 Z" /><glyph glyph-name="uni0237" unicode="&#x237;" d="M406 373 q83 -363 83 -565 q0 -43 -2 -62 q-4 -29 -46 -73.5 q-42 -44.5 -101.5 -77.5 q-59.5 -33 -116.5 -33 q-56 10 -112 38 q-56 28 -99 61 q-43 33 -62 58 q-1 13 -1 35 q0 36 5.5 62 q5.5 26 20.5 75 q58 -13 145 -25 l33 699 l-127 453 q31 37 83 70.5 q52 33.5 114.5 54 q62.5 20.5 122.5 20.5 q99 0 165 -58 l-4 -39 q-49 -449 -93 -638 l-8 -35 l-4 -22 l4 2 Z" /><glyph glyph-name="k" unicode="k" d="M402 260 q121 202 245 500 q-98 80 -151 205 q30 63 92 117 q62 54 135.5 87 q73.5 33 137.5 35 q45 -43 84.5 -111 q39.5 -68 62.5 -144 q23 -76 23 -142 q-36 -62 -104 -158 q-68 -96 -149 -189 q14 -20 44.5 -54.5 q30.5 -34.5 56.5 -60.5 q59 30 118 93 l118 -91 q0 -81 -8.5 -129.5 q-8.5 -48.5 -32.5 -100.5 q-31 -69 -84 -103 q-53 -34 -120 -34 q-48 0 -104 17 q-65 20 -109.5 88.5 q-44.5 68.5 -71.5 164.5 l-20 -22 q-90 -96 -146.5 -150.5 q-56.5 -54.5 -120.5 -97.5 q-23 3 -65 22 q-42 19 -83 47 q-41 28 -62 56 q4 143 27.5 291 q23.5 148 58.5 266 q-61 197 -97.5 369.5 q-36.5 172.5 -78.5 434.5 q50 62 144 104.5 q94 42.5 186 42.5 q94 0 152 -47 q2 -39 2 -126 q0 -250 -28 -586.5 q-28 -336.5 -63 -588.5 l11 -5 Z" /><glyph glyph-name="kgreenlandic" unicode="&#x138;" d="M153 396 q-21 54 -51 201 q-30 147 -53 294 q-23 147 -23 188 q0 8 1 10 q24 38 74.5 66 q50.5 28 112 42.5 q61.5 14.5 117.5 14.5 q48 0 86 -10.5 q38 -10.5 60 -31.5 q-18 -222 -50.5 -468 q-32.5 -246 -65.5 -437 l11 -5 q67 106 130 228.5 q63 122.5 132 271.5 l-19 20 q-48 48 -76.5 86.5 q-28.5 38.5 -48.5 98.5 q33 63 96.5 117 q63.5 54 138.5 87 q75 33 139 35 q43 -43 80 -111 q37 -68 58 -144 q21 -76 18 -142 q-37 -61 -108.5 -157.5 q-71.5 -96.5 -156.5 -189.5 q13 -20 42.5 -54.5 q29.5 -34.5 54.5 -60.5 q62 31 121 93 l115 -91 q-3 -81 -13 -129.5 q-10 -48.5 -36 -100.5 q-34 -69 -88 -103 q-54 -34 -121 -34 q-49 0 -103 17 q-117 36 -173 253 l-14 -15 q-90 -94 -152.5 -152.5 q-62.5 -58.5 -129.5 -102.5 q-23 3 -64 22 q-41 19 -81 47 q-40 28 -61 56 q10 69 36.5 138.5 q26.5 69.5 64.5 152.5 Z" /><glyph glyph-name="l" unicode="l" d="M105 138 q-14 16 -21.5 33.5 q-7.5 17.5 -7.5 42.5 q0 9 4 35 l69 357 q-28 145 -54.5 339.5 q-26.5 194.5 -43.5 350 q-17 155.5 -14 170.5 q49 62 139.5 104.5 q90.5 42.5 179.5 42.5 q92 0 149 -47 q-8 -234 -29.5 -513 q-21.5 -279 -66.5 -739 l143 67 l80 -127 q-20 -62 -63 -125.5 q-43 -63.5 -100 -106 q-57 -42.5 -116 -42.5 q-62 0 -128 47 q-66 47 -120 111 Z" /><glyph glyph-name="lacute" unicode="&#x13a;" d="M38 1786 q15 -103 64 -157 q32 -5 65 -5 q97 0 221 32 q124 32 218 82 q-8 80 -55.5 157.5 q-47.5 77.5 -124.5 124.5 q-111 -78 -190.5 -126.5 q-79.5 -48.5 -197.5 -107.5 ZM105 138 q-14 16 -21.5 33.5 q-7.5 17.5 -7.5 42.5 q0 9 4 35 l69 357 q-28 146 -55 331.5 q-27 185.5 -43.5 329 q-16.5 143.5 -13.5 158.5 q49 62 139.5 104.5 q90.5 42.5 179.5 42.5 q92 0 149 -47 q-8 -224 -28 -472 q-20 -248 -68 -739 l143 67 l80 -127 q-20 -62 -63 -125.5 q-43 -63.5 -100 -106 q-57 -42.5 -116 -42.5 q-62 0 -128 47 q-66 47 -120 111 Z" /><glyph glyph-name="lcaron" unicode="&#x13e;" d="M791 1623 q-49 0 -78.5 -9.5 q-29.5 -9.5 -70.5 -31.5 q-23 -13 -30 -16 l-19 -514 l154 -28 q55 95 92 195.5 q37 100.5 79 239.5 l18 61 q0 27 -20 50.5 q-20 23.5 -53.5 38 q-33.5 14.5 -71.5 14.5 ZM105 138 q-14 16 -21.5 33.5 q-7.5 17.5 -7.5 42.5 q0 18 4 35 l69 357 q-27 139 -52.5 324.5 q-25.5 185.5 -42.5 340 q-17 154.5 -17 189.5 l0 6 q49 62 137.5 104.5 q88.5 42.5 175.5 42.5 q96 0 155 -47 q-8 -234 -29.5 -513 q-21.5 -279 -66.5 -739 l216 124 l87 -124 q-19 -59 -82.5 -139 q-63.5 -80 -140.5 -137.5 q-77 -57.5 -136 -57.5 q-62 0 -128 47 q-66 47 -120 111 Z" /><glyph glyph-name="ldot" unicode="&#x140;" d="M105 138 q-14 16 -21.5 33.5 q-7.5 17.5 -7.5 42.5 q0 18 4 35 l69 357 q-27 139 -52.5 324.5 q-25.5 185.5 -42.5 340 q-17 154.5 -17 189.5 l0 6 q49 62 137.5 104.5 q88.5 42.5 175.5 42.5 q96 0 155 -47 q-8 -234 -29.5 -513 q-21.5 -279 -66.5 -739 l216 124 l87 -124 q-19 -59 -82.5 -139 q-63.5 -80 -140.5 -137.5 q-77 -57.5 -136 -57.5 q-62 0 -128 47 q-66 47 -120 111 ZM528 721 q9 -31 42.5 -63.5 q33.5 -32.5 80.5 -55.5 q47 -23 94 -26 q67 29 134 90 q67 61 95 127 q-17 79 -71.5 127.5 q-54.5 48.5 -125 69 q-70.5 20.5 -140.5 20.5 q-15 -50 -32 -95 q-17 -45 -29.5 -76.5 q-12.5 -31.5 -18.5 -45.5 l-29 -72 Z" /><glyph glyph-name="lslash" unicode="&#x142;" d="M475 796 q-23 -270 -44 -482 l199 104 l80 -127 q-20 -60 -75 -134 q-55 -74 -124 -125.5 q-69 -51.5 -128 -51.5 q-62 0 -128 47 q-66 47 -120 111 q-14 16 -21.5 33.5 q-7.5 17.5 -7.5 42.5 q0 9 4 35 l73 371 l-96 -58 q-34 19 -65.5 67.5 q-31.5 48.5 -35.5 93.5 l173 117 q-37 213 -66 410.5 q-29 197.5 -26 215.5 q49 62 139.5 104.5 q90.5 42.5 179.5 42.5 q41 0 72.5 -11 q31.5 -11 61.5 -36 q-7 -215 -25 -498 l167 113 q29 -18 46.5 -70 q17.5 -52 17.5 -113 q0 -30 -4 -53 l-247 -149 Z" /><glyph glyph-name="m" unicode="m" d="M1200 769 q-8 -15 -89 -164 q-39 -71 -76 -139.5 q-37 -68.5 -51 -102.5 q30 -87 40.5 -153.5 q10.5 -66.5 18.5 -178.5 q-33 -25 -79 -38 q-46 -13 -97 -13 q-69 0 -132 23 q-63 23 -98 62 q8 83 18 130.5 q10 47.5 25 102.5 q12 37 18 68 l-31 408 l-24 4 l-40 -82 q-124 -258 -160 -336 q35 -103 54.5 -173.5 q19.5 -70.5 29.5 -159.5 q-32 -23 -78.5 -35 q-46.5 -12 -98.5 -12 q-79 0 -151.5 24 q-72.5 24 -109.5 65 q17 95 28 140.5 q11 45.5 30 115.5 l12 43 q-28 62 -64.5 219 q-36.5 157 -63 306 q-26.5 149 -22.5 168 q23 38 72.5 66.5 q49.5 28.5 110.5 43.5 q61 15 117 15 q99 0 146 -41 l-73 -628 l26 -3 l165 656 q35 14 97 14 l59 -1 q61 0 136.5 -19.5 q75.5 -19.5 135.5 -57.5 q3 -36 3 -72 q0 -78 -11 -151 q-11 -73 -35 -199 q-17 -82 -26 -135 l29 -6 l190 623 q5 1 21 6 q16 5 38 8 q22 3 50 3 q77 0 173.5 -27 q96.5 -27 182.5 -97 q-6 -154 -43.5 -345 q-37.5 -191 -118.5 -403 l170 89 l89 -121 q-23 -68 -67 -137.5 q-44 -69.5 -99 -115.5 q-55 -46 -109 -46 q-46 0 -99.5 26 q-53.5 26 -90.5 66 q-36 38 -50.5 71.5 q-14.5 33.5 -11.5 80.5 q16 276 38 540 l-24 5 Z" /><glyph glyph-name="n" unicode="n" d="M662 781 q-117 -258 -201 -421 q51 -151 84 -336 q-62 -44 -187 -44 q-69 0 -142 23 q-73 23 -109 63 q20 115 34.5 176.5 q14.5 61.5 35.5 125.5 q-23 54 -59 204 q-36 150 -64 298 q-28 148 -28 184 l1 7 q33 56 121.5 87.5 q88.5 31.5 178.5 31.5 q104 0 145 -37 l-73 -626 l16 -3 q16 53 34.5 121 q18.5 68 26.5 99 q37 142 66 239.5 q29 97.5 69 191.5 q47 15 133 15 q105 0 196 -33.5 q91 -33.5 155 -108.5 q0 -85 -21.5 -214.5 q-21.5 -129.5 -59 -267 q-37.5 -137.5 -81.5 -245.5 l170 89 l89 -121 q-23 -68 -67 -137.5 q-44 -69.5 -99 -115.5 q-55 -46 -109 -46 q-46 0 -99.5 26 q-53.5 26 -90.5 66 q-36 38 -49.5 70 q-13.5 32 -11.5 79 l25 551 l-29 9 Z" /><glyph glyph-name="eng" unicode="&#x14b;" d="M653 781 q-123 -251 -216 -421 q30 -101 47.5 -174 q17.5 -73 24.5 -162 q-63 -44 -173 -44 q-80 0 -154.5 22.5 q-74.5 22.5 -108.5 63.5 q24 115 40.5 176.5 q16.5 61.5 39.5 125.5 q-21 54 -51 201 q-30 147 -53 294 q-23 147 -23 188 q0 8 1 10 q35 56 124.5 87.5 q89.5 31.5 179.5 31.5 q104 0 144 -37 l-95 -626 l16 -3 q27 81 69 223 q46 152 77 243.5 q31 91.5 73 184.5 q48 15 132 15 q105 0 195.5 -33.5 q90.5 -33.5 152.5 -108.5 q-4 -118 -51.5 -314 q-47.5 -196 -113.5 -359 q102 -396 102 -589 l-1 -30 q-3 -29 -43.5 -73.5 q-40.5 -44.5 -99 -77.5 q-58.5 -33 -115.5 -33 q-56 10 -113 38 q-57 28 -101 61 q-44 33 -64 58 q-3 27 -3 48 q0 28 4 50.5 q4 22.5 10 44 q6 21.5 8 29.5 q58 -13 145 -25 l-5 528 l27 378 l-28 9 Z" /><glyph glyph-name="o" unicode="o" d="M1007 987 q9 -44 12.5 -92.5 q3.5 -48.5 3.5 -135.5 q0 -140 -24.5 -318.5 q-24.5 -178.5 -52.5 -280.5 q-17 -21 -66 -52 q-49 -31 -98 -56 q-66 -33 -114 -50 q-48 -17 -96 -22 q-68 6 -160 30 q-92 24 -171.5 57.5 q-79.5 33.5 -114.5 68.5 q-31 198 -47.5 342 q-16.5 144 -16.5 280 q0 125 18 248 q28 35 114 78.5 q86 43.5 183 78 q97 34.5 149 41.5 q83 -8 179 -40 q96 -32 177.5 -79 q81.5 -47 124.5 -98 ZM426 834 q-12 -120 -12 -241 q0 -160 14 -301 q82 -54 166 -72 l55 38 q8 83 8 222 q0 157 -17 320 l-154 63 l-60 -29 Z" /><glyph glyph-name="oslash" unicode="ø" d="M1007 987 q9 -44 12.5 -92.5 q3.5 -48.5 3.5 -135.5 q0 -140 -24.5 -318.5 q-24.5 -178.5 -52.5 -280.5 q-17 -21 -66 -52 q-49 -31 -98 -56 q-66 -33 -114 -50 q-48 -17 -96 -22 q-65 6 -145 26 l-108 -238 q-61 3 -102.5 25 q-41.5 22 -74.5 77 l78 207 q-64 29 -94 59 q-31 198 -47.5 342 q-16.5 144 -16.5 280 q0 125 18 248 q28 35 114 78.5 q86 43.5 183 78 q97 34.5 149 41.5 q77 -8 151 -31 l109 275 q74 -21 114.5 -53 q40.5 -32 76.5 -104 l-95 -206 q84 -48 125 -98 ZM649 258 q8 83 8 222 q0 157 -17 320 l-154 63 l-60 -29 q-12 -120 -12 -241 q0 -160 14 -301 q82 -54 166 -72 l55 38 Z" /><glyph glyph-name="oe" unicode="&#x153;" d="M1011 282 q30 6 74.5 27 q44.5 21 124.5 62 q62 33 127 65 l85 -139 q-44 -59 -133.5 -134.5 q-89.5 -75.5 -192 -130 q-102.5 -54.5 -185.5 -54.5 q-26 0 -51 13.5 q-25 13.5 -55 44.5 q-26 26 -39 37 l-1 0 q-117 -85 -193 -93 q-77 7 -181 32.5 q-104 25.5 -183.5 66 q-79.5 40.5 -86.5 88.5 q-60 381 -60 623 q0 77 6 135 q6 58 27 86 q31 41 120.5 85.5 q89.5 44.5 183.5 76 q94 31.5 128 31.5 q42 0 104 -22.5 q62 -22.5 122 -59.5 l7 5 q55 34 131 64.5 q76 30.5 126 30.5 q35 -2 78 -30 q96 -65 150.5 -91.5 q54.5 -26.5 133.5 -54.5 l28 -10 q12 -5 17 -10 q5 -5 9.5 -18.5 q4.5 -13.5 9.5 -43.5 q6 -36 6 -77 q0 -80 -21 -119 q-9 -17 -87.5 -108.5 q-78.5 -91.5 -177.5 -198 q-99 -106.5 -180 -179.5 l29 0 ZM426 834 q-12 -120 -12 -241 q0 -160 14 -301 q82 -54 166 -72 l55 38 q8 83 8 222 q0 157 -17 320 l-154 63 l-60 -29 ZM1182 792 q-54 12 -194 57 q0 -57 -7 -210.5 q-7 -153.5 -16 -220.5 l-1 -3 q155 229 218 377 Z" /><glyph glyph-name="p" unicode="p" d="M619 -132 l38 -163 q-23 -35 -67 -68 q-44 -33 -95 -54 q-51 -21 -94 -21 q-36 0 -77 17.5 q-41 17.5 -78 43.5 q-31 22 -48 38 q-17 16 -28 42.5 q-11 26.5 -13 69.5 l-26 739 q-35 140 -69 316 q-34 176 -36 223 l0 10 q34 57 118.5 90 q84.5 33 171.5 33 q101 0 146 -41 l-73 -619 l3 -1 l231 642 q8 2 25 7 q17 5 37.5 8.5 q20.5 3.5 46.5 3.5 q42 0 103.5 -16 q61.5 -16 129.5 -49 q68 -33 124 -81 q-5 -241 -48 -489 q-43 -248 -137 -554 q-52 -15 -98 -15 q-97 0 -194 25 q-97 25 -151 54 q-11 -90 -34 -191 l192 0 ZM672 785 q-55 -112 -126 -261.5 q-71 -149.5 -94 -203.5 q39 -33 108 -61 q69 -28 108 -30 q11 106 20 274.5 q9 168.5 11 273.5 l-27 8 Z" /><glyph glyph-name="thorn" unicode="þ" d="M578 -132 l32 -163 q-24 -35 -69 -68 q-45 -33 -97 -54 q-52 -21 -95 -21 q-36 0 -76 17.5 q-40 17.5 -77 43.5 q-31 22 -47 38 q-16 16 -26 42.5 q-10 26.5 -10 69.5 l-1 739 l4 15 q-22 132 -45 330 q-23 198 -38.5 372 q-15.5 174 -15.5 224 q0 11 1 13 q51 63 142.5 105 q91.5 42 180.5 42 q94 0 152 -47 q-9 -166 -28 -334.5 q-19 -168.5 -55 -435.5 q-23 -169 -35 -271 l252 640 q8 2 25 7 q17 5 38 8.5 q21 3.5 47 3.5 q42 0 103 -16 q61 -16 127.5 -49 q66.5 -33 121.5 -81 q-14 -241 -65.5 -489 q-51.5 -248 -156.5 -554 q-52 -15 -98 -15 q-97 0 -193.5 25 q-96.5 25 -148.5 54 q-13 -80 -41 -191 l192 0 ZM669 785 q-51 -97 -135.5 -264 q-84.5 -167 -109.5 -221 q37 -32 104 -57 q67 -25 107 -28 q17 118 36.5 294.5 q19.5 176.5 24.5 267.5 l-27 8 Z" /><glyph glyph-name="q" unicode="q" d="M994 -97 l124 70 l88 -100 q-65 -176 -138 -249 q-59 -60 -118 -62 q-107 -4 -221 78 q-43 30 -64 63 q-21 33 -21 73 q0 11 1 16 l58 703 l-20 2 q-56 -144 -131 -291 q-75 -147 -139 -201 q-32 -25 -60 -25 q-23 0 -45.5 12 q-22.5 12 -60.5 39 q-17 12 -44 27 q-44 25 -65.5 44 q-21.5 19 -21.5 45 l2 61 q4 74 4 112 q0 135 -17 300.5 q-17 165.5 -49 274.5 q-11 37 -11 55 q0 12 6 24 q6 12 20 31 q79 100 184.5 141.5 q105.5 41.5 180.5 51.5 q71 -50 123.5 -119.5 q52.5 -69.5 111.5 -170.5 q-1 61 -6 179 l-2 67 q17 11 65 19.5 q48 8.5 103 8.5 q91 0 157.5 -29 q66.5 -29 119.5 -92 q4 -34 -19.5 -174.5 q-23.5 -140.5 -64.5 -303 q-41 -162.5 -86 -270.5 l56 -410 ZM450 339 q49 48 116 162 q67 114 104 193 q2 24 2 27 l0 53 q-43 11 -128 28 l-82 18 l0 -107 q0 -165 -42 -360 l30 -14 Z" /><glyph glyph-name="r" unicode="r" d="M412 545 q5 24 13.5 72.5 q8.5 48.5 13.5 77.5 q27 167 51.5 283.5 q24.5 116.5 56.5 187.5 q63 14 128 14 q91 0 168.5 -25 q77.5 -25 126.5 -59 q9 -63 9 -132 q0 -113 -18.5 -231.5 q-18.5 -118.5 -42.5 -215.5 q-75 -42 -158 -42 q-50 0 -112 15 q1 35 1 166 q0 96 -1 132 l-49 8 q-37 -109 -110 -391 l-35 -131 l183 24 l57 -134 q-59 -93 -143 -138.5 q-84 -45.5 -182 -45.5 q-56 0 -99 10 q-43 10 -73 38 q-17 15 -39.5 46 q-22.5 31 -40 69.5 q-17.5 38.5 -17.5 73.5 q0 22 7 40 l80 198 l-179 608 q39 56 108 86.5 q69 30.5 147 30.5 q82 0 145 -31 l-7 -602 l11 -2 Z" /><glyph glyph-name="s" unicode="s" d="M396 727 q104 -55 249 -150.5 q145 -95.5 196 -159.5 q1 -12 1 -36 q0 -56 -8.5 -112 q-8.5 -56 -24.5 -101 q-65 -63 -130 -110 q-65 -47 -140 -78 q-84 3 -164.5 17.5 q-80.5 14.5 -183.5 37.5 q-62 15 -94 20 q-48 87 -48 165 q0 43 11.5 75 q11.5 32 23.5 52 q12 20 15 27 q95 -3 183.5 -47.5 q88.5 -44.5 193.5 -121.5 l49 24 q7 38 7 94 q0 26 -1 37 q-45 13 -110 37 q-116 43 -217.5 96 q-101.5 53 -138.5 101 q-13 50 -17.5 151.5 q-4.5 101.5 -4.5 179.5 q0 27 32.5 64 q32.5 37 74.5 70.5 q42 33.5 71 50.5 q57 34 133 64 q76 30 128 30 q27 0 60 -13.5 q33 -13.5 81 -38.5 q49 -25 62 -30 l161 -54 q10 -34 10 -73 q0 -76 -39 -156.5 q-39 -80.5 -110 -154.5 q-61 25 -142.5 96 q-81.5 71 -133.5 142 l-26 -9 l-9 -186 Z" /><glyph glyph-name="scedilla" unicode="&#x15f;" d="M396 727 q104 -55 249 -150.5 q145 -95.5 196 -159.5 q1 -12 1 -36 q0 -56 -8.5 -112 q-8.5 -56 -24.5 -101 q-110 -106 -209 -159 l88 -139 q-22 -86 -95.5 -157.5 q-73.5 -71.5 -167.5 -103.5 q-18 -2 -30 -2 q-49 0 -99 19 q-50 19 -88.5 45 q-38.5 26 -55.5 48 q-1 7 -1 21 q0 34 7 74 q7 40 16 71 q62 -15 135.5 -27 q73.5 -12 117.5 -12 l-70 155 q-68 12 -171 35 q-64 15 -89 19 q-48 87 -48 165 q0 43 11.5 75 q11.5 32 23.5 52 q12 20 15 27 q95 -3 183.5 -47.5 q88.5 -44.5 193.5 -121.5 l49 24 q7 38 7 94 q0 26 -1 37 q-45 13 -110 37 q-116 43 -217.5 96 q-101.5 53 -138.5 101 q-13 50 -17.5 151.5 q-4.5 101.5 -4.5 179.5 q0 27 32.5 64 q32.5 37 74.5 70.5 q42 33.5 71 50.5 q57 34 133 64 q76 30 128 30 q27 0 60 -13.5 q33 -13.5 81 -38.5 q49 -25 62 -30 l161 -54 q10 -34 10 -73 q0 -76 -39 -156.5 q-39 -80.5 -110 -154.5 q-61 25 -142.5 96 q-81.5 71 -133.5 142 l-26 -9 l-9 -186 Z" /><glyph glyph-name="germandbls" unicode="ß" d="M869 796 q102 -64 223 -157.5 q121 -93.5 162 -152.5 q-2 -55 -41 -154.5 q-39 -99.5 -74 -164.5 q-60 -59 -135.5 -109 q-75.5 -50 -152.5 -79 l-121 34 q-91 25 -153 41 q-31 69 -31 134 q0 61 19.5 106 q19.5 45 36 68 q16.5 23 19.5 29 q52 -7 88.5 -26.5 q36.5 -19.5 61 -45.5 q24.5 -26 56.5 -69 l18 -23 l23 7 q17 44 31 100 q14 56 19 98 q-116 51 -227.5 112 q-111.5 61 -149.5 110 l144 533 q-44 18 -108.5 55 q-64.5 37 -112.5 69 l-16 -14 l19 -1511 q-4 -30 -30 -67 q-22 -33 -67 -70 q-45 -37 -99 -62 q-54 -25 -103 -25 q-55 10 -107.5 38 q-52.5 28 -91.5 61 q-39 33 -54 58 q1 52 10.5 90 q9.5 38 31.5 92 q69 -15 248 -38 q-30 144 -63 428.5 q-33 284.5 -55.5 566 q-22.5 281.5 -22.5 403.5 l1 34 q83 115 190 199 q107 84 229 119 q85 -6 201.5 -36 q116.5 -30 234 -81 q117.5 -51 202.5 -116 q-16 -111 -87 -268 q-71 -157 -166 -316 Z" /><glyph glyph-name="t" unicode="t" d="M827 349 q-21 -54 -86.5 -144 q-65.5 -90 -143 -157.5 q-77.5 -67.5 -137.5 -67.5 q-61 0 -139.5 40 q-78.5 40 -135 101 q-56.5 61 -58.5 119 q0 22 13 76.5 q13 54.5 52 179.5 l-50 358 l-96 6 q-11 30 -16 70 q-5 40 -5 78 q0 21 1 29 l112 39 l61 363 q16 8 47.5 13.5 q31.5 5.5 68.5 5.5 q51 0 101 -10 q50 -10 87 -30 l-11 -281 l222 45 q41 -70 41 -152 q0 -49 -10.5 -86.5 q-10.5 -37.5 -29.5 -88.5 q-114 -9 -233 -14 l2 -529 l216 178 l127 -141 Z" /><glyph glyph-name="tbar" unicode="&#x167;" d="M828 289 q-33 -59 -94 -132 q-61 -73 -132 -125 q-71 -52 -132 -52 q-61 0 -140.5 40.5 q-79.5 40.5 -136 101.5 q-56.5 61 -56.5 118 q0 22 13 76.5 q13 54.5 52 179.5 l0 1 q-82 2 -124 4 q-22 59 -22 113 q0 37 8 72 l115 22 l-17 155 l-106 6 q-11 30 -16 67.5 q-5 37.5 -5 72.5 q0 20 1 28 l122 39 l51 363 q16 8 47.5 13.5 q31.5 5.5 68.5 5.5 q51 0 101 -10 q50 -10 87 -30 l-11 -281 l222 45 q41 -70 41 -145 q0 -40 -9 -73.5 q-9 -33.5 -18.5 -57 q-9.5 -23.5 -12.5 -31.5 q-114 -9 -233 -14 l0 -109 l230 22 q25 -47 25 -115 q0 -43 -11 -84 q-11 -41 -30 -68 q-65 -6 -213 -10 l1 -185 l221 121 l113 -144 Z" /><glyph glyph-name="tcaron" unicode="&#x165;" d="M714 1940 q-56 0 -104 -14 l-51 -606 l150 -40 q106 145 242 559 q-94 101 -237 101 ZM847 349 q-20 -53 -90.5 -143 q-70.5 -90 -153.5 -158 q-83 -68 -143 -68 q-61 0 -139.5 40 q-78.5 40 -135 101 q-56.5 61 -58.5 119 q0 22 13 76.5 q13 54.5 52 179.5 l-50 358 l-96 6 q-11 30 -16 70 q-5 40 -5 78 q0 21 1 29 l112 39 l61 363 q16 9 43.5 14 q27.5 5 59.5 5 q44 0 88.5 -9.5 q44.5 -9.5 82.5 -30.5 l9 -281 l282 45 q41 -70 41 -152 q0 -49 -10.5 -86.5 q-10.5 -37.5 -29.5 -88.5 q-69 -6 -283 -14 l2 -529 l236 178 l127 -141 Z" /><glyph glyph-name="uni0163" unicode="&#x163;" d="M827 349 q-17 -43 -64.5 -113 q-47.5 -70 -109 -135 q-61.5 -65 -117.5 -97 l85 -134 q-22 -86 -95.5 -157.5 q-73.5 -71.5 -167.5 -103.5 q-18 -2 -30 -2 q-49 0 -99 19 q-50 19 -88.5 45 q-38.5 26 -55.5 48 q-1 7 -1 21 q0 34 7 74 q7 40 16 71 q62 -15 135.5 -27 q73.5 -12 117.5 -12 l-92 205 q-61 41 -100.5 91 q-39.5 50 -40.5 98 q0 22 13 76.5 q13 54.5 52 179.5 l-50 358 l-96 6 q-11 30 -16 70 q-5 40 -5 78 q0 21 1 29 l112 39 l61 363 q16 8 47.5 13.5 q31.5 5.5 68.5 5.5 q51 0 101 -10 q50 -10 87 -30 l-11 -281 l222 45 q41 -70 41 -152 q0 -49 -10.5 -86.5 q-10.5 -37.5 -29.5 -88.5 q-114 -9 -233 -14 l2 -529 l216 178 l127 -141 Z" /><glyph glyph-name="uni1E6B" unicode="&#x1e6b;" d="M152 1392 q9 -31 42.5 -63.5 q33.5 -32.5 80.5 -55.5 q47 -23 94 -26 q67 29 134 90 q67 61 95 127 q-17 79 -71.5 127.5 q-54.5 48.5 -125 69 q-70.5 20.5 -140.5 20.5 q-15 -50 -32 -95 q-17 -45 -29.5 -76.5 q-12.5 -31.5 -18.5 -45.5 l-29 -72 ZM827 349 q-21 -54 -86.5 -144 q-65.5 -90 -143 -157.5 q-77.5 -67.5 -137.5 -67.5 q-61 0 -139.5 40 q-78.5 40 -135 101 q-56.5 61 -58.5 119 q0 22 13 76.5 q13 54.5 52 179.5 l-50 358 l-96 6 q-11 30 -16 70 q-5 40 -5 78 q0 21 1 29 l112 39 l61 363 q16 8 47.5 13.5 q31.5 5.5 68.5 5.5 q51 0 101 -10 q50 -10 87 -30 l-11 -281 l222 45 q41 -70 41 -152 q0 -49 -10.5 -86.5 q-10.5 -37.5 -29.5 -88.5 q-114 -9 -233 -14 l2 -529 l216 178 l127 -141 Z" /><glyph glyph-name="u" unicode="u" d="M470 931 q0 -157 -11.5 -291.5 q-11.5 -134.5 -39.5 -264.5 l30 -14 q35 34 80.5 114 q45.5 80 83.5 164.5 q38 84.5 49 124.5 q-29 346 -29 390 q17 11 65 19.5 q48 8.5 103 8.5 q91 0 157.5 -29 q66.5 -29 119.5 -92 l0 -11 q0 -50 -24.5 -190 q-24.5 -140 -64.5 -294.5 q-40 -154.5 -83 -257.5 l173 92 l85 -121 q-57 -132 -130.5 -215.5 q-73.5 -83.5 -154.5 -83.5 q-47 0 -100.5 27.5 q-53.5 27.5 -94.5 72.5 q-4 4 -19.5 20 q-15.5 16 -24 39 q-8.5 23 -8.5 54 q0 8 2 28 q14 139 34 269 l-15 7 q-76 -193 -165.5 -355 q-89.5 -162 -160.5 -162 q-25 0 -49.5 12.5 q-24.5 12.5 -60.5 38.5 l-35 23 q-51 33 -77.5 56.5 q-26.5 23.5 -26.5 51.5 l84 411 l-155 431 q26 64 84 106 q58 42 128 61.5 q70 19.5 137 19.5 q68 0 104 -17 q10 -106 10 -243 Z" /><glyph glyph-name="uogonek" unicode="&#x173;" d="M1117 -116 l47 -127 q-51 -100 -113.5 -147.5 q-62.5 -47.5 -148.5 -47.5 q-48 0 -106.5 33.5 q-58.5 33.5 -99.5 83.5 q-41 50 -41 96 q0 57 43 111 q43 54 113 107 q-34 12 -67 34.5 q-33 22.5 -60 52.5 q-4 4 -19.5 20 q-15.5 16 -24 39 q-8.5 23 -8.5 54 q0 8 2 28 q14 139 34 269 l-15 7 q-76 -193 -165.5 -355 q-89.5 -162 -160.5 -162 q-25 0 -49.5 12.5 q-24.5 12.5 -60.5 38.5 l-35 23 q-51 33 -77.5 56.5 q-26.5 23.5 -26.5 51.5 l84 411 l-155 431 q26 64 84 106 q58 42 128 61.5 q70 19.5 137 19.5 q68 0 104 -17 q10 -106 10 -243 q0 -157 -11.5 -291.5 q-11.5 -134.5 -39.5 -264.5 l30 -14 q35 34 80.5 114 q45.5 80 83.5 164.5 q38 84.5 49 124.5 q-29 346 -29 390 q17 11 65 19.5 q48 8.5 103 8.5 q91 0 157.5 -29 q66.5 -29 119.5 -92 l0 -11 q0 -50 -24.5 -190 q-24.5 -140 -64.5 -294.5 q-40 -154.5 -83 -257.5 l173 92 l85 -121 q-42 -98 -90 -165 q-34 -53 -85.5 -141 q-51.5 -88 -81.5 -143 l14 -13 l196 67 Z" /><glyph glyph-name="v" unicode="v" d="M165 693 l-165 196 q25 163 101 220 q39 29 84 44.5 q45 15.5 89 15.5 q53 0 95 -22.5 q42 -22.5 64 -67.5 l1 0 q12 -26 41.5 -170 q29.5 -144 55.5 -315.5 q26 -171.5 33 -288.5 l13 -1 q37 94 71 220 q34 126 50 215 q-7 6 -44.5 38 q-37.5 32 -67 71 q-29.5 39 -49.5 84 q28 66 86.5 126 q58.5 60 129.5 99 q71 39 135 47 q69 -57 111 -162.5 q42 -105.5 46 -211.5 q-15 -30 -31 -66 q-70 -148 -139.5 -284 q-69.5 -136 -143.5 -261 q35 -71 53 -175 q-38 -32 -110.5 -48.5 q-72.5 -16.5 -156.5 -16.5 q-88 0 -163.5 18 q-75.5 18 -108.5 50 q11 97 22.5 147.5 q11.5 50.5 29.5 88.5 l-132 410 Z" /><glyph glyph-name="w" unicode="w" d="M1429 1204 q71 -57 118.5 -163 q47.5 -106 56.5 -211 q-158 -373 -291 -611 q40 -73 62 -175 q-36 -32 -104.5 -48.5 q-68.5 -16.5 -148.5 -16.5 q-82 0 -152 18 q-70 18 -106 50 q5 78 14 125 q9 47 23 84 l-65 233 q-33 -113 -58 -192 q-25 -79 -53 -147 q15 -42 15 -107 q-19 -30 -78.5 -46.5 q-59.5 -16.5 -135.5 -16.5 q-78 0 -148 17.5 q-70 17.5 -105 49.5 q7 103 15 150.5 q8 47.5 24 85.5 l-153 410 l-154 275 q0 53 41 102 q41 49 102 79 q61 30 117 30 q58 0 105 -21.5 q47 -21.5 70 -64.5 q1 -5 28 -151 q88 -443 111 -637 l13 -1 q35 100 66.5 228 q31.5 128 41.5 207 q-7 6 -46.5 38.5 q-39.5 32.5 -70.5 71 q-31 38.5 -53 83.5 q23 66 78 126 q55 60 124.5 99 q69.5 39 133.5 47 q71 -57 118.5 -163 q47.5 -106 56.5 -211 l-2 -1 q34 -143 61.5 -283 q27.5 -140 37.5 -240 l15 0 q36 99 68 226 q32 127 42 207 q-7 6 -46.5 38.5 q-39.5 32.5 -70.5 71 q-31 38.5 -53 83.5 q23 66 78 126 q55 60 124.5 99 q69.5 39 133.5 47 Z" /><glyph glyph-name="x" unicode="x" d="M620 729 q22 131 32 197 q14 88 21 124 q7 36 14 48 q40 62 105.5 84 q65.5 22 162.5 22 q41 -35 81 -114 q40 -79 66 -170 q26 -91 26 -157 q-22 -32 -67.5 -57.5 q-45.5 -25.5 -81.5 -35.5 q-21 18 -52.5 72.5 q-31.5 54.5 -53.5 105.5 l-161 -189 l188 -301 l133 71 l82 -98 q-27 -116 -76 -213 q-49 -97 -142 -129 q-39 -10 -80 -10 q-76 0 -127.5 32 q-51.5 32 -68.5 89 q-32 105 -49 188.5 q-17 83.5 -34 186.5 l-21 0 q-19 -180 -32.5 -277.5 q-13.5 -97.5 -26.5 -112.5 q-39 -47 -92 -76.5 q-53 -29.5 -150 -29.5 l-28 1 q-41 35 -82.5 113.5 q-41.5 78.5 -68.5 168 q-27 89.5 -27 155.5 q23 32 68.5 57.5 q45.5 25.5 81.5 35.5 q21 -18 53 -73 q32 -55 52 -105 l160 221 l-156 251 l-143 -66 l-91 113 q27 116 76 214 q49 98 141 130 q39 10 81 10 q78 0 138 -34 q60 -34 76 -89 q22 -75 32 -134.5 q10 -59.5 19 -140.5 q5 -52 10 -81 l12 3 Z" /><glyph glyph-name="y" unicode="y" d="M1080 1049 l-4 -20 q-13 -67 -35 -129.5 q-22 -62.5 -80 -168.5 l138 -793 q-21 -81 -76 -155.5 q-55 -74.5 -133 -131 q-78 -56.5 -166 -86.5 q-21 -3 -43 -3 q-70 0 -149 27 q-79 27 -141.5 65 q-62.5 38 -85.5 68 q-1 13 -1 35 q0 36 5.5 62 q5.5 26 20.5 75 q75 -17 201.5 -32.5 q126.5 -15.5 194.5 -15.5 q2 33 2 108 q0 119 -7 290 q-6 186 -6 258 l0 30 l-10 3 q-29 -75 -86 -186.5 q-57 -111.5 -119 -208.5 q-62 -97 -107 -135 q-32 -25 -60 -25 q-44 0 -116 51 l-35 23 q-51 33 -77.5 56.5 q-26.5 23.5 -26.5 51.5 l84 411 l-155 431 q26 64 84 106 q58 42 128 61.5 q70 19.5 137 19.5 q68 0 104 -17 q10 -106 10 -243 q0 -108 -6 -218 q-5 -93 -15.5 -171 q-10.5 -78 -29.5 -167 l30 -14 q35 34 81 109 q46 75 84 153 q38 78 48 116 q-29 346 -29 415 q17 11 65 19.5 q48 8.5 103 8.5 q91 0 157.5 -29 q66.5 -29 119.5 -92 q0 -7 -3 -16 l5 4 Z" /><glyph glyph-name="z" unicode="z" d="M660 1051 q43 64 91 108 q48 44 114 47 q56 -39 90.5 -124.5 q34.5 -85.5 34.5 -173.5 q0 -59 -16 -103 q-28 -18 -56 -18 q-14 0 -49 7 l-340 -436 l184 -31 l100 234 l148 -28 q13 -35 21.5 -90 q8.5 -55 8.5 -115 q0 -74 -15 -139 q-15 -65 -47 -109 q-75 -100 -185 -100 q-58 0 -128.5 27 q-70.5 27 -133 66.5 q-62.5 39.5 -98.5 76.5 q-37 -64 -61 -96.5 q-24 -32.5 -56 -51 q-32 -18.5 -79 -19.5 q-41 25 -76 98.5 q-35 73.5 -56 164 q-21 90.5 -21 160.5 q23 30 68 56.5 q45 26.5 83 39.5 q29 -8 60.5 -30 q31.5 -22 84.5 -68 l185 406 l-187 23 l0 -216 l-166 -36 q-31 32 -63.5 92.5 q-32.5 60.5 -54 132 q-21.5 71.5 -21.5 135.5 q0 77 29.5 131 q29.5 54 79 81 q49.5 27 110.5 27 q56 0 136.5 -19.5 q80.5 -19.5 157.5 -49.5 q77 -30 123 -60 Z" /><glyph glyph-name="fi" unicode="&#xfb01;" d="M201 -143 q-14 144 -38 321 q-24 177 -65 454 q-41 284 -59.5 425.5 q-18.5 141.5 -19.5 204.5 q38 86 121.5 191.5 q83.5 105.5 244.5 170.5 q191 -36 446 -36 q218 0 418 25 q13 -26 13 -80 q0 -81 -27 -175 q-27 -94 -65 -129 q-48 -5 -130 -5 q-175 0 -357 28 q-182 28 -277 79 l19 -310 l260 77 q29 -44 29 -126 q0 -69 -18 -141.5 q-18 -72.5 -37 -99.5 q-55 -2 -112 17 q-57 19 -104 44 q29 -555 29 -839 q0 -92 -3 -167 q-9 -55 -55.5 -105.5 q-46.5 -50.5 -110.5 -82.5 q-64 -32 -122 -36 q-78 14 -129 56 q-51 42 -88 94 q-1 51 6.5 85 q7.5 34 27.5 91 l203 -31 ZM807 212 q0 19 4 34 q4 15 27 77 q37 99 63 174 l-131 521 q31 37 83 70.5 q52 33.5 114.5 54 q62.5 20.5 122.5 20.5 q99 0 165 -58 q-5 -30 -13 -107 q-20 -188 -41 -343.5 q-21 -155.5 -47 -262.5 l-19 -78 l150 67 l79 -125 q-44 -102 -116 -189 q-72 -87 -159 -87 q-47 0 -115 36.5 q-68 36.5 -117.5 90.5 q-49.5 54 -49.5 105 Z" /><glyph glyph-name="fl" unicode="&#xfb02;" d="M1376 254 q-20 -62 -63 -125.5 q-43 -63.5 -100 -106 q-57 -42.5 -116 -42.5 q-62 0 -128 47 q-66 47 -120 111 q-14 16 -21.5 33.5 q-7.5 17.5 -7.5 42.5 q0 9 4 35 l69 357 q-44 229 -84 571 q-86 0 -171 24.5 q-85 24.5 -147.5 59.5 q-62.5 35 -84.5 65 l19 -305 l260 77 q29 -44 29 -126 q0 -69 -18 -141.5 q-18 -72.5 -37 -99.5 q-55 -2 -112 17 q-57 19 -104 44 q29 -555 29 -839 q0 -92 -3 -167 q-9 -55 -55.5 -105.5 q-46.5 -50.5 -110.5 -82.5 q-64 -32 -122 -36 q-78 14 -129 56 q-51 42 -88 94 q-1 51 6.5 85 q7.5 34 27.5 91 l203 -31 q-14 144 -38 321 q-24 177 -65 454 q-41 284 -59.5 425.5 q-18.5 141.5 -19.5 204.5 q38 85 117.5 185.5 q79.5 100.5 240.5 165.5 q25 -5 152 -35 q116 -28 181.5 -42 q65.5 -14 121.5 -21 q56 43 132.5 70.5 q76.5 27.5 135.5 27.5 q92 0 149 -47 q-8 -234 -29.5 -513 q-21.5 -279 -66.5 -739 l143 67 l80 -127 Z" /><glyph glyph-name="ordfeminine" unicode="ª" d="M1033 239 q-49 -114 -113 -185.5 q-64 -71.5 -134 -71.5 q-40 0 -85.5 24 q-45.5 24 -80.5 62 q-3 3 -16 16.5 q-13 13.5 -20.5 34 q-7.5 20.5 -7.5 46.5 q0 15 1 24 q14 134 29 231 l-13 6 q-134 -345 -223 -423 q-27 -20 -52 -20 q-20 0 -40 10.5 q-20 10.5 -52 32.5 q-18 13 -38 23 q-37 21 -56 37.5 q-19 16.5 -20 39.5 q0 23 1 41 l1 86 q0 114 -17.5 265.5 q-17.5 151.5 -47.5 249.5 q-10 34 -10 48 q0 10 4.5 20.5 q4.5 10.5 16.5 26.5 q47 61 111 98.5 q64 37.5 116.5 53 q52.5 15.5 83.5 19.5 q62 -43 113 -107.5 q51 -64.5 99 -146.5 q-1 80 -5 151 l-2 60 q14 9 55.5 16.5 q41.5 7.5 89.5 7.5 q78 0 135 -25 q57 -25 103 -79 q4 -29 -17 -151.5 q-21 -122.5 -56.5 -262.5 q-35.5 -140 -74.5 -233 l149 79 l73 -104 ZM396 291 q42 41 97.5 137.5 q55.5 96.5 88.5 167.5 q2 20 2 23 l0 45 q-38 10 -114 25 l-70 15 l1 -92 q3 -139 -30 -309 l25 -12 Z" /><glyph glyph-name="ordmasculine" unicode="º" d="M864 847 q8 -38 11 -80 q3 -42 3 -115 q0 -120 -21 -273 q-21 -153 -45 -242 q-15 -17 -57 -44 q-42 -27 -84 -48 q-56 -28 -98 -43 q-42 -15 -82 -19 q-58 5 -137 25.5 q-79 20.5 -147.5 49.5 q-68.5 29 -98.5 59 q-26 166 -40 291.5 q-14 125.5 -14 241.5 q0 119 15 214 q23 30 97 67.5 q74 37.5 157.5 67 q83.5 29.5 127.5 35.5 q72 -7 154 -34.5 q82 -27.5 152 -68 q70 -40.5 107 -84.5 ZM365 716 q-10 -115 -10 -207 q0 -129 12 -258 q70 -46 143 -62 l47 33 q7 72 7 190 q0 127 -15 275 l-132 54 l-52 -25 Z" /><glyph glyph-name="pi" unicode="&#x3c0;" d="M1479 1204 q46 -24 70.5 -81.5 q24.5 -57.5 24.5 -128.5 q0 -76 -27.5 -143.5 q-27.5 -67.5 -76.5 -101.5 q-33 0 -77.5 7 q-44.5 7 -123.5 24 q-23 -228 -65 -471 l178 72 l86 -125 q-38 -102 -106 -189 q-68 -87 -155 -87 q-47 0 -117 36.5 q-70 36.5 -122 90.5 q-52 54 -55 105 q-2 26 -2 143 q0 276 15 486 l-156 16 l-29 -362 q49 -240 63 -479 q-28 -18 -73.5 -27 q-45.5 -9 -97.5 -9 q-79 0 -142 20 q-63 20 -100 54 q5 77 26 154.5 q21 77.5 61 195.5 l-55 489 l-81 8 l-5 -319 q-56 -13 -113 -13 q-57 0 -110 14 l-15 43 q-39 114 -62 197.5 q-23 83.5 -23 151.5 q0 44 13 73 q45 54 120.5 96 q75.5 42 163.5 60 l890 -111 l278 111 Z" /><glyph glyph-name="zero" unicode="0" d="M588 1185 q281 0 392.5 -162 q111.5 -162 106.5 -442 q-3 -172 -57.5 -307 q-54.5 -135 -170 -214.5 q-115.5 -79.5 -292.5 -79.5 q-262 0 -379 158.5 q-117 158.5 -117 423.5 q0 281 123 452 q123 171 394 171 ZM453 850 q-28 -130 -28 -262 q0 -146 30 -298 q65 -44 177 -68 l62 43 q24 134 24 248 q0 78 -8.5 161.5 q-8.5 83.5 -24.5 151.5 l-163 57 l-69 -33 Z" /><glyph glyph-name="one" unicode="1" d="M630 1058 q-6 -139 -30 -337.5 q-24 -198.5 -58 -349.5 q31 -99 51 -173 q20 -74 33 -176 q-29 -22 -74.5 -32 q-45.5 -10 -98.5 -10 q-63 0 -136 11.5 q-73 11.5 -101 30.5 l77 543 l-30 203 l-191 -33 l-69 149 q77 98 203.5 182.5 q126.5 84.5 257.5 113.5 q90 -53 166 -122 Z" /><glyph glyph-name="two" unicode="2" d="M1036 441 q35 -95 35 -178 q0 -104 -57 -183 q-75 -100 -185 -100 q-79 0 -177.5 47 q-98.5 47 -163.5 105 l-1 -2 l-3 6 l-15 14 q-22 -37 -27 -45 q-78 -117 -209 -122 q-42 26 -78.5 99.5 q-36.5 73.5 -56.5 163 q-20 89.5 -17 157.5 q69 61 151 88 q31 -9 61.5 -26.5 q30.5 -17.5 71.5 -51.5 q73 72 169 183 q96 111 133 166 l-3 53 l-209 75 l-31 -12 l-37 -277 q-59 -21 -112 -21 q-37 0 -90 15 q-29 58 -55.5 151.5 q-26.5 93.5 -26.5 171.5 q0 69 24 110 q37 37 115.5 79.5 q78.5 42.5 163.5 71.5 q85 29 142 29 q64 -4 154.5 -28.5 q90.5 -24.5 178 -67.5 q87.5 -43 141.5 -100 q22 -90 22 -165 q0 -48 -9 -104 q-44 -57 -133 -132 q-89 -75 -185.5 -142.5 q-96.5 -67.5 -157.5 -101.5 l1 -10 l238 -30 l90 142 l148 -28 Z" /><glyph glyph-name="three" unicode="3" d="M624 506 q100 -14 196.5 -54.5 q96.5 -40.5 157.5 -92.5 q61 -52 61 -100 q0 -173 -60 -293 q-60 -120 -169 -183 q-59 -34 -149 -54 q-90 -20 -167 -20 q-146 0 -257 58 q-111 58 -177 154 q-6 30 -6 55 q0 42 16.5 72 q16.5 30 50.5 59 q114 -57 209 -89 q95 -32 193 -33 q47 0 110 12 q16 32 29 87 q13 55 21 107 q-29 47 -78 81.5 q-49 34.5 -115 65.5 q-31 -52 -91.5 -95.5 q-60.5 -43.5 -112.5 -53.5 q-34 7 -65.5 40.5 q-31.5 33.5 -51 82 q-19.5 48.5 -19.5 99.5 q0 66 33 119 l92 36 l125 -38 q58 70 115 144.5 q57 74.5 83 114.5 l-3 23 l-216 80 l-31 -16 l-28 -183 q-64 -22 -121 -22 q-57 0 -112 23 l-12 36 q-21 59 -32.5 102.5 q-11.5 43.5 -11.5 86.5 q0 61 29 111 q37 44 112.5 80.5 q75.5 36.5 163.5 63.5 q48 16 87.5 26 q39.5 10 57.5 10 q45 0 137 -30.5 q92 -30.5 181 -76.5 q89 -46 131 -89 q23 -74 23 -150 q0 -57 -13 -122 q-122 -142 -316 -234 Z" /><glyph glyph-name="four" unicode="4" d="M1078 940 q1 -8 1 -35 q0 -107 -24.5 -323.5 q-24.5 -216.5 -63.5 -387.5 q15 -47 42.5 -189.5 q27.5 -142.5 41.5 -255.5 q-29 -22 -74.5 -32 q-45.5 -10 -98.5 -10 q-61 0 -130 11.5 q-69 11.5 -97 30.5 l47 329 l-381 66 q-36 -39 -83 -68 q-47 -29 -87 -37 q-34 7 -65.5 43 q-31.5 36 -51 89 q-19.5 53 -19.5 107 q0 69 33 122 l111 -14 l66 680 q44 58 118.5 86.5 q74.5 28.5 157.5 28.5 q49 0 103 -12 q54 -12 78 -43 l-267 -760 l306 -22 l-89 433 q-16 -1 34.5 48 q50.5 49 133.5 89.5 q83 40.5 183 40.5 q41 0 75 -15 Z" /><glyph glyph-name="five" unicode="5" d="M638 654 q112 2 193 -54 q81 -56 122.5 -152 q41.5 -96 41.5 -211 q0 -154 -55 -273 q-55 -119 -167 -187 q-112 -68 -276 -68 q-146 0 -258 58 q-112 58 -182 154 q-8 26 -8 62 q0 39 15 67.5 q15 28.5 46 56.5 q94 -46 148.5 -70 q54.5 -24 121 -42 q66.5 -18 132.5 -18 q44 0 83 6 q16 9 29 62 q13 53 13 115 q0 62 -11 116.5 q-11 54.5 -27 69.5 l-169 -5 q-20 -39 -56.5 -82.5 q-36.5 -43.5 -77.5 -76 q-41 -32.5 -76 -39.5 q-35 10 -71.5 50 q-36.5 40 -61.5 94 q-25 54 -26 103 q-3 64 31 111 l140 -8 l-149 469 q2 43 21.5 92.5 q19.5 49.5 52 90.5 q32.5 41 71.5 60 q24 -5 54.5 -12 q30.5 -7 61.5 -14 q153 -37 198 -44 l375 70 q47 -82 47 -179 q0 -63 -19.5 -123 q-19.5 -60 -46 -101 q-26.5 -41 -45.5 -51 q-39 2 -120.5 18.5 q-81.5 16.5 -166 42 q-84.5 25.5 -137.5 53.5 l-29 -365 l6 -5 q135 133 232 159 Z" /><glyph glyph-name="six" unicode="6" d="M392 662 q97 107 198.5 185 q101.5 78 200.5 79 q114 2 179 -38 q65 -40 91.5 -115 q26.5 -75 26.5 -190 l-1 -42 q-9 -261 -137.5 -411 q-128.5 -150 -392.5 -150 q-249 0 -368 165 q-119 165 -119 449 q0 43 3 88 q103 437 696 867 q58 -29 91.5 -68.5 q33.5 -39.5 69.5 -115.5 q-180 -196 -323 -367 q-143 -171 -237 -324 l22 -12 ZM420 501 q1 -65 5.5 -93 q4.5 -28 19.5 -80 l6 -21 q29 -26 83 -49.5 q54 -23.5 93 -28.5 l63 43 q17 82 17 165 q0 99 -27 217 q-68 -17 -130 -55.5 q-62 -38.5 -130 -97.5 Z" /><glyph glyph-name="seven" unicode="7" d="M715 284 l-163 -559 q-25 -8 -45 -11.5 q-20 -3.5 -46 -3.5 q-96 0 -181 34 q-85 34 -109 94 l287 527 l153 458 l-239 35 l-27 -327 l-175 -20 q-32 34 -61.5 100.5 q-29.5 66.5 -48 147.5 q-18.5 81 -18.5 155 q0 45 7 81 q10 52 69.5 100 q59.5 48 128.5 78.5 q69 30.5 93 29.5 q86 -17 150.5 -41 q64.5 -24 158.5 -67 l40 -18 q58 46 111 76.5 q53 30.5 113 49.5 q63 -35 97.5 -105.5 q34.5 -70.5 34.5 -154.5 q0 -93 -38 -173 l-122 20 l-170 -506 Z" /><glyph glyph-name="eight" unicode="8" d="M1015 538 q18 -85 18 -157 q0 -105 -38 -196 q-112 -127 -425 -219 q-64 1 -155.5 20.5 q-91.5 19.5 -181 58.5 q-89.5 39 -146.5 93 q-31 99 -31 195 q0 38 4 73 q16 94 87.5 179 q71.5 85 175.5 166 l-199 169 l0 1 q-24 44 -42 124 q-18 80 -18 157 q0 93 27 144 q35 39 111 85.5 q76 46.5 159.5 79.5 q83.5 33 140.5 36 q64 -1 155.5 -20.5 q91.5 -19.5 181 -58.5 q89.5 -39 146.5 -93 q31 -99 31 -195 q0 -38 -4 -73 q-33 -70 -114.5 -167.5 q-81.5 -97.5 -166.5 -163.5 l284 -238 ZM376 1115 q58 -56 131 -135 q27 -29 82 -84 q26 65 38 121.5 q12 56.5 22 151.5 q-106 66 -224 67 l-39 -18 l-10 -103 ZM696 418 l-215 213 q-36 -42 -119 -174 q-13 -21 -15 -24 l8 -92 q127 -65 251 -65 q13 0 41 2 l40 18 l9 122 Z" /><glyph glyph-name="nine" unicode="9" d="M761 548 q-98 -109 -200 -186.5 q-102 -77.5 -202 -77.5 q-71 0 -135 47 q-64 47 -106 134.5 q-42 87.5 -52 203.5 q-3 32 -3 62 q0 148 62 261 q62 113 182 175.5 q120 62.5 289 62.5 q249 0 368 -165 q119 -165 119 -449 q0 -43 -3 -88 q-42 -178 -152 -329 q-110 -151 -235 -258.5 q-125 -107.5 -296 -231.5 q-58 29 -91.5 68.5 q-33.5 39.5 -69.5 115.5 q69 75 114 121 q158 168 258.5 284.5 q100.5 116.5 174.5 237.5 l-22 12 ZM733 680 q-1 76 -7 118.5 q-6 42.5 -24 104.5 q-29 26 -83 49.5 q-54 23.5 -93 28.5 l-63 -43 q-17 -82 -17 -177 q0 -115 27 -234 l260 153 Z" /><glyph glyph-name="fraction" unicode="&#x2044;" d="M211 -112 q-60 17 -106.5 57.5 q-46.5 40.5 -56.5 89.5 l1066 1541 q56 -3 129.5 -54 q73.5 -51 116.5 -110 l-1149 -1524 Z" /><glyph glyph-name="onehalf" unicode="½" d="M375 1453 l-167 -29 l-60 131 q68 85 178.5 159 q110.5 74 224.5 100 q78 -46 146 -107 q-6 -123 -27 -296 q-21 -173 -50 -305 l8 -25 q22 -69 38.5 -136 q16.5 -67 26.5 -145 q-47 -35 -145 -37 q-55 0 -122 10 q-67 10 -92 27 l68 475 l-27 178 ZM1378 1669 q56 -3 129.5 -54 q73.5 -51 116.5 -110 l-1149 -1524 q-60 17 -106.5 57.5 q-46.5 40.5 -56.5 89.5 l1066 1541 ZM2014 374 q30 -79 30 -153 q0 -91 -48 -156 q-64 -85 -158 -85 q-68 0 -152 40 q-84 40 -139 89 l-1 -1 l-2 3 l-14 14 q-16 -29 -23 -38 q-32 -50 -77.5 -76.5 q-45.5 -26.5 -100.5 -28.5 q-36 22 -67 85.5 q-31 63.5 -48.5 139.5 q-17.5 76 -14.5 134 q61 53 129 75 q26 -7 52 -22 q26 -15 62 -44 q60 60 142.5 155 q82.5 95 114.5 143 l-2 45 l-179 64 l-26 -10 l-32 -237 q-54 -18 -95 -18 q-27 0 -77 13 q-25 52 -47.5 131 q-22.5 79 -22.5 146 q0 57 20 93 q32 31 99 67.5 q67 36.5 139.5 61.5 q72.5 25 121.5 25 q55 -3 132 -24 q77 -21 151.5 -58 q74.5 -37 120.5 -86 q19 -72 19 -139 q0 -47 -8 -90 q-37 -49 -113.5 -113.5 q-76.5 -64.5 -159 -122 q-82.5 -57.5 -133.5 -85.5 l1 -9 l203 -26 l77 122 l126 -24 Z" /><glyph glyph-name="onequarter" unicode="¼" d="M375 1453 l-167 -29 l-60 131 q68 85 178.5 159 q110.5 74 224.5 100 q78 -46 146 -107 q-6 -123 -27 -296 q-21 -173 -50 -305 l8 -25 q22 -69 38.5 -136 q16.5 -67 26.5 -145 q-47 -35 -145 -37 q-55 0 -122 10 q-67 10 -92 27 l68 475 l-27 178 ZM1378 1669 q56 -3 129.5 -54 q73.5 -51 116.5 -110 l-1149 -1524 q-60 17 -106.5 57.5 q-46.5 40.5 -56.5 89.5 l1066 1541 ZM2058 901 q1 -7 1 -29 q0 -71 -19 -210 q-19 -139 -52 -281 q12 -37 34.5 -154.5 q22.5 -117.5 34.5 -212.5 q-24 -17 -66 -25.5 q-42 -8.5 -87 -8.5 q-50 0 -106.5 9.5 q-56.5 9.5 -78.5 24.5 l36 253 l-311 54 q-30 -31 -69 -55 q-39 -24 -71 -31 q-28 6 -54 35.5 q-26 29.5 -42 72.5 q-16 43 -16 88 q0 57 27 101 l92 -11 l42 446 q36 48 97 71.5 q61 23.5 130 23.5 q40 0 84.5 -9.5 q44.5 -9.5 64.5 -35.5 l-208 -513 l255 -18 l-71 287 q12 25 47.5 57.5 q35.5 32.5 98 57.5 q62.5 25 146.5 25 q33 0 61 -12 Z" /><glyph glyph-name="threequarters" unicode="¾" d="M695 774 q-42 -24 -105.5 -38.5 q-63.5 -14.5 -119.5 -14.5 q-120 0 -226 32.5 q-106 32.5 -150 96.5 q-4 17 -4 73 q0 27 10.5 42 q10.5 15 38.5 38 q3 3 7 6 q4 3 8 7 q61 -30 168.5 -49.5 q107.5 -19.5 188.5 -21.5 q23 0 61 7 q19 45 27 99 q-16 25 -64.5 50 q-48.5 25 -118.5 53 q-27 -35 -69 -63 q-42 -28 -78 -36 q-28 6 -54 32 q-26 26 -42.5 63.5 q-16.5 37.5 -16.5 77.5 q0 49 29 97 l74 28 l99 -30 q114 119 155 176 l-180 56 l-4 -1 l-10 -62 q-5 -22 -10 -56 q-55 -20 -100 -20 q-43 0 -93 22 l-10 32 l0 -2 q-2 7 -11.5 33 q-9.5 26 -14.5 49.5 q-5 23.5 -5 45.5 q0 44 23 86 q50 59 198 106 q33 11 62.5 18 q29.5 7 42.5 7 q36 0 118.5 -18 q82.5 -18 159.5 -46 q77 -28 106 -59 q8 -25 12.5 -62.5 q4.5 -37.5 4.5 -70.5 q0 -40 -9 -91 q-112 -97 -255 -181 l33 -2 q74 -9 141 -34.5 q67 -25.5 108 -61.5 q41 -36 41 -73 q0 -125 -43.5 -210 q-43.5 -85 -122.5 -130 ZM1468 1669 q56 -3 129.5 -54 q73.5 -51 116.5 -110 l-1149 -1524 q-60 17 -106.5 57.5 q-46.5 40.5 -56.5 89.5 l1066 1541 ZM2143 901 q1 -7 1 -29 q0 -71 -19 -210 q-19 -139 -52 -281 q12 -37 34.5 -154.5 q22.5 -117.5 34.5 -212.5 q-24 -17 -66 -25.5 q-42 -8.5 -87 -8.5 q-50 0 -106.5 9.5 q-56.5 9.5 -78.5 24.5 l36 253 l-311 54 q-30 -31 -69 -55 q-39 -24 -71 -31 q-28 6 -54 35.5 q-26 29.5 -42 72.5 q-16 43 -16 88 q0 57 27 101 l92 -11 l42 446 q36 48 97 71.5 q61 23.5 130 23.5 q40 0 84.5 -9.5 q44.5 -9.5 64.5 -35.5 l-208 -513 l255 -18 l-71 287 q12 25 47.5 57.5 q35.5 32.5 98 57.5 q62.5 25 146.5 25 q33 0 61 -12 Z" /><glyph glyph-name="uni00B9" unicode="¹" d="M572 1506 q-6 -123 -27 -296 q-21 -173 -50 -305 l8 -25 q22 -69 38.5 -136 q16.5 -67 26.5 -145 q-47 -35 -145 -37 q-55 0 -122 10 q-67 10 -92 27 l68 475 l-27 178 l-167 -29 l-60 131 q68 85 178.5 159 q110.5 74 224.5 100 q78 -46 146 -107 Z" /><glyph glyph-name="uni00B2" unicode="²" d="M893 960 q30 -79 30 -153 q0 -91 -48 -156 q-64 -85 -158 -85 q-68 0 -152 40 q-84 40 -139 89 l-1 -1 l-2 3 l-14 14 q-16 -29 -23 -38 q-32 -50 -77.5 -76.5 q-45.5 -26.5 -100.5 -28.5 q-36 22 -67 85.5 q-31 63.5 -48.5 139.5 q-17.5 76 -14.5 134 q61 53 129 75 q26 -7 52 -22 q26 -15 62 -44 q60 60 142.5 155 q82.5 95 114.5 143 l-2 45 l-179 64 l-26 -10 l-32 -237 q-54 -18 -95 -18 q-27 0 -77 13 q-25 52 -47.5 131 q-22.5 79 -22.5 146 q0 57 20 93 q32 31 99 67.5 q67 36.5 139.5 61.5 q72.5 25 121.5 25 q55 -3 132 -24 q77 -21 151.5 -58 q74.5 -37 120.5 -86 q19 -72 19 -139 q0 -47 -8 -90 q-37 -49 -113.5 -113.5 q-76.5 -64.5 -159 -122 q-82.5 -57.5 -133.5 -85.5 l1 -9 l203 -26 l77 122 l126 -24 Z" /><glyph glyph-name="uni00B3" unicode="³" d="M571 1084 q74 -9 141 -34.5 q67 -25.5 108 -61.5 q41 -36 41 -73 q0 -125 -43.5 -210 q-43.5 -85 -122.5 -130 q-42 -24 -105.5 -38.5 q-63.5 -14.5 -119.5 -14.5 q-120 0 -226 32.5 q-106 32.5 -150 96.5 q-4 17 -4 73 q0 27 10.5 42 q10.5 15 38.5 38 q3 3 7 6 q4 3 8 7 q61 -30 168.5 -49.5 q107.5 -19.5 188.5 -21.5 q23 0 61 7 q19 45 27 99 q-16 25 -64.5 50 q-48.5 25 -118.5 53 q-27 -35 -69 -63 q-42 -28 -78 -36 q-28 6 -54 32 q-26 26 -42.5 63.5 q-16.5 37.5 -16.5 77.5 q0 49 29 97 l74 28 l99 -30 q114 119 155 176 l-180 56 l-4 -1 l-10 -62 q-5 -22 -10 -56 q-55 -20 -100 -20 q-43 0 -93 22 l-10 32 l0 -2 q-2 7 -11.5 33 q-9.5 26 -14.5 49.5 q-5 23.5 -5 45.5 q0 44 23 86 q50 59 198 106 q33 11 62.5 18 q29.5 7 42.5 7 q36 0 118.5 -18 q82.5 -18 159.5 -46 q77 -28 106 -59 q8 -25 12.5 -62.5 q4.5 -37.5 4.5 -70.5 q0 -40 -9 -91 q-112 -97 -255 -181 l33 -2 Z" /><glyph glyph-name="asterisk" unicode="*" d="M385 596 q-81 0 -153.5 52.5 q-72.5 52.5 -112.5 121.5 q127 154 308 257 l-2 11 l-49 -1 q-90 0 -180 10.5 q-90 10.5 -159 32.5 q7 95 50 185.5 q43 90.5 112 137.5 l275 -241 l13 8 q-26 63 -46.5 188.5 q-20.5 125.5 -26.5 211.5 q40 37 93.5 58 q53.5 21 111.5 21 q38 0 82 -8 q44 -8 75 -23 l-138 -456 q4 -3 6.5 -6 q2.5 -3 5.5 -5 l317 225 q37 -35 57 -93 q20 -58 20 -124 q0 -66 -19 -122 q-67 -15 -151 -15 q-78 0 -213 19 l-5 -10 l308 -244 q-45 -74 -119 -119 q-74 -45 -167 -56 q-39 65 -78.5 159 q-39.5 94 -71.5 192 l-8 2 l-135 -369 Z" /><glyph glyph-name="backslash" unicode="\" d="M47 1605 q43 27 124 45.5 q81 18.5 149 18.5 q46 0 73 -9 l272 -1826 q-57 -40 -118.5 -57.5 q-61.5 -17.5 -138.5 -15.5 l-361 1844 Z" /><glyph glyph-name="bullet" unicode="&#x2022;" d="M327 925 q-28 -19 -89.5 -87.5 q-61.5 -68.5 -115 -140 q-53.5 -71.5 -62.5 -98.5 q61 -173 276 -267 q57 19 131 70 q74 51 134 121 q60 70 77 141 q-64 90 -154.5 160.5 q-90.5 70.5 -196.5 100.5 Z" /><glyph glyph-name="comma" unicode="," d="M110 -244 q43 24 137.5 103 q94.5 79 182 174 q87.5 95 119.5 171 q-11 44 -45 98.5 q-34 54.5 -112.5 101 q-78.5 46.5 -203.5 47.5 l-199 -627 l121 -68 Z" /><glyph glyph-name="ellipsis" unicode="&#x2026;" d="M244 475 q-25 -16 -77 -75 q-52 -59 -98 -120.5 q-46 -61.5 -54 -84.5 q52 -149 237 -229 q49 16 112.5 60 q63.5 44 115.5 103.5 q52 59.5 66 121.5 q-55 77 -133 138 q-78 61 -169 86 ZM834 475 q-25 -16 -77 -75 q-52 -59 -98 -120.5 q-46 -61.5 -54 -84.5 q52 -149 237 -229 q49 16 112.5 60 q63.5 44 115.5 103.5 q52 59.5 66 121.5 q-55 77 -133 138 q-78 61 -169 86 ZM1424 475 q-25 -16 -77 -75 q-52 -59 -98 -120.5 q-46 -61.5 -54 -84.5 q52 -149 237 -229 q49 16 112.5 60 q63.5 44 115.5 103.5 q52 59.5 66 121.5 q-55 77 -133 138 q-78 61 -169 86 Z" /><glyph glyph-name="exclam" unicode="!" d="M521 687 q-18 -39 -78 -65 q-60 -26 -128 -26 q-47 0 -86.5 14.5 q-39.5 14.5 -63.5 44.5 q17 138 52 258 q-20 78 -48 171 q-34 116 -51.5 192.5 q-17.5 76.5 -32.5 190.5 q49 65 145.5 105.5 q96.5 40.5 200.5 40.5 q40 0 78 -12.5 q38 -12.5 64 -34.5 l-116 -602 l64 -277 ZM310 475 q-25 -16 -77 -75 q-52 -59 -98 -120.5 q-46 -61.5 -54 -84.5 q52 -149 237 -229 q49 16 112.5 60 q63.5 44 115.5 103.5 q52 59.5 66 121.5 q-55 77 -133 138 q-78 61 -169 86 Z" /><glyph glyph-name="exclamdown" unicode="¡" d="M383 702 q25 16 77 75 q52 59 98 120.5 q46 61.5 54 84.5 q-52 149 -237 229 q-49 -16 -112.5 -60 q-63.5 -44 -115.5 -103.5 q-52 -59.5 -66 -121.5 q55 -77 133 -138 q78 -61 169 -86 ZM172 490 q18 39 78 65 q60 26 128 26 q47 0 86.5 -14.5 q39.5 -14.5 63.5 -44.5 q-17 -138 -52 -258 q20 -78 48 -171 q34 -116 51.5 -192.5 q17.5 -76.5 32.5 -190.5 q-49 -65 -145.5 -105.5 q-96.5 -40.5 -200.5 -40.5 q-40 0 -78 12.5 q-38 12.5 -64 34.5 l116 602 l-64 277 Z" /><glyph glyph-name="numbersign" unicode="#" d="M932 1161 q50 8 88 8 q64 0 120.5 -19.5 q56.5 -19.5 111.5 -60.5 l-49 -230 l199 0 q11 -49 11 -92 q0 -73 -33 -146 l-224 0 l-56 -312 l230 0 q14 -39 14 -90 q0 -87 -40 -174 l-266 13 l-65 -313 q-74 -1 -139.5 17 q-65.5 18 -137.5 56 l50 246 l-215 8 l-57 -328 q-156 7 -286 74 l43 264 l-208 19 q-4 33 -4 69 q0 40 8 72.5 q8 32.5 26 66.5 l211 0 l41 305 l-229 12 q-16 60 -16 101 q0 28 7.5 58 q7.5 30 23.5 74 l246 0 l46 303 q31 5 71 5 q70 0 132.5 -20.5 q62.5 -20.5 124.5 -57.5 l-48 -230 l222 0 l47 302 ZM794 309 l50 302 l-208 0 l-56 -302 l214 0 Z" /><glyph glyph-name="period" unicode="." d="M244 475 q-25 -16 -77 -75 q-52 -59 -98 -120.5 q-46 -61.5 -54 -84.5 q52 -149 237 -229 q49 16 112.5 60 q63.5 44 115.5 103.5 q52 59.5 66 121.5 q-55 77 -133 138 q-78 61 -169 86 Z" /><glyph glyph-name="question" unicode="?" d="M525 813 q10 -1 29 -1 q65 0 126.5 14 q61.5 14 106.5 30.5 q45 16.5 45 17.5 q33 115 33 266 q0 69 -7.5 131 q-7.5 62 -20.5 106 q-61 87 -164.5 139.5 q-103.5 52.5 -205.5 73.5 q-102 21 -168 21 q-39 -17 -79.5 -66.5 q-40.5 -49.5 -70.5 -114 q-30 -64.5 -39 -124.5 l116 -24 q149 -29 239 -52.5 q90 -23.5 155 -59.5 l-303 -182 q-54 -33 -76.5 -64.5 q-22.5 -31.5 -22.5 -67.5 q0 -23 7.5 -48.5 q7.5 -25.5 23.5 -71.5 q27 -71 41 -131 l187 -10 l48 218 ZM389 475 q-25 -16 -77 -75 q-52 -59 -98 -120.5 q-46 -61.5 -54 -84.5 q52 -149 237 -229 q49 16 112.5 60 q63.5 44 115.5 103.5 q52 59.5 66 121.5 q-55 77 -133 138 q-78 61 -169 86 Z" /><glyph glyph-name="questiondown" unicode="¿" d="M566 696 q25 16 77 75 q52 59 98 120.5 q46 61.5 54 84.5 q-52 149 -237 229 q-49 -16 -112.5 -60 q-63.5 -44 -115.5 -103.5 q-52 -59.5 -66 -121.5 q55 -77 133 -138 q78 -61 169 -86 ZM430 358 q-10 1 -29 1 q-65 0 -126.5 -14 q-61.5 -14 -106.5 -30.5 q-45 -16.5 -45 -17.5 q-33 -115 -33 -266 q0 -69 7.5 -131 q7.5 -62 20.5 -106 q61 -87 164.5 -139.5 q103.5 -52.5 205.5 -73.5 q102 -21 168 -21 q39 17 79.5 66.5 q40.5 49.5 70.5 114 q30 64.5 39 124.5 l-116 24 q-149 29 -239 52.5 q-90 23.5 -155 59.5 l303 182 q54 33 76.5 64.5 q22.5 31.5 22.5 67.5 q0 23 -7.5 48.5 q-7.5 25.5 -23.5 71.5 q-27 71 -41 131 l-187 10 l-48 -218 Z" /><glyph glyph-name="quotesingle" unicode="&#39;" d="M210 1595 q-48 0 -100 -9 q-52 -9 -88 -25 l86 -621 l172 0 q48 123 79.5 286.5 q31.5 163.5 38.5 304.5 q-29 32 -80 48 q-51 16 -108 16 Z" /><glyph glyph-name="slash" unicode="/" d="M360 -239 q-77 -2 -138.5 15.5 q-61.5 17.5 -118.5 57.5 l272 1826 q27 9 73 9 q68 0 149 -18.5 q81 -18.5 124 -45.5 l-361 -1844 Z" /><glyph glyph-name="underscore" unicode="_" d="M-41 -373 q-6 25 -6 54 q0 51 17 105 q17 54 45 103 l1700 -1 q7 -22 7 -52 q0 -52 -21.5 -107.5 q-21.5 -55.5 -53.5 -99.5 l-1688 -2 Z" /><glyph glyph-name="braceleft" unicode="{" d="M640 959 q-40 -56 -77.5 -94.5 q-37.5 -38.5 -91.5 -84.5 l0 -15 q74 -57 120 -104 q46 -47 61 -88 l-55 -602 l179 -67 l-38 -186 q-69 -9 -127 -9 q-75 0 -143.5 14.5 q-68.5 14.5 -150.5 44.5 l55 779 l-46 45 q-52 -26 -107 -26 q-40 0 -79 13 q-22 33 -34 74.5 q-12 41.5 -12 86.5 q0 77 33 139 q33 62 97 86 q37 -27 109 -84 l48 58 l-83 758 q17 34 51.5 67 q34.5 33 73.5 56.5 q39 23.5 65 28.5 q99 -24 183 -35 q84 -11 181 -11 q1 -17 1 -49 q0 -113 -26 -210 q-27 -6 -55 -6 q-70 0 -131 40 l0 -618 l-1 0 l0 -1 Z" /><glyph glyph-name="braceright" unicode="}" d="M219 598 q29 46 71 88.5 q42 42.5 98 90.5 l0 15 q-134 103 -169 180 l10 614 l-202 67 l38 186 q69 9 141 9 q95 0 188 -15.5 q93 -15.5 170 -43.5 l-77 -779 l46 -45 q52 26 107 26 q39 0 79 -13 q22 -33 34 -74.5 q12 -41.5 12 -86.5 q0 -77 -33 -139 q-33 -62 -97 -86 l-109 84 l-48 -59 l61 -757 q-17 -34 -51.5 -67 q-34.5 -33 -73.5 -56.5 q-39 -23.5 -65 -28.5 l-291 47 q-1 17 -1 48 q0 48 6 89.5 q6 41.5 20 94.5 q24 2 35 2 q75 0 145 -37 l-45 645 l1 0 l0 1 Z" /><glyph glyph-name="bracketleft" unicode="[" d="M639 -95 l-38 -196 l-394 46 l-58 1969 l151 125 l383 -46 q1 -17 1 -49 q0 -113 -26 -210 q-22 -2 -32 -2 q-35 0 -69 9 q-34 9 -73 27 l-22 -1606 l177 -67 Z" /><glyph glyph-name="bracketright" unicode="]" d="M179 1565 q-112 26 -168 68 l49 216 l447 -47 l-3 -1969 l-151 -125 l-322 46 q-1 17 -1 46 q0 47 6 88 q6 41 20 94 q22 2 33 2 q87 0 163 -36 l-73 1617 Z" /><glyph glyph-name="parenleft" unicode="(" d="M636 1802 q-65 -205 -111 -398.5 q-46 -193.5 -70 -337 q-24 -143.5 -26 -211.5 q13 -243 82 -490 q69 -247 182 -544 q-108 -83 -280 -112 q-143 302 -209.5 567.5 q-66.5 265.5 -85.5 523.5 q0 172 59.5 395 q59.5 223 145 408.5 q85.5 185.5 157.5 248.5 l156 -50 Z" /><glyph glyph-name="parenright" unicode=")" d="M58 -241 q65 205 111 398.5 q46 193.5 70 337 q24 143.5 26 211.5 q-13 243 -82 490 q-69 247 -182 544 q108 83 280 112 q143 -302 209.5 -567.5 q66.5 -265.5 85.5 -523.5 q0 -172 -59.5 -395 q-59.5 -223 -145 -408.5 q-85.5 -185.5 -157.5 -248.5 l-156 50 Z" /><glyph glyph-name="emdash" unicode="&#x2014;" d="M1907 754 q7 -28 7 -62 q0 -106 -75 -253 q-26 -2 -189.5 -4 q-163.5 -2 -378 -3.5 q-214.5 -1.5 -447.5 -1.5 q-510 0 -713 7 q-3 30 -3 57 q0 56 14 99.5 q14 43.5 45 95.5 l1740 65 Z" /><glyph glyph-name="endash" unicode="&#x2013;" d="M1226 754 q7 -28 7 -62 q0 -106 -75 -253 q-42 -3 -206.5 -6 q-164.5 -3 -352.5 -3 q-285 0 -488 7 q-3 30 -3 57 q0 56 14 99.5 q14 43.5 45 95.5 l1059 65 Z" /><glyph glyph-name="hyphen" unicode="-" d="M861 738 q7 -28 7 -62 q0 -106 -75 -253 q-34 -3 -97 -3 q-79 0 -236.5 5 q-157.5 5 -348.5 12 q-3 30 -3 57 q0 56 14 99.5 q14 43.5 45 95.5 l694 49 Z" /><glyph glyph-name="uni00AD" unicode="­" d="" /><glyph glyph-name="guillemotright" unicode="»" d="M0 941 q23 48 68.5 94 q45.5 46 89.5 72 q66 -65 209.5 -177 q143.5 -112 215.5 -156 q24 -28 42 -116.5 q18 -88.5 18 -166.5 q0 -36 -4 -56 l-436 -425 q-29 12 -65.5 40 q-36.5 28 -65.5 63 q-29 35 -37 66 q25 72 122 199 q97 127 182 213 q-92 84 -192.5 185.5 q-100.5 101.5 -146.5 164.5 ZM576 941 q23 48 68.5 94 q45.5 46 89.5 72 q66 -65 209.5 -177 q143.5 -112 215.5 -156 q24 -28 42 -116.5 q18 -88.5 18 -166.5 q0 -36 -4 -56 l-436 -425 q-29 12 -65.5 40 q-36.5 28 -65.5 63 q-29 35 -37 66 q25 72 122 199 q97 127 182 213 q-92 84 -192.5 185.5 q-100.5 101.5 -146.5 164.5 Z" /><glyph glyph-name="guilsinglleft" unicode="&#x2039;" d="M698 176 q-23 -48 -68.5 -94 q-45.5 -46 -89.5 -72 q-66 65 -209.5 177 q-143.5 112 -215.5 156 q-24 28 -42 116.5 q-18 88.5 -18 166.5 q0 36 4 56 l436 425 q29 -12 65.5 -40 q36.5 -28 65.5 -63 q29 -35 37 -66 q-25 -72 -122 -199 q-97 -127 -182 -213 q92 -84 192.5 -185.5 q100.5 -101.5 146.5 -164.5 Z" /><glyph glyph-name="guilsinglright" unicode="&#x203a;" d="M0 941 q23 48 68.5 94 q45.5 46 89.5 72 q66 -65 209.5 -177 q143.5 -112 215.5 -156 q24 -28 42 -116.5 q18 -88.5 18 -166.5 q0 -36 -4 -56 l-436 -425 q-29 12 -65.5 40 q-36.5 28 -65.5 63 q-29 35 -37 66 q25 72 122 199 q97 127 182 213 q-92 84 -192.5 185.5 q-100.5 101.5 -146.5 164.5 Z" /><glyph glyph-name="quotedblleft" unicode="&#x201c;" d="M246 920 q56 0 104 14 l55 621 l-158 52 q-86 -129 -152 -283 q-66 -154 -106 -303 q47 -50 115.5 -75.5 q68.5 -25.5 141.5 -25.5 ZM701 920 q56 0 104 14 l55 621 l-158 52 q-86 -129 -152 -283 q-66 -154 -106 -303 q47 -50 115.5 -75.5 q68.5 -25.5 141.5 -25.5 Z" /><glyph glyph-name="quoteleft" unicode="&#x2018;" d="M256 920 q56 0 104 14 l55 621 l-158 52 q-86 -129 -152 -283 q-66 -154 -106 -303 q47 -50 115.5 -75.5 q68.5 -25.5 141.5 -25.5 Z" /><glyph glyph-name="quotereversed" unicode="&#x201b;" d="M454 960 l-55 621 q-48 14 -104 14 q-73 0 -141.5 -25.5 q-68.5 -25.5 -115.5 -75.5 q40 -149 106 -303 q66 -154 152 -283 l158 52 Z" /><glyph glyph-name="quoteright" unicode="&#x2019;" d="M197 1595 q-56 0 -104 -14 l-55 -621 l158 -52 q86 129 152 283 q66 154 106 303 q-47 50 -115.5 75.5 q-68.5 25.5 -141.5 25.5 Z" /><glyph glyph-name="uni2002" unicode="&#x2002;" d="" /><glyph glyph-name="uni00A0" unicode=" " d="" /><glyph glyph-name="DEL" unicode="" d="" /><glyph glyph-name="cent" unicode="¢" d="M459 284 q230 96 348 159 l101 -153 q-19 -35 -79 -91 q-60 -56 -138.5 -110 q-78.5 -54 -149.5 -83 q14 -64 22.5 -137.5 q8.5 -73.5 17.5 -168.5 q-60 -41 -141 -41 q-57 0 -108.5 20.5 q-51.5 20.5 -82.5 56.5 l51 292 q-64 38 -139 99 q-32 28 -43.5 47 q-11.5 19 -11.5 41 q0 10 1 19 q1 9 2 16 q6 36 6 69 q0 150 -16 309.5 q-16 159.5 -44 240.5 q-1 5 -8.5 27 q-7.5 22 -7.5 34 q0 38 61.5 93.5 q61.5 55.5 117.5 88.5 q42 25 103 52.5 q61 27.5 106 36.5 l-26 246 q33 52 79 74.5 q46 22.5 118 22.5 q44 0 85.5 -9 q41.5 -9 59.5 -27 l-84 -362 q22 -8 46 -19 l206 -48 q5 -37 5 -64 q0 -91 -34.5 -171 q-34.5 -80 -79.5 -131.5 q-45 -51.5 -72 -59.5 q-82 48 -166 117 q-84 69 -128 129 q23 -205 23 -366 q0 -142 -19 -233 l19 -16 Z" /><glyph glyph-name="currency" unicode="¤" d="M968 403 q69 -41 115 -83 q46 -42 61 -73 q-2 -40 -45 -91.5 q-43 -51.5 -100.5 -88 q-57.5 -36.5 -97.5 -36.5 l-129 174 q-85 -45 -181 -45 q-44 0 -103 14 q-59 14 -98 35 q-91 -141 -153 -171 q-40 2 -91.5 45 q-51.5 43 -88 100.5 q-36.5 57.5 -36.5 97.5 l182 133 q-16 32 -25 80.5 q-9 48.5 -9 87.5 q0 106 48 196 q-159 101 -190 166 q2 40 45 91.5 q43 51.5 100.5 88 q57.5 36.5 97.5 36.5 l144 -196 q86 38 177 38 q51 0 94.5 -7.5 q43.5 -7.5 83.5 -30.5 q43 75 87.5 125 q44.5 50 77.5 66 q40 -2 91.5 -45 q51.5 -43 88 -100.5 q36.5 -57.5 36.5 -97.5 l-179 -133 q18 -47 29 -101.5 q11 -54.5 11 -95.5 q0 -91 -43 -179 ZM693 441 q32 64 32 127 q0 44 -18 100 q-25 20 -70.5 33.5 q-45.5 13.5 -87.5 13.5 q-37 0 -58 -11 q-35 -66 -35 -127 q0 -47 20 -101 q23 -20 70.5 -34 q47.5 -14 90.5 -14 q34 0 54 10 l2 3 Z" /><glyph glyph-name="dollar" unicode="$" d="M429 888 q52 -28 145.5 -88 q93.5 -60 179 -125 q85.5 -65 120.5 -110 q1 -12 1 -38 q0 -65 -9 -135.5 q-9 -70.5 -24 -113.5 q-65 -63 -130 -110 q-65 -47 -139 -78 q24 -107 37 -270 q-60 -41 -138 -41 q-54 0 -103.5 20.5 q-49.5 20.5 -80.5 56.5 l58 251 q-90 9 -216 28 q-48 87 -48 165 q0 43 11.5 75 q11.5 32 23.5 52 q12 20 15 27 q195 -6 377 -139 l49 24 q7 38 7 116 q0 32 -1 43 q-45 13 -110 37 q-116 43 -217.5 96 q-101.5 53 -138.5 101 q-13 50 -17.5 171.5 q-4.5 121.5 -4.5 211.5 q0 27 32.5 64 q32.5 37 74.5 70.5 q42 33.5 71 50.5 q38 22 89.5 45.5 q51.5 23.5 97.5 36.5 l-31 235 q33 52 89 79.5 q56 27.5 128 27.5 q88 0 125 -36 l-64 -311 q29 -6 50 -15 l161 -54 q10 -37 10 -75 q0 -92 -42 -193.5 q-42 -101.5 -107 -157.5 q-67 28 -157.5 96 q-90.5 68 -138.5 134 l-26 -9 l-9 -215 Z" /><glyph glyph-name="Euro" unicode="&#x20ac;" d="M604 345 q156 31 254 52.5 q98 21.5 186 45.5 l65 -149 q-35 -60 -123 -129 q-88 -69 -203.5 -121 q-115.5 -52 -227.5 -64 q-47 0 -110.5 35 q-63.5 35 -121.5 80 q-34 27 -49.5 49.5 q-15.5 22.5 -17.5 47.5 l-9 161 l-8 140 l-181 0 q-2 15 -2 40 q0 37 9 62.5 q9 25.5 32 64.5 l131 7 q-2 38 -8 104 q-2 15 -4 41 l-178 0 q-2 15 -2 39 q0 34 8.5 55 q8.5 21 32.5 63 l121 7 q-16 123 -29 195 q-6 34 -6 115 q12 45 59.5 98 q47.5 53 112.5 98 q65 45 124 67 q39 -8 124 -19 q24 -4 100.5 -16 q76.5 -12 120.5 -21 l323 0 q13 -62 13 -118 q0 -79 -23.5 -136.5 q-23.5 -57.5 -55.5 -91 q-32 -33.5 -61 -47.5 q-102 25 -222 69.5 q-120 44.5 -185 102.5 l-24 -22 q2 -18 2 -62 q0 -85 -9 -193 l353 19 q6 -27 6 -52 q0 -35 -10.5 -70.5 q-10.5 -35.5 -32.5 -77.5 l-335 -1 l-15 -128 l357 20 q6 -27 6 -54 q0 -73 -43 -156 l-345 -1 q-16 -110 -23 -174 l124 25 Z" /><glyph glyph-name="florin" unicode="&#x192;" d="M779 1088 q21 -42 21 -118 q0 -52 -11.5 -99.5 q-11.5 -47.5 -34.5 -78.5 l-192 2 l47 -1008 q-4 -31 -26 -67 q-20 -32 -61.5 -67 q-41.5 -35 -93 -60.5 q-51.5 -25.5 -100.5 -29.5 q-78 10 -165 54.5 q-87 44.5 -146 102.5 l-1 27 q0 41 7 75 q7 34 23 80 q40 -9 132.5 -22 q92.5 -13 160.5 -16 l-123 935 l-155 2 q-6 30 -6 61 q0 39 9.5 76.5 q9.5 37.5 27.5 67.5 l95 12 l-32 245 q0 11 38.5 81 q38.5 70 117 148 q78.5 78 198.5 122 q111 -25 184 -35 q73 -10 146 -10 l34 0 q13 -25 13 -73 q0 -51 -13.5 -113.5 q-13.5 -62.5 -36 -115.5 q-22.5 -53 -47.5 -77 q-104 19 -162.5 53.5 q-58.5 34.5 -96.5 83.5 l21 -286 l228 48 Z" /><glyph glyph-name="sterling" unicode="£" d="M1022 533 q13 -35 21.5 -90 q8.5 -55 8.5 -115 q0 -74 -15 -139 q-15 -65 -47 -109 q-75 -100 -185 -100 q-58 0 -128.5 27 q-70.5 27 -133 66.5 q-62.5 39.5 -98.5 76.5 q-40 -68 -115.5 -115 q-75.5 -47 -160.5 -52 q-34 20 -61.5 68 q-27.5 48 -43 109.5 q-15.5 61.5 -15.5 122.5 q0 52 12 95 q57 24 116 24 q61 0 110 -26 l-41 266 l-197 -1 q-2 15 -2 43 q0 85 41 156 l127 8 l-64 423 q2 40 51 86 q49 46 107 85 q52 36 124 71.5 q72 35.5 109 35.5 q29 0 50.5 -8.5 q21.5 -8.5 54.5 -27.5 q19 -12 41 -22 l295 -20 q7 -41 7 -82 q0 -94 -35 -165 q-35 -71 -80 -112 q-85 17 -152.5 49 q-67.5 32 -161.5 104 q1 -22 1 -98 q0 -129 -3 -297 l240 15 q5 -23 5 -46 q0 -45 -14.5 -98 q-14.5 -53 -37.5 -98 l-198 -1 q-5 -172 -11 -284 l231 -31 l100 234 l148 -28 Z" /><glyph glyph-name="yen" unicode="¥" d="M775 613 l9 -97 l358 16 q7 -35 7 -72 q0 -42 -11 -83 q-11 -41 -33 -68 l-304 -1 l21 -289 q-32 -21 -70 -30 q-38 -9 -87 -9 q-85 0 -142 21 q-57 21 -100 61 l17 246 l-323 -1 q-3 23 -3 41 q0 80 42 141 l298 13 l7 111 l-355 -1 q-3 23 -3 41 q0 41 11 77.5 q11 36.5 31 63.5 l217 5 l-192 289 l-168 146 q5 94 47.5 161 q42.5 67 109 101.5 q66.5 34.5 141.5 34.5 q73 0 141 -33 l201 -746 l17 0 l168 326 q-56 49 -91 92 q-35 43 -69 113 q30 76 89 137 q59 61 132.5 95 q73.5 34 147.5 34 q80 -65 122.5 -165 q42.5 -100 49.5 -219 q-54 -129 -279 -345 l242 12 q6 -27 6 -62 q0 -42 -10.5 -84 q-10.5 -42 -32.5 -73 l-359 0 Z" /><glyph glyph-name="uni2126" unicode="&#x2126;" d="M1464 477 q15 -41 25 -91.5 q10 -50.5 10 -101.5 q0 -119 -57 -198 q-38 -51 -85.5 -78 q-47.5 -27 -99.5 -27 q-89 0 -205 38.5 q-116 38.5 -194 88.5 q-25 58 -41.5 134 q-16.5 76 -20.5 156 l108 192 q12 146 12 245 q0 126 -20 283 l-264 91 l-71 -35 q-10 -126 -10 -230 q0 -85 10 -255 l148 -385 l1 0 q2 -28 2 -46 q0 -79 -20.5 -156.5 q-20.5 -77.5 -60.5 -117.5 q-88 -2 -164 -2 q-140 0 -228 5 q-99 5 -159 71 q-60 66 -60 179 q0 78 31 171 l150 33 l62 -140 l220 -26 l8 15 q-157 126 -270 267 q-37 143 -49.5 257.5 q-12.5 114.5 -12.5 278.5 q0 85 6.5 149.5 q6.5 64.5 29.5 94.5 q34 45 137.5 94 q103.5 49 214 83.5 q110.5 34.5 147.5 34.5 q53 0 184.5 -35 q131.5 -35 254 -87.5 q122.5 -52.5 166.5 -105.5 q9 -79 12.5 -129 q3.5 -50 3.5 -132 q0 -108 -14.5 -222 q-14.5 -114 -42.5 -213 q-114 -147 -253 -267 l3 -16 l228 11 l90 152 l138 -28 Z" /><glyph glyph-name="approxequal" unicode="&#x2248;" d="M32 705 q13 61 70.5 142.5 q57.5 81.5 134.5 140 q77 58.5 148 58.5 q47 0 144 -36.5 q97 -36.5 240 -97.5 l53 -23 l175 149 l121 -112 q-14 -62 -68.5 -142 q-54.5 -80 -129.5 -136.5 q-75 -56.5 -146 -56.5 q-36 0 -123 27 q-87 27 -179 64 q-92 37 -137 64 l-182 -152 l-121 111 ZM37 203 q13 61 70.5 142.5 q57.5 81.5 134.5 140 q77 58.5 148 58.5 q47 0 144 -36.5 q97 -36.5 240 -97.5 l53 -23 l175 149 l121 -112 q-14 -62 -68.5 -142 q-54.5 -80 -129.5 -136.5 q-75 -56.5 -146 -56.5 q-36 0 -123 27 q-87 27 -179 64 q-92 37 -137 64 l-182 -152 l-121 111 Z" /><glyph glyph-name="asciitilde" unicode="~" d="M37 488 q13 61 70.5 142.5 q57.5 81.5 134.5 140 q77 58.5 148 58.5 q56 0 195 -47 q139 -47 242 -90 l175 129 l121 -112 q-14 -62 -68.5 -142 q-54.5 -80 -129.5 -136.5 q-75 -56.5 -146 -56.5 q-37 0 -125.5 22.5 q-88.5 22.5 -179 54.5 q-90.5 32 -134.5 58 l-182 -132 l-121 111 Z" /><glyph glyph-name="divide" unicode="÷" d="M467 1194 q-19 -13 -59 -58 q-40 -45 -75 -91.5 q-35 -46.5 -40 -64.5 q38 -114 180 -175 q38 12 87 45.5 q49 33.5 88 79.5 q39 46 50 93 q-42 59 -102 105.5 q-60 46.5 -129 65.5 ZM91 440 q-3 30 -3 56 q0 56 14 98.5 q14 42.5 45 94.5 l758 65 q7 -28 7 -61 q0 -105 -75 -252 l-746 -1 ZM467 369 q-19 -13 -59 -58 q-40 -45 -75 -91.5 q-35 -46.5 -40 -64.5 q38 -114 180 -175 q38 12 87 45.5 q49 33.5 88 79.5 q39 46 50 93 q-42 59 -102 105.5 q-60 46.5 -129 65.5 Z" /><glyph glyph-name="equal" unicode="=" d="M101 602 q-3 30 -3 56 q0 52 13.5 90.5 q13.5 38.5 45.5 92.5 l832 65 q7 -28 7 -60 q0 -55 -19.5 -114 q-19.5 -59 -55.5 -129 l-820 -1 ZM101 210 q-3 30 -3 56 q0 52 13.5 90.5 q13.5 38.5 45.5 92.5 l832 65 q7 -28 7 -60 q0 -55 -19.5 -114 q-19.5 -59 -55.5 -129 l-820 -1 Z" /><glyph glyph-name="greater" unicode="&gt;" d="M23 906 q12 54 56 115 q44 61 86 86 l580 -333 q24 -28 42 -116.5 q18 -88.5 18 -166.5 q0 -36 -4 -56 l-591 -425 q-26 11 -62 53 q-36 42 -66 93 q-30 51 -38 84 l405 357 l-426 309 Z" /><glyph glyph-name="greaterequal" unicode="&#x2265;" d="M41 992 q15 61 52.5 130 q37.5 69 74.5 85 l707 -284 q17 -38 27.5 -93.5 q10.5 -55.5 10.5 -113.5 q0 -68 -14 -118 l-756 -208 q-40 34 -63.5 86 q-23.5 52 -38.5 118 l500 181 l-500 217 ZM91 30 q-3 30 -3 56 q0 52 13.5 90.5 q13.5 38.5 45.5 92.5 l758 65 q7 -28 7 -60 q0 -55 -19.5 -114 q-19.5 -59 -55.5 -129 l-746 -1 Z" /><glyph glyph-name="uni2206" unicode="&#x2206;" d="M1201 320 q-54 -193 -157 -320 l-915 0 q-36 29 -65.5 69.5 q-29.5 40.5 -46.5 84.5 l211 749 l124 559 q17 21 71.5 41 q54.5 20 120.5 33 q66 13 113 13 q36 0 77.5 -5 q41.5 -5 62.5 -15 l191 -626 l213 -583 ZM510 925 l-142 -616 l477 -20 l-229 614 l-54 221 l-26 0 l-26 -199 Z" /><glyph glyph-name="infinity" unicode="&#x221e;" d="M909 1039 q75 16 140 16 q89 0 174 -34 q67 -60 114.5 -160.5 q47.5 -100.5 78.5 -208.5 q0 -56 -17.5 -136.5 q-17.5 -80.5 -52.5 -160 q-35 -79.5 -83 -130.5 q-84 -28 -172 -28 q-36 0 -65 4 q-48 8 -91.5 38.5 q-43.5 30.5 -77.5 68.5 q-34 38 -83 100 l-20 26 l-79 -91 l-32 -40 q-23 -31 -40 -51 q-39 -22 -110.5 -38.5 q-71.5 -16.5 -138.5 -16.5 q-83 0 -131 26 q-34 31 -74.5 99.5 q-40.5 68.5 -69.5 143 q-29 74.5 -31 124.5 q1 56 18.5 140.5 q17.5 84.5 52.5 167 q35 82.5 83 132.5 q87 29 172 29 q37 0 66 -4 q43 -19 96.5 -76 q53.5 -57 125.5 -147 l35 -43 l212 250 ZM579 630 l-18 15 q-57 47 -93.5 73 q-36.5 26 -76.5 42 q-26 -41 -45 -115.5 q-19 -74.5 -20 -129.5 l16 -33 l87 -8 l150 156 ZM1019 755 l-164 -165 l151 -131 l78 7 q55 110 55 211 q0 12 -2 36 l-15 34 l-103 8 Z" /><glyph glyph-name="integral" unicode="&#x222b;" d="M73 1467 q0 10 33.5 68 q33.5 58 109 129 q75.5 71 195.5 121 q111 -25 182.5 -36.5 q71.5 -11.5 133.5 -11.5 q31 0 61 3 q15 -28 15 -84 q0 -80 -26 -170 q-26 -90 -62 -125 q-81 6 -130.5 26 q-49.5 20 -73.5 43.5 q-24 23.5 -58 67.5 l135 -1712 q-3 -33 -24 -67 q-19 -33 -60 -69.5 q-41 -36.5 -92.5 -62 q-51.5 -25.5 -100.5 -25.5 q-57 10 -120.5 38.5 q-63.5 28.5 -114 61.5 q-50.5 33 -68.5 57 q-1 13 -1 36 q0 38 6 69.5 q6 31.5 20 76.5 q44 -9 198 -27 q9 -1 86 -11 q-49 219 -104 559 q-55 340 -95 644.5 q-40 304.5 -45 400.5 Z" /><glyph glyph-name="less" unicode="&lt;" d="M858 211 q-12 -54 -56 -115 q-44 -61 -86 -86 l-580 333 q-24 28 -42 116.5 q-18 88.5 -18 166.5 q0 36 4 56 l591 425 q26 -11 62 -53 q36 -42 66 -93 q30 -51 38 -84 l-405 -357 l426 -309 Z" /><glyph glyph-name="lessequal" unicode="&#x2264;" d="M928 594 q-15 -66 -38.5 -118 q-23.5 -52 -63.5 -86 l-756 148 q-14 50 -14 118 q0 58 10.5 113.5 q10.5 55.5 27.5 93.5 l707 344 q37 -16 74.5 -85 q37.5 -69 52.5 -130 l-500 -277 l500 -121 ZM91 30 q-3 30 -3 56 q0 52 13.5 90.5 q13.5 38.5 45.5 92.5 l758 65 q7 -28 7 -60 q0 -55 -19.5 -114 q-19.5 -59 -55.5 -129 l-746 -1 Z" /><glyph glyph-name="logicalnot" unicode="¬" d="M703 441 l-612 -1 q-3 30 -3 56 q0 56 14 98.5 q14 42.5 45 94.5 l717 56 l85 -78 l0 -375 q-60 -70 -145 -70 q-48 0 -110 24 l9 195 Z" /><glyph glyph-name="uni00B5" unicode="µ" d="M360 70 q56 -126 78 -232 q22 -106 35 -241 q-45 -36 -143 -36 q-79 0 -143 20 q-64 20 -103 54 q0 225 19 506.5 q19 281.5 77 524.5 l-185 338 q22 64 77.5 106 q55.5 42 125 61.5 q69.5 19.5 136.5 19.5 q68 0 105 -17 q16 -121 22 -243 q6 -100 6 -194 q0 -194 -28 -362 l31 -14 q34 35 88 117.5 q54 82.5 99 165.5 q45 83 55 120 q-29 346 -29 390 q17 11 65 19.5 q48 8.5 103 8.5 q91 0 157.5 -29 q66.5 -29 119.5 -92 l0 -11 q0 -50 -24.5 -190 q-24.5 -140 -64.5 -294.5 q-40 -154.5 -83 -257.5 l173 92 l85 -121 q-57 -132 -130.5 -215.5 q-73.5 -83.5 -154.5 -83.5 q-47 0 -100.5 27.5 q-53.5 27.5 -94.5 72.5 q-4 4 -19.5 20 q-15.5 16 -24 39 q-8.5 23 -8.5 54 q0 8 2 28 q14 139 34 269 l-15 7 q-53 -211 -84 -312.5 q-31 -101.5 -55 -142.5 q-24 -41 -54 -42 q-12 0 -57 25 q-45 25 -84 52 l-9 -7 Z" /><glyph glyph-name="minus" unicode="&#x2212;" d="M91 440 q-3 30 -3 56 q0 56 14 98.5 q14 42.5 45 94.5 l758 65 q7 -28 7 -61 q0 -105 -75 -252 l-746 -1 Z" /><glyph glyph-name="multiply" unicode="×" d="M719 568 l256 -226 q-32 -86 -80 -142.5 q-48 -56.5 -103 -82.5 l-248 264 l-211 -259 q-87 31 -142 78 q-55 47 -80 101 l250 233 l-247 226 q31 86 79 141.5 q48 55.5 103 82.5 l245 -261 l216 257 q165 -59 222 -179 l-260 -233 Z" /><glyph glyph-name="notequal" unicode="&#x2260;" d="M990 507 q6 -28 6 -55 q0 -55 -19 -113 q-19 -58 -55 -127 l-347 0 l-90 -334 q-70 -1 -114.5 14.5 q-44.5 15.5 -103.5 56.5 l57 262 l-220 0 q-2 19 -2 52 q0 56 13 96.5 q13 40.5 44 82.5 l218 17 l32 147 l-305 0 q-2 18 -2 51 q0 56 13 97.5 q13 41.5 44 81.5 l305 24 l77 358 q39 6 77 6 q113 0 216 -54 l-77 -287 l233 19 q6 -28 6 -55 q0 -55 -19 -113 q-19 -58 -55 -127 l-240 0 l-34 -127 l342 27 Z" /><glyph glyph-name="partialdiff" unicode="&#x2202;" d="M1047 1058 q9 -52 9 -118 q0 -64 -9 -181 q-11 -141 -48 -319.5 q-37 -178.5 -72 -279.5 q-18 -21 -69.5 -52 q-51.5 -31 -103.5 -56 q-67 -33 -116 -50 q-49 -17 -97 -22 q-67 6 -153 29.5 q-86 23.5 -163.5 57.5 q-77.5 34 -118.5 69 q-18 91 -28 171 q-10 80 -10 165 q0 158 37 324 q30 34 127 87 q97 53 204.5 98 q107.5 45 161.5 54 q-154 154 -480 384 q2 25 24 67.5 q22 42.5 52 79.5 q30 37 54 47 q156 -55 319 -153 q163 -98 292 -207 q129 -109 188 -195 ZM642 258 q35 232 35 478 q0 67 -1 99 l-18 4 l-215 -161 q-15 -101 -20.5 -162 q-5.5 -61 -5.5 -140 q0 -53 1 -84 q78 -53 167 -72 l57 38 Z" /><glyph glyph-name="percent" unicode="%" d="M475 -112 q-60 17 -106.5 57.5 q-46.5 40.5 -56.5 89.5 l1066 1541 q56 -3 129.5 -54 q73.5 -51 116.5 -110 l-1149 -1524 ZM435 1549 q203 0 293 -111.5 q90 -111.5 90 -303.5 q0 -126 -43.5 -225.5 q-43.5 -99.5 -133 -157.5 q-89.5 -58 -221.5 -58 q-197 0 -288.5 116 q-91.5 116 -91.5 311 q2 126 44.5 222.5 q42.5 96.5 130.5 151.5 q88 55 220 55 ZM337 1296 q-23 -78 -23 -165 q0 -95 25 -202 q46 -31 128 -50 l45 32 q19 89 19 170 q0 95 -25 197 l-119 42 l-50 -24 ZM1547 835 q203 0 293 -111.5 q90 -111.5 90 -303.5 q0 -126 -43.5 -225.5 q-43.5 -99.5 -133 -157.5 q-89.5 -58 -221.5 -58 q-197 0 -288.5 116 q-91.5 116 -91.5 311 q2 126 44.5 222.5 q42.5 96.5 130.5 151.5 q88 55 220 55 ZM1449 582 q-23 -78 -23 -165 q0 -95 25 -202 q46 -31 128 -50 l45 32 q19 89 19 170 q0 95 -25 197 l-119 42 l-50 -24 Z" /><glyph glyph-name="perthousand" unicode="&#x2030;" d="M475 -112 q-60 17 -106.5 57.5 q-46.5 40.5 -56.5 89.5 l1066 1541 q56 -3 129.5 -54 q73.5 -51 116.5 -110 l-1149 -1524 ZM435 1549 q203 0 293 -111.5 q90 -111.5 90 -303.5 q0 -126 -43.5 -225.5 q-43.5 -99.5 -133 -157.5 q-89.5 -58 -221.5 -58 q-197 0 -288.5 116 q-91.5 116 -91.5 311 q2 126 44.5 222.5 q42.5 96.5 130.5 151.5 q88 55 220 55 ZM337 1296 q-23 -78 -23 -165 q0 -95 25 -202 q46 -31 128 -50 l45 32 q19 89 19 170 q0 95 -25 197 l-119 42 l-50 -24 ZM1547 835 q203 0 293 -111.5 q90 -111.5 90 -303.5 q0 -126 -43.5 -225.5 q-43.5 -99.5 -133 -157.5 q-89.5 -58 -221.5 -58 q-197 0 -288.5 116 q-91.5 116 -91.5 311 q2 126 44.5 222.5 q42.5 96.5 130.5 151.5 q88 55 220 55 ZM2391 835 q203 0 293 -111.5 q90 -111.5 90 -303.5 q0 -126 -43.5 -225.5 q-43.5 -99.5 -133 -157.5 q-89.5 -58 -221.5 -58 q-197 0 -288.5 116 q-91.5 116 -91.5 311 q2 126 44.5 222.5 q42.5 96.5 130.5 151.5 q88 55 220 55 ZM1449 582 q-23 -78 -23 -165 q0 -95 25 -202 q46 -31 128 -50 l45 32 q19 89 19 170 q0 95 -25 197 l-119 42 l-50 -24 ZM2293 582 q-23 -78 -23 -165 q0 -95 25 -202 q46 -31 128 -50 l45 32 q19 89 19 170 q0 95 -25 197 l-119 42 l-50 -24 Z" /><glyph glyph-name="plus" unicode="+" d="M975 754 q7 -28 7 -59 q0 -52 -19 -107 q-19 -55 -56 -127 l-250 0 l0 -347 q-60 -70 -145 -70 q-48 0 -110 24 l19 392 l-330 0 q-3 30 -3 55 q0 50 13 84 q13 34 46 90 l269 21 l-59 324 q33 52 89 79.5 q56 27.5 128 27.5 q88 0 125 -36 l-40 -376 l316 25 Z" /><glyph glyph-name="plusminus" unicode="±" d="M91 584 q-3 30 -3 55 q0 50 13 84 q13 34 46 90 l263 21 l-53 188 q33 52 89 79.5 q56 27.5 128 27.5 q88 0 125 -36 l-34 -239 l310 24 q7 -28 7 -59 q0 -52 -19 -107 q-19 -55 -56 -127 l-250 0 l0 -206 q-60 -70 -145 -70 q-48 0 -110 24 l17 251 l-328 0 ZM975 293 q7 -28 7 -59 q0 -52 -19 -107 q-19 -55 -56 -127 l-816 0 q-3 30 -3 55 q0 50 12.5 83 q12.5 33 46.5 90 l828 65 Z" /><glyph glyph-name="product" unicode="&#x220f;" d="M1392 1097 q-80 0 -167 11 l-44 -690 q24 -115 41 -266.5 q17 -151.5 26 -306.5 q-32 -21 -72.5 -30 q-40.5 -9 -94.5 -9 q-161 0 -248 82 q9 168 29.5 324 q20.5 156 54.5 255 q-27 82 -47.5 223 q-20.5 141 -43.5 357 l-14 120 l-191 18 l-49 -767 q24 -115 41 -266.5 q17 -151.5 26 -306.5 q-32 -21 -72.5 -30 q-40.5 -9 -94.5 -9 q-161 0 -248 82 q9 168 29.5 324 q20.5 156 54.5 255 q-27 83 -46.5 219.5 q-19.5 136.5 -45.5 364.5 l-10 89 l-220 -33 q-32 37 -49 94 q-17 57 -17 121 q0 56 13 109.5 q13 53.5 38 97.5 l503 -75 l912 77 q36 -22 55.5 -79 q19.5 -57 19.5 -128 q0 -68 -18 -130 q-18 -62 -51 -97 Z" /><glyph glyph-name="radical" unicode="&#x221a;" d="M666 279 l26 0 l64 464 l208 869 q8 1 25 1 q55 0 112.5 -14.5 q57.5 -14.5 99.5 -38.5 q42 -24 52 -51 l-212 -745 l-165 -696 q-17 -21 -71.5 -41 q-54.5 -20 -120.5 -33 q-66 -13 -113 -13 q-36 0 -77.5 5 q-41.5 5 -62.5 15 l-152 588 l-244 -27 q-12 59 -12 98 q0 38 10.5 69.5 q10.5 31.5 33.5 66.5 l445 78 l72 -58 l82 -537 Z" /><glyph glyph-name="summation" unicode="&#x2211;" d="M776 685 q1 -9 1 -28 q0 -62 -19 -145 l-384 -400 l252 6 l300 54 q23 -23 35 -61.5 q12 -38.5 12 -84.5 q0 -70 -26.5 -137 q-26.5 -67 -73.5 -103 q-84 -2 -240 12.5 q-156 14.5 -303 37.5 q-147 23 -206 43 q-79 94 -93 196 q51 84 115 163.5 q64 79.5 163 191.5 q104 119 139 163 q-124 152 -240 331 q-116 179 -191 341 q0 43 20.5 95 q20.5 52 53.5 97.5 q33 45.5 69 70.5 l333 -73 l412 106 q45 -25 69.5 -89 q24.5 -64 24.5 -143 q0 -86 -27.5 -160 q-27.5 -74 -76.5 -107 q-89 7 -166.5 28.5 q-77.5 21.5 -246.5 80.5 l294 -486 Z" /><glyph glyph-name="lozenge" unicode="&#x25ca;" d="M860 67 q-40 -37 -117 -61.5 q-77 -24.5 -157 -24.5 q-53 0 -100 12 q-47 12 -80 37 l-139 294 l-213 392 l251 589 l81 235 q43 34 120 54 q77 20 157 20 q92 0 144 -29 l237 -551 l100 -206 l-284 -761 ZM406 783 l138 -293 l91 -229 l26 0 l145 477 l-131 277 l-91 226 l-16 0 l-65 -183 l-97 -275 Z" /><glyph glyph-name="bar" unicode="|" d="M470 -289 q-81 -25 -146 -25 q-62 0 -124 21 l-58 2089 q34 23 104 38 q70 15 139 15 q54 0 95 -11 l-10 -2127 Z" /><glyph glyph-name="brokenbar" unicode="¦" d="M475 798 q-82 -22 -166 -22 q-70 0 -139 15 l-28 1005 q34 23 104 38 q70 15 139 15 q54 0 95 -11 l-5 -1040 ZM178 513 q62 12 120 12 q89 0 176 -26 l-4 -788 q-81 -25 -146 -25 q-62 0 -124 21 l-22 806 Z" /><glyph glyph-name="at" unicode="@" d="M1628 -105 q-92 -59 -266 -94.5 q-174 -35.5 -370 -35.5 q-197 0 -372 39 q-175 39 -290 120 q-56 66 -102 174 q-46 108 -72.5 229 q-26.5 121 -26.5 224 q0 102 18 226.5 q18 124.5 47.5 232.5 q29.5 108 60.5 165 q58 60 161 107.5 q103 47.5 229 73.5 q126 26 248 26 q175 0 334.5 -89 q159.5 -89 256 -250 q96.5 -161 90.5 -365 q-27 -113 -63.5 -191 q-36.5 -78 -98.5 -170 l-268 4 q37 87 70.5 219 q33.5 132 53 247.5 q19.5 115.5 16.5 143.5 q-44 51 -97.5 74.5 q-53.5 23.5 -127.5 23.5 q-44 0 -83 -7 q-39 -7 -53 -16 l2 -49 q4 -145 4 -150 q-47 79 -93.5 139.5 q-46.5 60.5 -105.5 100.5 q-65 -10 -148.5 -44.5 q-83.5 -34.5 -144.5 -116.5 q-11 -16 -15.5 -25.5 q-4.5 -9.5 -4.5 -19.5 q0 -14 10 -44 q28 -92 44.5 -234 q16.5 -142 16.5 -248 q0 -33 -2 -85 q-1 -17 -1 -40 q1 -21 18.5 -36 q17.5 -15 54.5 -37 q22 -12 35 -21 q27 -20 47 -30 q20 -10 39 -10 q26 0 49 20 q48 40 96 143 q48 103 100 240 l8 20 l21 -5 q-18 -107 -29 -224 q-1 -9 -1 -24 q0 -24 6 -40.5 q6 -16.5 12 -24 q6 -7.5 23 -25.5 q34 -36 76.5 -58.5 q42.5 -22.5 80.5 -22.5 q72 0 178.5 37 q106.5 37 251.5 141 q35 -68 59 -143.5 q24 -75.5 24 -138.5 q0 -31 -6 -56 ZM712 348 q34 169 31 301 l-1 105 l203 -43 l-1 -61 q-32 -70 -92 -174.5 q-60 -104.5 -104 -147.5 l-36 20 Z" /><glyph glyph-name="ampersand" unicode="&amp;" d="M1363 945 q47 -82 47 -179 q0 -64 -16.5 -120.5 q-16.5 -56.5 -40 -94.5 q-23.5 -38 -42.5 -48 q-94 38 -188 102 l-13 -12 q28 -175 28 -392 q-39 -50 -106.5 -97.5 q-67.5 -47.5 -148 -80.5 q-80.5 -33 -156.5 -43 q-89 5 -208 31 q-119 26 -222 63 q-103 37 -149 73 q-16 51 -24.5 110 q-8.5 59 -8.5 116 q0 58 9 107 q9 49 26 81 q40 47 101 92.5 q61 45.5 121 71.5 q-71 95 -116 170 q-45 75 -78 148.5 q-33 73.5 -77 188.5 q10 53 69.5 123 q59.5 70 138 125.5 q78.5 55.5 139.5 68.5 q56 -8 189.5 -42.5 q133.5 -34.5 175.5 -56.5 l343 31 q13 -62 13 -122 q0 -88 -24.5 -163.5 q-24.5 -75.5 -58 -124.5 q-33.5 -49 -59.5 -61 q-45 2 -137.5 36 q-92.5 34 -184.5 85.5 q-92 51.5 -142 103.5 l-62 -48 l82 -336 q23 10 53 16.5 q30 6.5 57 8.5 q33 -53 33 -126 q0 -50 -15 -99.5 q-15 -49.5 -40 -85.5 q-25 -36 -53 -48 q-21 4 -55 18 q-34 14 -65 31 l-33 -33 q-3 -48 -3 -101 q0 -65 4 -101 q57 -30 169 -56 q112 -26 196 -26 q23 0 33 1 l-8 29 q-36 144 -57 237 q-21 93 -32 186 q13 72 51.5 144 q38.5 72 93.5 99 l188 -70 l263 70 Z" /><glyph glyph-name="paragraph" unicode="¶" d="M1398 1608 q39 -36 57 -104.5 q18 -68.5 18 -148.5 q0 -82 -16 -151 q-188 -60 -420 -60 q-92 0 -222 12 l-59 4 l8 -527 l1 -1 l-24 -737 q-8 -21 -39.5 -40 q-31.5 -19 -76.5 -30.5 q-45 -11.5 -92 -11.5 q-86 0 -145 40 l142 551 l-60 16 q-99 27 -154.5 45.5 q-55.5 18.5 -82.5 41.5 q-40 108 -58.5 278.5 q-18.5 170.5 -18.5 346.5 q0 107 6 183 l634 164 l602 129 ZM1356 919 q1 -2 1 -13 q0 -50 -18.5 -196.5 q-18.5 -146.5 -44.5 -285 q-26 -138.5 -51 -187.5 q16 -46 29.5 -104 q13.5 -58 35.5 -166 l15 -72 q-34 -39 -98.5 -59.5 q-64.5 -20.5 -134.5 -20.5 q-48 0 -89 10 q-41 10 -64 28 q9 106 34.5 229.5 q25.5 123.5 54.5 188.5 l-55 728 q54 22 120 22 q58 0 116 -15.5 q58 -15.5 98.5 -39.5 q40.5 -24 50.5 -47 Z" /><glyph glyph-name="copyright" unicode="©" d="M1264 1357 q32 -38 41.5 -99 q9.5 -61 9.5 -164 q0 -155 -24 -369.5 q-24 -214.5 -52 -314.5 q-14 -48 -111 -99 q-97 -51 -211 -89 q-114 -38 -163 -46 q-80 7 -215.5 42.5 q-135.5 35.5 -242 85.5 q-106.5 50 -113.5 101 q-28 178 -46 378.5 q-18 200.5 -18 342.5 q0 82 6.5 143.5 q6.5 61.5 28.5 90.5 q33 43 148.5 90 q115.5 47 240.5 80.5 q125 33.5 162 33.5 q52 0 172 -30.5 q120 -30.5 232 -78 q112 -47.5 155 -98.5 ZM733 1029 q44 -61 80 -102 q36 -41 81 -68 q22 6 58.5 47.5 q36.5 41.5 64.5 106 q28 64.5 28 138.5 q0 29 -4 53 l-150 39 l-39 20 q-51 27 -87 43 q-36 16 -60 16 q-35 0 -92.5 -24.5 q-57.5 -24.5 -100.5 -50.5 q-45 -27 -95 -72 q-50 -45 -50 -75 q0 -7 4 -20.5 q4 -13.5 10 -29.5 q48 -142 48 -355 q0 -26 -4 -56 q-3 -16 -3 -28 q0 -18 9.5 -33.5 q9.5 -15.5 34.5 -38.5 q4 -3 75.5 -61 q71.5 -58 134.5 -58 q59 0 136 46 q77 46 141.5 107 q64.5 61 84.5 98 l-81 124 q-70 -37 -149.5 -76.5 q-79.5 -39.5 -108.5 -51.5 l-15 12 q19 90 19 188 q0 72 -11 175 l24 10 l17 -23 Z" /><glyph glyph-name="registered" unicode="®" d="M1283 1373 q32 -39 42 -102 q10 -63 10 -170 q0 -163 -25.5 -400 q-25.5 -237 -53.5 -339 q-14 -50 -113 -94.5 q-99 -44.5 -213.5 -75 q-114.5 -30.5 -174.5 -39.5 q-92 8 -229 36 q-137 28 -245 72 q-108 44 -116 96 q-28 179 -47 402.5 q-19 223.5 -19 374.5 q0 84 6.5 148.5 q6.5 64.5 29.5 94.5 q34 44 153 92.5 q119 48.5 248.5 83 q129.5 34.5 168.5 34.5 q54 0 178 -31.5 q124 -31.5 240 -80.5 q116 -49 160 -102 ZM721 689 q13 -128 68.5 -198.5 q55.5 -70.5 156.5 -70.5 q50 0 86 31.5 q36 31.5 55.5 80.5 q19.5 49 22.5 100 l-72 84 l-93 -47 l-57 67 l143 94 q28 58 41.5 129 q13.5 71 13.5 144 q0 72 -13 137 q-32 27 -80.5 46 q-48.5 19 -95 28.5 q-46.5 9.5 -71.5 8.5 q-42 -44 -66.5 -81.5 q-24.5 -37.5 -41.5 -79.5 q-17 -42 -41 -116 l-37 8 l35 230 q-41 28 -105 28 q-57 0 -110.5 -21.5 q-53.5 -21.5 -78.5 -56.5 q-3 -13 10.5 -153 q13.5 -140 32 -273.5 q18.5 -133.5 33.5 -163.5 q-15 -37 -24.5 -72.5 q-9.5 -35.5 -23.5 -101.5 q20 -22 75.5 -36 q55.5 -14 104.5 -14 q32 0 64.5 6.5 q32.5 6.5 51.5 19.5 q-6 61 -21.5 137.5 q-15.5 76.5 -31.5 114.5 l69 -9 ZM791 1034 q7 -28 7 -73 q0 -75 -18 -125 l-151 -9 q17 33 98 149 l42 61 l22 -3 Z" /><glyph glyph-name="section" unicode="§" d="M696 472 q42 -30 42 -30 q45 -32 67 -49 q22 -17 36 -35 q1 -12 1 -36 q0 -56 -8.5 -112 q-8.5 -56 -24.5 -101 q-65 -63 -130 -110 q-65 -47 -140 -78 q-84 3 -164.5 17.5 q-80.5 14.5 -183.5 37.5 q-62 15 -94 20 q-48 87 -48 165 q0 43 11.5 75 q11.5 32 23.5 52 q12 20 15 27 q95 -3 183.5 -47.5 q88.5 -44.5 193.5 -121.5 l49 24 q7 38 7 109 q0 31 -1 42 q-70 20 -163 59.5 q-93 39.5 -176.5 86 q-83.5 46.5 -126.5 88.5 q-26 98 -26 169 q0 35 52 85 q52 50 108 88 q-98 53 -134 99 q-13 50 -17.5 155.5 q-4.5 105.5 -4.5 185.5 q0 27 32.5 64 q32.5 37 74.5 70.5 q42 33.5 71 50.5 q57 34 133 64 q76 30 128 30 q27 0 60 -13.5 q33 -13.5 81 -38.5 q49 -25 62 -30 l161 -54 q10 -34 10 -73 q0 -76 -39 -156.5 q-39 -80.5 -110 -154.5 q-61 25 -142.5 96 q-81.5 71 -133.5 142 l-26 -9 l-9 -216 q149 -79 272.5 -153.5 q123.5 -74.5 172.5 -136.5 q1 -12 1 -36 q0 -56 -8.5 -112 q-8.5 -56 -24.5 -101 l-113 -98 ZM386 658 l95 -60 l53 27 q8 41 8 100 q0 22 -2 44 l-146 49 l-8 -160 Z" /><glyph glyph-name="trademark" unicode="&#x2122;" d="M898 1550 q43 -23 66 -69.5 q23 -46.5 23 -101.5 q0 -58 -23 -111 q-23 -53 -65 -82 q-26 0 -75.5 6.5 q-49.5 6.5 -95.5 15.5 l-31 -307 l4 -131 l130 60 l67 -120 q-8 -38 -45 -94 q-37 -56 -87 -97.5 q-50 -41.5 -96 -41.5 q-54 0 -110.5 23 q-56.5 23 -96.5 66.5 q-40 43.5 -45 99.5 q-1 9 -1 26 q0 29 4.5 57.5 q4.5 28.5 12.5 70.5 l4 20 l13 67 l-38 361 l-88 19 l-25 -171 q-64 -23 -106 -23 q-42 0 -98 25 q-15 49 -27 106.5 q-12 57.5 -12 106.5 q0 64 22 102 q40 48 98.5 79 q58.5 31 113.5 36 l336 -71 l271 73 ZM2270 625 q-18 -33 -53 -67 q-35 -34 -83 -57 q-48 -23 -101 -23 q-43 0 -83.5 18.5 q-40.5 18.5 -68 53 q-27.5 34.5 -33.5 80.5 q-7 57 -7 162 q0 86 4.5 199.5 q4.5 113.5 5.5 145.5 l2 37 l-21 3 l-83 -442 q28 -65 42 -163 l6 -41 q-35 -27 -76.5 -39.5 q-41.5 -12.5 -82.5 -12.5 q-56 0 -110.5 18 q-54.5 18 -92.5 49 q0 35 6 85 q6 50 18 79 l-117 442 l-17 -2 q12 -102 26.5 -265 q14.5 -163 14.5 -208 q0 -94 -35.5 -146 q-35.5 -52 -132.5 -52 q-46 0 -96.5 16.5 q-50.5 16.5 -91.5 47 q-41 30.5 -57 69.5 l36 139 l112 -6 l37 509 l-111 33 q7 88 40 156 q33 68 108 106 q38 -4 110 -25.5 q72 -21.5 146.5 -53 q74.5 -31.5 120.5 -66.5 l85 -363 q26 156 42 232 q-39 18 -63 34 q8 79 51.5 146 q43.5 67 118.5 96 q38 -5 112 -36.5 q74 -31.5 144.5 -72.5 q70.5 -41 100.5 -73 l-1 -38 q-8 -184 -17 -312.5 q-9 -128.5 -31 -260.5 l148 15 l28 -146 Z" /><glyph glyph-name="degree" unicode="°" d="M496 1510 q145 0 240 -58.5 q95 -58.5 140 -159 q45 -100.5 45 -229.5 q0 -132 -51 -241 q-51 -109 -150.5 -173.5 q-99.5 -64.5 -240.5 -64.5 q-141 0 -235.5 61 q-94.5 61 -140.5 165.5 q-46 104.5 -46 235.5 q0 131 50.5 236 q50.5 105 149.5 166.5 q99 61.5 239 61.5 ZM451 1220 q-26 0 -47 -4 q-25 -35 -38.5 -79.5 q-13.5 -44.5 -13.5 -90.5 q0 -50 14 -100.5 q14 -50.5 38 -93.5 q15 -11 41.5 -17 q26.5 -6 58.5 -6 q30 0 60 6 q23 39 35.5 85.5 q12.5 46.5 12.5 94.5 q0 51 -14 100 q-14 49 -38 87 q-59 18 -109 18 Z" /><glyph glyph-name="asciicircum" unicode="^" d="M268 332 q-37 3 -79 23.5 q-42 20.5 -76.5 49 q-34.5 28.5 -50.5 55.5 q20 62 104 276.5 q84 214.5 167.5 412 q83.5 197.5 109.5 240.5 q28 24 116.5 42 q88.5 18 166.5 18 q36 0 56 -4 l362 -975 q-11 -27 -45.5 -57.5 q-34.5 -30.5 -77.5 -53.5 q-43 -23 -79 -27 l-367 685 l-307 -685 Z" /><glyph glyph-name="dagger" unicode="&#x2020;" d="M945 1227 q7 -28 7 -59 q0 -52 -19 -107 q-19 -55 -56 -127 l-213 0 l-15 -1163 q-59 -62 -149 -62 q-54 0 -103 23 l-54 1201 l-282 0 q-3 30 -3 55 q0 50 13 84 q13 34 46 90 l240 19 l-60 326 q31 49 110 78 q79 29 157 29 q88 0 125 -36 l-39 -374 l295 23 Z" /><glyph glyph-name="daggerdbl" unicode="&#x2021;" d="M945 690 q7 -28 7 -59 q0 -52 -19 -107 q-19 -55 -56 -127 l-220 0 l-8 -626 q-59 -62 -149 -62 q-54 0 -103 23 l-30 664 l-306 0 q-3 30 -3 55 q0 50 13 84 q13 34 46 90 l239 19 l-13 289 l-282 0 q-3 30 -3 55 q0 50 13 84 q13 34 46 90 l240 19 l-60 326 q31 49 110 78 q79 29 157 29 q88 0 125 -36 l-39 -374 l295 23 q7 -28 7 -59 q0 -52 -19 -107 q-19 -55 -56 -127 l-213 0 l-4 -266 l285 22 Z" /><glyph glyph-name="uni0326" unicode="&#x326;" d="M-287 -537 q70 61 172.5 177.5 q102.5 116.5 137.5 181.5 q-28 47 -115 69 q-87 22 -188 22 q-50 0 -81 -4 l-68 -389 l142 -57 Z" /><glyph glyph-name="acute" unicode="´" d="M75 1402 q17 -47 45.5 -90.5 q28.5 -43.5 53.5 -64.5 q101 20 229.5 80.5 q128.5 60.5 194.5 118.5 q0 56 -29.5 114.5 q-29.5 58.5 -78.5 105 q-49 46.5 -107 66.5 l-53 -63 q-82 -97 -133.5 -152.5 q-51.5 -55.5 -121.5 -114.5 Z" /><glyph glyph-name="breve" unicode="&#x2d8;" d="M399 1280 q82 0 162.5 43.5 q80.5 43.5 140.5 115.5 q60 72 81 153 l-110 94 q-86 -87 -127.5 -115.5 q-41.5 -28.5 -54.5 -28.5 q-57 0 -119 35.5 q-62 35.5 -106 127.5 q-62 -10 -126.5 -55.5 q-64.5 -45.5 -108.5 -116.5 q16 -75 72 -132.5 q56 -57.5 135 -89 q79 -31.5 161 -31.5 Z" /><glyph glyph-name="caron" unicode="&#x2c7;" d="M559 1275 q-32 -6 -86 -6 q-73 0 -123 10 l-251 195 q2 36 46.5 90 q44.5 54 103.5 93 q59 39 102 36 l145 -198 q73 90 112.5 130.5 q39.5 40.5 105.5 85.5 q36 -16 74.5 -55.5 q38.5 -39.5 56.5 -76.5 l-286 -304 Z" /><glyph glyph-name="cedilla" unicode="¸" d="M544 -145 q-22 -86 -95.5 -157.5 q-73.5 -71.5 -167.5 -103.5 q-18 -2 -30 -2 q-49 0 -99 19 q-50 19 -88.5 45 q-38.5 26 -55.5 48 q-1 7 -1 21 q0 34 7 74 q7 40 16 71 q62 -15 135.5 -27 q73.5 -12 117.5 -12 l-137 304 l220 -1 l178 -279 Z" /><glyph glyph-name="circumflex" unicode="&#x2c6;" d="M215 1246 q-48 21 -84 53 q-36 32 -57 69 q52 53 90 107.5 q38 54.5 89 136.5 l21 35 q29 25 103 42.5 q74 17.5 143 17.5 q33 0 53 -4 l231 -312 q-17 -42 -57.5 -87.5 q-40.5 -45.5 -85.5 -57.5 q-75 41 -133.5 82.5 q-58.5 41.5 -131.5 106.5 q-48 -68 -85.5 -107.5 q-37.5 -39.5 -95.5 -81.5 Z" /><glyph glyph-name="dieresis" unicode="¨" d="M90 1392 q9 -31 42.5 -63.5 q33.5 -32.5 80.5 -55.5 q47 -23 94 -26 q62 27 117.5 87 q55.5 60 85.5 130 q-25 116 -113.5 166.5 q-88.5 50.5 -197.5 50.5 q-15 -50 -32 -95 q-17 -45 -29.5 -76.5 q-12.5 -31.5 -18.5 -45.5 l-29 -72 ZM558 1392 q9 -31 42.5 -63.5 q33.5 -32.5 80.5 -55.5 q47 -23 94 -26 q62 27 117.5 87 q55.5 60 85.5 130 q-25 116 -113.5 166.5 q-88.5 50.5 -197.5 50.5 q-15 -50 -32 -95 q-17 -45 -29.5 -76.5 q-12.5 -31.5 -18.5 -45.5 l-29 -72 Z" /><glyph glyph-name="dotaccent" unicode="&#x2d9;" d="M20 1392 q9 -31 42.5 -63.5 q33.5 -32.5 80.5 -55.5 q47 -23 94 -26 q67 29 134 90 q67 61 95 127 q-17 79 -71.5 127.5 q-54.5 48.5 -125 69 q-70.5 20.5 -140.5 20.5 q-15 -50 -32 -95 q-17 -45 -29.5 -76.5 q-12.5 -31.5 -18.5 -45.5 l-29 -72 Z" /><glyph glyph-name="grave" unicode="`" d="M75 1446 q66 -58 194.5 -118.5 q128.5 -60.5 229.5 -80.5 q25 21 53.5 64.5 q28.5 43.5 45.5 90.5 q-70 59 -121.5 114.5 q-51.5 55.5 -133.5 152.5 l-53 63 q-58 -20 -107 -66.5 q-49 -46.5 -78.5 -105 q-29.5 -58.5 -29.5 -114.5 Z" /><glyph glyph-name="hungarumlaut" unicode="&#x2dd;" d="M20 1334 q18 -32 63.5 -64 q45.5 -32 81.5 -39 q41 18 102.5 81 q61.5 63 115.5 141 q54 78 74 135 q-58 81 -125.5 108.5 q-67.5 27.5 -149.5 27.5 q-8 0 -17.5 -0.5 q-9.5 -0.5 -27.5 -0.5 q-17 -79 -49 -185.5 q-32 -106.5 -68 -203.5 ZM465 1338 q23 -33 66.5 -65 q43.5 -32 91.5 -42 q41 18 101.5 79.5 q60.5 61.5 114 139 q53.5 77.5 75.5 138.5 q-56 75 -140 105 q-84 30 -157 30 q-3 0 -7.5 -0.5 q-4.5 -0.5 -24.5 -0.5 q-43 -193 -120 -384 Z" /><glyph glyph-name="macron" unicode="¯" d="M720 1608 q8 -31 8 -75 q0 -49 -12 -99.5 q-12 -50.5 -36 -96.5 q-93 -7 -293 -7 q-178 0 -364 7 q-3 26 -3 52 q0 58 13 111.5 q13 53.5 36 93.5 l651 14 Z" /><glyph glyph-name="ogonek" unicode="&#x2db;" d="M490 -116 l47 -127 q-51 -100 -113.5 -147.5 q-62.5 -47.5 -148.5 -47.5 q-48 0 -106.5 33.5 q-58.5 33.5 -99.5 83.5 q-41 50 -41 96 q0 73 65.5 138 q65.5 65 165.5 133 l189 70 q-35 -55 -87 -143.5 q-52 -88.5 -81 -142.5 l14 -13 l196 67 Z" /><glyph glyph-name="ring" unicode="&#x2da;" d="M385 1236 q-48 -8 -87 -8 q-85 0 -148 29.5 q-63 29.5 -97 85 q-34 55.5 -34 130.5 q0 68 35.5 119.5 q35.5 51.5 88 82 q52.5 30.5 102.5 39.5 q42 7 88 7 q84 0 147 -29.5 q63 -29.5 97 -84.5 q34 -55 34 -129 q0 -68 -36 -119.5 q-36 -51.5 -88 -82.5 q-52 -31 -102 -40 ZM296 1525 q-32 0 -54 -5 q-7 -24 -7 -44 q0 -31 12 -48 q33 -18 79 -18 q32 0 61 9 q6 28 6 45 q0 26 -9 42 q-24 19 -88 19 Z" /><glyph glyph-name="tilde" unicode="&#x2dc;" d="M261 1396 q61 -47 154 -93.5 q93 -46.5 146 -46.5 q66 0 128.5 51.5 q62.5 51.5 106.5 124.5 q44 73 57 132 l-99 92 l-142 -125 q-21 9 -51.5 27 q-30.5 18 -37.5 22 q-73 44 -122.5 67.5 q-49.5 23.5 -88.5 23.5 q-66 0 -131 -53 q-65 -53 -111 -128 q-46 -75 -59 -133 l99 -92 l151 131 Z" /><glyph glyph-name="DC1" unicode="" d="" /><glyph glyph-name="DC2" unicode="" d="" /><glyph glyph-name="DC3" unicode="" d="" /><glyph glyph-name="DC4" unicode="" d="" /><glyph glyph-name="DLE" unicode="" d="" /><glyph glyph-name="HT" unicode="" d="" /><glyph glyph-name="LF" unicode="" d="" /><glyph glyph-name="RS" unicode="" d="" /><glyph glyph-name="uni0002" unicode="" d="" /><glyph glyph-name="uni0001" unicode="" d="" /><glyph glyph-name="uni0003" unicode="" d="" /><glyph glyph-name="uni0004" unicode="" d="" /><glyph glyph-name="uni0006" unicode="" d="" /><glyph glyph-name="uni0005" unicode="" d="" /><glyph glyph-name="uni0007" unicode="" d="" /><glyph glyph-name="uni0008" unicode="" d="" /><glyph glyph-name="uni0016" unicode="" d="" /><glyph glyph-name="uni0015" unicode="" d="" /><glyph glyph-name="uni0018" unicode="" d="" /><glyph glyph-name="uni0017" unicode="" d="" /><glyph glyph-name="uni0019" unicode="" d="" /><glyph glyph-name="US" unicode="" d="" /></font>
</defs>
</svg>
