<?xml version="1.0" standalone="no"?><!DOCTYPE svg PUBLIC "-//W3C//DTD SVG 1.1//EN" "http://www.w3.org/Graphics/SVG/1.1/DTD/svg11.dtd" ><svg xmlns="http://www.w3.org/2000/svg"><metadata></metadata><defs><font id="FontForge 2.0 : Nosifer : 19-12-2011" horiz-adv-x="3344"><font-face font-family="Nosifer" font-weight="400" font-stretch="normal" units-per-em="2048" panose-1="2 0 0 0 0 0 0 0 0 0" ascent="2236" descent="-1328" x-height="0" bbox="-209 -1328 3253 2236" underline-thickness="102" underline-position="-154" unicode-range="U+000d-f6c3" /><missing-glyph horiz-adv-x="748" d="M68 0 l0 1365 l544 0 l0 -1365 l-544 0 ZM136 68 l408 0 l0 1229 l-408 0 l0 -1229 Z" /><glyph glyph-name=".null" unicode="" d="" /><glyph glyph-name="CR" unicode="" d="" /><glyph glyph-name="space" unicode=" " d="" /><glyph glyph-name="exclam" unicode="!" d="M381 500 l-40 0 q-60 0 -99 -39 l-21 21 q49 49 39 98 l-129 672 q0 3 -2.5 15.5 q-2.5 12.5 -4 21.5 q-1.5 9 -3 12 q-1.5 3 -3.5 10 q-2 7 -4.5 11 q-2.5 4 -5.5 10 q-4 8 -16 20 l21 20 q39 -39 99 -39 l291 0 q60 0 99 39 l21 -20 q-12 -12 -15.5 -19 q-3.5 -7 -6 -11 q-2.5 -4 -4.5 -11 q-2 -7 -3.5 -10 q-1.5 -3 -3 -12 q-1.5 -9 -2.5 -11 q-4 -23 -4 -26 l-122 -672 q-9 -50 39 -98 l-20 -21 q-39 39 -100 39 ZM429 0 l-143 0 q-88 0 -105 7 q-17 7 -17 51 l0 234 q0 44 16.5 50.5 q16.5 6.5 105.5 6.5 l143 0 q89 0 106 -6.5 q17 -6.5 17 -50.5 l0 -234 q0 -43 -18 -50.5 q-18 -7.5 -105 -7.5 Z" /><glyph glyph-name="quotedbl" unicode="&quot;" d="M395 1346 l-34 -480 q-2 -26 -30 -40.5 q-28 -14.5 -65.5 -14.5 q-37.5 0 -66 15 q-28.5 15 -30.5 41 l-34 479 q0 16 6 26 q17 31 135.5 31 q118.5 0 118.5 -57 ZM800 1346 l-35 -480 q-2 -26 -30 -40.5 q-28 -14.5 -65.5 -14.5 q-37.5 0 -66 15 q-28.5 15 -30.5 41 l-34 479 q0 16 6 26 q17 31 136 31 q119 0 119 -57 Z" /><glyph glyph-name="numbersign" unicode="#" d="M1389 247 l-127 0 l-40 -158 q-25 -96 -31 -171 l-355 0 q35 58 73 171 l40 158 l-391 0 l-42 -158 q-24 -91 -30 -171 l-356 0 q35 58 73 171 l41 158 l-25 0 q-58 0 -128 -8 l0 332 q52 -13 171 -13 l62 0 l70 269 l-14 0 q-76 0 -128 -6 l0 331 q56 -14 171 -14 l51 0 l28 109 q29 132 30 166 l355 0 q-34 -57 -71 -166 l-29 -109 l393 0 l27 109 q29 132 30 166 l356 0 q-36 -61 -72 -166 l-28 -109 l15 0 q111 0 167 14 l0 -331 q-52 6 -125 6 l-137 0 l-70 -269 l4 0 q114 0 166 13 l0 -332 q-70 8 -124 8 ZM707 827 l-69 -269 l391 0 l70 269 l-392 0 Z" /><glyph glyph-name="dollar" unicode="$" d="M489 419 q74 0 95 47 l41 -18 q-24 -55 32 -104 q33 -26 107 -48 l26 -8 q-1 50 -1 79 l0 187 q-27 4 -79 10.5 q-52 6.5 -87.5 11 q-35.5 4.5 -88 13.5 q-52.5 9 -90 18 q-37.5 9 -84 24.5 q-46.5 15.5 -78.5 33 q-32 17.5 -65 43 q-33 25.5 -53 55.5 q-45 67 -45 144.5 q0 77.5 21.5 133.5 q21.5 56 56 95 q34.5 39 86.5 69.5 q52 30.5 105 49 q53 18.5 118 31.5 q104 20 187.5 24.5 q83.5 4.5 99.5 3.5 l0 55 q0 37 -35 72 l13 13 q36 -36 73 -36 l131 0 q37 0 73 36 l12 -14 q-35 -35 -35 -73 l0 -57 l52 0 q229 -21 353 -78 q125 -57 180 -137 q32 -48 47 -107.5 q15 -59.5 61 -94.5 l-16 -21 q-45 35 -107 35 l-336 0 q-32 0 -49.5 -9 q-17.5 -9 -28.5 -36 l-34 16 q25 61 -14 108 q-39 47 -102 47 l0 -214 q454 -8 619 -193 q88 -99 88 -226 q0 -200 -200 -308 q-202 -108 -520 -98 q4 -78 4 -87 l0 -1 q0 -59 38 -97 l-19 -21 q-39 39 -98 39 l-76 0 q-60 0 -99 -39 l-20 21 q39 39 39 97 l0 1 l-2 54 q0 15 2 33 q-287 10 -468 103 q-181 93 -217 242 q-16 63 -58 96 l15 19 q45 -35 107 -35 l323 0 ZM1186 417 q0 98 -164 115 l0 -171 q0 -49 -1 -70 q27 -2 51 5 q24 7 30 8 q84 29 84 113 ZM791 1017 q-96 0 -131 -47 q-16 -21 -16 -49 q0 -28 16.5 -45.5 q16.5 -17.5 35.5 -23.5 q19 -6 50 -13.5 q31 -7.5 45 -13.5 l0 192 Z" /><glyph glyph-name="percent" unicode="%" d="M80 979 q0 305 304 377 q82 19 171.5 19 q89.5 0 157.5 -11.5 q68 -11.5 131.5 -40 q63.5 -28.5 108.5 -72.5 q98 -96 98 -272 q0 -404 -494 -404 q-214 0 -345.5 103.5 q-131.5 103.5 -131.5 300.5 ZM1174 -1 l-355 0 q52 71 95 171 l432 996 q43 100 51 166 l356 0 q-55 -75 -94 -166 l-431 -996 q-44 -103 -54 -171 ZM395 978 q0 -207 170.5 -207 q170.5 0 170.5 207 q0 95 -44 146 q-44 51 -126.5 51 q-82.5 0 -126.5 -51 q-44 -51 -44 -146 ZM1692 674 q132 83 335 83 q368 0 459 -239 q26 -69 26 -158 q0 -404 -494 -404 q-214 0 -345.5 103.5 q-131.5 103.5 -131.5 312 q0 208.5 151 302.5 ZM1857 360 q0 -208 170 -208 q170 0 170 208 q0 95 -43.5 145.5 q-43.5 50.5 -126.5 50.5 q-83 0 -126.5 -50.5 q-43.5 -50.5 -43.5 -145.5 Z" /><glyph glyph-name="ampersand" unicode="&amp;" d="M561 805 q-130 48 -130 217 q0 151 153 232 q145 76 400 76 q264 0 412 -113 q109 -84 109 -223 q0 -101 -73 -168.5 q-73 -67.5 -200 -115.5 q-54 -21 -109 -7 l-6 -21 q57 -14 96 -56 q10 -11 29 -32.5 q19 -21.5 27 -30.5 q42 -43 36 -98 l31 -3 q5 54 55 89 q92 64 148 111.5 q56 47.5 61 102.5 l28 -2 q-5 -53 35 -101 l65 -75 q40 -46 94 -51 l-2 -29 q-55 5 -108.5 -40.5 q-53.5 -45.5 -148.5 -117.5 q-49 -35 -104 -30 l-2 -27 q54 -5 98 -49 l175 -185 q45 -45 96 -67 l-6 -14 q-53 23 -115 23 l-400 0 q-29 0 -45 -9 q-16 -9 -28 -35 l-29 14 q11 28 8 44 q-3 16 -28 46 q-25 30 -16 81 l-27 6 q-10 -51 -59 -75 q-205 -101 -487 -101 q-146 0 -283 63 q-153 70 -215 196 q-34 69 -34 152 q0 150 108 253.5 q108 103.5 277 151.5 q53 16 107 -4 l7 22 ZM581.5 337.5 q38.5 -46.5 93 -65 q54.5 -18.5 98.5 -18.5 q44 0 115.5 16 q71.5 16 114.5 3 l5 22 q-57 18 -97 63 l-176 198 q-39 43 -31 96 l-31 5 q-7 -52 -57 -83 q-73 -42 -73 -116 q0 -74 38.5 -120.5 ZM1150 984 q0 45 -37.5 71.5 q-37.5 26.5 -86 26.5 q-48.5 0 -83 -25.5 q-34.5 -25.5 -34.5 -69.5 q0 -15 31 -65.5 q31 -50.5 16 -100.5 l31 -9 q16 53 63 74 q100 46 100 98 Z" /><glyph glyph-name="quotesingle" unicode="&#39;" d="M395 1346 l-34 -480 q-2 -26 -30 -40.5 q-28 -14.5 -65.5 -14.5 q-37.5 0 -66 15 q-28.5 15 -30.5 41 l-34 479 q0 16 6 26 q17 31 135.5 31 q118.5 0 118.5 -57 Z" /><glyph glyph-name="parenleft" unicode="(" d="M702 1010 q-27 -55 -38 -132.5 q-11 -77.5 -11 -177 q0 -99.5 9 -169 q9 -69.5 25.5 -122 q16.5 -52.5 47 -88.5 q30.5 -36 66.5 -59 q36 -23 91 -36 q99 -22 255 -22 l2 -342 q-521 0 -678 74 q-70 33 -147.5 93 q-77.5 60 -115.5 148 q-90 205 -90 516 q0 242 55 429 q39 132 162 248 q72 69 259 118 q114 29 271.5 33 q157.5 4 283.5 4 l-2 -342 q-187 0 -267 -25.5 q-80 -25.5 -115.5 -59 q-35.5 -33.5 -62.5 -88.5 Z" /><glyph glyph-name="parenright" unicode=")" d="M577 659.5 q0 140.5 -11 218 q-11 77.5 -38 132.5 q-27 55 -62.5 88.5 q-35.5 33.5 -95.5 52.5 q-100 32 -287 32 l-1 342 q522 0 678 -75 q199 -94 264 -240 q90 -205 90 -517 q0 -313 -90 -516 q-39 -88 -116 -148 q-77 -60 -147.5 -93 q-70.5 -33 -194.5 -50 q-185 -24 -484 -24 l1 342 q255 0 346 58 q84 54 113 148 q35 109 35 249.5 Z" /><glyph glyph-name="asterisk" unicode="*" d="M495 672 l-177 -125 q-83 -65 -109 -94 l-117 162 q63 36 121 76 l186 132 l-186 132 q-20 14 -58.5 35 q-38.5 21 -63.5 38 l118 165 q34 -39 147.5 -121.5 q113.5 -82.5 138.5 -99.5 l0 218 q0 80 -15 143 l202 0 q-10 -107 -10 -142 l0 -221 q29 21 88.5 64 q59.5 43 109.5 79.5 q50 36.5 87 78.5 l116 -163 q-68 -39 -120 -76 l-186 -131 l186 -133 q32 -23 122 -74 l-118 -165 q-49 51 -98.5 88 q-49.5 37 -64 48 q-14.5 11 -66.5 46.5 q-52 35.5 -56 38.5 l0 -219 q0 -32 10 -142 l-202 0 q15 63 15 143 l0 219 Z" /><glyph glyph-name="plus" unicode="+" d="M697 1029 l0 -158 l110 0 q115 0 167 13 l0 -331 q-53 6 -125 6 l-152 0 l0 -147 q0 -67 7 -128 l-332 0 q14 56 14 170 l0 105 l-153 0 q-77 0 -129 -6 l0 331 q52 -13 171 -13 l111 0 l0 115 q0 111 -14 167 l332 0 q-7 -61 -7 -124 Z" /><glyph glyph-name="comma" unicode="," d="M591 271 l-1 -190 q0 -179 -146 -383 l-151 12 q59 120 80 248 l7 42 l-161 0 q-61 0 -71 10 q-10 10 -10 71 l0 122 q0 5 0 47.5 q0 42.5 7.5 58.5 q7.5 16 47.5 16 l276 0 q7 0 49 0 q42 0 57.5 -7.5 q15.5 -7.5 15.5 -46.5 Z" /><glyph glyph-name="hyphen" unicode="-" d="M858 559 l-568 0 q-76 0 -129 -6 l0 331 q52 -13 171 -13 l483 0 q114 0 166 13 l0 -331 q-52 6 -123 6 Z" /><glyph glyph-name="period" unicode="." d="M409 0 l-144 0 q-88 0 -105 7 q-17 7 -17 51 l0 234 q0 44 16.5 50.5 q16.5 6.5 105.5 6.5 l144 0 q89 0 105.5 -6.5 q16.5 -6.5 16.5 -50.5 l0 -234 q0 -44 -17 -51 q-17 -7 -105 -7 Z" /><glyph glyph-name="slash" unicode="/" d="M373 -1 l-355 0 q32 54 72 171 l299 996 q28 127 29 166 l356 0 q-36 -61 -72 -166 l-298 -996 q-28 -112 -31 -171 Z" /><glyph glyph-name="zero" unicode="0" d="M979 -162 l6 96 q0 25 -23.5 38.5 q-23.5 13.5 -51.5 13.5 q-28 0 -50.5 -15 q-22.5 -15 -22.5 -43 l0 -230 q0 -50 21 -147 q21 -97 21 -138.5 q0 -41.5 -18 -68.5 q-18 -27 -49.5 -27 q-31.5 0 -47 28 q-15.5 28 -15.5 73 q0 45 22.5 156 q22.5 111 22.5 172 q0 247 -91 247 q-183 0 -323 89.5 q-140 89.5 -214 244 q-74 154.5 -74 331 q0 176.5 47.5 299 q47.5 122.5 126.5 200 q79 77.5 191 128 q112 50.5 232 70.5 q120 20 259 20 q139 0 259 -20 q120 -20 232 -70 q112 -50 191 -128 q79 -78 126 -200.5 q47 -122.5 47 -279.5 q0 -320 -167 -495.5 q-167 -175.5 -470 -215.5 q-3 -5 -3 -22 l4 -55 q0 -51 -28 -51 q-28 0 -28 49 l4 56 q0 30 -44 30 q-4 -9 -4 -34 l6 -97 q0 -30 -11 -58 q-11 -28 -37 -28 q-46 0 -46 82 ZM649 676 q0 -366 299.5 -366 q299.5 0 299.5 366 q0 168 -77 257 q-77 89 -222.5 89 q-145.5 0 -222.5 -89 q-77 -89 -77 -257 Z" /><glyph glyph-name="one" unicode="1" d="M191 1096 q135 56 233 129 q28 20 37 38 q9 18 0 46 l39 11 q9 -27 26.5 -35.5 q17.5 -8.5 52.5 -8.5 l164 0 q61 0 100 39 l21 -21 q-40 -40 -40 -99 l0 -1114 q0 -60 40 -100 l-21 -20 q-39 39 -100 39 l-317 0 q-61 0 -100 -39 l-20 20 q39 39 39 100 l0 684 q0 8 -1 30 q-1 22 0 33 q1 35 16 56 l18 -14 q-15 -21 -37.5 -28.5 q-22.5 -7.5 -42.5 -13 q-20 -5.5 -28.5 -8 q-8.5 -2.5 -32.5 -9 q-24 -6.5 -33 -9 q-9 -2.5 -28 -9.5 q-19 -7 -30 -13 q-29 -17 -45 -38 l-21 17 q36 44 36 105 l0 119 q0 61 -43 90 l18 28 q43 -28 100 -5 Z" /><glyph glyph-name="two" unicode="2" d="M723 775 q-27 41 -72 41 l-426 0 q-61 0 -106 -35 l-16 20 q46 36 62 106 q16 70 60 135 q44 65 107 108.5 q63 43.5 136.5 75 q73.5 31.5 161.5 48.5 q164 32 291 32 q127 0 192 -3 q65 -3 149.5 -14.5 q84.5 -11.5 152.5 -30 q68 -18.5 137.5 -53 q69.5 -34.5 115.5 -80.5 q106 -104 106 -270 q0 -122 -86 -215 q-56 -61 -208 -119 q-93 -36 -193 -50 q-189 -28 -327.5 -47 q-138.5 -19 -233 -53 q-94.5 -34 -146.5 -42 l2 -9 q69 12 142 12 q543 0 953 2 q61 0 100 39 l19 -20 q-38 -38 -38 -100 l0 -172 q0 -62 38 -100 l-19 -20 q-39 39 -100 39 l-1477 0 q-63 0 -101 -37 l-19 20 q40 37 46 98 q34 440 486 600 q165 59 344 87 q145 24 189 45.5 q44 21.5 63 42 q19 20.5 19 45.5 q0 25 -23.5 43 q-23.5 18 -59.5 27 q-63 16 -146.5 16 q-83.5 0 -159 -29 q-75.5 -29 -98 -78 q-22.5 -49 4.5 -90 l-22 -15 Z" /><glyph glyph-name="three" unicode="3" d="M941 828 q205 0 205 68 q0 70 -156 85 q-32 3 -70.5 3 q-38.5 0 -90 -10.5 q-51.5 -10.5 -90 -36.5 q-38.5 -26 -30.5 -61 l-59 -14 q-6 28 -28 37.5 q-22 9.5 -71 9.5 l-319 0 q-62 0 -107 -35 l-16 20 q44 34 58 92.5 q14 58.5 47 104 q33 45.5 77.5 77 q44.5 31.5 105.5 54.5 q61 23 122 36.5 q61 13.5 137 21.5 q124 13 231 13 q107 0 167 -3.5 q60 -3.5 138.5 -13.5 q78.5 -10 148.5 -26 q70 -16 139.5 -43.5 q69.5 -27.5 119.5 -64.5 q113 -81 113 -213 q0 -132 -111 -210 q-39 -28 -94 -29 l0 -18 q54 3 95 -23 q144 -87 144 -267 q0 -214 -214 -318 q-204 -99 -568 -99 q-301 0 -446 34 q-176 41 -265 113 q-115 95 -142 246 q-10 59 -55 98 l17 20 q44 -36 106 -36 l373 0 q38 0 60 9.5 q22 9.5 34 36.5 l38 -19 q-11 -29 -4 -50 q7 -21 32 -49 q69 -78 235 -78 q64 0 123 16 q111 30 111 97 q0 112 -242 112 l-333 0 q-60 0 -100 -40 l-20 21 q39 39 39 100 l0 158 q0 54 -39 93 l19 19 q38 -38 93 -38 l334 0 q2 0 8 0 Z" /><glyph glyph-name="four" unicode="4" d="M828 1305 q19 -45 80 -45 l519 0 q59 0 99 40 l20 -21 q-38 -38 -38 -100 l0 -547 q0 -60 -40 -100 l21 -20 q39 39 100 39 l67 0 q61 0 100 39 l20 -20 q-39 -39 -39 -100 l0 -200 q0 -61 39 -100 l-20 -21 q-40 40 -100 40 l-76 0 q-60 0 -99 39 l-21 -21 q39 -39 39 -99 l0 -50 q0 -61 39 -100 l-20 -20 q-39 39 -100 39 l-306 0 q-60 0 -99 -39 l-21 20 q39 39 39 100 l0 50 q0 60 39 99 l-20 21 q-39 -39 -100 -39 l-767 2 q-61 0 -100 -39 l-20 21 q39 39 39 99 l2 178 q0 60 -45 79 l14 34 q30 -10 46.5 -4.5 q16.5 5.5 40.5 29.5 l610 614 q23 23 29 41.5 q6 18.5 -5 47.5 l34 14 ZM974 905 l-288 -296 q-45 -45 -97 -66 l6 -15 q57 23 115 23 l240 0 q61 0 100 -39 l20 20 q-39 39 -39 100 l0 251 q0 58 23 116 l-15 5 q-23 -57 -65 -99 Z" /><glyph glyph-name="five" unicode="5" d="M603 952 q62 -77 -20 -159 l12 -12 q39 39 77 46 q124 24 255.5 24 q131.5 0 189.5 -3 q58 -3 136 -14 q78 -11 144 -29.5 q66 -18.5 133 -52 q67 -33.5 114 -78.5 q105 -102 105 -263 q0 -236 -204 -355 q-198 -114 -558 -114 q-278 0 -443 38 q-178 41 -282 118 q-126 95 -157 249 q-12 62 -54 98 l17 19 q43 -38 104 -39 l315 -12 q41 -2 63.5 7 q22.5 9 33.5 36 l46 -18 q-10 -27 0 -48.5 q10 -21.5 49.5 -55 q39.5 -33.5 115 -51 q75.5 -17.5 131 -15 q55.5 2.5 93.5 10 q38 7.5 78 23.5 q90 36 90 116 q0 139 -313 139 q-83 0 -136.5 -14.5 q-53.5 -14.5 -69 -26.5 q-15.5 -12 -12.5 -40 l-51 -5 q-3 28 -21 36.5 q-18 8.5 -61 10.5 l-255 9 q-59 3 -103 -33 l-17 21 q42 36 50 96 l79 553 q8 61 -27 100 l24 20 q34 -40 95 -40 l1214 -1 q60 0 99 39 l21 -21 q-39 -39 -39 -99 l0 -154 q0 -60 39 -99 l-21 -21 q-39 39 -99 39 l-890 0 q-41 0 -74 39 l-16 -14 Z" /><glyph glyph-name="six" unicode="6" d="M835 -59 l12 -432 q0 -17 -11 -31 q-11 -14 -27 -14 q-16 0 -26 12 q-10 12 -10 28 q0 84 9.5 237.5 q9.5 153.5 11.5 233.5 q-388 46 -566 259 q-137 164 -137 427 q0 551 533 666 q176 38 403 38 q379 0 617 -139 q141 -83 185 -229 q15 -63 54 -94 l-16 -22 q-40 31 -100.5 31 q-60.5 0 -127 -4 q-66.5 -4 -151 -11.5 q-84.5 -7.5 -121.5 -10.5 q-37 -3 -57.5 -13.5 q-20.5 -10.5 -33.5 -36.5 l-33 17 q11 20 11 40 q0 62 -80.5 103 q-80.5 41 -211 41 q-130.5 0 -211.5 -74.5 q-81 -74.5 -103 -205.5 q416 28 428 28 l75 0 q514 0 649 -225 q42 -69 42 -156 q0 -87 -34 -156 q-34 -69 -89.5 -114.5 q-55.5 -45.5 -134.5 -78.5 q-140 -58 -333 -79 q0 -92 24 -274 q24 -182 24 -242 q0 -60 -14.5 -83 q-14.5 -23 -42.5 -23 q-28 0 -43 23 q-15 23 -15 75 q0 52 16.5 204 q16.5 152 16.5 197.5 q0 45.5 -2 58 q-2 12.5 -3.5 22 q-1.5 9.5 -8.5 16.5 q-7 7 -9.5 11.5 q-2.5 4.5 -14.5 7.5 q-12 3 -15.5 4.5 q-3.5 1.5 -21 2 q-17.5 0.5 -21.5 0.5 l-26 0 q-55 0 -89 -11.5 q-34 -11.5 -34 -25.5 q0 -46 12.5 -136.5 q12.5 -90.5 12.5 -146 q0 -55.5 -38.5 -55.5 q-38.5 0 -38.5 54.5 q0 54.5 14 146 q14 91.5 14 131 q0 39.5 -26 39.5 q-87 0 -87 -31 ZM657 530 q61 -219 340 -219 q279 0 279 110 q0 126 -213 126 q-25 0 -406 -17 Z" /><glyph glyph-name="seven" unicode="7" d="M79 1073 l5 128 q0 109 -44 152 l20 20 q40 -39 100 -39 l989 0 q61 0 100 39 l19 -20 q-38 -38 -38 -100 l-5 -128 q0 -13 4 -49 q8 -75 -13 -123 l-453 -872 q-4 -114 9 -323 q13 -209 13 -266 q0 -106 -40 -106 q-23 0 -32.5 31 q-9.5 31 -9.5 81 q0 50 14 188.5 q14 138.5 14 208.5 q0 109 -44 109 q-21 0 -33 -25 q-12 -25 -12 -49 l23 -209 q0 -72 -41 -72 q-21 0 -30.5 21 q-9.5 21 -9.5 49 q0 28 18 91.5 q18 63.5 18 103.5 q0 40 -35 61 q-35 21 -101 21 q-66 0 -143.5 -52 q-77.5 -52 -77.5 -135 q0 -31 13 -93 q13 -62 13 -103.5 q0 -41.5 -37 -41.5 q-42 0 -42 44.5 q0 44.5 16 112.5 q16 68 16 102 l19 260 q60 120 200 396.5 q140 276.5 214 424.5 q33 62 90 100 l-9 20 q-66 -45 -169 -45 l-378 13 q-103 0 -149 -46 l-20 21 q39 39 39 99 ZM616 -502 q24 -110 24 -191 q0 -35 -25 -35 q4 -8 2 -7 q-12 4 -26 43 q0 76 25 190 Z" /><glyph glyph-name="eight" unicode="8" d="M1051 -52 l24 -209 q0 -25 -10 -48 q-10 -23 -31 -23 q-41 0 -41 65 q0 33 18 96.5 q18 63.5 18 103.5 q0 40 -34.5 61 q-34.5 21 -86.5 21 q-52 0 -109 -21 q-57 -21 -100 -66 q-43 -45 -43 -88.5 q0 -43.5 13.5 -105.5 q13.5 -62 13.5 -103 q0 -41 -40 -41 q-40 0 -40 44 q0 44 16 112 q16 68 16 103 l16 122 q-405 52 -521 283 q-32 65 -32 135 q0 175 185 280 q-153 95 -153 267 q0 222 224 332 q219 107 613 107 q416 0 604 -188 q106 -106 106 -252 q0 -146 -138 -247 q203 -97 203 -290 q0 -346 -567 -420 q0 -83 13.5 -249.5 q13.5 -166.5 13.5 -220.5 q0 -104 -40 -104 q-23 0 -32.5 31 q-9.5 31 -9.5 61 l20 418 q0 108 -43 108 q-22 0 -34 -25 q-12 -25 -12 -49 ZM1233 417 q0 126 -261 126 q-227 0 -399 38 q-3 -16 -3 -46 q0 -229 331.5 -229 q331.5 0 331.5 111 ZM925 1028 q-285 0 -285 -110 q0 -65 62 -99 q34 -18 74 -22 q40 -4 50 -5 q30 -3 59 -4 q29 -1 103 -5 q164 -9 239 -22 q2 14 2 58.5 q0 44.5 -25 89.5 q-25 45 -68 70 q-86 49 -211 49 ZM669 -695 q0 -35 -24.5 -35 q-24.5 0 -24.5 37 q0 67 25 189 q24 -120 24 -191 Z" /><glyph glyph-name="nine" unicode="9" d="M1304 582 q-416 -28 -428 -28 l-75 0 q-392 0 -577 140 q-108 82 -114 224 l-1 18 q0 222 225 332 q218 107 612 107 q604 0 816 -321 q99 -150 99 -375 q0 -306 -164.5 -483 q-164.5 -177 -469.5 -220 l19 -475 q0 -16 -9.5 -27.5 q-9.5 -11.5 -25.5 -11.5 q-16 0 -27 13.5 q-11 13.5 -11 30.5 l11 433 q0 31 -86 31 q-26 0 -26 -39.5 q0 -39.5 13.5 -130.5 q13.5 -91 13.5 -146 q0 -55 -38 -55 q-38 0 -38 65 l24 272 q0 21 -44 29 q-44 8 -63 8 q-19 0 -36.5 0 q-17.5 0 -30.5 -0.5 q-13 -0.5 -30 -5 q-17 -4.5 -24 -13.5 q-17 -24 -17 -86 q0 -62 16.5 -213 q16.5 -151 16.5 -203.5 q0 -52.5 -15 -76.5 q-15 -24 -43 -24 q-28 0 -42.5 24 q-14.5 24 -14.5 84 q0 60 24.5 241 q24.5 181 24.5 273 q-319 38 -503 170 q-111 79 -143 199 q-14 62 -55 94 l16 21 q39 -30 100.5 -30 q61.5 0 124 3.5 q62.5 3.5 157.5 12 q95 8.5 125 11.5 q64 5 85 49 l32 -17 q-11 -20 -11 -40 q0 -62 81 -103 q81 -41 211.5 -41 q130.5 0 211.5 74.5 q81 74.5 103 205.5 ZM676 918 q0 -127 212 -127 q4 0 407 18 q-61 219 -340 219 q-279 0 -279 -110 Z" /><glyph glyph-name="colon" unicode=":" d="M502 677 l-210 0 q-89 0 -105.5 6.5 q-16.5 6.5 -16.5 50.5 l0 234 q0 44 17 51 q17 7 105 7 l210 0 q88 0 105 -7 q17 -7 17 -51 l0 -234 q0 -44 -16.5 -50.5 q-16.5 -6.5 -105.5 -6.5 ZM502 1 l-210 0 q-89 0 -105.5 6.5 q-16.5 6.5 -16.5 50.5 l0 234 q0 44 17 51 q17 7 105 7 l210 0 q88 0 105 -7 q17 -7 17 -51 l0 -234 q0 -44 -16.5 -50.5 q-16.5 -6.5 -105.5 -6.5 Z" /><glyph glyph-name="semicolon" unicode=";" d="M614 81 q0 -176 -148 -383 l-150 12 q59 120 80 248 l7 42 l-161 0 q-61 0 -71 10 q-10 10 -10 71 l0 122 q0 5 0 47.5 q0 42.5 7.5 58.5 q7.5 16 47.5 16 l276 0 q7 0 49.5 0 q42.5 0 58 -7.5 q15.5 -7.5 15.5 -46.5 l-1 -190 ZM493 677 l-209 0 q-7 0 -49 0 q-42 0 -57.5 7.5 q-15.5 7.5 -15.5 49.5 l0 234 q0 42 16 50 q16 8 58.5 8 q42.5 0 47.5 0 l209 0 q5 0 48 0 q43 0 59 -8 q16 -8 16 -50 l0 -234 q0 -42 -15.5 -49.5 q-15.5 -7.5 -58 -7.5 q-42.5 0 -49.5 0 Z" /><glyph glyph-name="less" unicode="&lt;" d="M100 487 q0 0 0 356 q0 20 30 39 l604 370 q38 22 59 60 l12 -7 q-20 -34 -20 -82 l1 -294 q0 -44 32 -62 l-13 -23 q-22 9 -38 9 q-16 0 -53 -19.5 q-37 -19.5 -76.5 -47 q-39.5 -27.5 -80.5 -55.5 q-100 -66 -165 -66 l0 -15 l5 0 q69 0 201 -95 q132 -95 176 -95 q11 0 31 10 l13 -23 q-32 -18 -32 -63 l-1 -276 q0 -46 20 -82 l-12 -7 q-21 38 -59 60 l-604 375 q-30 20 -30 33 Z" /><glyph glyph-name="equal" unicode="=" d="M860 774 l-568 0 q-93 0 -128 -6 l0 234 q52 -13 171 -13 l483 0 q115 0 167 13 l0 -234 q-53 6 -125 6 ZM860 370 l-568 0 q-93 0 -128 -6 l0 234 q52 -13 171 -13 l483 0 q115 0 167 13 l0 -234 q-53 6 -125 6 Z" /><glyph glyph-name="greater" unicode="&gt;" d="M867 491 q0 -15 -8.5 -21.5 q-8.5 -6.5 -22.5 -15.5 l-603 -375 q-36 -21 -58 -60 l-13 7 q21 38 21 82 l-2 276 q0 45 -32 63 l13 23 q20 -10 41 -10 q21 0 92.5 47.5 q71.5 47.5 149.5 95 q78 47.5 124 47.5 l5 0 l0 15 q-79 0 -205 94 q-126 94 -176 94 q-9 0 -31 -9 l-13 23 q32 18 32 62 l2 294 q0 46 -21 82 l13 7 q22 -39 58 -60 l603 -370 q31 -20 31 -39 l0 -352 Z" /><glyph glyph-name="question" unicode="?" d="M730 1452 q760 0 760 -451 q0 -259 -296 -353 q-75 -24 -155.5 -41 q-80.5 -17 -92.5 -20 q-12 -3 -36 -8 q-24 -5 -40.5 -9 q-16.5 -4 -43.5 -16 q-27 -12 -44 -26 q-42 -36 -41.5 -86 q0.5 -50 37.5 -88 l-21 -20 q-39 39 -98 39 l-298 0 q-62 0 -100 -37 l-19 20 q42 36 47 115 q5 79 38.5 154 q33.5 75 79.5 121 q46 46 113 80 q107 54 263 79 q87 20 119.5 51 q32.5 31 32.5 74 q0 43 -41.5 73 q-41.5 30 -118.5 30 q-111 0 -144 -83 q-8 -21 -8 -39 q0 -18 17 -43 l-22 -15 q-27 41 -73 41 l-426 0 q-61 0 -106 -35 l-15 20 q42 33 59.5 109 q17.5 76 66.5 144 q49 68 114 109 q65 41 150 67 q150 44 342 44 ZM583 -181 l-143 0 q-88 0 -105.5 7 q-17.5 7 -17.5 51 l0 234 q0 44 17 50.5 q17 6.5 106 6.5 l143 0 q89 0 105.5 -6.5 q16.5 -6.5 16.5 -50.5 l0 -234 q0 -44 -17 -51 q-17 -7 -105 -7 Z" /><glyph glyph-name="at" unicode="@" d="M1218 535 l-84 2 q-281 0 -281 -114 q0 -93 161 -93 q196 0 246 120 q25 59 69 88 l-12 23 q-40 -26 -99 -26 ZM2007 932 q54 -165 54 -318.5 q0 -153.5 -33 -241 q-33 -87.5 -88 -140.5 q-113 -106 -252.5 -106 q-139.5 0 -245.5 51 q-106 51 -155 144 l-16 2 q-13 -92 -121.5 -144.5 q-108.5 -52.5 -296.5 -52.5 q-213 0 -333 89 q-98 73 -98 210 q0 271 649 271 q125 0 168 -10 q43 -10 69 -29 l12 15 q-40 29 -60 83 q-14 36 -55.5 48 q-41.5 12 -179 12 q-137.5 0 -295.5 -41 q-48 -13 -65 -55 l-23 10 q6 19 6 39 q0 20 -10.5 37.5 q-10.5 17.5 -26 44 q-15.5 26.5 -23 38 q-7.5 11.5 -22.5 30.5 q-24 31 -60 46 l8 21 q31 -11 51.5 -11 q20.5 0 80 17 q59.5 17 194.5 33 q135 16 282.5 16 q147.5 0 242.5 -17 q305 -58 306 -308 l0 -185 q0 -137 17 -173.5 q17 -36.5 30 -36.5 q64 0 111 67 q47 67 47 205.5 q0 138.5 -43.5 273.5 q-43.5 135 -117.5 227 q-74 92 -173 157 q-191 123 -442 123 q-256 0 -464 -135 q-226 -148 -310 -394 q-46 -135 -46 -280 q0 -145 43.5 -264.5 q43.5 -119.5 120 -209 q76.5 -89.5 178.5 -154.5 q206 -132 465 -132 q309 0 557 190 l113 -147 q-303 -221 -671 -221 q-322 0 -572 163 q-267 173 -366 450 q-53 148 -53 311 q0 163 39.5 304 q39.5 141 110 249 q70.5 108 166 194.5 q95.5 86.5 207.5 141.5 q230 113 482 113 q308 0 546 -152 q262 -165 361 -468 Z" /><glyph glyph-name="A" unicode="a" d="M81 -64 l3 -159 q0 -48 -15 -72.5 q-15 -24.5 -36 -24.5 q-42 0 -42 81 q0 81 20 179.5 q20 98.5 35 135.5 l480 1181 q10 26 10 51 q0 25 -17 49 l28 18 q29 -43 90 -43 l460 0 q60 0 89 43 l29 -18 q-17 -24 -17 -46 q0 -22 12 -53 l494 -1183 q23 -56 71 -88 l-12 -19 q-49 32 -109 32 l-196 0 q2 -22 2 -31 q0 -33 -27 -33 q-12 0 -21.5 9.5 q-9.5 9.5 -9.5 27 q0 17.5 2 27.5 l-121 0 q-44 0 -57 -48 q-16 -59 -16 -135.5 q0 -76.5 10 -139.5 q10 -63 10 -86.5 q0 -23.5 -11.5 -38 q-11.5 -14.5 -28.5 -14.5 q-17 0 -29 14 q-12 14 -12 39 q0 25 12.5 97 q12.5 72 12.5 108 l0 281 q-10 27 -10 50 q0 23 18 49 l-26 19 q-30 -43 -90 -43 l-411 0 q-60 0 -90 42 l-26 -18 q19 -27 19 -50 q0 -23 -7 -49 l0 -1 q-9 -34 -9 -52 q0 -18 20 -47 l-26 -19 q-30 42 -90 42 l-362 0 q-3 -19 -3 -64 ZM758 429 l191 0 q60 0 108 -32 l13 19 q-47 32 -68 89 l-127 325 q-22 57 -23 116 l-13 0 q-2 -66 -20 -116 l-115 -324 q-21 -58 -67 -90 l13 -20 q47 33 108 33 ZM1407 -331 q0 69 26 173 q29 -120 29 -156 q0 -53 -27.5 -53 q-27.5 0 -27.5 36 Z" /><glyph glyph-name="B" unicode="b" d="M305 0 l22 -183 q0 -61 -42.5 -61 q-42.5 0 -42.5 60 q0 28 12 83 q12 55 12 97 q0 42 -24 42 q-19 0 -28 -29.5 q-9 -29.5 -9 -72 q0 -42.5 14.5 -163 q14.5 -120.5 14.5 -180 q0 -59.5 -45 -59.5 q-45 0 -45 57.5 q0 57.5 16 159 q16 101.5 16 152.5 l1 1348 q0 62 -39 100 l20 21 q42 -40 100 -40 l846 0 q15 0 53 1 q38 1 90 -1 q52 -2 106.5 -3.5 q54.5 -1.5 109 -10.5 q54.5 -9 104.5 -21.5 q50 -12.5 93 -36.5 q43 -24 75 -54 q69 -66 69 -168 q0 -102 -47 -177.5 q-47 -75.5 -132 -82.5 l2 -20 q59 5 110 -27.5 q51 -32.5 83 -86.5 q67 -114 67 -212 q0 -98 -28.5 -165 q-28.5 -67 -79.5 -111 q-51 -44 -113 -76 q-62 -32 -138 -48 q-145 -32 -288 -32 l-935 0 ZM652 519 q39 -39 39 -101 q0 -62 -39 -101 l20 -21 q40 40 100 40 l393 0 q7 0 30 -0.5 q23 -0.5 32.5 0 q9.5 0.5 29 2.5 q19.5 2 29 7.5 q9.5 5.5 20.5 14.5 q21 15 21 58 q0 43 -35 64 q-35 21 -80 21 l-440 -3 q-61 0 -100 39 l-20 -20 ZM849 844 l234 -10 q120 0 153 43 q16 21 16 48.5 q0 27.5 -22 43.5 q-37 26 -97 26 l-361 -1 q-55 0 -95 38 l-19 -20 q39 -39 39 -95 q0 -56 -39 -97 l19 -19 q44 43 172 43 ZM341.5 -671.5 q10.5 -40.5 15.5 -69 q5 -28.5 5 -66 q0 -37.5 -34 -37.5 q-34 0 -34 49 q0 50 15.5 108 q15.5 58 18.5 71 q3 -15 13.5 -55.5 Z" /><glyph glyph-name="C" unicode="c" d="M693 -499 l19 475 q-305 43 -469.5 220 q-164.5 177 -164.5 483 q0 326 214 501 q236 195 701 195 q745 0 833 -428 q12 -62 53 -95 l-17 -22 q-48 36 -104 31 l-385 -24 q-67 -5 -87 -49 l-33 16 q10 22 10 38 q0 52 -34.5 90.5 q-34.5 38.5 -87.5 57.5 q-103 37 -200 37 q-148 0 -230.5 -100.5 q-82.5 -100.5 -82.5 -261 q0 -160.5 93.5 -262 q93.5 -101.5 262.5 -101.5 q54 0 120.5 26.5 q66.5 26.5 118 76.5 q51.5 50 51.5 106 q0 16 -11 40 l33 17 q24 -45 77.5 -49 q53.5 -4 138.5 -11 q187 -17 260 -17 q73 0 115 31 l16 -21 q-37 -28 -55.5 -103.5 q-18.5 -75.5 -71.5 -145 q-53 -69.5 -119.5 -115 q-66.5 -45.5 -154.5 -79.5 q-151 -60 -331 -85 q0 -92 24 -273 q24 -181 24 -241 q0 -60 -14.5 -84 q-14.5 -24 -42.5 -24 q-28 0 -43 24 q-15 24 -15 76.5 q0 52.5 16.5 203.5 q16.5 151 16.5 202 q0 51 -5 69 q-5 18 -12 27.5 q-7 9.5 -24 14.5 q-39 10 -94 5 q-110 -9 -110 -37 l24 -272 q0 -65 -38 -65 q-38 0 -38 55 q0 55 13.5 146 q13.5 91 13.5 130.5 q0 39.5 -26 39.5 q-51 0 -68.5 -11 q-17.5 -11 -17.5 -20 l11 -433 q0 -17 -11 -30.5 q-11 -13.5 -27 -13.5 q-16 0 -25.5 11.5 q-9.5 11.5 -9.5 27.5 Z" /><glyph glyph-name="D" unicode="d" d="M688 -247 l21 142 q0 147 -314 147 q-54 0 -75 -25 q-21 -25 -21 -85 q0 -60 18 -166.5 q18 -106.5 18 -163 q0 -56.5 -45 -56.5 q-45 0 -45 59.5 q0 59.5 14 179.5 q14 120 14 163 q0 102 -37 102 q-24 0 -24 -57 l24 -166 q0 -59 -42.5 -59 q-42.5 0 -42.5 60 l23 184 l-1 166 l0 1073 q0 62 -39 100 l20 21 q41 -40 100 -40 l826 0 q598 0 742 -389 q40 -110 40 -234.5 q0 -124.5 -15.5 -214 q-15.5 -89.5 -39.5 -157 q-24 -67.5 -67.5 -119.5 q-43.5 -52 -87 -87.5 q-43.5 -35.5 -110.5 -60.5 q-67 -25 -124 -38.5 q-57 -13.5 -143 -20.5 q-135 -11 -317 -11 l-145 0 q-84 0 -84 -120 l16 -128 q0 -38 -26 -38 q-31 0 -31 39 ZM1261.5 441.5 q30.5 39.5 47.5 103 q17 63.5 17 153 q0 89.5 -30 149.5 q-30 60 -80 88 q-50 28 -111 41.5 q-61 13.5 -128 15 q-67 1.5 -125 2.5 q-142 2 -182 42 l-20 -20 q38 -37 38 -100 l0 -230 q0 -230 2 -344 l227 0 q171 0 242.5 30 q71.5 30 102 69.5 ZM752 -601.5 q0 -45.5 -33.5 -45.5 q-33.5 0 -33.5 37.5 q0 37.5 4.5 65.5 q4.5 28 15.5 71.5 q11 43.5 13 54.5 q3 -13 11 -43.5 q8 -30.5 12 -47.5 q11 -47 11 -92.5 Z" /><glyph glyph-name="E" unicode="e" d="M721 166 l-16 124 l0 11 q21 37 57 37 l816 -1 q61 0 99 39 l20 -20 q-56 -103 -56 -373 q0 -42 18.5 -162.5 q18.5 -120.5 18.5 -160 q0 -39.5 -13 -58.5 q-13 -19 -31 -19 q-18 0 -31.5 21 q-13.5 21 -13.5 58 l16 221 q0 88 -31 132.5 q-31 44.5 -84 44.5 q-119 0 -119 -179 q0 -69 20.5 -200 q20.5 -131 20.5 -164 q0 -33 -15 -50.5 q-15 -17.5 -34.5 -17.5 q-19.5 0 -34 16.5 q-14.5 16.5 -14.5 44.5 l18 319 q0 175 -75 175 l-76 -2 l-786 0 q-89 0 -131 -34 q-48 -40 -48 -226 q0 -75 23 -221.5 q23 -146.5 23 -220.5 q0 -107 -76 -107 q-82 0 -82 110 q0 75 33 222 q33 147 33 223 l-5 335 l0 1166 q0 62 -38 99 l20 21 q41 -39 100 -39 l1284 0 q61 0 100 39 l20 -21 q-44 -44 -44 -172 l0 -45 q0 -113 44 -155 l-20 -19 q-50 51 -235 51 l-497 -23 q-184 0 -234 51 l-21 -20 q39 -38 39 -100.5 q0 -62.5 -39 -100.5 l21 -19 q48 50 202 50 l419 -23 q155 0 205 50 l21 -20 q-44 -44 -44 -184 l0 -39 q0 -107 44 -151 l-21 -21 q-48 50 -203 50 l-419 -22 q-154 0 -204 50 l-20 -20 q42 -43 42 -150 l-2 -78 l-17 -120 q0 -36 26.5 -36 q26.5 0 26.5 34 Z" /><glyph glyph-name="F" unicode="f" d="M699 413 l-8 -204 q0 -55 26.5 -162.5 q26.5 -107.5 26.5 -159 q0 -51.5 17 -144.5 q17 -93 17 -149.5 q0 -56.5 -48.5 -56.5 q-48.5 0 -48.5 55.5 q0 55.5 17.5 148 q17.5 92.5 17.5 138.5 q0 46 -32 83.5 q-32 37.5 -76 37.5 q-100 0 -100 -243 q0 -57 15 -171 q15 -114 15 -156 q0 -82 -49 -82 q-25 0 -38.5 21.5 q-13.5 21.5 -13.5 61.5 q0 40 17.5 146 q17.5 106 17.5 154 q0 48 -5.5 90.5 q-5.5 42.5 -20 91 q-14.5 48.5 -46 78.5 q-31.5 30 -81 30 q-49.5 0 -89 -43 q-39.5 -43 -39.5 -81.5 q0 -38.5 14 -80.5 q14 -42 14 -65 q0 -44 -32.5 -44 q-32.5 0 -32.5 44 l24 160 l-1 1273 q0 118 -72 197 l20 20 q80 -71 197 -71 l1154 0 q117 0 197 71 l20 -20 q-71 -80 -71 -180 q0 -100 13 -155 q13 -55 58 -106 l-20 -20 q-53 71 -132 71 l-759 0 q-56 0 -96 38 l-19 -19 q38 -40 38 -97 q0 -57 -38 -97 l19 -19 q33 32 79.5 41 q46.5 9 110.5 9 l380 -21 q93 0 164.5 16 q71.5 16 122.5 65 l20 -20 q-75 -82 -75 -227 q0 -145 69 -217 l-21 -20 q-91 81 -294 81 l-374 -21 q-137 0 -187 50 l-19 -20 q37 -38 37 -100 Z" /><glyph glyph-name="G" unicode="g" d="M1350 310 q-38 30 -38 70 l0 8 q0 40 36 76 l-14 13 q-36 -36 -75 -36 l-97 0 q-61 0 -100 -39 l-21 21 q40 40 40 99 l0 148 q0 60 -40 100 l21 20 q38 -38 100 -38 l614 0 q62 0 100 38 l19 -20 q-38 -38 -38 -100 l0 -419 q0 -31 8.5 -49.5 q8.5 -18.5 34.5 -32.5 l-16 -29 q-18 9 -40.5 9 q-22.5 0 -51.5 -19 q-232 -155 -660 -174 l0 -96 l16 -111 q0 -24 -10 -37 q-10 -13 -22.5 -13 q-12.5 0 -22.5 12 q-10 12 -10 23.5 q0 11.5 4 31.5 q12 62 12 126 q0 64 -9 64 q-196 0 -412 27 q-9 3 -9 -107 q0 -110 18.5 -227 q18.5 -117 18.5 -163 q0 -93 -57 -93 q-27 0 -46.5 21 q-19.5 21 -19.5 67.5 q0 46.5 33 166 q33 119.5 33 186.5 l0 156 q-571 128 -571 689 q0 427 352 597 q203 99 496 99 q473 0 726 -185 q137 -100 175 -228 q18 -60 64 -92 l-15 -20 q-41 30 -108 30 l-422 -14 q-63 -4 -85 -48 l-33 16 q8 17 8 39 q0 22 -34 67.5 q-34 45.5 -93.5 69 q-59.5 23.5 -157 23.5 q-97.5 0 -158.5 -28 q-61 -28 -97 -77 q-70 -99 -70 -262 q0 -163 104.5 -268.5 q104.5 -105.5 273.5 -105.5 q169 0 257 22 q16 4 31 4 q15 0 46 -24 l12 16 Z" /><glyph glyph-name="H" unicode="h" d="M1257 974 l16 228 q0 102 -47 149 l20 21 q41 -40 100 -40 l353 0 q60 0 100 40 l20 -21 q-39 -39 -39 -100 l0 -1170 q0 -60 39 -100 l-20 -20 q-39 39 -100 39 l-353 0 q-61 0 -100 -39 l-20 20 q38 38 38 100 l-2 336 q0 60 38 99 l-20 20 q-38 -38 -100 -38 l-410 0 q-61 0 -100 38 l-20 -20 q2 -23 2 -242 l0 -451 q0 -91 23 -258 q23 -167 23 -236 q0 -69 -16.5 -94 q-16.5 -25 -39.5 -25 q-23 0 -39.5 24.5 q-16.5 24.5 -16.5 50 q0 25.5 10 117.5 q30 278 30 418 q0 69 -42 120 q-82 99 -225 99 q-73 0 -122.5 -34 q-49.5 -34 -49.5 -94.5 q0 -60.5 19.5 -177.5 q19.5 -117 19.5 -162 q0 -93 -58 -93 q-27 0 -46 20.5 q-19 20.5 -19 67 q0 46.5 32.5 166.5 q32.5 120 32.5 187 l0 1332 q0 63 -38 100 l19 21 q41 -40 100 -40 l359 0 q59 0 99 40 l21 -21 q-46 -46 -46 -150 l15 -230 q0 -103 -47 -150 l20 -21 q39 39 100 39 l414 0 q61 0 99 -39 l21 21 q-47 48 -47 153 Z" /><glyph glyph-name="I" unicode="i" d="M638 -539 l11 266 q0 129 -9.5 163 q-9.5 34 -19.5 60 q-10 26 -26 42 q-16 16 -38 30 q-42 28 -132 28 q-90 0 -151.5 -73 q-61.5 -73 -61.5 -175 q0 -38 15 -113.5 q15 -75.5 15 -113.5 q0 -72 -51 -72 q-51 0 -51 70 q0 39 15.5 117 q15.5 78 15.5 118 l7 268 l0 1175 q0 62 -39 100 l20 21 q42 -40 100 -40 l362 0 q60 0 100 40 l20 -21 q-39 -39 -39 -100 l0 -1170 q0 -52 -11 -179.5 q-11 -127.5 -7 -196.5 l-1 0 q37 -166 37 -253 q0 -87 -33 -87 q-48 0 -48 96 Z" /><glyph glyph-name="J" unicode="j" d="M690 -130 l20 -158 q0 -24 -8.5 -50 q-8.5 -26 -27.5 -26 q-30 0 -30 74 q0 31 14 91.5 q14 60.5 14 92.5 q0 62 -64 70 q-254 38 -374 128 q-114 84 -142 186 q-28 103 -29 164 q-3 111 -41 145 l9 10 q29 -27 52 -27 q88 0 219.5 23.5 q131.5 23.5 181 29 q49.5 5.5 85.5 50.5 l22 -17 q-32 -40 -32 -91 q0 -51 10.5 -96.5 q10.5 -45.5 32.5 -84.5 q50 -87 158.5 -87 q108.5 0 165.5 63 q57 63 57 172 l1 719 q0 63 -38 100 l20 21 q40 -40 100 -40 l348 0 q61 0 100 40 l20 -21 q-39 -38 -39 -100 l0 -778 q0 -327 -299 -451 l-1 0 l0 -217 q0 -35 16.5 -103 q16.5 -68 16.5 -102 q0 -54 -43 -54 q-37 0 -37 41.5 q0 41.5 13 103.5 q13 62 13 106 q0 44 -42 89 q-81 85 -210 85 q-35 0 -53.5 -25.5 q-18.5 -25.5 -18.5 -67.5 q0 -42 18 -132.5 q18 -90.5 18 -125.5 q0 -77 -40 -77 q-22 0 -32 23.5 q-10 23.5 -10 48.5 l24 290 q0 33 -30 53.5 q-30 20.5 -64 20.5 q-44 0 -44 -109 ZM1217 -777 q0 -37 -25 -37 q-25 0 -25 36 q0 84 25 191 q25 -105 25 -190 Z" /><glyph glyph-name="K" unicode="k" d="M651 376 q45 -22 45 -82 l0 -213 q0 -61 39 -100 l-20 -20 q-39 39 -100 39 l-347 0 q-61 0 -100 -39 l-20 20 q39 39 39 100 l0 1170 q0 61 -39 100 l20 21 q40 -40 100 -40 l347 0 q60 0 100 40 l20 -21 q-39 -39 -39 -100 l0 -311 q0 -60 -24 -115 l15 -6 q23 54 67 96 l377 361 q23 22 28.5 40 q5.5 18 -3.5 48 l35 13 q19 -45 79 -45 l502 0 q56 0 116 22 l5 -14 q-56 -21 -101 -61 l-406 -353 q-44 -40 -99 -33 l-4 -31 q54 -5 88 -56 l518 -739 q34 -50 86 -78 l-9 -16 q-51 27 -112 27 l-483 0 q-60 0 -84 -45 l-32 17 q14 29 11 48.5 q-3 19.5 -21 47.5 l-286 422 q-33 51 -26 106 l-27 3 q-7 -54 -55 -93 l-92 -79 q-26 -21 -44.5 -25 q-18.5 -4 -47.5 7 l-16 -33 Z" /><glyph glyph-name="L" unicode="l" d="M1573 264 l-4 -130 q0 -109 44 -153 l-21 -20 q-38 39 -100 39 l-291 0 q1 -14 1 -37 q0 -56 -28 -56 q-28 0 -28 63 q0 19 1 30 l-895 0 q-24 0 -41.5 -86.5 q-17.5 -86.5 -17.5 -138.5 q0 -52 24 -186.5 q24 -134.5 24 -210 q0 -75.5 -59 -75.5 q-64 0 -64 78 q0 78 27 216.5 q27 138.5 27 208.5 l-1 1445 q0 61 -40 100 l21 21 q41 -40 100 -40 l358 0 q61 0 100 40 l21 -21 q-40 -39 -40 -100 l0 -825 q0 -60 -39 -99 l21 -21 q51 51 223 51 l474 -24 q171 0 222 51 l21 -20 q-40 -39 -40 -100 ZM1208 -444 q0 -41 -34 -41 q-34 0 -34 49 q0 43 16.5 105.5 q16.5 62.5 17.5 67.5 q2 -10 10 -41 q8 -31 12 -48 q12 -51 12 -92 Z" /><glyph glyph-name="M" unicode="m" d="M1730 -194 l14 111 l-2 164 l0 775 q0 62 44 121 l-55 0 q-29 -143 -180 -508 q-143 -346 -143 -440 l2 -220 q0 -36 16.5 -107.5 q16.5 -71.5 16.5 -108.5 q0 -57 -44 -57 q-44 0 -44 58 q0 38 18 112.5 q18 74.5 18 112.5 q0 120 -59.5 178.5 q-59.5 58.5 -132 58.5 q-72.5 0 -119.5 -31 q-47 -31 -47 -77 l12 -109 q0 -37 -27 -37 q-27 0 -27 40 l18 187 q0 96 -144 437 q-150 357 -178 510 l-55 0 q42 -56 42 -120 l0 -988 l20 -168 q0 -53 -36 -53 q-36 0 -36 51 l22 164 q0 38 -15 55 q-33 37 -225 37 q-192 0 -192 -2 l5 -132 q0 -23 -23 -23 q-23 0 -23 21 l6 139 l0 1229 q0 118 -72 197 l21 21 q82 -72 197 -72 l511 0 q131 0 188 76 l26 -19 q-51 -74 -51 -136.5 q0 -62.5 32 -138 q32 -75.5 70 -143.5 q103 -184 103 -301 l14 0 q0 121 102 301 q101 178 101 261.5 q0 83.5 -50 156.5 l26 19 q57 -76 188 -76 l512 0 q116 0 197 72 l20 -21 q-71 -80 -71 -197 l0 -1105 q0 -46 -2 -100 l-20 -20 q-20 39 -59 39 l-337 0 q-22 0 -40 -27 q-18 -27 -18 -50 l17 -124 q0 -36 -26 -36 q-26 0 -26 43 Z" /><glyph glyph-name="N" unicode="n" d="M537 -310 l24 271 q0 32 -36 53 q-59 33 -144 33 q-114 0 -157 -45 q-19 -20 -19 -58.5 q0 -38.5 23 -134.5 q23 -96 23 -135.5 q0 -39.5 -14.5 -63 q-14.5 -23.5 -42.5 -23.5 q-28 0 -43 23.5 q-15 23.5 -15 63.5 q0 40 24.5 138 q24.5 98 24.5 148 l-1 1226 q0 118 -72 197 l21 21 q81 -72 197 -72 l299 0 q64 0 108.5 15.5 q44.5 15.5 71.5 61.5 l33 -16 q-26 -62 -26 -117 q0 -45 158 -226 q206 -236 265 -317 q59 -81 77 -131 l60 0 q-49 72 -49 203 q0 61 15 182.5 q15 121.5 15 182.5 q0 164 -104 213 l21 21 q81 -72 197 -72 l205 0 q116 0 197 72 l20 -21 q-71 -80 -71 -197 l-2 -1221 q0 -43 20 -128.5 q20 -85.5 20 -128.5 q0 -64 -49 -64 q-49 0 -49 64 q0 42 19 123.5 q19 81.5 19 112 q0 30.5 -20 43.5 q-20 13 -39 13 l-395 0 q-84 0 -84 -153 q0 -63 23.5 -182.5 q23.5 -119.5 23.5 -180.5 q0 -87 -65 -87 q-65 0 -65 88 q0 56 25.5 163 q25.5 107 26.5 161 l2 133 q3 93 -19 121 l-479 607 q-19 25 -42 104 l-61 -2 q52 -54 52 -120 l0 -571 l19 -506 q0 -16 -9.5 -27.5 q-9.5 -11.5 -26 -11.5 q-16.5 0 -27.5 13.5 q-11 13.5 -11 30.5 l12 384 q0 12 -9 22 q-9 10 -21 10 q-26 0 -26 -40 q0 -40 13.5 -131 q13.5 -91 13.5 -125 q0 -76 -37.5 -76 q-37.5 0 -37.5 66 Z" /><glyph glyph-name="O" unicode="o" d="M1011 -162 l7 96 q0 25 -24 38.5 q-24 13.5 -52 13.5 q-28 0 -50 -15 q-22 -15 -22 -43 l0 -230 q0 -50 21 -147 q21 -97 21 -138.5 q0 -41.5 -18 -68.5 q-18 -27 -49.5 -27 q-31.5 0 -47.5 28 q-16 28 -16 73 q0 45 23 156 q23 111 23 172 q0 247 -92 247 q-124 0 -124 10 l0 -2 q0 -69 30.5 -202.5 q30.5 -133.5 30.5 -191.5 q0 -58 -21 -95.5 q-21 -37.5 -64.5 -37.5 q-43.5 0 -68 36 q-24.5 36 -24.5 93.5 q0 57.5 29 197 q29 139.5 29 211.5 q-237 75 -356.5 245 q-119.5 170 -119.5 420 q0 518 522 654 q169 44 349.5 44 q180.5 0 307 -20 q126.5 -20 245 -70.5 q118.5 -50.5 202 -128 q83.5 -77.5 133.5 -200 q50 -122.5 50 -279.5 q0 -320 -180 -495.5 q-180 -175.5 -506 -215.5 q-4 -7 -4 -22 l5 -55 q0 -51 -28 -51 q-28 0 -28 49 l3 56 q0 30 -43 30 q-4 -9 -4 -34 l5 -97 q0 -30 -11 -58 q-11 -28 -37 -28 q-46 0 -46 82 ZM633 676 q0 -366 348 -366 q348 0 348 366 q0 168 -90 257 q-90 89 -258 89 q-168 0 -258 -89 q-90 -89 -90 -257 Z" /><glyph glyph-name="P" unicode="p" d="M178 -122 l-2 203 l0 1174 q0 61 -38 99 l20 20 q38 -38 99 -38 l863 0 q207 0 280.5 -12 q73.5 -12 128.5 -26.5 q55 -14.5 92 -34.5 q37 -20 76 -51 q39 -31 62 -70 q53 -90 53 -201.5 q0 -111.5 -24.5 -190 q-24.5 -78.5 -78.5 -140.5 q-112 -130 -381 -130 l-551 0 q-62 0 -100 38 l-21 -19 q40 -40 40 -100 l0 -318 q0 -77 -2 -189 l-45 -4 q-13 112 -34 112 l-358 0 q-12 0 -19.5 -48.5 q-7.5 -48.5 -7.5 -93 q0 -44.5 19 -151.5 q19 -107 19 -150 q0 -92 -67 -92 q-67 0 -67 94 q0 45 22 159 q22 114 22 160 ZM696 921 l0 -59 q0 -59 -40 -99 l21 -21 q39 39 100 39 l324 0 q101 0 121 11.5 q20 11.5 34 23.5 q24 22 24 63 q0 41 -8.5 60.5 q-8.5 19.5 -24.5 30.5 q-16 11 -32 18 q-16 7 -39 10 q-32 4 -71 4 l-328 0 q-62 0 -100 38 l-21 -19 q40 -40 40 -100 ZM456 -68 l26 -237 q0 -61 -44.5 -61 q-44.5 0 -44.5 62 q0 36 18.5 125.5 q18.5 89.5 18.5 117 q0 27.5 -0.5 70.5 q-0.5 43 -0.5 72 l45 -53 q-7 0 -12.5 -32.5 q-5.5 -32.5 -5.5 -63.5 Z" /><glyph glyph-name="Q" unicode="q" d="M194.5 295.5 q-50.5 71.5 -81 175.5 q-30.5 104 -30.5 241.5 q0 137.5 44.5 256 q44.5 118.5 123.5 198.5 q79 80 193 133 q114 53 248.5 76.5 q134.5 23.5 294.5 23.5 q160 0 294.5 -23.5 q134.5 -23.5 249 -76.5 q114.5 -53 193.5 -133 q168 -170 168 -455.5 q0 -285.5 -144 -441.5 q-43 -46 -96 -51 l3 -26 q56 6 105 -27 l127 -86 q53 -34 107 -30 l2 -25 q-58 -4 -102 -44 l-184 -158 q-46 -41 -42 -93 l-32 -2 q-5 53 -55 85 l-254 165 q-28 18 -38 35 q-10 17 -4 45 l-37 9 q-6 -28 -22.5 -39.5 q-16.5 -11.5 -84.5 -21.5 q-68 -10 -156 -10 q-88 0 -169 7 q-81 7 -174.5 27 q-93.5 20 -171 52 q-77.5 32 -151.5 87 q-74 55 -124.5 126.5 ZM636 706 q0 -364 352.5 -364 q352.5 0 352.5 364 q0 174 -94.5 260.5 q-94.5 86.5 -257.5 86.5 q-163 0 -258 -86.5 q-95 -86.5 -95 -260.5 Z" /><glyph glyph-name="R" unicode="r" d="M1768 -328 l22 207 q0 126 -102.5 192.5 q-102.5 66.5 -215.5 59 q-113 -7.5 -158 -76.5 q-23 -33 -23 -78 l-5 -268 q0 -55 17 -163.5 q17 -108.5 17 -163.5 q0 -97 -55 -97 q-55 0 -55 94 q0 62 18 178 q18 116 20.5 176 q2.5 60 2.5 256 q0 52 -32 120 q-32 68 -101 187 q-69 119 -113 210 l-30 17 q-24 -44 -85 -44 l-84 -3 q-86 0 -129 42 l-21 -20 q3 -37 3 -158 l-1 -245 q0 -110 4 -162 l19 -147 q0 -41 -28 -41 q-28 0 -28 38 l16 124 q0 45 -26.5 71.5 q-26.5 26.5 -69 26.5 q-42.5 0 -75 -37.5 q-32.5 -37.5 -32.5 -97.5 q0 -60 22 -162.5 q22 -102.5 22 -147.5 q0 -94 -67 -94 q-67 0 -67 92 q0 43 19.5 150 q19.5 107 19.5 170 q0 63 -29 103.5 q-29 40.5 -66 40.5 q-37 0 -63 -25.5 q-26 -25.5 -26 -63.5 l27 -237 q0 -61 -45 -61 q-45 0 -45 62 q0 36 19 125.5 q19 89.5 18 139.5 q-1 50 -1 1294 q0 62 -38 99 l20 20 q39 -38 99 -38 l896 0 q210 0 282.5 -12.5 q72.5 -12.5 127 -26.5 q54.5 -14 92 -34.5 q37.5 -20.5 76 -51 q38.5 -30.5 61.5 -69.5 q53 -89 53 -189 q0 -100 -15.5 -163.5 q-15.5 -63.5 -51.5 -119.5 q-78 -121 -274 -121 l-8 -23 q63 -25 84 -69 q88 -192 130 -243.5 q42 -51.5 78 -82.5 q36 -31 103 -63 q67 -32 81 -41.5 q14 -9.5 14 -15.5 q0 -100 27 -257 q27 -157 27 -202 q0 -45 -3.5 -65 q-3.5 -20 -15.5 -39.5 q-12 -19.5 -35 -19.5 q-23 0 -34.5 33 q-11.5 33 -11.5 81 q0 48 13 171.5 q13 123.5 13 186.5 q0 125 -81 125 q-40 0 -59.5 -14 q-19.5 -14 -19.5 -57.5 q0 -43.5 18 -138.5 q18 -95 18 -143.5 q0 -48.5 -37 -48.5 q-37 0 -37 49 ZM1102 1004 l-236 -7 q-145 0 -189 43 l-21 -19 q40 -39 40 -100 l0 -67 q0 -60 -40 -100 l21 -20 q43 44 178 44 l253 -9 q101 0 156.5 26.5 q55.5 26.5 55.5 97.5 q0 45 -31 70.5 q-31 25.5 -75 33 q-44 7.5 -112 7.5 Z" /><glyph glyph-name="S" unicode="s" d="M762 -292 l10 101 l0 187 q-269 14 -402 73.5 q-133 59.5 -196 149.5 q-38 53 -58.5 118.5 q-20.5 65.5 -67.5 98.5 l15 21 q45 -30 97.5 -30 q52.5 0 134.5 4 q82 4 185 9.5 q103 5.5 147 7.5 q44 2 65 12.5 q21 10.5 30 38.5 l45 -15 q-3 -8 -3 -21 q0 -33 55 -75 q55 -42 199 -42 q97 0 138 33 q18 15 18 36 q0 49 -54 65 q-54 16 -130.5 27.5 q-76.5 11.5 -153 18.5 q-76.5 7 -165.5 20 q-89 13 -168 28.5 q-79 15.5 -153.5 45.5 q-74.5 30 -127.5 70.5 q-53 40.5 -85.5 104 q-32.5 63.5 -32.5 144.5 q0 81 25.5 148 q25.5 67 69.5 115 q44 48 106.5 85 q62.5 37 131 60 q68.5 23 149.5 37 q141 26 266 26 q125 0 190.5 -3.5 q65.5 -3.5 154 -13 q88.5 -9.5 160 -31 q71.5 -21.5 141.5 -54.5 q146 -68 205 -211 q24 -51 66 -95 l-13 -23 q-42 29 -97 29 l-13 0 q-80 -3 -228.5 -11.5 q-148.5 -8.5 -191 -10.5 q-42.5 -2 -61 -12 q-18.5 -10 -26.5 -38 l-44 12 q3 9 3 19 q0 42 -68 72.5 q-68 30.5 -154 30.5 q-168 0 -168 -66 q0 -59 252 -86 q59 -7 134 -14 q261 -27 400 -71 q292 -92 292 -351 q0 -106 -44 -190.5 q-44 -84.5 -114.5 -137.5 q-70.5 -53 -166.5 -88 q-173 -63 -395 -63 q-60 0 -71 1 q-54 0 -54 -83 l0 -24 q0 -27 13.5 -79.5 q13.5 -52.5 13.5 -78.5 q0 -53 -37 -53 q-19 0 -29.5 16 q-10.5 16 -10.5 40 q0 24 12.5 81.5 q12.5 57.5 12.5 83.5 q0 26 -0.5 36.5 q-0.5 10.5 -3 26 q-2.5 15.5 -8.5 22.5 q-14 18 -48 18 q-62 0 -62 -108 l6 -164 q0 -66 -19 -66 q-19 0 -19 36 Z" /><glyph glyph-name="T" unicode="t" d="M92 1073 l5 128 q0 110 -43 152 l20 20 q40 -39 99 -39 l1313 0 q61 0 100 39 l20 -20 q-38 -38 -38 -100 l-5 -128 q0 -108 43 -151 l-20 -21 q-45 46 -146 46 l-221 -14 q-105 0 -151 46 l-21 -20 q39 -38 39 -100 l0 -830 q0 -104 18.5 -310 q18.5 -206 18.5 -271 q0 -114 -41 -114 q-41 0 -41 81 q0 81 13.5 219.5 q13.5 138.5 13.5 208.5 q0 109 -43 109 q-21 0 -33 -25 q-12 -25 -12 -49 l23 -209 q0 -72 -41 -72 q-21 0 -31 21 q-10 21 -10 49 q0 28 18 91.5 q18 63.5 18 103.5 q0 40 -34.5 61 q-34.5 21 -87 21 q-52.5 0 -109 -21 q-56.5 -21 -99.5 -65.5 q-43 -44.5 -43 -88 q0 -43.5 13.5 -105.5 q13.5 -62 13.5 -103.5 q0 -41.5 -37 -41.5 q-42 0 -42 44.5 q0 44.5 16 112.5 q16 68 16 102 l0 260 q2 548 2 821 q0 63 38 100 l-20 20 q-44 -45 -146 -45 l-215 13 q-103 0 -149 -46 l-20 21 q38 38 38 99 ZM954 -502 q24 -110 24 -191 q0 -35 -25 -35 q-25 0 -25 32 q0 90 26 194 Z" /><glyph glyph-name="U" unicode="u" d="M1732 1130 l9 -511 q0 -267 -66 -391 q-62 -118 -177 -177 q-131 -68 -348 -88 l0 -187 l10 -103 q0 -34 -19 -34 q-19 0 -19 66 l6 163 q0 108 -67 108 q-52 0 -52 -85 q0 0 5 -87 q0 -30 12.5 -87.5 q12.5 -57.5 12.5 -81.5 q0 -24 -10 -40 q-10 -16 -29 -16 q-19 0 -28.5 16.5 q-9.5 16.5 -9.5 39.5 q0 23 13.5 75.5 q13.5 52.5 13.5 67.5 q0 15 0 30.5 q0 15.5 -1 31.5 q-1 16 -5 40 q-8 50 -48 50 q-74 0 -74 -146 l0 -46 q0 -37 18 -108 q18 -71 18 -102 q0 -77 -50 -77 q-25 0 -39.5 21 q-14.5 21 -14.5 54 q0 33 16.5 112 q16.5 79 16.5 120 l0 199 q-284 13 -426 83 q-248 120 -255 456 q-2 93 -2 277 l2 462 q0 59 -39 99 l21 20 q37 -38 99 -38 l354 0 q61 0 99 38 l21 -20 q-38 -39 -38 -99 l2 -514 q0 -149 8 -189 q8 -40 17.5 -73.5 q9.5 -33.5 23 -53.5 q13.5 -20 34.5 -42.5 q21 -22.5 48 -34.5 q63 -28 123.5 -28 q60.5 0 94 5.5 q33.5 5.5 59 18 q25.5 12.5 46 27 q20.5 14.5 35 37 q14.5 22.5 25.5 43 q11 20.5 17.5 51.5 q6.5 31 10.5 54.5 q4 23.5 6 59.5 q3 55 3 125 l2 514 q0 61 -37 99 l19 20 q38 -38 100 -38 l354 0 q63 0 100 38 l20 -20 q-41 -42 -41 -204 ZM1174 -555 q0 -47 -33 -47 q-33 0 -33 49 q0 48 14.5 81.5 q14.5 33.5 17.5 33.5 q3 0 11 -18 q23 -52 23 -99 Z" /><glyph glyph-name="V" unicode="v" d="M622 -262 q0 -33 -30 -33 q-15 0 -24 10.5 q-9 10.5 -9 39.5 q0 29 14 113.5 q14 84.5 14 148 q0 63.5 -33 138.5 l-496 1141 q-22 54 -71 87 l13 19 q47 -31 108 -31 l349 0 q61 0 88 42 l29 -18 q-17 -22 -17 -42.5 q0 -20.5 27.5 -92.5 q27.5 -72 72.5 -180.5 q45 -108.5 84.5 -201.5 q39.5 -93 83.5 -195 q44 -102 49 -114 q5 12 49 114 q44 102 83.5 195 q39.5 93 84.5 202 q100 241 100 268 q0 27 -16 47 l28 18 q27 -42 88 -42 l350 0 q62 0 109 31 l12 -19 q-49 -33 -71 -87 l-503 -1190 q-13 -30 -13 -144 q0 -114 23.5 -253.5 q23.5 -139.5 23.5 -207.5 q0 -97 -69.5 -97 q-69.5 0 -69.5 96 q0 65 25 192.5 q25 127.5 25 233.5 q0 106 -26 106 l-484 0 q-16 0 -16 -74 l15 -220 Z" /><glyph glyph-name="W" unicode="w" d="M502 -328 q-40 0 -40 59 q0 59 14 158.5 q14 99.5 14 141.5 q0 42 -6 64 l-406 1181 q-22 61 -66 91 l14 20 q48 -33 107 -33 l367 0 q62 0 92 42 l26 -20 q-21 -27 -21 -71 q0 -44 31 -139.5 q31 -95.5 68 -183.5 q98 -236 98 -375 l13 0 q0 133 118.5 376.5 q118.5 243.5 118.5 340.5 q0 27 -18 53 l26 20 q30 -43 91 -43 l283 0 q60 0 90 43 l27 -20 q-19 -25 -19 -65 q0 -40 36.5 -136.5 q36.5 -96.5 80.5 -187.5 q118 -244 120 -381 l13 0 q0 143 98 374.5 q98 231.5 98 336.5 q0 33 -19 58 l26 20 q30 -42 92 -42 l367 0 q59 0 107 33 l13 -20 q-44 -30 -65 -91 q-7 -21 -61 -171 q-54 -150 -108 -303.5 q-54 -153.5 -112 -323.5 q-133 -385 -133 -421 q0 -36 19 -61 l-27 -20 q-30 43 -91 43 l-371 1 q-62 0 -91 -42 l-27 18 q18 24 18 66.5 q0 42.5 -34 135 q-34 92.5 -75 177.5 q-108 228 -108 358 l-12 0 q0 -132 -109 -359.5 q-109 -227.5 -109 -322.5 q0 -32 19 -55 l-27 -18 q-29 42 -91 42 l-370 -1 q-59 0 -59 -35 l17 -245 q0 -25 -12 -46 q-12 -21 -35 -21 Z" /><glyph glyph-name="X" unicode="x" d="M657 -30 q-24 44 -84 44 l-472 0 q-60 0 -114 -25 l-8 15 q57 28 93 73 l483 583 q39 46 93 46 l0 31 q-53 0 -90 49 l-392 502 q-37 48 -90 74 l8 16 q52 -26 113 -26 l446 -2 q61 0 83 45 l32 -16 q-10 -23 -10.5 -42 q-0.5 -19 25.5 -52 l116 -150 q36 -46 36 -105 l25 0 q0 58 37 105 l116 150 q24 32 24 52.5 q0 20.5 -9 41.5 l32 16 q22 -45 83 -45 l435 2 q60 0 114 25 l7 -15 q-53 -26 -91 -73 l-411 -504 q-38 -47 -92 -47 l0 -32 q54 0 91 -47 l459 -582 q35 -45 91 -73 l-8 -16 q-52 26 -113 26 l-462 0 q-44 0 -69 -29 q-25 -29 -25 -104.5 q0 -75.5 21 -260.5 q21 -185 21 -246.5 q0 -61.5 -23.5 -88.5 q-23.5 -27 -54 -27 q-30.5 0 -52 23.5 q-21.5 23.5 -21.5 82 q0 58.5 34.5 255.5 q34.5 197 34.5 271 l1 190 l-159 226 q-36 53 -36 106 l-25 0 q0 -57 -35 -106 l-163 -226 q-23 -33 -23 -52 q0 -19 11 -41 l-33 -17 Z" /><glyph glyph-name="Y" unicode="y" d="M720 -354 l11 196 q0 168 -42 168 q-42 0 -42 -106 l0 -29 q0 -43 19.5 -128 q19.5 -85 19.5 -129 q0 -68 -50.5 -68 q-50.5 0 -50.5 68 q0 46 21 134 q21 88 21 134 l-2 408 q0 31 8.5 48 q8.5 17 35.5 25 l-10 38 q-14 -4 -24.5 -4 q-10.5 0 -21.5 7 q-13 9 -30 36 l-507 826 q-30 49 -82 80 l9 17 q50 -28 113 -28 l403 2 q60 0 85 43 l31 -17 q-13 -24 -13 -52.5 q0 -28.5 40.5 -97.5 q40.5 -69 89 -134 q48.5 -65 89 -144 q40.5 -79 40.5 -137 l21 0 l0 8 q0 94 130 274 q130 180 130 241 q0 16 -14 42 l31 17 q25 -43 86 -43 l379 -2 q62 0 112 28 l9 -17 q-54 -32 -83 -80 l-512 -826 q-26 -43 -53 -43 q-11 0 -23 4 l-12 -37 q48 -15 48 -100 l-6 -139 q0 -96 42 -138 l-21 -20 q-39 39 -99 39 l-234 0 q-64 0 -64 -181 l15 -186 q0 -35 -21.5 -35 q-21.5 0 -21.5 38 Z" /><glyph glyph-name="Z" unicode="z" d="M1735 1096 q0 -60 45 -82 l-15 -33 q-29 11 -47.5 7 q-18.5 -4 -44.5 -25 l-677 -568 q-46 -37 -102 -58 l5 -14 q57 21 116 21 l609 0 q62 0 100 38 l20 -20 q-38 -38 -38 -99 l0 -182 q0 -62 38 -100 l-20 -20 q-39 39 -100 39 l-1414 0 q-61 0 -100 -39 l-21 20 q40 40 40 100 l0 130 q0 60 -45 81 l15 34 q28 -12 47 -7.5 q19 4.5 44 25.5 l700 602 q48 40 102 60 l-5 14 q-57 -21 -117 -21 l-593 0 q-59 0 -99 -40 l-20 21 q38 38 38 100 l0 171 q0 62 -38 100 l20 21 q40 -40 99 -40 l1377 0 q60 0 100 40 l20 -21 q-39 -39 -39 -100 l0 -155 Z" /><glyph glyph-name="bracketleft" unicode="[" d="M1050 -98 l5 -128 q0 -61 39 -100 l-20 -20 q-39 39 -100 39 l-717 0 q-59 0 -99 -39 l-20 20 q43 42 43 152 l0 1592 q0 110 -43 152 l20 20 q39 -38 99 -38 l717 0 q62 0 100 38 l20 -20 q-39 -39 -39 -99 l-5 -129 q0 -107 44 -151 l-20 -21 q-45 46 -147 46 l-91 -14 q-105 0 -151 46 l-20 -20 q39 -38 39 -99 l0 -1013 q0 -62 -39 -100 l20 -20 q46 46 151 46 l91 -13 q103 0 147 45 l20 -21 q-44 -44 -44 -151 Z" /><glyph glyph-name="backslash" unicode="\" d="M792 -1 l-356 0 q-3 59 -31 171 l-299 996 q-37 109 -71 166 l356 0 q1 -39 29 -166 l299 -996 q38 -113 73 -171 Z" /><glyph glyph-name="bracketright" unicode="]" d="M83 1342 l-5 129 q0 60 -39 99 l20 20 q38 -38 100 -38 l716 0 q61 0 100 38 l20 -20 q-43 -42 -43 -152 l0 -1592 q0 -110 43 -152 l-20 -20 q-40 39 -100 39 l-716 0 q-61 0 -100 -39 l-20 20 q39 39 39 100 l5 128 q0 107 -44 151 l20 21 q44 -45 147 -45 l91 13 q105 0 151 -46 l21 20 q-40 39 -40 100 l0 1013 q0 60 40 99 l-21 20 q-46 -46 -151 -46 l-91 14 q-102 0 -147 -46 l-20 21 q44 44 44 151 Z" /><glyph glyph-name="asciicircum" unicode="^" d="M530 1023 q0 0 352 0 q18 0 38 -31 l370 -603 q22 -37 61 -59 l-7 -12 q-34 20 -82 20 l-295 -1 q-44 0 -62 -32 l-22 13 q9 23 9 41.5 q0 18.5 -29.5 68.5 q-29.5 50 -64.5 98 q-94 127 -94 205 l-16 0 l0 -6 q0 -46 -47.5 -124 q-47.5 -78 -95 -149.5 q-47.5 -71.5 -47.5 -92.5 q0 -21 10 -41 l-22 -13 q-18 32 -63 32 l-277 1 q-45 0 -81 -20 l-8 12 q39 22 61 59 l374 603 q21 31 38 31 Z" /><glyph glyph-name="underscore" unicode="_" d="M807 -325 l-568 0 q-77 0 -129 -6 l0 331 q52 -13 171 -13 l484 0 q114 0 166 13 l0 -331 q-53 6 -124 6 Z" /><glyph glyph-name="grave" unicode="`" d="M677 965 l5 102 q0 12 -69 30 q-69 18 -282.5 67 q-213.5 49 -237.5 51.5 q-24 2.5 -31.5 2.5 q-7.5 0 -7.5 1.5 q0 1.5 6 8.5 q19 24 38 72 l75 192 q17 43 20 67 q3 24 4 24 q1 0 7 -7 q24 -25 68 -50 l430 -250 q71 -42 71 -45 q0 -3 -8.5 -9 q-8.5 -6 -18.5 -16 q-27 -27 -27 -102 l11 -136 q0 -16 -8.5 -25.5 q-8.5 -9.5 -19.5 -9.5 q-25 0 -25 32 Z" /><glyph glyph-name="a" unicode="a" d="M81 -64 l3 -159 q0 -48 -15 -72.5 q-15 -24.5 -36 -24.5 q-42 0 -42 81 q0 81 20 179.5 q20 98.5 35 135.5 l480 1181 q10 26 10 51 q0 25 -17 49 l28 18 q29 -43 90 -43 l460 0 q60 0 89 43 l29 -18 q-17 -24 -17 -46 q0 -22 12 -53 l494 -1183 q23 -56 71 -88 l-12 -19 q-49 32 -109 32 l-196 0 q2 -22 2 -31 q0 -33 -27 -33 q-12 0 -21.5 9.5 q-9.5 9.5 -9.5 27 q0 17.5 2 27.5 l-121 0 q-44 0 -57 -48 q-16 -59 -16 -135.5 q0 -76.5 10 -139.5 q10 -63 10 -86.5 q0 -23.5 -11.5 -38 q-11.5 -14.5 -28.5 -14.5 q-17 0 -29 14 q-12 14 -12 39 q0 25 12.5 97 q12.5 72 12.5 108 l0 281 q-10 27 -10 50 q0 23 18 49 l-26 19 q-30 -43 -90 -43 l-411 0 q-60 0 -90 42 l-26 -18 q19 -27 19 -50 q0 -23 -7 -49 l0 -1 q-9 -34 -9 -52 q0 -18 20 -47 l-26 -19 q-30 42 -90 42 l-362 0 q-3 -19 -3 -64 ZM758 429 l191 0 q60 0 108 -32 l13 19 q-47 32 -68 89 l-127 325 q-22 57 -23 116 l-13 0 q-2 -66 -20 -116 l-115 -324 q-21 -58 -67 -90 l13 -20 q47 33 108 33 ZM1407 -331 q0 69 26 173 q29 -120 29 -156 q0 -53 -27.5 -53 q-27.5 0 -27.5 36 Z" /><glyph glyph-name="b" unicode="b" d="M305 0 l22 -183 q0 -61 -42.5 -61 q-42.5 0 -42.5 60 q0 28 12 83 q12 55 12 97 q0 42 -24 42 q-19 0 -28 -29.5 q-9 -29.5 -9 -72 q0 -42.5 14.5 -163 q14.5 -120.5 14.5 -180 q0 -59.5 -45 -59.5 q-45 0 -45 57.5 q0 57.5 16 159 q16 101.5 16 152.5 l1 1348 q0 62 -39 100 l20 21 q42 -40 100 -40 l846 0 q15 0 53 1 q38 1 90 -1 q52 -2 106.5 -3.5 q54.5 -1.5 109 -10.5 q54.5 -9 104.5 -21.5 q50 -12.5 93 -36.5 q43 -24 75 -54 q69 -66 69 -168 q0 -102 -47 -177.5 q-47 -75.5 -132 -82.5 l2 -20 q59 5 110 -27.5 q51 -32.5 83 -86.5 q67 -114 67 -212 q0 -98 -28.5 -165 q-28.5 -67 -79.5 -111 q-51 -44 -113 -76 q-62 -32 -138 -48 q-145 -32 -288 -32 l-935 0 ZM652 519 q39 -39 39 -101 q0 -62 -39 -101 l20 -21 q40 40 100 40 l393 0 q7 0 30 -0.5 q23 -0.5 32.5 0 q9.5 0.5 29 2.5 q19.5 2 29 7.5 q9.5 5.5 20.5 14.5 q21 15 21 58 q0 43 -35 64 q-35 21 -80 21 l-440 -3 q-61 0 -100 39 l-20 -20 ZM849 844 l234 -10 q120 0 153 43 q16 21 16 48.5 q0 27.5 -22 43.5 q-37 26 -97 26 l-361 -1 q-55 0 -95 38 l-19 -20 q39 -39 39 -95 q0 -56 -39 -97 l19 -19 q44 43 172 43 ZM341.5 -671.5 q10.5 -40.5 15.5 -69 q5 -28.5 5 -66 q0 -37.5 -34 -37.5 q-34 0 -34 49 q0 50 15.5 108 q15.5 58 18.5 71 q3 -15 13.5 -55.5 Z" /><glyph glyph-name="c" unicode="c" d="M693 -499 l19 475 q-305 43 -469.5 220 q-164.5 177 -164.5 483 q0 326 214 501 q236 195 701 195 q745 0 833 -428 q12 -62 53 -95 l-17 -22 q-48 36 -104 31 l-385 -24 q-67 -5 -87 -49 l-33 16 q10 22 10 38 q0 52 -34.5 90.5 q-34.5 38.5 -87.5 57.5 q-103 37 -200 37 q-148 0 -230.5 -100.5 q-82.5 -100.5 -82.5 -261 q0 -160.5 93.5 -262 q93.5 -101.5 262.5 -101.5 q54 0 120.5 26.5 q66.5 26.5 118 76.5 q51.5 50 51.5 106 q0 16 -11 40 l33 17 q24 -45 77.5 -49 q53.5 -4 138.5 -11 q187 -17 260 -17 q73 0 115 31 l16 -21 q-37 -28 -55.5 -103.5 q-18.5 -75.5 -71.5 -145 q-53 -69.5 -119.5 -115 q-66.5 -45.5 -154.5 -79.5 q-151 -60 -331 -85 q0 -92 24 -273 q24 -181 24 -241 q0 -60 -14.5 -84 q-14.5 -24 -42.5 -24 q-28 0 -43 24 q-15 24 -15 76.5 q0 52.5 16.5 203.5 q16.5 151 16.5 202 q0 51 -5 69 q-5 18 -12 27.5 q-7 9.5 -24 14.5 q-39 10 -94 5 q-110 -9 -110 -37 l24 -272 q0 -65 -38 -65 q-38 0 -38 55 q0 55 13.5 146 q13.5 91 13.5 130.5 q0 39.5 -26 39.5 q-51 0 -68.5 -11 q-17.5 -11 -17.5 -20 l11 -433 q0 -17 -11 -30.5 q-11 -13.5 -27 -13.5 q-16 0 -25.5 11.5 q-9.5 11.5 -9.5 27.5 Z" /><glyph glyph-name="d" unicode="d" d="M701 -247 l20 142 q0 24 -9.5 64.5 q-9.5 40.5 -26.5 40.5 l-420 0 q-59 0 -99 -39 l-20 20 q38 38 38 100 l0 1170 q0 63 -38 100 l20 21 q41 -40 99 -40 l827 0 q598 0 742 -389 q40 -110 40 -250 q0 -396 -214 -554 q-147 -109 -441 -131 q-114 -9 -263 -8.5 q-149 0.5 -174 0.5 q-17 0 -29 -48 q-12 -48 -12 -72 l17 -128 q0 -38 -28.5 -38 q-28.5 0 -28.5 39 ZM1273 441.5 q30 39.5 47 103 q17 63.5 17 153 q0 89.5 -30 149.5 q-30 60 -80 88 q-50 28 -111 41.5 q-61 13.5 -127.5 15 q-66.5 1.5 -124.5 2.5 q-142 2 -182 42 l-20 -20 q39 -38 39 -100 q0 -447 2 -574 l227 0 q170 0 241.5 30 q71.5 30 101.5 69.5 Z" /><glyph glyph-name="e" unicode="e" d="M721 166 l-16 124 l0 11 q21 37 57 37 l816 -1 q61 0 99 39 l20 -20 q-44 -44 -44 -168 q0 0 0 -58 q0 -101 44 -147 l-20 -20 q-39 39 -99 39 l-1183 0 q-89 0 -131 -34 q-48 -40 -48 -226 q0 -75 23 -221.5 q23 -146.5 23 -220.5 q0 -107 -76 -107 q-82 0 -82 110 q0 75 33 222 q33 147 33 223 l-5 335 l0 1166 q0 62 -38 99 l20 21 q41 -39 100 -39 l1284 0 q61 0 100 39 l20 -21 q-44 -44 -44 -166 l0 -56 q0 -107 44 -150 l-20 -19 q-50 51 -235 51 l-497 -23 q-184 0 -234 51 l-21 -20 q39 -38 39 -100.5 q0 -62.5 -39 -100.5 l21 -19 q48 50 202 50 l419 -23 q155 0 205 50 l21 -20 q-44 -44 -44 -169 l0 -56 q0 -103 44 -149 l-21 -21 q-48 50 -203 50 l-419 -22 q-154 0 -204 50 l-20 -20 q30 -30 35 -71.5 q5 -41.5 6 -59 q1 -17.5 0 -54 q-1 -36.5 -1 -43.5 l-17 -120 q0 -36 26.5 -36 q26.5 0 26.5 34 Z" /><glyph glyph-name="f" unicode="f" d="M699 413 l-8 -204 q0 -55 26.5 -162.5 q26.5 -107.5 26.5 -159 q0 -51.5 17 -144.5 q17 -93 17 -149.5 q0 -56.5 -48.5 -56.5 q-48.5 0 -48.5 55.5 q0 55.5 17.5 148 q17.5 92.5 17.5 138.5 q0 46 -32 83.5 q-32 37.5 -76 37.5 q-100 0 -100 -243 q0 -57 15 -171 q15 -114 15 -156 q0 -82 -49 -82 q-25 0 -38.5 21.5 q-13.5 21.5 -13.5 61.5 q0 40 17.5 146 q17.5 106 17.5 154 q0 48 -5.5 90.5 q-5.5 42.5 -20 91 q-14.5 48.5 -46 78.5 q-31.5 30 -81 30 q-49.5 0 -89 -43 q-39.5 -43 -39.5 -81.5 q0 -38.5 14 -80.5 q14 -42 14 -65 q0 -44 -32.5 -44 q-32.5 0 -32.5 44 l24 160 l-1 1273 q0 118 -72 197 l20 20 q80 -71 197 -71 l1154 0 q117 0 197 71 l20 -20 q-71 -80 -71 -180 q0 -100 13 -155 q13 -55 58 -106 l-20 -20 q-53 71 -132 71 l-759 0 q-56 0 -96 38 l-19 -19 q38 -40 38 -97 q0 -57 -38 -97 l19 -19 q33 32 79.5 41 q46.5 9 110.5 9 l380 -21 q93 0 164.5 16 q71.5 16 122.5 65 l20 -20 q-75 -82 -75 -227 q0 -145 69 -217 l-21 -20 q-91 81 -294 81 l-374 -21 q-137 0 -187 50 l-19 -20 q37 -38 37 -100 Z" /><glyph glyph-name="g" unicode="g" d="M1350 310 q-38 30 -38 70 l0 8 q0 40 36 76 l-14 13 q-36 -36 -75 -36 l-97 0 q-61 0 -100 -39 l-21 21 q40 40 40 99 l0 148 q0 60 -40 100 l21 20 q38 -38 100 -38 l614 0 q62 0 100 38 l19 -20 q-38 -38 -38 -100 l0 -419 q0 -31 8.5 -49.5 q8.5 -18.5 34.5 -32.5 l-16 -29 q-18 9 -40.5 9 q-22.5 0 -51.5 -19 q-232 -155 -660 -174 l0 -96 l16 -111 q0 -24 -10 -37 q-10 -13 -22.5 -13 q-12.5 0 -22.5 12 q-10 12 -10 23.5 q0 11.5 4 31.5 q12 62 12 126 q0 64 -9 64 q-196 0 -412 27 q-9 3 -9 -107 q0 -110 18.5 -227 q18.5 -117 18.5 -163 q0 -93 -57 -93 q-27 0 -46.5 21 q-19.5 21 -19.5 67.5 q0 46.5 33 166 q33 119.5 33 186.5 l0 156 q-571 128 -571 689 q0 427 352 597 q203 99 496 99 q473 0 726 -185 q137 -100 175 -228 q18 -60 64 -92 l-15 -20 q-41 30 -108 30 l-422 -14 q-63 -4 -85 -48 l-33 16 q8 17 8 39 q0 22 -34 67.5 q-34 45.5 -93.5 69 q-59.5 23.5 -157 23.5 q-97.5 0 -158.5 -28 q-61 -28 -97 -77 q-70 -99 -70 -262 q0 -163 104.5 -268.5 q104.5 -105.5 273.5 -105.5 q169 0 257 22 q16 4 31 4 q15 0 46 -24 l12 16 Z" /><glyph glyph-name="h" unicode="h" d="M1257 974 l16 228 q0 102 -47 149 l20 21 q41 -40 100 -40 l353 0 q60 0 100 40 l20 -21 q-39 -39 -39 -100 l0 -1170 q0 -60 39 -100 l-20 -20 q-39 39 -100 39 l-353 0 q-61 0 -100 -39 l-20 20 q38 38 38 100 l-2 336 q0 60 38 99 l-20 20 q-38 -38 -100 -38 l-410 0 q-61 0 -100 38 l-20 -20 q2 -23 2 -242 l0 -451 q0 -91 23 -258 q23 -167 23 -236 q0 -69 -16.5 -94 q-16.5 -25 -39.5 -25 q-23 0 -39.5 24.5 q-16.5 24.5 -16.5 50 q0 25.5 10 117.5 q30 278 30 418 q0 69 -42 120 q-82 99 -225 99 q-73 0 -122.5 -34 q-49.5 -34 -49.5 -94.5 q0 -60.5 19.5 -177.5 q19.5 -117 19.5 -162 q0 -93 -58 -93 q-27 0 -46 20.5 q-19 20.5 -19 67 q0 46.5 32.5 166.5 q32.5 120 32.5 187 l0 1332 q0 63 -38 100 l19 21 q41 -40 100 -40 l359 0 q59 0 99 40 l21 -21 q-46 -46 -46 -150 l15 -230 q0 -103 -47 -150 l20 -21 q39 39 100 39 l414 0 q61 0 99 -39 l21 21 q-47 48 -47 153 Z" /><glyph glyph-name="i" unicode="i" d="M638 -539 l11 266 q0 129 -9.5 163 q-9.5 34 -19.5 60 q-10 26 -26 42 q-16 16 -38 30 q-42 28 -132 28 q-90 0 -151.5 -73 q-61.5 -73 -61.5 -175 q0 -38 15 -113.5 q15 -75.5 15 -113.5 q0 -72 -51 -72 q-51 0 -51 70 q0 39 15.5 117 q15.5 78 15.5 118 l7 268 l0 1175 q0 62 -39 100 l20 21 q42 -40 100 -40 l362 0 q60 0 100 40 l20 -21 q-39 -39 -39 -100 l0 -1170 q0 -52 -11 -179.5 q-11 -127.5 -7 -196.5 l-1 0 q37 -166 37 -253 q0 -87 -33 -87 q-48 0 -48 96 Z" /><glyph glyph-name="j" unicode="j" d="M690 -130 l20 -158 q0 -24 -8.5 -50 q-8.5 -26 -27.5 -26 q-30 0 -30 74 q0 31 14 91.5 q14 60.5 14 92.5 q0 62 -64 70 q-254 38 -374 128 q-114 84 -142 186 q-28 103 -29 164 q-3 111 -41 145 l9 10 q29 -27 52 -27 q88 0 219.5 23.5 q131.5 23.5 181 29 q49.5 5.5 85.5 50.5 l22 -17 q-32 -40 -32 -91 q0 -51 10.5 -96.5 q10.5 -45.5 32.5 -84.5 q50 -87 158.5 -87 q108.5 0 165.5 63 q57 63 57 172 l1 719 q0 63 -38 100 l20 21 q40 -40 100 -40 l348 0 q61 0 100 40 l20 -21 q-39 -38 -39 -100 l0 -778 q0 -327 -299 -451 l-1 0 l0 -217 q0 -35 16.5 -103 q16.5 -68 16.5 -102 q0 -54 -43 -54 q-37 0 -37 41.5 q0 41.5 13 103.5 q13 62 13 106 q0 44 -42 89 q-81 85 -210 85 q-35 0 -53.5 -25.5 q-18.5 -25.5 -18.5 -67.5 q0 -42 18 -132.5 q18 -90.5 18 -125.5 q0 -77 -40 -77 q-22 0 -32 23.5 q-10 23.5 -10 48.5 l24 290 q0 33 -30 53.5 q-30 20.5 -64 20.5 q-44 0 -44 -109 ZM1217 -777 q0 -37 -25 -37 q-25 0 -25 36 q0 84 25 191 q25 -105 25 -190 Z" /><glyph glyph-name="k" unicode="k" d="M651 376 q45 -22 45 -82 l0 -213 q0 -61 39 -100 l-20 -20 q-39 39 -100 39 l-347 0 q-61 0 -100 -39 l-20 20 q39 39 39 100 l0 1170 q0 61 -39 100 l20 21 q40 -40 100 -40 l347 0 q60 0 100 40 l20 -21 q-39 -39 -39 -100 l0 -311 q0 -60 -24 -115 l15 -6 q23 54 67 96 l377 361 q23 22 28.5 40 q5.5 18 -3.5 48 l35 13 q19 -45 79 -45 l502 0 q56 0 116 22 l5 -14 q-56 -21 -101 -61 l-406 -353 q-44 -40 -99 -33 l-4 -31 q54 -5 88 -56 l518 -739 q34 -50 86 -78 l-9 -16 q-51 27 -112 27 l-483 0 q-60 0 -84 -45 l-32 17 q14 29 11 48.5 q-3 19.5 -21 47.5 l-286 422 q-33 51 -26 106 l-27 3 q-7 -54 -55 -93 l-92 -79 q-26 -21 -44.5 -25 q-18.5 -4 -47.5 7 l-16 -33 Z" /><glyph glyph-name="l" unicode="l" d="M1573 264 l-4 -130 q0 -109 44 -153 l-21 -20 q-38 39 -100 39 l-291 0 q1 -14 1 -37 q0 -56 -28 -56 q-28 0 -28 63 q0 19 1 30 l-895 0 q-24 0 -41.5 -86.5 q-17.5 -86.5 -17.5 -138.5 q0 -52 24 -186.5 q24 -134.5 24 -210 q0 -75.5 -59 -75.5 q-64 0 -64 78 q0 78 27 216.5 q27 138.5 27 208.5 l-1 1445 q0 61 -40 100 l21 21 q41 -40 100 -40 l358 0 q61 0 100 40 l21 -21 q-40 -39 -40 -100 l0 -825 q0 -60 -39 -99 l21 -21 q51 51 223 51 l474 -24 q171 0 222 51 l21 -20 q-40 -39 -40 -100 ZM1208 -444 q0 -41 -34 -41 q-34 0 -34 49 q0 43 16.5 105.5 q16.5 62.5 17.5 67.5 q2 -10 10 -41 q8 -31 12 -48 q12 -51 12 -92 Z" /><glyph glyph-name="m" unicode="m" d="M167 -182 l6 139 l0 1294 q0 62 -39 100 l20 21 q42 -40 100 -40 l641 0 q61 0 90 43 l26 -19 q-18 -23 -18 -66 q0 -43 32 -127.5 q32 -84.5 70 -160.5 q103 -204 103 -332 l14 0 q0 133 102 333 q102 198 102 298 q0 30 -19 55 l27 19 q29 -43 90 -43 l641 0 q60 0 100 40 l20 -21 q-39 -39 -39 -100 l0 -1170 q0 -73 -1 -100 l-20 -20 q-20 39 -60 39 l-335 0 q-50 0 -50 -207 q0 -36 14.5 -105.5 q14.5 -69.5 14.5 -102.5 q0 -33 -12.5 -50 q-12.5 -17 -30.5 -17 q-18 0 -31.5 17.5 q-13.5 17.5 -13.5 48.5 q0 31 12.5 99.5 q12.5 68.5 12.5 100.5 l3 297 l0 775 q0 63 10 120 l-7 1 q-20 -98 -106 -307 q-86 -209 -159 -393 q-73 -184 -73 -248 l4 -227 q1 -60 24 -180.5 q23 -120.5 23 -173 q0 -52.5 -17 -78 q-17 -25.5 -38.5 -25.5 q-21.5 0 -36 23.5 q-14.5 23.5 -14.5 78.5 q0 55 14 181 q14 126 14 182.5 q0 56.5 -6 94 q-6 37.5 -14.5 62 q-8.5 24.5 -24.5 42 q-16 17.5 -30 26.5 q-14 9 -36 14 q-114 26 -190 -24 q-47 -31 -47 -77 l12 -109 q0 -37 -27 -37 q-27 0 -27 40 l17 187 q0 67 -73.5 248.5 q-73.5 181.5 -159.5 388.5 q-86 207 -105 311 l-6 -1 q10 -57 10 -120 l0 -988 q0 -17 15.5 -135 q15.5 -118 15.5 -167 q0 -49 -20.5 -75.5 q-20.5 -26.5 -47.5 -26.5 q-27 0 -46.5 25 q-19.5 25 -19.5 68.5 q0 43.5 15.5 153 q15.5 109.5 15.5 151.5 l1 29 q0 26 -13 38 q-26 25 -201.5 25 q-175.5 0 -175.5 -2 l3 -132 q0 -23 -22.5 -23 q-22.5 0 -22.5 21 Z" /><glyph glyph-name="n" unicode="n" d="M537 -310 l24 271 q0 32 -36 53 q-59 33 -144 33 q-114 0 -157 -45 q-19 -20 -19 -58.5 q0 -38.5 23 -134.5 q23 -96 23 -135.5 q0 -39.5 -14.5 -63 q-14.5 -23.5 -42.5 -23.5 q-28 0 -43 23.5 q-15 23.5 -15 63.5 q0 40 24.5 138 q24.5 98 24.5 148 l-1 1226 q0 118 -72 197 l21 21 q81 -72 197 -72 l299 0 q64 0 108.5 15.5 q44.5 15.5 71.5 61.5 l33 -16 q-26 -62 -26 -117 q0 -45 158 -226 q206 -236 265 -317 q59 -81 77 -131 l60 0 q-49 72 -49 203 q0 61 15 182.5 q15 121.5 15 182.5 q0 164 -104 213 l21 21 q81 -72 197 -72 l205 0 q116 0 197 72 l20 -21 q-71 -80 -71 -197 l-2 -1221 q0 -43 20 -128.5 q20 -85.5 20 -128.5 q0 -64 -49 -64 q-49 0 -49 64 q0 42 19 123.5 q19 81.5 19 112 q0 30.5 -20 43.5 q-20 13 -39 13 l-395 0 q-84 0 -84 -153 q0 -63 23.5 -182.5 q23.5 -119.5 23.5 -180.5 q0 -87 -65 -87 q-65 0 -65 88 q0 56 25.5 163 q25.5 107 26.5 161 l2 133 q3 93 -19 121 l-479 607 q-19 25 -42 104 l-61 -2 q52 -54 52 -120 l0 -571 l19 -506 q0 -16 -9.5 -27.5 q-9.5 -11.5 -26 -11.5 q-16.5 0 -27.5 13.5 q-11 13.5 -11 30.5 l12 384 q0 12 -9 22 q-9 10 -21 10 q-26 0 -26 -40 q0 -40 13.5 -131 q13.5 -91 13.5 -125 q0 -76 -37.5 -76 q-37.5 0 -37.5 66 Z" /><glyph glyph-name="o" unicode="o" d="M1011 -162 l7 96 q0 25 -24 38.5 q-24 13.5 -52 13.5 q-28 0 -50 -15 q-22 -15 -22 -43 l0 -230 q0 -50 21 -147 q21 -97 21 -138.5 q0 -41.5 -18 -68.5 q-18 -27 -49.5 -27 q-31.5 0 -47.5 28 q-16 28 -16 73 q0 45 23 156 q23 111 23 172 q0 247 -92 247 q-124 0 -124 10 l0 -2 q0 -69 30.5 -202.5 q30.5 -133.5 30.5 -191.5 q0 -58 -21 -95.5 q-21 -37.5 -64.5 -37.5 q-43.5 0 -68 36 q-24.5 36 -24.5 93.5 q0 57.5 29 197 q29 139.5 29 211.5 q-237 75 -356.5 245 q-119.5 170 -119.5 420 q0 518 522 654 q169 44 349.5 44 q180.5 0 307 -20 q126.5 -20 245 -70.5 q118.5 -50.5 202 -128 q83.5 -77.5 133.5 -200 q50 -122.5 50 -279.5 q0 -320 -180 -495.5 q-180 -175.5 -506 -215.5 q-4 -7 -4 -22 l5 -55 q0 -51 -28 -51 q-28 0 -28 49 l3 56 q0 30 -43 30 q-4 -9 -4 -34 l5 -97 q0 -30 -11 -58 q-11 -28 -37 -28 q-46 0 -46 82 ZM633 676 q0 -366 348 -366 q348 0 348 366 q0 168 -90 257 q-90 89 -258 89 q-168 0 -258 -89 q-90 -89 -90 -257 Z" /><glyph glyph-name="p" unicode="p" d="M178 -122 l-2 203 l0 1174 q0 61 -38 99 l20 20 q38 -38 99 -38 l863 0 q207 0 280.5 -12 q73.5 -12 128.5 -26.5 q55 -14.5 92 -34.5 q37 -20 76 -51 q39 -31 62 -70 q53 -90 53 -201.5 q0 -111.5 -24.5 -190 q-24.5 -78.5 -78.5 -140.5 q-112 -130 -381 -130 l-551 0 q-62 0 -100 38 l-21 -19 q40 -40 40 -100 l0 -318 q0 -77 -2 -189 l-45 -4 q-13 112 -34 112 l-358 0 q-12 0 -19.5 -48.5 q-7.5 -48.5 -7.5 -93 q0 -44.5 19 -151.5 q19 -107 19 -150 q0 -92 -67 -92 q-67 0 -67 94 q0 45 22 159 q22 114 22 160 ZM696 921 l0 -59 q0 -59 -40 -99 l21 -21 q39 39 100 39 l324 0 q101 0 121 11.5 q20 11.5 34 23.5 q24 22 24 63 q0 41 -8.5 60.5 q-8.5 19.5 -24.5 30.5 q-16 11 -32 18 q-16 7 -39 10 q-32 4 -71 4 l-328 0 q-62 0 -100 38 l-21 -19 q40 -40 40 -100 ZM456 -68 l26 -237 q0 -61 -44.5 -61 q-44.5 0 -44.5 62 q0 36 18.5 125.5 q18.5 89.5 18.5 117 q0 27.5 -0.5 70.5 q-0.5 43 -0.5 72 l45 -53 q-7 0 -12.5 -32.5 q-5.5 -32.5 -5.5 -63.5 Z" /><glyph glyph-name="q" unicode="q" d="M633 706 q0 -364 352 -364 q352 0 352 364 q0 174 -94 260.5 q-94 86.5 -257 86.5 q-163 0 -258 -86.5 q-95 -86.5 -95 -260.5 ZM1545 -580 l15 230 q0 167 -90 229 l-146 99 q-44 31 -44 62 q0 11 2 18 l-37 9 q-6 -28 -22.5 -39.5 q-16.5 -11.5 -85 -21.5 q-68.5 -10 -155.5 -10 q-87 0 -168 7 q-81 7 -175 27 q-94 20 -171.5 52 q-77.5 32 -151.5 87 q-74 55 -125 127 q-112 157 -112 405 q0 431 363 599 q216 100 543 100 q699 0 859 -432 q44 -118 44 -267 q0 -276 -143 -431 q-43 -46 -95 -51 l1 -26 q6 1 35.5 1 q29.5 0 70.5 -28 l128 -86 q44 -30 95 -31 l11 1 l2 -25 q-56 -4 -102 -44 l-185 -158 q0 -31 12 -92 q12 -61 12 -91 q0 -61 -43.5 -61 q-43.5 0 -43.5 60 q0 28 12.5 83 q12.5 55 12.5 96.5 q0 41.5 -25 41.5 q-19 0 -27.5 -28.5 q-8.5 -28.5 -8.5 -71.5 q0 -43 14 -163.5 q14 -120.5 14 -180.5 q0 -60 -42 -60 q-48 0 -48 64 ZM1721 -835 q0 -46 -34 -46 q-34 0 -34 49 q0 49 15.5 108 q15.5 59 18.5 72 q3 -14 13 -56 q21 -81 21 -127 Z" /><glyph glyph-name="r" unicode="r" d="M1768 -328 l22 207 q0 126 -102.5 192.5 q-102.5 66.5 -215.5 59 q-113 -7.5 -158 -76.5 q-23 -33 -23 -78 l-5 -268 q0 -55 17 -163.5 q17 -108.5 17 -163.5 q0 -97 -55 -97 q-55 0 -55 94 q0 62 18 178 q18 116 20.5 176 q2.5 60 2.5 256 q0 52 -32 120 q-32 68 -101 187 q-69 119 -113 210 l-30 17 q-24 -44 -85 -44 l-84 -3 q-86 0 -129 42 l-21 -20 q3 -37 3 -158 l-1 -245 q0 -110 4 -162 l19 -147 q0 -41 -28 -41 q-28 0 -28 38 l16 124 q0 45 -26.5 71.5 q-26.5 26.5 -69 26.5 q-42.5 0 -75 -37.5 q-32.5 -37.5 -32.5 -97.5 q0 -60 22 -162.5 q22 -102.5 22 -147.5 q0 -94 -67 -94 q-67 0 -67 92 q0 43 19.5 150 q19.5 107 19.5 170 q0 63 -29 103.5 q-29 40.5 -66 40.5 q-37 0 -63 -25.5 q-26 -25.5 -26 -63.5 l27 -237 q0 -61 -45 -61 q-45 0 -45 62 q0 36 19 125.5 q19 89.5 18 139.5 q-1 50 -1 1294 q0 62 -38 99 l20 20 q39 -38 99 -38 l896 0 q210 0 282.5 -12.5 q72.5 -12.5 127 -26.5 q54.5 -14 92 -34.5 q37.5 -20.5 76 -51 q38.5 -30.5 61.5 -69.5 q53 -89 53 -189 q0 -100 -15.5 -163.5 q-15.5 -63.5 -51.5 -119.5 q-78 -121 -274 -121 l-8 -23 q63 -25 84 -69 q88 -192 130 -243.5 q42 -51.5 78 -82.5 q36 -31 103 -63 q67 -32 81 -41.5 q14 -9.5 14 -15.5 q0 -100 27 -257 q27 -157 27 -202 q0 -45 -3.5 -65 q-3.5 -20 -15.5 -39.5 q-12 -19.5 -35 -19.5 q-23 0 -34.5 33 q-11.5 33 -11.5 81 q0 48 13 171.5 q13 123.5 13 186.5 q0 125 -81 125 q-40 0 -59.5 -14 q-19.5 -14 -19.5 -57.5 q0 -43.5 18 -138.5 q18 -95 18 -143.5 q0 -48.5 -37 -48.5 q-37 0 -37 49 ZM1102 1004 l-236 -7 q-145 0 -189 43 l-21 -19 q40 -39 40 -100 l0 -67 q0 -60 -40 -100 l21 -20 q43 44 178 44 l253 -9 q101 0 156.5 26.5 q55.5 26.5 55.5 97.5 q0 45 -31 70.5 q-31 25.5 -75 33 q-44 7.5 -112 7.5 Z" /><glyph glyph-name="s" unicode="s" d="M762 -292 l10 101 l0 187 q-269 14 -402 73.5 q-133 59.5 -196 149.5 q-38 53 -58.5 118.5 q-20.5 65.5 -67.5 98.5 l15 21 q45 -30 97.5 -30 q52.5 0 134.5 4 q82 4 185 9.5 q103 5.5 147 7.5 q44 2 65 12.5 q21 10.5 30 38.5 l45 -15 q-3 -8 -3 -21 q0 -33 55 -75 q55 -42 199 -42 q97 0 138 33 q18 15 18 36 q0 49 -54 65 q-54 16 -130.5 27.5 q-76.5 11.5 -153 18.5 q-76.5 7 -165.5 20 q-89 13 -168 28.5 q-79 15.5 -153.5 45.5 q-74.5 30 -127.5 70.5 q-53 40.5 -85.5 104 q-32.5 63.5 -32.5 144.5 q0 81 25.5 148 q25.5 67 69.5 115 q44 48 106.5 85 q62.5 37 131 60 q68.5 23 149.5 37 q141 26 266 26 q125 0 190.5 -3.5 q65.5 -3.5 154 -13 q88.5 -9.5 160 -31 q71.5 -21.5 141.5 -54.5 q146 -68 205 -211 q24 -51 66 -95 l-13 -23 q-42 29 -97 29 l-13 0 q-80 -3 -228.5 -11.5 q-148.5 -8.5 -191 -10.5 q-42.5 -2 -61 -12 q-18.5 -10 -26.5 -38 l-44 12 q3 9 3 19 q0 42 -68 72.5 q-68 30.5 -154 30.5 q-168 0 -168 -66 q0 -59 252 -86 q59 -7 134 -14 q261 -27 400 -71 q292 -92 292 -351 q0 -106 -44 -190.5 q-44 -84.5 -114.5 -137.5 q-70.5 -53 -166.5 -88 q-173 -63 -395 -63 q-60 0 -71 1 q-54 0 -54 -83 l0 -24 q0 -27 13.5 -79.5 q13.5 -52.5 13.5 -78.5 q0 -53 -37 -53 q-19 0 -29.5 16 q-10.5 16 -10.5 40 q0 24 12.5 81.5 q12.5 57.5 12.5 83.5 q0 26 -0.5 36.5 q-0.5 10.5 -3 26 q-2.5 15.5 -8.5 22.5 q-14 18 -48 18 q-62 0 -62 -108 l6 -164 q0 -66 -19 -66 q-19 0 -19 36 Z" /><glyph glyph-name="t" unicode="t" d="M92 1073 l5 128 q0 110 -43 152 l20 20 q40 -39 99 -39 l1313 0 q61 0 100 39 l20 -20 q-38 -38 -38 -100 l-5 -128 q0 -108 43 -151 l-20 -21 q-45 46 -146 46 l-221 -14 q-105 0 -151 46 l-21 -20 q39 -38 39 -100 l0 -830 q0 -104 18.5 -310 q18.5 -206 18.5 -271 q0 -114 -41 -114 q-41 0 -41 81 q0 81 13.5 219.5 q13.5 138.5 13.5 208.5 q0 109 -43 109 q-21 0 -33 -25 q-12 -25 -12 -49 l23 -209 q0 -72 -41 -72 q-21 0 -31 21 q-10 21 -10 49 q0 28 18 91.5 q18 63.5 18 103.5 q0 40 -34.5 61 q-34.5 21 -87 21 q-52.5 0 -109 -21 q-56.5 -21 -99.5 -65.5 q-43 -44.5 -43 -88 q0 -43.5 13.5 -105.5 q13.5 -62 13.5 -103.5 q0 -41.5 -37 -41.5 q-42 0 -42 44.5 q0 44.5 16 112.5 q16 68 16 102 l0 260 q2 548 2 821 q0 63 38 100 l-20 20 q-44 -45 -146 -45 l-215 13 q-103 0 -149 -46 l-20 21 q38 38 38 99 ZM954 -502 q24 -110 24 -191 q0 -35 -25 -35 q-25 0 -25 32 q0 90 26 194 Z" /><glyph glyph-name="u" unicode="u" d="M1732 1130 l9 -511 q0 -267 -66 -391 q-62 -118 -177 -177 q-131 -68 -348 -88 l0 -187 l10 -103 q0 -34 -19 -34 q-19 0 -19 66 l6 163 q0 108 -67 108 q-52 0 -52 -85 q0 0 5 -87 q0 -30 12.5 -87.5 q12.5 -57.5 12.5 -81.5 q0 -24 -10 -40 q-10 -16 -29 -16 q-19 0 -28.5 16.5 q-9.5 16.5 -9.5 39.5 q0 23 13.5 75.5 q13.5 52.5 13.5 67.5 q0 15 0 30.5 q0 15.5 -1 31.5 q-1 16 -5 40 q-8 50 -48 50 q-74 0 -74 -146 l0 -46 q0 -37 18 -108 q18 -71 18 -102 q0 -77 -50 -77 q-25 0 -39.5 21 q-14.5 21 -14.5 54 q0 33 16.5 112 q16.5 79 16.5 120 l0 199 q-284 13 -426 83 q-248 120 -255 456 q-2 93 -2 277 l2 462 q0 59 -39 99 l21 20 q37 -38 99 -38 l354 0 q61 0 99 38 l21 -20 q-38 -39 -38 -99 l2 -514 q0 -149 8 -189 q8 -40 17.5 -73.5 q9.5 -33.5 23 -53.5 q13.5 -20 34.5 -42.5 q21 -22.5 48 -34.5 q63 -28 123.5 -28 q60.5 0 94 5.5 q33.5 5.5 59 18 q25.5 12.5 46 27 q20.5 14.5 35 37 q14.5 22.5 25.5 43 q11 20.5 17.5 51.5 q6.5 31 10.5 54.5 q4 23.5 6 59.5 q3 55 3 125 l2 514 q0 61 -37 99 l19 20 q38 -38 100 -38 l354 0 q63 0 100 38 l20 -20 q-41 -42 -41 -204 ZM1174 -555 q0 -47 -33 -47 q-33 0 -33 49 q0 48 14.5 81.5 q14.5 33.5 17.5 33.5 q3 0 11 -18 q23 -52 23 -99 Z" /><glyph glyph-name="v" unicode="v" d="M622 -262 q0 -33 -30 -33 q-15 0 -24 10.5 q-9 10.5 -9 39.5 q0 29 14 113.5 q14 84.5 14 148 q0 63.5 -33 138.5 l-496 1141 q-22 54 -71 87 l13 19 q47 -31 108 -31 l349 0 q61 0 88 42 l29 -18 q-17 -22 -17 -42.5 q0 -20.5 27.5 -92.5 q27.5 -72 72.5 -180.5 q45 -108.5 84.5 -201.5 q39.5 -93 83.5 -195 q44 -102 49 -114 q5 12 49 114 q44 102 83.5 195 q39.5 93 84.5 202 q100 241 100 268 q0 27 -16 47 l28 18 q27 -42 88 -42 l350 0 q62 0 109 31 l12 -19 q-49 -33 -71 -87 l-503 -1190 q-13 -30 -13 -144 q0 -114 23.5 -253.5 q23.5 -139.5 23.5 -207.5 q0 -97 -69.5 -97 q-69.5 0 -69.5 96 q0 65 25 192.5 q25 127.5 25 233.5 q0 106 -26 106 l-484 0 q-16 0 -16 -74 l15 -220 Z" /><glyph glyph-name="w" unicode="w" d="M502 -328 q-40 0 -40 59 q0 59 14 158.5 q14 99.5 14 141.5 q0 42 -6 64 l-406 1181 q-22 61 -66 91 l14 20 q48 -33 107 -33 l367 0 q62 0 92 42 l26 -20 q-21 -27 -21 -71 q0 -44 31 -139.5 q31 -95.5 68 -183.5 q98 -236 98 -375 l13 0 q0 133 118.5 376.5 q118.5 243.5 118.5 340.5 q0 27 -18 53 l26 20 q30 -43 91 -43 l283 0 q60 0 90 43 l27 -20 q-19 -25 -19 -65 q0 -40 36.5 -136.5 q36.5 -96.5 80.5 -187.5 q118 -244 120 -381 l13 0 q0 143 98 374.5 q98 231.5 98 336.5 q0 33 -19 58 l26 20 q30 -42 92 -42 l367 0 q59 0 107 33 l13 -20 q-44 -30 -65 -91 q-7 -21 -61 -171 q-54 -150 -108 -303.5 q-54 -153.5 -112 -323.5 q-133 -385 -133 -421 q0 -36 19 -61 l-27 -20 q-30 43 -91 43 l-371 1 q-62 0 -91 -42 l-27 18 q18 24 18 66.5 q0 42.5 -34 135 q-34 92.5 -75 177.5 q-108 228 -108 358 l-12 0 q0 -132 -109 -359.5 q-109 -227.5 -109 -322.5 q0 -32 19 -55 l-27 -18 q-29 42 -91 42 l-370 -1 q-59 0 -59 -35 l17 -245 q0 -25 -12 -46 q-12 -21 -35 -21 Z" /><glyph glyph-name="x" unicode="x" d="M657 -30 q-24 44 -84 44 l-472 0 q-60 0 -114 -25 l-8 15 q57 28 93 73 l483 583 q39 46 93 46 l0 31 q-53 0 -90 49 l-392 502 q-37 48 -90 74 l8 16 q52 -26 113 -26 l446 -2 q61 0 83 45 l32 -16 q-10 -23 -10.5 -42 q-0.5 -19 25.5 -52 l116 -150 q36 -46 36 -105 l25 0 q0 58 37 105 l116 150 q24 32 24 52.5 q0 20.5 -9 41.5 l32 16 q22 -45 83 -45 l435 2 q60 0 114 25 l7 -15 q-53 -26 -91 -73 l-411 -504 q-38 -47 -92 -47 l0 -32 q54 0 91 -47 l459 -582 q35 -45 91 -73 l-8 -16 q-52 26 -113 26 l-462 0 q-44 0 -69 -29 q-25 -29 -25 -104.5 q0 -75.5 21 -260.5 q21 -185 21 -246.5 q0 -61.5 -23.5 -88.5 q-23.5 -27 -54 -27 q-30.5 0 -52 23.5 q-21.5 23.5 -21.5 82 q0 58.5 34.5 255.5 q34.5 197 34.5 271 l1 190 l-159 226 q-36 53 -36 106 l-25 0 q0 -57 -35 -106 l-163 -226 q-23 -33 -23 -52 q0 -19 11 -41 l-33 -17 Z" /><glyph glyph-name="y" unicode="y" d="M720 -354 l11 196 q0 168 -42 168 q-42 0 -42 -106 l0 -29 q0 -43 19.5 -128 q19.5 -85 19.5 -129 q0 -68 -50.5 -68 q-50.5 0 -50.5 68 q0 46 21 134 q21 88 21 134 l-2 408 q0 31 8.5 48 q8.5 17 35.5 25 l-10 38 q-14 -4 -24.5 -4 q-10.5 0 -21.5 7 q-13 9 -30 36 l-507 826 q-30 49 -82 80 l9 17 q50 -28 113 -28 l403 2 q60 0 85 43 l31 -17 q-13 -24 -13 -52.5 q0 -28.5 40.5 -97.5 q40.5 -69 89 -134 q48.5 -65 89 -144 q40.5 -79 40.5 -137 l21 0 l0 8 q0 94 130 274 q130 180 130 241 q0 16 -14 42 l31 17 q25 -43 86 -43 l379 -2 q62 0 112 28 l9 -17 q-54 -32 -83 -80 l-512 -826 q-26 -43 -53 -43 q-11 0 -23 4 l-12 -37 q48 -15 48 -100 l-6 -139 q0 -96 42 -138 l-21 -20 q-39 39 -99 39 l-234 0 q-64 0 -64 -181 l15 -186 q0 -35 -21.5 -35 q-21.5 0 -21.5 38 Z" /><glyph glyph-name="z" unicode="z" d="M1616 -586 l26 450 q-12 61 -84.5 108.5 q-72.5 47.5 -138.5 47.5 q-108 0 -108 -185 l5 -163 q0 -33 13 -97.5 q13 -64.5 13 -102.5 q0 -85 -54.5 -85 q-54.5 0 -54.5 80 q0 29 20.5 98.5 q20.5 69.5 20.5 88.5 l0 102 q0 244 -99 244 l-887 0 q-75 0 -100 -26 q-25 -26 -25 -81 l16 -555 q0 -47 -16.5 -73.5 q-16.5 -26.5 -39.5 -26.5 q-23 0 -38.5 26 q-15.5 26 -15.5 88.5 q0 62.5 21.5 259.5 q21.5 197 21.5 274 l-2 195 l0 130 q0 32 -9 50.5 q-9 18.5 -35 30.5 l15 34 q23 -9 41.5 -8.5 q18.5 0.5 48.5 26.5 l700 602 q48 40 102 60 l-5 14 q-57 -21 -117 -21 l-592 0 q-60 0 -100 -40 l-20 21 q39 39 39 100 l0 171 q0 61 -39 100 l20 21 q40 -40 100 -40 l1377 0 q59 0 99 40 l21 -21 q-39 -39 -39 -100 l0 -155 q0 -32 9 -50.5 q9 -18.5 35 -31.5 l-15 -33 q-23 9 -40.5 9 q-17.5 0 -51.5 -27 l-676 -568 q-43 -36 -102 -58 l4 -14 q57 21 116 21 l610 0 q62 0 100 38 l19 -20 q-38 -38 -38 -99 l0 -393 q0 -63 30 -225 q30 -162 30 -220.5 q0 -58.5 -18.5 -86.5 q-18.5 -28 -45 -28 q-26.5 0 -47 28 q-20.5 28 -20.5 76 Z" /><glyph glyph-name="braceleft" unicode="{" d="M1075 -397 l-367 -10 q-223 0 -317 76 q-85 69 -121 192 q-41 143 -41 370 q0 181 -67 215 q-32 16 -96 16 l-1 204 q64 0 97 16 q68 33 68 214 q0 346 93 484 q63 94 158 125 q89 29 228 29 l367 -9 l-2 -342 q-139 0 -192.5 -24 q-53.5 -24 -73.5 -57 q-42 -65 -42 -179 q0 -114 -15 -172 q-15 -58 -50.5 -95 q-35.5 -37 -81 -57 q-45.5 -20 -119.5 -36 q115 -25 161 -56 q46 -31 65 -65 q40 -72 40 -188 q0 -116 14.5 -171.5 q14.5 -55.5 53.5 -86.5 q39 -31 93 -41 q54 -10 146 -10 l2 -342 Z" /><glyph glyph-name="bar" unicode="|" d="M473 -1 l-314 0 q17 52 24 171 l0 996 q-8 128 -18 166 l315 0 q-19 -57 -25 -166 l0 -996 q8 -134 18 -171 Z" /><glyph glyph-name="braceright" unicode="}" d="M31 1525 l366 9 q223 0 317 -76 q85 -69 120 -192 q42 -143 42 -370 q0 -145 38 -190 q21 -24 49.5 -32 q28.5 -8 76.5 -8 l0 -204 q-64 0 -96 -16 q-67 -34 -67 -215 q0 -346 -93 -485 q-63 -93 -158 -124 q-89 -29 -228 -29 l-367 10 l1 342 q92 0 146 10 q54 10 93.5 41 q39.5 31 54 86.5 q14.5 55.5 14.5 138.5 q0 83 10.5 135 q10.5 52 29.5 86 q19 34 54 58 q57 38 172 63 q-74 16 -119.5 36 q-45.5 20 -81.5 57 q-66 68 -66 240 q0 93 -14.5 148.5 q-14.5 55.5 -53.5 87 q-39 31.5 -93 41.5 q-54 10 -146 10 l-1 342 Z" /><glyph glyph-name="asciitilde" unicode="~" d="M518 1195 q-44 0 -44 -101 l-347 3 q-3 29 -3 109 q0 80 23.5 155 q23.5 75 67.5 116 q83 77 219 77 q129 0 256.5 -58 q127.5 -58 167.5 -58 q54 0 54 90 l347 -2 q2 -50 2 -115 q0 -65 -20.5 -141.5 q-20.5 -76.5 -58.5 -118.5 q-72 -78 -197 -78 q-171 0 -304.5 61 q-133.5 61 -162.5 61 Z" /><glyph glyph-name="exclamdown" unicode="" d="M284 1372 l144 0 q87 0 104.5 -7.5 q17.5 -7.5 17.5 -50.5 l0 -234 q0 -44 -17 -51 q-17 -7 -105 -7 l-144 0 q-88 0 -105 7 q-17 7 -17 51 l0 234 q0 44 17 51 q17 7 105 7 ZM340 871 l39 0 q59 0 99 40 l21 -21 q-48 -48 -39 -100 l122 -671 q2 -5 4 -20.5 q2 -15.5 4.5 -25.5 q2.5 -10 4.5 -14.5 q2 -4.5 6 -12.5 q7 -14 19 -26 l-20 -21 q-39 39 -99 39 l-291 0 q-61 0 -100 -39 l-21 21 q24 24 29.5 47.5 q5.5 23.5 10.5 51.5 l129 671 q10 51 -39 100 l21 21 q40 -40 100 -40 Z" /><glyph glyph-name="cent" unicode="" d="M886 982 q-121 -17 -188 -102.5 q-67 -85.5 -67 -210 q0 -124.5 66 -211 q66 -86.5 189 -113.5 l0 637 ZM886 -275 l0 271 q-378 0 -591 172.5 q-213 172.5 -213 510.5 q0 283 183 447 q205 184 621 206 l-1 225 q47 -19 95 -19 q48 0 95 19 l1 -224 q671 -22 753 -362 q12 -60 54 -94 l-17 -22 q-43 31 -104 31 l-385 -25 q-67 -7 -87 -49 l-33 16 q11 24 11 39 q0 74 -192 104 l0 -621 q78 16 140 55 q62 39 62 82 q0 17 -10 39 l32 18 q24 -46 76.5 -50 q52.5 -4 139.5 -12 q178 -15 283 -15 q49 0 92 32 l17 -22 q-36 -26 -58 -106.5 q-22 -80.5 -99 -152.5 q-77 -72 -187 -116 q-220 -88 -488 -98 l0 -279 q-47 19 -95 19 q-48 0 -95 -19 Z" /><glyph glyph-name="sterling" unicode="" d="M110 134 l-5 130 q0 63 -38 100 l20 20 q49 -49 168 -49 q34 0 65 -29 l19 21 q-38 38 -38 99 l0 95 l-70 0 q-29 0 -78 -8 q-49 -8 -50 -8 l0 234 q56 -14 171 -14 l28 0 q17 398 323 557 q178 93 431 93 q402 0 618 -192 q115 -102 145 -231 q18 -60 64 -92 l-15 -21 q-54 31 -107 31 l-390 -4 q-64 -3 -86 -48 l-33 16 q8 12 8 36 q0 76 -58.5 119.5 q-58.5 43.5 -137.5 43.5 q-79 0 -133 -43 q-98 -80 -109 -265 l131 0 q116 0 167 14 l0 -234 q-4 0 -49.5 8 q-45.5 8 -74.5 8 l-175 0 l0 -95 q0 -60 -39 -99 l20 -21 q51 51 223 51 l547 -24 q171 0 222 51 l21 -20 q-39 -38 -39 -100 q0 0 -5 -130 q0 -109 44 -153 l-21 -20 q-38 39 -99 39 l-292 0 q1 -14 1 -37 q0 -56 -28 -56 q-28 0 -28 63 q0 19 1 30 l-1162 0 q-62 0 -100 -39 l-20 20 q43 43 43 153 ZM1405 -445.5 q0 -39.5 -33.5 -39.5 q-33.5 0 -33.5 49 q0 40 16 102.5 q16 62.5 18 70.5 q1 -6 10 -40.5 q9 -34.5 12 -48.5 q11 -54 11 -93.5 Z" /><glyph glyph-name="currency" unicode="" d="M331 594 q-66 95 -66 222 q0 127 64 224 l-90 89 q-80 74 -137 103 l102 104 q22 -40 109 -134 l86 -87 q94 73 226.5 73 q132.5 0 227.5 -74 l91 91 q90 104 105 131 l103 -104 q-51 -28 -134 -101 l-95 -93 q64 -98 64 -223 q0 -125 -66 -220 l97 -96 q83 -73 134 -101 l-103 -104 q-15 27 -105 131 l-95 94 q-91 -69 -223.5 -69 q-132.5 0 -221.5 68 l-91 -90 q-87 -94 -109 -134 l-102 104 q57 29 137 103 l92 93 ZM419 940.5 q-25 -56.5 -25 -121.5 q0 -65 25 -121.5 q25 -56.5 79 -94 q54 -37.5 128 -37.5 q74 0 128 37.5 q54 37.5 79 94 q25 56.5 25 121.5 q0 65 -25 121.5 q-25 56.5 -79 94 q-54 37.5 -128 37.5 q-74 0 -128 -37.5 q-54 -37.5 -79 -94 Z" /><glyph glyph-name="yen" unicode="" d="M630 129 l-7 139 l0 20 l-352 0 q-43 0 -68 -4 l0 178 q34 -8 91 -8 l283 0 l-55 89 l-251 0 q-43 0 -68 -4 l0 177 q29 -7 91 -7 l125 0 l-347 561 q-29 48 -84 80 l10 17 q50 -28 111 -28 l379 2 q62 0 87 43 l30 -17 q-12 -22 -12 -49 q0 -27 40.5 -96.5 q40.5 -69.5 88.5 -137.5 q130 -182 130 -274 l0 -8 l21 0 q0 106 129 281 q129 175 129 242 q0 18 -13 42 l31 17 q25 -43 86 -43 l404 -2 q61 0 111 28 l9 -17 q-52 -31 -82 -80 l-344 -561 l136 0 q60 0 89 7 l0 -177 q-25 4 -66 4 l-260 0 l-55 -89 l292 0 q55 0 89 8 l0 -178 q-25 4 -66 4 l-364 0 l-1 -402 q0 -46 21 -134 q21 -88 21 -134 q0 -68 -51 -68 q-51 0 -51 68 q0 43 20 128.5 q20 85.5 20 128.5 q0 135 -42 135 q-42 0 -42 -168 l11 -196 q0 -38 -21.5 -38 q-21.5 0 -21.5 35 l14 186 q0 181 -63 181 l-235 0 q-60 0 -99 -39 l-21 20 q43 43 43 138 Z" /><glyph glyph-name="brokenbar" unicode="" d="M472 -49 l-209 0 q-46 0 -68 -4 q-22 -4 -24.5 -4 q-2.5 0 -2.5 2 q0 2 4 12 q10 30 10 75 l0 524 q0 45 -7 66 q-7 21 -7 22 q0 1 2.5 1 q2.5 0 13.5 -2 q33 -6 79 -6 l209 0 q46 0 68 4 q22 4 24 4 q2 0 2 -1 q0 -1 -3 -11 q-9 -30 -9 -77 l0 -524 q0 -47 4 -68 q4 -21 4 -23 q0 -2 -2 -2 q-2 0 -12 3 q-30 9 -76 9 ZM175 832 l7 99 l0 523 q0 45 -7 66 q-7 21 -7 22.5 q0 1.5 2.5 1.5 q2.5 0 13.5 -2 q38 -7 79 -7 l209 0 q40 0 65 4.5 q25 4.5 27 4.5 q2 0 2 -1 q0 -1 -3 -11 q-9 -32 -9 -78 l0 -523 q0 -46 6 -66 q6 -20 6 -21.5 q0 -1.5 -2 -1.5 q-2 0 -13 2 q-33 6 -79 6 l-209 0 q-49 0 -87 -20 q-1 0 -1 2 Z" /><glyph glyph-name="section" unicode="" d="M1351 687 q0 -112 -90 -187 q97 -85 97 -229 q0 -161 -156 -233 q-119 -55 -406 -55 q-201 0 -253.5 9 q-52.5 9 -98 19 q-45.5 10 -77.5 26 q-32 16 -65 38 q-64 43 -101 123 q-25 48 -70 76 l10 17 q40 -24 101 -24 l266 10 q33 2 48 10 q15 8 19 33 l39 -8 q-4 -8 -4 -18 q0 -52 47 -86 q47 -34 109 -34 q151 0 151 73 q0 47 -155 73 q-68 11 -150.5 23 q-82.5 12 -165.5 34.5 q-83 22.5 -151.5 55 q-68.5 32.5 -111.5 90.5 q-43 58 -43 136 q0 112 90 186 q-97 67 -97 181 q0 147 95 220 q62 49 121.5 64.5 q59.5 15.5 95.5 21.5 q36 6 85 10 q64 4 147.5 4 q83.5 0 124 -1 q40.5 -1 100.5 -5 q60 -4 100 -11.5 q40 -7.5 88.5 -22 q48.5 -14.5 81.5 -34.5 q78 -49 117 -125 q23 -44 71 -75 l-10 -17 q-39 23 -101 23 l-266 -10 q-33 -2 -48.5 -10 q-15.5 -8 -19.5 -32 l-39 7 q5 12 5 18 q0 45 -47 75 q-47 30 -109 30 q-152 0 -152 -107 q0 -41 155 -64 q68 -10 151 -20.5 q83 -10.5 166 -30 q83 -19.5 151.5 -47.5 q68.5 -28 111.5 -79.5 q43 -51.5 43 -120.5 ZM885 677 q0 19 -52 33 q-52 14 -95 14 q-43 0 -64.5 -3 q-21.5 -3 -44.5 -16.5 q-23 -13.5 -23 -36.5 q0 -18 33.5 -27.5 q33.5 -9.5 104.5 -18.5 l29 0 q112 0 112 55 Z" /><glyph glyph-name="dieresis" unicode="" d="M365 1069 l-110 0 q-88 0 -105.5 7 q-17.5 7 -17.5 51 l0 193 q0 44 17.5 51 q17.5 7 105.5 7 l110 0 q88 0 105.5 -7 q17.5 -7 17.5 -51 l0 -193 q0 -44 -17.5 -51 q-17.5 -7 -105.5 -7 ZM1053 1069 l-112 0 q-88 0 -105 7 q-17 7 -17 51 l0 193 q0 44 17 51 q17 7 105 7 l112 0 q88 0 105 -7 q17 -7 17 -51 l0 -193 q0 -44 -17 -51 q-17 -7 -105 -7 Z" /><glyph glyph-name="copyright" unicode="" d="M1771 487 q-31 -23 -47 -88.5 q-16 -65.5 -68 -127 q-52 -61.5 -119.5 -98.5 q-67.5 -37 -152.5 -61 q-148 -42 -276.5 -43 q-128.5 -1 -202 4.5 q-73.5 5.5 -151.5 21.5 q-78 16 -139 42 q-61 26 -117 69 q-56 43 -93 100 q-80 125 -80 322 q0 352 311 480 q170 71 413 71 q591 0 660 -338 q10 -51 42 -76 l-13 -17 q-33 24 -75 24 l-8 0 l-305 -19 q-54 -5 -69 -39 l-26 12 q9 23 9 48 q0 25 -27 55.5 q-27 30.5 -69 45.5 q-83 29 -160 29 q-117 0 -183 -79.5 q-66 -79.5 -66 -207 q0 -127.5 74 -208.5 q74 -81 208 -81 q43 0 96 21 q53 21 94 61.5 q41 40.5 41 84.5 q0 11 -8 31 l26 13 q16 -34 58.5 -37.5 q42.5 -3.5 111.5 -9.5 q140 -12 203 -12 q63 0 95 24 l13 -17 ZM204 612 q0 -171 66 -325.5 q66 -154.5 178 -266.5 q112 -112 267 -178 q155 -66 325.5 -66 q170.5 0 325.5 66 q155 66 267 178 q112 112 178.5 266.5 q66.5 154.5 66.5 325 q0 170.5 -66.5 325.5 q-66.5 155 -178.5 267.5 q-112 112.5 -267 179 q-155 66.5 -326 66.5 q-227 0 -419.5 -112.5 q-192.5 -112.5 -304.5 -305.5 q-112 -193 -112 -420 ZM793 -765 l19 474 q-42 6 -99.5 26 q-57.5 20 -69.5 24 q-248 114 -399.5 342.5 q-151.5 228.5 -151.5 510.5 q0 316 184 560 q185 247 465 340 q145 48 299 48 q154 0 299 -48 q145 -48 261.5 -135.5 q116.5 -87.5 203.5 -204.5 q184 -244 184 -541 q0 -297 -147.5 -527.5 q-147.5 -230.5 -390.5 -346.5 q-21 -5 -84 -25 q-63 -20 -95 -25 q0 -92 24 -273.5 q24 -181.5 24 -241.5 q0 -60 -14.5 -83.5 q-14.5 -23.5 -42.5 -23.5 q-28 0 -43 23.5 q-15 23.5 -15 75.5 q0 52 16.5 203.5 q16.5 151.5 16.5 203 q0 51.5 -5 69.5 q-5 18 -12 27.5 q-7 9.5 -24 14.5 q-21 5 -60 5 q-39 0 -63.5 -2 q-24.5 -2 -52.5 -11.5 q-28 -9.5 -28 -23.5 l24 -272 q0 -66 -38 -66 q-38 0 -38 55 q0 55 13.5 146.5 q13.5 91.5 13.5 131 q0 39.5 -25 39.5 q-25 0 -56 -7.5 q-31 -7.5 -31 -24.5 l11 -432 q0 -17 -11 -31 q-11 -14 -27 -14 q-16 0 -25.5 12 q-9.5 12 -9.5 28 Z" /><glyph glyph-name="ordfeminine" unicode="" d="M1667 223 q-44 -22 -44 -69 l0 -73 q0 -60 40 -100 l-21 -20 q-39 39 -100 39 q-85 0 -133 0 q-48 0 -74.5 1 q-26.5 1 -39 2.5 q-12.5 1.5 -35.5 5 q-23 3.5 -35 8.5 q-12 5 -30 13 q-18 8 -29 18 q-72 59 -64 148 l-20 2 q-5 -54 -38 -88 q-65 -70 -170 -106.5 q-105 -36.5 -278 -36.5 q-370 0 -474 205 q-32 63 -32 145 q0 318 759 318 q82 0 158 -6 q76 -6 120 -39 l14 18 q-47 34 -70 96 q-15 42 -65 57 q-50 15 -207 15 q-157 0 -349 -51 q-56 -15 -76 -63 l-29 13 q19 51 -9 98 q-10 16 -32 51.5 q-22 35.5 -32 51.5 q-32 54 -84 74 l9 23 q57 -22 111 -5 q112 32 270.5 50.5 q158.5 18.5 325 18.5 q166.5 0 271.5 -17 q377 -61 377 -363 l0 -334 q0 -51 29.5 -74 q29.5 -23 72.5 -1 l13 -25 ZM922 450 q-326 0 -326 -135 q0 -108 187 -108 q229 0 288 139 q29 70 83 105 l-17 25 q-52 -33 -109.5 -29.5 q-57.5 3.5 -105.5 3.5 Z" /><glyph glyph-name="guillemotleft" unicode="" d="M149 491 l0 352 q0 19 31 39 l603 370 q36 21 58 60 l13 -7 q-21 -36 -21 -82 l2 -294 q0 -44 32 -62 l-13 -23 q-22 9 -31 9 q-49 0 -175.5 -94 q-126.5 -94 -205.5 -94 l0 -15 l5 0 q46 0 124 -47.5 q78 -47.5 149.5 -95 q71.5 -47.5 92.5 -47.5 q21 0 41 10 l13 -23 q-32 -18 -32 -63 l-2 -276 q0 -44 21 -82 l-13 -7 q-22 39 -58 60 l-603 375 q-14 9 -22.5 15.5 q-8.5 6.5 -8.5 21.5 ZM1013 491 l0 352 q0 19 31 39 l603 370 q36 21 58 60 l13 -7 q-21 -36 -21 -82 l2 -294 q0 -44 32 -62 l-13 -23 q-22 9 -31 9 q-49 0 -175.5 -94 q-126.5 -94 -205.5 -94 l0 -15 l5 0 q46 0 124 -47.5 q78 -47.5 149.5 -95 q71.5 -47.5 92.5 -47.5 q21 0 41 10 l13 -23 q-32 -18 -32 -63 l-2 -276 q0 -44 21 -82 l-13 -7 q-22 39 -58 60 l-603 375 q-14 9 -22.5 15.5 q-8.5 6.5 -8.5 21.5 Z" /><glyph glyph-name="logicalnot" unicode="" d="M833 870 l123 1 l0 -526 q0 -68 7 -129 l-169 0 q13 52 13 171 l0 172 l-543 0 q-75 0 -128 -6 l0 331 q52 -13 333 -13 l364 -1 Z" /><glyph glyph-name="uni00AD" unicode="" d="M858 559 l-568 0 q-76 0 -129 -6 l0 331 q52 -13 171 -13 l483 0 q114 0 166 13 l0 -331 q-52 6 -123 6 Z" /><glyph glyph-name="registered" unicode="" d="M1240 158 q-79 202 -158 370 l-244 0 l0 -370 l-330 0 q-1 78 -1 901 q0 42 -27 68 l15 14 q27 -27 67 -27 l611 0 q149 0 195.5 -8 q46.5 -8 84 -18 q37.5 -10 62.5 -23.5 q25 -13.5 52 -34.5 q27 -21 43 -48 q35 -60 35 -122.5 q0 -62.5 -6 -98 q-6 -35.5 -22.5 -70 q-16.5 -34.5 -42.5 -58.5 q-57 -54 -162 -54 l-6 -16 q43 -17 59 -51 q37 -80 114 -210 l79 -144 l-418 0 ZM1139 888 l-162 -4 q-99 0 -129 30 l-13 -14 q26 -26 26 -68 l0 -46 q0 -42 -26 -69 l13 -13 q29 30 122 30 l173 -6 q68 0 106.5 18 q38.5 18 38.5 64.5 q0 46.5 -39 62 q-39 15.5 -110 15.5 ZM204 612 q0 -171 66 -325.5 q66 -154.5 178 -266.5 q112 -112 267 -178 q155 -66 325.5 -66 q170.5 0 325.5 66 q155 66 267 178 q112 112 178.5 266.5 q66.5 154.5 66.5 325 q0 170.5 -66.5 325.5 q-66.5 155 -178.5 267.5 q-112 112.5 -267 179 q-155 66.5 -326 66.5 q-227 0 -419.5 -112.5 q-192.5 -112.5 -304.5 -305.5 q-112 -193 -112 -420 ZM793 -765 l19 474 q-42 6 -99.5 26 q-57.5 20 -69.5 24 q-248 114 -399.5 342.5 q-151.5 228.5 -151.5 510.5 q0 316 184 560 q185 247 465 340 q145 48 299 48 q154 0 299 -48 q145 -48 261.5 -135.5 q116.5 -87.5 203.5 -204.5 q184 -244 184 -541 q0 -297 -147.5 -527.5 q-147.5 -230.5 -390.5 -346.5 q-21 -5 -84 -25 q-63 -20 -95 -25 q0 -92 24 -273.5 q24 -181.5 24 -241.5 q0 -60 -14.5 -83.5 q-14.5 -23.5 -42.5 -23.5 q-28 0 -43 23.5 q-15 23.5 -15 75.5 q0 52 16.5 203.5 q16.5 151.5 16.5 203 q0 51.5 -5 69.5 q-5 18 -12 27.5 q-7 9.5 -24 14.5 q-21 5 -60 5 q-39 0 -63.5 -2 q-24.5 -2 -52.5 -11.5 q-28 -9.5 -28 -23.5 l24 -272 q0 -66 -38 -66 q-38 0 -38 55 q0 55 13.5 146.5 q13.5 91.5 13.5 131 q0 39.5 -25 39.5 q-25 0 -56 -7.5 q-31 -7.5 -31 -24.5 l11 -432 q0 -17 -11 -31 q-11 -14 -27 -14 q-16 0 -25.5 12 q-9.5 12 -9.5 28 Z" /><glyph glyph-name="macron" unicode="" d="M858 559 l-568 0 q-76 0 -129 -6 l0 331 q52 -13 171 -13 l483 0 q114 0 166 13 l0 -331 q-52 6 -123 6 Z" /><glyph glyph-name="degree" unicode="" d="M257 1855.5 q-25 -56.5 -25 -121.5 q0 -65 25 -121.5 q25 -56.5 79 -94 q54 -37.5 128 -37.5 q74 0 128 37.5 q54 37.5 78.5 94 q24.5 56.5 24.5 121.5 q0 65 -24.5 121.5 q-24.5 56.5 -78.5 94 q-54 37.5 -128 37.5 q-74 0 -128 -37.5 q-54 -37.5 -79 -94 ZM103 1734 q0 71 23 135.5 q23 64.5 66 117.5 q43 53 113.5 84.5 q70.5 31.5 158.5 31.5 q88 0 158.5 -31.5 q70.5 -31.5 113.5 -84.5 q88 -108 88 -253 q0 -184 -128 -292 q-92 -78 -232 -78 q-178 0 -272 116 q-89 110 -89 254 Z" /><glyph glyph-name="plusminus" unicode="" d="M717 1029 l0 -158 l110 0 q114 0 166 13 l0 -331 q-53 6 -124 6 l-152 0 l0 -147 q0 -76 6 -128 l-331 0 q13 52 13 170 l0 105 l-152 0 q-77 0 -129 -6 l0 331 q52 -13 171 -13 l110 0 l0 115 q0 115 -13 167 l331 0 q-6 -52 -6 -124 ZM841 -3 l-568 0 q-77 0 -129 -6 l0 169 q48 -12 170 -12 l484 0 q118 0 166 12 l0 -169 q-52 6 -123 6 Z" /><glyph glyph-name="acute" unicode="" d="M723 1207 l-461 -112 q-52 -13 -67.5 -21 q-15.5 -8 -16.5 -8 q-14 46 -34 84.5 q-20 38.5 -32.5 57 q-12.5 18.5 -18.5 25 q-6 6.5 -6 8 q0 1.5 7 3.5 q32 6 76 32 l429 250 q46 27 60 41 q14 14 15 14 q1 0 2 -8 q5 -39 22 -81 l75 -192 q30 -74 30 -77.5 q0 -3.5 -7 -5 q-7 -1.5 -29 -3 q-22 -1.5 -44 -7.5 Z" /><glyph glyph-name="mu" unicode="" d="M975 -70 q-74 0 -74 -146 l0 -46 q0 -37 18.5 -108 q18.5 -71 18.5 -102 q0 -77 -51 -77 q-25 0 -39.5 21 q-14.5 21 -14.5 54 q0 33 16.5 112 q16.5 79 16.5 120 l0 199 q-112 10 -229 63 l0 -357 q0 -60 39 -99 l-21 -20 q-38 38 -99 38 l-291 0 q-61 0 -99 -38 l-20 20 q39 39 39 99 l0 874 q-2 78 -2 236 l2 462 q0 59 -39 99 l21 20 q37 -38 99 -38 l354 0 q62 0 100 38 l20 -20 q-38 -39 -38 -99 l2 -514 q0 -149 8 -189 q8 -40 17.5 -73.5 q9.5 -33.5 23 -53.5 q13.5 -20 34.5 -42.5 q21 -22.5 48 -34.5 q63 -28 123.5 -28 q60.5 0 94 5.5 q33.5 5.5 59 18 q25.5 12.5 46 27 q20.5 14.5 35 37 q14.5 22.5 25.5 43 q11 20.5 17.5 51.5 q6.5 31 10.5 54.5 q4 23.5 6 59.5 q3 55 3 125 l2 514 q0 60 -38 99 l20 20 q38 -38 100 -38 l354 0 q63 0 100 38 l20 -20 q-41 -42 -41 -204 l10 -511 q0 -206 -36 -315 q-34 -104 -78.5 -150.5 q-44.5 -46.5 -89 -77.5 q-44.5 -31 -100.5 -52 q-117 -45 -288 -61 l0 -187 l10 -103 q0 -34 -19 -34 q-19 0 -19 66 l6 163 q0 79 -31 99 q-14 9 -35 9 q-53 0 -53 -85 l5 -87 q0 -30 12.5 -87.5 q12.5 -57.5 12.5 -81.5 q0 -56 -38 -56 q-38 0 -38 53 q0 26 13 78.5 q13 52.5 13 67.5 q0 15 0 30.5 q0 15.5 -1 31.5 q-1 16 -5 40 q-8 50 -48 50 ZM1215 -555 q0 -47 -34 -47 q-34 0 -34 49 q0 48 15.5 81.5 q15.5 33.5 18.5 33.5 q3 0 11 -18 q23 -52 23 -99 Z" /><glyph glyph-name="paragraph" unicode="" d="M1409 -305 l26 237 q0 49 -5 68 l-153 0 q-16 0 -25.5 -41.5 q-9.5 -41.5 -9.5 -83 q0 -41.5 22 -150.5 q22 -109 22 -152 q0 -87 -64.5 -87 q-64.5 0 -64.5 89 q0 43 20 151.5 q20 108.5 20 151.5 l0 521 q0 62 38 100 l-20 19 q-38 -38 -100 -38 l-550 0 q-485 0 -485 451 q0 190 115 281 q78 62 150.5 81 q72.5 19 115.5 26 q43 7 105 11 q94 6 206 6 l862 0 q62 0 100 38 l21 -20 q-40 -40 -40 -99 l0 -1174 l-1 -203 q0 -46 21.5 -160 q21.5 -114 21.5 -159 q0 -94 -67 -94 q-67 0 -67 92 q0 43 19.5 150 q19.5 107 19.5 149 q0 1314 -3 1314 l-198 0 l0 -1222 q0 -37 18.5 -126.5 q18.5 -89.5 18.5 -125.5 q0 -62 -44.5 -62 q-44.5 0 -44.5 61 Z" /><glyph glyph-name="periodcentered" unicode="" d="M426 528 l-143 0 q-88 0 -105.5 7 q-17.5 7 -17.5 51 l0 234 q0 44 17.5 51 q17.5 7 105.5 7 l143 0 q88 0 105 -7 q17 -7 17 -51 l0 -234 q0 -44 -17 -51 q-17 -7 -105 -7 Z" /><glyph glyph-name="cedilla" unicode="" d="M159 -150 l0 150 l184 0 l-26 -66 q265 -41 265 -219 q0 -116 -70.5 -167 q-70.5 -51 -183 -51 q-112.5 0 -241.5 41 l21 131 q92 -33 138 -33 q46 0 70 10 q24 10 35 26 q20 29 20 53 q0 24 -7 41 q-7 17 -24 38 q-38 47 -142 47 q-25 0 -39 -1 Z" /><glyph glyph-name="ordmasculine" unicode="" d="M1645 503 q0 -215 -111 -333 q-112 -120 -280 -161 q-242 -59 -538 -35 q-176 15 -270 54 q-94 39 -150.5 81 q-56.5 42 -94.5 96.5 q-38 54.5 -60 130 q-22 75.5 -22 167.5 q0 92 22 167.5 q22 75.5 60.5 130.5 q38.5 55 95 96.5 q56.5 41.5 120.5 67.5 q64 26 143 43 q141 29 294.5 29 q153.5 0 256 -13 q102.5 -13 201.5 -49 q99 -36 168 -94 q151 -129 165 -378 ZM882 238 q131 0 201 68 q70 68 70 193 q0 125 -74 194.5 q-74 69.5 -197 69.5 q-123 0 -196.5 -69 q-73.5 -69 -73.5 -194.5 q0 -125.5 69.5 -193.5 q69.5 -68 200.5 -68 Z" /><glyph glyph-name="questiondown" unicode="" d="M979 275 q0 0 425 0 q61 0 106 35 l16 -19 q-43 -34 -59 -96 q-19 -89 -68 -157 q-159 -220 -605 -220 q-761 0 -761 452 q0 116 59 201 q25 36 67.5 67 q42.5 31 79 49.5 q36.5 18.5 91.5 36 q55 17.5 91 25.5 q36 8 91 19.5 q55 11.5 70.5 14.5 q15.5 3 73.5 17 q83 20 115 81 q37 71 -26 135 q0 0 21 20 q39 -39 100 -39 l296 0 q63 0 102 38 l18 -21 q-42 -36 -46.5 -107 q-4.5 -71 -27.5 -137 q-39 -111 -144 -190 q-106 -81 -323 -116 q-87 -20 -119.5 -51 q-32.5 -31 -32.5 -74 q0 -43 41.5 -72.5 q41.5 -29.5 118.5 -29.5 q110 0 143 83 q9 23 9 40 q0 17 -17 42 l23 15 q27 -42 72 -42 ZM941 1451 l144 0 q88 0 104.5 -7 q16.5 -7 16.5 -51 l0 -234 q0 -44 -16.5 -50.5 q-16.5 -6.5 -104.5 -6.5 l-144 0 q-89 0 -106 6.5 q-17 6.5 -17 50.5 l0 234 q0 44 17.5 51 q17.5 7 105.5 7 Z" /><glyph glyph-name="AE" unicode="" d="M2136 557 l-423 -1 l0 -218 l894 -1 q61 0 99 39 l21 -20 q-57 -105 -57 -373 q0 -42 19 -162.5 q19 -120.5 19 -160 q0 -39.5 -13 -58.5 q-13 -19 -31 -19 q-18 0 -31.5 21 q-13.5 21 -13.5 58 l15 221 q0 88 -31 132.5 q-31 44.5 -84 44.5 q-118 0 -118 -179 q0 -69 20.5 -200 q20.5 -131 20.5 -164 q0 -33 -15.5 -50.5 q-15.5 -17.5 -35 -17.5 q-19.5 0 -34 16.5 q-14.5 16.5 -14.5 44.5 l18 319 q0 175 -74 175 l-77 -2 l-768 0 l-5 -2 l0 -29 q0 -29 -27 -29 q-27 0 -27 29 l0 29 q-86 -9 -112 -63.5 q-26 -54.5 -26 -162 q0 -107.5 23 -254 q23 -146.5 23 -220.5 q0 -107 -76 -107 q-81 0 -81 110 q0 75 33 222 q33 147 33 223 l-5 335 l0 70 q-29 -1 -86 -1 l-412 0 q-59 0 -72 42 l-34 -18 q4 -9 4 -31.5 q0 -22.5 -33 -67.5 l-2 -1 q-33 -44 -33 -67 q0 -23 4 -32 l-33 -19 q-13 42 -72 42 l-362 0 l-8 -64 q2 -102 2 -150.5 q0 -48.5 -15.5 -72 q-15.5 -23.5 -34.5 -23.5 q-19 0 -32.5 20.5 q-13.5 20.5 -13.5 79.5 q0 59 16 133 q16 74 36 98 l1020 1236 q39 49 39 70 q0 21 -3 30 l36 18 q13 -43 72 -43 l460 0 l922 -2 q61 0 100 39 l20 -21 q-43 -43 -43 -152 l0 -65 q0 -115 43 -155 l-20 -19 q-50 51 -235 51 l-497 -23 q-184 0 -234 51 l-20 -20 q39 -38 39 -99 l0 -95 l1 0 l420 1 q156 0 206 50 l20 -20 q-44 -40 -44 -160 l0 -34 q0 -94 44 -132 l-20 -20 q-48 50 -204 50 ZM917 429 l192 0 q64 0 86 -1 l0 475 q-26 -47 -47 -73 l-253 -324 q-4 -5 -13 -16.5 q-9 -11.5 -14 -16.5 q-14 -16 -28 -25 l4 -20 q25 1 73 1 ZM33 -598 q-2 -33 -27 -33 q-11 0 -20 9.5 q-9 9.5 -9 46 q0 36.5 29 152.5 q27 -121 27 -175 Z" /><glyph glyph-name="Ccedilla" unicode="" d="M293 149 q-104 89 -159.5 223.5 q-55.5 134.5 -55.5 277.5 q0 143 26.5 238.5 q26.5 95.5 73 166 q46.5 70.5 114 126 q67.5 55.5 145.5 91.5 q78 36 171 60 q172 43 385 43 q745 0 833 -428 q12 -62 53 -95 l-17 -22 q-43 31 -93 31 q-5 0 -11 0 l-385 -24 q-67 -5 -87 -49 l-33 16 q10 22 10 38 q0 52 -34.5 90.5 q-34.5 38.5 -87.5 57.5 q-103 37 -200 37 q-148 0 -230.5 -100.5 q-82.5 -100.5 -82.5 -261 q0 -160.5 93.5 -262 q93.5 -101.5 262.5 -101.5 q54 0 120.5 26.5 q66.5 26.5 118 76.5 q51.5 50 51.5 106 q0 16 -11 40 l33 17 q24 -45 77.5 -49 q53.5 -4 138.5 -11 q187 -17 260 -17 q73 0 115 31 l16 -21 q-37 -28 -53.5 -93.5 q-16.5 -65.5 -51 -123 q-34.5 -57.5 -82.5 -102 q-48 -44.5 -109.5 -81.5 q-61.5 -37 -128.5 -63 q-67 -26 -142 -45 q-141 -36 -296 -44 l-17 -42 q265 -41 265 -219 q0 -141 -115 -193 q-55 -25 -153.5 -25 q-98.5 0 -226.5 41 l21 131 q92 -33 149 -33 q98 0 112 77 q2 10 2 21 q0 11 -3.5 24.5 q-3.5 13.5 -15 30.5 q-11.5 17 -29.5 30 q-43 32 -125 32 q-25 0 -39 -1 l0 127 q-363 20 -572 199 Z" /><glyph glyph-name="Eth" unicode="" d="M734 -247 l21 142 q0 147 -314 147 q-54 0 -75.5 -25.5 q-21.5 -25.5 -21.5 -85 q0 -59.5 18.5 -166 q18.5 -106.5 18.5 -163 q0 -56.5 -45 -56.5 q-45 0 -45 59.5 q0 59.5 14 179.5 q14 120 14 163 q0 102 -36 102 q-25 0 -25 -42 q0 -42 12.5 -97.5 q12.5 -55.5 12.5 -83.5 q0 -59 -43 -59 q-43 0 -43 60 l22 184 l0 540 l-22 0 q-25 0 -129 -13 l0 281 q49 -12 151 -14 l0 445 q0 62 -39 100 l20 21 q41 -40 100 -40 l826 0 q597 0 740 -389 q41 -110 41 -234.5 q0 -124.5 -15 -214 q-15 -89.5 -39.5 -157 q-24.5 -67.5 -68 -119.5 q-43.5 -52 -86.5 -87.5 q-43 -35.5 -110 -60.5 q-67 -25 -124 -38.5 q-57 -13.5 -143 -20.5 q-135 -11 -317 -11 l-145 0 q-84 0 -84 -120 l16 -128 q0 -38 -26 -38 q-31 0 -31 39 ZM765 552 l-31 0 q0 -72 2 -210 l227 0 q228 0 307 64 q71 58 90 160 q11 57 11 139 q0 82 -30 142 q-30 60 -80 88 q-50 28 -111 41.5 q-61 13.5 -127.5 15 q-66.5 1.5 -124.5 2.5 q-142 2 -182 42 l-20 -20 q38 -37 38 -100 l0 -110 q102 0 154 14 l0 -281 q-10 1 -34 5 q-50 8 -89 8 ZM797 -601.5 q0 -45.5 -33 -45.5 q-33 0 -33 37.5 q0 37.5 4.5 65.5 q4.5 28 15.5 71.5 q11 43.5 13 54.5 q2 -9 10.5 -42.5 q8.5 -33.5 11.5 -49.5 q11 -46 11 -91.5 Z" /><glyph glyph-name="multiply" unicode="" d="M380 1049 l112 -111 l77 78 q79 79 109 127 l234 -235 q-36 -26 -93 -83 l-107 -108 l104 -103 q63 -63 95 -87 l-234 -234 q-32 49 -112 131 l-73 74 l-108 -108 q-60 -60 -87 -96 l-234 234 q50 31 131 112 l77 77 l-82 82 q-81 79 -127 109 l235 234 q26 -36 83 -93 Z" /><glyph glyph-name="Oslash" unicode="" d="M1030 -162 l7 96 q0 25 -24 38.5 q-24 13.5 -52 13.5 q-28 0 -50 -15 q-22 -15 -22 -43 l0 -230 q0 -51 20.5 -147.5 q20.5 -96.5 20.5 -138 q0 -41.5 -17.5 -68.5 q-17.5 -27 -49 -27 q-31.5 0 -47.5 28 q-16 28 -16 73 q0 45 23 156 q23 111 23 172 q0 247 -92 247 q-124 0 -124 10 l0 -2 q0 -69 30.5 -202.5 q30.5 -133.5 30.5 -191.5 q0 -58 -21 -95.5 q-21 -37.5 -64.5 -37.5 q-43.5 0 -68 36 q-24.5 36 -24.5 93.5 q0 57.5 28.5 197 q28.5 139.5 28.5 211.5 q-36 11 -69 25 l-146 -138 q-57 -48 -110 -133 l-169 167 q44 24 148 113 l100 94 q-229 186 -229 537 q0 518 522 654 q169 44 383 44 q317 0 529 -94 l187 176 q61 53 107 131 l169 -167 q-40 -22 -144 -111 l-146 -138 q201 -176 201 -495.5 q0 -319.5 -179.5 -495 q-179.5 -175.5 -505.5 -215.5 q-4 -7 -4 -22 l4 -55 q0 -51 -27.5 -51 q-27.5 0 -27.5 49 l3 56 q0 30 -43 30 q-5 -11 -5 -34 l6 -97 q0 -30 -11 -58 q-11 -28 -37 -28 q-46 0 -46 82 ZM824 342 q73 -32 176 -32 q348 0 348 366 q0 79 -21 142 l-503 -476 ZM1205 974 q-82 48 -205 48 q-168 0 -258.5 -89.5 q-90.5 -89.5 -90.5 -256.5 q0 -115 35 -194 l519 492 Z" /><glyph glyph-name="Thorn" unicode="" d="M177 -122 l-2 203 l0 1057 l1 0 l0 113 q0 63 -38 100 l19 21 q42 -40 100 -40 l362 0 q60 0 100 40 l20 -21 q-39 -39 -39 -100 l0 -112 l419 2 q216 0 285.5 -12 q69.5 -12 124 -26.5 q54.5 -14.5 92 -34.5 q37.5 -20 76 -51 q38.5 -31 61.5 -70 q53 -87 53 -200 q0 -113 -24.5 -191.5 q-24.5 -78.5 -78.5 -141.5 q-112 -129 -381 -129 l-551 0 q-62 0 -100 39 l-20 -20 q39 -39 39 -100 l0 -123 q0 -77 -2 -189 l-44 -4 q-13 112 -35 112 l-152 0 q-7 -26 -7 -68 l26 -237 q0 -61 -44.5 -61 q-44.5 0 -44.5 62 q0 36 18.5 125.5 q18.5 89.5 18.5 126.5 l0 52 l-173 0 q-12 0 -19.5 -48.5 q-7.5 -48.5 -7.5 -93 q0 -44.5 19 -151.5 q19 -107 19 -150 q0 -92 -67 -92 q-67 0 -67 94 q0 45 22 159 q22 114 22 160 ZM695 726 l0 -58 q0 -60 -39 -99 l20 -21 q39 39 100 39 l324 0 q100 0 120.5 11 q20.5 11 33.5 23 q25 22 25 63 q0 41 -8.5 60.5 q-8.5 19.5 -24.5 30.5 q-16 11 -32 18 q-16 7 -40 10 q-31 4 -70 4 l-328 0 q-61 0 -100 39 l-20 -20 q39 -39 39 -100 Z" /><glyph glyph-name="germandbls" unicode="" d="M1165 336 l47 -1 q86 0 106 39 q9 17 9 52.5 q0 35.5 -34.5 56 q-34.5 20.5 -80.5 20.5 l-136 0 q-184 0 -234 -51 l-20 20 q44 45 44 163 l0 45 q0 129 -44 173 l20 20 q39 -39 99 -39 l142 0 q120 0 153 43 q16 21 16 48.5 q0 27.5 -22 43.5 q-37 26 -97 26 l-364 -1 q-57 0 -97 38 l-18 -20 q37 -37 37 -94 l0 -965 q0 -33 14.5 -115 q14.5 -82 14.5 -116 q0 -73 -52 -73 q-52 0 -52 72 q0 33 15.5 116.5 q15.5 83.5 15.5 117.5 q0 118 -171 118 q-171 0 -171 -97 l22 -159 q0 -61 -42.5 -61 q-42.5 0 -42.5 60 q0 28 12 83 q12 55 12 97 q0 42 -24 42 q-19 0 -28 -29.5 q-9 -29.5 -9 -72 q0 -42.5 14.5 -163 q14.5 -120.5 14.5 -180 q0 -59.5 -45 -59.5 q-45 0 -45 57.5 q0 57.5 16 159 q16 101.5 16 152.5 l1 1348 q0 62 -39 100 l20 21 q42 -40 100 -40 l949 0 q221 0 303.5 -21 q82.5 -21 134 -44 q51.5 -23 84.5 -54 q75 -70 75 -173.5 q0 -103.5 -47 -179 q-47 -75.5 -132 -82.5 l2 -20 q5 1 16 1 q113 0 178.5 -97.5 q65.5 -97.5 65.5 -244.5 q0 -157 -87 -251 q-87 -94 -208 -130 q-124 -37 -249 -37 q-32 0 -46 1 l-273 0 q-185 0 -235 -51 l-20 20 q44 45 44 168 l0 45 q0 128 -44 172 l20 20 q38 -38 100 -38 l276 0 ZM341.5 -671.5 q10.5 -40.5 15.5 -69 q5 -28.5 5 -66 q0 -37.5 -34 -37.5 q-34 0 -34 49 q0 50 15.5 108 q15.5 58 18.5 71 q3 -15 13.5 -55.5 Z" /><glyph glyph-name="ae" unicode="" d="M2136 557 l-423 -1 l0 -218 l894 -1 q61 0 99 39 l21 -20 q-57 -105 -57 -373 q0 -42 19 -162.5 q19 -120.5 19 -160 q0 -39.5 -13 -58.5 q-13 -19 -31 -19 q-18 0 -31.5 21 q-13.5 21 -13.5 58 l15 221 q0 88 -31 132.5 q-31 44.5 -84 44.5 q-118 0 -118 -179 q0 -69 20.5 -200 q20.5 -131 20.5 -164 q0 -33 -15.5 -50.5 q-15.5 -17.5 -35 -17.5 q-19.5 0 -34 16.5 q-14.5 16.5 -14.5 44.5 l18 319 q0 175 -74 175 l-77 -2 l-768 0 l-5 -2 l0 -29 q0 -29 -27 -29 q-27 0 -27 29 l0 29 q-86 -9 -112 -63.5 q-26 -54.5 -26 -162 q0 -107.5 23 -254 q23 -146.5 23 -220.5 q0 -107 -76 -107 q-81 0 -81 110 q0 75 33 222 q33 147 33 223 l-5 335 l0 70 q-29 -1 -86 -1 l-412 0 q-59 0 -72 42 l-34 -18 q4 -9 4 -31.5 q0 -22.5 -33 -67.5 l-2 -1 q-33 -44 -33 -67 q0 -23 4 -32 l-33 -19 q-13 42 -72 42 l-362 0 l-8 -64 q2 -102 2 -150.5 q0 -48.5 -15.5 -72 q-15.5 -23.5 -34.5 -23.5 q-19 0 -32.5 20.5 q-13.5 20.5 -13.5 79.5 q0 59 16 133 q16 74 36 98 l1020 1236 q39 49 39 70 q0 21 -3 30 l36 18 q13 -43 72 -43 l460 0 l922 -2 q61 0 100 39 l20 -21 q-43 -43 -43 -152 l0 -65 q0 -115 43 -155 l-20 -19 q-50 51 -235 51 l-497 -23 q-184 0 -234 51 l-20 -20 q39 -38 39 -99 l0 -95 l1 0 l420 1 q156 0 206 50 l20 -20 q-44 -40 -44 -160 l0 -34 q0 -94 44 -132 l-20 -20 q-48 50 -204 50 ZM917 429 l192 0 q64 0 86 -1 l0 475 q-26 -47 -47 -73 l-253 -324 q-4 -5 -13 -16.5 q-9 -11.5 -14 -16.5 q-14 -16 -28 -25 l4 -20 q25 1 73 1 ZM33 -598 q-2 -33 -27 -33 q-11 0 -20 9.5 q-9 9.5 -9 46 q0 36.5 29 152.5 q27 -121 27 -175 Z" /><glyph glyph-name="eth" unicode="" d="M734 -247 l21 142 q0 147 -314 147 q-54 0 -75.5 -25.5 q-21.5 -25.5 -21.5 -85 q0 -59.5 18.5 -166 q18.5 -106.5 18.5 -163 q0 -56.5 -45 -56.5 q-45 0 -45 59.5 q0 59.5 14 179.5 q14 120 14 163 q0 102 -36 102 q-25 0 -25 -42 q0 -42 12.5 -97.5 q12.5 -55.5 12.5 -83.5 q0 -59 -43 -59 q-43 0 -43 60 l22 184 l0 540 l-22 0 q-25 0 -129 -13 l0 281 q49 -12 151 -14 l0 445 q0 62 -39 100 l20 21 q41 -40 100 -40 l826 0 q597 0 740 -389 q41 -110 41 -234.5 q0 -124.5 -15 -214 q-15 -89.5 -39.5 -157 q-24.5 -67.5 -68 -119.5 q-43.5 -52 -86.5 -87.5 q-43 -35.5 -110 -60.5 q-67 -25 -124 -38.5 q-57 -13.5 -143 -20.5 q-135 -11 -317 -11 l-145 0 q-84 0 -84 -120 l16 -128 q0 -38 -26 -38 q-31 0 -31 39 ZM765 552 l-31 0 q0 -72 2 -210 l227 0 q228 0 307 64 q71 58 90 160 q11 57 11 139 q0 82 -30 142 q-30 60 -80 88 q-50 28 -111 41.5 q-61 13.5 -127.5 15 q-66.5 1.5 -124.5 2.5 q-142 2 -182 42 l-20 -20 q38 -37 38 -100 l0 -110 q102 0 154 14 l0 -281 q-10 1 -34 5 q-50 8 -89 8 ZM797 -601.5 q0 -45.5 -33 -45.5 q-33 0 -33 37.5 q0 37.5 4.5 65.5 q4.5 28 15.5 71.5 q11 43.5 13 54.5 q2 -9 10.5 -42.5 q8.5 -33.5 11.5 -49.5 q11 -46 11 -91.5 Z" /><glyph glyph-name="divide" unicode="" d="M592 78 l-144 0 q-88 0 -105 7 q-17 7 -17 51 l0 234 q0 44 17 51 q17 7 105 7 l144 0 q88 0 105 -7 q17 -7 17 -51 l0 -234 q0 -44 -17 -51 q-17 -7 -105 -7 ZM842 575 l-649 0 q-77 0 -129 -6 l0 250 q52 -13 171 -13 l565 0 q113 0 165 13 l0 -250 q-53 6 -123 6 ZM592 925 l-144 0 q-88 0 -105 7 q-17 7 -17 51 l0 234 q0 44 16.5 50.5 q16.5 6.5 105.5 6.5 l144 0 q89 0 105.5 -6.5 q16.5 -6.5 16.5 -50.5 l0 -234 q0 -44 -17 -51 q-17 -7 -105 -7 Z" /><glyph glyph-name="thorn" unicode="" d="M177 -122 l-2 203 l0 1057 l1 0 l0 113 q0 63 -38 100 l19 21 q42 -40 100 -40 l362 0 q60 0 100 40 l20 -21 q-39 -39 -39 -100 l0 -112 l419 2 q216 0 285.5 -12 q69.5 -12 124 -26.5 q54.5 -14.5 92 -34.5 q37.5 -20 76 -51 q38.5 -31 61.5 -70 q53 -87 53 -200 q0 -113 -24.5 -191.5 q-24.5 -78.5 -78.5 -141.5 q-112 -129 -381 -129 l-551 0 q-62 0 -100 39 l-20 -20 q39 -39 39 -100 l0 -123 q0 -77 -2 -189 l-44 -4 q-13 112 -35 112 l-152 0 q-7 -26 -7 -68 l26 -237 q0 -61 -44.5 -61 q-44.5 0 -44.5 62 q0 36 18.5 125.5 q18.5 89.5 18.5 126.5 l0 52 l-173 0 q-12 0 -19.5 -48.5 q-7.5 -48.5 -7.5 -93 q0 -44.5 19 -151.5 q19 -107 19 -150 q0 -92 -67 -92 q-67 0 -67 94 q0 45 22 159 q22 114 22 160 ZM695 726 l0 -58 q0 -60 -39 -99 l20 -21 q39 39 100 39 l324 0 q100 0 120.5 11 q20.5 11 33.5 23 q25 22 25 63 q0 41 -8.5 60.5 q-8.5 19.5 -24.5 30.5 q-16 11 -32 18 q-16 7 -40 10 q-31 4 -70 4 l-328 0 q-61 0 -100 39 l-20 -20 q39 -39 39 -100 Z" /><glyph glyph-name="hbar" unicode="&#x127;" d="M1257 974 l16 228 q0 102 -47 149 l20 21 q41 -40 100 -40 l353 0 q60 0 100 40 l20 -21 q-39 -39 -39 -100 l0 -1170 q0 -60 39 -100 l-20 -20 q-39 39 -100 39 l-353 0 q-61 0 -100 -39 l-20 20 q38 38 38 100 l-2 336 q0 60 38 99 l-20 20 q-38 -38 -100 -38 l-410 0 q-61 0 -100 38 l-20 -20 q2 -23 2 -242 l0 -451 q0 -91 23 -258 q23 -167 23 -236 q0 -69 -16.5 -94 q-16.5 -25 -39.5 -25 q-23 0 -39.5 24.5 q-16.5 24.5 -16.5 50 q0 25.5 10 117.5 q30 278 30 418 q0 69 -42 120 q-82 99 -225 99 q-73 0 -122.5 -34 q-49.5 -34 -49.5 -94.5 q0 -60.5 19.5 -177.5 q19.5 -117 19.5 -162 q0 -93 -58 -93 q-27 0 -46 20.5 q-19 20.5 -19 67 q0 46.5 32.5 166.5 q32.5 120 32.5 187 l0 1332 q0 63 -38 100 l19 21 q41 -40 100 -40 l359 0 q59 0 99 40 l21 -21 q-46 -46 -46 -150 l15 -230 q0 -103 -47 -150 l20 -21 q39 39 100 39 l414 0 q61 0 99 -39 l21 21 q-47 48 -47 153 ZM1285 919 q71 0 124 -6 l0 331 q-52 -13 -166 -13 l-484 0 q-118 0 -170 13 l0 -331 q52 6 128 6 l568 0 Z" /><glyph glyph-name="dotlessi" unicode="&#x131;" d="M559 0 l-291 0 q-61 0 -100 -39 l-20 20 q39 39 39 100 l0 1172 q0 61 -39 100 l20 19 q38 -38 100 -38 l291 0 q62 0 100 38 l20 -19 q-39 -39 -39 -100 l0 -1172 q0 -61 39 -100 l-20 -20 q-39 39 -100 39 Z" /><glyph glyph-name="IJ" unicode="&#x132;" d="M638 -539 l11 266 q0 129 -9.5 163 q-9.5 34 -19.5 60 q-10 26 -26 42 q-16 16 -38 30 q-42 28 -132 28 q-90 0 -151.5 -73 q-61.5 -73 -61.5 -175 q0 -38 15 -113.5 q15 -75.5 15 -113.5 q0 -72 -51 -72 q-51 0 -51 70 q0 39 15.5 117 q15.5 78 15.5 118 l7 268 l0 1175 q0 62 -39 100 l20 21 q42 -40 100 -40 l362 0 q60 0 100 40 l20 -21 q-39 -39 -39 -100 l0 -1170 q0 -52 -11 -179.5 q-11 -127.5 -7 -196.5 l-1 0 q37 -166 37 -253 q0 -87 -33 -87 q-48 0 -48 96 ZM1525 -130 l20 -158 q0 -24 -8.5 -50 q-8.5 -26 -27.5 -26 q-30 0 -30 74 q0 31 14 91.5 q14 60.5 14 92.5 q0 62 -64 70 q-229 34 -347 110 q-112 72 -151 160 q-36 82 -40.5 147.5 q-4.5 65.5 -8.5 99.5 q-8 81 -38 106 l9 10 q29 -27 51 -27 q88 0 219.5 23.5 q131.5 23.5 181 29 q49.5 5.5 85.5 50.5 l22 -17 q-32 -40 -32 -91 q0 -51 10.5 -96.5 q10.5 -45.5 33.5 -84.5 q50 -87 158.5 -87 q108.5 0 165 63 q56.5 63 56.5 172 l2 719 q0 62 -39 100 l20 21 q40 -40 100 -40 l348 0 q61 0 100 40 l20 -21 q-39 -38 -39 -100 l0 -778 q0 -327 -299 -451 l-1 0 l0 -217 q0 -35 16.5 -103 q16.5 -68 16.5 -102 q0 -54 -43 -54 q-37 0 -37 41 q0 41 13.5 103 q13.5 62 13.5 106.5 q0 44.5 -42 89.5 q-82 85 -211 85 q-35 0 -53 -25.5 q-18 -25.5 -18 -67.5 q0 -42 18 -132.5 q18 -90.5 18 -125.5 q0 -77 -41 -77 q-41 0 -41 72 l23 290 q0 33 -30 53.5 q-30 20.5 -64 20.5 q-44 0 -44 -109 ZM2052 -777 q0 -37 -25 -37 q-25 0 -25 36 q0 84 25 191 q25 -105 25 -190 Z" /><glyph glyph-name="ij" unicode="&#x133;" d="M638 -539 l11 266 q0 129 -9.5 163 q-9.5 34 -19.5 60 q-10 26 -26 42 q-16 16 -38 30 q-42 28 -132 28 q-90 0 -151.5 -73 q-61.5 -73 -61.5 -175 q0 -38 15 -113.5 q15 -75.5 15 -113.5 q0 -72 -51 -72 q-51 0 -51 70 q0 39 15.5 117 q15.5 78 15.5 118 l7 268 l0 1175 q0 62 -39 100 l20 21 q42 -40 100 -40 l362 0 q60 0 100 40 l20 -21 q-39 -39 -39 -100 l0 -1170 q0 -52 -11 -179.5 q-11 -127.5 -7 -196.5 l-1 0 q37 -166 37 -253 q0 -87 -33 -87 q-48 0 -48 96 ZM1525 -130 l20 -158 q0 -24 -8.5 -50 q-8.5 -26 -27.5 -26 q-30 0 -30 74 q0 31 14 91.5 q14 60.5 14 92.5 q0 62 -64 70 q-229 34 -347 110 q-112 72 -151 160 q-36 82 -40.5 147.5 q-4.5 65.5 -8.5 99.5 q-8 81 -38 106 l9 10 q29 -27 51 -27 q88 0 219.5 23.5 q131.5 23.5 181 29 q49.5 5.5 85.5 50.5 l22 -17 q-32 -40 -32 -91 q0 -51 10.5 -96.5 q10.5 -45.5 33.5 -84.5 q50 -87 158.5 -87 q108.5 0 165 63 q56.5 63 56.5 172 l2 719 q0 62 -39 100 l20 21 q40 -40 100 -40 l348 0 q61 0 100 40 l20 -21 q-39 -38 -39 -100 l0 -778 q0 -327 -299 -451 l-1 0 l0 -217 q0 -35 16.5 -103 q16.5 -68 16.5 -102 q0 -54 -43 -54 q-37 0 -37 41 q0 41 13.5 103 q13.5 62 13.5 106.5 q0 44.5 -42 89.5 q-82 85 -211 85 q-35 0 -53 -25.5 q-18 -25.5 -18 -67.5 q0 -42 18 -132.5 q18 -90.5 18 -125.5 q0 -77 -41 -77 q-41 0 -41 72 l23 290 q0 33 -30 53.5 q-30 20.5 -64 20.5 q-44 0 -44 -109 ZM2052 -777 q0 -37 -25 -37 q-25 0 -25 36 q0 84 25 191 q25 -105 25 -190 Z" /><glyph glyph-name="kgreenlandic" unicode="&#x138;" d="M651 376 q45 -22 45 -82 l0 -213 q0 -61 39 -100 l-20 -20 q-39 39 -100 39 l-347 0 q-61 0 -100 -39 l-20 20 q39 39 39 100 l0 1170 q0 61 -39 100 l20 21 q40 -40 100 -40 l347 0 q60 0 100 40 l20 -21 q-39 -39 -39 -100 l0 -311 q0 -60 -24 -115 l15 -6 q23 54 67 96 l377 361 q23 22 28.5 40 q5.5 18 -3.5 48 l35 13 q19 -45 79 -45 l502 0 q56 0 116 22 l5 -14 q-56 -21 -101 -61 l-406 -353 q-44 -40 -99 -33 l-4 -31 q54 -5 88 -56 l518 -739 q34 -50 86 -78 l-9 -16 q-51 27 -112 27 l-483 0 q-60 0 -84 -45 l-32 17 q14 29 11 48.5 q-3 19.5 -21 47.5 l-286 422 q-33 51 -26 106 l-27 3 q-7 -54 -55 -93 l-92 -79 q-26 -21 -44.5 -25 q-18.5 -4 -47.5 7 l-16 -33 Z" /><glyph glyph-name="Ldotaccent" unicode="&#x13f;" d="M1447 745 l-143 0 q-5 0 -48 -0.5 q-43 -0.5 -59 7.5 q-16 8 -16 51 l0 234 q0 42 16 50 q16 8 59 8 q43 0 48 0 l143 0 q5 0 21.5 0 q16.5 0 26 0 q9.5 0 24.5 -1 q15 -1 19.5 -2 q4.5 -1 12.5 -4.5 q8 -3.5 10 -7 q2 -3.5 4 -10.5 q4 -8 4 -33 l0 -234 q0 -43 -16 -51 q-16 -8 -55 -7.5 q-39 0.5 -41 0.5 q-6 0 -10 0 ZM1573 264 l-4 -130 q0 -109 44 -153 l-21 -20 q-38 39 -100 39 l-291 0 q1 -14 1 -37 q0 -56 -28 -56 q-28 0 -28 63 q0 19 1 30 l-895 0 q-24 0 -41.5 -86.5 q-17.5 -86.5 -17.5 -138.5 q0 -52 24 -186.5 q24 -134.5 24 -210 q0 -75.5 -59 -75.5 q-64 0 -64 78 q0 78 27 216.5 q27 138.5 27 208.5 l-1 1445 q0 61 -40 100 l21 21 q41 -40 100 -40 l358 0 q61 0 100 40 l21 -21 q-40 -39 -40 -100 l0 -825 q0 -60 -39 -99 l21 -21 q51 51 223 51 l474 -24 q171 0 222 51 l21 -20 q-40 -39 -40 -100 ZM1208 -444 q0 -41 -34 -41 q-34 0 -34 49 q0 43 16.5 105.5 q16.5 62.5 17.5 67.5 q2 -10 10 -41 q8 -31 12 -48 q12 -51 12 -92 Z" /><glyph glyph-name="Lslash" unicode="&#x141;" d="M986 704 l-722 -147 q-83 -18 -125 -33 l-65 325 q51 -3 170 22 l640 131 q114 23 161 45 l65 -325 q-55 -5 -124 -18 ZM1708 264 l-5 -130 q0 -110 43 -153 l-20 -20 q-38 39 -99 39 l-292 0 q1 -14 1 -37 q0 -56 -28 -56 q-28 0 -28 63 q0 19 1 30 l-895 0 q-24 0 -41.5 -86.5 q-17.5 -86.5 -17.5 -138.5 q0 -52 24.5 -186.5 q24.5 -134.5 24.5 -210 q0 -75.5 -62 -75.5 q-62 0 -62 78 q0 78 27 216.5 q27 138.5 27 208.5 l-2 1445 q0 63 -38 100 l20 21 q41 -40 100 -40 l359 0 q60 0 99 40 l20 -21 q-38 -37 -38 -100 l0 -825 q0 -60 -39 -99 l20 -21 q51 51 223 51 l473 -24 q172 0 223 51 l20 -20 q-38 -37 -38 -100 ZM1341 -445.5 q0 -39.5 -33 -39.5 q-33 0 -33 45 q0 45 33 177 q1 -6 10 -40.5 q9 -34.5 12 -48.5 q11 -54 11 -93.5 Z" /><glyph glyph-name="lslash" unicode="&#x142;" d="M1004 740 l-722 -147 q-83 -18 -125 -33 l-65 325 q51 -3 170 22 l640 131 q114 23 161 45 l65 -325 q-55 -5 -124 -18 ZM1708 264 l-5 -130 q0 -110 43 -153 l-20 -20 q-38 39 -99 39 l-292 0 q1 -14 1 -37 q0 -56 -28 -56 q-28 0 -28 63 q0 19 1 30 l-895 0 q-24 0 -41.5 -86.5 q-17.5 -86.5 -17.5 -138.5 q0 -52 24.5 -186.5 q24.5 -134.5 24.5 -210 q0 -75.5 -62 -75.5 q-62 0 -62 78 q0 78 27 216.5 q27 138.5 27 208.5 l-2 1445 q0 63 -38 100 l20 21 q41 -40 100 -40 l359 0 q60 0 99 40 l20 -21 q-38 -37 -38 -100 l0 -825 q0 -60 -39 -99 l20 -21 q51 51 223 51 l473 -24 q172 0 223 51 l20 -20 q-38 -37 -38 -100 ZM1341 -445.5 q0 -39.5 -33 -39.5 q-33 0 -33 45 q0 45 33 177 q1 -6 10 -40.5 q9 -34.5 12 -48.5 q11 -54 11 -93.5 Z" /><glyph glyph-name="OE" unicode="&#x152;" d="M100 500 q-18 82 -18 200 q0 118 44.5 229 q44.5 111 123.5 186.5 q79 75.5 193 124.5 q213 93 543 93 l1496 -1 q60 0 99 39 l21 -21 q-39 -39 -39 -99 l0 -175 q0 -61 39 -100 l-21 -19 q-38 38 -99 38 l-647 0 q-60 0 -99 39 l-21 -20 q39 -39 39 -98 l0 -2 q0 -60 -39 -99 l21 -19 q38 38 99 38 l508 0 q61 0 100 39 l19 -20 q-38 -38 -38 -100 l0 -174 q0 -62 38 -100 l-19 -21 q-40 40 -100 40 l-510 0 q-59 0 -97 38 l-20 -20 q38 -38 38 -97.5 q0 -59.5 -39 -98.5 l21 -19 q37 37 97 37 l695 -1 q61 0 100 39 l20 -20 q-39 -39 -39 -100 l0 -173 q0 -61 39 -100 l-20 -20 q-39 39 -100 39 l-1542 -3 q-773 0 -886 501 ZM986 310 l169 1 q61 2 100 -37 l21 20 q-39 39 -39 99 l0 547 q0 61 39 100 l-21 20 q-38 -38 -100 -38 q-85 0 -169 0 q-163 0 -255.5 -86 q-92.5 -86 -92.5 -260 q0 -366 348 -366 Z" /><glyph glyph-name="scedilla" unicode="&#x15f;" d="M1775 580 q11 -45 11 -124.5 q0 -79.5 -44 -164 q-44 -84.5 -114.5 -137.5 q-70.5 -53 -166.5 -88 q-173 -63 -395 -63 q-36 0 -100.5 -1.5 q-64.5 -1.5 -110 -2 q-45.5 -0.5 -112 1 q-66.5 1.5 -115.5 6 q-49 4.5 -110.5 15 q-61.5 10.5 -107.5 27 q-46 16.5 -95 42.5 q-49 26 -85 60 q-81 76 -115 187 q-20 65 -67 98 l15 21 q45 -30 97.5 -30 q52.5 0 134.5 4 q82 4 185 9.5 q103 5.5 147 7.5 q44 2 65 12.5 q21 10.5 30 38.5 l45 -15 q-3 -8 -3 -21 q0 -33 55 -75 q55 -42 199 -42 q97 0 138 33 q18 15 18 36 q0 49 -54 65 q-54 16 -130.5 27.5 q-76.5 11.5 -153 18.5 q-76.5 7 -165.5 20 q-89 13 -168 28.5 q-79 15.5 -153.5 45.5 q-74.5 30 -127.5 70.5 q-53 40.5 -85.5 104 q-32.5 63.5 -32.5 144.5 q0 81 25.5 148 q25.5 67 69.5 115 q44 48 106.5 85 q62.5 37 131 60 q68.5 23 149.5 37 q141 26 266 26 q125 0 190.5 -3.5 q65.5 -3.5 154 -13 q88.5 -9.5 160 -31 q71.5 -21.5 141.5 -54.5 q146 -68 205 -211 q24 -51 66 -95 l-13 -23 q-42 29 -97 29 l-13 0 q-80 -3 -228.5 -11.5 q-148.5 -8.5 -191 -10.5 q-42.5 -2 -61 -12 q-18.5 -10 -26.5 -38 l-44 12 q3 9 3 19 q0 42 -68 72.5 q-68 30.5 -154 30.5 q-168 0 -168 -66 q0 -59 252 -86 q59 -7 134 -14 q261 -27 400 -71 q235 -74 281 -253 ZM866 -130 l0 150 l184 0 l-26 -66 q265 -41 265 -219 q0 -168 -157 -207 q-43 -11 -126 -11 q-83 0 -212 41 l21 131 q92 -33 138 -33 q46 0 70 9.5 q24 9.5 35 26.5 q20 29 20 51 q0 22 -3.5 35 q-3.5 13 -15 30.5 q-11.5 17.5 -29.5 30.5 q-43 32 -125 32 q-25 0 -39 -1 Z" /><glyph glyph-name="Tcommaaccent" unicode="&#x162;" d="M92 1073 l5 128 q0 110 -43 152 l20 20 q40 -39 99 -39 l1313 0 q61 0 100 39 l20 -20 q-38 -38 -38 -100 l-5 -128 q0 -108 43 -151 l-20 -21 q-45 46 -146 46 l-221 -14 q-105 0 -151 46 l-21 -20 q39 -38 39 -100 l0 -910 l-522 -1 l0 90 q2 548 2 821 q0 63 38 100 l-20 20 q-44 -45 -146 -45 l-215 13 q-103 0 -149 -46 l-20 21 q38 38 38 99 ZM924 -572 q24 -110 24 -191 q0 -35 -25 -35 q-25 0 -25 32 q0 90 26 194 ZM709 -151 l0 150 l184 0 l-26 -66 q265 -41 265 -219 q0 -116 -70.5 -167 q-70.5 -51 -183 -51 q-112.5 0 -241.5 41 l21 131 q92 -33 138 -33 q46 0 70 10 q24 10 35 26 q20 29 20 53 q0 24 -7 41 q-7 17 -24 37 q-38 48 -142 48 q-25 0 -39 -1 Z" /><glyph glyph-name="Uogonek" unicode="&#x172;" d="M1732 1130 l9 -511 q0 -416 -332 -587 q-194 -100 -474 -102 q-241 0 -332.5 20 q-91.5 20 -149 41.5 q-57.5 21.5 -100 50.5 q-42.5 29 -83 72 q-40.5 43 -66.5 97 q-55 118 -59 285 q-2 93 -2 277 l2 462 q0 59 -39 99 l21 20 q37 -38 99 -38 l354 0 q61 0 99 38 l21 -20 q-38 -39 -38 -99 l2 -514 q0 -149 8 -189 q8 -40 17.5 -73.5 q9.5 -33.5 23 -53.5 q13.5 -20 34.5 -42.5 q21 -22.5 48 -34.5 q63 -28 123.5 -28 q60.5 0 94 5.5 q33.5 5.5 59 18 q25.5 12.5 46 27 q20.5 14.5 35 37 q14.5 22.5 25.5 43 q11 20.5 17.5 51.5 q6.5 31 10.5 54.5 q4 23.5 6 59.5 q3 55 3 125 l2 514 q0 61 -37 99 l19 20 q38 -38 100 -38 l354 0 q63 0 100 38 l20 -20 q-41 -42 -41 -204 ZM942 5 l0 -77 q-155 -37 -196 -120 q-16 -32 -16 -69 q0 -90 87 -90 q46 0 119 25 l21 -131 q-112 -41 -213 -41 q-224 0 -224 218 q0 123 94.5 191.5 q94.5 68.5 327.5 93.5 Z" /><glyph glyph-name="dotlessj" unicode="&#x237;" d="M690 -130 l20 -158 q0 -24 -8.5 -50 q-8.5 -26 -27.5 -26 q-30 0 -30 74 q0 31 14 91.5 q14 60.5 14 92.5 q0 62 -64 70 q-254 38 -374 128 q-114 84 -142 186 q-28 103 -29 164 q-3 111 -41 145 l9 10 q29 -27 52 -27 q88 0 219.5 23.5 q131.5 23.5 181 29 q49.5 5.5 85.5 50.5 l22 -17 q-32 -40 -32 -91 q0 -51 10.5 -96.5 q10.5 -45.5 32.5 -84.5 q50 -87 158.5 -87 q108.5 0 165.5 63 q57 63 57 172 l1 719 q0 63 -38 100 l20 21 q40 -40 100 -40 l348 0 q61 0 100 40 l20 -21 q-39 -38 -39 -100 l0 -778 q0 -327 -299 -451 l-1 0 l0 -217 q0 -35 16.5 -103 q16.5 -68 16.5 -102 q0 -54 -43 -54 q-37 0 -37 41.5 q0 41.5 13 103.5 q13 62 13 106 q0 44 -42 89 q-81 85 -210 85 q-35 0 -53.5 -25.5 q-18.5 -25.5 -18.5 -67.5 q0 -42 18 -132.5 q18 -90.5 18 -125.5 q0 -77 -40 -77 q-22 0 -32 23.5 q-10 23.5 -10 48.5 l24 290 q0 33 -30 53.5 q-30 20.5 -64 20.5 q-44 0 -44 -109 ZM1217 -777 q0 -37 -25 -37 q-25 0 -25 36 q0 84 25 191 q25 -105 25 -190 Z" /><glyph glyph-name="circumflex" unicode="&#x2c6;" d="M657 1520 q61 0 85 44 l31 -16 q-14 -29 -11 -48 q3 -19 21 -47 l171 -260 q34 -52 85 -79 l-10 -16 q-49 27 -112 27 l-179 0 q-61 0 -90 -43 l-27 19 q28 44 7 100 l-37 93 q-21 56 -21 116 l-15 0 q0 -60 -21 -116 l-37 -93 q-21 -56 7 -100 l-28 -19 q-29 43 -89 43 l-179 0 q-63 0 -112 -27 l-10 16 q51 27 85 79 l171 260 q18 28 21 47 q3 19 -11 48 l31 16 q24 -44 85 -44 l189 0 Z" /><glyph glyph-name="caron" unicode="&#x2c7;" d="M414 1125 q-63 0 -85 -43 l-31 16 q14 29 11 48 q-3 19 -21 47 l-171 260 q-33 50 -85 78 l9 17 q50 -28 113 -28 l179 0 q61 0 90 43 l27 -19 q-28 -43 -7 -99 l36 -94 q22 -58 22 -116 l15 0 q0 61 21 116 l37 94 q21 56 -7 99 l27 19 q29 -43 90 -43 l179 0 q62 0 112 28 l10 -17 q-52 -28 -85 -78 l-171 -260 q-18 -28 -21 -47 q-3 -19 11 -48 l-31 -16 q-22 43 -85 43 l-189 0 Z" /><glyph glyph-name="breve" unicode="&#x2d8;" d="M624 1711 l220 0 q-4 -146 -98 -254 q-99 -113 -283 -113 q-179 0 -279 114 q-93 107 -101 253 l219 0 q5 -62 47 -106 q42 -44 114.5 -44 q72.5 0 115 43.5 q42.5 43.5 45.5 106.5 Z" /><glyph glyph-name="dotaccent" unicode="&#x2d9;" d="M428 1436 l-143 0 q-89 0 -105.5 6.5 q-16.5 6.5 -16.5 50.5 l0 234 q0 44 17 51 q17 7 105 7 l143 0 q88 0 105.5 -7 q17.5 -7 17.5 -51 l0 -234 q0 -44 -17 -50.5 q-17 -6.5 -106 -6.5 Z" /><glyph glyph-name="ring" unicode="&#x2da;" d="M322.5 1883.5 q-50.5 -63.5 -50.5 -149.5 q0 -86 50.5 -149.5 q50.5 -63.5 141.5 -63.5 q91 0 141 63.5 q50 63.5 50 149.5 q0 86 -50 149.5 q-50 63.5 -141 63.5 q-91 0 -141.5 -63.5 ZM116.5 1598 q-23.5 65 -23.5 136 q0 71 23.5 135.5 q23.5 64.5 68 117.5 q44.5 53 117 84.5 q72.5 31.5 162.5 31.5 q90 0 162.5 -31.5 q72.5 -31.5 116.5 -84.5 q44 -53 67.5 -117.5 q23.5 -64.5 23.5 -135.5 q0 -71 -23.5 -136 q-23.5 -65 -67.5 -118 q-44 -53 -116.5 -84.5 q-72.5 -31.5 -162.5 -31.5 q-90 0 -162.5 31.5 q-72.5 31.5 -117 84.5 q-44.5 53 -68 118 Z" /><glyph glyph-name="ogonek" unicode="&#x2db;" d="M488 0 l0 -77 q-155 -37 -196 -120 q-16 -32 -16 -69 q0 -90 87 -90 q46 0 119 25 l21 -131 q-112 -41 -213 -41 q-224 0 -224 218 q0 123 94.5 191.5 q94.5 68.5 327.5 93.5 Z" /><glyph glyph-name="tilde" unicode="&#x2dc;" d="M518 1195 q-44 0 -44 -101 l-347 3 q-3 29 -3 109 q0 80 23.5 155 q23.5 75 67.5 116 q83 77 219 77 q129 0 256.5 -58 q127.5 -58 167.5 -58 q54 0 54 90 l347 -2 q2 -50 2 -115 q0 -65 -20.5 -141.5 q-20.5 -76.5 -58.5 -118.5 q-72 -78 -197 -78 q-171 0 -304.5 61 q-133.5 61 -162.5 61 Z" /><glyph glyph-name="hungarumlaut" unicode="&#x2dd;" d="M651 1342 l-360 -309 q-39 -33 -51 -48.5 q-12 -15.5 -13.5 -16.5 q-1.5 -1 -4.5 5 q-15 26 -46 48 q-55 39 -107 66 q-1 1 5 6 q25 18 52 61 l270 417 q27 40 32 61 q5 21 6 22 q2 1 7 -6 q23 -30 59 -63 l153 -136 q36 -32 55 -41 q19 -9 20 -10.5 q1 -1.5 -5 -4.5 q-35 -20 -72 -51 ZM1198 1342 l-361 -309 q-39 -33 -51 -48.5 q-12 -15.5 -13.5 -16.5 q-1.5 -1 -4.5 5 q-15 26 -59 56 q-35 30 -93 58 q-1 1 5 6 q25 18 52 61 l269 417 q27 40 32.5 61 q5.5 21 6.5 21.5 q1 0.5 2.5 -0.5 q1.5 -1 3.5 -3.5 q2 -2.5 5 -6.5 q3 -4 8 -10.5 q5 -6.5 11 -12.5 q15 -16 35 -35 l154 -136 q36 -32 55 -41 q19 -9 20 -10.5 q1 -1.5 -5 -4.5 q-35 -20 -72 -51 Z" /><glyph glyph-name="dotaccentcmb" unicode="&#x307;" d="M426 528 l-143 0 q-88 0 -105.5 7 q-17.5 7 -17.5 51 l0 234 q0 44 17.5 51 q17.5 7 105.5 7 l143 0 q88 0 105 -7 q17 -7 17 -51 l0 -234 q0 -44 -17 -51 q-17 -7 -105 -7 Z" /><glyph glyph-name="uni0311" unicode="&#x311;" d="M875 1364 l-231 0 q-3 63 -42 106.5 q-39 43.5 -107.5 43.5 q-68.5 0 -108.5 -44 q-40 -44 -44 -106 l-229 0 q8 147 102 253 q101 114 279 114 q263 0 354 -229 q25 -65 27 -138 Z" /><glyph glyph-name="uni0326" unicode="&#x326;" d="M591 271 l-1 -190 q0 -179 -146 -383 l-151 12 q59 120 80 248 l7 42 l-161 0 q-61 0 -71 10 q-10 10 -10 71 l0 122 q0 5 0 47.5 q0 42.5 7.5 58.5 q7.5 16 47.5 16 l276 0 q7 0 49 0 q42 0 57.5 -7.5 q15.5 -7.5 15.5 -46.5 Z" /><glyph glyph-name="endash" unicode="&#x2013;" d="M858 559 l-568 0 q-76 0 -129 -6 l0 331 q52 -13 171 -13 l483 0 q114 0 166 13 l0 -331 q-52 6 -123 6 Z" /><glyph glyph-name="emdash" unicode="&#x2014;" d="M1263 559 l-973 0 q-76 0 -129 -6 l0 331 q52 -13 171 -13 l889 0 q113 0 165 13 l0 -331 q-53 6 -123 6 Z" /><glyph glyph-name="quoteleft" unicode="&#x2018;" d="M355 1043 l162 0 q61 0 70.5 -10 q9.5 -10 9.5 -71 l0 -122 q0 -87 -6.5 -104.5 q-6.5 -17.5 -48.5 -17.5 l-277 0 q-87 0 -104 6.5 q-17 6.5 -17 48.5 l0 189 q0 101 46.5 204.5 q46.5 103.5 100.5 179.5 l151 -13 q-60 -123 -80 -247 l-7 -43 Z" /><glyph glyph-name="quoteright" unicode="&#x2019;" d="M563 1089 q0 -176 -148 -383 l-149 12 q62 127 86 290 l-161 0 q-61 0 -71 10 q-10 10 -10 71 l0 122 q0 5 0 31.5 q0 26.5 0.5 42 q0.5 15.5 6.5 30 q6 14.5 16 16.5 q10 2 32 2 l276 0 q7 0 49.5 0 q42.5 0 58 -7.5 q15.5 -7.5 15.5 -46.5 l-1 -190 Z" /><glyph glyph-name="quotesinglbase" unicode="&#x201a;" d="M563 1089 q0 -176 -148 -383 l-149 12 q62 127 86 290 l-161 0 q-61 0 -71 10 q-10 10 -10 71 l0 122 q0 5 0 31.5 q0 26.5 0.5 42 q0.5 15.5 6.5 30 q6 14.5 16 16.5 q10 2 32 2 l276 0 q7 0 49.5 0 q42.5 0 58 -7.5 q15.5 -7.5 15.5 -46.5 l-1 -190 Z" /><glyph glyph-name="quotedblleft" unicode="&#x201c;" d="M355 1043 l162 0 q61 0 70.5 -10 q9.5 -10 9.5 -71 l0 -122 q0 -87 -6.5 -104.5 q-6.5 -17.5 -48.5 -17.5 l-277 0 q-87 0 -104 6.5 q-17 6.5 -17 48.5 l0 189 q0 101 46.5 204.5 q46.5 103.5 100.5 179.5 l151 -13 q-60 -123 -80 -247 l-7 -43 ZM718 797 l1 165 q0 101 46.5 204 q46.5 103 101.5 180 l150 -13 q-60 -123 -80 -247 l-7 -43 l161 0 q61 0 71 -10 q10 -10 10 -71 l0 -122 q0 -87 -6.5 -104.5 q-6.5 -17.5 -48.5 -17.5 l-276 0 q-88 0 -105.5 6.5 q-17.5 6.5 -17.5 48.5 l0 24 Z" /><glyph glyph-name="quotedblright" unicode="&#x201d;" d="M563 1090 q0 -176 -148 -383 l-149 12 q62 127 86 290 l-161 0 q-61 0 -71 10 q-10 10 -10 71 l0 122 q0 5 0 31.5 q0 26.5 0.5 42 q0.5 15.5 6.5 30 q6 14.5 16 16.5 q10 2 32 2 l276 0 q7 0 49.5 0 q42.5 0 58 -7.5 q15.5 -7.5 15.5 -46.5 l-1 -190 ZM931 1009 l-162 0 q-61 0 -71 10 q-10 10 -10 71 l0 122 q0 4 0 29.5 q0 25.5 0.5 42 q0.5 16.5 6.5 31.5 q6 15 16.5 17 q10.5 2 32.5 2 l276 0 q7 0 49 0 q42 0 57 -7 q15 -7 15 -47 l0 -190 q0 -177 -147 -383 l-150 12 q62 127 87 290 Z" /><glyph glyph-name="quotedblbase" unicode="&#x201e;" d="M563 1090 q0 -176 -148 -383 l-149 12 q62 127 86 290 l-161 0 q-61 0 -71 10 q-10 10 -10 71 l0 122 q0 5 0 31.5 q0 26.5 0.5 42 q0.5 15.5 6.5 30 q6 14.5 16 16.5 q10 2 32 2 l276 0 q7 0 49.5 0 q42.5 0 58 -7.5 q15.5 -7.5 15.5 -46.5 l-1 -190 ZM931 1009 l-162 0 q-61 0 -71 10 q-10 10 -10 71 l0 122 q0 4 0 29.5 q0 25.5 0.5 42 q0.5 16.5 6.5 31.5 q6 15 16.5 17 q10.5 2 32.5 2 l276 0 q7 0 49 0 q42 0 57 -7 q15 -7 15 -47 l0 -190 q0 -177 -147 -383 l-150 12 q62 127 87 290 Z" /><glyph glyph-name="bullet" unicode="&#x2022;" d="M292 624 q-48 0 -48 -45 q0 -45 17.5 -64.5 q17.5 -19.5 61.5 -19.5 q57 0 57 81 q0 21 -29 34.5 q-29 13.5 -59 13.5 ZM196 443 l8 48 q0 7 -12 36 q-46 97 -46 180 q0 114 88 176.5 q88 62.5 215 62.5 q127 0 210 -66.5 q83 -66.5 83 -181.5 q0 -39 -5.5 -55 q-5.5 -16 -27 -68.5 q-21.5 -52.5 -21.5 -70.5 l10 -58 q0 -22 -10.5 -30.5 q-10.5 -8.5 -41.5 -15.5 q-59 -14 -84 -78 l-10 3 l-13 29 q-103 -3 -146.5 -9.5 q-43.5 -6.5 -60.5 -28.5 l-12 6 q-4 39 -19 54 q-15 15 -48.5 19 q-33.5 4 -45 12.5 q-11.5 8.5 -11.5 35.5 ZM577 252 q8 67 16.5 78 q8.5 11 16.5 16 q0 -21 -4 -52.5 q-4 -31.5 -6 -58.5 q-63 -98 -161 -98 q-57 0 -91 24 q-34 24 -69 74 l0 99 l39 -84 q76 -25 200 -10 q43 6 59 12 ZM588 624 q-30 0 -59 -13.5 q-29 -13.5 -29 -34.5 q0 -81 57 -81 q44 0 61.5 19.5 q17.5 19.5 17.5 64.5 q0 45 -48 45 ZM417 434 l59 4 q8 0 14 8.5 q6 8.5 6 20.5 q0 12 -13 35 q-25 17 -40 35 q-2 -4 -27 -33.5 q-25 -29.5 -25 -38.5 q0 -31 26 -31 Z" /><glyph glyph-name="ellipsis" unicode="&#x2026;" d="M406 0 l-143 0 q-88 0 -105.5 7 q-17.5 7 -17.5 51 l0 193 q0 44 17.5 51 q17.5 7 105.5 7 l143 0 q88 0 105 -7 q17 -7 17 -51 l0 -193 q0 -44 -17 -51 q-17 -7 -105 -7 ZM996 0 l-143 0 q-88 0 -105 7 q-17 7 -17 51 l0 193 q0 44 17 51 q17 7 105 7 l143 0 q88 0 105.5 -7 q17.5 -7 17.5 -51 l0 -193 q0 -44 -17.5 -51 q-17.5 -7 -105.5 -7 ZM1587 0 l-144 0 q-88 0 -105 7 q-17 7 -17 51 l0 193 q0 44 17 51 q17 7 105 7 l144 0 q88 0 105 -7 q17 -7 17 -51 l0 -193 q0 -44 -17 -51 q-17 -7 -105 -7 Z" /><glyph glyph-name="guilsinglleft" unicode="&#x2039;" d="M100 487 q0 0 0 356 q0 20 30 39 l604 370 q38 22 59 60 l12 -7 q-20 -34 -20 -82 l1 -294 q0 -44 32 -62 l-13 -23 q-22 9 -38 9 q-16 0 -53 -19.5 q-37 -19.5 -76.5 -47 q-39.5 -27.5 -80.5 -55.5 q-100 -66 -165 -66 l0 -15 l5 0 q69 0 201 -95 q132 -95 176 -95 q11 0 31 10 l13 -23 q-32 -18 -32 -63 l-1 -276 q0 -46 20 -82 l-12 -7 q-21 38 -59 60 l-604 375 q-30 20 -30 33 Z" /><glyph glyph-name="guilsinglright" unicode="&#x203a;" d="M867 491 q0 -15 -8.5 -21.5 q-8.5 -6.5 -22.5 -15.5 l-603 -375 q-36 -21 -58 -60 l-13 7 q21 38 21 82 l-2 276 q0 45 -32 63 l13 23 q20 -10 41 -10 q21 0 92.5 47.5 q71.5 47.5 149.5 95 q78 47.5 124 47.5 l5 0 l0 15 q-79 0 -205 94 q-126 94 -176 94 q-9 0 -31 -9 l-13 23 q32 18 32 62 l2 294 q0 46 -21 82 l13 7 q22 -39 58 -60 l603 -370 q31 -20 31 -39 l0 -352 Z" /><glyph glyph-name="fraction" unicode="&#x2044;" d="M373 -1 l-355 0 q32 54 72 171 l299 996 q28 127 29 166 l356 0 q-36 -61 -72 -166 l-298 -996 q-28 -112 -31 -171 Z" /><glyph glyph-name="Euro" unicode="&#x20ac;" d="M852 -499 l20 475 q-508 69 -610 493 l-64 0 q-76 0 -129 -6 l0 152 q52 -13 171 -13 l1 0 q-2 25 -2 70.5 q0 45.5 1 65.5 l-42 0 q-76 0 -129 -6 l0 152 q52 -13 171 -13 l21 0 q120 504 878.5 504 q758.5 0 846.5 -428 q12 -61 54 -95 l-18 -22 q-43 31 -104 31 l-385 -24 q-67 -5 -87 -49 l-33 16 q11 24 11 38 q0 52 -34.5 90.5 q-34.5 38.5 -87.5 57.5 q-103 37 -198 37 q-188 0 -271 -156 l106 0 q113 0 165 13 l0 -152 q-52 6 -123 6 l-189 0 q-4 -20 -4 -63.5 q0 -43.5 5 -72.5 l146 0 q113 0 165 13 l0 -152 q-52 6 -123 6 l-147 0 q90 -167 310 -167 q54 0 120.5 26.5 q66.5 26.5 118.5 76.5 q52 50 52 106 q0 16 -11 40 l32 17 q24 -45 78 -49 q54 -4 139 -11 q187 -17 260 -17 q73 0 115 31 l16 -21 q-39 -27 -57 -103 q-18 -76 -71.5 -145.5 q-53.5 -69.5 -120.5 -115 q-67 -45.5 -155 -80.5 q-145 -58 -329 -84 q0 -92 24.5 -273 q24.5 -181 24.5 -241 q0 -60 -15 -84 q-15 -24 -43 -24 q-28 0 -42.5 24 q-14.5 24 -14.5 76.5 q0 52.5 16.5 203.5 q16.5 151 16.5 202 q0 51 -5 69 q-5 18 -12 27.5 q-7 9.5 -24 14.5 q-59 15 -161 -3 q-44 -8 -44 -29 l24 -272 q0 -65 -37 -65 q-20 0 -29.5 20.5 q-9.5 20.5 -9.5 55 q0 34.5 14 125.5 q14 91 14 130.5 q0 39.5 -26 39.5 q-87 0 -87 -31 l11 -433 q0 -17 -11 -30.5 q-11 -13.5 -27 -13.5 q-16 0 -26 11.5 q-10 11.5 -10 27.5 Z" /><glyph glyph-name="trademark" unicode="&#x2122;" d="M740 1277 l-83 -1 q-29 0 -42 1 l-24 1 l0 -597 l-295 0 l0 597 l-134 0 q-80 0 -106 -28 l-12 12 q22 23 22 59 l3 76 q0 64 -25 90 l12 13 q24 -24 56 -24 l654 0 q34 0 57 24 l12 -13 q-23 -24 -23 -59 q0 0 -2 -76 q0 -64 25 -90 l-12 -12 q-26 27 -83 27 ZM2138 681 l-282 0 l0 511 q0 37 25 72 l-32 0 q-12 -74 -86 -298 q-74 -224 -88 -285 l-241 0 q-13 57 -87.5 278 q-74.5 221 -86.5 304 l-32 0 q25 -35 25 -71 l0 -511 l-281 0 l0 707 q0 71 -40 118 l11 12 q47 -43 111 -43 l289 0 q74 0 106 45 l15 -11 q-29 -46 -29 -86 q0 -40 29 -100.5 q29 -60.5 58 -127 q29 -66.5 29 -114.5 l8 0 q0 49 29 115 q29 66 57.5 126 q28.5 60 28.5 100.5 q0 40.5 -29 86.5 l15 11 q32 -45 106 -45 l290 0 q64 0 111 43 l11 -12 q-40 -47 -40 -118 l0 -707 Z" /><glyph glyph-name="minus" unicode="&#x2212;" d="M858 559 l-568 0 q-76 0 -129 -6 l0 331 q52 -13 171 -13 l483 0 q114 0 166 13 l0 -331 q-52 6 -123 6 Z" /><glyph glyph-name="commaaccent" unicode="&#xf6c3;" d="M591 271 l-1 -190 q0 -179 -146 -383 l-151 12 q59 120 80 248 l7 42 l-161 0 q-61 0 -71 10 q-10 10 -10 71 l0 122 q0 5 0 47.5 q0 42.5 7.5 58.5 q7.5 16 47.5 16 l276 0 q7 0 49 0 q42 0 57.5 -7.5 q15.5 -7.5 15.5 -46.5 Z" /></font>
</defs>
</svg>
