<?xml version="1.0" encoding="iso-8859-1"?>
<!-- Generator: Adobe Illustrator 19.0.0, SVG Export Plug-In . SVG Version: 6.00 Build 0)  -->
<svg version="1.1" id="Layer_1" xmlns="http://www.w3.org/2000/svg" xmlns:xlink="http://www.w3.org/1999/xlink" x="0px" y="0px"
	 viewBox="0 0 491.2 491.2" style="enable-background:new 0 0 491.2 491.2;" xml:space="preserve">
<g>
	<g>
		<path d="M411.35,90.6h-194.4c-20.9,0-38,17-38,38v118.6c0,20.9,17,38,38,38h19.1v50.6c0,2.4,1.4,4.6,3.6,5.5
			c0.8,0.3,1.6,0.5,2.4,0.5c1.5,0,3-0.6,4.2-1.7l57.4-55h107.7c20.9,0,38-17,38-38V128.6C449.35,107.6,432.25,90.6,411.35,90.6z
			 M411.35,273.2h-110.1c-1.5,0-3,0.6-4.2,1.7l-49,46.9v-42.6c0-3.3-2.7-6-6-6h-25.1c-14.3,0-26-11.7-26-26V128.6
			c0-14.3,11.7-26,26-26h194.3c14.3,0,26,11.7,26,26v118.6h0.1C437.35,261.5,425.65,273.2,411.35,273.2z"/>
	</g>
</g>
<g>
	<g>
		<path d="M384.05,155.3h-145c-3.3,0-6,2.7-6,6c0,3.3,2.7,6,6,6h145c3.3,0,6-2.7,6-6C390.05,158,387.35,155.3,384.05,155.3z"/>
	</g>
</g>
<g>
	<g>
		<path d="M384.05,210.2h-145c-3.3,0-6,2.7-6,6c0,3.3,2.7,6,6,6h145c3.3,0,6-2.7,6-6C390.05,212.9,387.35,210.2,384.05,210.2z"/>
	</g>
</g>
<g>
	<g>
		<path d="M337.85,59.8c3.3,0,6-2.7,6-6v-21c0-18.1-14.7-32.8-32.8-32.8H74.65c-18.1,0-32.8,14.7-32.8,32.8v425.6
			c0,18.1,14.7,32.8,32.8,32.8h236.4c18.1,0,32.8-14.7,32.8-32.8v-135c0-3.3-2.7-6-6-6s-6,2.7-6,6v135c0,11.5-9.4,20.8-20.8,20.8
			H74.65c-11.5,0-20.8-9.4-20.8-20.8V32.8c0-11.5,9.4-20.8,20.8-20.8h236.4c11.5,0,20.8,9.4,20.8,20.8v21
			C331.85,57.1,334.55,59.8,337.85,59.8z"/>
	</g>
</g>
<g>
	<g>
		<path d="M223.15,418.7h-60.6c-3.3,0-6,2.7-6,6s2.7,6,6,6h60.6c3.3,0,6-2.7,6-6S226.45,418.7,223.15,418.7z"/>
	</g>
</g>
<g>
</g>
<g>
</g>
<g>
</g>
<g>
</g>
<g>
</g>
<g>
</g>
<g>
</g>
<g>
</g>
<g>
</g>
<g>
</g>
<g>
</g>
<g>
</g>
<g>
</g>
<g>
</g>
<g>
</g>
</svg>
